<?xml version="1.0" encoding="utf-8"?>
<!-- Generator: Adobe Illustrator 16.0.0, SVG Export Plug-In . SVG Version: 6.00 Build 0)  -->
<!DOCTYPE svg PUBLIC "-//W3C//DTD SVG 1.1//EN" "http://www.w3.org/Graphics/SVG/1.1/DTD/svg11.dtd">
<svg version="1.1" xmlns="http://www.w3.org/2000/svg" xmlns:xlink="http://www.w3.org/1999/xlink" x="0px" y="0px"
	 width="797.16px" height="647px" viewBox="0 0 797.16 647" enable-background="new 0 0 797.16 647" xml:space="preserve">
<g id="Layer_2">
	<path fill="#FF7100" d="M566.08,54l167.5,269.5L566.08,593h-335L63.58,323.5L231.08,54h334.5 M596.098,0H566.08h-335h-30.018
		l-15.846,25.245L17.717,294.62L0,323.063l17.717,28.474l167.5,269.734L201.063,647h30.018h335h30.018l15.846-25.745l167.5-269.625
		l17.717-28.567l-17.717-28.537L611.943,25.26L596.098,0L596.098,0z"/>
</g>
<g id="Layer_3">
	<polygon fill="#FF7100" points="206.58,144.333 227.914,316.667 345.914,394.139 312.58,182.333 	"/>
	<polygon fill="#FF7100" points="170.278,449.701 340.77,482.666 450.914,394.381 239.175,360.632 	"/>
	<polygon fill="#FF7100" points="449.482,578.59 533.519,426.63 483.591,294.595 386.063,485.542 	"/>
	<polygon fill="#FF7100" points="658.342,352.88 539.787,225.998 398.786,232.682 550.25,384.442 	"/>
	<polygon fill="#FF7100" points="508.22,84.494 350.913,158.038 313.697,294.203 504.836,197.05 	"/>
</g>
</svg>
