<svg width="1229.65px" height="999.15px" viewBox="0 0 1229.65 999.15" xmlns="http://www.w3.org/2000/svg" xmlns:xlink="http://www.w3.org/1999/xlink">
  <defs/>
  <g>
    <path stroke="none" fill="#000000" d="M613.8 872 L613.9 871.95 614.4 872.15 681.45 932.5 681.7 933.1 681.45 933.6 614 999.6 613.45 999.8 612.9 999.6 545.9 933.65 545.65 933.15 545.9 932.55 613.3 872.2 613.8 872 M1228.75 0.75 L1228.8 0.85 1229.3 1.05 1229.55 1.65 1229.25 29.15 1228.9 41.15 1228.35 51.7 1227.1 65.2 1225.9 72.9 1225.15 76.45 1223.35 82.95 1222.3 85.95 1219.85 91.65 1218.45 94.35 1215.25 99.6 1211.5 104.75 1207.15 110 1202.1 115.5 1189.9 127.95 1065.15 249.85 1065.15 272.9 1065.35 273 1150.6 191 1151.15 190.8 1151.8 191.15 1151.95 191.55 1152 220.05 1151.85 232.35 1151.3 247.95 1150.6 256.75 1149.6 264.45 1148.95 267.95 1147.35 274.4 1145.3 280.2 1142.75 285.6 1139.6 290.75 1135.85 295.85 1131.4 301.1 1126.2 306.7 1042.75 390.6 1043.15 397.3 1043.25 410.55 1043.4 410.6 1079.35 375.3 1079.9 375.1 1080.2 375.15 1080.65 375.65 1080.4 404.15 1080.1 416.45 1079.65 427.25 1078.6 440.9 1077.6 448.55 1077 452 1075.6 458.25 1074.8 461.1 1072.9 466.3 1071.8 468.7 1069.35 473.25 1066.45 477.5 1063.1 481.65 1059.3 485.85 1055 490.3 880.05 663.05 855.5 687.2 834.95 707.05 829.45 712.9 827.3 715.6 824.85 719.5 823.6 722.25 822.2 726.8 821.55 730.2 820.7 738.65 819.6 769.15 819.25 774.8 818.6 780.95 817.5 787.3 815.8 793.6 814.7 796.55 813.4 799.45 811.85 802.25 809.15 806 807 808.2 798.55 815.7 766.05 846.15 692.15 916.4 691.9 916.55 691.35 916.55 630.45 861.4 630.2 860.9 630.3 860.45 707.75 789.55 785.35 719.1 851.65 659.5 877.1 636.9 897.4 619.15 900.75 615.8 904.9 610.75 907.1 607.4 909.65 602.35 910.9 599 912.1 594 912.5 590.7 912.6 587.45 912.45 584.25 912.05 581.1 911.45 578.1 910.65 575.1 908.55 569.4 907.3 566.7 904.55 561.65 900.15 555.05 897.3 551.4 894.75 548.45 891.25 544.85 891 544.3 891.05 544 914.1 521.8 935.75 501.35 959.4 479.5 963.1 475.35 966.25 470.95 968.9 466.35 970.05 464 972.05 459.25 973.65 454.5 974.9 449.8 975.85 445.25 976.55 440.9 977.3 433.1 977.45 424.75 977.45 356.85 984.05 349.15 988.1 343.65 991.85 337.85 996.95 328.75 1000.05 322.4 1002.9 315.9 1005.5 309.25 1007.85 302.5 1010 295.7 1011.95 288.85 1013.7 282 1016.65 268.4 1018.9 255.15 1020.6 242.55 1021.8 230.8 1022.6 220.15 1023.25 203.2 1023.3 192.45 1228.25 0.95 1228.75 0.75 M0.65 0.75 L0.7 0.65 1.2 0.85 206.15 192.35 206.2 203.05 206.85 219.95 207.65 230.6 208.85 242.35 210.55 254.95 212.8 268.15 215.75 281.75 217.5 288.6 219.45 295.45 221.6 302.25 223.95 309 226.55 315.65 229.4 322.15 232.5 328.5 237.6 337.65 241.35 343.45 245.4 348.95 252 356.7 252 424.55 252.15 432.9 252.9 440.7 253.6 445.05 254.55 449.6 255.8 454.3 257.4 459.05 259.4 463.8 260.55 466.15 263.2 470.75 266.35 475.15 270 479.3 293.75 501.25 315.4 521.7 338.25 543.65 338.45 544.05 338.2 544.8 334.75 548.3 332.2 551.25 329.35 554.9 324.9 561.5 322.15 566.55 320.9 569.25 318.8 574.95 318 577.95 317.4 581.05 317 584.15 316.85 587.35 316.95 590.6 317.35 593.9 318.55 598.85 319.8 602.2 322.35 607.25 324.55 610.65 328.7 615.7 332.05 619.05 352.4 636.8 377.85 659.4 444.15 719 521.75 789.45 599.2 860.35 599.3 860.8 599.05 861.35 538.15 916.5 537.6 916.5 537.35 916.35 463.5 846.1 431 815.65 422.45 808.1 420.35 805.9 417.7 802.25 416.15 799.45 414.85 796.55 413.75 793.5 412.05 787.25 410.95 780.9 410.3 774.75 409.95 769.1 408.85 738.7 408.05 730.3 407.4 726.8 406.55 723.7 404.8 719.55 402.3 715.6 400.2 712.95 394.65 707.05 374.1 687.15 349.55 663 174.6 490.2 170.25 485.75 166.45 481.5 163.1 477.35 160.2 473.05 157.75 468.5 156.65 466.1 154.75 460.9 153.95 458.05 152.55 451.8 151.95 448.35 150.95 440.7 149.9 427.05 149.45 416.25 148.95 389.95 148.9 375.4 149.4 374.95 149.9 375 150.15 375.15 186.1 410.45 186.25 410.4 186.35 397.1 186.75 390.4 103.3 306.5 98.1 300.9 93.65 295.65 89.9 290.5 86.75 285.35 84.2 279.95 82.15 274.15 80.55 267.75 79.9 264.25 78.9 256.55 78.2 247.8 77.65 232.2 77.5 219.9 77.55 191.4 77.7 190.9 78.3 190.6 78.85 190.8 164.1 272.8 164.3 272.7 164.3 249.65 39.55 127.75 27.3 115.3 22.25 109.8 17.9 104.55 14.15 99.4 10.95 94.15 9.55 91.45 7.1 85.75 6.05 82.75 4.3 76.25 3.55 72.75 2.35 65.05 1.1 51.55 0.55 41 0.2 29 -0.1 1.55 0.15 0.95 0.65 0.75 M1005.1 180.65 L1005.1 180.5 1005.75 180.85 1005.9 181.25 1006.1 190.3 1005.8 206.95 1005.25 217.4 1003.7 235.1 1002.05 247.9 1001 254.5 998.4 267.95 996.85 274.75 995.1 281.55 993.15 288.3 991 295 988.6 301.6 985.95 308.05 983.05 314.35 979.9 320.5 976.5 326.4 972.8 332.1 968.85 337.5 964.55 342.6 869.8 432.8 865.75 437 860.25 443.6 857.25 447.7 852.8 454.7 850.05 459.85 848.8 462.55 846.6 468.25 845.7 471.2 844.3 477.3 843.6 483.65 843.55 486.9 843.7 490.2 844.1 493.55 844.75 496.9 845.65 500.25 847.35 505.45 850.95 514.75 854.8 522.9 856.85 526.65 861.25 533.7 866.05 540.45 871.35 547.2 883.55 562.05 886.9 566.5 889.55 570.8 890.6 572.9 892.2 576.95 893.15 581.05 893.4 585 893.3 587.05 892.6 591 892 593.1 891.25 595.1 889.3 599.15 888.1 601.2 885.2 605.4 879.75 612 875.4 616.65 870.5 621.5 865.05 626.6 790.55 692.8 725.15 750.5 689.9 781.25 654.45 811.85 621.35 839.95 620.85 840.15 620.5 840.1 620.1 839.6 620.1 839.25 660.9 633.2 701.7 595.15 748.95 594.5 801.7 542.9 801.6 539 801.2 534.95 800.6 530.95 799.75 527 798.7 523.1 797.45 519.3 794.5 511.9 792.8 508.3 789.1 501.4 787.1 498.1 782.95 491.85 778.65 486.1 774.35 480.85 770.2 476.15 766.3 472.05 759.85 465.85 755.6 462.1 755.6 414.15 1004.55 180.85 1005.1 180.65 M223 180.65 L222.9 180.85 223.45 181.05 472.4 414.35 472.4 462.3 468.2 466.05 461.8 472.25 457.9 476.35 453.75 481.05 449.45 486.3 445.15 492.05 441 498.3 439 501.6 435.3 508.45 433.6 512.05 430.65 519.45 429.4 523.25 428.35 527.15 427.5 531.1 426.9 535.1 426.5 539.15 426.35 543.15 479.1 594.75 526.35 595.4 567.1 633.35 608 839.5 608 839.85 607.6 840.35 607.25 840.4 606.75 840.2 573.6 812.05 538.15 781.45 502.9 750.7 437.5 693 362.95 626.75 357.5 621.65 352.6 616.8 348.25 612.15 342.8 605.55 339.9 601.3 338.7 599.25 336.75 595.15 336 593.15 335 589.25 334.7 587.25 334.6 585.2 334.85 581.25 335.8 577.15 337.4 573 338.45 570.9 341.1 566.6 344.45 562.15 356.6 547.35 361.9 540.6 366.7 533.85 371.1 526.8 373.15 523.05 377.05 514.9 380.65 505.6 382.35 500.45 383.3 497.05 383.95 493.7 384.35 490.4 384.5 487.1 384.45 483.85 383.75 477.5 382.35 471.4 381.45 468.45 379.25 462.75 378 460 375.25 454.8 370.85 447.8 367.85 443.7 362.35 437.1 358.3 432.9 263.55 342.7 259.25 337.55 255.3 332.15 251.6 326.45 248.2 320.5 245.05 314.35 242.15 308.05 239.5 301.6 237.1 295 234.95 288.3 233 281.55 231.25 274.8 229.7 268.05 227.1 254.65 226.05 248.05 224.4 235.25 222.85 217.55 222.3 207.1 222 190.45 222.2 181.4 222.35 181 223 180.65 M586.85 628.95 L586.9 629.1 642.25 629.1 642.6 629.15 643 629.65 614.8 771 614.3 771.55 613.75 771.55 613.25 770.95 586.1 629.9 586.25 629.25 586.85 628.95 M656.1 518.5 L656.1 518.6 671.25 520.8 671.65 520.95 689 535.45 689.3 536.05 689.15 536.5 688.55 536.8 657.8 536.8 657.6 537 658.75 553.35 658.95 553.55 705.8 561.65 706.15 561.85 723.35 576.75 723.6 577.35 723.45 577.8 722.85 578.1 654 578.1 614.35 612.8 613.85 613 613.35 612.8 573.85 578.1 505 578.1 504.55 577.95 504.25 577.6 504.25 577.15 504.5 576.75 521.7 561.85 522.05 561.65 568.9 553.55 569.1 553.35 570.25 537 570.05 536.8 539.3 536.8 538.85 536.65 538.55 536.3 538.55 535.85 538.8 535.45 556.1 520.95 556.5 520.75 571.5 518.55 571.95 518.6 613.8 555.95 614.1 555.95 655.6 518.7 656.1 518.5 M587.5 324.25 L587.4 324.25 587.9 324.45 588.15 324.9 593.7 355.1 597.2 443.05 613.5 455.6 613.8 455.6 630.3 443.05 633.8 355.1 639.3 324.9 639.55 324.45 640.1 324.25 640.6 324.45 640.85 324.95 653.25 474.8 653 475.45 643.95 483.45 644.15 507.55 614.3 533.9 613.8 534.1 613.3 533.9 583.65 507.8 583.45 507.25 583.65 483.45 574.6 475.45 574.35 474.8 586.7 324.95 586.95 324.45 587.5 324.25 M267.4 370.55 L267.35 370.5 267.85 370.7 356.25 452.55 359.15 455.75 361.65 459 363.75 462.3 365.45 465.55 366.85 468.9 367.95 472.25 368.75 475.6 369.25 479 369.5 482.3 369.5 485.6 369.25 488.85 368.2 495.15 367.45 498.2 365.5 504.05 364.4 506.85 361.95 512.05 358.05 518.9 355.55 522.7 351.55 528.1 350.1 529.7 349.8 529.75 349.3 529.55 280.45 465.5 278.95 463.95 276.3 460.7 273.1 455.5 270.7 450.1 269.45 446.5 268.5 443 267.3 436.4 266.8 430.75 266.65 371.3 266.75 370.9 267.4 370.55 M962.7 368.95 L962.65 369.05 963.3 369.4 963.4 369.8 963.25 429.3 962.75 434.95 961.55 441.6 960.6 445.15 959.4 448.65 956.95 454.1 953.7 459.3 951.05 462.55 949.55 464.1 880.75 528.1 880.25 528.3 879.9 528.2 878.45 526.6 874.45 521.2 871.95 517.4 868.05 510.55 865.6 505.3 864.5 502.5 862.55 496.65 861.8 493.6 860.75 487.3 860.55 484.05 860.55 480.8 860.8 477.55 861.3 474.2 862.1 470.8 863.2 467.45 864.6 464.1 866.35 460.75 868.45 457.45 870.95 454.2 873.85 450.95 962.2 369.15 962.7 368.95"/>
  </g>
</svg>