<?xml version="1.0" encoding="utf-8"?>
<!-- Generator: Adobe Illustrator 16.0.0, SVG Export Plug-In . SVG Version: 6.00 Build 0)  -->
<!DOCTYPE svg PUBLIC "-//W3C//DTD SVG 1.1//EN" "http://www.w3.org/Graphics/SVG/1.1/DTD/svg11.dtd">
<svg version="1.1" id="Layer_1" xmlns="http://www.w3.org/2000/svg" xmlns:xlink="http://www.w3.org/1999/xlink" x="0px" y="0px"
	 width="700px" height="421.717px" viewBox="-335.827 -202.312 700 421.717" enable-background="new -335.827 -202.312 700 421.717"
	 xml:space="preserve">
<g id="Layer_x0020_1">
	<g id="_225733672">
		<g>
			<polygon id="_226601008" fill="#FFB000" points="363.847,-18.34 105.767,-18.34 105.767,-53.491 363.847,-53.491 			"/>
		</g>
		<g>
			<polygon fill="#FFB000" points="-327.296,184.23 114.464,184.23 114.464,219.405 -327.296,219.405 			"/>
		</g>
		<g>
			<path fill="#FFB000" d="M127.234-15.257v124.053H85.168V-15.257l0,0H127.234z M-58.291-167.185v-35.127l0,0l9.757,0.266
				l9.625,0.747l9.505,1.252l9.336,1.735l9.155,2.192l8.975,2.65l8.745,3.06l8.528,3.493l8.301,3.879l8.07,4.265l7.758,4.626
				l7.518,4.986l7.275,5.301l6.938,5.638l6.649,5.975l6.361,6.24l6.071,6.529l5.733,6.818l5.396,7.059l5.036,7.324l4.697,7.541
				l4.386,7.782l3.975,7.975l3.59,8.216l3.229,8.384l2.843,8.553l2.409,8.746l2.024,8.89l1.565,9.059l1.133,9.18l0.698,9.3
				l0.241,9.396H85.168l-0.193-7.95l-0.602-7.854l-0.964-7.733l-1.301-7.613l-1.687-7.469l-2.024-7.324l-2.36-7.155l-2.699-6.987
				l-3.011-6.817l-3.301-6.626l-3.59-6.408l-3.879-6.216l-4.145-5.976l-4.385-5.758l-4.626-5.518l-4.866-5.252l-5.084-4.987
				l-5.275-4.722l-5.493-4.457l-5.662-4.145l-5.83-3.854l-5.987-3.565l-6.132-3.253l-6.264-2.939l-6.385-2.602l-6.517-2.289
				l-6.614-1.927l-6.722-1.614l-6.818-1.277l-6.914-0.915l-7.023-0.555L-58.291-167.185L-58.291-167.185z M-149.975-202.312h91.685
				v35.127h-91.685l0,0V-202.312z M-293.434-15.257H-335.5l0,0l0.229-9.396l0.698-9.3l1.133-9.18l1.578-9.059l2.012-8.89
				l2.421-8.746l2.831-8.553l3.229-8.384l3.602-8.216l3.987-7.975l4.349-7.782l4.71-7.541l5.06-7.324l5.396-7.059l5.723-6.818
				l6.047-6.529l6.36-6.24l6.662-5.975l6.963-5.638l7.239-5.301l7.529-4.986l7.781-4.626l8.047-4.265l8.301-3.879l8.54-3.493
				l8.746-3.06l8.962-2.65l9.168-2.192l9.336-1.711l9.492-1.276l9.637-0.747l9.758-0.266v35.127l-7.119,0.169l-7.012,0.555
				l-6.914,0.915l-6.818,1.277l-6.722,1.59l-6.626,1.951l-6.505,2.289l-6.384,2.602l-6.276,2.939l-6.132,3.253l-5.975,3.541
				l-5.831,3.879l-5.661,4.145l-5.481,4.457l-5.288,4.722l-5.084,4.987l-4.866,5.252l-4.638,5.518l-4.385,5.758l-4.145,5.976
				l-3.866,6.216l-3.59,6.408l-3.313,6.626l-2.999,6.817l-2.687,6.987l-2.361,7.155l-2.035,7.324l-1.675,7.469l-1.337,7.613
				l-0.952,7.733l-0.59,7.854L-293.434-15.257L-293.434-15.257L-293.434-15.257z M-335.5,108.796V-15.257h42.066v124.053
				l-21.033,17.563L-335.5,108.796z M-314.467,126.359H-335.5v-17.563L-314.467,126.359z M106.201,126.359h-420.668V91.232h420.668
				l21.033,17.563L106.201,126.359z M127.234,108.796v17.563h-21.033L127.234,108.796z"/>
		</g>
	</g>
</g>
</svg>
