<?xml version="1.0" encoding="utf-8"?>
<!-- Generator: Adobe Illustrator 16.0.0, SVG Export Plug-In . SVG Version: 6.00 Build 0)  -->
<!DOCTYPE svg PUBLIC "-//W3C//DTD SVG 1.1//EN" "http://www.w3.org/Graphics/SVG/1.1/DTD/svg11.dtd">
<svg version="1.1" id="Layer_2" xmlns="http://www.w3.org/2000/svg" xmlns:xlink="http://www.w3.org/1999/xlink" x="0px" y="0px"
	 width="454px" height="454px" viewBox="0 0 454 454" enable-background="new 0 0 454 454" xml:space="preserve">
<path d="M227,50c47.278,0,91.728,18.411,125.158,51.842C385.588,135.273,404,179.722,404,227s-18.411,91.727-51.842,125.158
	C318.727,385.589,274.278,404,227,404c-47.278,0-91.727-18.411-125.157-51.842C68.411,318.727,50,274.278,50,227
	s18.411-91.727,51.842-125.158C135.273,68.411,179.722,50,227,50 M227,0C101.631,0,0,101.631,0,227c0,125.368,101.631,227,227,227
	c125.369,0,227-101.632,227-227C454,101.631,352.369,0,227,0L227,0z"/>
<g>
	<circle cx="226.667" cy="227" r="76"/>
</g>
<g>
	<rect x="202" y="25" width="50" height="202"/>
</g>
</svg>
