<?xml version="1.0" encoding="utf-8"?>
<!-- Generator: Adobe Illustrator 16.0.0, SVG Export Plug-In . SVG Version: 6.00 Build 0)  -->
<!DOCTYPE svg PUBLIC "-//W3C//DTD SVG 1.1//EN" "http://www.w3.org/Graphics/SVG/1.1/DTD/svg11.dtd">
<svg version="1.1" xmlns="http://www.w3.org/2000/svg" xmlns:xlink="http://www.w3.org/1999/xlink" x="0px" y="0px"
	 width="1418.124px" height="1609.084px" viewBox="0 0 1418.124 1609.084" enable-background="new 0 0 1418.124 1609.084"
	 xml:space="preserve">
<g id="Layer_2">
	<path fill="#FFFFFF" d="M718.125,429.268l13.664-45h665.335c0,0-82.611,46.443-176.668,96.334
		c-121.225,64.302-302.315,90.975-397.869,95.993c-114.68,6.022-118.713,107.923-118.713,107.923s-17.896-99.266-95.897-105.266
		c-90.948-6.995-278.186-27.984-399.412-92.287C114.508,437.075,25.124,384.268,25.124,384.268h679.334L718.125,429.268z"/>
	<path fill="#FFFFFF" d="M0,420.897c0,0,81.527,48.322,171.762,104.832c116.299,72.834,229.944,216.326,282.067,296.568
		c62.555,96.305,152.82,48.848,152.82,48.848s-77.019,65.131-43.214,135.682c39.416,82.261,116.429,253.639,121.355,390.775
		c3.821,106.4,1.21,211.482,1.21,211.482l-328.356-568.729l43.813-51.42l-67.194,10.923L0,420.897z"/>
	<path fill="#FFFFFF" d="M732.577,1609.268c0,0-3.246-80.646-2.328-188.42c1.169-137.219,72.372-307.301,115.802-392.563
		c52.125-102.326-34.106-156.77-34.106-156.77s94.914,34.135,139.111-30.416c51.531-75.266,162.735-229.166,280.735-306.707
		c87.365-57.41,186.333-112.125,186.333-112.125l-309.955,536.67c-8.795,14.955-81.045-3.17-81.045-3.17
		s53.375,52.125,45.232,65.201L732.577,1609.268z"/>
</g>
<g id="Layer_3">
	
		<polyline fill="none" stroke="#FFFFFF" stroke-width="26" stroke-linecap="round" stroke-linejoin="round" stroke-miterlimit="10" points="
		91.624,267.268 180.617,26.268 267.79,267.268 127.124,267.268 	"/>
	
		<polyline fill="none" stroke="#FFFFFF" stroke-width="26" stroke-linecap="round" stroke-linejoin="round" stroke-miterlimit="10" points="
		533.124,132.268 436.124,132.268 556.624,18.268 411.124,18.268 411.124,267.268 555.124,267.268 	"/>
	
		<line fill="none" stroke="#FFFFFF" stroke-width="26" stroke-linecap="round" stroke-linejoin="round" stroke-miterlimit="10" x1="1019.124" y1="18.268" x2="1019.124" y2="267.268"/>
	<path fill="none" stroke="#FFFFFF" stroke-width="26" stroke-linecap="round" stroke-linejoin="round" stroke-miterlimit="10" d="
		M858.124,59.768c-9-24.5-37.5-44.5-77-44.5c-87,0-82.667,87.072-83,125c-0.342,38.98-4,132,83,132c47.5,0,67.529-24.09,79-43.5
		v-75.5h-50"/>
	<path fill="none" stroke="#FFFFFF" stroke-width="26" stroke-linecap="round" stroke-linejoin="round" stroke-miterlimit="10" d="
		M1278.14,94.326l39.317-28.391c0,0-0.333-50.667-75.334-50.667c-63.5,0-99,89.5,6,120.5c121.338,35.824,94.5,143-6,134.5
		c-44.342-3.75-68.5-31.444-68.5-54.5"/>
</g>
</svg>
