<?xml version="1.0" encoding="UTF-8" standalone="no"?>

<svg
   xmlns:svg="http://www.w3.org/2000/svg"
   xmlns="http://www.w3.org/2000/svg"
   width="102.99805mm"
   height="115.36375mm"
   viewBox="0 0 102.99805 115.36375"
   version="1.1"
   id="svg8">
  <defs
     id="defs2" />

  <metadata
     id="metadata5">
  </metadata>
  <g
     id="layer1"
     transform="translate(-43.767696,-9.4342803)">
    <path
       style="stroke-width:0.17857143"
       d="m 233.91854,110.05654 c -3.34005,0.99069 -6.48741,2.57771 -9.64566,4.03945 -12.34286,6.1889 -23.9969,13.63786 -36.18358,20.11821 -6.00357,3.38956 -12.18248,6.52255 -17.85623,10.45694 -2.78493,1.93546 -4.64368,5.20978 -4.56614,8.6364 -0.34257,11.40442 -0.13089,22.81838 -0.19491,34.22668 0.028,12.09184 -0.0601,24.198 0.0403,36.28091 0.11982,1.68347 2.01935,2.01685 3.385,1.827 9.6988,-0.029 19.41191,0.0579 29.10177,-0.0435 1.68327,-0.12007 2.01645,-2.01946 1.82666,-3.38499 0.0243,-16.05335 -0.0485,-32.1167 0.0364,-48.1638 0.70656,-3.20443 1.25952,-6.48185 2.11518,-9.63161 7.68342,-5.15797 15.69028,-9.8112 23.881,-14.11324 7.00205,-3.79174 14.07672,-7.47807 21.03946,-11.32422 1.62844,-1.11084 0.53404,-3.11317 0.18832,-4.61586 -2.32147,-7.77017 -6.3582,-14.87888 -10.26868,-21.93475 -0.65017,-1.12724 -1.34712,-2.53652 -2.89884,-2.37367 z"
       id="path43"
       transform="scale(0.26458333)" />
    <path
       style="stroke-width:0.17857143"
       d="m 270.24109,202.76127 c -4.7244,0.39222 -8.68124,3.34221 -12.72461,5.53292 -9.07613,5.29526 -18.21421,10.49238 -27.18234,15.96791 -2.44003,1.60454 -5.10613,3.557 -5.64127,6.639 -0.94712,4.98441 -0.54401,10.10098 -0.65261,15.14491 0.52383,1.61548 -1.13257,1.05073 -2.14285,1.13211 -18.14291,0 -36.28581,0 -54.42871,0 -1.56945,0.0466 -2.24035,1.70292 -1.99986,3.07129 0.0584,3.26659 -0.11628,6.56198 0.0869,9.8107 0.2239,1.67699 2.18359,1.78454 3.52011,1.65345 18.31892,0 36.63783,0 54.95675,0 0.16436,4.40706 -0.14622,8.86305 0.54583,13.23346 0.46833,2.76264 2.48546,4.90784 4.777,6.36392 7.54205,4.6413 15.33757,8.8636 23.00169,13.30069 4.88361,2.65068 9.53297,5.80468 14.65504,8.00559 2.111,0.88109 4.50322,1.15121 6.67287,0.29751 5.91588,-2.13857 11.23761,-5.59462 16.64055,-8.75737 7.42441,-4.53602 15.27625,-8.39622 22.3627,-13.46917 2.1997,-1.52092 4.14239,-3.76329 4.27471,-6.55695 0.44453,-7.04719 0.21654,-14.11953 0.32611,-21.17708 -0.0622,-6.53742 0.22946,-13.09855 -0.34355,-19.61847 -0.3845,-4.14514 -3.80262,-7.02643 -6.96673,-9.27699 -6.63008,-4.58808 -13.88611,-8.07031 -20.71925,-12.3164 -5.21849,-3.02241 -10.33012,-6.36891 -16.02252,-8.44497 -0.96799,-0.3094 -1.97423,-0.5455 -2.99595,-0.53606 z m -0.25879,36.81745 c 3.89769,-0.11974 7.94204,0.94878 10.86774,3.62584 4.31172,3.83967 5.14488,10.58433 2.884,15.72265 -2.01621,4.72781 -7.02481,7.88165 -12.14541,7.81258 -5.90321,0.59955 -11.36057,-3.88197 -13.19046,-9.30393 -1.67749,-4.67991 -0.68375,-10.4072 3.12745,-13.77267 2.24882,-2.04065 5.08392,-3.48515 8.05315,-4.08028 0.13446,-0.006 0.269,-0.004 0.40353,-0.004 z"
       id="path45"
       transform="scale(0.26458333)" />
    <path
       style="stroke-width:0.17857143"
       d="m 166.52457,286.16494 c -1.6661,1.10685 -0.8726,3.31207 -1.05573,4.97733 0.0233,20.15163 -0.0465,40.30761 0.0349,60.45654 0.72561,3.59164 1.28785,7.23509 2.12174,10.79423 0.65477,1.51606 2.47912,1.95938 3.68815,2.94852 8.74895,5.69384 17.61399,11.21032 26.7113,16.33301 11.35532,6.47383 22.65571,13.05042 34.12223,19.32505 1.44661,0.68384 2.78997,-0.60589 3.23905,-1.91371 4.03481,-7.62726 8.12082,-15.23279 12.00369,-22.93702 0.45097,-1.42369 -0.72384,-2.51558 -1.9151,-3.02883 -10.59457,-6.19486 -21.37082,-12.08559 -31.97577,-18.254 -4.10796,-2.92406 -8.25772,-5.79072 -12.30821,-8.79459 -0.45168,-3.70584 -1.13754,-7.40037 -1.36509,-11.12305 0,-15.67348 0,-31.34696 0,-47.02044 -0.0466,-1.56944 -1.70292,-2.24034 -3.07129,-1.99986 -9.81785,0.029 -19.65001,-0.0579 -29.45892,0.0435 -0.25697,0.0645 -0.51395,0.12891 -0.77092,0.19337 z"
       id="path47"
       transform="scale(0.26458333)" />
    <path
       style="stroke-width:0.17857143"
       d="m 353.04243,202.05779 c -1.66611,1.10686 -0.87261,3.31208 -1.05574,4.97733 -0.0345,31.27933 0.0767,62.55919 -0.0765,93.83816 -0.0502,2.33848 0.16853,4.81211 -1.10482,6.90438 -1.57918,2.69747 -4.54821,4.1099 -7.07101,5.76486 -7.58931,4.58413 -15.66559,8.34837 -23.03844,13.28882 -2.32783,1.4836 -4.20078,3.88774 -4.3353,6.73036 -0.42561,7.2922 -0.21049,14.60699 -0.3161,21.90848 0.0553,7.482 -0.19418,14.98469 0.38548,22.45064 0.23973,3.07411 2.23206,5.70852 4.79801,7.29475 5.28584,3.41971 10.95591,6.15629 16.36081,9.36562 7.01641,3.92247 13.86097,8.30675 21.44583,11.07524 3.15573,1.28619 6.42858,-0.41761 9.25363,-1.74945 5.61237,-2.85745 10.91506,-6.27775 16.45714,-9.26745 6.50675,-3.76071 13.19034,-7.2981 19.21569,-11.81676 2.05475,-1.46416 3.61161,-3.74044 3.61289,-6.33627 0.36423,-8.53055 0.1257,-17.0757 0.1981,-25.61209 -0.0534,-5.47212 0.10726,-10.96056 -0.0812,-16.42238 -0.47803,-2.36532 -1.84061,-4.49172 -3.84699,-5.84394 -6.31124,-4.47496 -13.42282,-7.62814 -20.21908,-11.27127 -3.97205,-2.14935 -8.12219,-4.06913 -11.74835,-6.78607 -1.86277,-1.69764 -2.76326,-4.31053 -2.49967,-6.79234 -0.0303,-33.31311 -0.0606,-66.62621 -0.091,-99.93932 -0.0476,-1.56889 -1.70355,-2.23819 -3.07129,-1.99811 -4.18776,0.0589 -8.40448,-0.1167 -12.57437,0.0869 -0.19924,0.05 -0.39847,0.1 -0.59771,0.14992 z m 7.62416,140.19741 c 3.26351,-0.0744 6.59259,0.59603 9.33282,2.44081 4.84263,3.05005 6.62075,9.49769 5.11856,14.84644 -1.24502,5.17792 -5.92615,9.14195 -11.17536,9.78097 -4.96847,0.8361 -10.29163,-1.39323 -13.06815,-5.6271 -1.97209,-2.72311 -2.80508,-6.12405 -2.52755,-9.45556 0.2859,-5.16233 4.37496,-9.40921 9.05343,-11.15269 1.05854,-0.36322 2.11938,-0.89883 3.26625,-0.83287 z"
       id="path49"
       transform="scale(0.26458333)" />
    <path
       style="stroke-width:0.17857143"
       d="m 359.03294,100.41926 c -2.63653,0.33106 -4.98733,1.76099 -7.37302,2.84598 -9.79038,5.0754 -19.08372,11.03708 -28.62231,16.55823 -2.85054,1.85903 -6.07457,3.4561 -8.14808,6.24311 -1.75597,2.63247 -1.19636,5.96292 -1.38561,8.95054 -0.005,11.49317 -0.0946,22.9895 0.13072,34.48076 -0.0213,2.45455 0.47509,5.03762 2.23319,6.8683 3.11981,3.15976 7.14546,5.2061 10.84961,7.58405 7.40506,4.58024 15.18649,8.61963 22.09034,13.91211 1.55527,1.08825 2.61436,2.7194 2.9972,4.57527 0.59062,1.54843 2.41224,1.49102 3.7657,1.31033 4.06206,-0.16109 8.15381,0.0574 12.19871,-0.15711 1.94025,-0.30838 1.59875,-2.61013 2.22267,-4.00269 1.23384,-2.61663 3.80666,-4.04174 6.07348,-5.60462 8.37081,-5.37108 17.49416,-9.50864 25.62993,-15.25092 2.15498,-1.50887 4.01707,-3.63666 4.43778,-6.31453 0.59291,-4.60986 0.28465,-9.28352 0.38667,-13.9202 -0.0599,-9.37165 0.14794,-18.7492 -0.16032,-28.11697 0.0332,-3.25611 -1.96578,-6.2191 -4.70145,-7.85994 -5.60336,-3.70901 -11.60502,-6.76835 -17.26185,-10.39546 -6.90228,-4.20378 -13.78924,-8.72561 -21.57523,-11.1237 -1.23425,-0.3312 -2.50582,-0.58394 -3.78813,-0.58254 z m 0.94971,36.49798 c 4.88389,-0.1392 10.00324,2.11966 12.47907,6.46972 3.72616,6.1682 1.67507,15.25998 -4.73249,18.80964 -2.80984,1.78999 -6.26596,2.05915 -9.50579,1.82234 -6.47493,-1.06177 -11.35637,-7.35728 -11.26035,-13.83754 -0.13005,-3.80654 1.70222,-7.50557 4.69087,-9.8291 2.12198,-1.66648 4.62006,-3.05883 7.32387,-3.40751 0.33451,-0.021 0.6697,-0.0279 1.00482,-0.0276 z"
       id="path51"
       transform="scale(0.26458333)" />
    <path
       style="stroke-width:0.17857143"
       d="m 361.47574,35.657123 c -4.95819,0.379739 -9.2889,3.149449 -13.54075,5.48568 -17.04493,10.179272 -34.30638,19.993259 -51.31506,30.233052 -1.21449,0.739843 -2.98038,1.61193 -2.57821,3.340787 1.5948,3.396238 3.66195,6.572493 5.47123,9.864534 2.87473,4.892875 5.59462,9.889129 8.65224,14.667604 1.15464,1.24003 2.82459,0.368937 3.96869,-0.401436 13.6657,-7.786073 27.24718,-15.720498 40.82597,-23.655359 2.99052,-1.519571 6.08942,-3.541737 9.59778,-3.200807 2.51627,0.108123 4.68707,1.627841 6.87339,2.722959 8.98873,5.476243 17.68133,11.503219 26.67448,17.021843 4.83464,2.974919 9.70866,5.933141 14.8844,8.2801 1.43317,0.38891 2.45958,-0.817338 2.9541,-2.003697 4.50066,-8.102944 9.03267,-16.192773 13.37263,-24.381977 0.55268,-1.459562 -0.68026,-2.598032 -1.8835,-3.154351 -16.89425,-10.072993 -34.12746,-19.638625 -50.96512,-29.748121 -4.05486,-2.207691 -8.26192,-4.818497 -12.99227,-5.070811 z"
       id="path53"
       transform="scale(0.26458333)" />
    <path
       style="stroke-width:0.17857143"
       d="m 488.12695,111.45898 v 0.002 c -2.75909,-0.0675 -4.36531,2.52708 -5.8789,4.43359 -4.16757,5.72879 -7.4368,12.04923 -10.58008,18.37891 -0.78432,1.16551 -0.91312,2.9633 0.51562,3.68359 11.38198,6.56262 22.90246,12.88822 34.16211,19.66016 4.67375,2.93241 9.20826,6.0782 13.8086,9.12304 0.46832,4.39269 1.4368,8.75452 1.21484,13.19141 0.0262,14.62626 -0.0633,29.26546 0.0352,43.88281 0.11956,1.68364 2.02108,2.01796 3.38672,1.82813 9.34535,-0.0292 18.70459,0.0566 28.04101,-0.0449 1.68487,-0.12036 2.01732,-2.0204 1.82422,-3.38672 -0.0789,-21.63918 0.0119,-43.27959 -0.19141,-64.91797 -0.11342,-3.07088 0.14812,-6.4574 -1.77539,-9.07617 -2.61471,-3.33921 -6.54669,-5.24825 -10.10547,-7.39844 -14.71068,-8.2928 -29.2712,-16.86979 -43.85937,-25.35547 -3.32705,-1.70837 -6.76221,-3.84349 -10.59766,-4.00391 z m -39.64453,89.84766 c -3.70236,0.28515 -6.94874,2.35471 -10.17187,4.02148 -6.7203,3.81489 -13.19144,8.052 -19.94922,11.80469 -4.45704,2.70694 -9.15406,5.16243 -13.04492,8.67774 -1.7635,1.62743 -2.36978,4.06516 -2.32618,6.39257 -0.2166,11.32641 -0.0808,22.65811 -0.0859,33.98633 0.10659,3.23458 -0.37326,6.83698 1.67578,9.61719 3.53393,4.55747 8.73313,7.36947 13.5957,10.2793 6.28299,3.47548 12.50769,7.05022 18.67774,10.72265 3.79571,2.06713 7.55894,4.52377 11.8789,5.29883 4.39075,0.46937 8.22471,-2.23224 11.84375,-4.31445 9.30739,-5.53404 18.71366,-10.86773 28.02344,-16.36524 2.72704,-1.77865 5.97698,-3.72224 6.61719,-7.20117 1.07981,-4.98399 0.78535,-10.12986 0.68164,-15.1914 h 56.74804 c 1.56944,-0.0466 2.24048,-1.7039 2,-3.07227 -0.0584,-3.26659 0.11725,-6.56184 -0.0859,-9.81055 -0.22391,-1.677 -2.18301,-1.78343 -3.51953,-1.65234 h -55.14844 c 0.0794,-5.36511 0.43533,-10.85112 -0.875,-16.10547 -0.94486,-3.06661 -3.80155,-5.01251 -6.37891,-6.65039 -10.64764,-6.13203 -21.33042,-12.20841 -32.13867,-18.05273 -2.50791,-1.19894 -5.1885,-2.37055 -8.01758,-2.38477 z m 0.39063,36.85547 c 4.58196,0.004 9.44648,1.61514 12.20898,5.46484 4.17611,5.62936 3.14129,14.38998 -2.37109,18.77735 -4.77371,3.92401 -12.46287,4.25497 -17.22266,0.11132 -3.35255,-2.80817 -5.447,-7.15038 -5.14648,-11.55859 -0.11681,-5.01332 3.5314,-9.38664 7.9414,-11.37109 1.4604,-0.62518 2.97815,-1.36861 4.58985,-1.42383 z"
       transform="scale(0.26458333)"
       id="path55" />
    <path
       style="stroke-width:0.17857143"
       d="m 522.42615,286.16494 c -1.66374,1.10575 -0.87577,3.30912 -1.06219,4.97313 -0.0785,16.71086 0.0322,33.42377 -0.19863,50.13324 0.2052,3.04816 -2.16157,5.4211 -4.52183,6.95557 -5.10758,3.32259 -10.52873,6.13407 -15.75948,9.2558 -6.74239,3.95198 -13.59087,7.72159 -20.34403,11.6524 -2.89946,1.87414 -6.06544,4.09418 -7.15786,7.53941 -0.82595,3.17332 1.16579,6.10718 2.38488,8.88687 2.53303,4.87586 5.30863,9.76487 9.23901,13.66231 1.3158,1.33989 3.28168,2.19157 5.13706,1.51123 5.21719,-1.54879 9.85826,-4.52463 14.52195,-7.24782 13.86863,-8.36044 27.92875,-16.40405 41.71519,-24.89917 2.76554,-1.95955 5.80017,-4.0985 7.09259,-7.36647 1.57411,-4.23428 0.92594,-8.82501 1.11822,-13.23799 0.0949,-20.01834 0.042,-40.03699 0.0561,-60.05547 -0.0466,-1.56944 -1.70292,-2.24034 -3.07129,-1.99986 -9.4578,0.029 -18.92991,-0.0579 -28.37877,0.0435 -0.25698,0.0645 -0.51395,0.12891 -0.77092,0.19337 z"
       id="path60"
       transform="scale(0.26458333)" />
    <path
       style="stroke-width:1.01015258"
       d="m 306.76506,409.19908 c -4.3002,8.18592 -9.27113,16.07022 -12.97612,24.54553 1.28274,4.68504 7.76147,5.65234 11.17964,8.67879 16.88617,9.64438 33.20936,20.55353 50.84806,28.73631 10.32591,2.31776 19.20538,-5.8202 27.95935,-9.96507 14.20286,-8.53233 29.02442,-16.48509 42.66979,-25.66077 -0.68887,-6.06825 -6.16889,-11.6587 -8.85379,-17.47808 -2.00417,-3.21015 -4.29475,-9.87422 -9.14088,-6.4063 -16.43362,7.10727 -31.13642,17.93804 -47.79876,24.40939 -8.90483,-1.22149 -16.12421,-7.66718 -24.06796,-11.53233 -9.65641,-5.17161 -18.67597,-12.1907 -28.69278,-16.26462 l -0.77658,0.64601 z"
       id="path62"
       transform="scale(0.26458333)" />
  </g>
</svg>
