<?xml version="1.0" encoding="UTF-8" standalone="no"?>
<!-- Created with Inkscape (http://www.inkscape.org/) -->

<svg
   xmlns:dc="http://purl.org/dc/elements/1.1/"
   xmlns:cc="http://creativecommons.org/ns#"
   xmlns:rdf="http://www.w3.org/1999/02/22-rdf-syntax-ns#"
   xmlns:svg="http://www.w3.org/2000/svg"
   xmlns="http://www.w3.org/2000/svg"
   xmlns:sodipodi="http://sodipodi.sourceforge.net/DTD/sodipodi-0.dtd"
   xmlns:inkscape="http://www.inkscape.org/namespaces/inkscape"
   width="210mm"
   height="297mm"
   viewBox="0 0 210 297"
   version="1.1"
   id="svg8"
   inkscape:version="0.92.4 (5da689c313, 2019-01-14)"
   sodipodi:docname="tech_broker_filled.svg">
  <defs
     id="defs2" />
  <sodipodi:namedview
     id="base"
     pagecolor="#ffffff"
     bordercolor="#666666"
     borderopacity="1.0"
     inkscape:pageopacity="0.0"
     inkscape:pageshadow="2"
     inkscape:zoom="0.98994949"
     inkscape:cx="697.02619"
     inkscape:cy="869.00361"
     inkscape:document-units="mm"
     inkscape:current-layer="layer1"
     showgrid="false"
     inkscape:window-width="1920"
     inkscape:window-height="1017"
     inkscape:window-x="-8"
     inkscape:window-y="1072"
     inkscape:window-maximized="1" />
  <metadata
     id="metadata5">
    <rdf:RDF>
      <cc:Work
         rdf:about="">
        <dc:format>image/svg+xml</dc:format>
        <dc:type
           rdf:resource="http://purl.org/dc/dcmitype/StillImage" />
        <dc:title></dc:title>
      </cc:Work>
    </rdf:RDF>
  </metadata>
  <g
     inkscape:label="Layer 1"
     inkscape:groupmode="layer"
     id="layer1">
    <path
       d="m 89.957422,12.515108 c 1.35467,-0.779639 4.18394,-2.7163886 5.64444,-2.7551936 1.4852,-0.03881 4.30742,1.9120546 5.644448,2.6987486 0,0 11.64166,6.706304 11.64166,6.706304 0,0 -3.88055,7.055554 -3.88055,7.055554 -1.92264,-0.737305 -6.84742,-4.004027 -8.81945,-5.291666 -0.973658,-0.634999 -3.139718,-2.148416 -4.233328,-2.247194 -1.32644,-0.123472 -3.44311,1.354667 -4.58611,2.035528 0,0 -9.525,5.503332 -9.525,5.503332 0,0 -3.88055,-6.702776 -3.88055,-6.702776 0,0 11.99444,-7.002637 11.99444,-7.002637 z m 13.405548,18.545523 c 0.73731,0.419805 2.83633,1.534583 3.31611,2.084916 0.58209,0.66675 0.54681,1.418167 0.56445,2.247194 0,0 0,8.113887 0,8.113887 0,0.839611 0.0741,2.010833 -0.35984,2.748139 -0.92075,1.559277 -8.212658,4.540249 -9.158108,6.145387 -0.43391,0.737306 -0.35983,1.908527 -0.35983,2.748138 0,0 0,23.98888 0,23.98888 0.003,1.016 -0.11289,2.20134 0.56445,3.03742 0.97719,1.21355 8.449018,4.22275 9.306268,5.56683 0.36689,0.57503 0.34572,1.32292 0.35983,1.97908 0,0 0,8.11389 0,8.11389 0,0.80433 0.0776,1.9932 -0.35983,2.684638 -0.58561,0.92075 -6.10305,3.88408 -7.401278,4.62492 -1.03716,0.58913 -3.11502,2.0073 -4.23333,1.98261 -1.17828,-0.0282 -5.43983,-2.6282 -6.70277,-3.34786 -4.70606,-2.68464 -4.93184,-2.13431 -4.93889,-5.591528 0,0 0,-8.81944 0,-8.81944 0.0141,-0.65617 -0.007,-1.40406 0.35983,-1.97909 0.79728,-1.24883 7.55297,-4.09575 8.60072,-5.50333 0.66675,-0.89253 0.56092,-2.04964 0.56445,-3.10091 0,0 0,-23.283332 0,-23.283332 0,-0.843139 0.0741,-2.007305 -0.35984,-2.748138 -0.83608,-1.42875 -8.18797,-4.970638 -9.30627,-6.286499 -0.58209,-0.684389 -0.54681,-1.411111 -0.56445,-2.254249 0,0 0,-8.113887 0,-8.113887 0,-0.772584 -0.0882,-1.954389 0.34925,-2.607028 0.44803,-0.666749 2.42006,-1.742721 3.17853,-2.183694 2.04258,-1.185333 6.09247,-3.79236 8.11389,-4.430888 2.34597,0.04939 6.307658,2.95275 8.466658,4.183944 z M 44.096322,42.095517 c 0.004,-1.25236 -0.14817,-2.360082 0.81491,-3.312582 0.7232,-0.716139 5.38339,-3.185583 6.59342,-3.848805 2.71286,-1.49225 7.90575,-4.77661 10.58333,-5.53861 1.14653,2.014361 2.75167,4.804833 3.175,7.055554 0,0 -8.46666,4.536722 -8.46666,4.536722 0,0 -3.66889,2.303638 -3.66889,2.303638 0,0 -0.56445,2.684638 -0.56445,2.684638 0,0 0,13.405553 0,13.405553 0,0 -8.46666,0 -8.46666,0 0,0 0,-17.286108 0,-17.286108 z M 128.83705,29.850603 c 1.09008,-0.391583 4.18394,1.721556 5.21758,2.314222 0,0 8.11389,4.691944 8.11389,4.691944 0.94544,0.53975 3.28083,1.703916 3.82058,2.55411 0.49742,0.786694 0.41275,2.123722 0.41275,3.037416 0,0 0,16.93333 0,16.93333 0,0 -8.11389,0 -8.11389,0 0,0 0,-12.699997 0,-12.699997 0,0 -0.35983,-2.748139 -0.35983,-2.748139 0,0 -3.8735,-2.596444 -3.8735,-2.596444 0,0 -9.17222,-5.238748 -9.17222,-5.238748 0.51858,-1.160639 2.92453,-5.873749 3.95464,-6.247694 z M 95.954642,43.72535 c 4.741328,-0.68086 4.695468,-8.036276 -1.05833,-7.845776 -5.76086,1.471083 -3.49603,8.501943 1.05833,7.845776 z M 130.5198,73.005902 c -0.48683,0.77964 -2.00731,1.53458 -2.81517,1.99672 0,0 -5.64444,3.28789 -5.64444,3.28789 -0.91017,0.53975 -2.08844,1.38994 -3.175,1.33702 -1.25589,-0.06 -4.39561,-2.14841 -5.64444,-2.86102 -1.51695,-0.86431 -5.54214,-2.81517 -6.13833,-4.34622 -0.25048,-0.64559 -0.21167,-1.74978 -0.21167,-2.45534 0,0 0,-7.761106 0,-7.761106 0.0141,-0.666749 -0.007,-1.396999 0.35983,-1.98261 0.55386,-0.885472 4.50145,-2.980972 5.63739,-3.661833 1.19944,-0.719666 4.42736,-2.875138 5.64444,-2.963332 1.03717,-0.07408 2.286,0.659694 3.175,1.150055 0,0 5.99722,3.372555 5.99722,3.372555 0.84667,0.483305 2.32481,1.213555 2.81517,2.042583 0.53269,0.90311 0.35983,3.714749 0.35983,4.864804 0,0 15.52222,0 15.52222,0 0,0 0,3.174999 0,3.174999 0,0 -15.52222,0 -15.52222,0 0,1.114775 0.17992,3.944055 -0.35983,4.804835 z M 59.978372,60.577541 c 0.44803,-0.702027 2.05669,-1.520472 2.81517,-1.972027 0,0 5.64444,-3.309055 5.64444,-3.309055 0.84314,-0.486833 2.20133,-1.354666 3.175,-1.326444 1.18886,0.0388 4.8013,2.374194 5.99722,3.083277 1.47461,0.874889 5.17878,2.607027 5.78555,4.123971 0.254,0.631472 0.21167,1.742722 0.21167,2.437694 0,0 0,7.761105 0,7.761105 -0.0141,0.6597 0.007,1.40053 -0.35983,1.97909 -0.54681,0.8643 -4.5332,2.97744 -5.63739,3.61244 -1.29469,0.74083 -4.66019,3.03742 -5.99722,2.99508 -0.94897,-0.0318 -2.33539,-0.95602 -3.175,-1.43227 0,0 -5.64444,-3.22086 -5.64444,-3.22086 -0.762,-0.43392 -2.36714,-1.24531 -2.81517,-1.95439 -0.52917,-0.83256 -0.35983,-3.38667 -0.35983,-4.448529 0,0 -15.52222,0 -15.52222,0 0,0 0,-3.175 0,-3.175 0,0 15.52222,0 15.52222,0 0,-1.153583 -0.19403,-4.282721 0.35983,-5.154082 z m 59.612378,9.958911 c 4.74133,-0.68086 4.69547,-8.036272 -1.05834,-7.845772 -5.76086,1.471083 -3.49602,8.501942 1.05834,7.845772 z m -47.272218,0.35278 c 4.74134,-0.68086 4.69548,-8.036275 -1.05833,-7.845775 -5.76086,1.471083 -3.49603,8.501945 1.05833,7.845775 z m -19.75555,5.07294 c 0,0 0,13.05278 0,13.05278 0,0 0.35984,2.74814 0.35984,2.74814 0,0 3.52072,2.49061 3.52072,2.49061 0,0 8.81944,4.9918 8.81944,4.9918 0,0 -3.52778,6.702778 -3.52778,6.702778 0,0 -11.99444,-6.843888 -11.99444,-6.843888 0,0 -5.08,-3.24908 -5.08,-3.24908 0,0 -0.56444,-2.95981 -0.56444,-2.95981 0,0 0,-16.93333 0,-16.93333 0,0 8.46666,0 8.46666,0 z m 93.838868,0 c 0,0 0,16.93333 0,16.93333 0,0.88195 0.0705,2.00025 -0.35983,2.79048 -0.61031,1.1183 -2.42711,2.05669 -3.52073,2.71286 0,0 -8.11388,4.797768 -8.11388,4.797768 -0.99836,0.5962 -4.19806,2.66347 -5.21758,2.56822 -1.1042,-0.0988 -3.46428,-4.37444 -3.65831,-5.44688 -0.28575,-1.583978 2.43417,-2.726968 3.58422,-3.393718 0,0 5.99722,-3.46428 5.99722,-3.46428 0.85372,-0.50447 2.31775,-1.2065 2.81517,-2.04964 0.35983,-0.61383 0.34572,-1.35467 0.35983,-2.04258 0,0 0,-13.40556 0,-13.40556 0,0 8.11389,0 8.11389,0 z m -50.094428,22.09094 c 4.741328,-0.68086 4.695468,-8.03627 -1.05834,-7.84577 -5.76086,1.47108 -3.49602,8.50194 1.05834,7.84577 z m -5.29167,15.638638 c 1.23825,0.77611 3.0727,2.159 4.58611,1.87325 0.94545,-0.17639 2.93511,-1.42169 3.88056,-1.93675 0,0 9.524998,-5.21053 9.524998,-5.21053 0,0 3.88055,6.70278 3.88055,6.70278 0,0 -11.99444,7.05555 -11.99444,7.05555 -1.820328,1.09009 -3.778248,2.66348 -5.997218,2.42006 -1.5875,-0.16933 -4.18395,-1.88736 -5.64445,-2.71992 0,0 -11.64166,-6.75569 -11.64166,-6.75569 0,0 3.88055,-7.05555 3.88055,-7.05555 0,0 9.525,5.6268 9.525,5.6268 z"
       id="Selection"
       inkscape:connector-curvature="0"
       style="fill:none;stroke:#000000;stroke-width:0.35277769" />
    <path
       style="stroke-width:0.17857143"
       d="m 233.91854,110.05654 c -3.34005,0.99069 -6.48741,2.57771 -9.64566,4.03945 -12.34286,6.1889 -23.9969,13.63786 -36.18358,20.11821 -6.00357,3.38956 -12.18248,6.52255 -17.85623,10.45694 -2.78493,1.93546 -4.64368,5.20978 -4.56614,8.6364 -0.34257,11.40442 -0.13089,22.81838 -0.19491,34.22668 0.028,12.09184 -0.0601,24.198 0.0403,36.28091 0.11982,1.68347 2.01935,2.01685 3.385,1.827 9.6988,-0.029 19.41191,0.0579 29.10177,-0.0435 1.68327,-0.12007 2.01645,-2.01946 1.82666,-3.38499 0.0243,-16.05335 -0.0485,-32.1167 0.0364,-48.1638 0.70656,-3.20443 1.25952,-6.48185 2.11518,-9.63161 7.68342,-5.15797 15.69028,-9.8112 23.881,-14.11324 7.00205,-3.79174 14.07672,-7.47807 21.03946,-11.32422 1.62844,-1.11084 0.53404,-3.11317 0.18832,-4.61586 -2.32147,-7.77017 -6.3582,-14.87888 -10.26868,-21.93475 -0.65017,-1.12724 -1.34712,-2.53652 -2.89884,-2.37367 z"
       id="path43"
       inkscape:connector-curvature="0"
       transform="scale(0.26458333)" />
    <path
       style="stroke-width:0.17857143"
       d="m 270.24109,202.76127 c -4.7244,0.39222 -8.68124,3.34221 -12.72461,5.53292 -9.07613,5.29526 -18.21421,10.49238 -27.18234,15.96791 -2.44003,1.60454 -5.10613,3.557 -5.64127,6.639 -0.94712,4.98441 -0.54401,10.10098 -0.65261,15.14491 0.52383,1.61548 -1.13257,1.05073 -2.14285,1.13211 -18.14291,0 -36.28581,0 -54.42871,0 -1.56945,0.0466 -2.24035,1.70292 -1.99986,3.07129 0.0584,3.26659 -0.11628,6.56198 0.0869,9.8107 0.2239,1.67699 2.18359,1.78454 3.52011,1.65345 18.31892,0 36.63783,0 54.95675,0 0.16436,4.40706 -0.14622,8.86305 0.54583,13.23346 0.46833,2.76264 2.48546,4.90784 4.777,6.36392 7.54205,4.6413 15.33757,8.8636 23.00169,13.30069 4.88361,2.65068 9.53297,5.80468 14.65504,8.00559 2.111,0.88109 4.50322,1.15121 6.67287,0.29751 5.91588,-2.13857 11.23761,-5.59462 16.64055,-8.75737 7.42441,-4.53602 15.27625,-8.39622 22.3627,-13.46917 2.1997,-1.52092 4.14239,-3.76329 4.27471,-6.55695 0.44453,-7.04719 0.21654,-14.11953 0.32611,-21.17708 -0.0622,-6.53742 0.22946,-13.09855 -0.34355,-19.61847 -0.3845,-4.14514 -3.80262,-7.02643 -6.96673,-9.27699 -6.63008,-4.58808 -13.88611,-8.07031 -20.71925,-12.3164 -5.21849,-3.02241 -10.33012,-6.36891 -16.02252,-8.44497 -0.96799,-0.3094 -1.97423,-0.5455 -2.99595,-0.53606 z m -0.25879,36.81745 c 3.89769,-0.11974 7.94204,0.94878 10.86774,3.62584 4.31172,3.83967 5.14488,10.58433 2.884,15.72265 -2.01621,4.72781 -7.02481,7.88165 -12.14541,7.81258 -5.90321,0.59955 -11.36057,-3.88197 -13.19046,-9.30393 -1.67749,-4.67991 -0.68375,-10.4072 3.12745,-13.77267 2.24882,-2.04065 5.08392,-3.48515 8.05315,-4.08028 0.13446,-0.006 0.269,-0.004 0.40353,-0.004 z"
       id="path45"
       inkscape:connector-curvature="0"
       transform="scale(0.26458333)" />
    <path
       style="stroke-width:0.17857143"
       d="m 166.52457,286.16494 c -1.6661,1.10685 -0.8726,3.31207 -1.05573,4.97733 0.0233,20.15163 -0.0465,40.30761 0.0349,60.45654 0.72561,3.59164 1.28785,7.23509 2.12174,10.79423 0.65477,1.51606 2.47912,1.95938 3.68815,2.94852 8.74895,5.69384 17.61399,11.21032 26.7113,16.33301 11.35532,6.47383 22.65571,13.05042 34.12223,19.32505 1.44661,0.68384 2.78997,-0.60589 3.23905,-1.91371 4.03481,-7.62726 8.12082,-15.23279 12.00369,-22.93702 0.45097,-1.42369 -0.72384,-2.51558 -1.9151,-3.02883 -10.59457,-6.19486 -21.37082,-12.08559 -31.97577,-18.254 -4.10796,-2.92406 -8.25772,-5.79072 -12.30821,-8.79459 -0.45168,-3.70584 -1.13754,-7.40037 -1.36509,-11.12305 0,-15.67348 0,-31.34696 0,-47.02044 -0.0466,-1.56944 -1.70292,-2.24034 -3.07129,-1.99986 -9.81785,0.029 -19.65001,-0.0579 -29.45892,0.0435 -0.25697,0.0645 -0.51395,0.12891 -0.77092,0.19337 z"
       id="path47"
       inkscape:connector-curvature="0"
       transform="scale(0.26458333)" />
    <path
       style="stroke-width:0.17857143"
       d="m 353.04243,202.05779 c -1.66611,1.10686 -0.87261,3.31208 -1.05574,4.97733 -0.0345,31.27933 0.0767,62.55919 -0.0765,93.83816 -0.0502,2.33848 0.16853,4.81211 -1.10482,6.90438 -1.57918,2.69747 -4.54821,4.1099 -7.07101,5.76486 -7.58931,4.58413 -15.66559,8.34837 -23.03844,13.28882 -2.32783,1.4836 -4.20078,3.88774 -4.3353,6.73036 -0.42561,7.2922 -0.21049,14.60699 -0.3161,21.90848 0.0553,7.482 -0.19418,14.98469 0.38548,22.45064 0.23973,3.07411 2.23206,5.70852 4.79801,7.29475 5.28584,3.41971 10.95591,6.15629 16.36081,9.36562 7.01641,3.92247 13.86097,8.30675 21.44583,11.07524 3.15573,1.28619 6.42858,-0.41761 9.25363,-1.74945 5.61237,-2.85745 10.91506,-6.27775 16.45714,-9.26745 6.50675,-3.76071 13.19034,-7.2981 19.21569,-11.81676 2.05475,-1.46416 3.61161,-3.74044 3.61289,-6.33627 0.36423,-8.53055 0.1257,-17.0757 0.1981,-25.61209 -0.0534,-5.47212 0.10726,-10.96056 -0.0812,-16.42238 -0.47803,-2.36532 -1.84061,-4.49172 -3.84699,-5.84394 -6.31124,-4.47496 -13.42282,-7.62814 -20.21908,-11.27127 -3.97205,-2.14935 -8.12219,-4.06913 -11.74835,-6.78607 -1.86277,-1.69764 -2.76326,-4.31053 -2.49967,-6.79234 -0.0303,-33.31311 -0.0606,-66.62621 -0.091,-99.93932 -0.0476,-1.56889 -1.70355,-2.23819 -3.07129,-1.99811 -4.18776,0.0589 -8.40448,-0.1167 -12.57437,0.0869 -0.19924,0.05 -0.39847,0.1 -0.59771,0.14992 z m 7.62416,140.19741 c 3.26351,-0.0744 6.59259,0.59603 9.33282,2.44081 4.84263,3.05005 6.62075,9.49769 5.11856,14.84644 -1.24502,5.17792 -5.92615,9.14195 -11.17536,9.78097 -4.96847,0.8361 -10.29163,-1.39323 -13.06815,-5.6271 -1.97209,-2.72311 -2.80508,-6.12405 -2.52755,-9.45556 0.2859,-5.16233 4.37496,-9.40921 9.05343,-11.15269 1.05854,-0.36322 2.11938,-0.89883 3.26625,-0.83287 z"
       id="path49"
       inkscape:connector-curvature="0"
       transform="scale(0.26458333)" />
    <path
       style="stroke-width:0.17857143"
       d="m 359.03294,100.41926 c -2.63653,0.33106 -4.98733,1.76099 -7.37302,2.84598 -9.79038,5.0754 -19.08372,11.03708 -28.62231,16.55823 -2.85054,1.85903 -6.07457,3.4561 -8.14808,6.24311 -1.75597,2.63247 -1.19636,5.96292 -1.38561,8.95054 -0.005,11.49317 -0.0946,22.9895 0.13072,34.48076 -0.0213,2.45455 0.47509,5.03762 2.23319,6.8683 3.11981,3.15976 7.14546,5.2061 10.84961,7.58405 7.40506,4.58024 15.18649,8.61963 22.09034,13.91211 1.55527,1.08825 2.61436,2.7194 2.9972,4.57527 0.59062,1.54843 2.41224,1.49102 3.7657,1.31033 4.06206,-0.16109 8.15381,0.0574 12.19871,-0.15711 1.94025,-0.30838 1.59875,-2.61013 2.22267,-4.00269 1.23384,-2.61663 3.80666,-4.04174 6.07348,-5.60462 8.37081,-5.37108 17.49416,-9.50864 25.62993,-15.25092 2.15498,-1.50887 4.01707,-3.63666 4.43778,-6.31453 0.59291,-4.60986 0.28465,-9.28352 0.38667,-13.9202 -0.0599,-9.37165 0.14794,-18.7492 -0.16032,-28.11697 0.0332,-3.25611 -1.96578,-6.2191 -4.70145,-7.85994 -5.60336,-3.70901 -11.60502,-6.76835 -17.26185,-10.39546 -6.90228,-4.20378 -13.78924,-8.72561 -21.57523,-11.1237 -1.23425,-0.3312 -2.50582,-0.58394 -3.78813,-0.58254 z m 0.94971,36.49798 c 4.88389,-0.1392 10.00324,2.11966 12.47907,6.46972 3.72616,6.1682 1.67507,15.25998 -4.73249,18.80964 -2.80984,1.78999 -6.26596,2.05915 -9.50579,1.82234 -6.47493,-1.06177 -11.35637,-7.35728 -11.26035,-13.83754 -0.13005,-3.80654 1.70222,-7.50557 4.69087,-9.8291 2.12198,-1.66648 4.62006,-3.05883 7.32387,-3.40751 0.33451,-0.021 0.6697,-0.0279 1.00482,-0.0276 z"
       id="path51"
       inkscape:connector-curvature="0"
       transform="scale(0.26458333)" />
    <path
       style="stroke-width:0.17857143"
       d="m 361.47574,35.657123 c -4.95819,0.379739 -9.2889,3.149449 -13.54075,5.48568 -17.04493,10.179272 -34.30638,19.993259 -51.31506,30.233052 -1.21449,0.739843 -2.98038,1.61193 -2.57821,3.340787 1.5948,3.396238 3.66195,6.572493 5.47123,9.864534 2.87473,4.892875 5.59462,9.889129 8.65224,14.667604 1.15464,1.24003 2.82459,0.368937 3.96869,-0.401436 13.6657,-7.786073 27.24718,-15.720498 40.82597,-23.655359 2.99052,-1.519571 6.08942,-3.541737 9.59778,-3.200807 2.51627,0.108123 4.68707,1.627841 6.87339,2.722959 8.98873,5.476243 17.68133,11.503219 26.67448,17.021843 4.83464,2.974919 9.70866,5.933141 14.8844,8.2801 1.43317,0.38891 2.45958,-0.817338 2.9541,-2.003697 4.50066,-8.102944 9.03267,-16.192773 13.37263,-24.381977 0.55268,-1.459562 -0.68026,-2.598032 -1.8835,-3.154351 -16.89425,-10.072993 -34.12746,-19.638625 -50.96512,-29.748121 -4.05486,-2.207691 -8.26192,-4.818497 -12.99227,-5.070811 z"
       id="path53"
       inkscape:connector-curvature="0"
       transform="scale(0.26458333)" />
    <path
       style="stroke-width:0.17857143"
       d="M 488.12695 111.45898 L 488.12695 111.46094 C 485.36786 111.39344 483.76164 113.98802 482.24805 115.89453 C 478.08048 121.62332 474.81125 127.94376 471.66797 134.27344 C 470.88365 135.43895 470.75485 137.23674 472.18359 137.95703 C 483.56557 144.51965 495.08605 150.84525 506.3457 157.61719 C 511.01945 160.5496 515.55396 163.69539 520.1543 166.74023 C 520.62262 171.13292 521.5911 175.49475 521.36914 179.93164 C 521.39534 194.5579 521.3058 209.1971 521.4043 223.81445 C 521.52386 225.49809 523.42538 225.83241 524.79102 225.64258 C 534.13637 225.61338 543.49561 225.69916 552.83203 225.59766 C 554.5169 225.4773 554.84935 223.57726 554.65625 222.21094 C 554.57735 200.57176 554.66812 178.93135 554.46484 157.29297 C 554.35142 154.22209 554.61296 150.83557 552.68945 148.2168 C 550.07474 144.87759 546.14276 142.96855 542.58398 140.81836 C 527.8733 132.52556 513.31278 123.94857 498.72461 115.46289 C 495.39756 113.75452 491.9624 111.6194 488.12695 111.45898 z M 448.48242 201.30664 C 444.78006 201.59179 441.53368 203.66135 438.31055 205.32812 C 431.59025 209.14301 425.11911 213.38012 418.36133 217.13281 C 413.90429 219.83975 409.20727 222.29524 405.31641 225.81055 C 403.55291 227.43798 402.94663 229.87571 402.99023 232.20312 C 402.77363 243.52953 402.9094 254.86123 402.9043 266.18945 C 403.01089 269.42403 402.53104 273.02643 404.58008 275.80664 C 408.11401 280.36411 413.31321 283.17611 418.17578 286.08594 C 424.45877 289.56142 430.68347 293.13616 436.85352 296.80859 C 440.64923 298.87572 444.41246 301.33236 448.73242 302.10742 C 453.12317 302.57679 456.95713 299.87518 460.57617 297.79297 C 469.88356 292.25893 479.28983 286.92524 488.59961 281.42773 C 491.32665 279.64908 494.57659 277.70549 495.2168 274.22656 C 496.29661 269.24257 496.00215 264.0967 495.89844 259.03516 L 552.64648 259.03516 C 554.21592 258.98856 554.88696 257.33126 554.64648 255.96289 C 554.58808 252.6963 554.76373 249.40105 554.56055 246.15234 C 554.33664 244.47534 552.37754 244.36891 551.04102 244.5 L 495.89258 244.5 C 495.97198 239.13489 496.32791 233.64888 495.01758 228.39453 C 494.07272 225.32792 491.21603 223.38202 488.63867 221.74414 C 477.99103 215.61211 467.30825 209.53573 456.5 203.69141 C 453.99209 202.49247 451.3115 201.32086 448.48242 201.30664 z M 448.87305 238.16211 C 453.45501 238.16611 458.31953 239.77725 461.08203 243.62695 C 465.25814 249.25631 464.22332 258.01693 458.71094 262.4043 C 453.93723 266.32831 446.24807 266.65927 441.48828 262.51562 C 438.13573 259.70745 436.04128 255.36524 436.3418 250.95703 C 436.22499 245.94371 439.8732 241.57039 444.2832 239.58594 C 445.7436 238.96076 447.26135 238.21733 448.87305 238.16211 z "
       transform="scale(0.26458333)"
       id="path55" />
    <path
       style="stroke-width:0.17857143"
       d="m 522.42615,286.16494 c -1.66374,1.10575 -0.87577,3.30912 -1.06219,4.97313 -0.0785,16.71086 0.0322,33.42377 -0.19863,50.13324 0.2052,3.04816 -2.16157,5.4211 -4.52183,6.95557 -5.10758,3.32259 -10.52873,6.13407 -15.75948,9.2558 -6.74239,3.95198 -13.59087,7.72159 -20.34403,11.6524 -2.89946,1.87414 -6.06544,4.09418 -7.15786,7.53941 -0.82595,3.17332 1.16579,6.10718 2.38488,8.88687 2.53303,4.87586 5.30863,9.76487 9.23901,13.66231 1.3158,1.33989 3.28168,2.19157 5.13706,1.51123 5.21719,-1.54879 9.85826,-4.52463 14.52195,-7.24782 13.86863,-8.36044 27.92875,-16.40405 41.71519,-24.89917 2.76554,-1.95955 5.80017,-4.0985 7.09259,-7.36647 1.57411,-4.23428 0.92594,-8.82501 1.11822,-13.23799 0.0949,-20.01834 0.042,-40.03699 0.0561,-60.05547 -0.0466,-1.56944 -1.70292,-2.24034 -3.07129,-1.99986 -9.4578,0.029 -18.92991,-0.0579 -28.37877,0.0435 -0.25698,0.0645 -0.51395,0.12891 -0.77092,0.19337 z"
       id="path60"
       inkscape:connector-curvature="0"
       transform="scale(0.26458333)" />
    <path
       style="stroke-width:1.01015258"
       d="m 306.76506,409.19908 c -4.3002,8.18592 -9.27113,16.07022 -12.97612,24.54553 1.28274,4.68504 7.76147,5.65234 11.17964,8.67879 16.88617,9.64438 33.20936,20.55353 50.84806,28.73631 10.32591,2.31776 19.20538,-5.8202 27.95935,-9.96507 14.20286,-8.53233 29.02442,-16.48509 42.66979,-25.66077 -0.68887,-6.06825 -6.16889,-11.6587 -8.85379,-17.47808 -2.00417,-3.21015 -4.29475,-9.87422 -9.14088,-6.4063 -16.43362,7.10727 -31.13642,17.93804 -47.79876,24.40939 -8.90483,-1.22149 -16.12421,-7.66718 -24.06796,-11.53233 -9.65641,-5.17161 -18.67597,-12.1907 -28.69278,-16.26462 l -0.77658,0.64601 z"
       id="path62"
       inkscape:connector-curvature="0"
       transform="scale(0.26458333)" />
  </g>
</svg>
