<?xml version="1.0" encoding="utf-8"?>
<!-- Generator: Adobe Illustrator 16.0.0, SVG Export Plug-In . SVG Version: 6.00 Build 0)  -->
<!DOCTYPE svg PUBLIC "-//W3C//DTD SVG 1.1//EN" "http://www.w3.org/Graphics/SVG/1.1/DTD/svg11.dtd">
<svg version="1.1" xmlns="http://www.w3.org/2000/svg" xmlns:xlink="http://www.w3.org/1999/xlink" x="0px" y="0px"
	 width="701.667px" height="677.315px" viewBox="0 0 701.667 677.315" enable-background="new 0 0 701.667 677.315"
	 xml:space="preserve">
<g id="Layer_3">
	<g>
		<path fill="#4D4B4D" d="M32.909,251.029c-75.303,295.868,178.697,398.868,259.697,413.202v-12.834
			C219.606,628.198-7.394,562.231,32.909,251.029z"/>
		<polygon fill="#4D4B4D" points="229.737,644.897 185.167,666.733 232.417,677.315 268.862,658.497 		"/>
		<polygon fill="#4D4B4D" points="170.7,613.317 124.417,624.647 165.546,643.128 204.61,634.017 		"/>
		<polygon fill="#4D4B4D" points="112.729,568.888 73.517,568.888 111.591,598.609 148.093,598.175 		"/>
		<polygon fill="#4D4B4D" points="66.616,512.726 29.334,505.026 59.796,540.28 94.536,547.276 		"/>
		<polygon fill="#4D4B4D" points="35.072,450.146 5.114,432.271 20.884,471.946 50.104,489.231 		"/>
		<polygon fill="#4D4B4D" points="21.847,385.384 0,364.911 5.958,401.067 27.292,420.911 		"/>
		<polygon fill="#4D4B4D" points="21.243,315.53 0.777,291.325 2.426,326.956 20.796,348.565 		"/>
	</g>
	<g>
		<path fill="#4D4B4D" d="M668.306,251.029c75.301,295.868-177.699,398.868-259.699,413.202v-12.834
			C481.606,628.198,708.606,562.231,668.306,251.029z"/>
		<polygon fill="#4D4B4D" points="471.929,644.897 516.499,666.733 469.249,677.315 432.804,658.497 		"/>
		<polygon fill="#4D4B4D" points="530.968,613.317 577.249,624.647 536.12,643.128 497.058,634.017 		"/>
		<polygon fill="#4D4B4D" points="588.937,568.888 628.149,568.888 590.075,598.609 553.573,598.175 		"/>
		<polygon fill="#4D4B4D" points="635.052,512.726 672.333,505.026 641.872,540.28 607.132,547.276 		"/>
		<polygon fill="#4D4B4D" points="666.595,450.146 696.552,432.271 680.782,471.946 651.563,489.231 		"/>
		<polygon fill="#4D4B4D" points="679.819,385.384 701.667,364.911 695.71,401.067 674.374,420.911 		"/>
		<polygon fill="#4D4B4D" points="680.425,315.53 700.89,291.325 699.241,326.956 680.872,348.565 		"/>
	</g>
</g>
<g id="Layer_2">
	<g id="_x34_">
		<path fill-rule="evenodd" clip-rule="evenodd" fill="#FFFFFF" d="M209.231,381.983L94.902,278.29c0,0-7.063-4.463-13.294-16.84
			c-5.816-11.709-8.863-83.309-8.863-83.309l77.992,71.787v-25.701L37.294,116.988c0,0-20.305-15.575-25.701-32.792
			C6.378,67.55,8.048,0,8.048,0l271.199,242.839c0,0-0.253,23.985,0,23.93c-50.431,43.916-41.654,71.788-41.654,71.788l33.678,1.772
			l36.338,37.223l44.313,227.773L183.53,453.772c0,0-12.332-9.883-23.043-25.701c-11.127-15.201-9.75-78.879-9.75-78.879
			l58.494,51.404V381.983L209.231,381.983z M494.612,381.983L608.94,278.29c0,0,7.063-4.463,13.295-16.84
			c5.816-11.709,8.863-83.309,8.863-83.309l-77.992,71.787v-25.701L666.55,116.988c0,0,20.305-15.575,25.701-32.792
			C697.466,67.55,695.796,0,695.796,0L424.597,242.839c0,0,0.252,23.985,0,23.93c50.43,43.916,41.654,71.788,41.654,71.788
			l-33.678,1.772l-36.338,37.223l-44.313,227.773l168.392-151.553c0,0,12.332-9.883,23.043-25.701
			c11.127-15.201,9.75-78.879,9.75-78.879l-58.494,51.404V381.983L494.612,381.983z M351.922,373.122v135.6l-26.589-135.6H351.922
			L351.922,373.122z M351.922,373.122v135.6l26.589-135.6H351.922L351.922,373.122z M335.969,196.753l15.953,11.521v75.334
			l-29.247-24.816v-23.93l-7.977-7.09l11.521-107.239l7.09,34.565L335.969,196.753L335.969,196.753z M367.874,196.753
			l-15.952,11.521v75.334l29.247-24.816v-23.93l7.977-7.09l-11.521-107.239l-7.09,34.565L367.874,196.753L367.874,196.753z
			 M351.922,303.106v55.834l-38.996-34.564h-55.835l16.839-15.066l34.564-8.863l0.886-15.952l-26.588,0.886l19.498-15.953
			l8.863-2.658L351.922,303.106L351.922,303.106z M351.922,303.106v55.834l38.995-34.564h55.836l-16.84-15.066l-34.564-8.863
			l-0.885-15.952l26.588,0.886l-19.498-15.953l-8.863-2.658L351.922,303.106L351.922,303.106z M351.922,615.96v23.93l-44.313-38.996
			v-22.156L351.922,615.96L351.922,615.96z M351.922,615.96v23.93l44.313-38.996v-22.156L351.922,615.96L351.922,615.96z
			 M351.922,615.96"/>
	</g>
</g>
</svg>
