<?xml version="1.0" encoding="utf-8"?>
<!-- Generator: Adobe Illustrator 16.0.0, SVG Export Plug-In . SVG Version: 6.00 Build 0)  -->
<!DOCTYPE svg PUBLIC "-//W3C//DTD SVG 1.1//EN" "http://www.w3.org/Graphics/SVG/1.1/DTD/svg11.dtd">
<svg version="1.1" id="Layer_1" xmlns="http://www.w3.org/2000/svg" xmlns:xlink="http://www.w3.org/1999/xlink" x="0px" y="0px"
	 width="835.871px" height="639.89px" viewBox="0 0 835.871 639.89" enable-background="new 0 0 835.871 639.89"
	 xml:space="preserve">
<g id="Layer_3_copy">
	<g>
		<polygon fill="#953B09" points="562,543.388 665.82,461.388 590.132,461.388 499.021,543.388 		"/>
		<polygon fill="#953B09" points="170.05,461.388 273.87,543.388 331.487,543.388 240.375,461.388 		"/>
		<path fill="#953B09" d="M204.79,383.517c-0.002-0.043-0.005-0.086-0.007-0.129H71.29l75.97,60h75.524
			c-2.37-2.9-4.794-6.102-7.15-9.57C211.91,428.652,206.799,417.74,204.79,383.517z"/>
		<path fill="#953B09" d="M614.876,433.818c-2.357,3.469-4.781,6.67-7.15,9.57h80.885l75.971-60H625.726
			c-0.002,0.043-0.004,0.086-0.006,0.129C623.71,417.74,618.599,428.652,614.876,433.818z"/>
		<path fill="#953B09" d="M626.437,348.976c0.01,0.425,0.145,7.023-0.031,16.413h160.965l48.5-38.31L828,315.389H646.255
			l-20.15,18.276L626.437,348.976z"/>
		<path fill="#953B09" d="M204.073,348.976l0.331-15.311l-20.151-18.276H7.88L0,327.078l48.5,38.311h155.604
			C203.928,356,204.063,349.4,204.073,348.976z"/>
	</g>
</g>
<path fill="#FD7022" d="M272.564,381.984L158.235,278.29c0,0-7.063-4.463-13.294-16.839c-5.815-11.709-8.862-83.31-8.862-83.31
	l77.992,71.788v-25.702L100.627,116.988c0,0-20.305-15.575-25.702-32.792C69.71,67.55,71.38,0,71.38,0l271.2,242.839
	c0,0-0.253,23.985,0,23.93c-50.431,43.916-41.655,71.788-41.655,71.788l33.679,1.772l36.338,37.223l44.313,227.773L246.862,453.773
	c0,0-12.332-9.883-23.043-25.701c-11.127-15.201-9.749-78.88-9.749-78.88l58.494,51.404V381.984L272.564,381.984z M557.945,381.984
	L672.273,278.29c0,0,7.063-4.463,13.295-16.839c5.814-11.709,8.861-83.31,8.861-83.31l-77.992,71.788v-25.702L729.88,116.988
	c0,0,20.305-15.575,25.703-32.792C760.798,67.55,759.128,0,759.128,0L487.929,242.839c0,0,0.252,23.985,0,23.93
	c50.432,43.916,41.654,71.788,41.654,71.788l-33.678,1.772l-36.338,37.223l-44.314,227.773l168.392-151.555
	c0,0,12.332-9.883,23.043-25.701c11.127-15.201,9.748-78.879,9.748-78.879l-58.492,51.404V381.984L557.945,381.984z
	 M415.254,373.123v135.6l-26.588-135.6H415.254L415.254,373.123z M415.254,373.123v135.6l26.587-135.6H415.254L415.254,373.123z
	 M399.301,196.753l15.953,11.521v75.333l-29.247-24.816v-23.929l-7.977-7.09l11.521-107.239l7.09,34.565L399.301,196.753
	L399.301,196.753z M431.207,196.753l-15.953,11.521v75.333l29.248-24.816v-23.929l7.977-7.09l-11.521-107.239l-7.09,34.565
	L431.207,196.753L431.207,196.753z M415.254,303.106v55.835l-38.996-34.564h-55.835l16.839-15.066l34.564-8.863l0.886-15.953
	l-26.588,0.886l19.498-15.953l8.863-2.659L415.254,303.106L415.254,303.106z M415.254,303.106v55.835l38.996-34.564h55.836
	l-16.84-15.066l-34.564-8.863l-0.885-15.953l26.588,0.886l-19.498-15.953l-8.861-2.659L415.254,303.106L415.254,303.106z
	 M415.254,615.96v23.93l-44.313-38.996v-22.156L415.254,615.96L415.254,615.96z M415.254,615.96v23.93l44.314-38.996v-22.156
	L415.254,615.96L415.254,615.96z"/>
</svg>
