<?xml version="1.0" encoding="utf-8"?>
<!-- Generator: Adobe Illustrator 16.0.0, SVG Export Plug-In . SVG Version: 6.00 Build 0)  -->
<!DOCTYPE svg PUBLIC "-//W3C//DTD SVG 1.1//EN" "http://www.w3.org/Graphics/SVG/1.1/DTD/svg11.dtd">
<svg version="1.1" id="Layer_1" xmlns="http://www.w3.org/2000/svg" xmlns:xlink="http://www.w3.org/1999/xlink" x="0px" y="0px"
	 width="835.871px" height="697.498px" viewBox="0 0 835.871 697.498" enable-background="new 0 0 835.871 697.498"
	 xml:space="preserve">
<g id="Layer_3_copy">
	<g>
		<path fill="#953B09" d="M549.177,584.533l-0.576,0.59l-41.385,39.069H562l103.82-82H565.179
			c-0.387,10.023-1.662,20.615-4.986,26.4C555.001,578.004,549.414,584.269,549.177,584.533z"/>
		<path fill="#953B09" d="M280.823,584.533c-0.236-0.263-5.826-6.528-11.016-15.941c-3.325-5.786-4.6-16.377-4.986-26.398H170.05
			l103.82,82h48.913l-41.685-39.354L280.823,584.533z"/>
		<path fill="#953B09" d="M265.442,513.068c-19.931-17.857-38.661-34.638-54.563-48.876H71.29l75.97,60H264.9
			c0.027-0.631,0.054-1.231,0.081-1.783L265.442,513.068z"/>
		<path fill="#953B09" d="M565.019,522.409c0.027,0.552,0.057,1.152,0.082,1.783h123.51l75.971-60H619.121
			c-15.902,14.238-34.631,31.019-54.563,48.876L565.019,522.409z"/>
		<path fill="#953B09" d="M665.419,423.192h-0.252c-4.287,4-13.438,11.809-25.941,23h148.145l48.5-38.311L828,396.192H681.81
			c-2.727,9.382-6.957,17.808-13.484,24.104L665.419,423.192z"/>
		<path fill="#953B09" d="M164.58,423.192l-2.906-2.896c-6.528-6.295-10.758-14.722-13.485-24.104H7.88L0,407.882l48.5,38.311
			h142.273c-12.505-11.191-21.655-19-25.941-23H164.58z"/>
	</g>
</g>
<path fill="#FD7022" d="M415,415.663v135.6l-26.588-135.6H415L415,415.663z M415,415.663v135.6l26.587-135.6H415L415,415.663z
	 M399.933,249.043L415,259.678v71.788l-27.475-23.929V285.38l-7.978-7.09l10.635-101.921l7.091,32.792L399.933,249.043
	L399.933,249.043z M430.066,249.043L415,259.678v71.788l27.474-23.929V285.38l7.979-7.09l-10.637-101.921l-7.09,32.792
	L430.066,249.043L430.066,249.043z M415,350.078v52.291l-37.224-31.906h-52.29l15.953-14.18l32.791-8.863l0.887-14.18l-25.702,0.886
	l18.612-15.067l8.862-2.659L415,350.078L415,350.078z M415,350.078v52.291l37.224-31.906h52.289l-15.953-14.18l-32.791-8.863
	l-0.887-14.18l25.701,0.886l-18.611-15.067l-8.861-2.659L415,350.078L415,350.078z M415,650.525v46.973L288.263,577.851
	c0,0-5.038-5.608-9.749-14.181c-5.129-8.668-3.545-40.769-3.545-40.769L415,650.525L415,650.525z M415,650.525v46.973
	l126.738-119.646c0,0,5.037-5.609,9.748-14.182c5.129-8.668,3.545-40.769,3.545-40.769L415,650.525L415,650.525z M612.638,367.804
	c0,0,108.896-98.157,109.014-98.376c17.543-16.713,15.93-45.262,19.498-93.945l-77.992,70.902v-25.702
	c0,0,135.447-123.502,135.6-123.192C811.164,84.413,811.164,71.425,811.164,0L522.24,262.337c0,0,0.322,20.8,0,20.384
	c50.344,43.308,40.768,70.016,40.768,70.016l-37.223,31.906h-33.68l-34.564,35.45L415,633.686c0,0,246.21-220.719,246.384-220.683
	c17.957-17.316,15.066-57.465,15.066-85.082l-63.813,58.494V367.804L612.638,367.804z M217.361,367.804
	c0,0-108.894-98.157-109.012-98.376c-17.544-16.713-15.931-45.262-19.498-93.945l77.992,70.902v-25.702
	c0,0-135.45-123.502-135.6-123.192C18.835,84.413,18.835,71.425,18.835,0L307.76,262.337c0,0-0.324,20.8,0,20.384
	c-50.344,43.308-40.769,70.016-40.769,70.016l37.224,31.906h33.678l34.564,35.45L415,633.686c0,0-246.212-220.719-246.384-220.683
	c-17.957-17.316-15.067-57.465-15.067-85.082l63.812,58.494V367.804L217.361,367.804z"/>
</svg>
