<?xml version="1.0" encoding="utf-8"?>
<!-- Generator: Adobe Illustrator 16.0.0, SVG Export Plug-In . SVG Version: 6.00 Build 0)  -->
<!DOCTYPE svg PUBLIC "-//W3C//DTD SVG 1.1//EN" "http://www.w3.org/Graphics/SVG/1.1/DTD/svg11.dtd">
<svg version="1.1" id="Layer_1" xmlns="http://www.w3.org/2000/svg" xmlns:xlink="http://www.w3.org/1999/xlink" x="0px" y="0px"
	 width="835.871px" height="479.352px" viewBox="0 0 835.871 479.352" enable-background="new 0 0 835.871 479.352"
	 xml:space="preserve">
<g id="Layer_3_copy">
	<g>
		<polygon fill="none" points="406,171.308 379.782,148.214 381.417,186.88 406,207.946 		"/>
		<polygon fill="none" points="405,266.862 405,261.676 403.683,261.676 		"/>
		<polygon fill="#953B09" points="562,415.676 665.82,333.676 589.378,333.676 499.572,415.676 		"/>
		<polygon fill="#953B09" points="170.05,333.676 273.87,415.676 331.078,415.676 241.27,333.676 		"/>
		<polygon fill="#953B09" points="186.006,255.676 71.29,255.676 147.26,315.676 237,315.676 237,304.381 		"/>
		<polygon fill="#953B09" points="593,315.676 688.611,315.676 764.58,255.676 644.642,255.676 593,304.381 		"/>
		<path fill="#953B09" d="M663.46,237.676h123.91l48.5-38.31L828,187.676H677.765c-3.154,31.166-5.654,36.166-6.828,38.508
			C668.671,230.712,666.033,234.537,663.46,237.676z"/>
		<path fill="#953B09" d="M152.884,187.676H7.88L0,199.366l48.5,38.31h118.688c-2.572-3.139-5.21-6.964-7.477-11.492
			C158.539,223.842,156.038,218.842,152.884,187.676z"/>
	</g>
</g>
<path fill="#FD7022" d="M415.324,477.709l-44.159-223.514l-46.317-47.473h-77.555l-89.313-85.468c0,0,4.647,88.413,10.673,100.454
	c6.025,12.041,15.371,18.295,15.371,18.295l63.269,60.083v25.549L415.098,478.85L415,479.352l0.324-0.297l0.325,0.297l-0.1-0.502
	l167.805-153.215v-25.549l63.27-60.083c0,0,9.346-6.254,15.371-18.295s10.674-100.454,10.674-100.454l-89.314,85.468H505.8
	l-46.316,47.473L415.324,477.709L415.324,477.709z M415.649,142.42v0.125l-0.071-0.063l-0.071,0.063v-0.125l-33.252-29.114V86.799
	L372.08,77.72L378.119,0l19.451,42.418l18.008,13.364l18.007-13.364L453.037,0l6.039,77.72l-10.174,9.079v26.507L415.649,142.42
	L415.649,142.42L415.649,142.42z M415.649,166.81v62.925l-44.313-38.11l-2.659-66.47L415.649,166.81L415.649,166.81z
	 M415.649,165.924v62.926l44.313-38.11l2.658-65.47l-46.971,41.655V165.924z M414.633,251.893v120.533L391.59,251.893H414.633
	L414.633,251.893z M414.633,251.893v120.533l23.042-120.533H414.633L414.633,251.893z"/>
</svg>
