<?xml version="1.0" encoding="utf-8"?>
<!-- Generator: Adobe Illustrator 16.0.0, SVG Export Plug-In . SVG Version: 6.00 Build 0)  -->
<!DOCTYPE svg PUBLIC "-//W3C//DTD SVG 1.1//EN" "http://www.w3.org/Graphics/SVG/1.1/DTD/svg11.dtd">
<svg version="1.1" xmlns="http://www.w3.org/2000/svg" xmlns:xlink="http://www.w3.org/1999/xlink" x="0px" y="0px"
	 width="835.87px" height="479.353px" viewBox="0 0 835.87 479.353" enable-background="new 0 0 835.87 479.353"
	 xml:space="preserve">
<g id="Layer_4" display="none">
	<rect x="-65" y="-258.324" display="inline" width="960" height="960"/>
</g>
<g id="Layer_3" display="none">
	<g display="inline">
		<polygon fill="#953B09" points="170.05,333.676 273.87,415.676 562,415.676 665.82,333.676 		"/>
		<polygon fill="#953B09" points="71.29,255.676 147.26,315.676 688.61,315.676 764.58,255.676 		"/>
		<polygon fill="#953B09" points="828,187.676 7.88,187.676 0,199.366 48.5,237.676 787.37,237.676 835.87,199.366 		"/>
	</g>
</g>
<g id="Layer_3_copy">
	<g>
		<polygon fill="none" points="406,171.308 379.782,148.214 381.417,186.88 406,207.946 		"/>
		<polygon fill="none" points="405,266.862 405,261.676 403.683,261.676 		"/>
		<polygon fill="#953B09" points="562,415.676 665.82,333.676 589.379,333.676 499.571,415.676 		"/>
		<polygon fill="#953B09" points="170.05,333.676 273.87,415.676 331.078,415.676 241.27,333.676 		"/>
		<polygon fill="#953B09" points="186.006,255.676 71.29,255.676 147.26,315.676 237,315.676 237,304.381 		"/>
		<polygon fill="#953B09" points="593,315.676 688.61,315.676 764.58,255.676 644.643,255.676 593,304.381 		"/>
		<path fill="#953B09" d="M663.461,237.676H787.37l48.5-38.31l-7.87-11.69H677.765c-3.154,31.166-5.655,36.166-6.827,38.508
			C668.672,230.712,666.033,234.537,663.461,237.676z"/>
		<path fill="#953B09" d="M152.884,187.676H7.88L0,199.366l48.5,38.31h118.688c-2.572-3.139-5.21-6.964-7.477-11.492
			C158.539,223.842,156.038,218.842,152.884,187.676z"/>
	</g>
</g>
<g id="Layer_2">
	<g>
		<path display="none" fill-rule="evenodd" clip-rule="evenodd" fill="#FD7022" d="M414.963,142.295v0.125l-0.071-0.063
			l-0.071,0.063v-0.125l-33.252-29.114V86.674l-10.175-9.079l6.04-77.72l19.451,42.418l18.008,13.364l18.008-13.364l19.451-42.418
			l6.039,77.72l-10.175,9.079v26.507L414.963,142.295L414.963,142.295L414.963,142.295z M414.963,166.685v62.925L370.649,191.5
			l-2.659-66.47L414.963,166.685L414.963,166.685z M414.963,165.798v62.925l44.313-38.11l2.659-66.47L414.963,165.798
			L414.963,165.798z M413.946,251.768v120.533l-23.043-120.533H413.946L413.946,251.768z M413.946,251.768v120.533l23.043-120.533
			H413.946L413.946,251.768z M291.387,205.271l32.775,1.326l46.317,47.473l44.484,225.156L246.608,325.51L291.387,205.271
			L291.387,205.271z M538.538,205.271l-32.775,1.326l-46.316,47.473l-44.483,225.156L583.317,325.51L538.538,205.271
			L538.538,205.271z M538.538,205.271"/>
		<path fill-rule="evenodd" clip-rule="evenodd" fill="#FD7022" d="M415.324,477.71l-44.159-223.514l-46.317-47.473h-77.555
			l-89.313-85.468c0,0,4.647,88.413,10.673,100.454c6.025,12.041,15.371,18.295,15.371,18.295l63.269,60.083v25.548l167.805,153.216
			L415,479.353l0.324-0.297l0.325,0.297l-0.099-0.502l167.805-153.216v-25.548l63.27-60.083c0,0,9.346-6.254,15.371-18.295
			s10.673-100.454,10.673-100.454l-89.313,85.468H505.8l-46.316,47.473L415.324,477.71L415.324,477.71z M415.649,142.42v0.125
			l-0.071-0.063l-0.071,0.063v-0.125l-33.252-29.114V86.799L372.08,77.72L378.119,0l19.451,42.418l18.008,13.364l18.008-13.364
			L453.037,0l6.039,77.72l-10.175,9.079v26.507L415.649,142.42L415.649,142.42L415.649,142.42z M415.649,166.81v62.925
			l-44.313-38.11l-2.659-66.47L415.649,166.81L415.649,166.81z M415.649,165.924v62.926l44.314-38.11l2.658-65.47l-46.972,41.655
			V165.924z M414.633,251.893v120.533L391.59,251.893H414.633L414.633,251.893z M414.633,251.893v120.533l23.043-120.533H414.633
			L414.633,251.893z M414.633,251.893"/>
		<path display="none" fill-rule="evenodd" clip-rule="evenodd" fill="#FD7022" d="M415.051,471.679L371.6,252.719l-43.35-41.901
			l-19.892-1.302c0,0-1.752-30.506,28.446-63.05L90.133-78.296c0,0-2.066,81.723,3.241,98.652
			c5.308,16.929,25.581,32.494,25.581,32.494L249.42,176.259l-0.882,29.342l-86.056-81.09c0,0,4.772,84.127,10.797,96.168
			c6.026,12.041,13.145,16.775,13.145,16.775l62.995,57.944v25.548l165.586,150.959l-0.02,0.1l0.065-0.06l0.065,0.06l-0.02-0.1
			l165.585-150.959v-25.548l62.996-57.944c0,0,7.119-4.734,13.145-16.775s10.797-96.168,10.797-96.168l-86.055,81.09l-0.883-29.342
			L711.146,52.85c0,0,20.273-15.564,25.581-32.494c5.308-16.93,3.241-98.652,3.241-98.652l-246.67,224.761
			c30.197,32.544,28.445,63.05,28.445,63.05l-19.892,1.302l-43.351,41.901L415.051,471.679L415.051,471.679z M416.002,143.05v0.125
			l-0.071-0.063l-0.071,0.063v-0.125l-33.252-29.114V87.429l-10.175-9.079l6.04-77.72l19.451,42.418l18.007,13.364l18.007-13.364
			L453.39,0.63l6.04,77.72l-10.175,9.079v26.507L416.002,143.05L416.002,143.05L416.002,143.05z M416.002,167.44v62.925
			l-44.313-38.11l-2.659-66.47L416.002,167.44L416.002,167.44z M416.002,166.554v62.926l44.313-38.11l2.659-66.47L416.002,166.554
			L416.002,166.554z M414.986,252.522v120.533l-23.043-120.533H414.986L414.986,252.522z M414.986,252.522v120.533l23.043-120.533
			H414.986L414.986,252.522z M414.986,252.522"/>
		<path display="none" fill-rule="evenodd" clip-rule="evenodd" fill="#FD7022" d="M272.564,254.271L158.235,150.578
			c0,0-7.063-4.463-13.294-16.839c-5.815-11.709-8.862-83.31-8.862-83.31l77.992,71.788V96.515L100.627-10.724
			c0,0-20.305-15.575-25.702-32.792c-5.215-16.646-3.545-84.196-3.545-84.196l271.2,242.839c0,0-0.253,23.985,0,23.93
			c-50.431,43.916-41.655,71.788-41.655,71.788l33.679,1.772l36.337,37.223l44.314,227.773L246.862,326.06
			c0,0-12.332-9.882-23.043-25.701c-11.127-15.201-9.749-78.879-9.749-78.879l58.494,51.404V254.271L272.564,254.271z
			 M557.944,254.271l114.329-103.694c0,0,7.063-4.463,13.295-16.839c5.815-11.709,8.862-83.31,8.862-83.31l-77.992,71.788V96.515
			L729.882-10.724c0,0,20.305-15.575,25.702-32.792c5.215-16.646,3.545-84.196,3.545-84.196l-271.2,242.839
			c0,0,0.253,23.985,0,23.93c50.431,43.916,41.655,71.788,41.655,71.788l-33.679,1.772l-36.337,37.223l-44.314,227.773
			L583.646,326.06c0,0,12.332-9.882,23.043-25.701c11.127-15.201,9.749-78.879,9.749-78.879l-58.494,51.404V254.271L557.944,254.271
			z M415.254,245.409v135.6l-26.588-135.6H415.254L415.254,245.409z M415.254,245.409v135.6l26.588-135.6H415.254L415.254,245.409z
			 M399.301,69.041l15.953,11.521v75.333l-29.247-24.816V107.15l-7.977-7.09L389.552-7.179l7.09,34.565L399.301,69.041
			L399.301,69.041z M431.207,69.041l-15.953,11.521v75.333l29.247-24.816V107.15l7.977-7.09L440.956-7.179l-7.09,34.565
			L431.207,69.041L431.207,69.041z M415.254,175.394v55.835l-38.996-34.564h-55.835l16.839-15.067l34.564-8.863l0.886-15.953
			l-26.588,0.886l19.498-15.953l8.863-2.659L415.254,175.394L415.254,175.394z M415.254,175.394v55.835l38.996-34.564h55.836
			l-16.84-15.067l-34.564-8.863l-0.886-15.953l26.588,0.886l-19.498-15.953l-8.862-2.659L415.254,175.394L415.254,175.394z
			 M415.254,488.248v23.93l-44.314-38.996v-22.157L415.254,488.248L415.254,488.248z M415.254,488.248v23.93l44.314-38.996v-22.157
			L415.254,488.248L415.254,488.248z M415.254,488.248"/>
		<path display="none" fill-rule="evenodd" clip-rule="evenodd" fill="#FD7022" d="M415,207.146v135.6l-26.588-135.6H415
			L415,207.146z M415,207.146v135.6l26.588-135.6H415L415,207.146z M399.933,40.527L415,51.162v71.788l-27.475-23.929V76.864
			l-7.977-7.09l10.635-101.921l7.09,32.792L399.933,40.527L399.933,40.527z M430.066,40.527L415,51.162v71.788l27.475-23.929V76.864
			l7.977-7.09L439.815-32.147l-7.09,32.792L430.066,40.527L430.066,40.527z M415,141.562v52.291l-37.224-31.906h-52.29l15.953-14.18
			l32.792-8.863l0.886-14.18l-25.702,0.886l18.612-15.067l8.863-2.659L415,141.562L415,141.562z M415,141.562v52.291l37.224-31.906
			h52.29l-15.953-14.18l-32.792-8.863l-0.887-14.18l25.702,0.886l-18.611-15.067l-8.863-2.659L415,141.562L415,141.562z
			 M415,442.009v46.973L288.263,369.335c0,0-5.038-5.609-9.749-14.181c-5.129-8.668-3.545-40.769-3.545-40.769L415,442.009
			L415,442.009z M415,442.009v46.973l126.737-119.646c0,0,5.037-5.609,9.749-14.181c5.129-8.668,3.545-40.769,3.545-40.769
			L415,442.009L415,442.009z M612.639,159.288c0,0,108.895-98.157,109.012-98.376c17.544-16.713,15.931-45.262,19.498-93.945
			l-77.992,70.902V12.166c0,0,135.449-123.502,135.601-123.192c12.407-13.078,12.407-26.065,12.407-97.49L522.239,53.821
			c0,0,0.323,20.8,0,20.384c50.344,43.308,40.769,70.016,40.769,70.016l-37.224,31.906h-33.679l-34.564,35.451L415,425.17
			c0,0,246.211-220.719,246.384-220.683c17.957-17.317,15.067-57.465,15.067-85.082l-63.813,58.494V159.288L612.639,159.288z
			 M217.361,159.288c0,0-108.894-98.157-109.012-98.376C90.805,44.198,92.418,15.649,88.851-33.034l77.992,70.902V12.166
			c0,0-135.45-123.502-135.6-123.192c-12.408-13.078-12.408-26.065-12.408-97.49L307.761,53.821c0,0-0.324,20.8,0,20.384
			c-50.344,43.308-40.769,70.016-40.769,70.016l37.224,31.906h33.678l34.564,35.451L415,425.17c0,0-246.212-220.719-246.384-220.683
			c-17.957-17.317-15.067-57.465-15.067-85.082l63.812,58.494V159.288L217.361,159.288z M217.361,159.288"/>
		<path display="none" fill-rule="evenodd" clip-rule="evenodd" fill="#FD7022" d="M147.905-93.776
			C62.047-173.518-29.91-258.924-29.91-258.924c0,71.45,2.394,79.353,15.066,92.172c-0.122-0.047,124.965,120.533,124.965,120.533
			v18.612c0,0-74.433-70.496-74.447-70.902c0.014,49.033-4.381,82.801,13.294,99.263c-0.025,0.477,93.059,83.31,93.059,83.31v17.726
			c0,0-45.291-42.347-45.2-42.541c-0.091,27.82-1.986,76.902,13.294,93.059c-0.293-0.133,171.557,162.734,171.937,163.074
			c-3.081,23.196,3.626,41.784,14.181,52.29C295.961,367.557,415,463.39,415,463.39v-86.625l-0.011,0.01
			c0,0-4.362-3.798-4.654-4.052c-0.486-0.424-1.061-0.925-1.72-1.499c-1.882-1.642-4.065-3.547-6.523-5.695
			c-7.024-6.137-14.851-12.99-23.28-20.389c-24.083-21.139-48.167-42.415-70.647-62.467c-1.299-1.159-2.589-2.311-3.872-3.456
			c-46.041-41.118-78.583-71.082-92.246-85.34c-14.564-14.837-21.535-29.555-22.032-44.348c-0.382-11.387,2.784-21.373,9.077-33.188
			c0.972-1.825,4.875-8.777,5.813-10.578c5.589-9.621,8.242-16.688,8.285-24.237c0.055-9.777-4.705-19.61-15.988-30.125
			c-26.205-24.158-40.979-57.304-46.943-95.166c-2.079-13.198-2.917-26.066-2.82-38.007c0.035-4.249,0.189-8.104,0.421-11.395
			C147.875-93.374,147.89-93.577,147.905-93.776L147.905-93.776z M158.258-84.16c0.336,0.312,0.672,0.624,1.007,0.936
			C158.725-78.029,158.856-80.679,158.258-84.16L158.258-84.16z M159.857-82.675C230.385-17.171,293.58,41.523,293.58,41.523
			s-0.764,20.756,0,20.384c-46.261,45.839-38.996,68.243-38.996,68.243l44.314,43.428h43.427l33.679,35.451l34.26,147.163
			c-0.003-0.003-0.006-0.005-0.009-0.008c-7.017-6.131-14.837-12.978-23.258-20.37c-24.06-21.118-48.12-42.374-70.573-62.401
			c-1.297-1.157-2.585-2.308-3.866-3.451c-45.761-40.867-78.206-70.741-91.604-84.724c-12.543-12.778-18.151-24.618-18.537-36.125
			c-0.295-8.797,2.264-16.87,7.627-26.938c0.871-1.635,4.826-8.68,5.739-10.448c6.437-11.064,9.758-19.913,9.816-30.13
			c0.077-13.457-6.244-26.513-19.961-39.295c-23.902-22.035-37.556-52.667-43.121-87.997c-1.967-12.485-2.762-24.682-2.669-35.975
			C159.85-82.007,159.853-82.342,159.857-82.675L159.857-82.675z M682.921-94.543c85.62-79.521,176.988-164.381,176.988-164.381
			c0,71.45-2.394,79.353-15.066,92.172c0.122-0.047-124.965,120.533-124.965,120.533v18.612c0,0,74.434-70.496,74.447-70.902
			c-0.014,49.033,4.381,82.801-13.294,99.263c0.025,0.477-93.059,83.31-93.059,83.31v17.726c0,0,45.29-42.347,45.199-42.541
			c0.091,27.82,1.986,76.902-13.294,93.059c0.294-0.133-171.557,162.734-171.937,163.074c3.081,23.196-3.627,41.784-14.181,52.29
			C534.038,367.557,415,463.39,415,463.39v-86.625l4.061-3.517c1.083-0.938,1.659-1.438,2.32-2.012
			c1.891-1.639,4.082-3.542,6.551-5.688c7.054-6.129,14.912-12.975,23.376-20.364c24.183-21.116,48.364-42.372,70.938-62.411
			c1.34-1.189,2.672-2.371,3.994-3.547c46.263-41.122,78.933-71.086,92.651-85.403c14.512-14.783,21.483-29.501,21.979-44.294
			c0.382-11.387-2.783-21.373-9.077-33.188c-0.972-1.825-4.874-8.777-5.666-10.309c-5.736-9.89-8.389-16.957-8.432-24.506
			c-0.056-9.777,4.705-19.61,16.012-30.147c26.182-24.135,40.955-57.281,46.92-95.144c2.079-13.198,2.918-26.066,2.82-38.007
			c-0.035-4.249-0.189-8.104-0.421-11.395C682.992-93.649,682.957-94.11,682.921-94.543L682.921-94.543z M672.817-85.159
			c-0.425,0.395-0.85,0.789-1.274,1.184C672.231-77.235,671.965-81.086,672.817-85.159L672.817-85.159z M671.017-83.486
			C600.138-17.657,536.42,41.523,536.42,41.523s0.764,20.756,0,20.384c46.261,45.839,38.996,68.243,38.996,68.243l-44.314,43.428
			h-43.428l-33.678,35.451l-34.272,147.215c0.023-0.021,0.046-0.041,0.069-0.061c7.046-6.123,14.897-12.962,23.354-20.346
			c24.158-21.095,48.317-42.33,70.861-62.343c1.338-1.188,2.668-2.369,3.988-3.542c45.973-40.864,78.543-70.737,91.988-84.769
			c12.491-12.725,18.099-24.564,18.485-36.071c0.295-8.797-2.265-16.87-7.628-26.938c-0.87-1.635-4.825-8.68-5.591-10.179
			c-6.584-11.333-9.905-20.182-9.964-30.399c-0.076-13.457,6.244-26.513,19.986-39.317c23.878-22.013,37.531-52.645,43.097-87.974
			c1.967-12.485,2.762-24.682,2.67-35.975C671.034-82.285,671.026-82.891,671.017-83.486L671.017-83.486z M399.047,44.182
			l15.067,10.635v71.789l-27.475-23.93V80.519l-7.977-7.09l10.635-101.921l7.09,32.792L399.047,44.182L399.047,44.182z
			 M429.181,44.182l-15.067,10.635v71.789l27.474-23.93V80.519l7.977-7.09L438.93-28.493l-7.091,32.792L429.181,44.182
			L429.181,44.182z M414.114,140.786v48.745l-35.451-30.134h-48.745l15.067-14.181l31.02-6.204v-13.294h-22.157l15.067-14.18
			l9.749-1.772L414.114,140.786L414.114,140.786z M414.114,140.786v48.745l35.451-30.134h48.745l-15.066-14.181l-31.02-6.204
			v-13.294h22.156l-15.066-14.18l-9.749-1.772L414.114,140.786L414.114,140.786z M415,198.394v135.6l-26.588-135.6H415L415,198.394z
			 M415,198.394v135.6l26.588-135.6H415L415,198.394z M415,198.394"/>
		<path display="none" fill-rule="evenodd" clip-rule="evenodd" fill="#FD7022" d="M615.493,133.433
			c8.059,9.24,12.833,17.407,14.457,25.524c2.223,11.116-1.71,21.503-11.925,31.254c-7.925,7.534-55.341,50.232-129.758,116.958
			c-21.288,19.088-43.402,38.901-65.74,58.905c5.377,4.814,10.765,9.638,16.152,14.461c10.768,9.638,20.766,18.585,29.738,26.613
			c1.33,1.189,2.597,2.322,3.797,3.397c37.774-37.747,80.313-80.275,80.157-80.211c22.157-21.271,7.091-58.494,18.612-70.902
			c0.38-0.339,173.116-172.069,172.823-171.937c15.279-16.157,13.385-50.172,13.294-77.992c0.091,0.194-27.475,24.815-27.475,24.815
			V21.025c0,0,64.724-65.108,64.698-65.584C812-61.021,808.492-76.177,808.506-125.21c-0.014,0.406-62.926,59.38-62.926,59.38
			v-16.839c0,0,101.157-101.083,101.035-101.036c12.673-12.82,19.498-9.201,19.498-80.651L712.788-123.438l-0.01-0.034l0,0
			c0.147,18.604-1.341,38.387-5.298,57.404c-5.383,25.871-14.811,46.909-29.199,61.365c0.025,0.826,0.053,1.745,0.082,2.748
			c0.104,3.526,0.207,7.371,0.304,11.407c0.159,6.627,0.283,13.105,0.359,19.189c0.055,4.339,0.083,8.385,0.083,12.083
			c0,15.686-0.495,21.198-3.461,28.698c-2.955,7.475-8.266,14.63-17.305,23.311c-3.973,3.816-8.454,8.098-13.354,12.763
			c-0.279,0.266-0.279,0.266-0.56,0.532c-7.188,6.841-14.888,14.138-22.588,21.413C619.577,129.58,617.448,131.589,615.493,133.433
			L615.493,133.433z M609.516,126.909c-18.576-20.794-20.17-47.943-4.794-62.525c3.486-3.307,3.38-3.186,5.069-4.773
			c3.172-2.979,7.859-7.378,14.486-13.596c6.273-5.886,32.758-30.728,45.415-42.601c0.054,2.017,0.107,4.106,0.159,6.25
			c0.158,6.596,0.281,13.041,0.357,19.087c0.054,4.304,0.082,8.313,0.082,11.971c0,14.541-0.431,19.335-2.836,25.418
			c-2.424,6.13-7.004,12.301-15.2,20.173c-3.963,3.806-8.435,8.079-13.327,12.736c-0.278,0.266-0.278,0.266-0.558,0.531
			c-7.179,6.833-14.872,14.122-22.565,21.39C613.563,123.091,611.454,125.081,609.516,126.909L609.516,126.909z M406.586,366.074
			c-22.338-20.004-44.452-39.817-65.741-58.905c-74.417-66.726-121.832-109.424-129.756-116.958
			c-10.216-9.751-14.148-20.138-11.925-31.254c1.623-8.117,6.398-16.284,14.457-25.524l0,0c-1.955-1.844-4.083-3.853-6.348-5.992
			c-7.7-7.275-15.401-14.571-22.589-21.413c-0.279-0.266-0.279-0.266-0.559-0.532c-4.901-4.666-9.382-8.947-13.355-12.763
			c-9.04-8.681-14.35-15.836-17.305-23.311c-2.965-7.5-3.46-13.012-3.46-28.698c0-3.698,0.029-7.744,0.083-12.083
			c0.076-6.084,0.2-12.562,0.359-19.189c0.096-4.036,0.2-7.881,0.304-11.407c0.029-1.003,0.057-1.922,0.083-2.748
			c-14.389-14.456-23.816-35.494-29.2-61.365c-4.011-19.278-5.485-39.343-5.291-58.169l0,0L-36.114-264.355
			c0,71.45,6.826,67.831,19.498,80.651C-16.738-183.752,84.419-82.669,84.419-82.669v16.839c0,0-62.912-58.975-62.925-59.38
			c0.014,49.034-3.495,64.189,14.18,80.651c-0.025,0.477,64.698,65.584,64.698,65.584v13.294c0,0-27.565-24.621-27.475-24.815
			c-0.09,27.82-1.986,61.835,13.294,77.992c-0.293-0.132,172.443,171.598,172.824,171.937c11.521,12.408-3.545,49.632,18.612,70.902
			c-0.154-0.063,42.069,42.149,79.739,79.792c1.061-0.949,2.171-1.942,3.329-2.979c8.973-8.028,18.971-16.976,29.738-26.613
			C395.822,375.712,401.209,370.889,406.586,366.074L406.586,366.074L406.586,366.074z M414.401,373.351l0.599,3.07v91.286
			c0,0-22.956-22.929-50.101-50.052c0.926-0.828,1.888-1.688,2.885-2.581c8.973-8.029,18.972-16.977,29.74-26.615
			C403.153,383.42,408.782,378.381,414.401,373.351L414.401,373.351L414.401,373.351z M419.225,354.758l30.34-155.592l30.134-28.36
			h34.564l38.109-37.224c0,0,13.47-16.201-32.792-62.04V37.864l182.357-170.371c0.768,20.464-0.436,42.974-4.867,64.272
			c-5.2,24.991-14.315,44.79-27.871,57.532c0.681-0.639-43.811,41.095-52.197,48.962c-6.628,6.219-11.316,10.619-14.49,13.6
			c-1.692,1.589-5.106,4.809-5.106,4.809c-20.458,19.401-17.83,54.363,6.011,79.307c19.153,20.109,21.688,32.779,7.275,46.536
			c-7.795,7.411-55.34,50.226-130.018,117.186C460.938,317.393,440.232,335.944,419.225,354.758L419.225,354.758L419.225,354.758z
			 M219.598,126.909c18.576-20.794,20.17-47.943,4.794-62.525c-3.486-3.307-3.38-3.186-5.07-4.773
			c-3.172-2.979-7.859-7.378-14.486-13.596c-6.273-5.886-32.757-30.728-45.415-42.601c-0.054,2.017-0.107,4.106-0.159,6.25
			c-0.158,6.596-0.282,13.041-0.357,19.087c-0.054,4.304-0.083,8.313-0.083,11.971c0,14.541,0.431,19.335,2.836,25.418
			c2.423,6.13,7.003,12.301,15.2,20.173c3.963,3.806,8.435,8.079,13.327,12.736c0.279,0.266,0.279,0.266,0.558,0.531
			c7.179,6.833,14.872,14.122,22.565,21.39C215.55,123.091,217.66,125.081,219.598,126.909L219.598,126.909L219.598,126.909z
			 M127.208-133.306l183.212,171.17v33.678c-46.261,45.839-32.792,62.04-32.792,62.04l38.11,37.224h34.564l30.133,28.36
			l30.528,156.553c-21.376-19.143-42.451-38.025-62.523-56.022c-74.677-66.96-122.222-109.774-130.017-117.186
			c-14.412-13.757-11.879-26.427,7.275-46.536c23.841-24.943,26.469-59.905,6.011-79.307c0,0-3.415-3.219-5.107-4.809
			c-3.173-2.98-7.862-7.381-14.49-13.6c-8.386-7.867-52.877-49.601-52.196-48.962c-13.556-12.742-22.672-32.542-27.872-57.532
			C127.553-89.811,126.378-112.63,127.208-133.306L127.208-133.306L127.208-133.306z M415.467,374.025L415,376.421v91.286
			c0,0,22.721-22.693,49.682-49.634c-1.068-0.955-2.186-1.955-3.353-2.999c-8.974-8.029-18.973-16.977-29.74-26.615
			C426.212,383.646,420.835,378.832,415.467,374.025L415.467,374.025L415.467,374.025z M414.114,141.559v43.427l-28.361-25.702
			h-53.177l14.181-12.407l35.451-6.204v-12.408h-23.043l13.294-11.521l11.522-1.772L414.114,141.559L414.114,141.559z
			 M414.114,141.559v43.427l28.361-25.702h53.176l-14.18-12.407l-35.451-6.204v-12.408h23.043l-13.294-11.521l-11.521-1.772
			L414.114,141.559L414.114,141.559z M415,195.621V302.86l-21.271-107.239H415L415,195.621z M415,195.621V302.86l21.271-107.239H415
			L415,195.621z M402.592,59.135l11.522,8.863v58.494l-20.384-18.611V88.382l-7.977-6.204l9.749-110.784l4.431,24.816
			L402.592,59.135L402.592,59.135z M425.635,59.135l-11.521,8.863v58.494l20.384-18.611V88.382l7.977-6.204l-9.749-110.784
			l-4.432,24.816L425.635,59.135L425.635,59.135z M425.635,59.135"/>
		<path display="none" fill-rule="evenodd" clip-rule="evenodd" fill="#FD7022" d="M595.294,129.068
			c9.307,12.548,13.162,22.089,12.321,30.868c-0.854,8.911-5.652,15.43-17.15,25.961c-7.453,6.609-39.327,35.12-87.867,78.582
			c-19.555,17.51-40.502,36.27-61.445,55.029c-6.516,5.837-12.618,11.304-18.183,16.289c0.579,0.521,0.653,0.586,0.896,0.804
			l1.349,1.888l39.011,92.146c14.06-13.368,70.545-67.081,70.421-67.03c26.589-28.361,0.887-63.813,26.589-86.855
			c0.38-0.339,139.438-134.846,139.145-134.713c21.271-22.157,18.702-51.059,18.612-78.879c0.09,0.194-39.883,36.337-39.883,36.337
			V85.315L770.396-1.54c19.498-19.498,17.712-44.912,17.726-93.945c-0.014,0.406-47.858,44.314-47.858,44.314v-15.067
			c0,0,102.93-95.765,102.808-95.718c12.673-12.82,19.498-34.903,19.498-106.353c0,0-161.259,148.015-181.401,166.503l0,0
			c0.342,17.18-0.84,35.304-4.314,52.686c-4.571,22.867-12.705,41.684-25.218,55.056l-0.003,42.854
			c0.003,0.083,0.007,0.216,0.01,0.398c0.037,2.006-0.027,4.647-0.274,7.704c-0.376,4.633-1.101,9.224-2.271,13.567
			c-2.007,7.445-5.152,13.573-9.809,17.877c-4.199,3.874-11.937,11.032-22.225,20.56c-5.607,5.194-11.614,10.759-17.618,16.324
			C597.982,126.577,596.594,127.864,595.294,129.068L595.294,129.068z M588.7,120.679c-11.867-15.133-15.732-26.356-13.731-35.506
			c1.636-7.477,5.926-12.793,18.261-24.336c5.052-4.885,8.61-8.252,12.588-11.93c0.813-0.752,10.337-9.492,14.479-13.333
			c5.781-5.358,12.449-11.6,20.703-19.395v32.799c0.004,0.211,0.006,0.286,0.009,0.408c0.03,1.675-0.026,3.969-0.243,6.649
			c-0.326,4.031-0.953,7.999-1.938,11.657c-1.531,5.681-3.8,10.1-6.755,12.832c-4.203,3.876-11.942,11.038-22.198,20.537
			c-5.646,5.229-11.654,10.795-17.659,16.361C590.988,118.558,589.814,119.647,588.7,120.679L588.7,120.679z M178.365,5.94
			c-12.5-13.347-20.643-32.175-25.217-55.059c-3.416-17.087-4.616-34.894-4.331-51.814l0,0
			C128.605-119.485-32.569-267.422-32.569-267.422c0,71.45,6.826,93.533,19.498,106.353c-0.122-0.047,102.808,95.718,102.808,95.718
			v15.067c0,0-47.845-43.908-47.859-44.314c0.014,49.033-1.772,74.447,17.726,93.945l91.286,86.854v14.181
			c0,0-39.973-36.143-39.882-36.337c-0.09,27.82-2.659,56.722,18.612,78.878c-0.293-0.132,138.765,134.374,139.145,134.714
			c25.702,23.043,0,58.494,26.588,86.854c-0.123-0.051,55.661,52.996,70.154,66.776l0,0l39.278-92.778l1.349-1.888
			c0.243-0.218,0.316-0.283,0.896-0.804c-5.565-4.985-11.667-10.452-18.183-16.289c-20.944-18.76-41.89-37.52-61.528-55.104
			c-48.457-43.388-80.331-71.898-87.848-78.565c-11.434-10.474-16.233-16.992-17.086-25.903c-0.84-8.772,3.008-18.305,12.322-30.867
			c-1.3-1.205-2.689-2.492-4.151-3.847c-6.005-5.565-12.011-11.13-17.657-16.359c-10.25-9.494-17.987-16.652-22.191-20.529
			c-4.652-4.3-7.797-10.428-9.804-17.874c-1.17-4.343-1.896-8.934-2.271-13.567c-0.248-3.057-0.313-5.697-0.269-7.916V5.94
			L178.365,5.94z M189,16.179c8.262,7.803,14.925,14.04,20.703,19.395c4.143,3.84,13.666,12.581,14.146,13.024
			c4.311,3.986,7.87,7.354,12.858,12.179c12.398,11.604,16.688,16.919,18.324,24.396c2.003,9.157-1.87,20.391-13.73,35.506
			c-1.114-1.032-2.289-2.122-3.515-3.258c-6.006-5.566-12.013-11.132-17.622-16.327C209.87,91.562,202.13,84.4,197.923,80.52
			c-2.951-2.728-5.219-7.147-6.75-12.828c-0.986-3.658-1.613-7.626-1.939-11.657c-0.217-2.68-0.273-4.975-0.242-6.649
			c0.002-0.122,0.008-0.408,0.008-0.408V16.179L189,16.179L189,16.179z M368.715,450.969L415,494.773V342.377l0,0v151.511
			l46.017-43.552l-45.596-107.701c0,0-0.141-0.103-0.383-0.282c-0.013,0.008-0.025,0.016-0.038,0.024L368.715,450.969
			L368.715,450.969z M416.64,327.189l28.493-139.953l26.589-25.701h31.905l32.793-32.792c0,0,6.203-21.271-28.361-52.291V42.774
			L670.278-109.2c0.878,18.664-0.038,38.904-3.854,57.996c-4.488,22.449-12.557,40.332-24.687,52.043
			c-12.095,11.467-21.141,19.957-28.669,26.936c-4.12,3.818-13.635,12.55-14.134,13.012c-4.374,4.044-7.99,7.466-13.035,12.346
			c-6.688,6.257-9.678,9.252-12.854,13.188c-4.354,5.396-7.187,10.729-8.467,16.581c-2.948,13.479,2.691,28.582,18.256,47.453
			c10.73,13.292,14.819,22.036,14.193,28.569c-0.521,5.434-4.102,10.298-13.683,19.075c-7.41,6.568-39.274,35.071-87.76,78.484
			c-19.639,17.584-40.585,36.345-61.529,55.105C427.839,317.157,421.997,322.39,416.64,327.189L416.64,327.189L416.64,327.189z
			 M159.683-108.35L321.941,43.66v33.679c-34.564,31.02-28.361,52.29-28.361,52.29l32.792,32.792h31.906l26.588,25.702
			l28.272,138.869c-5.297-4.746-11.063-9.911-17.196-15.404c-20.944-18.761-41.891-37.521-61.447-55.031
			c-48.568-43.487-80.432-71.99-87.905-78.616c-9.518-8.72-13.099-13.584-13.62-19.018c-0.625-6.533,3.463-15.277,14.229-28.613
			c15.529-18.828,21.168-33.931,18.22-47.41c-1.28-5.853-4.113-11.186-8.467-16.581c-3.175-3.936-6.165-6.93-12.916-13.248
			c-4.982-4.819-8.598-8.241-12.634-11.974c-0.837-0.773-10.352-9.505-14.472-13.324c-7.529-6.979-16.575-15.469-28.705-26.969
			c-12.094-11.678-20.163-29.561-24.651-52.009C159.817-70.006,158.872-89.923,159.683-108.35L159.683-108.35L159.683-108.35z
			 M415,184.578v96.604l-17.726-96.604H415L415,184.578z M415,184.578v96.604l17.726-96.604H415L415,184.578z M404.365,63.158
			L415,71.135v51.404l-19.498-16.839V89.747l-6.204-4.432l8.863-101.921l3.545,21.271L404.365,63.158L404.365,63.158z
			 M425.635,63.158L415,71.135v51.404l19.498-16.839V89.747l6.204-4.432l-8.863-101.921l-3.545,21.271L425.635,63.158
			L425.635,63.158z M415,136.719v37.224l-23.93-22.156h-47.859l12.408-11.522l31.02-4.431v-11.522h-20.384l11.521-10.635
			l11.521-0.886L415,136.719L415,136.719z M415,136.719v37.224l23.93-22.156h47.858l-12.408-11.522l-31.02-4.431v-11.522h20.385
			l-11.521-10.635l-11.521-0.886L415,136.719L415,136.719z M415,136.719"/>
		<path display="none" fill-rule="evenodd" clip-rule="evenodd" fill="#FD7022" d="M415,362.546v32.538l-10.635,15.953
			l-9.749,60.266l-20.979-19.531L415,362.546v32.538l10.635,15.953l9.749,60.266l21.514-20.029l0,0l-41.515-89.554L415,362.546
			L415,362.546z M371.179,431.787l-67.754-63.623c-0.004-0.008-0.292-0.315-0.685-0.774c-0.68-0.793-1.362-1.681-1.993-2.626
			c-0.95-1.426-1.684-2.841-2.122-4.154c-0.17-0.51-0.327-1.055-0.471-1.629c-0.442-1.77-0.735-3.723-0.898-5.684
			c-0.058-0.692-0.095-1.332-0.115-1.9c-0.02-0.862-0.02-0.862-0.028-1.097c-0.058-1.676-0.092-2.654-0.128-3.72
			c-0.104-3.041-0.208-6.16-0.304-9.18c-0.025-0.779-0.049-1.543-0.073-2.289c-0.231-7.384-0.368-12.587-0.368-14.475
			c0-9.275-3.141-16.864-9.534-23.258c-2.368-2.368-32.75-30.674-82.776-77.168c-18.305-17.013-37.744-35.069-57.182-53.119
			c-2.585-2.4-5.1-4.735-7.535-6.997c-15.016-14.502-27.434-26.515-27.318-26.462c-18.612-20.384-16.929-37.224-16.839-71.788
			c-0.09,0.194,36.337,32.792,36.337,32.792V82.229L49.855,6.896C30.357-12.603,34.802-30.926,34.788-79.959
			c0.014,0.406,40.769,38.11,40.769,38.11v-12.408c0,0-94.953-89.562-94.831-89.514c-12.672-12.82-15.067-21.609-15.067-93.059
			c0,0,157.313,142.813,187.386,170.116c0.113,13.788,1.255,27.921,3.808,41.567c4.354,23.277,12.414,42.285,25.046,55.488
			c-0.075,2.914-0.52,19.766-0.876,20.869c0.129,9.722,0,16.654,0,19.498c0,6.341,0.501,11.606,1.772,16.839
			c2.19,7.69,5.818,14.217,11.521,19.498c3.704,3.388,19.015,17.781,19.498,17.726c3.333,3.518,13.659,13.381,18.955,18.343
			c-0.358,0.442-0.695,0.86-1.026,1.273c-2.523,3.148-4.397,5.647-5.958,7.997c-3.996,6.018-5.937,11.156-5.689,16.5
			c0.296,6.403,3.777,12.28,10.556,18.345c7.006,6.27,39.491,35.692,89.23,80.802c19.92,18.066,41.145,37.32,62.365,56.575
			c7.427,6.739,14.323,12.997,20.512,18.613c2.166,1.965,4.088,3.71,5.746,5.214c0.391,0.354,0.69,0.627,0.925,0.84L371.179,431.787
			L371.179,431.787z M409.574,348.963l-0.285-0.388l0.232,0.501L409.574,348.963L409.574,348.963z M417.255,338.61l25.22-126.1
			l22.156-23.043h31.02l28.361-29.247c0,0,8.862-18.169-25.702-48.745V82.229L667.024-75.122c0.351,15.797-0.629,32.32-3.565,48.019
			c-4.171,22.295-11.894,39.995-23.637,51.465c-12.115,11.834-21.443,20.78-29.67,28.506c-4.214,3.958-14.74,13.708-16.955,15.786
			c-3.727,3.506-7.078,6.752-11.027,10.701c-17.664,17.664-16.58,40.966,1.418,62.963c0.576,0.704,1.158,1.414,1.913,2.331
			c-0.001-0.001,1.435,1.743,1.833,2.227c1.438,1.75,2.444,2.983,3.388,4.161c2.342,2.922,4.043,5.19,5.396,7.229
			c2.86,4.308,4.049,7.454,3.925,10.125c-0.145,3.138-2.184,6.581-7.023,10.911c-7.034,6.293-39.502,35.703-89.388,80.944
			c-19.816,17.972-41.042,37.227-62.263,56.482c-7.427,6.739-14.323,12.997-20.512,18.613
			C419.568,336.51,418.366,337.602,417.255,338.61L417.255,338.61z M677.726-67.414c31.89-28.951,186.615-169.416,186.615-169.416
			c0,71.45-2.394,80.239-15.066,93.059c0.122-0.048-94.831,89.514-94.831,89.514v12.408c0,0,40.754-37.704,40.769-38.11
			c-0.015,49.034,4.431,67.357-15.067,86.855l-81.537,75.333v12.408c0,0,36.428-32.598,36.338-32.792
			c0.09,34.564,1.772,51.404-16.84,71.788c0.118-0.053-12.613,12.26-27.878,27.003c-2.254,2.093-4.573,4.247-6.952,6.456
			c-19.438,18.05-38.877,36.106-57.182,53.119c-50.027,46.494-80.409,74.8-82.776,77.168c-6.394,6.394-9.534,13.982-9.534,23.258
			c0,1.888-0.137,7.091-0.368,14.475c-0.023,0.746-0.048,1.51-0.072,2.289c-0.097,3.02-0.2,6.139-0.305,9.18
			c-0.036,1.065-0.069,2.044-0.128,3.72c-0.008,0.234-0.008,0.234-0.028,1.097c-0.021,0.568-0.058,1.208-0.115,1.9
			c-0.163,1.961-0.456,3.914-0.898,5.684c-0.144,0.574-0.301,1.119-0.471,1.629c-0.438,1.313-1.172,2.729-2.122,4.154
			c-0.631,0.945-1.313,1.833-1.993,2.626c-0.394,0.459-0.68,0.767-0.685,0.774l-67.236,63.137l-38.027-82.03
			c0.234-0.213,0.534-0.485,0.925-0.84c1.657-1.504,3.58-3.249,5.746-5.214c6.188-5.616,13.084-11.874,20.512-18.613
			c21.22-19.255,42.444-38.509,62.364-56.575c49.74-45.109,82.225-74.532,89.23-80.802c6.779-6.064,10.26-11.942,10.556-18.345
			c0.248-5.343-1.693-10.481-5.688-16.5c-1.561-2.349-3.435-4.848-5.957-7.997c-0.648-0.809-1.32-1.638-2.127-2.624
			c5.549-5.227,14.465-13.77,17.517-16.992c0.483,0.056,15.795-14.338,19.498-17.726c5.704-5.281,9.332-11.808,11.522-19.498
			c1.271-5.233,1.772-10.498,1.772-16.839c0-2.844-0.13-9.776,0-19.498c-0.297-0.919-0.656-12.792-0.811-18.399
			c0.285-0.278,0.572-0.558,0.86-0.84c13.563-13.247,22.122-32.866,26.659-57.118C676.509-39.024,677.646-53.405,677.726-67.414
			L677.726-67.414z M421.244,349.076l-0.053-0.113l0.285-0.388L421.244,349.076L421.244,349.076z M590.153,133.475
			c5.533-5.215,14.086-13.422,17.168-16.681c9.051-7.99,15.671-14.194,19.498-17.726c7.292-6.714,9.767-15.957,9.749-28.36
			c0.018-2.727-0.11-9.625,0-19.498c-0.151-0.391-0.328-4.139-0.483-8.383c-7.051,6.815-13.099,12.579-18.652,17.794
			c-4.248,3.99-14.779,13.745-16.135,15.016c-4.463,4.197-7.736,7.368-11.607,11.239
			C576.761,99.805,576.995,116.181,590.153,133.475L590.153,133.475z M412.575,337.762l-25.05-125.251l-22.157-23.043h-31.02
			l-28.36-29.247c0,0-8.863-18.169,25.702-48.745V82.229L163.727-74.421c-0.307,15.584,0.687,31.851,3.58,47.318
			c4.171,22.295,11.894,39.995,23.636,51.465c12.116,11.834,21.444,20.78,29.67,28.506c4.214,3.958,14.74,13.708,16.955,15.786
			c3.727,3.506,7.078,6.752,11.027,10.701c17.664,17.664,16.581,40.966-1.417,62.963c-0.576,0.704-1.159,1.414-1.913,2.331
			c0-0.001-1.435,1.743-1.833,2.227c-1.439,1.75-2.444,2.983-3.388,4.161c-2.342,2.922-4.043,5.19-5.396,7.229
			c-2.861,4.308-4.049,7.454-3.926,10.125c0.146,3.138,2.184,6.581,7.024,10.911c7.035,6.293,39.502,35.703,89.388,80.944
			c19.816,17.972,41.042,37.227,62.262,56.482c7.427,6.739,14.323,12.997,20.512,18.613
			C410.843,336.189,411.733,336.997,412.575,337.762L412.575,337.762L412.575,337.762z M239.539,134.852
			c-5.352-5.015-15.263-14.495-18.633-18.058c-9.051-7.99-15.671-14.194-19.498-17.726c-7.292-6.714-9.767-15.957-9.749-28.36
			c-0.018-2.727,0.111-9.625,0-19.498c0.18-0.462,0.394-5.632,0.567-10.759c8.119,7.868,14.92,14.359,21.106,20.17
			c4.249,3.99,14.78,13.745,16.136,15.016c4.463,4.197,7.736,7.368,11.607,11.239C254.347,100.147,253.749,117.052,239.539,134.852
			L239.539,134.852L239.539,134.852z M286.565,352.912c-35.326-33.03-70.082-65.552-78.953-73.931
			c-15.953-15.066-17.283-23.929-16.839-34.564c-0.229-5.511-0.221-14.592-0.16-22.063c1.985,1.845,3.957,3.677,5.913,5.495
			c49.516,46.02,80.446,74.837,82.659,77.049c4.398,4.398,6.419,9.282,6.419,15.738c0,2.051,0.137,7.275,0.373,14.808
			c0.023,0.749,0.047,1.516,0.073,2.297c0.097,3.027,0.201,6.153,0.305,9.202c0.037,1.066,0.07,2.048,0.101,2.921
			c0.037,1.043,0.037,1.043,0.038,1.093C286.491,351.337,286.511,352.025,286.565,352.912L286.565,352.912L286.565,352.912z
			 M543.459,352.891c35.317-33.023,70.06-65.532,78.929-73.909c15.953-15.066,17.282-23.929,16.84-34.564
			c0.229-5.506,0.222-14.574,0.16-22.042c-1.978,1.838-3.941,3.663-5.892,5.475c-49.516,46.02-80.446,74.837-82.658,77.049
			c-4.398,4.398-6.42,9.282-6.42,15.738c0,2.051-0.137,7.275-0.373,14.808c-0.023,0.749-0.047,1.516-0.072,2.297
			c-0.097,3.027-0.201,6.153-0.305,9.202c-0.037,1.066-0.07,2.048-0.101,2.921c-0.037,1.043-0.037,1.043-0.039,1.093
			C543.531,351.333,543.512,352.014,543.459,352.891L543.459,352.891L543.459,352.891z M415,551.068
			c-22.232-17.726-21.343-30.134-19.498-39.883c1.712-9.749,15.066-92.173,15.066-92.173L415,412.81V551.068
			c22.232-17.726,21.343-30.134,19.498-39.883c-1.713-9.749-15.066-92.173-15.066-92.173L415,412.81V551.068L415,551.068z
			 M415,209.853v86.854l16.839-86.854H415L415,209.853z M415,209.853v86.854l-16.839-86.854H415L415,209.853z M405.251,99.954
			l9.749,7.09v46.086l-17.726-15.067v-14.18l-5.318-4.432l7.977-91.286l3.545,19.498L405.251,99.954L405.251,99.954z
			 M424.749,99.954l-9.749,7.09v46.086l17.726-15.067v-14.18l5.317-4.432l-7.977-91.286l-3.545,19.498L424.749,99.954
			L424.749,99.954z M415,167.311v33.678l-23.93-21.271h-40.769l10.635-9.749l28.361-4.432v-9.749H369.8l11.521-10.635l9.749-0.886
			L415,167.311L415,167.311z M415,167.311v33.678l23.93-21.271h40.769l-10.636-9.749l-28.36-4.432v-9.749H460.2l-11.521-10.635
			l-9.749-0.886L415,167.311L415,167.311z M415,167.311"/>
	</g>
	<g>
	</g>
	<g>
	</g>
	<g>
	</g>
	<g>
	</g>
	<g>
	</g>
	<g>
	</g>
	<g>
	</g>
	<g>
	</g>
	<g>
	</g>
	<g>
	</g>
	<g>
	</g>
	<g>
	</g>
	<g>
	</g>
	<g>
	</g>
	<g>
	</g>
</g>
</svg>
