<?xml version="1.0" encoding="utf-8"?>
<!-- Generator: Adobe Illustrator 16.0.0, SVG Export Plug-In . SVG Version: 6.00 Build 0)  -->
<!DOCTYPE svg PUBLIC "-//W3C//DTD SVG 1.1//EN" "http://www.w3.org/Graphics/SVG/1.1/DTD/svg11.dtd">
<svg version="1.1" xmlns="http://www.w3.org/2000/svg" xmlns:xlink="http://www.w3.org/1999/xlink" x="0px" y="0px"
	 width="810.598px" height="809.717px" viewBox="0 0 810.598 809.717" enable-background="new 0 0 810.598 809.717"
	 xml:space="preserve">
<g id="Layer_2">
	<g>
		<path fill="#FFFFFF" d="M405.299,330.09c41.227,0,74.768,33.541,74.768,74.768c0,41.227-33.541,74.768-74.768,74.768
			c-41.227,0-74.768-33.541-74.768-74.768C330.531,363.631,364.072,330.09,405.299,330.09 M405.299,295.09
			c-60.624,0-109.768,49.145-109.768,109.768c0,60.623,49.145,109.768,109.768,109.768c60.623,0,109.768-49.145,109.768-109.768
			C515.066,344.235,465.922,295.09,405.299,295.09L405.299,295.09z"/>
	</g>
	<g>
		<path fill="#FFFFFF" d="M405.299,263.858c37.662,0,73.07,14.667,99.702,41.298c26.632,26.631,41.298,62.04,41.298,99.702
			c0,37.662-14.666,73.07-41.298,99.702s-62.04,41.298-99.702,41.298c-37.663,0-73.071-14.666-99.702-41.298
			c-26.632-26.632-41.298-62.04-41.298-99.702c0-37.663,14.667-73.071,41.298-99.702
			C332.228,278.524,367.636,263.858,405.299,263.858 M405.299,228.858c-97.202,0-176,78.798-176,176s78.798,176,176,176
			s176-78.798,176-176S502.501,228.858,405.299,228.858L405.299,228.858z"/>
	</g>
	<g>
		<rect x="233.298" y="387.358" fill="#FFFFFF" width="77.334" height="35"/>
	</g>
	<g>
		<rect x="492.633" y="387.358" fill="#FFFFFF" width="84.666" height="35"/>
	</g>
	<g>
		<rect x="387.799" y="683.192" fill="#FFFFFF" width="35" height="19.662"/>
		<rect x="387.799" y="563.528" fill="#FFFFFF" width="35" height="52.254"/>
		<rect x="387.799" y="633.191" fill="#FFFFFF" width="35" height="32.591"/>
	</g>
	<g>
		<rect x="387.799" y="106.862" fill="#FFFFFF" width="35" height="19.662"/>
		<rect x="387.799" y="193.935" fill="#FFFFFF" width="35" height="52.254"/>
		<rect x="387.799" y="143.935" fill="#FFFFFF" width="35" height="32.591"/>
	</g>
</g>
<g id="Layer_3">
	<path opacity="0.25" fill="#FFFFFF" d="M35,289.436c0,0,0-0.001,0-0.001C35,148.913,148.915,35,289.435,35h0V0h0
		c-39.058,0-76.966,7.657-112.671,22.759c-34.47,14.58-65.419,35.444-91.99,62.014c-26.57,26.57-47.434,57.52-62.014,91.989
		C7.657,212.468,0,250.376,0,289.435c0,0,0,0.001,0,0.001H35z"/>
	<path opacity="0.5" fill="#FFFFFF" d="M127,289.436c0,0,0-0.001,0-0.001c0-90.241,72.504-163.535,162.435-164.837V89.596
		c-26.107,0.309-51.455,5.574-75.375,15.691c-23.805,10.068-45.176,24.475-63.52,42.819s-32.75,39.715-42.819,63.52
		C97.29,236.29,92,262.468,92,289.435c0,0,0,0.001,0,0.001H127z"/>
	<path opacity="0.75" fill="#FFFFFF" d="M219,289.436L219,289.436c0-39.429,31.32-71.521,70.435-72.808v-35.032
		c-27.902,0.613-54.042,11.765-73.841,31.564C195.22,233.534,184,260.623,184,289.436v0H219z"/>
	<path opacity="0.25" fill="#FFFFFF" d="M775.598,520.28c0,0.001,0,0.002,0,0.002c0,140.521-113.914,254.435-254.435,254.435h-0.001
		v35h0.001c39.058,0,76.966-7.657,112.671-22.759c34.471-14.58,65.42-35.444,91.99-62.014c26.57-26.57,47.434-57.52,62.014-91.99
		c15.103-35.705,22.76-73.613,22.76-112.672c0,0,0-0.001,0-0.002H775.598z"/>
	<path opacity="0.5" fill="#FFFFFF" d="M683.598,520.28c0,0.001,0,0.002,0,0.002c0,90.24-72.504,163.535-162.436,164.838v35
		c26.107-0.309,51.455-5.573,75.375-15.691c23.805-10.068,45.176-24.475,63.521-42.818s32.751-39.715,42.819-63.52
		c10.432-24.664,15.721-50.842,15.721-77.809c0,0,0-0.001,0-0.002H683.598z"/>
	<path opacity="0.75" fill="#FFFFFF" d="M591.598,520.28L591.598,520.28c0,39.43-31.32,71.521-70.436,72.809v35.031
		c27.902-0.613,54.043-11.766,73.842-31.564c20.373-20.373,31.594-47.461,31.594-76.274v-0.001H591.598z"/>
</g>
</svg>
