<?xml version="1.0" encoding="utf-8"?>
<!-- Generator: Adobe Illustrator 16.0.0, SVG Export Plug-In . SVG Version: 6.00 Build 0)  -->
<!DOCTYPE svg PUBLIC "-//W3C//DTD SVG 1.1//EN" "http://www.w3.org/Graphics/SVG/1.1/DTD/svg11.dtd">
<svg version="1.1" id="Layer_1" xmlns="http://www.w3.org/2000/svg" xmlns:xlink="http://www.w3.org/1999/xlink" x="0px" y="0px"
	 width="666px" height="666px" viewBox="0 0 666 666" enable-background="new 0 0 666 666" xml:space="preserve">
<g>
	<path fill="#034942" d="M562.253,119.584l14.609-13.311C516.061,40.906,429.313,0,333,0c-9.6,0-19.1,0.41-28.49,1.21
		C308.32,1.07,312.15,1,316,1C415.682,1,504.534,47.314,562.253,119.584z"/>
	<path fill="#034942" d="M611.77,207.386C624.207,241.244,631,277.829,631,316c0,173.97-141.03,315-315,315
		C142.03,631,1.01,489.97,1.01,316c0-3.91,0.07-7.8,0.21-11.68C0.41,313.77,0,323.34,0,333c0,183.91,149.09,333,333,333
		s333-149.09,333-333c0-52.125-11.986-101.447-33.338-145.376L611.77,207.386z"/>
</g>
<path fill="#08FADC" d="M337.051,592.229L293.6,373.27l-43.35-41.899l-19.892-1.302c0,0-1.752-30.506,28.446-63.05L12.133,42.255
	c0,0-2.066,81.723,3.241,98.652c5.308,16.929,25.581,32.494,25.581,32.494L171.42,296.81l-0.882,29.342l-86.056-81.09
	c0,0,4.772,84.127,10.797,96.168c6.026,12.041,13.145,16.773,13.145,16.773l62.995,57.944v25.548l165.586,150.959l-0.02,0.1
	l0.063-0.06l0.065,0.06l-0.021-0.1L502.68,441.497V415.95l62.996-57.944c0,0,7.119-4.734,13.146-16.775
	c6.024-12.041,10.797-96.167,10.797-96.167l-86.055,81.09l-0.885-29.342l130.465-123.409c0,0,20.273-15.564,25.581-32.494
	c5.31-16.93,3.241-98.652,3.241-98.652l-246.67,224.761c30.197,32.544,28.445,63.05,28.445,63.05l-19.894,1.302l-43.351,41.899
	L337.051,592.229L337.051,592.229z M338.002,263.601v0.125l-0.071-0.063l-0.069,0.063v-0.125l-33.252-29.114V207.98l-10.175-9.079
	l6.04-77.72l19.451,42.418l18.007,13.364l18.008-13.364l19.45-42.418l6.04,77.72l-10.175,9.079v26.507L338.002,263.601
	L338.002,263.601L338.002,263.601z M338.002,287.991v62.925l-44.313-38.11l-2.659-66.47L338.002,287.991L338.002,287.991z
	 M338.002,287.104v62.926l44.313-38.11l2.657-66.47L338.002,287.104L338.002,287.104z M336.986,373.073v120.533l-23.043-120.533
	H336.986L336.986,373.073z M336.986,373.073v120.533l23.043-120.533H336.986L336.986,373.073z"/>
</svg>
