<?xml version="1.0" encoding="utf-8"?>
<!-- Generator: Adobe Illustrator 16.0.0, SVG Export Plug-In . SVG Version: 6.00 Build 0)  -->
<!DOCTYPE svg PUBLIC "-//W3C//DTD SVG 1.1//EN" "http://www.w3.org/Graphics/SVG/1.1/DTD/svg11.dtd">
<svg version="1.1" xmlns="http://www.w3.org/2000/svg" xmlns:xlink="http://www.w3.org/1999/xlink" x="0px" y="0px" width="800px"
	 height="800px" viewBox="-13.988 -13.987 800 800" enable-background="new -13.988 -13.987 800 800" xml:space="preserve">
<g id="Layer_3" display="none">
	<g display="inline">
		<path d="M389.52,787.526c196.249,0,359.445-142.211,393.135-329.687c-21.133-13.53-42.991-25.972-65.39-37.251
			c-3.338,32.611-11.411,64.296-24.147,94.559c-16.614,39.478-40.408,74.94-70.721,105.405c-30.288,30.439-65.532,54.327-104.753,71
			c-40.546,17.234-83.652,25.974-128.124,25.974c-44.471,0-87.579-8.739-128.124-25.974c-39.221-16.673-74.465-40.561-104.753-71
			c-30.313-30.465-54.106-65.928-70.721-105.405c-12.736-30.263-20.809-61.947-24.146-94.559
			c-22.399,11.279-44.257,23.72-65.39,37.251C30.075,645.315,193.271,787.526,389.52,787.526z"/>
		<path d="M62.803,342.603c3.816-29.502,11.536-58.202,23.119-85.724c16.614-39.478,40.408-74.941,70.721-105.405
			c30.289-30.44,65.533-54.328,104.753-71C301.942,63.239,345.049,54.5,389.52,54.5c44.472,0,87.578,8.739,128.124,25.974
			c39.221,16.672,74.465,40.56,104.753,71c30.313,30.464,54.106,65.928,70.721,105.405c11.583,27.522,19.303,56.222,23.119,85.724
			c24.95,11.177,49.226,23.59,72.743,37.17C785.662,160.901,608.092-15.5,389.52-15.5S-6.621,160.901-9.94,379.772
			C13.578,366.192,37.853,353.779,62.803,342.603z"/>
	</g>
</g>
<g id="Layer_4" display="none">
	<circle display="inline" fill="#FFFFFF" stroke="#000000" stroke-miterlimit="10" cx="386.012" cy="386.013" r="368.5"/>
</g>
<g id="Layer_3_copy" display="none">
	<path display="inline" d="M386.012-13.341c-220.913,0-399.999,178.797-399.999,399.354s179.086,399.354,399.999,399.354
		s400-178.797,400-399.354S606.926-13.341,386.012-13.341z M386.012,56.903c160.86,0,294.628,116.566,322.243,270.235
		c-17.322,11.091-35.239,21.288-53.601,30.534c-2.735-26.731-9.353-52.702-19.792-77.508
		c-13.617-32.358-33.121-61.427-57.967-86.398c-24.828-24.95-53.716-44.53-85.863-58.197c-33.235-14.126-68.569-21.29-105.021-21.29
		s-71.784,7.164-105.019,21.29c-32.148,13.667-61.037,33.247-85.863,58.197c-24.847,24.971-44.35,54.04-57.969,86.398
		c-10.439,24.806-17.057,50.777-19.792,77.508c-18.359-9.246-36.276-19.443-53.599-30.534
		C91.385,173.47,225.153,56.903,386.012,56.903z M386.012,715.124c-179.156,0-324.706-144.592-327.426-323.995
		c19.277,11.131,39.175,21.306,59.626,30.468c3.128,24.182,9.456,47.707,18.949,70.266c13.619,32.359,33.122,61.426,57.969,86.398
		c24.826,24.949,53.715,44.529,85.863,58.195c33.234,14.127,68.567,21.291,105.019,21.291s71.785-7.164,105.021-21.291
		c32.147-13.666,61.035-33.246,85.863-58.195c24.846-24.973,44.349-54.039,57.967-86.398c9.494-22.559,15.822-46.084,18.95-70.266
		c20.451-9.162,40.349-19.337,59.626-30.468C710.719,570.532,565.169,715.124,386.012,715.124z"/>
	<path display="inline" fill="#FFFFFF" d="M302.113,540.309c24.076,9.673,43.24,28.98,52.718,53.153
		c9.673-24.078,28.979-43.242,53.153-52.716c-24.077-9.676-43.242-28.984-52.716-53.156
		C345.593,511.669,326.284,530.832,302.113,540.309z"/>
	<path display="inline" fill="#FFFFFF" d="M218.214,271.407c38.157,15.327,68.534,45.935,83.554,84.244
		c15.332-38.162,45.932-68.536,84.245-83.556c-38.161-15.33-68.535-45.936-83.552-84.245
		C287.129,226.012,256.525,256.386,218.214,271.407z"/>
	<path display="inline" fill="#FFFFFF" d="M539.619,336.995c16.251,6.528,29.186,19.561,35.583,35.876
		c6.529-16.251,19.56-29.187,35.877-35.583c-16.252-6.529-29.188-19.564-35.582-35.878
		C568.967,317.663,555.933,330.597,539.619,336.995z"/>
</g>
<g id="Layer_3_copy_2">
	<g>
		<path fill="none" d="M137.162,280.165c13.619-32.358,33.122-61.427,57.969-86.398c24.826-24.95,53.715-44.53,85.863-58.197
			c33.234-14.126,68.567-21.29,105.019-21.29s71.785,7.164,105.021,21.29c32.147,13.667,61.035,33.247,85.863,58.197
			c24.846,24.971,44.35,54.04,57.967,86.398c10.439,24.806,17.057,50.777,19.792,77.508c18.361-9.246,36.278-19.443,53.601-30.534
			C680.64,173.47,546.873,56.903,386.012,56.903c-160.859,0-294.627,116.566-322.241,270.235
			c17.322,11.09,35.239,21.288,53.599,30.534C120.105,330.941,126.722,304.971,137.162,280.165z"/>
		<path fill="none" d="M653.813,421.596c-3.128,24.182-9.456,47.707-18.95,70.266c-13.618,32.359-33.121,61.426-57.967,86.398
			c-24.828,24.949-53.716,44.529-85.863,58.195c-33.235,14.127-68.569,21.291-105.021,21.291s-71.784-7.164-105.019-21.291
			c-32.148-13.666-61.037-33.246-85.863-58.195c-24.847-24.973-44.35-54.039-57.969-86.398
			c-9.493-22.559-15.821-46.084-18.949-70.266c-20.451-9.162-40.349-19.337-59.626-30.468
			c2.72,179.403,148.27,323.995,327.426,323.995s324.706-144.592,327.427-323.995C694.162,402.259,674.264,412.434,653.813,421.596z
			"/>
		<path fill="#FD7022" d="M386.012-13.341c-220.913,0-399.999,178.797-399.999,399.354s179.086,399.354,399.999,399.354
			s400-178.797,400-399.354S606.926-13.341,386.012-13.341z M386.012,56.903c160.86,0,294.628,116.566,322.243,270.235
			c-17.322,11.091-35.239,21.288-53.601,30.534c-2.735-26.731-9.353-52.702-19.792-77.508
			c-13.617-32.358-33.121-61.427-57.967-86.398c-24.828-24.95-53.716-44.53-85.863-58.197
			c-33.235-14.126-68.569-21.29-105.021-21.29s-71.784,7.164-105.019,21.29c-32.148,13.667-61.037,33.247-85.863,58.197
			c-24.847,24.971-44.35,54.04-57.969,86.398c-10.439,24.806-17.057,50.777-19.792,77.508
			c-18.359-9.246-36.276-19.443-53.599-30.534C91.385,173.47,225.153,56.903,386.012,56.903z M611.079,337.289
			c-16.317,6.396-29.348,19.332-35.877,35.583c-6.397-16.315-19.332-29.349-35.583-35.876c16.314-6.398,29.348-19.332,35.878-35.584
			C581.891,317.724,594.827,330.759,611.079,337.289z M355.268,487.59c9.474,24.172,28.639,43.48,52.716,53.156
			c-24.175,9.474-43.48,28.638-53.153,52.716c-9.478-24.173-28.642-43.48-52.718-53.153
			C326.284,530.832,345.593,511.669,355.268,487.59z M301.768,355.651c-15.02-38.309-45.396-68.917-83.554-84.244
			c38.311-15.021,68.915-45.395,84.247-83.557c15.017,38.309,45.391,68.915,83.552,84.245
			C347.7,287.116,317.099,317.489,301.768,355.651z M386.012,715.124c-179.156,0-324.706-144.592-327.426-323.995
			c19.277,11.131,39.175,21.306,59.626,30.468c3.128,24.182,9.456,47.707,18.949,70.266c13.619,32.359,33.122,61.426,57.969,86.398
			c24.826,24.949,53.715,44.529,85.863,58.195c33.234,14.127,68.567,21.291,105.019,21.291s71.785-7.164,105.021-21.291
			c32.147-13.666,61.035-33.246,85.863-58.195c24.846-24.973,44.349-54.039,57.967-86.398c9.494-22.559,15.822-46.084,18.95-70.266
			c20.451-9.162,40.349-19.337,59.626-30.468C710.719,570.532,565.169,715.124,386.012,715.124z"/>
	</g>
</g>
</svg>
