<?xml version="1.0" encoding="UTF-8" standalone="no"?>
<svg xmlns:dc="http://purl.org/dc/elements/1.1/" xmlns:cc="http://creativecommons.org/ns#" xmlns:rdf="http://www.w3.org/1999/02/22-rdf-syntax-ns#" xmlns:svg="http://www.w3.org/2000/svg" xmlns="http://www.w3.org/2000/svg" id="svg859" version="1.1" viewBox="0 0 1024 1024" height="1024" width="1024">
  <defs id="defs853"/>
  <metadata id="metadata856">
    <rdf:RDF>
      <cc:Work rdf:about="">
        <dc:format>image/svg+xml</dc:format>
        <dc:type rdf:resource="http://purl.org/dc/dcmitype/StillImage"/>
        <dc:title/>
      </cc:Work>
    </rdf:RDF>
  </metadata>
  <g style="display:inline" transform="translate(0,350.46669)" id="layer1">
    <path id="ellipse829" d="m 594.85133,249.34218 c 35.02328,17.09916 57.55849,43.81828 57.55849,73.8445 -10e-6,51.61736 -66.59662,93.4615 -148.74771,93.4615 -82.15109,0 -148.7477,-41.84414 -148.74771,-93.4615 0,-30.25724 22.88332,-57.1563 58.36911,-74.23747" style="opacity:1;fill:none;fill-opacity:1;fill-rule:evenodd;stroke:#ffffff;stroke-width:24;stroke-linecap:round;stroke-linejoin:miter;stroke-miterlimit:3.9000001;stroke-dasharray:none;stroke-dashoffset:164.68000793;stroke-opacity:0.99545456;paint-order:normal" transform="rotate(-3.4599953)"/>
    <path id="ellipse833" d="m 601.48724,174.92823 c 92.68498,30.26631 155.18997,100.7263 155.18996,169.0672 -10e-6,90.34313 -111.44003,182.50933 -249.09897,178.42863 C 337.7797,517.39063 244.48002,427.76809 244.48001,337.42497 244.48,265.90356 316.80324,196.17916 418.27867,170.23127" style="opacity:1;fill:none;fill-opacity:1;fill-rule:evenodd;stroke:#ffffff;stroke-width:24;stroke-linecap:round;stroke-linejoin:miter;stroke-miterlimit:3.9000001;stroke-dasharray:none;stroke-dashoffset:164.68000793;stroke-opacity:0.99545456;paint-order:normal" transform="rotate(-3.4599953)"/>
    <path style="opacity:1;fill:none;fill-opacity:1;fill-rule:evenodd;stroke:#ffffff;stroke-width:24;stroke-linecap:round;stroke-linejoin:miter;stroke-miterlimit:3.9000001;stroke-dasharray:none;stroke-dashoffset:164.68000793;stroke-opacity:0.99545456;paint-order:normal" d="m 610.93723,114.20072 c 141.07273,24.93297 243.23438,119.85678 249.14043,216.6487 1.34474,22.03833 -3.32232,46.24801 -11.69274,68.9326 m -20.5802,41.705 c -7.04833,11.3601 -14.37889,21.16953 -23.48348,31.93531 m -39.07796,38.817 c -11.98833,10.07584 -24.91733,19.54582 -38.6733,28.24432 m -54.10451,28.20518 c -13.83811,5.81294 -28.2164,10.86032 -43.05569,15.02681 m -68.71234,12.34128 c -6.03344,0.49083 -12.11558,0.83269 -18.24218,1.01945 -122.3628,3.72995 -215.84395,-31.09155 -276.75233,-82.67857 m -38.65784,-40.36698 c -7.69825,-10.04121 -14.40908,-20.42045 -20.11378,-31.02735 m -17.13318,-42.37591 c -2.15539,-7.77974 -3.79651,-15.6013 -4.91678,-23.42578 m -0.27643,-43.12141 C 197.4855,243.64878 294.7322,155.12236 427.30795,121.74415" id="path836"/>
    <path id="path854" d="m 567.85714,634.60474 c -7.19125,-29.85117 -10.28005,-63.34895 -11.42857,-98.57143 16.24417,-3.05815 32.87986,-5.98545 51.78572,-8.57143 10.66662,33.08632 21.55428,66.145 37.5,98.57143" style="opacity:1;fill:none;fill-opacity:1;fill-rule:evenodd;stroke:#ffffff;stroke-width:24;stroke-linecap:square;stroke-linejoin:round;stroke-miterlimit:3.9000001;stroke-dasharray:none;stroke-dashoffset:164.68000793;stroke-opacity:0.99545456;paint-order:normal"/>
    <path style="opacity:1;fill:none;fill-opacity:1;fill-rule:evenodd;stroke:#ffffff;stroke-width:24;stroke-linecap:square;stroke-linejoin:round;stroke-miterlimit:3.9000001;stroke-dasharray:none;stroke-dashoffset:164.68000793;stroke-opacity:0.99545456;paint-order:normal" d="m 693.45942,608.84551 c -15.52621,-26.43803 -33.12221,-59.3834 -37.88778,-96.25253 15.11267,-6.44933 22.54854,-9.87607 39.99626,-18.03576 17.0283,29.14604 31.81224,56.30627 60.12506,84.77825" id="path856"/>
    <path id="path858" d="m 800.04915,549.31091 c -25.05957,-23.93883 -48.71181,-50.11537 -64.41282,-80.63072 14.00191,-9.26359 17.47404,-14.35504 31.79186,-26.40489 22.86963,24.67766 48.78053,45.60961 81.33615,65.87949" style="opacity:1;fill:none;fill-opacity:1;fill-rule:evenodd;stroke:#ffffff;stroke-width:24;stroke-linecap:square;stroke-linejoin:round;stroke-miterlimit:3.9000001;stroke-dasharray:none;stroke-dashoffset:164.68000793;stroke-opacity:0.99545456;paint-order:normal"/>
    <path style="opacity:1;fill:none;fill-opacity:1;fill-rule:evenodd;stroke:#ffffff;stroke-width:24;stroke-linecap:square;stroke-linejoin:round;stroke-miterlimit:3.9000001;stroke-dasharray:none;stroke-dashoffset:164.68000793;stroke-opacity:0.99545456;paint-order:normal" d="m 874.87456,469.68819 c -28.99587,-16.37447 -58.15457,-33.57991 -82.048,-59.48448 13.17765,-13.34525 12.31705,-16.97933 23.5046,-29.94932 28.78388,21.73093 46.92662,30.30388 80.57227,42.8924" id="path860"/>
    <path style="opacity:1;fill:none;fill-opacity:1;fill-rule:evenodd;stroke:#ffffff;stroke-width:24;stroke-linecap:square;stroke-linejoin:round;stroke-miterlimit:3.9000001;stroke-dasharray:none;stroke-dashoffset:164.68000793;stroke-opacity:0.99545456;paint-order:normal" d="m 220.44494,556.46236 c 23.68872,-19.35988 52.29101,-43.48396 68.65394,-77.09208 -13.77643,-10.0617 -22.34262,-17.86509 -32.93161,-29.69979 -27.86648,23.90011 -59.59129,52.25191 -88.88603,67.4376" id="path862"/>
    <path id="path864" d="m 137.29207,479.74353 c 26.27077,-10.7194 72.98694,-34.20663 99.39013,-60.13246 -4.40043,-8.98809 -5.12569,-12.60619 -12.06054,-27.63723 -32.36842,16.94388 -73.21916,37.51589 -105.69728,41.72283" style="opacity:1;fill:none;fill-opacity:1;fill-rule:evenodd;stroke:#ffffff;stroke-width:24;stroke-linecap:square;stroke-linejoin:round;stroke-miterlimit:3.9000001;stroke-dasharray:none;stroke-dashoffset:164.68000793;stroke-opacity:0.99545456;paint-order:normal"/>
    <path style="opacity:1;fill:none;fill-opacity:1;fill-rule:evenodd;stroke:#ffffff;stroke-width:24;stroke-linecap:square;stroke-linejoin:round;stroke-miterlimit:3.9000001;stroke-dasharray:none;stroke-dashoffset:164.68000793;stroke-opacity:0.99545456;paint-order:normal" d="m 110.13022,396.41559 c 27.77762,-1.50833 72.36936,-16.92327 105.57556,-37.70978 -4.11007,-11.31507 -5.07171,-15.16928 -7.64616,-29.98369 -35.14087,7.14164 -63.90398,18.4247 -100.45567,14.56283" id="path866"/>
    <path id="path868" d="m 618.21426,-240.03812 a 44.107143,22.142857 0 0 1 -44.10714,22.14286 44.107143,22.142857 0 0 1 -44.10715,-22.14286 44.107143,22.142857 0 0 1 44.10715,-22.14285 44.107143,22.142857 0 0 1 44.10714,22.14285 z" style="opacity:1;fill:none;fill-opacity:1;fill-rule:evenodd;stroke:#ffffff;stroke-width:24;stroke-linecap:square;stroke-linejoin:round;stroke-miterlimit:3.9000001;stroke-dasharray:none;stroke-dashoffset:164.68000793;stroke-opacity:0.99545456;paint-order:normal"/>
    <path id="ellipse870" d="m 472.3468,61.798361 c -24.3597,-10e-7 -44.10714,-12.951764 -44.10714,-28.928572 0,-15.976808 19.74744,-28.9285705 44.10714,-28.9285716" style="opacity:1;fill:none;fill-opacity:1;fill-rule:evenodd;stroke:#ffffff;stroke-width:24;stroke-linecap:square;stroke-linejoin:round;stroke-miterlimit:3.9000001;stroke-dasharray:none;stroke-dashoffset:164.68000793;stroke-opacity:0.99545456;paint-order:normal"/>
    <path id="ellipse872" d="m 563.92855,-18.609545 a 44.107143,22.142857 0 0 1 -44.10714,22.1428568 44.107143,22.142857 0 0 1 -44.10714,-22.1428568 44.107143,22.142857 0 0 1 44.10714,-22.142856 44.107143,22.142857 0 0 1 44.10714,22.142856 z" style="opacity:1;fill:none;fill-opacity:1;fill-rule:evenodd;stroke:#ffffff;stroke-width:24;stroke-linecap:square;stroke-linejoin:round;stroke-miterlimit:3.9000001;stroke-dasharray:none;stroke-dashoffset:164.68000793;stroke-opacity:0.99545456;paint-order:normal"/>
    <path id="ellipse874" d="m 610.60224,60.67617 c -5.83942,10.155612 -17.9384,17.066714 -40.06653,17.066714" style="opacity:1;fill:none;fill-opacity:1;fill-rule:evenodd;stroke:#ffffff;stroke-width:24;stroke-linecap:round;stroke-linejoin:round;stroke-miterlimit:3.9000001;stroke-dasharray:none;stroke-dashoffset:164.68000793;stroke-opacity:0.99545456;paint-order:normal"/>
    <path id="ellipse880" d="m 556.52569,327.10474 c 0,8.88181 -17.71227,16.08194 -39.56146,16.08194 -21.84919,0 -39.56146,-7.20013 -39.56146,-16.08194" style="opacity:1;fill:none;fill-opacity:1;fill-rule:evenodd;stroke:#ffffff;stroke-width:24;stroke-linecap:square;stroke-linejoin:round;stroke-miterlimit:3.9000001;stroke-dasharray:none;stroke-dashoffset:164.68000793;stroke-opacity:0.99545456;paint-order:normal"/>
    <path id="ellipse882" d="m 607.28588,284.93088 c 0,8.88181 -17.89084,16.08194 -39.56145,16.08194 21.74576,-0.0575 39.57945,-7.15602 39.56145,-16.08194 z" style="opacity:1;fill:none;fill-opacity:1;fill-rule:evenodd;stroke:#ffffff;stroke-width:24;stroke-linecap:square;stroke-linejoin:round;stroke-miterlimit:3.9000001;stroke-dasharray:none;stroke-dashoffset:164.68000793;stroke-opacity:0.99545456;paint-order:normal"/>
    <path id="ellipse884" d="m 466.9617,281.56738 c -21.84919,0 -39.56146,-7.20013 -39.56146,-16.08194 -0.13344,8.97985 17.82966,16.04306 39.56146,16.08194 z" style="opacity:1;fill:none;fill-opacity:1;fill-rule:evenodd;stroke:#ffffff;stroke-width:24;stroke-linecap:square;stroke-linejoin:round;stroke-miterlimit:3.9000001;stroke-dasharray:none;stroke-dashoffset:164.68000793;stroke-opacity:0.99545456;paint-order:normal"/>
    <path id="path898" d="m 529.99997,-240.03812 1.55112,199.970048" style="opacity:1;fill:none;fill-opacity:1;fill-rule:evenodd;stroke:#ffffff;stroke-width:24;stroke-linecap:round;stroke-linejoin:round;stroke-miterlimit:3.9000001;stroke-dasharray:none;stroke-dashoffset:164.68000793;stroke-opacity:0.99545456;paint-order:normal"/>
    <path d="m 618.21426,-240.03812 c -3.83531,176.144757 -7.72105,352.59211 -10.92838,524.969" style="opacity:1;fill:none;fill-opacity:1;fill-rule:evenodd;stroke:#ffffff;stroke-width:24;stroke-linecap:round;stroke-linejoin:round;stroke-miterlimit:3.9000001;stroke-dasharray:none;stroke-dashoffset:164.68000793;stroke-opacity:0.99545456;paint-order:normal" id="path900"/>
    <path id="path907" d="m 563.92855,-18.60955 -7.40286,345.71429" style="opacity:1;fill:none;fill-opacity:1;fill-rule:evenodd;stroke:#ffffff;stroke-width:24;stroke-linecap:round;stroke-linejoin:round;stroke-miterlimit:3.9000001;stroke-dasharray:none;stroke-dashoffset:164.68000793;stroke-opacity:0.99545456;paint-order:normal"/>
    <path id="path909" d="m 475.71427,-18.60955 1.6885,345.71429" style="opacity:1;fill:none;fill-opacity:1;fill-rule:evenodd;stroke:#ffffff;stroke-width:24;stroke-linecap:round;stroke-linejoin:round;stroke-miterlimit:3.9000001;stroke-dasharray:none;stroke-dashoffset:164.68000793;stroke-opacity:0.99545456;paint-order:normal"/>
    <path id="path911" d="M 427.40024,265.48544 428.23966,32.86979" style="opacity:1;fill:none;fill-opacity:1;fill-rule:evenodd;stroke:#ffffff;stroke-width:24;stroke-linecap:round;stroke-linejoin:round;stroke-miterlimit:3.9000001;stroke-dasharray:none;stroke-dashoffset:164.68000793;stroke-opacity:0.99545456;paint-order:normal"/>
    <path style="opacity:1;fill:none;fill-opacity:1;fill-rule:evenodd;stroke:#ffffff;stroke-width:24;stroke-linecap:round;stroke-linejoin:round;stroke-miterlimit:3.9000001;stroke-dasharray:none;stroke-dashoffset:164.68000793;stroke-opacity:0.99545456;paint-order:normal" d="m 471.64084,175.87877 c 0.23429,0.24496 -23.4676,7.30587 -43.49982,-2.08931" id="path913"/>
    <path id="path915" d="m 476.43025,233.95108 c 0.13498,0.53349 -22.52098,7.2841 -42.43968,-2.35435" style="opacity:1;fill:none;fill-opacity:1;fill-rule:evenodd;stroke:#ffffff;stroke-width:24;stroke-linecap:round;stroke-linejoin:round;stroke-miterlimit:3.9000001;stroke-dasharray:none;stroke-dashoffset:164.68000793;stroke-opacity:0.99545456;paint-order:normal"/>
    <path style="opacity:1;fill:none;fill-opacity:1;fill-rule:evenodd;stroke:#ffffff;stroke-width:24;stroke-linecap:round;stroke-linejoin:round;stroke-miterlimit:3.9000001;stroke-dasharray:none;stroke-dashoffset:164.68000793;stroke-opacity:0.99545456;paint-order:normal" d="m 608.85392,182.01001 c 0,0 -16.87826,15.4765 -39.00639,15.4765" id="path919"/>
    <path id="path921" d="m 575.18248,-242.76839 2.43309,-77.37227" style="opacity:1;fill:none;fill-opacity:1;fill-rule:evenodd;stroke:#ffffff;stroke-width:12;stroke-linecap:round;stroke-linejoin:round;stroke-miterlimit:3.9000001;stroke-dasharray:none;stroke-dashoffset:164.68000793;stroke-opacity:0.99545456;paint-order:normal"/>
    <path style="opacity:1;fill:none;fill-opacity:1;fill-rule:evenodd;stroke:#ffffff;stroke-width:24;stroke-linecap:round;stroke-linejoin:round;stroke-miterlimit:3.9000001;stroke-dasharray:none;stroke-dashoffset:164.68000793;stroke-opacity:0.99545456;paint-order:normal" d="m 559.80556,179.73909 c 0,0 -14.34991,18.39468 -40.35897,18.39468 -26.00906,0 -39.60933,-18.39468 -39.60933,-18.39468" id="path923"/>
    <path id="path925" d="m 557.06426,253.02913 c 0,0 -10.10934,17.0695 -36.1184,17.0695 -26.00906,0 -39.60933,-18.39468 -39.60933,-18.39468" style="opacity:1;fill:none;fill-opacity:1;fill-rule:evenodd;stroke:#ffffff;stroke-width:24;stroke-linecap:round;stroke-linejoin:round;stroke-miterlimit:3.9000001;stroke-dasharray:none;stroke-dashoffset:164.68000793;stroke-opacity:0.99545456;paint-order:normal"/>
  </g>
</svg>