<?xml version="1.0" encoding="utf-8"?>
<!-- Generator: Adobe Illustrator 16.0.0, SVG Export Plug-In . SVG Version: 6.00 Build 0)  -->
<!DOCTYPE svg PUBLIC "-//W3C//DTD SVG 1.1//EN" "http://www.w3.org/Graphics/SVG/1.1/DTD/svg11.dtd">
<svg version="1.1" id="Layer_1" xmlns="http://www.w3.org/2000/svg" xmlns:xlink="http://www.w3.org/1999/xlink" x="0px" y="0px"
	 width="898.682px" height="787.898px" viewBox="0 0 898.682 787.898" enable-background="new 0 0 898.682 787.898"
	 xml:space="preserve">
<g>
	<path fill="#034942" d="M663.693,183.168l13.534-12.623c-59.958-58.195-141.73-94.039-231.887-94.039c-9.6,0-19.1,0.41-28.49,1.21
		c3.812-0.14,7.642-0.21,11.49-0.21C521.945,77.506,605.997,118.349,663.693,183.168z"/>
	<path fill="#034942" d="M759.833,377.206l-0.024-0.022c-0.279,0.327-0.586,0.655-0.921,0.983c-0.383,0.376-0.947,0.928-1.676,1.637
		c-1.43,1.39-3.495,3.395-6.038,5.855c-2.267,2.194-4.93,4.769-7.843,7.585c-0.349,151.837-108.118,278.438-251.344,307.826
		l-18.002,16.759c1.538,9.414,2.903,17.74,3.797,23.101c168.685-16.312,300.559-158.461,300.559-331.424
		c0-18.404-1.518-36.452-4.389-54.044C771.045,362.746,766.604,369.79,759.833,377.206z"/>
	<path fill="#034942" d="M424.697,717.829l-11.484-10.692c-166.942-7.896-299.861-145.733-299.861-314.631
		c0-3.91,0.07-7.8,0.21-11.68c-0.81,9.45-1.22,19.02-1.22,28.68c0,175.65,136.003,319.526,308.446,332.097
		C421.674,736.282,423.09,727.658,424.697,717.829z"/>
</g>
<path fill="#08FADC" d="M449.341,599.376v32.538l-10.635,15.953l-9.749,60.266l-20.979-19.531L449.341,599.376v32.538l10.635,15.953
	l9.749,60.266l21.516-20.028l0,0l-41.517-89.555L449.341,599.376L449.341,599.376z M405.52,668.617l-67.754-63.623
	c-0.004-0.008-0.292-0.315-0.685-0.774c-0.68-0.793-1.362-1.681-1.993-2.626c-0.95-1.426-1.684-2.841-2.122-4.152
	c-0.17-0.512-0.327-1.057-0.471-1.63c-0.442-1.771-0.735-3.724-0.898-5.685c-0.058-0.692-0.095-1.332-0.114-1.9
	c-0.021-0.86-0.021-0.86-0.027-1.097c-0.06-1.676-0.092-2.654-0.128-3.72c-0.104-3.041-0.208-6.16-0.306-9.18
	c-0.023-0.779-0.049-1.544-0.071-2.289c-0.231-7.386-0.368-12.587-0.368-14.477c0-9.273-3.141-16.862-9.534-23.258
	c-2.368-2.368-32.75-30.674-82.776-77.168c-18.305-17.013-37.744-35.069-57.182-53.119c-2.585-2.398-5.1-4.734-7.535-6.997
	c-15.016-14.502-27.434-26.515-27.318-26.462c-18.612-20.384-16.929-37.224-16.839-71.788c-0.09,0.194,36.337,32.792,36.337,32.792
	v-12.408l-81.537-75.333c-19.498-19.498-15.053-37.821-15.067-86.855c0.014,0.406,40.769,38.11,40.769,38.11v-12.408
	c0,0-94.953-89.563-94.831-89.514C2.395,80.239,0,71.45,0,0c0,0,157.313,142.813,187.386,170.116
	c0.113,13.788,1.255,27.921,3.808,41.567c4.354,23.277,12.414,42.285,25.046,55.488c-0.075,2.914-0.52,19.766-0.876,20.869
	c0.129,9.722,0,16.654,0,19.498c0,6.341,0.501,11.606,1.771,16.839c2.19,7.69,5.818,14.217,11.521,19.498
	c3.704,3.388,19.015,17.781,19.498,17.726c3.333,3.518,13.659,13.381,18.955,18.343c-0.358,0.442-0.695,0.86-1.026,1.273
	c-2.523,3.148-4.397,5.647-5.958,7.997c-3.996,6.019-5.937,11.156-5.689,16.5c0.296,6.403,3.777,12.28,10.556,18.345
	c7.006,6.271,39.491,35.692,89.229,80.804c19.92,18.064,41.146,37.318,62.365,56.573c7.427,6.739,14.323,12.997,20.512,18.613
	c2.166,1.965,4.088,3.71,5.746,5.214c0.393,0.354,0.69,0.627,0.926,0.84L405.52,668.617L405.52,668.617z M443.916,585.793
	l-0.285-0.388l0.232,0.501L443.916,585.793L443.916,585.793z M451.596,575.44l25.222-126.102l22.154-23.043h31.021l28.361-29.247
	c0,0,8.86-18.169-25.702-48.745v-29.247l168.715-157.351c0.351,15.797-0.629,32.32-3.565,48.019
	c-4.171,22.295-11.894,39.995-23.637,51.465c-12.115,11.834-21.443,20.78-29.67,28.506c-4.214,3.958-14.74,13.708-16.955,15.786
	c-3.728,3.506-7.078,6.752-11.027,10.701c-17.664,17.664-16.58,40.966,1.418,62.963c0.576,0.704,1.158,1.414,1.913,2.331
	c-0.001-0.001,1.437,1.743,1.833,2.227c1.438,1.75,2.444,2.983,3.39,4.161c2.342,2.922,4.043,5.19,5.396,7.229
	c2.86,4.307,4.049,7.453,3.925,10.125c-0.145,3.137-2.184,6.58-7.021,10.91c-7.034,6.293-39.502,35.703-89.389,80.944
	c-19.815,17.972-41.042,37.227-62.264,56.48c-7.427,6.739-14.322,12.997-20.512,18.613
	C453.91,573.34,452.708,574.432,451.596,575.44L451.596,575.44z M712.067,169.416C743.957,140.465,898.682,0,898.682,0
	c0,71.45-2.394,80.239-15.064,93.059c0.122-0.048-94.831,89.514-94.831,89.514v12.408c0,0,40.754-37.704,40.769-38.11
	c-0.015,49.034,4.433,67.357-15.065,86.855l-81.537,75.333v12.408c0,0,36.428-32.598,36.338-32.792
	c0.09,34.564,1.771,51.404-16.84,71.788c0.118-0.053-12.613,12.26-27.878,27.003c-2.254,2.093-4.573,4.247-6.952,6.456
	c-19.438,18.05-38.877,36.106-57.183,53.119c-50.026,46.494-80.408,74.8-82.775,77.168c-6.396,6.394-9.534,13.982-9.534,23.258
	c0,1.888-0.137,7.091-0.368,14.477c-0.021,0.745-0.048,1.51-0.072,2.289c-0.097,3.02-0.198,6.139-0.305,9.18
	c-0.036,1.063-0.067,2.044-0.128,3.72c-0.008,0.234-0.008,0.234-0.028,1.097c-0.021,0.568-0.058,1.208-0.113,1.9
	c-0.163,1.961-0.456,3.914-0.898,5.685c-0.144,0.573-0.301,1.118-0.471,1.63c-0.438,1.313-1.172,2.729-2.122,4.152
	c-0.631,0.945-1.313,1.833-1.993,2.626c-0.394,0.459-0.68,0.769-0.685,0.774l-67.236,63.137l-38.027-82.03
	c0.234-0.213,0.534-0.483,0.925-0.84c1.657-1.504,3.58-3.249,5.746-5.214c6.188-5.616,13.084-11.874,20.514-18.612
	c21.22-19.256,42.442-38.51,62.362-56.574c49.74-45.109,82.227-74.532,89.23-80.804c6.779-6.063,10.26-11.941,10.556-18.345
	c0.248-5.343-1.691-10.479-5.688-16.5c-1.563-2.349-3.437-4.848-5.957-7.997c-0.648-0.809-1.32-1.638-2.127-2.624
	c5.549-5.227,14.465-13.77,17.517-16.992c0.483,0.056,15.795-14.338,19.498-17.726c5.704-5.281,9.332-11.808,11.522-19.498
	c1.271-5.233,1.771-10.498,1.771-16.839c0-2.844-0.13-9.776,0-19.498c-0.297-0.919-0.656-12.792-0.811-18.399
	c0.284-0.278,0.57-0.558,0.858-0.84c13.563-13.247,22.122-32.866,26.659-57.118C710.85,197.806,711.988,183.425,712.067,169.416
	L712.067,169.416z M455.585,585.906l-0.053-0.113l0.285-0.388L455.585,585.906L455.585,585.906z M624.495,370.305
	c5.533-5.215,14.086-13.422,17.168-16.681c9.051-7.99,15.671-14.194,19.498-17.726c7.292-6.714,9.767-15.957,9.749-28.36
	c0.018-2.727-0.11-9.625,0-19.498c-0.151-0.391-0.328-4.139-0.483-8.383c-7.051,6.815-13.099,12.579-18.65,17.794
	c-4.248,3.99-14.779,13.745-16.137,15.016c-4.463,4.197-7.734,7.368-11.605,11.239C611.102,336.635,611.336,353.011,624.495,370.305
	L624.495,370.305z M446.917,574.592l-25.05-125.251l-22.157-23.043h-31.02l-28.36-29.247c0,0-8.863-18.169,25.702-48.745v-29.247
	l-167.963-156.65c-0.307,15.584,0.687,31.851,3.58,47.318c4.171,22.295,11.894,39.995,23.636,51.465
	c12.116,11.834,21.444,20.78,29.67,28.506c4.214,3.958,14.74,13.708,16.955,15.786c3.727,3.506,7.078,6.752,11.027,10.701
	c17.664,17.664,16.581,40.966-1.417,62.963c-0.576,0.704-1.159,1.414-1.913,2.331c0-0.001-1.435,1.743-1.833,2.227
	c-1.439,1.75-2.444,2.983-3.388,4.161c-2.342,2.922-4.043,5.19-5.396,7.229c-2.861,4.309-4.049,7.454-3.926,10.125
	c0.146,3.139,2.184,6.581,7.024,10.911c7.035,6.293,39.502,35.703,89.388,80.944c19.816,17.972,41.042,37.227,62.264,56.48
	c7.427,6.739,14.321,12.997,20.512,18.613C445.185,573.021,446.074,573.827,446.917,574.592L446.917,574.592L446.917,574.592z
	 M273.88,371.682c-5.352-5.015-15.263-14.495-18.633-18.058c-9.051-7.99-15.671-14.194-19.498-17.726
	c-7.292-6.714-9.767-15.957-9.749-28.36c-0.018-2.727,0.111-9.625,0-19.498c0.18-0.462,0.394-5.632,0.567-10.759
	c8.119,7.868,14.92,14.359,21.106,20.17c4.249,3.99,14.78,13.745,16.136,15.016c4.463,4.197,7.736,7.368,11.607,11.239
	C288.688,336.978,288.09,353.882,273.88,371.682L273.88,371.682L273.88,371.682z M320.906,589.742
	c-35.326-33.03-70.082-65.552-78.953-73.931c-15.953-15.066-17.283-23.931-16.839-34.564c-0.229-5.511-0.221-14.592-0.16-22.063
	c1.985,1.847,3.957,3.679,5.913,5.495c49.516,46.021,80.444,74.837,82.659,77.049c4.396,4.398,6.419,9.282,6.419,15.738
	c0,2.051,0.137,7.275,0.373,14.81c0.021,0.749,0.047,1.516,0.071,2.297c0.099,3.025,0.201,6.151,0.307,9.202
	c0.037,1.064,0.068,2.048,0.101,2.921c0.037,1.043,0.037,1.043,0.038,1.093C320.833,588.167,320.852,588.854,320.906,589.742
	L320.906,589.742L320.906,589.742z M577.8,589.721c35.317-33.021,70.062-65.53,78.929-73.909
	c15.953-15.064,17.282-23.929,16.842-34.563c0.229-5.506,0.222-14.574,0.158-22.042c-1.978,1.838-3.939,3.663-5.892,5.475
	c-49.516,46.021-80.446,74.837-82.658,77.051c-4.396,4.396-6.42,9.28-6.42,15.736c0,2.052-0.137,7.275-0.373,14.81
	c-0.021,0.749-0.047,1.516-0.07,2.297c-0.099,3.025-0.201,6.152-0.307,9.202c-0.037,1.064-0.068,2.048-0.101,2.921
	c-0.037,1.043-0.037,1.043-0.039,1.093C577.873,588.163,577.854,588.844,577.8,589.721L577.8,589.721L577.8,589.721z
	 M449.341,787.898c-22.23-17.728-21.343-30.136-19.498-39.885c1.712-9.749,15.066-92.173,15.066-92.173l4.432-6.203V787.898
	c22.232-17.728,21.343-30.136,19.498-39.885c-1.713-9.749-15.064-92.173-15.064-92.173l-4.434-6.203V787.898L449.341,787.898z
	 M449.341,446.683v86.854l16.839-86.854H449.341L449.341,446.683z M449.341,446.683v86.854l-16.839-86.854H449.341L449.341,446.683z
	 M439.592,336.784l9.749,7.09v46.086l-17.726-15.067v-14.18l-5.318-4.432l7.979-91.286l3.545,19.498L439.592,336.784
	L439.592,336.784z M459.09,336.784l-9.749,7.09v46.086l17.728-15.067v-14.18l5.315-4.432l-7.977-91.286l-3.545,19.498
	L459.09,336.784L459.09,336.784z M449.341,404.141v33.68l-23.93-21.271h-40.771l10.637-9.749l28.359-4.432v-9.749H404.14
	l11.521-10.635l9.749-0.886L449.341,404.141L449.341,404.141z M449.341,404.141v33.68l23.931-21.271h40.77l-10.636-9.749
	l-28.36-4.432v-9.749h19.498l-11.521-10.635l-9.75-0.886L449.341,404.141L449.341,404.141z"/>
</svg>
