<?xml version="1.0" encoding="utf-8"?>
<!-- Generator: Adobe Illustrator 16.0.0, SVG Export Plug-In . SVG Version: 6.00 Build 0)  -->
<!DOCTYPE svg PUBLIC "-//W3C//DTD SVG 1.1//EN" "http://www.w3.org/Graphics/SVG/1.1/DTD/svg11.dtd">
<svg version="1.1" id="Layer_1" xmlns="http://www.w3.org/2000/svg" xmlns:xlink="http://www.w3.org/1999/xlink" x="0px" y="0px"
	 width="792.329px" height="698.192px" viewBox="0 0 792.329 698.192" enable-background="new 0 0 792.329 698.192"
	 xml:space="preserve">
<g>
	<path fill="#034942" d="M616.677,145.981l14.219-12.911C570.394,70.856,485.801,32.192,392.165,32.192c-9.6,0-19.1,0.41-28.49,1.21
		c3.811-0.14,7.64-0.21,11.49-0.21C472.157,33.192,558.894,77.041,616.677,145.981z"/>
	<path fill="#034942" d="M343.596,661.623C184.451,645.785,60.175,511.506,60.175,348.192c0-3.91,0.07-7.8,0.21-11.68
		c-0.81,9.45-1.22,19.02-1.22,28.68c0,180.563,143.715,327.546,322.996,332.838L343.596,661.623z"/>
	<path fill="#034942" d="M709.712,276.668l-0.064-0.067c-2.014,1.987-6.461,6.002-17.214,15.712
		c-1.969,1.778-4.074,3.679-6.271,5.661c2.621,16.355,4.002,33.124,4.002,50.217c0,144.917-97.865,266.957-231.105,303.684
		l-48.519,45.805c175.361-9.539,314.624-154.745,314.624-332.488c0-31.686-4.428-62.337-12.695-91.372
		C711.595,274.792,710.682,275.745,709.712,276.668z"/>
</g>
<path fill="#08FADC" d="M396.165,415.663v135.6l-26.588-135.6H396.165L396.165,415.663z M396.165,415.663v135.6l26.587-135.6
	H396.165L396.165,415.663z M381.098,249.043l15.067,10.635v71.788l-27.476-23.929V285.38l-7.977-7.09l10.635-101.921l7.09,32.792
	L381.098,249.043L381.098,249.043z M411.231,249.043l-15.066,10.635v71.788l27.474-23.929V285.38l7.979-7.09l-10.637-101.921
	l-7.092,32.792L411.231,249.043L411.231,249.043z M396.165,350.079v52.291l-37.224-31.906h-52.29l15.952-14.18l32.793-8.864
	l0.886-14.18l-25.702,0.886l18.612-15.067l8.862-2.659L396.165,350.079L396.165,350.079z M396.165,350.079v52.291l37.224-31.906
	h52.289l-15.953-14.18l-32.791-8.864l-0.887-14.18l25.701,0.886l-18.611-15.067l-8.861-2.659L396.165,350.079L396.165,350.079z
	 M396.165,650.526v46.973L269.427,577.85c0,0-5.038-5.607-9.749-14.18c-5.129-8.668-3.545-40.77-3.545-40.77L396.165,650.526
	L396.165,650.526z M396.165,650.526v46.973l126.738-119.646c0,0,5.037-5.609,9.748-14.182c5.129-8.668,3.545-40.768,3.545-40.768
	L396.165,650.526L396.165,650.526z M593.803,367.803c0,0,108.895-98.156,109.012-98.375c17.545-16.713,15.932-45.262,19.498-93.945
	l-77.992,70.902v-25.702c0,0,135.449-123.502,135.602-123.192C792.329,84.413,792.329,71.425,792.329,0L503.405,262.337
	c0,0,0.322,20.8,0,20.384c50.344,43.308,40.768,70.016,40.768,70.016l-37.223,31.906h-33.68l-34.564,35.451l-42.541,213.592
	c0,0,246.21-220.719,246.384-220.684c17.957-17.316,15.066-57.465,15.066-85.082l-63.813,58.494V367.803L593.803,367.803z
	 M198.525,367.803c0,0-108.894-98.156-109.012-98.375c-17.544-16.713-15.931-45.262-19.498-93.945l77.992,70.902v-25.702
	c0,0-135.45-123.502-135.6-123.192C0,84.413,0,71.425,0,0l288.925,262.337c0,0-0.324,20.8,0,20.384
	c-50.344,43.308-40.769,70.016-40.769,70.016l37.224,31.906h33.678l34.564,35.451l42.542,213.592
	c0,0-246.212-220.719-246.384-220.684c-17.957-17.316-15.067-57.465-15.067-85.082l63.812,58.494V367.803L198.525,367.803z"/>
</svg>
