<?xml version="1.0" encoding="utf-8"?>
<!-- Generator: Adobe Illustrator 16.0.0, SVG Export Plug-In . SVG Version: 6.00 Build 0)  -->
<!DOCTYPE svg PUBLIC "-//W3C//DTD SVG 1.1//EN" "http://www.w3.org/Graphics/SVG/1.1/DTD/svg11.dtd">
<svg version="1.1" id="Layer_1" xmlns="http://www.w3.org/2000/svg" xmlns:xlink="http://www.w3.org/1999/xlink" x="0px" y="0px"
	 width="889.82px" height="722.313px" viewBox="0 0 889.82 722.313" enable-background="new 0 0 889.82 722.313"
	 xml:space="preserve">
<g>
	<path fill="#034942" d="M681.738,179.611l14.17-13.161l1.413-1.317C636.239,91.501,544.054,44.6,440.91,44.6
		c-9.601,0-19.101,0.41-28.49,1.21c3.811-0.14,7.64-0.21,11.49-0.21C530.517,45.6,624.742,98.567,681.738,179.611z"/>
	<path fill="#034942" d="M757.052,418.103l-0.061-0.057c-0.741,0.855-1.526,1.604-2.219,2.266c-1.258,1.201-3.104,2.959-5.455,5.193
		c-4.69,4.46-11.394,10.826-19.44,18.462c-0.941,0.894-1.904,1.808-2.881,2.734c-25.481,89.874-89.86,163.394-173.792,201.221
		c-0.381,0.308-0.757,0.611-1.148,0.927c-10.771,8.687-25.182,20.298-39.733,32.02c-12.013,9.676-24.12,19.426-34.357,27.668
		C644.433,690.103,773.91,548.983,773.91,377.6c0-8.391-0.318-16.708-0.928-24.942C772.219,381.115,768.889,405.587,757.052,418.103
		z"/>
	<path fill="#034942" d="M369.821,674.686c-2.02-1.627-4.022-3.24-6.003-4.836C218.596,641.795,108.92,514.018,108.92,360.6
		c0-3.91,0.07-7.8,0.21-11.68c-0.81,9.45-1.22,19.02-1.22,28.68c0,174.492,134.217,317.617,305.041,331.821
		C400.328,699.257,384.672,686.65,369.821,674.686z"/>
</g>
<path fill="#08FADC" d="M177.814,165.148C91.957,85.406,0,0,0,0c0,71.45,2.394,79.353,15.066,92.172
	c-0.122-0.047,124.965,120.533,124.965,120.533v18.612c0,0-74.433-70.496-74.447-70.902c0.014,49.033-4.381,82.801,13.294,99.263
	c-0.025,0.477,93.059,83.31,93.059,83.31v17.726c0,0-45.291-42.347-45.2-42.541c-0.091,27.82-1.986,76.902,13.294,93.059
	c-0.293-0.133,171.557,162.733,171.937,163.073c-3.081,23.197,3.626,41.785,14.182,52.291
	c-0.278-0.115,118.761,95.717,118.761,95.717v-86.625l-0.011,0.012c0,0-4.362-3.799-4.654-4.053c-0.486-0.424-1.062-0.926-1.72-1.5
	c-1.883-1.641-4.065-3.547-6.523-5.693c-7.023-6.139-14.851-12.99-23.28-20.391c-24.083-21.139-48.167-42.414-70.646-62.467
	c-1.299-1.158-2.589-2.311-3.872-3.455c-46.041-41.117-78.583-71.082-92.246-85.34c-14.564-14.838-21.535-29.555-22.032-44.348
	c-0.382-11.388,2.784-21.373,9.077-33.188c0.972-1.825,4.875-8.776,5.813-10.578c5.589-9.621,8.242-16.688,8.285-24.237
	c0.055-9.777-4.705-19.61-15.988-30.125c-26.205-24.158-40.979-57.304-46.943-95.166c-2.079-13.198-2.917-26.066-2.82-38.007
	c0.035-4.249,0.189-8.104,0.421-11.395C177.784,165.55,177.799,165.347,177.814,165.148L177.814,165.148z M188.168,174.764
	c0.336,0.312,0.672,0.624,1.007,0.936C188.635,180.895,188.766,178.245,188.168,174.764L188.168,174.764z M189.767,176.249
	c70.528,65.504,133.723,124.198,133.723,124.198s-0.765,20.756,0,20.384c-46.261,45.839-38.996,68.244-38.996,68.244l44.313,43.428
	h43.428l33.679,35.451l34.26,147.162c-0.003-0.002-0.006-0.004-0.009-0.008c-7.017-6.131-14.837-12.979-23.258-20.369
	c-24.061-21.119-48.12-42.375-70.573-62.402c-1.297-1.156-2.585-2.307-3.866-3.451c-45.761-40.867-78.206-70.74-91.604-84.723
	c-12.543-12.779-18.151-24.619-18.537-36.125c-0.295-8.797,2.264-16.871,7.627-26.938c0.871-1.636,4.826-8.681,5.739-10.448
	c6.437-11.064,9.758-19.913,9.816-30.13c0.077-13.457-6.244-26.513-19.961-39.295c-23.902-22.035-37.556-52.667-43.121-87.997
	c-1.967-12.485-2.762-24.682-2.669-35.975C189.759,176.917,189.763,176.582,189.767,176.249L189.767,176.249z M441.774,621.991
	l0.097,0.414c-0.313-0.041-0.48-0.082-0.434-0.123C441.546,622.188,441.658,622.09,441.774,621.991L441.774,621.991z
	 M712.832,164.381C798.451,84.859,889.82,0,889.82,0c0,71.45-2.395,79.353-15.066,92.172
	c0.121-0.047-124.965,120.533-124.965,120.533v18.612c0,0,74.434-70.496,74.447-70.902c-0.016,49.033,4.381,82.801-13.295,99.263
	c0.025,0.477-93.059,83.31-93.059,83.31v17.726c0,0,45.289-42.347,45.199-42.541c0.09,27.82,1.986,76.902-13.295,93.059
	c0.295-0.133-171.557,162.733-171.938,163.073c3.082,23.197-3.627,41.785-14.18,52.291c0.277-0.115-118.761,95.717-118.761,95.717
	v-86.625l4.06-3.516c1.084-0.938,1.66-1.438,2.32-2.012c1.891-1.641,4.082-3.543,6.551-5.689
	c7.055-6.129,14.912-12.975,23.377-20.363c24.184-21.115,48.363-42.371,70.938-62.41c1.34-1.189,2.672-2.371,3.994-3.549
	c46.264-41.121,78.934-71.086,92.65-85.402c14.512-14.783,21.484-29.5,21.98-44.293c0.381-11.388-2.783-21.373-9.078-33.189
	c-0.973-1.824-4.873-8.776-5.666-10.309c-5.736-9.89-8.389-16.957-8.432-24.506c-0.057-9.777,4.705-19.61,16.012-30.147
	c26.182-24.135,40.955-57.281,46.92-95.144c2.08-13.198,2.918-26.066,2.82-38.007c-0.035-4.249-0.189-8.104-0.422-11.395
	C712.902,165.275,712.867,164.814,712.832,164.381L712.832,164.381z M702.726,173.765c-0.424,0.395-0.85,0.789-1.273,1.184
	C702.14,181.688,701.875,177.837,702.726,173.765L702.726,173.765z M700.925,175.438c-70.879,65.83-134.596,125.009-134.596,125.009
	s0.764,20.756,0,20.384c46.26,45.839,38.996,68.244,38.996,68.244l-44.314,43.428h-43.428l-33.678,35.451l-34.273,147.215
	c0.023-0.021,0.047-0.041,0.07-0.061c7.045-6.123,14.896-12.963,23.354-20.348c24.158-21.094,48.316-42.33,70.861-62.342
	c1.338-1.188,2.668-2.369,3.988-3.543c45.973-40.863,78.543-70.736,91.986-84.768c12.492-12.727,18.1-24.564,18.486-36.072
	c0.295-8.797-2.266-16.869-7.629-26.938c-0.869-1.635-4.824-8.68-5.59-10.18c-6.584-11.333-9.906-20.181-9.965-30.398
	c-0.076-13.457,6.244-26.513,19.986-39.317c23.877-22.013,37.531-52.645,43.098-87.974c1.967-12.485,2.762-24.682,2.67-35.975
	C700.945,176.639,700.935,176.033,700.925,175.438L700.925,175.438z M448.046,621.987l-0.182,0.773
	c0.674,0.027,1.119,0.041,1.119,0.041C448.623,622.489,448.318,622.221,448.046,621.987L448.046,621.987z M428.957,303.105
	l15.067,10.635v71.79l-27.476-23.931v-22.157l-7.977-7.09l10.635-101.921l7.09,32.792L428.957,303.105L428.957,303.105z
	 M459.089,303.105l-15.066,10.635v71.79l27.474-23.931v-22.157l7.977-7.09l-10.635-101.921l-7.092,32.792L459.089,303.105
	L459.089,303.105z M444.023,399.709v48.746l-35.451-30.135h-48.745l15.067-14.181l31.02-6.204v-13.294h-22.157l15.067-14.181
	l9.749-1.771L444.023,399.709L444.023,399.709z M444.023,399.709v48.746l35.451-30.135h48.744l-15.064-14.181l-31.021-6.204v-13.294
	h22.156l-15.066-14.181l-9.748-1.771L444.023,399.709L444.023,399.709z M444.91,457.317v135.6l-26.588-135.6H444.91L444.91,457.317z
	 M444.91,457.317v135.6l26.587-135.6H444.91L444.91,457.317z"/>
</svg>
