<?xml version="1.0" encoding="utf-8"?>
<!-- Generator: Adobe Illustrator 16.0.0, SVG Export Plug-In . SVG Version: 6.00 Build 0)  -->
<!DOCTYPE svg PUBLIC "-//W3C//DTD SVG 1.1//EN" "http://www.w3.org/Graphics/SVG/1.1/DTD/svg11.dtd">
<svg version="1.1" id="Layer_1" xmlns="http://www.w3.org/2000/svg" xmlns:xlink="http://www.w3.org/1999/xlink" x="0px" y="0px"
	 width="666px" height="666px" viewBox="0 0 666 666" enable-background="new 0 0 666 666" xml:space="preserve">
<g id="Layer_3">
	<path fill="#034942" d="M666,333c0,183.91-149.09,333-333,333S0,516.91,0,333c0-9.66,0.41-19.23,1.22-28.68
		c-0.14,3.88-0.21,7.77-0.21,11.68c0,173.97,141.02,315,314.99,315c173.97,0,315-141.03,315-315S489.97,1,316,1
		c-3.85,0-7.68,0.07-11.49,0.21C313.9,0.41,323.4,0,333,0C516.91,0,666,149.09,666,333z"/>
</g>
<path fill="#08FADC" d="M336.963,220.126v0.125l-0.071-0.063l-0.07,0.063v-0.125l-33.252-29.114v-26.507l-10.175-9.079l6.04-77.72
	l19.451,42.418l18.008,13.364l18.009-13.364l19.45-42.418l6.039,77.72l-10.175,9.079v26.507L336.963,220.126L336.963,220.126
	L336.963,220.126z M336.963,244.516v62.925l-44.314-38.11l-2.659-66.47L336.963,244.516L336.963,244.516z M336.963,243.63v62.925
	l44.313-38.11l2.658-66.47L336.963,243.63L336.963,243.63z M335.946,329.599v120.533l-23.043-120.533H335.946L335.946,329.599z
	 M335.946,329.599v120.533l23.043-120.533H335.946L335.946,329.599z M213.387,283.103l32.775,1.327l46.317,47.472l44.484,225.157
	L168.608,403.341L213.387,283.103L213.387,283.103z M460.538,283.103l-32.775,1.327l-46.315,47.472l-44.483,225.157l168.354-153.718
	L460.538,283.103L460.538,283.103z"/>
</svg>
