<svg width="2799.95px" height="797.4px" viewBox="0 0 2799.95 797.4" xmlns="http://www.w3.org/2000/svg" xmlns:xlink="http://www.w3.org/1999/xlink">
  <defs/>
  <g>
    <path stroke="none" fill="#000000" d="M2781 618.85 L2781.65 619 2782.25 619.4 2799.15 636.3 2799.55 636.9 2799.7 637.55 2799.55 638.2 2799.15 638.8 2641.4 796.55 2640.8 796.95 2640.15 797.1 2639.5 796.95 2638.9 796.55 2622 779.65 2621.6 779.05 2621.45 778.4 2621.6 777.75 2622 777.15 2779.75 619.4 2780.35 619 2781 618.85 M312.6 -0.25 L312.65 -0.3 1563.3 -0.3 1564 -0.15 1564.55 0.2 1564.95 0.75 1565.1 1.45 1565.1 794.7 1564.95 795.4 1564.55 795.95 1564 796.35 1563.3 796.5 1.5 796.5 0.8 796.35 0.25 795.95 -0.1 795.4 -0.25 794.7 -0.25 312.6 -0.1 311.95 0.3 311.4 311.4 0.3 311.95 -0.1 312.6 -0.25 M2105.1 592.05 L2105.1 592 2107.75 592.2 2110.2 592.85 2112.25 594 2113.9 595.85 2114.8 597.5 2166.55 670.75 2166.85 671.55 2167.1 674.15 2166.55 677.2 2166.3 677.85 2164.65 680.35 2164.15 680.85 2161.7 682.5 2161.05 682.75 2157.7 683.35 2155.35 683.1 2152.95 682.2 2150.8 680.65 2148.85 678.35 2135.9 659.6 2135.45 659.35 2072.95 659.35 2072.5 659.6 2059.6 678.3 2056.45 681.5 2055.25 682.1 2053.4 682.5 2050.25 682.1 2046.9 680.35 2044.45 677.7 2043.85 676.15 2043.65 674.85 2043.7 674.1 2044.35 672.25 2093.15 597.65 2095.15 595.3 2097.9 593.5 2101.55 592.35 2105.1 592.05 M1734.7 592.4 L1737.4 592.7 1740.6 593.75 1743.45 595.3 1746.25 597.4 1813.8 654.85 1814.25 654.65 1814.25 600.5 1814.6 597.85 1815.3 596.35 1816.7 594.7 1818.7 593.6 1819.35 593.4 1822.15 593.15 1826.4 593.05 1828.85 593.4 1829.55 593.65 1831.3 594.7 1831.9 595.3 1833 597.1 1833.25 597.75 1833.65 600.5 1833.65 670.5 1832.95 675.55 1832.1 677.55 1830.85 679.25 1829.25 680.6 1827.4 681.5 1825.35 682 1823.05 682.15 1820.55 681.8 1818.4 681.05 1813.2 677.7 1744.55 619.4 1744.1 619.6 1744.1 674.15 1743.75 676.8 1743.05 678.35 1741.65 680 1739.6 681.15 1738.95 681.3 1736.2 681.55 1732 681.65 1729.5 681.3 1728.85 681.05 1727.1 679.95 1726.5 679.35 1725.45 677.55 1725.2 676.9 1724.8 674.1 1724.8 603.4 1725.45 598.75 1726.25 596.85 1727.4 595.2 1728.55 594.15 1730.25 593.2 1734.7 592.4 M2306.75 592.8 L2306.8 592.85 2309.55 593 2312.4 593.65 2314.5 594.75 2316.05 596.25 2360 658.95 2360.65 658.95 2404.35 596.25 2405.85 594.7 2407.95 593.55 2410.8 592.9 2413.55 592.75 2417.55 593.15 2420.05 594.05 2421.65 595.25 2422.5 596.65 2423.05 598.85 2423.05 599.6 2422.5 602.05 2421.15 604.55 2371.1 675.7 2368.65 678.4 2366.05 680.25 2363.15 681.35 2360.05 681.7 2356.85 681.25 2353.95 680.05 2351.4 678.15 2349.45 675.85 2299.05 604.3 2297.85 602 2297.3 599.55 2297.3 598.8 2297.8 596.75 2298.25 595.95 2299.7 594.5 2300.4 594.05 2303.25 593.1 2306.75 592.8 M2473.85 593 L2474.1 592.8 2529.45 592.85 2532.65 593.6 2533.9 594.45 2535 595.7 2536.25 598.65 2536.6 601.8 2536.25 604.7 2536 605.35 2534.95 607.15 2534.35 607.75 2532.6 608.85 2531.9 609.1 2529.4 609.45 2474.8 609.45 2468.1 609.9 2461.8 611.3 2459.6 612.3 2457.85 613.6 2457 615.2 2456.8 616.6 2456.8 628.05 2457.3 628.5 2529.45 628.55 2532.15 629 2532.85 629.3 2534.75 630.65 2535.3 631.3 2536.6 634.05 2536.95 637.45 2536.6 640.4 2535.3 643.15 2534.75 643.8 2532.85 645.15 2532.15 645.45 2529.15 645.95 2457.3 645.95 2456.8 646.4 2456.8 657.85 2457.05 659.4 2457.65 660.65 2459.45 662.05 2461.75 663.15 2468.05 664.55 2474.55 664.95 2529.1 664.95 2531.85 665.35 2532.5 665.6 2534.25 666.7 2534.85 667.3 2535.9 669.1 2536.15 669.75 2536.5 672.2 2536 676.3 2534.9 678.7 2533.45 680.25 2531.95 681 2528.95 681.55 2473.9 681.55 2462.9 680.55 2460.25 679.95 2450.65 677 2447.25 675 2443.2 671.95 2440 668.15 2438 663.75 2437.25 658.4 2437.25 616.15 2437.85 611.3 2439.75 606.85 2443.2 602.6 2447.25 599.55 2451 597.4 2460.2 594.6 2462.65 594.05 2473.85 593 M2153.4 593 L2153.45 592.9 2236.95 592.9 2239.85 593.4 2240.6 593.75 2242.4 595.15 2242.9 595.8 2244.1 598.6 2244.45 601.7 2244.1 604.6 2243.85 605.25 2242.8 607.05 2242.2 607.65 2240.4 608.75 2239.75 609 2237 609.4 2205.2 609.4 2204.75 609.85 2204.75 674 2204.35 676.75 2204.1 677.4 2203.05 679.2 2202.45 679.8 2200.7 680.9 2200.05 681.15 2197.3 681.55 2192.75 681.45 2189.8 680.95 2188.3 680.25 2186.7 678.75 2185.55 676.2 2185.35 674.05 2185.35 609.9 2184.85 609.45 2153.35 609.45 2150.55 609.05 2149.9 608.8 2148.15 607.75 2147.55 607.15 2146.45 605.35 2146.2 604.7 2145.85 602.2 2146.1 598.35 2146.8 596.25 2147.15 595.65 2148.35 594.4 2149.95 593.6 2153.4 593 M1898.8 593 L1898.8 592.95 1982.3 592.95 1985.2 593.45 1985.95 593.8 1987.75 595.2 1988.25 595.85 1989.45 598.65 1989.8 601.75 1989.45 604.65 1989.2 605.3 1988.15 607.1 1987.55 607.7 1985.75 608.8 1985.05 609.05 1982.3 609.45 1950.5 609.45 1950.05 609.9 1950.05 674.05 1949.65 676.8 1949.4 677.5 1948.35 679.25 1947.75 679.85 1946 680.95 1945.3 681.2 1942.6 681.6 1938.05 681.5 1935.1 681 1933.6 680.3 1932 678.8 1930.85 676.25 1930.65 674.1 1930.65 609.95 1930.2 609.5 1898.7 609.5 1895.9 609.1 1895.25 608.85 1893.45 607.75 1892.85 607.15 1891.75 605.35 1891.5 604.7 1891.15 602.2 1891.45 598.35 1892.15 596.25 1892.5 595.65 1893.7 594.4 1895.3 593.6 1898.8 593 M2018.5 593 L2018.4 592.9 2021.15 593.3 2021.8 593.55 2023.55 594.65 2024.15 595.25 2025.2 597 2025.45 597.7 2025.85 600.45 2025.85 674.3 2025.5 676.85 2025.25 677.5 2024.2 679.3 2023.6 679.9 2021.85 681 2021.15 681.25 2018.45 681.65 2014.2 681.55 2011.7 681.3 2009.55 680.35 2009.05 679.95 2007.65 678.3 2006.85 676.25 2006.6 674.1 2006.6 600.45 2006.8 598.3 2007.95 595.75 2009.55 594.25 2011.05 593.55 2014.1 593.1 2018.5 593 M1866.9 593 L1866.8 592.85 1869.55 593.25 1870.2 593.5 1871.95 594.6 1872.55 595.2 1873.6 597 1873.85 597.7 1874.25 600.45 1874.25 674.3 1873.9 676.85 1873.65 677.5 1872.6 679.3 1872 679.9 1870.25 681 1869.6 681.25 1866.85 681.65 1862.6 681.55 1860.1 681.3 1857.95 680.35 1857.45 679.95 1856.05 678.3 1855.25 676.25 1855 674.1 1855 600.45 1855.2 598.3 1856.35 595.75 1857.95 594.25 1859.5 593.5 1862.5 593.1 1866.9 593 M1695.75 593 L1695.65 592.9 1698.4 593.3 1699.05 593.55 1700.8 594.65 1701.4 595.25 1702.45 597.05 1702.7 597.7 1703.1 600.45 1703.1 674.3 1702.75 676.85 1702.5 677.5 1701.45 679.3 1700.85 679.9 1699.1 681 1698.45 681.25 1695.7 681.65 1691.5 681.55 1689 681.3 1686.8 680.35 1686.3 679.95 1684.9 678.3 1684.1 676.25 1683.85 674.1 1683.85 600.45 1684.05 598.3 1685.2 595.75 1686.8 594.25 1688.35 593.5 1691.35 593.1 1695.75 593 M2273.05 593 L2273 592.9 2275.75 593.3 2276.4 593.55 2278.15 594.65 2278.75 595.25 2279.8 597.05 2280.05 597.7 2280.45 600.45 2280.45 674.3 2280.1 676.85 2279.85 677.5 2278.8 679.3 2278.2 679.9 2276.45 681 2275.8 681.25 2273.05 681.65 2268.8 681.55 2266.3 681.3 2264.1 680.35 2263.6 679.95 2262.2 678.3 2261.4 676.25 2261.15 674.1 2261.15 600.45 2261.35 598.3 2262.5 595.75 2264.1 594.25 2265.6 593.55 2268.65 593.1 2273.05 593 M1322.85 311.55 L1322.95 311.4 1319.05 311.8 1315.45 312.9 1312.2 314.65 1309.35 317 1306.95 319.95 1305.2 323.2 1304.1 326.8 1303.7 330.6 1303.7 654.15 1304.1 658.1 1305.2 661.6 1306.95 664.85 1309.35 667.8 1312.2 670.15 1315.35 671.85 1318.95 673 1322.85 673.4 1340.65 673.4 1344.35 673.05 1347.95 672 1351.25 670.25 1354.2 667.85 1433.4 588.65 1435.85 585.65 1437.55 582.45 1438.65 578.9 1439.05 575.1 1439.05 330.8 1438.65 326.85 1437.5 323.25 1435.7 320 1433.35 317.15 1430.5 314.8 1427.25 313.05 1423.65 311.95 1419.8 311.55 1322.85 311.55 M733.95 447.45 L734.1 447.35 730.2 447.75 726.6 448.85 723.35 450.6 720.5 452.95 718.1 455.9 716.35 459.15 715.25 462.75 714.85 466.55 714.85 654.2 715.25 658.15 716.35 661.65 718.1 664.9 720.45 667.75 723.3 670.1 726.65 671.9 730.25 673 734.05 673.4 1238.8 673.4 1242.75 673 1246.25 671.9 1249.5 670.15 1252.35 667.8 1254.7 664.95 1256.5 661.6 1257.6 658 1258 654.2 1258 602.5 1257.6 598.6 1256.45 594.9 1254.75 591.75 1252.4 588.9 1249.45 586.5 1246.2 584.75 1242.7 583.65 1238.8 583.25 870 583.25 865.8 582.8 862.45 581.75 859.1 579.95 855.95 577.35 853.55 574.4 851.9 571.35 850.65 567.35 850.25 563.5 850.25 557.2 850.7 553 851.9 549.3 853.75 546 855.95 543.35 858.8 540.95 862.45 538.95 866.15 537.85 870 537.45 1071.6 537.45 1075.5 537.05 1079.05 535.95 1082.35 534.2 1085.25 531.85 1136.95 480.15 1139 477.8 1140.55 475.3 1141.7 472.6 1142.35 469.9 1142.6 467.25 1142.45 464.45 1141.1 459.35 1138.35 454.65 1136.5 452.6 1134.3 450.8 1131.9 449.4 1129.25 448.35 1126.45 447.7 1123.25 447.45 733.95 447.45 M216.25 311.55 L216.35 311.5 212.4 311.7 202.2 312.95 195.4 314.3 187.65 316.35 179.5 319.15 171.05 322.9 162.7 327.65 154.5 333.65 146.85 340.95 143.35 345.1 140 349.7 136.95 354.65 134.2 360.05 131.8 365.8 129.75 372.05 128.1 378.8 126.9 385.9 126.15 393.6 125.9 401.9 125.9 583.05 126.1 587 127.35 597.25 128.65 604 130.65 611.7 133.45 619.9 137.2 628.35 142 636.8 147.95 644.95 155.25 652.6 159.45 656.15 164 659.45 168.9 662.45 174.25 665.2 180.1 667.65 186.35 669.7 193.05 671.35 200.15 672.55 207.85 673.3 216.15 673.55 649.75 673.55 653.7 673.15 657.3 672 660.55 670.2 663.4 667.85 665.65 665.1 667.45 661.85 668.6 658.25 669 654.35 669 602.65 668.6 598.75 667.45 595.05 665.75 591.9 663.4 589.05 660.45 586.65 657.2 584.9 653.7 583.8 649.8 583.4 306.75 583.4 299.8 582.7 292.5 581 288.25 579.55 284 577.65 279.75 575.2 275.65 572.15 271.8 568.45 268.5 564.25 265.45 558.8 263.3 553 261.85 545.95 261.3 537.75 261.3 447.15 261.4 445.2 262.05 440 263.7 432.9 265.1 428.75 266.95 424.5 269.35 420.25 272.35 416.15 276 412.3 280.4 408.85 285.55 405.95 291.9 403.6 298.9 402.15 306.9 401.65 617.25 401.65 621.05 401.3 624.65 400.2 627.95 398.45 630.9 396.05 682.6 344.35 684.7 341.9 686.25 339.4 687.35 336.75 688 334.15 688.3 331.4 688.15 328.6 686.75 323.35 684.1 318.8 682.25 316.75 680.15 315 677.7 313.5 675.05 312.45 672.15 311.8 669.05 311.55 216.25 311.55 M2103.95 613.95 L2084.65 642.25 2084.9 642.75 2123.5 642.75 2123.75 642.25 2104.6 613.95 2103.95 613.95 M2081.75 449.55 L2084.4 449.75 2087.25 450.6 2089.3 451.95 2090.55 453.4 2091.45 455.05 2143.2 528.3 2143.5 529.05 2143.75 531.65 2143.2 534.7 2142.95 535.35 2141.3 537.85 2140.8 538.35 2138.35 540 2137.7 540.25 2134.35 540.85 2132 540.6 2129.6 539.7 2127.45 538.15 2125.5 535.85 2112.55 517.1 2112.1 516.85 2049.6 516.85 2049.15 517.1 2036.25 535.8 2033.1 539 2031.9 539.6 2030.05 540 2026.9 539.6 2023.55 537.85 2021.1 535.2 2020.5 533.65 2020.3 532.35 2020.35 531.6 2021 529.75 2069.8 455.15 2071.8 452.8 2074.55 451 2078.2 449.85 2081.75 449.55 M2586.15 449.9 L2586.2 450.05 2588.9 450.35 2591.85 451.25 2594.75 452.8 2597.75 455 2665.3 512.45 2665.75 512.25 2665.75 458.1 2666.1 455.45 2666.8 453.95 2668.2 452.3 2670.25 451.15 2670.85 451 2673.65 450.75 2677.9 450.65 2680.35 451 2681 451.25 2682.8 452.3 2683.4 452.9 2684.5 454.7 2684.75 455.35 2685.15 458.1 2685.15 528.1 2684.45 533.15 2683.6 535.1 2682.35 536.8 2680.75 538.15 2678.9 539.05 2676.8 539.55 2674.5 539.7 2672 539.35 2669.9 538.6 2664.7 535.25 2596.05 476.95 2595.6 477.15 2595.6 531.65 2595.25 534.3 2594.55 535.85 2593.15 537.5 2591.1 538.65 2590.45 538.8 2587.7 539.05 2583.45 539.15 2580.95 538.8 2580.3 538.55 2578.55 537.45 2577.95 536.85 2576.9 535.05 2576.65 534.4 2576.25 531.6 2576.25 460.9 2576.9 456.25 2577.7 454.35 2578.85 452.7 2580 451.65 2581.7 450.7 2586.15 449.9 M2171.65 449.9 L2171.7 450.05 2174.75 450.4 2177.6 451.35 2180.45 452.9 2183.25 455 2250.8 512.45 2251.25 512.25 2251.25 458.1 2251.6 455.45 2252.3 453.95 2253.7 452.3 2255.75 451.15 2256.35 451 2259.15 450.75 2263.4 450.65 2265.85 451 2266.5 451.25 2268.3 452.3 2268.9 452.9 2270 454.7 2270.25 455.35 2270.65 458.1 2270.65 528.1 2269.95 533.15 2269.1 535.1 2267.85 536.8 2266.25 538.15 2264.4 539.05 2262.3 539.55 2260 539.7 2257.5 539.35 2255.4 538.6 2250.2 535.25 2181.55 476.95 2181.1 477.15 2181.1 531.65 2180.75 534.3 2180.05 535.85 2178.65 537.5 2176.6 538.65 2176 538.8 2173.2 539.05 2168.95 539.15 2166.45 538.8 2165.8 538.55 2164.05 537.45 2163.45 536.85 2162.4 535.05 2162.15 534.4 2161.75 531.6 2161.75 460.9 2162.4 456.25 2163.2 454.35 2164.35 452.7 2165.5 451.65 2167.2 450.7 2171.65 449.9 M1809.8 450.5 L1812.7 451.05 1814.7 452.2 1850.8 482.35 1851.45 482.35 1887.5 452.1 1889.2 451.25 1890.9 450.85 1896.6 450.5 1900.1 450.95 1902.1 451.85 1902.75 452.35 1904 453.9 1904.35 454.65 1904.8 457.35 1904.5 459.05 1904 460.25 1901.5 463.3 1865.35 493.7 1865.35 494.35 1902.85 526.1 1905.15 528.7 1906.1 530.75 1906.3 531.95 1906.1 533.85 1905.9 534.45 1904.9 536 1903.45 537.25 1901.6 538.2 1898.5 539.1 1895.55 539.45 1891.8 539 1888.6 537.45 1851.4 506.1 1850.75 506.1 1813.05 537.55 1809.8 538.85 1805.75 539.2 1801.55 538.8 1798.85 537.85 1797.5 536.9 1796.25 535.25 1795.7 533.75 1795.6 532.15 1795.8 530.85 1796.45 529.2 1798.95 526.15 1836.65 494.4 1836.65 493.75 1800.5 463.55 1797.8 460.3 1797.2 458.65 1797.05 456.85 1797.55 454.5 1798.8 452.6 1800.65 451.35 1802.35 450.8 1809.8 450.5 M2328.35 450.5 L2328.45 450.6 2381.8 450.6 2384.55 451 2385.2 451.25 2386.95 452.35 2387.55 452.95 2388.6 454.75 2388.85 455.4 2389.2 458.25 2389 461.35 2388.25 463.95 2387.9 464.55 2386.75 465.8 2385.15 466.65 2381.75 467.25 2328.45 467.25 2320.95 467.65 2317.05 468.25 2313.75 469.15 2311.35 470.25 2309.7 471.55 2308.95 472.8 2308.7 474.1 2308.7 479.85 2309.05 481.4 2310.4 483 2312.85 484.25 2316.65 485.25 2321.6 485.75 2329.95 485.9 2350.7 485.9 2357.7 486.15 2364.1 486.9 2369.75 488.1 2374.7 489.85 2381.2 493.35 2383.5 495.2 2385.6 497.45 2387.4 500.2 2388.55 502.9 2389.2 505.5 2389.45 508.8 2389.45 516.4 2388.9 522.6 2388.2 525.35 2386.95 528.05 2385.05 530.55 2381.95 533.15 2378.45 535.05 2374.45 536.5 2369.5 537.7 2363.7 538.55 2350.4 539.2 2297.05 539.2 2294.3 538.8 2293.65 538.55 2291.9 537.45 2291.3 536.85 2290.25 535.05 2290 534.4 2289.65 531.55 2289.85 528.45 2290.6 525.85 2290.9 525.25 2292.05 524 2293.6 523.15 2297 522.55 2350.3 522.55 2357.8 522.15 2361.7 521.55 2365.1 520.6 2367.55 519.45 2368.95 518.4 2369.8 517.2 2370.1 515.65 2370.1 509.9 2369.75 508.35 2368.4 506.75 2365.95 505.5 2362.15 504.5 2357.2 504 2348.85 503.85 2328.1 503.85 2320.95 503.6 2314.55 502.85 2309.1 501.65 2304.15 499.9 2297.9 496.6 2295.15 494.4 2293.25 492.3 2291.6 489.85 2290.3 486.85 2289.6 483.95 2289.4 480.95 2289.4 473.35 2289.95 467.15 2290.65 464.4 2291.9 461.7 2293.75 459.25 2296.85 456.6 2300.35 454.7 2304.55 453.15 2309.45 452 2314.9 451.2 2328.35 450.5 M2489.55 450.5 L2489.5 450.6 2513.6 450.6 2522.2 450.8 2529.25 451.4 2535.2 452.4 2539.95 453.9 2543.6 455.55 2546.35 457.3 2548.9 459.5 2551.15 462.3 2552.75 465.2 2553.8 468.1 2554.55 471.8 2554.75 475.5 2554.75 514.55 2554.1 520 2552.1 525.1 2548.75 529.5 2544.1 533.05 2537.95 535.85 2530.95 537.7 2522.95 538.75 2513.45 539.1 2489.4 539.1 2481.7 538.85 2475 538.1 2468.95 536.8 2463.5 534.9 2459.95 533.25 2456.9 531.35 2454.3 529.15 2452.15 526.7 2450.45 523.95 2449.25 521 2448.55 517.8 2448.35 514.45 2448.35 475.5 2449 469.8 2451 464.65 2454.65 459.9 2459.3 456.45 2464.85 453.9 2472.1 451.95 2480.25 450.85 2489.55 450.5 M1718 450.5 L1718.05 450.3 1773.45 450.35 1776.7 451.1 1777.95 451.9 1779.05 453.15 1780.3 456.1 1780.65 459.25 1780.3 462.15 1780.05 462.8 1779 464.6 1778.4 465.2 1776.65 466.3 1776 466.55 1773.5 466.9 1718.9 466.9 1712.15 467.35 1709.15 467.85 1705.85 468.75 1703.4 469.85 1701.85 471 1701 472.5 1700.8 474 1700.8 485.45 1701.25 485.9 1773.4 485.95 1776.1 486.4 1776.8 486.7 1778.7 488.05 1779.25 488.65 1780.55 491.4 1780.9 494.8 1780.55 497.75 1779.25 500.5 1778.7 501.15 1776.8 502.5 1776.1 502.8 1773.15 503.3 1701.3 503.3 1700.85 503.75 1700.85 515.2 1701.1 516.85 1701.75 518 1703.4 519.35 1705.75 520.45 1709.1 521.4 1712.1 521.9 1718.65 522.35 1773.2 522.35 1775.95 522.75 1776.6 523 1778.35 524.1 1778.95 524.7 1780 526.5 1780.25 527.15 1780.6 529.6 1780.1 533.7 1779 536.1 1777.55 537.65 1776.1 538.4 1773.1 538.95 1717.9 538.95 1711.8 538.65 1708.4 538.25 1703.6 537.4 1699.4 536.25 1695.45 534.7 1691.9 532.8 1689.05 531.05 1686.75 529.05 1684.85 526.8 1683.35 524.35 1682.3 521.7 1681.65 518.85 1681.45 515.85 1681.45 473.4 1681.7 470.4 1682.3 467.85 1683.35 465.2 1685 462.5 1686.95 460.25 1689.05 458.45 1691.9 456.65 1695.45 454.75 1699.4 453.2 1703.75 452 1708.35 451.2 1711.75 450.8 1718 450.5 M1928.6 450.5 L1928.6 450.6 1992.95 450.6 1999.25 450.85 2005.2 451.55 2010.65 452.7 2015.9 454.45 2021.85 457.3 2024.6 459.3 2026.5 461.15 2028.15 463.35 2029.5 466.1 2030.2 468.75 2030.4 471.35 2030.4 484.7 2030.15 488.05 2029.55 490.9 2028.45 493.8 2026.95 496.5 2025 498.95 2022.65 501.15 2019.85 503.05 2016.45 504.8 2011.3 506.6 2005.25 507.95 1998.9 508.75 1992.1 509 1940.9 509 1940.45 509.45 1940.45 531.75 1940.25 533.75 1939.45 535.7 1937.65 537.65 1935.55 538.7 1933.05 539.15 1928.6 539.25 1925.85 538.85 1925.2 538.6 1923.45 537.5 1922.85 536.9 1921.8 535.1 1921.55 534.45 1921.15 531.65 1921.15 458.05 1921.55 455.3 1921.8 454.65 1922.85 452.85 1923.45 452.25 1925.2 451.15 1925.85 450.9 1928.6 450.5 M2419.8 450.5 L2419.75 450.4 2422.5 450.8 2423.15 451.05 2424.9 452.15 2425.5 452.75 2426.55 454.55 2426.8 455.2 2427.2 457.95 2427.2 531.8 2426.85 534.35 2426.6 535 2425.55 536.8 2424.95 537.4 2423.2 538.5 2422.55 538.75 2419.8 539.15 2415.55 539.05 2413.05 538.8 2410.85 537.85 2410.35 537.45 2408.95 535.8 2408.15 533.75 2407.9 531.6 2407.9 457.95 2408.1 455.8 2409.25 453.25 2410.85 451.75 2412.4 451 2415.4 450.6 2419.8 450.5 M2489.6 466.95 L2489.65 466.95 2479.5 467.6 2475.65 468.4 2472.65 469.45 2470.45 470.75 2469 472.15 2468.15 473.75 2467.8 475.8 2467.8 514 2468.15 516 2469 517.55 2470.45 518.9 2472.55 520.1 2475.65 521.15 2479.5 521.9 2489.5 522.55 2514.05 522.55 2524.1 521.9 2527.9 521.15 2530.85 520.15 2533.15 518.8 2534.6 517.4 2535.35 515.85 2535.6 514.05 2535.6 475.85 2535.25 473.75 2534.4 472.15 2532.95 470.75 2530.75 469.45 2527.8 468.4 2524 467.6 2513.95 466.95 2489.6 466.95 M2080.6 471.45 L2061.3 499.75 2061.55 500.25 2100.15 500.25 2100.4 499.75 2081.25 471.45 2080.6 471.45 M1940.9 467 L1940.9 467.05 1940.45 467.5 1940.45 491.85 1940.9 492.3 1993 492.3 2001.5 491.7 2004.7 490.95 2007.3 489.9 2009 488.8 2010.2 487.5 2010.95 485.75 2011.2 483.95 2011.2 472.5 2011.05 471.55 2010.35 470.45 2007.35 468.7 2001.5 467.45 1993.05 467 1940.9 467 M785 311.95 L784.85 312 781.05 312.35 777.45 313.45 774.15 315.2 771.2 317.6 720.2 368.6 718.1 371.05 716.55 373.55 715.45 376.2 714.8 378.9 714.55 381.55 714.7 384.35 716.05 389.45 718.8 394.15 720.65 396.2 722.75 397.95 725.2 399.45 727.85 400.5 730.75 401.15 733.8 401.4 1238.85 401.4 1242.8 401 1246.4 399.85 1249.65 398.05 1252.5 395.7 1254.85 392.85 1256.6 389.6 1257.7 386 1258.1 382.2 1258.1 331.25 1257.7 327.25 1256.6 323.75 1254.85 320.5 1252.45 317.55 1249.7 315.3 1246.45 313.5 1242.75 312.35 1238.9 311.95 785 311.95 M2390.3 307.05 L2390.35 307.05 2393.35 307.3 2395.85 308.1 2397.45 309.1 2399.1 310.95 2400 312.6 2451.75 385.85 2452.05 386.6 2452.3 389.2 2451.75 392.25 2451.5 392.9 2449.85 395.4 2449.35 395.9 2446.9 397.55 2446.25 397.8 2442.9 398.4 2440.55 398.15 2438.15 397.25 2436 395.7 2434.05 393.4 2421.1 374.65 2420.65 374.4 2358.15 374.4 2357.7 374.65 2344.8 393.35 2341.65 396.55 2339.95 397.3 2338.6 397.5 2335.45 397.1 2332.1 395.35 2329.65 392.7 2329.05 391.15 2328.85 389.85 2328.9 389.1 2329.55 387.25 2378.35 312.65 2380.35 310.3 2383.1 308.5 2386.75 307.35 2390.3 307.05 M2171.5 307.4 L2171.55 307.45 2174.25 307.75 2177.2 308.65 2180.1 310.2 2183.15 312.4 2250.7 369.85 2251.15 369.65 2251.15 315.5 2251.5 312.85 2252.15 311.35 2253.55 309.7 2255.6 308.55 2256.2 308.4 2259 308.15 2263.25 308.05 2265.7 308.4 2266.4 308.65 2268.15 309.7 2268.75 310.3 2269.85 312.1 2270.1 312.75 2270.5 315.5 2270.5 385.5 2269.8 390.55 2268.95 392.55 2267.7 394.25 2266.1 395.6 2264.25 396.5 2262.15 397 2259.85 397.15 2257.35 396.8 2255.2 396.05 2250 392.7 2181.35 334.4 2180.9 334.6 2180.9 389.15 2180.55 391.8 2179.85 393.35 2178.45 395 2176.4 396.15 2175.8 396.3 2173 396.55 2168.8 396.65 2166.35 396.3 2165.65 396.05 2163.9 394.95 2163.3 394.35 2162.25 392.55 2162 391.9 2161.6 389.1 2161.6 318.4 2162.25 313.75 2163.05 311.85 2164.2 310.2 2165.7 308.9 2167.05 308.2 2171.5 307.4 M2074.9 308 L2074.85 308.05 2098.95 308.05 2107.55 308.25 2114.6 308.85 2120.55 309.85 2125.3 311.35 2128.95 313 2131.7 314.75 2134.25 316.95 2136.5 319.75 2138.1 322.65 2139.15 325.55 2139.9 329.25 2140.1 332.95 2140.1 372 2139.45 377.45 2137.45 382.55 2134.1 386.95 2129.45 390.5 2123.3 393.3 2116.3 395.15 2108.3 396.2 2098.8 396.55 2074.75 396.55 2067.05 396.3 2060.35 395.55 2054.3 394.25 2048.85 392.35 2045.3 390.7 2042.25 388.8 2039.65 386.6 2037.5 384.15 2035.8 381.45 2034.6 378.5 2033.9 375.3 2033.7 371.95 2033.7 333 2034.35 327.3 2036.35 322.15 2040 317.4 2044.65 313.95 2050.2 311.4 2057.45 309.45 2065.6 308.35 2074.9 308 M1845.2 308 L1845.1 308.05 1869.2 308.05 1877.8 308.25 1884.85 308.85 1890.8 309.85 1895.55 311.35 1899.2 313 1901.95 314.75 1904.5 316.95 1906.75 319.75 1908.35 322.65 1909.4 325.55 1910.15 329.25 1910.35 332.95 1910.35 372 1909.7 377.45 1907.7 382.55 1904.35 386.95 1899.7 390.5 1893.55 393.3 1886.75 395.1 1878.55 396.2 1869.05 396.55 1845 396.55 1837.3 396.3 1830.6 395.55 1824.6 394.25 1819.15 392.35 1815.6 390.7 1812.55 388.8 1809.95 386.6 1807.8 384.15 1806.1 381.45 1804.9 378.5 1804.2 375.3 1804 371.95 1804 333 1804.65 327.3 1806.65 322.15 1810.3 317.4 1814.95 313.95 1820.5 311.4 1827.75 309.45 1835.9 308.35 1845.2 308 M1936.6 308 L1936.5 307.95 1940.7 308.05 1943.9 308.55 1945.35 309.25 1946.95 310.75 1948.1 313.25 1948.3 315.35 1948.3 372.15 1948.75 374.3 1950.2 376.15 1953.2 377.85 1957.45 379.05 1962.9 379.7 1972.95 379.95 2021.55 379.95 2024.55 380.5 2026 381.25 2027.1 382.3 2028.7 385.75 2029.05 388.9 2028.7 391.8 2028.45 392.45 2027.4 394.25 2026.8 394.85 2025.05 395.95 2024.4 396.2 2021.65 396.6 1972.15 396.6 1963.95 396.4 1956.9 395.85 1950.6 394.9 1945.15 393.5 1941.5 392.05 1938.3 390.25 1935.35 387.9 1933.1 385.35 1931.35 382.5 1930.1 379.35 1929.35 375.95 1929.1 372.3 1929.1 315.5 1929.5 312.75 1929.75 312.1 1930.8 310.3 1931.4 309.7 1933.15 308.65 1933.85 308.4 1936.6 308 M1718.95 308 L1718.9 307.95 1774.4 308 1776.95 308.5 1777.7 308.85 1779.5 310.25 1780 310.9 1781.2 313.7 1781.55 316.8 1781.2 319.7 1780.95 320.35 1779.9 322.15 1779.3 322.75 1777.5 323.85 1776.85 324.1 1774.35 324.45 1719.25 324.45 1710.6 324.95 1704.9 326.3 1702.95 327.3 1701.8 328.35 1701.25 329.4 1701.05 330.6 1701.05 372.4 1701.3 373.95 1702 375.35 1703.45 376.7 1705.5 377.8 1708.25 378.7 1711.85 379.4 1721.25 380 1773.75 380 1776.65 380.45 1777.4 380.75 1779.2 381.95 1779.75 382.55 1781.05 385.2 1781.4 388 1781.05 391.25 1780.85 391.85 1779.75 393.9 1779.2 394.5 1777.35 395.75 1776.65 396.05 1773.75 396.5 1721.3 396.5 1712 396.3 1705.8 395.65 1700.05 394.1 1694.4 391.65 1689.1 388.3 1685 384.15 1683.55 381.7 1682.55 378.95 1681.95 375.9 1681.75 372.6 1681.75 330.6 1682.25 326.4 1683.75 322.4 1686.25 318.75 1689.75 315.5 1693.2 313.2 1697.15 311.25 1701.25 309.8 1705.55 308.8 1711.3 308.2 1718.95 308 M2303.7 308 L2303.6 307.85 2306.35 308.25 2307 308.5 2308.75 309.6 2309.35 310.2 2310.4 312 2310.65 312.65 2311.05 315.4 2311.05 389.25 2310.7 391.8 2310.45 392.45 2309.4 394.25 2308.8 394.85 2307.05 395.95 2306.4 396.2 2303.65 396.6 2299.4 396.5 2296.9 396.25 2294.75 395.3 2294.25 394.9 2292.85 393.25 2292.05 391.2 2291.8 389.05 2291.8 315.4 2292 313.25 2293.15 310.7 2294.75 309.2 2296.25 308.5 2299.3 308.1 2303.7 308 M2074.95 324.45 L2075 324.4 2064.85 325.05 2061 325.85 2058 326.9 2055.8 328.2 2054.35 329.6 2053.5 331.2 2053.15 333.25 2053.15 371.45 2053.5 373.45 2054.35 375 2055.8 376.35 2057.9 377.55 2061 378.6 2064.85 379.35 2074.85 380 2099.4 380 2109.45 379.35 2113.25 378.6 2116.2 377.6 2118.5 376.25 2119.95 374.85 2120.7 373.3 2120.95 371.5 2120.95 333.3 2120.6 331.2 2119.75 329.6 2118.3 328.2 2116.1 326.95 2113.15 325.9 2109.35 325.1 2099.3 324.45 2074.95 324.45 M1845.2 324.45 L1845.25 324.45 1835.1 325.1 1831.25 325.9 1828.25 326.95 1826.05 328.25 1824.6 329.65 1823.75 331.25 1823.4 333.3 1823.4 371.5 1823.75 373.5 1824.6 375.05 1826.05 376.4 1828.15 377.6 1831.25 378.65 1835.1 379.4 1845.1 380.05 1869.65 380.05 1879.7 379.4 1883.5 378.65 1886.45 377.65 1888.75 376.3 1890.2 374.9 1890.95 373.35 1891.2 371.55 1891.2 333.35 1890.85 331.25 1890 329.65 1888.55 328.25 1886.35 326.95 1883.4 325.9 1879.6 325.1 1869.55 324.45 1845.2 324.45 M2389.15 328.95 L2369.85 357.25 2370.1 357.75 2408.7 357.75 2408.95 357.25 2389.8 328.95 2389.15 328.95"/>
  </g>
</svg>