<?xml version="1.0" encoding="utf-8"?>
<!-- Generator: Adobe Illustrator 16.0.0, SVG Export Plug-In . SVG Version: 6.00 Build 0)  -->
<!DOCTYPE svg PUBLIC "-//W3C//DTD SVG 1.1//EN" "http://www.w3.org/Graphics/SVG/1.1/DTD/svg11.dtd">
<svg version="1.1" id="Layer_1" xmlns="http://www.w3.org/2000/svg" xmlns:xlink="http://www.w3.org/1999/xlink" x="0px" y="0px"
	 width="2000px" height="2000px" viewBox="0 0 2000 2000" enable-background="new 0 0 2000 2000" xml:space="preserve">
<title>logo-elite-dangerous-icon</title>
<g id="Icon">
	<polygon fill="#F07B05" points="999.774,1053.685 1065.506,995.954 1181.781,995.954 1151.084,969.417 1073.281,955.945 
		1071.383,928.142 1125.451,928.142 1094.44,902.238 1058.273,896.09 1049.231,840.303 1064.602,827.057 1043.535,571.994 
		1033.001,629.543 1027.26,774.525 999.684,795.23 972.468,774.525 966.727,629.543 956.194,571.994 935.126,827.057 
		950.451,840.303 941.41,896.994 905.289,902.238 874.277,928.142 928.3,928.142 926.402,955.945 848.598,969.417 817.903,995.954 
		934.222,995.954 	"/>
	<path fill="#F07B05" d="M1188.156,820.547h-0.452v32.776c0,0,61.393,48.327,61.393,106.374l-67.225,67.812h-68.987l-51.673,50.452
		v0.362l0,0l-3.526,17.179H942.586l-3.526-17.134l0,0v-0.361l-51.673-50.317h-69.033l-67.224-67.812
		c0-57.866,61.438-106.103,61.438-106.103v-33.409h-0.452L0,86.325C0.452,261.46,0.452,291.704,75.317,361.687
		c1.673,1.492,66.907,63.291,76.221,70.614v1.266c0,162.025,0,162.025,63.291,216.999c1.989,1.763,73.734,68.941,73.734,68.941
		s-0.271,22.921,0,30.244c0,116.411,0,117.768,53.3,175.407c19.892,21.52,102.712,99.458,183.951,174.593H268.173l288.518,257.686
		h315.823l-28.21,49.729H608.861l78.979,67.813h205.289l106.962-210.263l109.223,210.263h202.26l78.979-67.813h-232.504
		l-28.21-49.729h316.817l285.488-257.686h-257.686c81.375-75.316,163.969-153.074,183.906-174.548
		c53.391-57.64,53.255-58.771,53.255-175.361c0-7.369,0-30.289,0-30.289s71.745-67.134,73.733-68.897
		c63.292-55.153,63.292-55.153,63.292-216.998v-1.266c9.403-7.007,74.366-69.078,76.04-70.57
		c74.863-69.937,74.863-100.226,75.316-275.497L1188.156,820.547z"/>
	<path d="M1001.447,1913.676L1001.447,1913.676L1001.447,1913.676z"/>
	<path fill="#F07B05" d="M1001.944,1402.735l-102.034,243.264l70.163,68.129c-9.313,58.544-18.084,117.134-18.535,129.476
		c-0.634,25.497,47.423,67.812,49.729,70.072c2.396-2.08,50.406-44.575,49.729-70.072c-0.316-11.98-8.725-67.813-17.767-124.639
		l70.163-72.966L1001.944,1402.735z"/>
</g>
</svg>
