<svg width="2348.85px" height="1000.65px" viewBox="0 0 2348.85 1000.65" xmlns="http://www.w3.org/2000/svg" xmlns:xlink="http://www.w3.org/1999/xlink">
  <defs/>
  <g>
    <path stroke="none" fill="#000000" d="M505.45 -0.2 L505.25 0.3 518 0.6 530.75 1.25 543.55 2.2 556.4 3.5 565.6 4.65 583.85 7.4 601.85 10.8 619.6 14.8 637.1 19.45 654.3 24.7 671.2 30.5 679.55 33.65 696 40.3 712.15 47.5 727.95 55.25 743.45 63.55 758.6 72.35 773.4 81.65 787.8 91.45 801.85 101.7 815.5 112.45 828.75 123.65 841.6 135.25 854 147.3 866 159.75 877.55 172.6 888.65 185.85 899.3 199.45 909.45 213.4 919.1 227.7 928.3 242.35 937 257.3 945.15 272.55 952.8 288.1 959.9 303.95 966.45 320.05 972.2 335.65 972.7 335.8 976.05 333.2 980.05 330.35 984.2 327.7 988.5 325.25 992.9 323 997.45 320.95 1002.15 319.1 1006.95 317.45 1011.9 316 1017 314.75 1022.25 313.7 1027.6 312.8 1033.1 312.1 1038.75 311.6 1044.55 311.3 1050.5 311.2 1058.4 311.4 1066.05 311.95 1073.45 312.85 1080.6 314.15 1087.55 315.8 1094.25 317.8 1100.7 320.15 1106.9 322.9 1112.9 326 1118.65 329.45 1124.15 333.25 1129.4 337.45 1134.4 342 1139.2 346.9 1143.75 352.15 1148.05 357.8 1152.1 363.8 1155.9 370.15 1159.45 376.85 1162.7 383.9 1165.7 391.35 1168.45 399.15 1170.95 407.3 1173.15 415.8 1175.1 424.65 1176.8 433.9 1178.25 443.5 1179.45 453.45 1180.35 463.75 1181 474.4 1181.4 485.45 1181.55 496.85 1181.4 508.3 1181 519.35 1180.35 530.05 1179.45 540.4 1178.3 550.4 1176.9 560 1175.25 569.25 1173.35 578.15 1171.2 586.7 1168.75 594.85 1166.05 602.65 1163.1 610.1 1159.9 617.2 1156.45 623.9 1152.75 630.25 1148.8 636.25 1144.6 641.9 1140.1 647.15 1135.35 652.05 1130.35 656.6 1125.1 660.75 1119.6 664.55 1113.85 668 1107.85 671.1 1101.6 673.8 1095.1 676.15 1088.35 678.15 1081.35 679.8 1074.05 681.05 1066.5 681.95 1058.7 682.5 1050.65 682.7 1039.3 682.3 1033.8 681.8 1028.45 681.15 1023.2 680.3 1018.1 679.25 1013.15 678 1008.3 676.55 1003.6 674.95 999 673.15 994.55 671.15 990.2 668.95 986 666.6 981.9 664.05 977.95 661.3 974.75 658.85 974.25 659 970.95 668.55 967.2 678.7 963.25 688.75 959.1 698.65 954.75 708.45 950.2 718.15 945.45 727.7 940.5 737.15 935.35 746.45 930.05 755.65 924.55 764.7 918.85 773.6 913 782.4 906.95 791.05 900.75 799.55 894.35 807.9 887.8 816.1 881.1 824.15 874.2 832.05 867.15 839.8 859.95 847.4 852.6 854.85 845.1 862.15 837.45 869.3 829.65 876.3 821.7 883.1 813.6 889.75 805.4 896.25 797.05 902.55 788.55 908.7 779.95 914.65 771.2 920.45 762.35 926.05 753.4 931.45 744.3 936.7 735.1 941.75 725.8 946.6 716.4 951.25 706.9 955.7 697.3 959.95 687.6 964 677.8 967.85 667.9 971.5 657.9 974.95 647.8 978.2 637.65 981.25 627.4 984.05 617.05 986.65 606.65 989.05 596.15 991.2 585.6 993.15 575 994.85 564.3 996.35 553.55 997.6 542.75 998.65 531.9 999.45 521 1000 510.05 1000.35 499.05 1000.45 488 1000.3 476.9 999.9 465.75 999.25 454.6 998.35 443.4 997.2 430.6 995.6 417.9 993.65 405.35 991.4 392.9 988.85 380.6 986 368.4 982.85 356.35 979.4 344.45 975.7 332.65 971.7 321 967.4 309.5 962.85 298.15 958 286.95 952.9 275.95 947.55 265.1 941.95 254.4 936.1 243.85 930 233.5 923.65 223.3 917.05 213.3 910.2 203.5 903.15 193.85 895.85 184.4 888.35 175.15 880.65 166.1 872.7 157.25 864.55 148.6 856.2 140.15 847.65 131.9 838.9 123.9 829.95 116.1 820.85 108.5 811.55 101.15 802.05 94 792.4 87.1 782.6 80.45 772.6 74 762.45 67.8 752.15 61.85 741.7 56.15 731.1 50.7 720.35 45.5 709.45 40.55 698.45 35.9 687.3 31.5 676 27.35 664.6 23.5 653.1 19.9 641.45 16.6 629.7 13.6 617.85 10.85 605.9 8.4 593.85 6.25 581.7 4.4 569.5 2.85 557.2 1.6 544.8 0.65 532.35 0 519.85 -0.3 507.25 -0.3 494.6 0 481.9 0.65 469.15 1.6 456.35 2.9 443.5 4.5 430.7 6.45 418 8.7 405.45 11.25 393 14.1 380.7 17.25 368.5 20.7 356.45 24.4 344.55 28.4 332.75 32.7 321.1 37.25 309.6 42.1 298.25 47.2 287.05 52.55 276.05 58.15 265.2 64 254.5 70.1 243.95 76.45 233.6 83.05 223.4 89.9 213.4 96.95 203.6 104.25 193.95 111.75 184.5 119.45 175.25 127.4 166.2 135.55 157.35 143.9 148.7 152.45 140.25 161.2 132 170.15 124 179.25 116.2 188.55 108.6 198.05 101.25 207.7 94.1 217.5 87.2 227.5 80.55 237.65 74.1 247.95 67.9 258.4 61.95 269 56.25 279.75 50.8 290.65 45.6 301.65 40.65 312.8 36 324.1 31.6 335.5 27.45 347 23.6 358.65 20 370.4 16.7 382.25 13.7 394.2 10.95 406.25 8.5 418.4 6.35 430.6 4.5 442.9 2.95 455.3 1.7 467.75 0.75 480.25 0.1 492.85 -0.2 505.45 -0.2 M653.8 142.2 L653.4 142.35 642.65 142.45 631.8 142.85 620.95 143.5 610.05 144.45 599.15 145.65 588.2 147.1 577.25 148.85 566.3 150.85 555.35 153.1 544.45 155.6 533.55 158.35 522.7 161.35 511.9 164.6 501.15 168.1 490.45 171.85 479.8 175.8 469.25 180 458.75 184.4 448.35 189.05 438.05 193.9 427.85 198.95 417.75 204.25 407.8 209.75 397.95 215.45 388.25 221.35 378.7 227.45 369.3 233.75 360.05 240.2 350.95 246.85 342.05 253.7 333.35 260.7 324.8 267.9 316.45 275.25 308.3 282.8 300.4 290.5 292.7 298.35 285.25 306.35 278 314.55 267.65 328.95 257.65 344.1 248 359.95 238.8 376.4 230.05 393.4 221.8 410.95 214.05 428.95 210.4 438.1 203.55 456.7 197.35 475.65 191.8 494.9 186.95 514.4 182.85 534.1 181.1 544 179.55 553.95 178.2 563.9 177.05 573.9 176.15 583.9 175.45 593.9 175 603.9 174.75 613.9 174.75 623.85 175 633.8 175.5 643.7 176.25 653.6 177.25 663.45 178.5 673.25 180 683 181.8 692.7 183.85 702.35 186.2 711.9 188.8 721.4 191.7 730.8 194.9 740.1 198.4 749.35 202.2 758.5 206.3 767.5 210.7 776.4 215.45 785.2 220.5 793.85 225.9 802.4 231.6 810.8 237.65 819.05 244.05 827.15 250.8 835.1 257.9 842.9 265.35 850.5 273.15 857.95 281.35 865.2 289.9 872.25 298.8 879.15 308.1 885.8 317.05 890.4 326.15 894.8 335.35 899 344.7 903 354.15 906.8 363.7 910.4 373.35 913.75 383.15 916.9 393.05 919.85 403.05 922.55 413.15 925.05 423.35 927.3 433.65 929.35 444.05 931.15 454.5 932.7 465.05 934.05 475.25 935.1 485.45 935.9 495.6 936.5 505.7 936.85 515.75 936.95 525.8 936.85 535.8 936.5 545.75 935.95 555.65 935.2 565.5 934.2 575.3 933 585.05 931.6 594.7 929.95 604.3 928.1 613.85 926.05 623.3 923.8 632.7 921.35 642 918.7 651.25 915.85 660.4 912.8 669.5 909.55 678.5 906.1 687.4 902.5 696.2 898.7 704.9 894.7 713.55 890.55 722.1 886.2 730.55 881.65 738.85 876.95 747.05 872.05 755.15 867 763.15 861.8 771.05 856.4 778.8 850.85 786.45 845.15 793.95 839.3 801.35 833.25 808.6 827.05 815.75 820.7 822.75 814.2 829.6 807.55 836.3 800.75 842.85 793.8 849.25 786.7 855.55 779.5 861.7 772.15 867.65 764.65 873.45 757 879.1 749.25 884.6 741.35 889.95 733.35 895.1 725.2 900.1 716.95 904.9 708.55 909.55 700.05 914 691.4 918.3 682.65 922.4 673.8 926.3 664.85 930 655.8 933.55 646.6 936.9 637.3 940.05 627.9 942.9 618.65 942.85 618.3 940.15 612.65 937.5 606.6 935.05 600.3 932.75 593.75 930.65 586.95 928.75 579.9 927 572.65 925.45 565.15 924.1 557.4 922.9 549.4 921.9 541.15 921.1 532.7 920 515.05 919.65 496.4 919.75 486.35 920.05 476.6 920.55 467.1 921.25 457.9 922.15 448.95 923.25 440.3 924.55 431.95 926.05 423.85 927.75 416.05 929.6 408.5 931.65 401.25 933.9 394.3 936.35 387.6 939 381.2 941.85 375.05 944.75 369.5 944.8 369.15 940.1 353.7 934.75 338.15 928.85 322.85 922.4 307.8 915.4 293.05 907.9 278.55 899.9 264.35 891.35 250.45 884.6 242 877.6 233.85 870.35 226.1 862.85 218.7 855.1 211.7 847.15 205.05 839 198.75 830.65 192.8 822.1 187.2 813.35 181.95 804.4 177.05 795.3 172.5 786 168.25 776.55 164.35 766.95 160.8 757.2 157.55 747.35 154.6 737.35 152 727.25 149.7 717.05 147.7 706.7 146.05 696.3 144.7 685.8 143.65 675.2 142.9 664.55 142.4 653.8 142.2 M520.55 44.75 L520.6 44.95 509.35 44.95 498.15 45.25 487 45.8 475.9 46.65 464.85 47.75 453.9 49.15 443 50.8 432.2 52.7 421.45 54.9 410.8 57.35 400.25 60.05 389.8 63 379.45 66.2 369.2 69.65 359.05 73.35 349 77.3 339.05 81.45 329.2 85.85 319.5 90.5 309.9 95.35 300.45 100.45 291.1 105.75 281.9 111.25 272.85 117 263.95 122.95 255.2 129.1 246.6 135.45 238.15 142 229.85 148.75 221.7 155.7 213.75 162.85 205.95 170.2 198.35 177.75 190.9 185.45 183.65 193.35 176.55 201.4 169.65 209.65 162.95 218.05 156.45 226.65 150.15 235.4 144.05 244.3 138.15 253.35 132.5 262.6 127.05 272 121.8 281.55 116.8 291.25 112.05 301.1 107.5 311.05 103.2 321.15 99.15 331.4 95.35 341.75 91.8 352.25 88.5 362.9 85.45 373.65 82.65 384.5 80.1 395.5 77.85 406.6 75.85 417.8 74.1 429.1 72.65 440.5 71.1 456.75 70.15 472.95 69.75 489.05 69.95 505.05 70.7 520.95 72.05 536.7 73.95 552.3 76.35 567.75 79.3 583.05 82.8 598.2 86.8 613.15 91.3 627.9 96.3 642.45 101.8 656.8 107.75 670.9 113.7 683.75 113.45 671.75 113.45 658.55 113.8 645.3 114.45 632 115.45 618.65 116.75 605.3 118.4 591.95 120.35 578.55 122.65 565.15 125.25 551.8 128.2 538.45 131.45 525.15 135 511.85 138.9 498.6 143.1 485.4 147.6 472.3 152.45 459.25 157.6 446.3 163.05 433.4 168.8 420.6 174.85 407.95 181.2 395.4 187.85 382.95 194.85 370.65 202.1 358.5 209.65 346.5 217.5 334.65 225.65 322.95 234.1 311.45 242.85 300.15 251.9 289 261.25 278.05 270.9 267.35 280.8 256.85 291 246.6 301.5 236.55 312.3 226.75 323.35 217.2 334.7 207.95 346.35 198.95 358.25 190.25 370.45 181.8 382.9 173.65 395.65 165.8 408.65 158.3 421.95 151.1 435.5 144.25 449.35 137.75 463.45 131.6 477.8 125.8 492.45 120.35 507.35 115.3 522.5 110.6 537.9 106.3 553.6 102.4 569.55 98.9 585.75 95.85 602.2 93.2 618.9 91 635.85 89.25 653.05 87.95 670.5 87.1 688.2 86.75 704.95 86.85 697.95 83.55 681.45 76.55 664.6 70.2 656.05 67.3 638.7 61.95 629.9 59.55 612.05 55.25 593.9 51.65 584.7 50.1 566.15 47.6 554.7 46.45 543.3 45.6 531.9 45.05 520.55 44.75 M2097.4 316.4 L2097.4 316.35 2209.3 316.35 2224.85 316.55 2238.45 317.1 2250.15 318.05 2259.85 319.4 2264.3 320.35 2268.7 321.6 2273.1 323.15 2277.55 325.05 2282 327.25 2286.45 329.8 2290.9 332.65 2295.4 335.85 2299.8 339.35 2303.9 343.15 2307.8 347.25 2311.45 351.65 2314.85 356.35 2318 361.35 2320.9 366.65 2323.55 372.3 2325.95 378.15 2328 384.2 2329.75 390.4 2331.2 396.8 2332.3 403.4 2333.1 410.15 2333.55 417.05 2333.7 424.15 2333.5 432.45 2332.9 440.45 2331.9 448.1 2330.5 455.45 2328.7 462.5 2326.5 469.25 2323.95 475.65 2320.95 481.75 2317.65 487.45 2313.9 492.95 2309.65 498.2 2305.15 502.95 2300.2 507.5 2294.75 511.8 2289 515.7 2283.4 518.95 2283.2 519.5 2348.45 674.7 2348.55 675.4 2348.3 676.05 2347.75 676.55 2347.05 676.7 2263.75 676.7 2263.3 676.65 2262.6 676.15 2214.7 534.65 2214.25 534.35 2175.8 534.35 2175.4 534.75 2175.4 675.3 2175.3 675.85 2175 676.3 2174.55 676.6 2174 676.7 2097.4 676.7 2096.85 676.6 2096.4 676.3 2096.1 675.85 2096 675.3 2096 317.8 2096.1 317.25 2096.4 316.8 2096.85 316.5 2097.4 316.4 M1847.9 316.4 L1847.9 316.65 2064.3 316.65 2064.85 316.75 2065.3 317.05 2065.6 317.5 2065.7 318.05 2065.7 377.25 2065.6 377.8 2065.3 378.25 2064.85 378.55 2064.3 378.65 1926.4 378.65 1926 379.05 1926 461.45 1926.4 461.85 2033.2 461.85 2033.75 461.95 2034.2 462.25 2034.5 462.7 2034.6 463.25 2034.6 522.45 2034.5 523 2034.2 523.45 2033.75 523.75 2033.2 523.85 1926.4 523.85 1926 524.25 1926 611.65 1926.4 612.05 2064.3 612.05 2064.85 612.15 2065.3 612.45 2065.6 612.9 2065.7 613.45 2065.7 675.3 2065.6 675.85 2065.3 676.3 2064.85 676.6 2064.3 676.7 1847.9 676.7 1847.35 676.6 1846.9 676.3 1846.6 675.85 1846.5 675.3 1846.5 317.8 1846.6 317.25 1846.9 316.8 1847.35 316.5 1847.9 316.4 M1739.15 316.4 L1815.75 316.4 1816.3 316.5 1816.75 316.8 1817.05 317.25 1817.15 317.8 1817.15 675.3 1817.05 675.85 1816.75 676.3 1816.3 676.6 1815.75 676.7 1739.15 676.7 1738.6 676.6 1738.15 676.3 1737.85 675.85 1737.75 675.3 1737.75 317.8 1737.85 317.25 1738.15 316.8 1738.6 316.5 1739.15 316.4 M1485.2 316.4 L1485.05 316.4 1706.95 316.4 1707.5 316.5 1707.95 316.8 1708.25 317.25 1708.35 317.8 1708.35 382.8 1708.25 383.35 1707.95 383.8 1707.5 384.1 1706.95 384.2 1635.25 384.2 1634.85 384.6 1634.85 675.2 1634.75 675.75 1634.45 676.2 1634 676.5 1633.45 676.6 1556.85 676.6 1556.3 676.5 1555.85 676.2 1555.55 675.75 1555.45 675.2 1555.45 384.6 1555.05 384.2 1485.2 384.2 1484.65 384.1 1484.2 383.8 1483.9 383.35 1483.8 382.8 1483.8 317.8 1483.9 317.25 1484.2 316.8 1484.65 316.5 1485.2 316.4 M1213.2 316.4 L1213.2 316.35 1298.95 316.35 1299.4 316.4 1300.1 316.85 1392.1 539 1392.15 317.8 1392.25 317.25 1392.55 316.8 1393 316.5 1393.55 316.4 1452.2 316.4 1452.75 316.5 1453.2 316.8 1453.5 317.25 1453.6 317.8 1453.6 675.3 1453.5 675.85 1453.2 676.3 1452.75 676.6 1452.2 676.7 1383.6 676.7 1383.15 676.65 1382.45 676.2 1273.3 417.15 1273.25 675.3 1273.15 675.85 1272.85 676.3 1272.4 676.6 1271.85 676.7 1213.2 676.7 1212.65 676.6 1212.2 676.3 1211.9 675.85 1211.8 675.3 1211.8 317.8 1211.9 317.25 1212.2 316.8 1212.65 316.5 1213.2 316.4 M656.15 316.4 L656.05 316.35 767.95 316.35 783.5 316.55 797.1 317.1 808.8 318.05 818.55 319.4 823 320.35 827.4 321.6 831.8 323.15 836.25 325.05 840.7 327.25 845.15 329.8 849.6 332.65 854.1 335.85 858.5 339.35 862.6 343.15 866.5 347.25 870.15 351.65 873.55 356.35 876.7 361.35 879.6 366.65 882.25 372.3 884.65 378.15 886.7 384.2 888.45 390.4 889.9 396.8 891 403.4 891.8 410.15 892.25 417.05 892.4 424.15 892.2 432.45 891.6 440.45 890.6 448.1 889.2 455.45 887.4 462.5 885.2 469.25 882.7 475.55 879.7 481.75 876.4 487.45 872.65 492.95 868.4 498.2 863.85 503.05 858.95 507.5 853.5 511.8 847.75 515.7 842.15 518.95 841.95 519.5 907.2 674.7 907.3 675.4 907.05 676.05 906.5 676.55 905.8 676.7 822.5 676.7 822.05 676.65 821.35 676.15 773.45 534.65 773 534.35 734.55 534.35 734.15 534.75 734.15 675.3 734.05 675.85 733.75 676.3 733.3 676.6 732.75 676.7 656.15 676.7 655.6 676.6 655.15 676.3 654.85 675.85 654.75 675.3 654.75 317.8 654.85 317.25 655.15 316.8 655.6 316.5 656.15 316.4 M412.15 316.4 L412.1 316.6 623.2 316.6 623.75 316.7 624.2 317 624.5 317.45 624.6 318 624.6 377.2 624.5 377.75 624.2 378.2 623.75 378.5 623.2 378.6 490.55 378.6 490.15 379 490.15 471.95 490.55 472.35 592.35 472.35 592.9 472.45 593.35 472.75 593.65 473.2 593.75 473.75 593.75 532.95 593.65 533.5 593.35 533.95 592.9 534.25 592.35 534.35 490.55 534.35 490.15 534.75 490.15 675.3 490.05 675.85 489.75 676.3 489.3 676.6 488.75 676.7 412.15 676.7 411.6 676.6 411.15 676.3 410.85 675.85 410.75 675.3 410.75 317.8 410.85 317.25 411.15 316.8 411.6 316.5 412.15 316.4 M1050.55 375.65 L1050.75 375.7 1044.95 376.05 1042.05 376.55 1039.35 377.2 1036.75 378.05 1034.25 379.1 1031.85 380.3 1029.55 381.7 1027.4 383.3 1025.3 385.1 1023.35 387.1 1019.75 391.55 1016.5 396.85 1015.05 399.75 1013.7 402.95 1012.4 406.55 1010.1 414.9 1008.15 424.7 1006.55 436.05 1005.3 448.9 1004.4 463.25 1003.85 479.1 1003.65 496.5 1003.8 513.55 1004.3 529.2 1005.15 543.4 1006.35 556.15 1007.9 567.45 1009.8 577.3 1010.9 581.7 1013.35 589.35 1016.15 595.7 1019.35 601.15 1021.1 603.6 1023 605.9 1024.95 607.95 1027.05 609.8 1029.25 611.45 1031.55 612.9 1033.95 614.15 1036.45 615.2 1039.05 616.1 1041.75 616.8 1044.55 617.3 1047.4 617.6 1050.45 617.7 1056.35 617.35 1059.25 616.85 1061.95 616.2 1064.55 615.35 1067.05 614.35 1069.45 613.15 1071.75 611.75 1073.9 610.2 1076 608.4 1077.9 606.5 1081.6 602 1084.9 596.75 1086.4 593.85 1087.8 590.65 1089.1 587.05 1091.45 578.75 1093.4 568.9 1095 557.5 1096.25 544.55 1097.15 530.05 1097.7 514.05 1097.9 496.5 1097.7 479.05 1097.15 463.15 1096.25 448.75 1095 435.9 1093.4 424.55 1092.45 419.45 1090.35 410.4 1087.9 402.9 1086.55 399.7 1085.1 396.8 1081.85 391.55 1080.1 389.2 1078.15 387 1076.15 385.05 1074.05 383.25 1071.85 381.65 1069.55 380.25 1067.15 379.05 1064.65 378 1062.1 377.15 1059.35 376.5 1056.6 376.05 1053.65 375.75 1050.55 375.65 M2206.9 375.1 L2206.9 374.95 2175.85 374.95 2175.45 375.35 2175.45 475.15 2175.85 475.55 2210 475.55 2215.65 475.35 2220.9 474.75 2225.7 473.75 2230.25 472.35 2234.4 470.55 2238.2 468.35 2241.65 465.75 2244.7 462.75 2247.4 459.3 2249.75 455.45 2251.75 451.2 2253.4 446.55 2254.65 441.5 2255.55 436.05 2256.1 430.25 2256.3 423.95 2256.2 419.6 2255.9 415.45 2255.35 411.5 2254.6 407.75 2253.6 404.1 2252.45 400.75 2251.05 397.6 2249.5 394.7 2247.75 391.95 2244.1 387.15 2242.1 385.05 2240.1 383.25 2238 381.65 2235.85 380.3 2233.65 379.15 2231.25 378.2 2228.65 377.4 2222.45 376.1 2215.2 375.35 2206.9 375.1 M765.65 375.1 L765.7 374.95 734.65 374.95 734.25 375.35 734.25 475.15 734.65 475.55 768.8 475.55 774.45 475.35 779.7 474.75 784.5 473.75 789.05 472.35 793.2 470.55 797 468.35 800.45 465.75 803.5 462.75 806.2 459.3 808.55 455.45 810.55 451.2 812.2 446.55 813.45 441.5 814.35 436.05 814.9 430.25 815.1 423.95 815 419.6 814.7 415.45 814.15 411.5 813.4 407.75 812.4 404.1 811.25 400.75 809.85 397.6 808.3 394.7 806.55 391.95 802.85 387.15 800.85 385.05 798.85 383.25 796.75 381.65 794.6 380.3 792.4 379.15 790 378.2 787.4 377.4 781.2 376.1 773.95 375.35 765.65 375.1"/>
  </g>
</svg>