<?xml version="1.0" encoding="utf-8"?>
<!-- Generator: Adobe Illustrator 16.0.0, SVG Export Plug-In . SVG Version: 6.00 Build 0)  -->
<!DOCTYPE svg PUBLIC "-//W3C//DTD SVG 1.1//EN" "http://www.w3.org/Graphics/SVG/1.1/DTD/svg11.dtd">
<svg version="1.1" id="Layer_2" xmlns="http://www.w3.org/2000/svg" xmlns:xlink="http://www.w3.org/1999/xlink" x="0px" y="0px"
	 width="342px" height="342px" viewBox="0 0 342 342" enable-background="new 0 0 342 342" xml:space="preserve">
<circle cx="253" cy="89" r="89"/>
<path opacity="0.66" d="M243,216c-64.618,0-117-52.382-117-117c0-2.031,0.052-4.051,0.154-6.057C101.409,108.751,85,136.458,85,168
	c0,49.153,39.847,89,89,89c31.542,0,59.249-16.409,75.057-41.154C247.051,215.948,245.031,216,243,216z"/>
<path opacity="0.33" d="M158,301c-64.618,0-117-52.382-117-117c0-2.031,0.052-4.051,0.154-6.057C16.409,193.751,0,221.458,0,253
	c0,49.153,39.847,89,89,89c31.542,0,59.249-16.409,75.057-41.154C162.051,300.948,160.031,301,158,301z"/>
<g>
</g>
<g>
</g>
<g>
</g>
<g>
</g>
<g>
</g>
<g>
</g>
<g>
</g>
<g>
</g>
<g>
</g>
<g>
</g>
<g>
</g>
<g>
</g>
<g>
</g>
<g>
</g>
<g>
</g>
</svg>
