<?xml version="1.0" encoding="utf-8"?>
<!-- Generator: Adobe Illustrator 16.0.0, SVG Export Plug-In . SVG Version: 6.00 Build 0)  -->
<!DOCTYPE svg PUBLIC "-//W3C//DTD SVG 1.1//EN" "http://www.w3.org/Graphics/SVG/1.1/DTD/svg11.dtd">
<svg version="1.1" id="Layer_2" xmlns="http://www.w3.org/2000/svg" xmlns:xlink="http://www.w3.org/1999/xlink" x="0px" y="0px"
	 width="357.334px" height="348.343px" viewBox="0 0 357.334 348.343" enable-background="new 0 0 357.334 348.343"
	 xml:space="preserve">
<g>
	<path d="M138.667,285.92C92.811,269.504,60,225.672,60,174.171s32.811-95.333,78.667-111.749V0
		c-10.073,2.309-19.946,5.501-29.563,9.569C87.821,18.571,68.72,31.446,52.331,47.835c-16.389,16.389-29.263,35.49-38.265,56.772
		C4.732,126.673,0,150.078,0,174.171s4.732,47.499,14.065,69.564c9.002,21.282,21.876,40.384,38.265,56.772
		c16.389,16.389,35.49,29.264,56.773,38.266c9.618,4.068,19.491,7.26,29.563,9.569V285.92z"/>
	<path d="M343.269,104.608c-9.002-21.283-21.876-40.384-38.265-56.773c-16.389-16.389-35.49-29.264-56.773-38.266
		C238.613,5.501,228.74,2.309,218.667,0v62.423c45.856,16.416,78.667,60.247,78.667,111.749s-32.811,95.333-78.667,111.749v62.423
		c10.073-2.309,19.946-5.501,29.564-9.569c21.283-9.002,40.384-21.876,56.773-38.266c16.389-16.389,29.263-35.49,38.265-56.773
		c9.333-22.065,14.065-45.47,14.065-69.563S352.602,126.673,343.269,104.608z"/>
</g>
<g>
</g>
<g>
</g>
<g>
</g>
<g>
</g>
<g>
</g>
<g>
</g>
<g>
</g>
<g>
</g>
<g>
</g>
<g>
</g>
<g>
</g>
<g>
</g>
<g>
</g>
<g>
</g>
<g>
</g>
</svg>
