<?xml version="1.0" encoding="utf-8"?>
<!-- Generator: Adobe Illustrator 16.0.0, SVG Export Plug-In . SVG Version: 6.00 Build 0)  -->
<!DOCTYPE svg PUBLIC "-//W3C//DTD SVG 1.1//EN" "http://www.w3.org/Graphics/SVG/1.1/DTD/svg11.dtd">
<svg version="1.1" id="Layer_2" xmlns="http://www.w3.org/2000/svg" xmlns:xlink="http://www.w3.org/1999/xlink" x="0px" y="0px"
	 width="359.334px" height="481.667px" viewBox="0 0 359.334 481.667" enable-background="new 0 0 359.334 481.667"
	 xml:space="preserve">
<g opacity="0.85">
	<path d="M309.334,279h50c0-75.543-46.627-140.187-112.667-166.747v55.677c8.875,5.375,17.164,11.856,24.688,19.381
		C295.846,211.802,309.334,244.365,309.334,279z"/>
	<path d="M87.979,187.312c7.524-7.525,15.814-14.006,24.688-19.381v-55.677C46.627,138.813,0,203.457,0,279h50
		C50,244.365,63.488,211.802,87.979,187.312z"/>
</g>
<polygon points="204.667,238.305 204.667,0 154.667,0 154.667,238.305 39.667,390 142.334,352.667 179.667,481.667 217,352.667 
	319.667,390 "/>
<g>
</g>
<g>
</g>
<g>
</g>
<g>
</g>
<g>
</g>
<g>
</g>
<g>
</g>
<g>
</g>
<g>
</g>
<g>
</g>
<g>
</g>
<g>
</g>
<g>
</g>
<g>
</g>
<g>
</g>
</svg>
