<?xml version="1.0" encoding="utf-8"?>
<!-- Generator: Adobe Illustrator 16.0.0, SVG Export Plug-In . SVG Version: 6.00 Build 0)  -->
<!DOCTYPE svg PUBLIC "-//W3C//DTD SVG 1.1//EN" "http://www.w3.org/Graphics/SVG/1.1/DTD/svg11.dtd">
<svg version="1.1" id="Layer_2" xmlns="http://www.w3.org/2000/svg" xmlns:xlink="http://www.w3.org/1999/xlink" x="0px" y="0px"
	 width="449.974px" height="245.645px" viewBox="0 0 449.974 245.645" enable-background="new 0 0 449.974 245.645"
	 xml:space="preserve">
<g>
	<path d="M65,123.822c-0.003-0.333-0.013-0.666-0.013-1c0-30.405,12.435-57.903,32.491-77.697L53.691,0
		C20.668,30.566-0.013,74.276-0.013,122.822c0,0.334,0.011,0.666,0.013,1h0c0.283,48.145,20.895,91.466,53.691,121.822
		l43.787-45.125C77.643,180.943,65.27,153.829,65,123.822z"/>
</g>
<g>
	<path d="M384.974,121.822c0.003,0.333,0.013,0.666,0.013,1c0,30.405-12.435,57.903-32.491,77.697l43.787,45.125
		c33.023-30.566,53.704-74.276,53.704-122.822c0-0.334-0.011-0.666-0.013-1h0C449.69,73.677,429.078,30.356,396.282,0
		l-43.787,45.125C372.331,64.702,384.704,91.815,384.974,121.822z"/>
</g>
<circle cx="224.987" cy="122.822" r="50"/>
<g>
</g>
<g>
</g>
<g>
</g>
<g>
</g>
<g>
</g>
<g>
</g>
<g>
</g>
<g>
</g>
<g>
</g>
<g>
</g>
<g>
</g>
<g>
</g>
<g>
</g>
<g>
</g>
<g>
</g>
</svg>
