<?xml version="1.0" encoding="utf-8"?>
<!-- Generator: Adobe Illustrator 16.0.0, SVG Export Plug-In . SVG Version: 6.00 Build 0)  -->
<!DOCTYPE svg PUBLIC "-//W3C//DTD SVG 1.1//EN" "http://www.w3.org/Graphics/SVG/1.1/DTD/svg11.dtd">
<svg version="1.1" id="Layer_2" xmlns="http://www.w3.org/2000/svg" xmlns:xlink="http://www.w3.org/1999/xlink" x="0px" y="0px"
	 width="320.523px" height="429.068px" viewBox="0 0 320.523 429.068" enable-background="new 0 0 320.523 429.068"
	 xml:space="preserve">
<g>
	<path d="M153.841,429.068l8.373-131.26L93.701,165.794c-3.885-7.486-4.708-16.189-2.294-24.271L163.341,0l-5.89,133.524
		l67.903,130.838c3.519,6.78,4.537,14.583,2.875,22.039L153.841,429.068z"/>
</g>
<g>
	<path d="M43.638,406.068l5.728-89.788L2.499,225.977c-2.658-5.121-3.22-11.075-1.569-16.603l49.207-96.809l-4.029,91.337
		l46.449,89.499c2.406,4.638,3.103,9.975,1.966,15.076L43.638,406.068z"/>
</g>
<g>
	<path d="M269.638,323.068l5.728-89.788l-46.866-90.303c-2.658-5.121-3.22-11.075-1.569-16.603l49.207-96.809l-4.029,91.337
		l46.449,89.499c2.406,4.638,3.103,9.975,1.966,15.076L269.638,323.068z"/>
</g>
<g>
</g>
<g>
</g>
<g>
</g>
<g>
</g>
<g>
</g>
<g>
</g>
<g>
</g>
<g>
</g>
<g>
</g>
<g>
</g>
<g>
</g>
<g>
</g>
<g>
</g>
<g>
</g>
<g>
</g>
</svg>
