<?xml version="1.0" encoding="utf-8"?>
<!-- Generator: Adobe Illustrator 16.0.0, SVG Export Plug-In . SVG Version: 6.00 Build 0)  -->
<!DOCTYPE svg PUBLIC "-//W3C//DTD SVG 1.1//EN" "http://www.w3.org/Graphics/SVG/1.1/DTD/svg11.dtd">
<svg version="1.1" id="Layer_2" xmlns="http://www.w3.org/2000/svg" xmlns:xlink="http://www.w3.org/1999/xlink" x="0px" y="0px"
	 width="465.587px" height="232.892px" viewBox="0 0 465.587 232.892" enable-background="new 0 0 465.587 232.892"
	 xml:space="preserve">
<circle cx="232.695" cy="232.892" r="68"/>
<g opacity="0.9">
	<path d="M232.695,128.388c57.624,0,104.504,46.88,104.504,104.504s-46.88,104.504-104.504,104.504s-104.503-46.88-104.503-104.504
		S175.072,128.388,232.695,128.388 M232.695,78.388c-85.33,0-154.503,69.174-154.503,154.504s69.174,154.504,154.503,154.504
		s154.504-69.174,154.504-154.504S318.025,78.388,232.695,78.388L232.695,78.388z"/>
</g>
<g opacity="0.8">
	<path d="M232.695,50c48.852,0,94.78,19.024,129.324,53.568s53.568,80.472,53.568,129.324s-19.024,94.78-53.568,129.324
		c-34.544,34.544-80.472,53.568-129.324,53.568c-48.852,0-94.78-19.024-129.323-53.567c-34.544-34.544-53.568-80.472-53.568-129.324
		c0-48.853,19.024-94.78,53.568-129.324S183.844,50,232.695,50 M232.695,0C104.074,0-0.196,104.27-0.196,232.892
		s104.27,232.892,232.891,232.892c128.622,0,232.892-104.269,232.892-232.892S361.317,0,232.695,0L232.695,0z"/>
</g>
<g>
</g>
<g>
</g>
<g>
</g>
<g>
</g>
<g>
</g>
<g>
</g>
<g>
</g>
<g>
</g>
<g>
</g>
<g>
</g>
<g>
</g>
<g>
</g>
<g>
</g>
<g>
</g>
<g>
</g>
</svg>
