<?xml version="1.0" encoding="utf-8"?>
<!-- Generator: Adobe Illustrator 16.0.0, SVG Export Plug-In . SVG Version: 6.00 Build 0)  -->
<!DOCTYPE svg PUBLIC "-//W3C//DTD SVG 1.1//EN" "http://www.w3.org/Graphics/SVG/1.1/DTD/svg11.dtd">
<svg version="1.1" id="Layer_2" xmlns="http://www.w3.org/2000/svg" xmlns:xlink="http://www.w3.org/1999/xlink" x="0px" y="0px"
	 width="514px" height="514px" viewBox="0 0 514 514" enable-background="new 0 0 514 514" xml:space="preserve">
<g>
	<path d="M257,131c66.274,0,120,53.726,120,120s-53.726,120-120,120s-120-53.726-120-120S190.726,131,257,131 M257,71
		c-24.273,0-47.853,4.768-70.083,14.17c-21.441,9.069-40.685,22.039-57.197,38.551c-16.511,16.512-29.482,35.755-38.551,57.197
		C81.768,203.147,77,226.727,77,251s4.768,47.853,14.17,70.083c9.069,21.441,22.04,40.685,38.551,57.197
		c16.512,16.512,35.755,29.482,57.197,38.551C209.147,426.232,232.727,431,257,431s47.853-4.768,70.083-14.17
		c21.441-9.069,40.685-22.039,57.197-38.551c16.511-16.512,29.482-35.755,38.551-57.197C432.232,298.853,437,275.273,437,251
		s-4.768-47.853-14.17-70.083c-9.069-21.441-22.04-40.685-38.551-57.197c-16.512-16.512-35.755-29.482-57.197-38.551
		C304.853,75.768,281.273,71,257,71L257,71z"/>
</g>
<line fill="none" stroke="#000000" stroke-width="70" stroke-miterlimit="10" x1="131" y1="251" x2="0" y2="251"/>
<line fill="none" stroke="#000000" stroke-width="70" stroke-miterlimit="10" x1="256" y1="383" x2="256" y2="514"/>
<line fill="none" stroke="#000000" stroke-width="70" stroke-miterlimit="10" x1="383" y1="251" x2="514" y2="251"/>
<line fill="none" stroke="#000000" stroke-width="70" stroke-miterlimit="10" x1="256" y1="131" x2="256" y2="0"/>
<g>
</g>
<g>
</g>
<g>
</g>
<g>
</g>
<g>
</g>
<g>
</g>
<g>
</g>
<g>
</g>
<g>
</g>
<g>
</g>
<g>
</g>
<g>
</g>
<g>
</g>
<g>
</g>
<g>
</g>
</svg>
