<?xml version="1.0" encoding="utf-8"?>
<!-- Generator: Adobe Illustrator 16.0.0, SVG Export Plug-In . SVG Version: 6.00 Build 0)  -->
<!DOCTYPE svg PUBLIC "-//W3C//DTD SVG 1.1//EN" "http://www.w3.org/Graphics/SVG/1.1/DTD/svg11.dtd">
<svg version="1.1" id="Layer_1" xmlns="http://www.w3.org/2000/svg" xmlns:xlink="http://www.w3.org/1999/xlink" x="0px" y="0px"
	 width="931.964px" height="931.967px" viewBox="26.038 16.845 931.964 931.967"
	 enable-background="new 26.038 16.845 931.964 931.967" xml:space="preserve">
<g id="Layer_2">
	<circle fill="#FFFFFF" cx="492" cy="483" r="23"/>
	<path fill="#FFFFFF" d="M492,220.5c-144.975,0-262.5,117.525-262.5,262.5c0,144.975,117.526,262.5,262.499,262.5
		C636.975,745.5,754.5,627.975,754.5,483C754.5,338.025,636.975,220.5,492,220.5z M492,724c-133.1,0-241-107.899-241-241
		c0-133.101,107.899-241,241-241c133.1,0,241,107.899,241,241C733,616.101,625.1,724,492,724z"/>
	<path fill="#FFFFFF" d="M492,351.5c-72.625,0-131.5,58.875-131.5,131.5S419.375,614.5,492,614.5
		c72.625-0.001,131.5-58.875,131.5-131.5S564.625,351.5,492,351.5z M492,606.679c-68.306,0-123.678-55.373-123.678-123.679
		c0-68.306,55.372-123.678,123.678-123.679c68.305,0,123.678,55.373,123.678,123.679C615.678,551.306,560.305,606.679,492,606.679z"
		/>
	<rect x="174" y="474" fill="#FFFFFF" width="120" height="18"/>
	<rect x="689" y="474" fill="#FFFFFF" width="120" height="18"/>
	<rect x="483" y="168" fill="#FFFFFF" width="18" height="120"/>
	<rect x="483" y="679" fill="#FFFFFF" width="18" height="120"/>
</g>
<g id="Layer_4">
	<path fill="#E28541" d="M492.022,16.845L26.038,482.828l465.984,465.983l465.98-465.983L492.022,16.845z M492.022,927.599
		L47.25,482.828l444.77-444.77l444.771,444.77L492.022,927.599z"/>
</g>
</svg>
