<?xml version="1.0" encoding="utf-8"?>
<!-- Generator: Adobe Illustrator 16.0.0, SVG Export Plug-In . SVG Version: 6.00 Build 0)  -->
<!DOCTYPE svg PUBLIC "-//W3C//DTD SVG 1.1//EN" "http://www.w3.org/Graphics/SVG/1.1/DTD/svg11.dtd">
<svg version="1.1" id="Layer_1" xmlns="http://www.w3.org/2000/svg" xmlns:xlink="http://www.w3.org/1999/xlink" x="0px" y="0px"
	 width="444.218px" height="578.998px" viewBox="264.005 172 444.218 578.998" enable-background="new 264.005 172 444.218 578.998"
	 xml:space="preserve">
<g id="Layer_3" display="none">
	<rect display="inline" width="960" height="960"/>
</g>
<g id="Layer_4">
</g>
<g id="Layer_2">
	<path fill="#FFFFFF" d="M443.5,489.26c-4.5-5.5-19.5-18.18-24.88-19.26c-5.39-1.09-28.79-1.17-42.62,0s-43,25.5-45.5,37.25
		c-0.89,4.18-1.71,33.86,0,37.37c2.25,4.63,18.91,23.33,25.38,26c12.37,5.13,36.26,0.02,41.87-1c16.5-3,42.75-19.62,47.75-45.87
		C448.26,509.25,448,494.76,443.5,489.26z M430.73,522.46c-3.711,19.46-23.171,31.78-35.4,34c-4.16,0.76-21.87,4.55-31.04,0.75
		c-4.8-1.99-17.15-15.85-18.82-19.28c-1.26-2.6-0.649-24.608,0-27.71c1.86-8.71,23.48-26.75,33.74-27.608
		c10.25-0.87,27.6-0.812,31.6,0c3.98,0.8,15.101,10.198,18.44,14.27C432.58,500.96,432.78,511.71,430.73,522.46z"/>
	<path fill="#FFFFFF" d="M483.01,172H483c-231.48,17-250.99,189.13-188.16,344.75c-4.14,33.14-23.13,35.49-23.13,67.94
		c0,59.38,93.91,64.868,104.271,75.229c10.35,10.35,10.35,45.57,10.35,53.86s22.84,32.52,42.81,33.979
		c20.53,1.5,44.19,3.24,53.86,3.24h0.01c9.66,0,33.33-1.75,53.86-3.25c19.97-1.46,53.81-25.575,53.81-33.865
		c0-8.278,0-43.582,10.352-53.941c10.358-10.351,96.97-15.901,96.97-75.291c0-49.37-11.75-39.637-21.33-67.887
		C744.5,361.016,713,185,483.01,172z M683.04,574.87c0,55.188-80.49,60.32-90.12,69.95c-9.63,9.62-16.17,42.979-16.17,50.68
		s-24.91,35.68-43.47,37.039C514.21,733.93,492.21,735,483.23,735h-0.012c-8.979,0-30.979-1.07-50.06-2.471
		c-18.561-1.359-35.66-30.109-35.66-37.811s-4.12-40.38-13.75-50c-9.63-9.63-96.9-14.729-96.9-69.92
		c0-30.16,17.65-32.42,21.5-63.221C249.95,366.95,268.08,206.84,483.22,191h0.011C696.98,203.87,726.26,366.84,663.21,511.6
		C672.12,537.85,683.04,528.979,683.04,574.87z"/>
	<path fill="#FFFFFF" d="M525.508,523.75c5,26.25,31.25,42.87,47.75,45.87c5.609,1.02,29.5,6.13,41.87,1
		c6.47-2.67,23.13-21.37,25.38-26c1.71-3.51,0.892-33.19,0-37.37c-2.5-11.75-31.67-36.08-45.5-37.25s-37.229-1.09-42.62,0
		c-5.38,1.08-20.38,13.76-24.88,19.26S522.748,509.25,525.508,523.75z M541.758,496.88c3.34-4.07,14.46-13.47,18.439-14.27
		c4-0.812,21.351-0.87,31.601,0c10.26,0.858,31.88,18.898,33.739,27.608c0.65,3.102,1.261,25.11,0,27.71
		c-1.67,3.432-14.021,17.29-18.819,19.28c-9.17,3.8-26.88,0.01-31.04-0.75c-12.229-2.22-31.688-14.54-35.399-34
		C538.229,511.71,538.428,500.96,541.758,496.88z"/>
	<path fill="#FFFFFF" d="M487.5,559.5c-4.75,0-34,50-34,74c0,12.25,12,21.25,17,21.25s14.583-15.28,17-15.28s12,15.28,17,15.28
		s17-9,17-21.25C521.5,609.5,492.25,559.5,487.5,559.5z M504.12,639.75c-3.26,0-14.37-18.25-16.62-18.25s-13.29,18.25-16.56,18.25
		c-3.271,0-5.66-5.88-5.66-13.89c0-15.682,19.121-48.36,22.22-48.36s22.22,32.68,22.22,48.36
		C509.72,633.87,507.39,639.75,504.12,639.75z"/>
</g>
<g id="Layer_2_copy" display="none">
	<g display="inline">
		<path fill="#AD5233" d="M381.423,154.41L487.5,48.33l109.072,109.075c16.301,5.887,31.139,12.852,44.595,20.762L487.5,24.5
			L340.967,171.033C353.335,164.751,366.793,159.179,381.423,154.41z"/>
		<path fill="#AD5233" d="M717.953,254.953c7.58,13.307,13.652,27.4,18.287,42.123L906.16,467L487.5,885.66L68.84,467
			l164.155-164.159c3.476-13.039,8.043-25.61,13.774-37.61L45.92,466.08L487.5,907.66l441.58-441.58L717.953,254.953z"/>
	</g>
</g>
</svg>
