<?xml version="1.0" encoding="utf-8"?>
<!-- Generator: Adobe Illustrator 16.0.0, SVG Export Plug-In . SVG Version: 6.00 Build 0)  -->
<!DOCTYPE svg PUBLIC "-//W3C//DTD SVG 1.1//EN" "http://www.w3.org/Graphics/SVG/1.1/DTD/svg11.dtd">
<svg version="1.1" id="Layer_1" xmlns="http://www.w3.org/2000/svg" xmlns:xlink="http://www.w3.org/1999/xlink" x="0px" y="0px"
	 width="631.236px" height="534.748px" viewBox="173.264 200 631.236 534.748" enable-background="new 173.264 200 631.236 534.748"
	 xml:space="preserve">
<g id="Layer_3" display="none">
	<rect display="inline" width="959" height="960"/>
</g>
<g id="Layer_2">
	<path fill="#FFFFFF" d="M634.766,200L173.5,450.277L343.234,619L804.5,369L634.766,200z M201.637,455.516L631.48,222.654
		L774.3,364.866L344.457,597.5L201.637,455.516z"/>
	<path fill="#FFFFFF" d="M190.368,504.021l-17.104,9.28l164.5,163.489l461.268-250l-12.908-12.839L341.676,654.391L190.368,504.021z
		"/>
	<path fill="#FFFFFF" d="M190.368,561.979l-17.104,9.279l164.5,163.489l461.268-250l-12.908-12.839L341.675,712.35L190.368,561.979z
		"/>
	<path fill="#FFFFFF" d="M484,330.333c-47,0-86.151,26.403-86.151,67.324c0,40.922,40.817,82.342,109.818,82.342
		c54.481,0,81.666-25.078,81.666-66C589.333,373.079,545,330.333,484,330.333z M506.074,471.647
		c-61.188,0-97.385-36.73-97.385-73.02s34.718-59.701,76.396-59.701c54.093,0,93.406,37.905,93.406,74.192
		C578.493,449.409,554.386,471.647,506.074,471.647z"/>
	<g>
		<path fill="#FFFFFF" d="M488.283,417.184l6.642-3.625c0.906,0.996,1.503,1.653,1.791,1.97c3.011,3.269,4.835,5.781,5.47,7.535
			c1.333,3.575,0.054,6.865-3.841,9.871c-1.465,1.14-5.554,3.54-12.265,7.203c-3.008,1.643-5.198,2.763-6.572,3.358
			c-1.374,0.598-2.852,1.057-4.434,1.379c-6.115,1.339-12.086-0.669-17.912-6.027c-2.666-2.475-5.367-5.218-8.104-8.229
			c-5.618-6.184-9.12-10.335-10.507-12.458c-2.213-3.399-2.322-6.795-0.322-10.19c1.23-2.129,3.533-4.25,6.904-6.361
			c1.646-1.033,4.736-2.789,9.275-5.267c4.288-2.34,7.488-3.747,9.598-4.223c4.77-1.078,9.138-0.075,13.107,3.009
			c1.451,1.139,3.071,2.694,4.861,4.664c0.207,0.227,0.521,0.597,0.946,1.11l-6.558,3.58c-0.831-0.868-1.369-1.438-1.616-1.709
			c-2.979-3.186-5.447-4.802-7.406-4.85c-1.711-0.048-4.586,1.029-8.624,3.233c-5.347,2.918-9.076,5.141-11.188,6.667
			c-1.305,0.949-2.122,1.895-2.453,2.837c-0.33,0.944-0.231,2.05,0.298,3.32c0.583,1.375,2.069,3.376,4.455,6.003
			c8.479,9.331,14.073,14.983,16.785,16.958c1.719,1.298,3.345,1.984,4.875,2.063c1.752,0.095,3.923-0.498,6.511-1.773
			c1.573-0.791,3.236-1.666,4.99-2.624c4.038-2.204,6.899-3.926,8.585-5.167c1.684-1.241,2.627-2.324,2.829-3.247
			c0.274-1.304-0.813-3.302-3.262-5.998C490.342,419.312,489.388,418.309,488.283,417.184z"/>
		<path fill="#FFFFFF" d="M516.748,422.583l-36.113-39.744l24.646-13.453c4.344-2.372,8.188-3.572,11.535-3.603
			c2.924-0.037,5.715,0.811,8.373,2.543c1.569,1.041,3.291,2.592,5.163,4.652c3.087,3.396,4.787,6.162,5.101,8.294
			c0.381,2.299-0.844,4.391-3.673,6.273c5.017-2.365,9.709-1.167,14.079,3.597l9.444,10.395l-6.643,3.625l-8.52-9.375
			c-2.222-2.446-4.428-3.749-6.613-3.911c-2.183-0.062-4.658,0.697-7.432,2.277l-16.876,9.211l14.168,15.592L516.748,422.583z
			 M504.839,398.542l16.208-8.847c3.313-1.809,5.379-3.478,6.197-5.009c0.937-1.764,0.231-3.938-2.113-6.52
			c-3.188-3.51-5.586-5.504-7.188-5.985c-1.983-0.577-4.729,0.091-8.237,2.006l-18.046,9.85L504.839,398.542z"/>
	</g>
</g>
</svg>
