<?xml version="1.0" encoding="utf-8"?>
<!-- Generator: Adobe Illustrator 16.0.0, SVG Export Plug-In . SVG Version: 6.00 Build 0)  -->
<!DOCTYPE svg PUBLIC "-//W3C//DTD SVG 1.1//EN" "http://www.w3.org/Graphics/SVG/1.1/DTD/svg11.dtd">
<svg version="1.1" id="Layer_1" xmlns="http://www.w3.org/2000/svg" xmlns:xlink="http://www.w3.org/1999/xlink" x="0px" y="0px"
	 width="834.386px" height="834.386px" viewBox="69.05 50.079 834.386 834.386"
	 enable-background="new 69.05 50.079 834.386 834.386" xml:space="preserve">
<g id="Layer_3" display="none">
	<rect display="inline" width="959" height="960"/>
</g>
<g id="Layer_2">
	<path fill="#FFFFFF" d="M634.766,200L173.5,450.277L343.234,619L804.5,369L634.766,200z M201.637,455.516L631.48,222.654
		L774.3,364.866L344.457,597.5L201.637,455.516z"/>
	<path fill="#FFFFFF" d="M190.368,504.021l-17.104,9.28l164.5,163.489l461.268-250l-12.908-12.839L341.675,654.391L190.368,504.021z
		"/>
	<path fill="#FFFFFF" d="M190.368,561.979l-17.104,9.279l164.5,163.489l461.268-250l-12.908-12.839L341.675,712.35L190.368,561.979z
		"/>
	<path fill="#FFFFFF" d="M484,330.333c-47,0-86.151,26.403-86.151,67.325c0,40.921,40.817,82.342,109.818,82.342
		c54.481,0,81.666-25.078,81.666-66C589.333,373.079,545,330.333,484,330.333z M506.074,471.646
		c-61.188,0-97.385-36.729-97.385-73.019c0-36.287,34.718-59.701,76.396-59.701c54.093,0,93.406,37.905,93.406,74.193
		C578.493,449.409,554.386,471.647,506.074,471.646z"/>
	<g>
		<path fill="#FFFFFF" d="M488.24,417.151l6.643-3.625c0.906,0.997,1.502,1.654,1.791,1.971c3.01,3.27,4.834,5.78,5.469,7.533
			c1.334,3.576,0.054,6.867-3.84,9.871c-1.465,1.139-5.555,3.54-12.266,7.203c-3.007,1.642-5.197,2.763-6.571,3.357
			c-1.374,0.599-2.852,1.057-4.434,1.379c-6.115,1.34-12.086-0.67-17.912-6.026c-2.666-2.476-5.367-5.219-8.104-8.231
			c-5.617-6.183-9.119-10.334-10.507-12.458c-2.214-3.398-2.321-6.796-0.324-10.19c1.232-2.129,3.534-4.249,6.905-6.361
			c1.646-1.032,4.736-2.788,9.275-5.266c4.288-2.341,7.488-3.748,9.599-4.223c4.77-1.079,9.138-0.075,13.107,3.009
			c1.45,1.139,3.071,2.693,4.862,4.664c0.206,0.227,0.521,0.597,0.945,1.11l-6.558,3.58c-0.83-0.868-1.369-1.438-1.616-1.709
			c-2.979-3.185-5.446-4.802-7.406-4.85c-1.71-0.049-4.585,1.029-8.623,3.233c-5.347,2.919-9.076,5.142-11.188,6.667
			c-1.305,0.95-2.121,1.895-2.453,2.837c-0.33,0.944-0.231,2.05,0.298,3.319c0.583,1.376,2.069,3.377,4.456,6.004
			c8.478,9.33,14.072,14.982,16.784,16.958c1.72,1.297,3.345,1.985,4.875,2.063c1.752,0.096,3.923-0.497,6.511-1.774
			c1.573-0.79,3.236-1.665,4.99-2.622c4.037-2.204,6.899-3.927,8.584-5.167c1.684-1.242,2.627-2.324,2.83-3.248
			c0.274-1.301-0.813-3.3-3.263-5.995C490.301,419.281,489.346,418.276,488.24,417.151z"/>
		<path fill="#FFFFFF" d="M516.705,422.551l-36.113-39.744l24.646-13.453c4.344-2.371,8.188-3.572,11.535-3.604
			c2.924-0.037,5.715,0.812,8.373,2.544c1.569,1.041,3.291,2.591,5.163,4.651c3.087,3.397,4.787,6.163,5.101,8.295
			c0.381,2.299-0.844,4.391-3.674,6.273c5.018-2.364,9.711-1.166,14.08,3.597l9.444,10.395l-6.643,3.625l-8.521-9.376
			c-2.221-2.445-4.426-3.749-6.612-3.91c-2.183-0.063-4.658,0.697-7.431,2.277l-16.877,9.211l14.168,15.592L516.705,422.551z
			 M504.797,398.51l16.207-8.847c3.314-1.809,5.381-3.478,6.197-5.009c0.938-1.765,0.234-3.938-2.111-6.521
			c-3.188-3.51-5.586-5.505-7.188-5.986c-1.982-0.578-4.729,0.091-8.238,2.006l-18.045,9.85L504.797,398.51z"/>
	</g>
</g>
<g id="Layer_4">
	<path fill="#E28541" d="M830.095,393.931l-11.922,6.463l67.585,67.585L487.657,866.08L375.22,753.644l-12.841,6.958
		l123.863,123.863l417.193-417.192L830.095,393.931z M69.05,467.272l68.547,68.547l12.841-6.958l-60.882-60.883L487.657,69.878
		l108.18,108.181l11.915-6.47l-121.51-121.51L69.05,467.272z"/>
</g>
</svg>
