<?xml version="1.0" encoding="utf-8"?>
<!-- Generator: Adobe Illustrator 16.0.0, SVG Export Plug-In . SVG Version: 6.00 Build 0)  -->
<!DOCTYPE svg PUBLIC "-//W3C//DTD SVG 1.1//EN" "http://www.w3.org/Graphics/SVG/1.1/DTD/svg11.dtd">
<svg version="1.1" xmlns="http://www.w3.org/2000/svg" xmlns:xlink="http://www.w3.org/1999/xlink" x="0px" y="0px"
	 width="824.487px" height="824.486px" viewBox="0 0 824.487 824.486" enable-background="new 0 0 824.487 824.486"
	 xml:space="preserve">
<g id="Layer_3" display="none">
	<rect x="-82.606" y="-60.686" display="inline" width="960" height="960"/>
</g>
<g id="Layer_2">
	<path fill="#FFFFFF" d="M528.208,231.931l129.4,129.4l57.983-57.982l-129.4-129.401L528.208,231.931z M697.208,303.349
		l-39.599,39.598L546.593,231.931l39.599-39.598L697.208,303.349z"/>
	<path fill="#FFFFFF" d="M233.345,178.898l-129.4,129.401l57.982,57.982l129.401-129.4L233.345,178.898z M161.927,347.896
		l-39.598-39.598l111.016-111.016l39.598,39.598L161.927,347.896z"/>
	<path fill="#FFFFFF" d="M265.874,430.624c-9.11-9.1-22.76-10.879-33.64-5.35l-0.04,0.03c-2.64,1.33-5.13,3.12-7.33,5.319
		l-1.42,1.421l-30.4,30.399c-5.67,5.67-8.5,13.08-8.5,20.51c0,7.42,2.83,14.841,8.5,20.511c11.32,11.319,29.68,11.319,41.01,0
		l30.41-30.4l1.41-1.42c2.22-2.23,4.01-4.72,5.35-7.38C276.764,453.374,274.984,439.734,265.874,430.624z M258.014,466.694
		l-28.95,28.99c-7.81,7.81-20.45,7.81-28.27,0c-3.9-3.91-5.84-9.03-5.84-14.14c0-5.12,1.96-10.28,5.86-14.19l28.95-28.99l0.04-0.05
		h0.01c2.86-2.99,6.38-4.63,10.08-5.38c0.01-0.01,0.02-0.01,0.03-0.01c6.36-1.32,13.15,0.52,18.09,5.46
		c4.92,4.91,6.36,11.729,5.4,18.069c-0.01,0.04-0.01,0.08-0.02,0.12v0.01c-1,3.681-2.49,7.2-5.34,10.07
		C258.044,466.664,258.024,466.685,258.014,466.694z"/>
	<path fill="#FFFFFF" d="M401.634,566.395c-9.1-9.11-22.74-10.89-33.63-5.35c-2.66,1.34-5.15,3.13-7.38,5.35l-1.41,1.42l-30.41,30.4
		c-5.66,5.659-8.5,13.08-8.5,20.5c0,7.43,2.84,14.85,8.5,20.51c11.33,11.33,29.68,11.33,41.01,0l30.41-30.4l1.41-1.42
		c2.22-2.229,4.01-4.72,5.35-7.38C412.524,589.145,410.744,575.505,401.634,566.395z M393.854,602.454l-28.99,28.99
		c-7.81,7.82-20.47,7.82-28.28,0c-3.9-3.899-5.86-9.02-5.86-14.14s1.96-10.24,5.86-14.141l28.99-28.989
		c2.87-2.88,6.4-4.69,10.11-5.45c6.36-1.311,13.23,0.51,18.17,5.45c4.94,4.939,6.76,11.81,5.45,18.17
		C398.544,596.055,396.734,599.584,393.854,602.454z"/>
	<path fill="#FFFFFF" d="M322.084,464.925c-11.32-11.33-29.68-11.33-41.01,0l-4.59,4.6l-7.78,7.78l-30.41,30.399
		c-5.66,5.66-8.44,13.141-8.44,20.561c0,7.43,2.81,14.819,8.47,20.479c11.33,11.33,29.66,11.301,40.98-0.029l30.41-30.4l7.78-7.78
		l4.59-4.6C333.414,494.604,333.414,476.255,322.084,464.925z M314.314,500.984l-3.19,3.18l-7.78,7.78l-28.99,28.99
		c-7.81,7.82-20.41,7.88-28.22,0.06c-3.91-3.899-5.89-9.05-5.89-14.17s1.93-10.27,5.83-14.17l28.99-28.99l7.78-7.779l3.18-3.181
		c7.81-7.819,20.47-7.819,28.29,0C322.124,480.515,322.124,493.175,314.314,500.984z"/>
	<path fill="#FFFFFF" d="M367.344,510.175c-11.33-11.32-29.69-11.32-41.01,0l-4.6,4.6l-7.78,7.78l-30.4,30.399
		c-5.67,5.67-8.56,13.03-8.56,20.45s2.86,14.87,8.53,20.54c11.32,11.32,29.71,11.351,41.04,0.03l30.41-30.4l7.78-7.779l4.59-4.601
		C378.674,539.864,378.674,521.505,367.344,510.175z M359.564,546.244l-3.18,3.181l-7.78,7.779l-28.99,28.99
		c-7.82,7.811-20.53,7.75-28.35-0.06c-3.9-3.9-5.82-8.99-5.82-14.11s1.98-10.21,5.88-14.12l28.99-28.99l7.78-7.779l3.19-3.181
		c7.81-7.81,20.47-7.81,28.28,0C367.374,525.774,367.374,538.425,359.564,546.244z"/>
	<path fill="#FFFFFF" d="M232.234,425.274l7.66,7.66c-3.7,0.75-7.22,2.39-10.08,5.38h-0.01l-0.04,0.05l-6.32-6.319l8.75-6.74
		L232.234,425.274z"/>
	<path fill="#FFFFFF" d="M282.844,475.885l-7.78,7.779l-6.36-6.359l-4.24-4.24l-6.37-6.37l-0.04-0.04
		c2.85-2.87,4.34-6.39,5.34-10.07v-0.01c0.01-0.04,0.01-0.08,0.02-0.12l0.13,0.13l7.68,7.681L282.844,475.885z"/>
	<polygon fill="#FFFFFF" points="328.094,521.135 320.314,528.914 313.954,522.555 309.714,518.314 303.344,511.944 
		311.124,504.164 317.494,510.534 321.734,514.774 	"/>
	<path fill="#FFFFFF" d="M375.684,568.725c-3.71,0.76-7.24,2.57-10.11,5.45l-6.36-6.36l-4.24-4.24l-6.37-6.37l7.78-7.779l6.37,6.37
		l5.25,5.25L375.684,568.725z"/>
	<path fill="#FFFFFF" d="M569.224,449.725l82.02-82.03l-128.22-128.22c0,0-104.83-50.26-111.37-53.62s-13.55-6.96-29.34-6.96
		c-15.8,0-26.87,13.2-26.87,13.2s-10.34,20.44-22.81,45.26l-7.52,15c-8.36,16.69-16.93,33.9-23.53,47.34
		c-18.86,38.42,1.41,61.11,33.58,61.11c32.18,0,57.99-71.6,57.99-71.6l190.13,190.129c9.101,9.101,9.311,23.641,0.21,32.74
		c-9.1,9.101-23.64,8.891-32.739-0.21l-63.561-63.56l-6.359,6.37l63.56,63.55c9.1,9.109,9.31,23.64,0.21,32.74
		c-9.1,9.1-23.64,8.89-32.74-0.21l-63.56-63.561l-5.66,5.66l63.56,63.56c9.11,9.101,9.32,23.631,0.221,32.74
		c-9.11,9.101-23.641,8.891-32.74-0.22l-63.56-63.55l-6.37,6.359l63.56,63.561c9.1,9.1,9.32,23.63,0.21,32.74
		c-9.1,9.1-23.63,8.89-32.74-0.221l-35.479-35.479c-0.76,3.71-2.57,7.239-5.45,10.109l6.37,6.37l28.43,28.431
		c13.2,13.199,34.74,13.05,47.94-0.15c7.93-7.94,11.14-18.89,9.58-29.23c10.35,1.551,21.33-1.68,29.26-9.619
		c7.78-7.78,11.03-18.471,9.69-28.65c10.149,1.37,20.8-1.84,28.579-9.62c8.061-8.05,11.08-19.04,9.311-29.479
		c10.46,1.739,21.56-1.391,29.62-9.44c13.189-13.2,13.27-34.66,0.069-47.86L569.224,449.725z M388.204,268.705
		c0,0-25.81,80.08-56.39,80.08c-30.59,0-27.29-29.53-21.28-40.13c0,0,4.1-9.74,50.77-103.96c4.74-9.77,14.64-12.83,21.71-12.83
		c7.07,0,20.99,5.53,20.99,5.53l112.08,51.97l117.68,117.46l-73.95,73.49L388.204,268.705z"/>
	<path fill="#FFFFFF" d="M332.636,237.352c-8.603,0-29.758,2.122-38.538,10.901l-127.22,127.22l56.568,56.568l8.785-6.771
		l-48.383-48.383l116.793-117.259c7.071-7.071,18.264-7.904,24.471-7.27L332.636,237.352z"/>
</g>
<g id="Layer_4">
	<g>
		<polygon fill="#E28541" points="801.859,412.243 410.122,803.98 18.385,412.243 89.095,341.533 79.903,332.34 0,412.243 
			412.244,824.486 824.487,412.243 739.633,327.391 728.32,338.704 		"/>
		<polygon fill="#E28541" points="258.801,153.442 267.994,162.635 410.122,20.506 546.593,156.978 557.908,145.664 412.244,0 		"/>
	</g>
	<g>
	</g>
	<g>
	</g>
	<g>
	</g>
	<g>
	</g>
	<g>
	</g>
	<g>
	</g>
	<g>
	</g>
	<g>
	</g>
	<g>
	</g>
	<g>
	</g>
	<g>
	</g>
	<g>
	</g>
	<g>
	</g>
	<g>
	</g>
	<g>
	</g>
</g>
</svg>
