<?xml version="1.0" encoding="utf-8"?>
<!-- Generator: Adobe Illustrator 16.0.0, SVG Export Plug-In . SVG Version: 6.00 Build 0)  -->
<!DOCTYPE svg PUBLIC "-//W3C//DTD SVG 1.1//EN" "http://www.w3.org/Graphics/SVG/1.1/DTD/svg11.dtd">
<svg version="1.1" id="Layer_1" xmlns="http://www.w3.org/2000/svg" xmlns:xlink="http://www.w3.org/1999/xlink" x="0px" y="0px"
	 width="611.646px" height="473.774px" viewBox="0 0 611.646 473.774" enable-background="new 0 0 611.646 473.774"
	 xml:space="preserve">
<g id="Layer_2">
	<path fill="#FFFFFF" d="M424.264,57.983l129.4,129.4l57.982-57.982L482.247,0L424.264,57.983z M593.263,129.401l-39.599,39.598
		L442.648,57.983l39.599-39.598L593.263,129.401z"/>
	<path fill="#FFFFFF" d="M129.4,4.95L0,134.351l57.982,57.982l129.401-129.4L129.4,4.95z M57.982,173.948L18.384,134.35
		L129.4,23.334l39.598,39.598L57.982,173.948z"/>
	<path fill="#FFFFFF" d="M161.929,256.676c-9.11-9.1-22.76-10.879-33.64-5.35l-0.04,0.029c-2.64,1.33-5.13,3.12-7.33,5.318
		l-1.42,1.422l-30.4,30.398c-5.67,5.67-8.5,13.08-8.5,20.51c0,7.42,2.83,14.842,8.5,20.512c11.32,11.318,29.68,11.318,41.01,0
		l30.41-30.4l1.41-1.42c2.22-2.23,4.01-4.72,5.35-7.38C172.819,279.426,171.039,265.786,161.929,256.676z M154.069,292.747
		l-28.95,28.989c-7.81,7.81-20.45,7.81-28.27,0c-3.9-3.909-5.84-9.03-5.84-14.14c0-5.12,1.96-10.28,5.86-14.189l28.95-28.99
		l0.04-0.051h0.01c2.86-2.99,6.38-4.63,10.08-5.38c0.01-0.01,0.02-0.01,0.03-0.01c6.36-1.319,13.15,0.521,18.09,5.46
		c4.92,4.91,6.36,11.729,5.4,18.068c-0.01,0.041-0.01,0.08-0.02,0.121v0.01c-1,3.681-2.49,7.199-5.34,10.07
		C154.099,292.715,154.079,292.736,154.069,292.747z"/>
	<path fill="#FFFFFF" d="M297.689,392.446c-9.101-9.109-22.74-10.89-33.63-5.35c-2.66,1.34-5.15,3.13-7.38,5.35l-1.41,1.42
		l-30.41,30.4c-5.66,5.658-8.5,13.08-8.5,20.5c0,7.43,2.84,14.85,8.5,20.51c11.33,11.33,29.68,11.33,41.01,0l30.41-30.4l1.411-1.42
		c2.22-2.229,4.01-4.719,5.35-7.379C308.579,415.196,306.799,401.557,297.689,392.446z M289.909,428.506l-28.99,28.99
		c-7.81,7.82-20.47,7.82-28.28,0c-3.9-3.9-5.86-9.021-5.86-14.141s1.96-10.24,5.86-14.141l28.99-28.989
		c2.87-2.88,6.4-4.69,10.11-5.45c6.36-1.311,13.23,0.51,18.17,5.45c4.94,4.938,6.76,11.81,5.45,18.17
		C294.6,422.106,292.789,425.635,289.909,428.506z"/>
	<path fill="#FFFFFF" d="M218.139,290.977c-11.32-11.33-29.68-11.33-41.01,0l-4.59,4.6l-7.78,7.78l-30.41,30.399
		c-5.66,5.66-8.44,13.141-8.44,20.561c0,7.43,2.81,14.818,8.47,20.479c11.33,11.33,29.66,11.302,40.98-0.028l30.41-30.399
		l7.78-7.781l4.59-4.6C229.469,320.657,229.469,302.307,218.139,290.977z M210.369,327.036l-3.19,3.18l-7.78,7.781l-28.99,28.989
		c-7.81,7.82-20.41,7.88-28.22,0.06c-3.91-3.898-5.89-9.049-5.89-14.17c0-5.119,1.93-10.27,5.83-14.17l28.99-28.99l7.78-7.778
		l3.18-3.181c7.81-7.819,20.47-7.819,28.29,0C218.179,306.566,218.179,319.227,210.369,327.036z"/>
	<path fill="#FFFFFF" d="M263.399,336.227c-11.33-11.32-29.69-11.32-41.01,0l-4.6,4.6l-7.78,7.78l-30.4,30.399
		c-5.67,5.67-8.56,13.029-8.56,20.449s2.86,14.871,8.53,20.541c11.32,11.32,29.71,11.35,41.04,0.029l30.41-30.4l7.78-7.778
		l4.59-4.601C274.729,365.917,274.729,347.557,263.399,336.227z M255.619,372.295l-3.18,3.182l-7.78,7.779l-28.99,28.99
		c-7.82,7.811-20.53,7.75-28.35-0.061c-3.9-3.9-5.82-8.99-5.82-14.109c0-5.121,1.98-10.211,5.88-14.121l28.99-28.99l7.78-7.778
		l3.19-3.181c7.81-7.811,20.47-7.811,28.28,0C263.429,351.827,263.429,364.477,255.619,372.295z"/>
	<path fill="#FFFFFF" d="M128.289,251.327l7.66,7.659c-3.7,0.75-7.22,2.39-10.08,5.38h-0.01l-0.04,0.051l-6.32-6.319l8.75-6.74
		L128.289,251.327z"/>
	<path fill="#FFFFFF" d="M178.899,301.937l-7.78,7.778l-6.36-6.358l-4.24-4.239l-6.37-6.371l-0.04-0.039
		c2.85-2.871,4.34-6.391,5.34-10.07v-0.01c0.01-0.041,0.01-0.08,0.02-0.121l0.13,0.131l7.68,7.681L178.899,301.937z"/>
	<polygon fill="#FFFFFF" points="224.149,347.187 216.369,354.965 210.009,348.606 205.769,344.366 199.399,337.997 
		207.179,330.215 213.549,336.586 217.789,340.827 	"/>
	<path fill="#FFFFFF" d="M271.739,394.776c-3.71,0.76-7.24,2.57-10.11,5.45l-6.36-6.36l-4.24-4.24l-6.37-6.369l7.78-7.779l6.37,6.37
		l5.25,5.25L271.739,394.776z"/>
	<path fill="#FFFFFF" d="M465.279,275.776l82.02-82.03l-128.22-128.22c0,0-104.83-50.26-111.37-53.62
		c-6.54-3.36-13.55-6.96-29.34-6.96c-15.8,0-26.87,13.2-26.87,13.2s-10.34,20.44-22.81,45.26l-7.52,15
		c-8.36,16.69-16.93,33.9-23.53,47.34c-18.86,38.42,1.41,61.11,33.58,61.11c32.18,0,57.99-71.6,57.99-71.6l190.13,190.129
		c9.102,9.101,9.312,23.641,0.21,32.74c-9.1,9.101-23.64,8.891-32.739-0.211l-63.561-63.56l-6.359,6.37l63.561,63.55
		c9.1,9.108,9.31,23.64,0.21,32.74c-9.101,9.101-23.641,8.89-32.74-0.21l-63.56-63.561l-5.66,5.659l63.56,63.56
		c9.11,9.102,9.32,23.632,0.221,32.74c-9.109,9.102-23.641,8.891-32.739-0.22l-63.561-63.55l-6.37,6.359l63.561,63.561
		c9.1,9.1,9.32,23.631,0.21,32.74c-9.101,9.1-23.63,8.891-32.74-0.221l-35.479-35.479c-0.76,3.71-2.57,7.239-5.45,10.108l6.37,6.371
		l28.43,28.43c13.2,13.199,34.74,13.051,47.94-0.148c7.93-7.941,11.14-18.891,9.58-29.23c10.35,1.551,21.329-1.68,29.26-9.619
		c7.779-7.78,11.029-18.471,9.689-28.65c10.149,1.37,20.801-1.84,28.579-9.619c8.062-8.051,11.08-19.041,9.312-29.479
		c10.46,1.739,21.56-1.392,29.62-9.44c13.188-13.199,13.27-34.66,0.068-47.859L465.279,275.776z M284.259,94.756
		c0,0-25.81,80.08-56.39,80.08c-30.59,0-27.29-29.53-21.28-40.13c0,0,4.1-9.74,50.77-103.96c4.74-9.77,14.64-12.83,21.71-12.83
		c7.07,0,20.99,5.53,20.99,5.53l112.08,51.97l117.681,117.46l-73.95,73.49L284.259,94.756z"/>
	<path fill="#FFFFFF" d="M228.691,63.404c-8.603,0-29.758,2.122-38.538,10.901l-127.22,127.22l56.568,56.567l8.785-6.77
		L79.903,202.94L196.696,85.681c7.071-7.071,18.264-7.904,24.471-7.27L228.691,63.404z"/>
</g>
</svg>
