<?xml version="1.0" encoding="utf-8"?>
<!-- Generator: Adobe Illustrator 16.0.0, SVG Export Plug-In . SVG Version: 6.00 Build 0)  -->
<!DOCTYPE svg PUBLIC "-//W3C//DTD SVG 1.1//EN" "http://www.w3.org/Graphics/SVG/1.1/DTD/svg11.dtd">
<svg version="1.1" id="Layer_1" xmlns="http://www.w3.org/2000/svg" xmlns:xlink="http://www.w3.org/1999/xlink" x="0px" y="0px"
	 width="824.488px" height="824.486px" viewBox="0 0 824.488 824.486" enable-background="new 0 0 824.488 824.486"
	 xml:space="preserve">
<g id="Layer_2">
	<path fill="#FFFFFF" d="M528.208,231.931l129.4,129.4l57.982-57.982l-129.4-129.401L528.208,231.931z M697.208,303.349
		l-39.6,39.598L546.593,231.931l39.6-39.598L697.208,303.349z"/>
	<path fill="#FFFFFF" d="M233.345,178.898l-129.4,129.401l57.982,57.982l129.401-129.4L233.345,178.898z M161.927,347.896
		l-39.598-39.598l111.016-111.016l39.598,39.598L161.927,347.896z"/>
	<path fill="#FFFFFF" d="M265.874,430.624c-9.11-9.1-22.76-10.879-33.64-5.35l-0.04,0.029c-2.64,1.33-5.13,3.12-7.33,5.319
		l-1.42,1.421l-30.4,30.399c-5.67,5.67-8.5,13.079-8.5,20.51c0,7.42,2.83,14.841,8.5,20.511c11.32,11.319,29.68,11.319,41.01,0
		l30.41-30.4l1.41-1.42c2.22-2.229,4.01-4.72,5.35-7.38C276.764,453.374,274.984,439.734,265.874,430.624z M258.014,466.694
		l-28.95,28.989c-7.81,7.811-20.45,7.811-28.27,0c-3.9-3.909-5.84-9.029-5.84-14.14c0-5.12,1.96-10.28,5.86-14.19l28.95-28.989
		l0.04-0.05h0.01c2.86-2.99,6.38-4.631,10.08-5.381c0.01-0.01,0.02-0.01,0.03-0.01c6.36-1.32,13.15,0.521,18.09,5.46
		c4.92,4.91,6.36,11.729,5.4,18.069c-0.01,0.04-0.01,0.08-0.02,0.12v0.01c-1,3.681-2.49,7.2-5.34,10.07
		C258.044,466.664,258.024,466.685,258.014,466.694z"/>
	<path fill="#FFFFFF" d="M401.634,566.396c-9.1-9.11-22.739-10.891-33.63-5.351c-2.66,1.34-5.15,3.13-7.38,5.351l-1.41,1.42
		l-30.41,30.399c-5.66,5.659-8.5,13.08-8.5,20.5c0,7.431,2.84,14.851,8.5,20.51c11.33,11.33,29.681,11.33,41.011,0l30.409-30.399
		l1.41-1.42c2.22-2.229,4.011-4.721,5.351-7.38C412.524,589.146,410.744,575.505,401.634,566.396z M393.854,602.454l-28.989,28.99
		c-7.811,7.819-20.47,7.819-28.28,0c-3.9-3.899-5.86-9.021-5.86-14.141s1.96-10.24,5.86-14.141l28.99-28.989
		c2.87-2.88,6.399-4.689,10.109-5.45c6.36-1.311,13.23,0.511,18.17,5.45c4.94,4.939,6.761,11.811,5.45,18.17
		C398.544,596.055,396.734,599.584,393.854,602.454z"/>
	<path fill="#FFFFFF" d="M322.084,464.925c-11.32-11.33-29.68-11.33-41.01,0l-4.59,4.601l-7.78,7.779l-30.41,30.399
		c-5.66,5.66-8.44,13.141-8.44,20.561c0,7.431,2.81,14.819,8.47,20.479c11.33,11.33,29.66,11.301,40.98-0.029l30.41-30.399
		l7.78-7.78l4.59-4.601C333.414,494.604,333.414,476.255,322.084,464.925z M314.314,500.984l-3.19,3.18l-7.78,7.78l-28.99,28.989
		c-7.81,7.82-20.41,7.881-28.22,0.061c-3.91-3.899-5.89-9.05-5.89-14.17s1.93-10.271,5.83-14.17l28.99-28.99l7.78-7.779l3.18-3.181
		c7.81-7.819,20.47-7.819,28.291,0C322.124,480.515,322.124,493.175,314.314,500.984z"/>
	<path fill="#FFFFFF" d="M367.344,510.175c-11.33-11.32-29.689-11.32-41.01,0l-4.6,4.601l-7.78,7.779l-30.4,30.399
		c-5.67,5.67-8.56,13.03-8.56,20.45s2.86,14.87,8.53,20.54c11.32,11.319,29.71,11.351,41.041,0.029l30.409-30.399l7.78-7.779
		l4.59-4.601C378.674,539.864,378.674,521.505,367.344,510.175z M359.564,546.244l-3.181,3.181l-7.78,7.779l-28.989,28.99
		c-7.82,7.811-20.53,7.75-28.35-0.061c-3.9-3.899-5.82-8.99-5.82-14.109c0-5.12,1.98-10.21,5.88-14.12l28.99-28.99l7.779-7.779
		l3.19-3.181c7.81-7.811,20.47-7.811,28.28,0C367.374,525.774,367.374,538.425,359.564,546.244z"/>
	<path fill="#FFFFFF" d="M232.234,425.274l7.66,7.659c-3.7,0.75-7.22,2.391-10.08,5.381h-0.01l-0.04,0.05l-6.32-6.319l8.75-6.74
		L232.234,425.274z"/>
	<path fill="#FFFFFF" d="M282.844,475.885l-7.78,7.779l-6.36-6.359l-4.24-4.239l-6.37-6.37l-0.04-0.04
		c2.85-2.87,4.34-6.391,5.34-10.07v-0.01c0.01-0.04,0.01-0.08,0.02-0.12l0.13,0.13l7.68,7.681L282.844,475.885z"/>
	<polygon fill="#FFFFFF" points="328.094,521.135 320.314,528.914 313.954,522.555 309.714,518.314 303.344,511.944 
		311.124,504.164 317.494,510.534 321.734,514.774 	"/>
	<path fill="#FFFFFF" d="M375.684,568.725c-3.71,0.761-7.239,2.57-10.109,5.45l-6.36-6.359l-4.24-4.24l-6.37-6.37l7.78-7.779
		l6.37,6.37l5.25,5.25L375.684,568.725z"/>
	<path fill="#FFFFFF" d="M569.224,449.725l82.02-82.03l-128.219-128.22c0,0-104.83-50.26-111.371-53.62
		c-6.54-3.36-13.55-6.96-29.34-6.96c-15.801,0-26.87,13.2-26.87,13.2s-10.34,20.44-22.811,45.26l-7.52,15
		c-8.36,16.69-16.931,33.9-23.53,47.34c-18.86,38.42,1.41,61.11,33.58,61.11c32.18,0,57.99-71.6,57.99-71.6l190.13,190.129
		c9.1,9.101,9.311,23.641,0.209,32.74c-9.1,9.101-23.639,8.891-32.738-0.21l-63.561-63.561l-6.359,6.37l63.561,63.55
		c9.1,9.109,9.309,23.641,0.209,32.74s-23.641,8.891-32.74-0.21l-63.561-63.561l-5.658,5.659l63.559,63.561
		c9.111,9.101,9.32,23.631,0.221,32.74c-9.109,9.101-23.641,8.891-32.738-0.221l-63.561-63.55l-6.37,6.359l63.56,63.561
		c9.1,9.101,9.32,23.63,0.211,32.74c-9.102,9.1-23.631,8.89-32.74-0.221l-35.48-35.479c-0.76,3.71-2.569,7.239-5.449,10.109
		l6.37,6.37l28.43,28.431c13.199,13.199,34.74,13.05,47.939-0.15c7.93-7.939,11.141-18.89,9.58-29.229
		c10.35,1.551,21.33-1.68,29.26-9.619c7.779-7.78,11.029-18.471,9.689-28.65c10.15,1.37,20.801-1.84,28.58-9.62
		c8.061-8.05,11.08-19.039,9.311-29.479c10.459,1.739,21.561-1.391,29.619-9.44c13.189-13.199,13.271-34.659,0.07-47.859
		L569.224,449.725z M388.204,268.705c0,0-25.81,80.08-56.39,80.08c-30.591,0-27.29-29.53-21.28-40.13c0,0,4.1-9.74,50.77-103.96
		c4.74-9.77,14.641-12.83,21.71-12.83c7.07,0,20.99,5.53,20.99,5.53l112.08,51.97l117.68,117.46l-73.949,73.49L388.204,268.705z"/>
	<path fill="#FFFFFF" d="M332.636,237.352c-8.603,0-29.758,2.122-38.538,10.901l-127.22,127.22l56.568,56.568l8.785-6.771
		l-48.383-48.383l116.792-117.259c7.071-7.071,18.265-7.904,24.472-7.27L332.636,237.352z"/>
</g>
<g id="Layer_4">
	<g>
		<polygon fill="#E28541" points="801.859,412.243 410.122,803.979 18.385,412.243 89.095,341.533 79.903,332.34 0,412.243 
			412.244,824.486 824.488,412.243 739.632,327.391 728.32,338.704 		"/>
		<polygon fill="#E28541" points="258.801,153.442 267.994,162.635 410.122,20.506 546.593,156.978 557.908,145.664 412.244,0 		"/>
	</g>
</g>
</svg>
