<?xml version="1.0" encoding="utf-8"?>
<!-- Generator: Adobe Illustrator 16.0.0, SVG Export Plug-In . SVG Version: 6.00 Build 0)  -->
<!DOCTYPE svg PUBLIC "-//W3C//DTD SVG 1.1//EN" "http://www.w3.org/Graphics/SVG/1.1/DTD/svg11.dtd">
<svg version="1.1" id="Layer_1" xmlns="http://www.w3.org/2000/svg" xmlns:xlink="http://www.w3.org/1999/xlink" x="0px" y="0px"
	 width="700px" height="699.93px" viewBox="-335.827 -335.792 700 699.93" enable-background="new -335.827 -335.792 700 699.93"
	 xml:space="preserve">
<g id="Layer_x0020_1">
	<g id="_225731464">
		<g>
			<path id="_226597984" fill="#FFB000" d="M289.55,14.167h-31.466l0,0L257.747,1.58l-0.916-12.418l-1.566-12.224l-2.146-12.019
				l-2.725-11.813l-3.304-11.586l-3.81-11.344l-4.389-11.079l-4.869-10.814l-5.401-10.523l-5.885-10.223l-6.364-9.91l-6.799-9.573
				l-7.233-9.221l-7.669-8.862l-8.099-8.473l-8.488-8.079l-8.85-7.68l-9.209-7.245l-9.572-6.799l-9.887-6.354l-10.223-5.871
				l-10.513-5.376l-10.802-4.883l-11.066-4.363l-11.309-3.834l-11.573-3.291l-11.813-2.711l-11.985-2.147l-12.199-1.555
				l-12.394-0.94l-12.562-0.313v-31.153l14.177,0.362l13.984,1.061l13.791,1.76l13.551,2.412l13.357,3.086l13.068,3.713
				l12.827,4.329l12.49,4.942l12.224,5.521l11.888,6.076l11.523,6.642l11.188,7.162L179-206.367l10.368,8.174l10.007,8.656
				l9.571,9.114l9.113,9.559l8.633,9.995l8.173,10.391l7.691,10.79l7.138,11.163l6.631,11.525l6.074,11.875l5.521,12.187
				l4.919,12.501l4.34,12.792l3.714,13.069l3.062,13.309l2.436,13.551l1.736,13.765l1.063,13.975L289.55,14.167L289.55,14.167
				L289.55,14.167z M14.129,289.417v-31.153l0,0l12.562-0.313l12.369-0.939l12.224-1.544l11.985-2.144l11.813-2.726l11.573-3.281
				l11.309-3.83l11.066-4.364l10.802-4.871l10.513-5.401l10.223-5.882l9.887-6.317l9.572-6.824l9.209-7.258l8.85-7.67l8.488-8.074
				l8.099-8.463l7.669-8.874l7.233-9.21l6.799-9.597l6.364-9.885l5.885-10.223l5.401-10.538l4.869-10.802l4.389-11.089l3.81-11.357
				l3.304-11.574l2.725-11.813l2.146-12.007l1.566-12.25l0.916-12.39l0.338-12.587h31.466l-0.36,14.128l-1.063,13.984l-1.736,13.744
				l-2.436,13.551l-3.062,13.333L277.18,95.95l-4.34,12.805l-4.919,12.513l-5.521,12.198l-6.074,11.863l-6.631,11.525l-7.162,11.141
				l-7.667,10.802l-8.173,10.414l-8.633,9.983l-9.113,9.548l-9.571,9.113l-10.007,8.657L179,234.685l-10.802,7.666l-11.188,7.187
				l-11.523,6.604l-11.888,6.103l-12.224,5.521l-12.49,4.919l-12.827,4.339l-13.068,3.714l-13.357,3.086l-13.551,2.411l-13.791,1.76
				l-13.984,1.086L14.129,289.417L14.129,289.417L14.129,289.417z M-261.292,14.167h31.465l0,0l0.313,12.587l0.953,12.39
				l1.555,12.25l2.146,12.007l2.725,11.813l3.292,11.574l3.833,11.357l4.365,11.089l4.895,10.802l5.389,10.538l5.882,10.223
				l6.354,9.885l6.799,9.597l7.258,9.21l7.666,8.874l8.089,8.463l8.476,8.074l8.861,7.67l9.21,7.258l9.573,6.824l9.896,6.317
				l10.211,5.882l10.513,5.401l10.801,4.871l11.067,4.364l11.321,3.83l11.572,3.281l11.791,2.726l11.996,2.144l12.2,1.544
				l12.392,0.939l12.563,0.313v31.153l-14.165-0.338l-13.985-1.086l-13.792-1.76l-13.575-2.411l-13.333-3.086l-13.092-3.714
				l-12.803-4.339l-12.514-4.919l-12.211-5.521l-11.875-6.103l-11.538-6.604l-11.175-7.187l-10.802-7.666l-10.392-8.173
				l-9.995-8.657l-9.559-9.113l-9.115-9.548l-8.643-9.983l-8.173-10.414l-7.68-10.802l-7.161-11.141l-6.619-11.525l-6.075-11.863
				l-5.522-12.198l-4.93-12.513l-4.329-12.805l-3.701-13.043l-3.074-13.333l-2.422-13.551l-1.749-13.744l-1.061-13.984
				L-261.292,14.167L-261.292,14.167L-261.292,14.167z M14.129-261.099v31.153l0,0l-12.563,0.313l-12.392,0.94l-12.2,1.555
				l-11.996,2.147l-11.791,2.711l-11.572,3.291l-11.321,3.834l-11.067,4.363l-10.801,4.883l-10.513,5.376l-10.211,5.871
				l-9.896,6.354l-9.573,6.799l-9.21,7.245l-8.861,7.68l-8.476,8.079l-8.089,8.473l-7.666,8.862l-7.258,9.221l-6.799,9.573
				l-6.354,9.91l-5.882,10.223l-5.389,10.523l-4.895,10.814l-4.365,11.079l-3.833,11.344l-3.292,11.586l-2.725,11.813l-2.146,12.019
				l-1.555,12.224l-0.953,12.418l-0.313,12.587h-31.465l0.361-14.142l1.061-13.975l1.749-13.765l2.422-13.551l3.074-13.309
				l3.701-13.069l4.341-12.792l4.918-12.501l5.522-12.187l6.075-11.875l6.619-11.525l7.161-11.163l7.68-10.79l8.173-10.391
				l8.643-9.995l9.115-9.559l9.559-9.114l9.995-8.656l10.392-8.174l10.802-7.667l11.175-7.162l11.538-6.642l11.875-6.076
				l12.211-5.521l12.514-4.942l12.803-4.329l13.092-3.713l13.333-3.086l13.575-2.412l13.792-1.76l13.985-1.061L14.129-261.099
				L14.129-261.099z"/>
		</g>
		<g>
			<polygon fill="#FFB000" points="29.85,-335.77 29.85,-150.332 -1.604,-150.332 -1.604,-335.77 			"/>
		</g>
		<g>
			<polygon fill="#FFB000" points="364.078,29.885 178.616,29.885 178.616,-1.568 364.078,-1.568 			"/>
		</g>
		<g>
			<polygon fill="#FFB000" points="-1.604,364.113 -1.604,178.651 29.85,178.651 29.85,364.113 			"/>
		</g>
		<g>
			<polygon fill="#FFB000" points="-335.807,-1.568 -150.369,-1.568 -150.369,29.885 -335.807,29.885 			"/>
		</g>
	</g>
</g>
</svg>
