<?xml version="1.0" encoding="utf-8"?>
<!-- Generator: Adobe Illustrator 16.0.0, SVG Export Plug-In . SVG Version: 6.00 Build 0)  -->
<!DOCTYPE svg PUBLIC "-//W3C//DTD SVG 1.1//EN" "http://www.w3.org/Graphics/SVG/1.1/DTD/svg11.dtd">
<svg version="1.1" id="Layer_1" xmlns="http://www.w3.org/2000/svg" xmlns:xlink="http://www.w3.org/1999/xlink" x="0px" y="0px"
	 width="697.276px" height="697.276px" viewBox="-334.465 -334.465 697.276 697.276"
	 enable-background="new -334.465 -334.465 697.276 697.276" xml:space="preserve">
<g id="Layer_x0020_1">
	<g id="_226603864">
		<g>
			<path id="_225731776" fill="#FFB000" d="M14.167,126.875V97.041l0,0l16.959-0.12l16.742-0.36l16.503-0.625l16.19-0.864
				l15.95-1.058l15.613-1.297l15.277-1.514l14.918-1.729l14.532-1.921l14.173-2.139l13.692-2.306l13.26-2.498l12.827-2.643
				l12.299-2.834l11.771-2.979l11.241-3.171l10.689-3.267l10.09-3.411l9.488-3.531l8.791-3.627l8.168-3.747l7.446-3.771l6.702-3.844
				l5.957-3.867l5.165-3.819l4.323-3.771l3.531-3.603l2.715-3.447l1.921-3.159l1.249-2.87l0.697-2.606l0.216-2.475h29.546
				l-0.672,7.591l-1.898,7.327l-3.002,6.918l-3.939,6.462l-4.732,6.053l-5.477,5.621l-6.149,5.333l-6.799,5.044l-7.422,4.828
				l-8.047,4.589l-8.6,4.42l-9.225,4.18l-9.801,4.035l-10.377,3.892l-10.882,3.675l-11.434,3.508l-11.939,3.339l-12.442,3.171
				l-12.924,2.954l-13.38,2.786l-13.812,2.595l-14.27,2.402l-14.652,2.186l-15.037,2.018l-15.374,1.778l-15.758,1.537l-16.07,1.345
				l-16.358,1.105l-16.671,0.864l-16.935,0.625l-17.176,0.384L14.167,126.875L14.167,126.875z M-334.465,14.167h29.522l0,0
				l0.216,2.475l0.685,2.606l1.249,2.87l1.945,3.159l2.703,3.447l3.531,3.603l4.335,3.771l5.165,3.819l5.945,3.867l6.714,3.844
				l7.446,3.771l8.144,3.747l8.828,3.627l9.464,3.531l10.089,3.411l10.678,3.267l11.254,3.171l11.782,2.979l12.299,2.834
				l12.804,2.643l13.271,2.498l13.716,2.306l14.137,2.139l14.545,1.921l14.93,1.729l15.277,1.514l15.613,1.297l15.927,1.058
				l16.226,0.864l16.491,0.625l16.742,0.36l16.96,0.12v29.834l-17.404-0.145l-17.163-0.384l-16.935-0.625l-16.659-0.864
				l-16.382-1.105l-16.07-1.345l-15.746-1.537l-15.397-1.778l-15.037-2.018l-14.642-2.186l-14.244-2.378l-13.837-2.619
				l-13.367-2.786l-12.924-2.954l-12.442-3.171l-11.939-3.339l-11.434-3.508l-10.905-3.675l-10.354-3.892l-9.789-4.035l-9.224-4.18
				l-8.636-4.42l-8.035-4.589l-7.41-4.828l-6.799-5.044l-6.161-5.333l-5.465-5.621l-4.756-6.053l-3.928-6.462l-3.003-6.918
				l-1.897-7.327L-334.465,14.167L-334.465,14.167z M14.167-98.553v29.835l0,0l-16.96,0.12l-16.742,0.372l-16.491,0.612
				l-16.226,0.854l-15.927,1.068l-15.613,1.31l-15.277,1.513l-14.93,1.718l-14.545,1.934l-14.137,2.114l-13.716,2.318l-13.271,2.485
				l-12.804,2.667l-12.299,2.834l-11.782,2.991l-11.254,3.146l-10.678,3.279l-10.089,3.41l-9.464,3.52l-8.816,3.64l-8.155,3.723
				l-7.446,3.796l-6.714,3.831l-5.945,3.855l-5.165,3.831l-4.335,3.76l-3.531,3.639l-2.703,3.424l-1.945,3.171l-1.249,2.87
				l-0.685,2.606l-0.216,2.474h-29.522l0.648-7.591l1.897-7.338l3.003-6.918l3.928-6.462l4.756-6.029l5.465-5.646l6.161-5.332
				l6.799-5.057l7.41-4.805l8.035-4.6l8.636-4.396l9.224-4.215l9.789-4.036l10.354-3.855l10.905-3.688l11.434-3.519l11.939-3.327
				l12.442-3.159l12.924-2.979l13.367-2.786l13.837-2.595l14.244-2.401l14.642-2.198l15.037-1.981l15.397-1.79l15.746-1.562
				l16.07-1.333l16.382-1.104l16.659-0.877l16.935-0.625l17.163-0.384L14.167-98.553L14.167-98.553L14.167-98.553z M362.811,14.167
				h-29.546l0,0l-0.216-2.474l-0.697-2.606l-1.249-2.87l-1.921-3.171l-2.715-3.424l-3.531-3.639l-4.323-3.76l-5.165-3.831
				l-5.957-3.855l-6.702-3.831l-7.446-3.796l-8.168-3.723l-8.815-3.64l-9.464-3.52l-10.09-3.41l-10.689-3.279l-11.241-3.146
				l-11.771-2.991l-12.299-2.834L197.978-52.3l-13.26-2.485l-13.717-2.318l-14.148-2.114l-14.532-1.934l-14.918-1.718l-15.277-1.513
				l-15.613-1.31l-15.95-1.068l-16.19-0.854l-16.503-0.612l-16.742-0.372l-16.959-0.12v-29.835l17.391,0.133l17.176,0.384
				l16.935,0.625l16.671,0.877l16.358,1.104l16.07,1.333l15.758,1.562l15.374,1.79l15.037,1.981l14.652,2.198l14.27,2.401
				l13.812,2.595l13.38,2.786l12.924,2.979l12.442,3.159l11.939,3.327L265.79-65.8l10.882,3.688l10.377,3.855l9.801,4.036
				l9.225,4.215l8.6,4.396l8.047,4.6l7.422,4.805l6.799,5.057l6.149,5.332l5.477,5.646l4.732,6.029l3.939,6.474l3.002,6.906
				l1.898,7.338L362.811,14.167L362.811,14.167z"/>
		</g>
		<g>
			<path fill="#FFB000" d="M126.875,14.167H97.041l0,0L96.92-2.804l-0.36-16.73l-0.625-16.491l-0.864-16.226l-1.058-15.927
				l-1.297-15.613l-1.513-15.277l-1.73-14.93l-1.921-14.545l-2.139-14.137l-2.306-13.716l-2.498-13.271l-2.643-12.804l-2.834-12.299
				l-3.003-11.782l-3.146-11.254l-3.268-10.678l-3.411-10.089l-3.53-9.464l-3.628-8.816l-3.723-8.155l-3.796-7.446l-3.843-6.714
				l-3.868-5.945l-3.819-5.165l-3.771-4.336l-3.603-3.53l-3.447-2.703l-3.159-1.934l-2.87-1.261l-2.606-0.685l-2.474-0.217v-29.521
				l7.59,0.648l7.327,1.897l6.918,3.003l6.462,3.928l6.053,4.744l5.621,5.477l5.333,6.149l5.044,6.81l4.829,7.411l4.588,8.035
				l4.42,8.636l4.18,9.224l4.035,9.789l3.892,10.353l3.675,10.906l3.508,11.434l3.339,11.938l3.171,12.443l2.954,12.924
				l2.787,13.367l2.594,13.824l2.402,14.257l2.186,14.641l2.019,15.038l1.777,15.397l1.537,15.746l1.345,16.07l1.105,16.382
				l0.865,16.659l0.624,16.923l0.385,17.175L126.875,14.167L126.875,14.167z M14.167,362.811v-29.546l0,0l2.474-0.216l2.606-0.697
				l2.87-1.249l3.159-1.922l3.447-2.714l3.603-3.531l3.771-4.324l3.819-5.164l3.868-5.957l3.843-6.702l3.796-7.446l3.723-8.168
				l3.628-8.791l3.53-9.489l3.411-10.089l3.268-10.689l3.171-11.241l2.979-11.771l2.834-12.299l2.643-12.828l2.498-13.26
				l2.306-13.691l2.139-14.173l1.921-14.533l1.73-14.917l1.513-15.277l1.297-15.613l1.058-15.95l0.864-16.19l0.625-16.503
				l0.36-16.743l0.12-16.959h29.834l-0.144,17.392l-0.36,17.176l-0.648,16.935l-0.865,16.671l-1.105,16.358l-1.345,16.07
				l-1.537,15.758l-1.777,15.374l-2.019,15.037l-2.186,14.652l-2.402,14.269l-2.594,13.813l-2.787,13.38l-2.954,12.924
				l-3.171,12.442l-3.339,11.938l-3.508,11.435l-3.675,10.882l-3.892,10.377l-4.035,9.801l-4.18,9.224l-4.42,8.6l-4.588,8.048
				l-4.829,7.422l-5.044,6.799l-5.333,6.149l-5.621,5.477l-6.053,4.732l-6.462,3.939l-6.918,3.002l-7.327,1.898L14.167,362.811
				L14.167,362.811z M-98.552,14.167h29.834l0,0l0.12,16.959l0.372,16.743l0.612,16.503l0.854,16.19l1.068,15.95l1.31,15.613
				l1.513,15.277l1.718,14.917l1.934,14.533l2.114,14.173l2.318,13.691l2.486,13.26l2.666,12.828l2.834,12.299l2.991,11.771
				l3.146,11.241l3.279,10.689l3.411,10.089l3.519,9.465l3.64,8.815l3.723,8.168l3.796,7.446l3.831,6.702l3.855,5.957l3.831,5.164
				l3.76,4.324l3.64,3.555l3.423,2.69l3.171,1.922l2.87,1.249l2.606,0.697l2.475,0.216v29.546l-7.591-0.672l-7.339-1.898
				l-6.906-3.002l-6.474-3.939l-6.029-4.732l-5.645-5.477l-5.333-6.149l-5.057-6.799l-4.805-7.422l-4.6-8.048l-4.396-8.6
				l-4.216-9.224l-4.036-9.801l-3.855-10.377l-3.687-10.882l-3.52-11.435l-3.327-11.938l-3.158-12.442l-2.979-12.924l-2.786-13.38
				l-2.594-13.813l-2.402-14.269l-2.198-14.652l-1.994-15.037l-1.777-15.374l-1.562-15.758l-1.333-16.07l-1.104-16.358
				l-0.877-16.671l-0.625-16.935l-0.384-17.176L-98.552,14.167L-98.552,14.167z M14.167-334.465v29.521l0,0l-2.475,0.217
				l-2.606,0.685l-2.87,1.261l-3.171,1.922l-3.423,2.715l-3.64,3.53l-3.76,4.336l-3.831,5.165l-3.855,5.945l-3.831,6.714
				l-3.796,7.446l-3.723,8.155l-3.64,8.816l-3.519,9.464l-3.411,10.089l-3.279,10.678l-3.146,11.254l-2.991,11.782l-2.834,12.299
				l-2.666,12.804l-2.486,13.271l-2.318,13.716l-2.114,14.137l-1.934,14.545l-1.718,14.93l-1.513,15.277l-1.31,15.613l-1.068,15.927
				l-0.854,16.226l-0.612,16.491l-0.372,16.73l-0.12,16.971h-29.834l0.132-17.403l0.384-17.175l0.625-16.923l0.877-16.659
				l1.104-16.382l1.333-16.07l1.562-15.746l1.777-15.397l1.994-15.038l2.198-14.641l2.402-14.257l2.594-13.824l2.786-13.367
				l2.979-12.924l3.158-12.443l3.327-11.938l3.52-11.434l3.687-10.906l3.855-10.353l4.036-9.789l4.216-9.224l4.396-8.636l4.6-8.035
				l4.805-7.411l5.057-6.798l5.333-6.161l5.645-5.465l6.029-4.756l6.474-3.928l6.906-3.003l7.339-1.897L14.167-334.465
				L14.167-334.465z"/>
		</g>
	</g>
</g>
</svg>
