<svg width="1178.9px" height="998.25px" viewBox="0 0 1178.9 998.25" xmlns="http://www.w3.org/2000/svg" xmlns:xlink="http://www.w3.org/1999/xlink">
  <defs/>
  <g>
    <path stroke="none" fill="#000000" d="M0.65 0.7 L0.8 0.7 1.05 0.75 1.3 0.9 131.85 118.9 209.95 189.65 290 262.35 362.85 328.8 393.75 357.15 419.45 380.9 438.8 399 445.75 405.6 450.05 409.85 450.15 410.25 450.1 410.45 449.9 410.7 449.6 410.85 447.25 411.55 444 412.85 440.85 414.4 437.85 416.15 434.95 418.15 432.15 420.35 429.45 422.75 426.85 425.35 424.35 428.15 422 431.15 419.75 434.3 417.6 437.6 415.55 441.05 413.6 444.65 411.75 448.4 410 452.25 408.35 456.25 406.8 460.35 405.35 464.55 404 468.85 402.75 473.2 401.6 477.65 400.55 482.15 399.6 486.7 398.75 491.3 398 495.9 397.35 500.55 396.8 505.2 396 514.5 395.6 523.5 395.8 523.7 408.6 523.9 421.25 524.2 434.35 524.7 434.65 524.75 434.9 524.9 439.95 530.4 445.35 536.15 456.55 547.6 467.85 558.8 497.8 587.8 505 594.95 507.8 597.9 509.9 600.2 510.05 600.55 514.15 618.5 518.45 638.65 522.9 660.6 527.5 684.1 537.1 734.85 557.45 844.4 562.7 872.05 568 899.35 573.35 926 578.7 951.8 584.1 976.5 589.05 997.85 589.05 998.2 588.9 998.5 588.65 998.7 588.35 998.75 588.1 998.7 587.85 998.55 291.65 727.7 291.5 727.5 291.45 727.25 290.45 715.55 289.9 707.95 289.45 699.55 289.15 690.95 289.15 682.8 289.3 679.1 289.55 675.95 289.45 675.75 278.75 666.3 263.9 652.95 228.7 621.05 197.3 592.35 182.95 579.15 179.6 575.8 176.45 572.75 165.65 562.8 163.4 560.6 161.3 558.4 159.3 556.2 157.45 553.9 155.75 551.45 154.15 548.75 152.65 545.8 151.25 542.55 149.95 538.95 148.75 534.9 147.6 530.35 146.5 525.3 145.45 519.65 144.45 513.35 143.5 506.35 142.55 498.6 140.7 480.6 138.8 458.9 136.85 433.05 134.7 402.65 132.45 368.85 132.5 368.55 132.75 368.2 133.15 368.05 133.45 368.1 133.7 368.25 218.95 449.45 287.8 514.9 287.95 514.85 287.95 461.6 287.85 461.4 62.05 244.65 41 225.55 36.6 221.45 32.55 217.55 28.8 213.75 25.35 210 22.2 206.25 19.3 202.5 16.65 198.65 14.25 194.65 12.1 190.45 10.2 185.95 8.5 181.15 7 176 5.7 170.45 4.55 164.4 3.55 157.8 2.7 150.65 2 142.85 1.45 134.35 1 125.15 0.65 115.15 0.4 104.3 0.2 92.55 0 66.1 -0.05 1.4 0.05 1 0.35 0.75 0.65 0.7 M1178 0.7 L1178.15 1.15 1178.45 1.2 1178.75 1.45 1178.85 1.85 1178.8 66.55 1178.6 93 1178.4 104.75 1178.15 115.6 1177.8 125.6 1177.35 134.85 1176.8 143.35 1176.1 151.15 1175.25 158.3 1174.25 164.9 1173.1 170.95 1171.8 176.55 1170.3 181.7 1168.6 186.5 1166.65 191 1164.5 195.2 1162.1 199.2 1159.45 203.05 1156.55 206.8 1153.4 210.5 1149.95 214.25 1146.2 218.05 1142.15 221.95 1137.75 226.05 1116.75 245.1 890.95 461.85 890.85 462.05 890.85 515.3 891 515.35 1045.1 368.7 1045.35 368.55 1045.6 368.5 1045.9 368.55 1046.2 368.85 1046.3 369.25 1044 403.05 1041.85 433.45 1039.85 459.3 1037.95 481 1036.1 499 1035.15 506.75 1034.2 513.75 1033.2 520.05 1032.15 525.7 1031.05 530.75 1029.9 535.3 1028.65 539.35 1027.35 543 1025.95 546.25 1024.45 549.2 1022.85 551.85 1021.15 554.3 1019.3 556.6 1017.35 558.8 1015.25 560.95 1013 563.15 1002.25 573.05 999.1 576.1 995.7 579.55 981.4 592.7 950 621.4 914.8 653.3 899.95 666.65 889.25 676.05 889.15 676.25 889.4 679.45 889.55 683.15 889.55 691.25 889.25 699.8 888.8 708.2 888.25 715.8 887.25 727.45 887.2 727.7 887.05 727.9 590.85 998.75 590.6 998.9 590.35 998.95 590.05 998.9 589.8 998.7 589.65 998.4 589.65 998.05 594.55 976.7 599.95 952 605.3 926.2 610.65 899.55 615.95 872.25 621.2 844.6 641.55 735 651.15 684.25 655.75 660.75 660.2 638.8 664.5 618.65 668.6 600.75 668.8 600.4 670.95 598.05 673.75 595.1 680.95 587.95 710.9 559 722.2 547.8 733.4 536.35 738.8 530.6 743.85 525.1 744.1 524.95 744.4 524.9 757.5 524.4 770.15 524.1 782.95 523.9 783.15 523.7 782.75 514.75 781.95 505.4 781.4 500.75 780.75 496.1 780 491.5 779.15 486.9 778.2 482.35 777.15 477.85 776 473.4 774.75 469.05 773.4 464.75 771.95 460.55 770.4 456.45 768.75 452.45 767 448.6 765.15 444.85 763.2 441.25 761.15 437.8 759 434.5 756.75 431.35 754.4 428.35 751.95 425.55 749.35 422.95 746.65 420.55 743.85 418.35 740.95 416.35 737.9 414.55 734.75 413 731.5 411.7 729.15 410.95 728.85 410.75 728.65 410.4 728.65 410 728.85 409.7 733.05 405.6 740 399 759.35 380.9 785.05 357.15 815.95 328.8 888.8 262.35 968.85 189.65 1046.95 118.9 1177.5 0.9 1177.75 0.75 1178 0.7 M547.8 597.7 L547.85 597.7 628.55 598.45 628.85 598.5 629.1 598.65 629.25 598.9 629.3 599.2 588.45 805.6 588.35 805.85 587.95 806.15 587.7 806.2 587.45 806.15 587.05 805.85 586.95 805.6 547.1 598.55 547.1 598.25 547.25 597.95 547.5 597.75 547.8 597.7 M669.75 374.05 L670.05 374.1 670.25 374.2 670.45 374.55 670.45 374.75 666.45 488.9 666.4 489.2 666.2 489.45 588.7 557.5 588.45 557.65 588.2 557.7 587.95 557.65 587.7 557.5 510.45 489.45 510.25 489.2 510.2 488.9 506.2 374.9 506.3 374.5 506.6 374.2 506.9 374.15 507.15 374.2 507.4 374.35 588.3 446.6 588.6 446.6 669.25 374.25 669.5 374.1 669.75 374.05 M523.05 152.7 L523.15 152.75 523.55 152.85 523.8 153.15 556 225.95 588.1 250.5 588.35 250.5 620.8 226.05 620.9 225.9 643 153.5 643.25 153.1 643.45 153 643.75 152.95 644.2 153.15 644.45 153.6 665.45 288.1 665.4 288.45 665.2 288.75 647.35 304.25 647.25 304.45 647.7 351.35 647.65 351.65 647.45 351.9 588.9 403.45 588.65 403.6 588.4 403.65 588.15 403.6 587.9 403.45 529.4 351.9 529.2 351.65 529.15 351.35 529.6 304.45 529.5 304.25 511.6 288.75 511.4 288.45 511.35 288.15 522.3 153.4 522.5 152.95 522.7 152.8 523.05 152.7"/>
  </g>
</svg>