<?xml version="1.0" encoding="UTF-8" standalone="no"?>
<svg width="1020px" height="1020px" viewBox="0 0 1020 1020" version="1.1" xmlns="http://www.w3.org/2000/svg" xmlns:xlink="http://www.w3.org/1999/xlink" xmlns:sketch="http://www.bohemiancoding.com/sketch/ns">
    <!-- Generator: Sketch 3.2.2 (9983) - http://www.bohemiancoding.com/sketch -->
    <title>rank-2</title>
    <desc>Created with Sketch.</desc>
    <defs></defs>
    <g id="Icons" stroke="none" stroke-width="1" fill="none" fill-rule="evenodd" sketch:type="MSPage">
        <g id="rank-2" sketch:type="MSArtboardGroup" fill="#FD7022">
            <path d="M510.366211,779.008791 L460.540908,526.813813 L408.280768,473.2501 L320.774492,473.2501 L220,376.814453 C220,376.814453 225.244141,476.572266 232.042969,490.158202 C238.841797,503.744138 249.386719,510.80078 249.386719,510.80078 L320.774492,578.59375 L320.774492,607.419699 L510.11193,780.295854 L510,780.862399 L510.366211,780.528027 L510.732422,780.862399 L510.620492,780.295854 L699.95793,607.419699 L699.95793,578.59375 L771.345703,510.80078 C771.345703,510.80078 781.890625,503.744138 788.689453,490.158202 C795.488281,476.572266 800.732422,376.814453 800.732422,376.814453 L699.95793,473.2501 L612.451654,473.2501 L560.191514,526.813813 L510.366211,779.008791 Z M510.732422,400.695722 L510.732422,400.835946 L510.652344,400.765834 L510.572266,400.835946 L510.572266,400.695722 L473.052734,367.845703 L473.052734,337.937493 L461.572266,327.693359 L468.386719,240 L490.333984,287.861328 L510.652344,302.94057 L530.970703,287.861328 L552.917969,240 L559.732422,327.693359 L548.251953,337.937493 L548.251953,367.845703 L510.732422,400.695722 L510.732422,400.695722 Z M510.732422,428.214844 L510.732422,499.214844 L460.732422,456.214844 L457.732422,381.214844 L510.732422,428.214844 Z M510.732422,427.214844 L510.732422,498.214844 L560.732422,455.214844 L563.732422,380.214844 L510.732422,427.214844 Z M509.585972,524.214844 L509.585972,660.214844 L483.585972,524.214844 L509.585972,524.214844 Z M509.585972,524.214844 L509.585972,660.214844 L535.585972,524.214844 L509.585972,524.214844 Z" sketch:type="MSShapeGroup"></path>
        </g>
    </g>
</svg>