<?xml version="1.0" encoding="UTF-8" standalone="no"?>
<svg width="1020px" height="1020px" viewBox="0 0 1020 1020" version="1.1" xmlns="http://www.w3.org/2000/svg" xmlns:xlink="http://www.w3.org/1999/xlink" xmlns:sketch="http://www.bohemiancoding.com/sketch/ns">
    <!-- Generator: Sketch 3.2.2 (9983) - http://www.bohemiancoding.com/sketch -->
    <title>rank-8</title>
    <desc>Created with Sketch.</desc>
    <defs></defs>
    <g id="Icons" stroke="none" stroke-width="1" fill="none" fill-rule="evenodd" sketch:type="MSPage">
        <g id="rank-8" sketch:type="MSArtboardGroup" fill="#FD7022">
            <path d="M713.429425,527.367507 C723.929893,541.52562 728.280275,552.290851 727.331568,562.197 C726.368674,572.251279 720.953523,579.606649 707.980692,591.489331 C699.57113,598.946093 663.607117,631.116017 608.838616,680.154888 C586.774228,699.911016 563.139569,721.078361 539.508787,742.245715 C532.156533,748.831521 525.271503,754.999154 518.991917,760.6247 C519.646462,761.211113 519.729873,761.285844 520.003748,761.531219 L521.525247,763.660844 L565.542219,867.631968 C581.405818,852.548035 645.139022,791.94255 645,792 C675,760 646,720 675,694 C675.429228,693.61719 832.330996,541.850799 832,542 C856,517 853.101907,484.390184 853,453 C853.101907,453.219227 808,494 808,494 L808,478 L911,380 C933,358 930.984343,329.325074 931,274 C930.984343,274.457795 877,324 877,324 L877,307 C877,307 993.137622,198.946244 993,199 C1007.29865,184.534944 1015,159.61809 1015,79 C1015,79 833.048742,246.008401 810.321396,266.86925 L810.321396,266.86925 C810.706723,286.253534 809.373646,306.703757 805.453187,326.315354 C800.295373,352.116655 791.118199,373.347892 776.999823,388.436331 L776.996314,436.78971 C776.999579,436.882828 777.003652,437.033675 777.007452,437.239199 C777.049311,439.503117 776.97613,442.482501 776.696952,445.931615 C776.273871,451.158572 775.455627,456.338268 774.134637,461.239192 C771.870307,469.63994 768.321881,476.5539 763.067815,481.410542 C758.329058,485.781068 749.59955,493.857963 737.991522,504.609042 C731.663934,510.469514 724.886899,516.748695 718.111606,523.02789 C716.462536,524.556212 714.895488,526.008617 713.429425,527.367507 Z M705.989245,517.901769 C692.599252,500.82684 688.237882,488.163874 690.496187,477.839891 C692.341528,469.4038 697.181595,463.405305 711.099652,450.380965 C716.80029,444.868855 720.815566,441.069367 725.302808,436.919741 C726.220923,436.071427 736.96595,426.209477 741.640956,421.876605 C748.164179,415.830777 755.686897,408.788288 765,399.992824 L765,437 C765.004659,437.238037 765.006945,437.322681 765.009503,437.461034 C765.044433,439.350255 764.980835,441.939511 764.736069,444.963477 C764.367958,449.511311 763.660655,453.988728 762.548145,458.116179 C760.820623,464.525349 758.261232,469.512215 754.927268,472.593997 C750.185128,476.967638 741.451737,485.048126 729.87969,495.76588 C723.508785,501.666472 716.730841,507.946495 709.95467,514.226504 C708.571434,515.508458 707.245896,516.737007 705.989245,517.901769 Z M243,388.439764 C228.895823,373.380324 219.708567,352.136364 214.546813,326.315354 C210.692592,307.035106 209.339062,286.94433 209.660549,267.852678 L209.660549,267.852678 C186.855085,246.920126 5,80 5,80 C4.99999901,160.61809 12.7013485,185.534944 27,200 C26.8623783,199.946244 143,308 143,308 L143,325 C143,325 89.015657,275.457795 89,275 C89.015657,330.325074 87,359 109,381 L212,479 L212,495 C212,495 166.898093,454.219227 167,454 C166.898093,485.390184 164,518 188,543 C187.669004,542.850799 344.570772,694.61719 345,695 C374,721 345,761 375,793 C374.861843,792.942907 437.803031,852.795707 454.155933,868.344955 L454.155933,868.344955 L498.474753,763.660844 L499.996252,761.531219 C500.270127,761.285844 500.353538,761.211113 501.008083,760.6247 C494.728497,754.999154 487.843467,748.831521 480.491213,742.245715 C456.860431,721.078361 433.225772,699.911016 411.068003,680.071276 C356.392883,631.116017 320.42887,598.946093 311.947138,591.424286 C299.046477,579.606649 293.631326,572.251279 292.668432,562.197 C291.720488,552.298818 296.063114,541.542934 306.572024,527.36885 C305.105545,526.009574 303.538007,524.556716 301.888394,523.02789 C295.113101,516.748695 288.336066,510.469514 281.966227,504.56991 C270.40045,493.857963 261.670942,485.781068 256.927268,481.406002 C251.678119,476.5539 248.129693,469.63994 245.865363,461.239192 C244.544373,456.338268 243.726129,451.158572 243.303048,445.931615 C243.02387,442.482501 242.950689,439.503117 243,437 L243,388.439764 Z M255,399.992607 C264.322563,408.797144 271.839923,415.834578 278.359044,421.876605 C283.03405,426.209477 293.779077,436.071427 294.32058,436.571653 C299.184434,441.069367 303.19971,444.868855 308.828842,450.312939 C322.818405,463.405305 327.658472,469.4038 329.503813,477.839891 C331.763934,488.172177 327.393729,500.847208 314.011495,517.902454 C312.754624,516.737489 311.428838,515.508709 310.04533,514.226504 C303.269159,507.946495 296.491215,501.666472 290.162569,495.80502 C278.548263,485.048126 269.814872,476.967638 265.067815,472.589458 C261.738768,469.512215 259.179377,464.525349 257.451855,458.116179 C256.339345,453.988728 255.632042,449.511311 255.263931,444.963477 C255.019165,441.939511 254.955567,439.350255 254.990497,437.461034 C254.993055,437.322681 255,437 255,437 L255,399.992607 L255,399.992607 Z M457.776221,890.573923 L510,940 L510,768.047276 C510,768.047276 510,768.047276 510,768.047276 L510,939 L561.921527,889.859983 L510.474753,768.339155 C510.474753,768.339155 510.31651,768.223031 510.043151,768.020039 C510.02878,768.02913 510.014397,768.038209 510,768.047276 L457.776221,890.573923 Z M511.850379,750.911375 L544,593 L574,564 L610,564 L647,527 C647,527 654,503 615,468 L615,430 L798.03547,258.524665 C799.025702,279.58311 797.99233,302.421192 793.686004,323.963034 C788.622584,349.292144 779.517874,369.469824 765.832394,382.683628 C752.18579,395.622263 741.978962,405.201969 733.483842,413.075384 C728.835373,417.383661 718.100219,427.23655 717.53675,427.757067 C712.601674,432.320642 708.521471,436.181568 702.828842,441.687061 C695.283035,448.74722 691.909566,452.126231 688.32686,456.566427 C683.414499,462.654518 680.217857,468.672041 678.773371,475.2756 C675.446622,490.484041 681.810109,507.524743 699.37117,528.817582 C711.478649,543.815669 716.092206,553.681311 715.386223,561.053 C714.799101,567.183572 710.758321,572.67214 699.947138,582.575714 C691.586915,589.987676 655.633736,622.147908 600.927243,671.131259 C578.768791,690.97161 555.133549,712.139478 531.502203,733.307336 C524.486095,739.592038 517.895452,745.495942 511.850379,750.911375 L511.850379,750.911375 Z M221.920851,259.483744 L405,431 L405,469 C366,504 373,528 373,528 L410,565 L446,565 L476,594 L507.900612,750.688302 C501.923704,745.333942 495.417688,739.505852 488.497797,733.307336 C464.866451,712.139478 441.231209,690.97161 419.166142,671.214874 C364.366264,622.147908 328.413085,589.987676 319.980692,582.510669 C309.241679,572.67214 305.200899,567.183572 304.613777,561.053 C303.907794,553.681311 308.521351,543.815669 320.66855,528.768904 C338.189891,507.524743 344.553378,490.484041 341.226629,475.2756 C339.782143,468.672041 336.585501,462.654518 331.67314,456.566427 C328.090434,452.126231 324.716965,448.74722 317.099652,441.619034 C311.478529,436.181568 307.398326,432.320642 302.844562,428.109498 C301.899781,427.23655 291.164627,417.383661 286.516158,413.075384 C278.021038,405.201969 267.81421,395.622263 254.128252,382.645975 C240.482126,369.469824 231.377416,349.292144 226.313996,323.963034 C222.072965,302.74782 221.006388,280.275378 221.920887,259.48378 L221.920851,259.483744 Z M510,590 L510,699 L490,590 L510,590 Z M510,590 L510,699 L530,590 L510,590 Z M498,453 L510,462 L510,520 L488,501 L488,483 L481,478 L491,363 L495,387 L498,453 Z M522,453 L510,462 L510,520 L532,501 L532,483 L539,478 L529,363 L525,387 L522,453 Z M510,536 L510,578 L483,553 L429,553 L443,540 L478,535 L478,522 L455,522 L468,510 L481,509 L510,536 Z M510,536 L510,578 L537,553 L591,553 L577,540 L542,535 L542,522 L565,522 L552,510 L539,509 L510,536 Z" sketch:type="MSShapeGroup"></path>
        </g>
    </g>
</svg>