<svg id="Layer_1" data-name="Layer 1" xmlns="http://www.w3.org/2000/svg" viewBox="0 0 100 120"><defs><style>.cls-1{fill:#ffeb00;}</style></defs><title>communitygoal</title><rect x="6.82" y="6.86" width="86.36" height="86.96"/><path class="cls-1" d="M0,0V100.69H38.91L50,120l11.09-19.31H100V0ZM93.18,93.82H6.82v-87H93.18Z"/><path class="cls-1" d="M35.94,61.82,29,74.8a2.69,2.69,0,0,1-4.94-.43L16.18,50a2.69,2.69,0,0,1,3.74-3.25l13.22,6.45A6.28,6.28,0,0,1,35.94,61.82Z"/><path class="cls-1" d="M64,61.82l6.91,13a2.69,2.69,0,0,0,4.93-.43L83.75,50A2.69,2.69,0,0,0,80,46.77L66.78,53.22A6.28,6.28,0,0,0,64,61.82Z"/><path class="cls-1" d="M36.78,42,21.11,39.25A2.69,2.69,0,0,1,20,34.42l22.06-16a2.69,2.69,0,0,1,4.25,2.55L44.1,36.7A6.29,6.29,0,0,1,36.78,42Z"/><path class="cls-1" d="M63.35,42,79,39.25a2.69,2.69,0,0,0,1.11-4.83l-22.06-16a2.69,2.69,0,0,0-4.25,2.55L56,36.7A6.29,6.29,0,0,0,63.35,42Z"/><path class="cls-1" d="M54.51,68.74l9.18,9.51a2.69,2.69,0,0,1-1.93,4.56H38.22a2.69,2.69,0,0,1-1.94-4.56l9.18-9.51A6.28,6.28,0,0,1,54.51,68.74Z"/></svg>