<svg id="Layer_1" data-name="Layer 1" xmlns="http://www.w3.org/2000/svg" viewBox="0 0 100 120"><defs><style>.cls-1{fill:#f7931e;}</style></defs><title>mission</title><rect x="6.82" y="6.86" width="86.36" height="86.96"/><path class="cls-1" d="M0,0V100.69H38.91L50,120l11.09-19.31H100V0ZM93.18,93.82H6.82v-87H93.18Z"/><path class="cls-1" d="M50,16.27A34.08,34.08,0,1,0,84.07,50.34,34.11,34.11,0,0,0,50,16.27ZM80.13,49H70.39a53.29,53.29,0,0,0-3.27-17.23,32.56,32.56,0,0,0,4.65-2.33A30,30,0,0,1,80.13,49ZM64.67,68A45.27,45.27,0,0,0,51.3,65.67v-14H67.78A50.25,50.25,0,0,1,64.67,68ZM48.69,49H32.22a50.36,50.36,0,0,1,3.11-16.32,44.32,44.32,0,0,0,13.36,2.35ZM19.87,49a30,30,0,0,1,8.36-19.56,31.78,31.78,0,0,0,4.67,2.33A53,53,0,0,0,29.61,49Zm10.33,24a27.76,27.76,0,0,1,3.67-1.8,43.51,43.51,0,0,0,3.45,6.44A30,30,0,0,1,30.2,73.08Zm-2-1.88a30,30,0,0,1-8.36-19.55h9.74A52.87,52.87,0,0,0,32.9,68.87,33.89,33.89,0,0,0,28.23,71.2Zm5.63-41.8a31,31,0,0,1-3.66-1.79A29.68,29.68,0,0,1,37.32,23,44.93,44.93,0,0,0,33.86,29.4ZM48.69,80.48a30.29,30.29,0,0,1-7-1.12,39.79,39.79,0,0,1-5.39-9,42.48,42.48,0,0,1,12.37-2.11ZM35.33,68a50.25,50.25,0,0,1-3.11-16.31H48.69v14A44.45,44.45,0,0,0,35.33,68ZM69.8,27.61a29,29,0,0,1-3.67,1.79A43.8,43.8,0,0,0,62.68,23,29.34,29.34,0,0,1,69.8,27.61Zm-18.5-7.4a28.93,28.93,0,0,1,7,1.13,39.48,39.48,0,0,1,5.38,9A42.06,42.06,0,0,1,51.3,32.41Zm0,14.86a44.44,44.44,0,0,0,13.37-2.35A50.36,50.36,0,0,1,67.78,49H51.3Zm-2.61-2.66A41.82,41.82,0,0,1,36.32,30.3a40.17,40.17,0,0,1,5.39-9,29.25,29.25,0,0,1,7-1.12ZM51.3,80.48V68.27a42.38,42.38,0,0,1,12.38,2.11,39.37,39.37,0,0,1-5.37,9A29.51,29.51,0,0,1,51.3,80.48ZM62.68,77.7a42.84,42.84,0,0,0,3.46-6.42,31.08,31.08,0,0,1,3.66,1.8A29.3,29.3,0,0,1,62.68,77.7Zm9.09-6.5a34.8,34.8,0,0,0-4.65-2.33,53.33,53.33,0,0,0,3.27-17.22h9.74A30,30,0,0,1,71.77,71.2Z"/></svg>