<?xml version="1.0" encoding="utf-8"?>
<!-- Generator: Adobe Illustrator 16.0.0, SVG Export Plug-In . SVG Version: 6.00 Build 0)  -->
<!DOCTYPE svg PUBLIC "-//W3C//DTD SVG 1.1//EN" "http://www.w3.org/Graphics/SVG/1.1/DTD/svg11.dtd">
<svg version="1.1" id="Layer_1" xmlns="http://www.w3.org/2000/svg" xmlns:xlink="http://www.w3.org/1999/xlink" x="0px" y="0px"
	 width="588.832px" height="517.592px" viewBox="0 0 588.832 517.592" enable-background="new 0 0 588.832 517.592"
	 xml:space="preserve">
<path fill="#FFFFFF" d="M208.473,346.04c-1.39-1.38-55.67-51.58-56.92-52.74c0,4.69,0,11.48,0.1,14.94c0,7.71-0.1,10.67,10.08,20.85
	c5.56,5.25,29.73,27.2,51.89,47.91c0-0.56-0.6-19-0.6-20.24C212.961,352.729,211.329,348.883,208.473,346.04"/>
<path fill="#FFFFFF" d="M176.393,270.509c-4.25-3.8-5.67-7.5-5.86-11.52c0.007-4.027,1.254-7.955,3.57-11.25
	c1-1.47,4.43-5.339,4.65-5.609c-3.32-3.111-22.06-20.701-24.39-22.83c-3.507-3.318-6.01-7.557-7.22-12.23
	c-0.805-3.461-1.181-7.008-1.12-10.561c0-1.78,0.09-6.129,0-12.229c0.23-0.69-0.28-11.141-0.23-13
	c-7.92-8.281-12.19-20.331-14.93-34.931c-1.554-8.603-2.351-17.327-2.38-26.069C109.583,93.199,7.343,0.009,7.343,0.009
	c-0.29,44.57,18.66,66.43,35.6,83.19l34.71,33.36v8.71c0,0-27.09-25-27.1-25.29c0,30.801,5.91,45.671,31.84,73.79l31.39,30.52v8.531
	c0,0-23.12-21.371-23.06-21.5c-2.37,18.119-0.91,34.579,21.12,56.609c-0.07,0,98.55,91.07,100,92.551c5.05,5,6.41,12.319,6.41,18.14
	v13c0.116,2.373,0.356,4.741,0.72,7.09c0.289,1.178,0.712,2.318,1.26,3.4c0.4,0.6,1.21,1.92,1.64,2.41l0.42,0.489l44.74,42.271
	l23.55-54.7L176.393,270.509z"/>
<path fill="#FFFFFF" d="M151.433,195.189c0,7.78,1.2,13.15,7.16,19.11c2.4,2.21,24.31,22.22,24.31,22.22
	c16.53-18.79,0.93-30.32,1.25-30c0,0-27.27-24.94-32.36-29.88c-0.11,3.22-0.25,6-0.36,6.32
	C151.503,189.159,151.423,193.479,151.433,195.189"/>
<path fill="#FFFFFF" d="M151.913,167.7c7.6,7.42,33.47,31.48,35.94,33.95c11.26,11.33,11,26-0.33,39.78c-0.37,0.44-7,8.72-7.86,10
	c-3.8,5.39-3.5,10.37,7.5,21.379c4.42,3.94,106.17,92.101,106.17,92.101l-15.08-77.3l-11.19-15.5l-24.92-1.11
	c-17.6-1.76-27.74-23.9-0.51-48.45V204.2l-106.77-99.23c-0.19,9.77,0,19.79,2.2,29.93C139.683,148.91,144.583,160.51,151.913,167.7"
	/>
<polygon fill="#FFFFFF" points="269.373,440.66 282.443,453.599 288.193,417.61 295.553,406.719 302.923,417.61 308.663,453.599 
	321.733,440.66 295.553,378.219 "/>
<path fill="#FFFFFF" d="M295.583,499.179c3.076-0.012,5.975-1.439,7.86-3.869c4.859-6.311,5.76-9.561,4.79-16
	c-1.07-6.12-9.87-60.561-9.87-60.561l-2.78-3.921l-2.78,3.891c0,0-8.79,54.439-9.87,60.561c-1,6.47-0.07,9.72,4.79,16
	c1.885,2.43,4.784,3.857,7.86,3.87V499.179z"/>
<polygon fill="#FFFFFF" points="295.553,277.04 274.853,271.83 284.993,284.99 295.553,339.74 306.113,284.99 316.263,271.83 "/>
<polygon fill="#FFFFFF" points="310.353,227.5 305.463,169.83 303.243,181.589 302.133,215.639 295.553,211.199 288.974,215.639 
	287.863,181.589 285.644,169.83 280.752,227.5 283.942,230.719 284.083,237.589 295.553,242.409 307.582,237.589 307.443,230.429 
	"/>
<path fill="#FFFFFF" d="M348.963,271l-24.899,1.11l-11.19,15.5l-15.09,77.3c0,0,101.8-88.16,106.17-92.1c11-11,11.3-16,7.5-21.381
	c-0.851-1.28-7.5-9.56-7.86-10c-11.29-13.8-11.59-28.45-0.34-39.78c2.48-2.47,28.35-26.53,36-33.95
	c7.33-7.19,12.15-18.79,14.771-32.79c2.22-10.14,2.419-20.16,2.22-29.93l-106.771,99.22v18.35
	C376.713,247.099,366.583,269.24,348.963,271"/>
<path fill="#FFFFFF" d="M408.203,236.52c0,0,21.91-20,24.31-22.22c6-6,7.169-11.33,7.16-19.11c0-1.71-0.07-6,0-12.23
	c-0.109-0.29-0.241-3.1-0.35-6.32c-5.09,4.94-32.36,29.88-32.36,29.88C407.273,206.2,391.673,217.729,408.203,236.52"/>
<polygon fill="#FFFFFF" points="333.333,259.52 309.513,259.52 295.553,271.66 281.593,259.52 257.783,259.52 263.853,253.899 
	280.223,251.209 280.223,245.2 269.093,245.2 275.723,239.529 281.353,239.009 284.883,242.45 295.553,247.429 306.233,242.45 
	309.763,239.009 315.383,239.529 322.013,245.2 310.893,245.2 310.893,251.209 327.263,253.899 "/>
<path fill="#FFFFFF" d="M382.643,346.04c-2.859,2.842-4.492,6.688-4.55,10.72c0,1.29-0.569,19.681-0.609,20.24
	c22.159-20.71,46.33-42.66,51.899-47.91c10.2-10.18,10.07-13.18,10.07-20.85c0.149-3.46,0.14-10.25,0.1-14.94
	C438.313,294.459,384.023,344.66,382.643,346.04"/>
<path fill="#FFFFFF" d="M462.633,110.32c-0.032,8.743-0.832,17.466-2.39,26.07c-2.73,14.6-7,26.65-14.93,34.93
	c0,1.82-0.451,12.27-0.23,13c-0.08,6.1,0,10.45,0,12.23c0.064,3.552-0.309,7.099-1.11,10.56c-1.214,4.674-3.719,8.913-7.229,12.23
	c-2.32,2.13-21.061,19.72-24.391,22.83c0.23,0.28,3.681,4.14,4.65,5.61c2.316,3.283,3.566,7.201,3.58,11.22
	c-0.18,4-1.6,7.71-5.85,11.509L300.583,372.58l23.48,54.69L368.813,385l0.43-0.491c0.42-0.488,1.26-1.809,1.649-2.408
	c0.541-1.081,0.95-2.223,1.22-3.4c0.373-2.349,0.617-4.715,0.73-7.09v-13c0-5.82,1.36-13.09,6.41-18.141
	c1.48-1.479,100.07-92.58,100-92.549c22-22,23.5-38.49,21.14-56.61c0.061,0.13-23,21.5-23,21.5v-8.53l31.33-30.52
	c25.92-28.12,31.62-43,31.62-73.79c0,0.25-27.37,25.29-27.37,25.29v-8.71l35-33.36C564.903,66.43,584.073,44.57,583.783,0
	C583.703,0.01,481.493,93.2,462.633,110.32"/>
<polygon points="551.583,226.41 551.583,226.41 551.583,222.569 "/>
<polygon fill="#F49700" points="295.55,64.732 305.953,96.767 339.637,96.767 312.384,116.552 322.787,148.586 295.55,128.785 
	268.313,148.586 278.717,116.552 251.479,96.767 285.146,96.767 "/>
<polygon fill="#F49700" points="221.2,101.68 228.118,122.973 250.503,122.973 232.393,136.138 239.311,157.431 221.2,144.278 
	203.09,157.431 210.008,136.138 191.897,122.973 214.283,122.973 "/>
<path fill="#F49700" d="M371.983,392.56l41.109-36.65c0.276-0.246,0.631-0.383,1-0.39h42.49c0.855-0.025,1.569,0.647,1.594,1.504
	c0.015,0.492-0.206,0.962-0.594,1.265l-46.46,36.621c-0.286,0.221-0.639,0.337-1,0.33h-37.11c-0.855-0.017-1.535-0.725-1.519-1.58
	C371.502,393.242,371.679,392.845,371.983,392.56"/>
<path fill="#F49700" d="M452.643,286.74h94.94c0.363,0.01,0.718-0.111,1-0.34l39.67-31.69c0.667-0.536,0.773-1.512,0.236-2.179
	c-0.143-0.178-0.322-0.321-0.526-0.421l-12.43-6.09c-1.153-0.559-2.419-0.849-3.7-0.85h-77.4c-0.389-0.001-0.764,0.146-1.05,0.41
	l-41.8,38.47c-0.63,0.58-0.67,1.561-0.09,2.19C451.788,286.561,452.206,286.743,452.643,286.74"/>
<path fill="#F49700" d="M425.583,343.719c22.09-20.359,21.82-27.149,21.79-48.859c-0.006-0.856,0.684-1.555,1.54-1.561h0.01h86.47
	c0.862-0.008,1.567,0.684,1.576,1.545c0.004,0.475-0.208,0.926-0.576,1.226l-63.26,50c-0.285,0.222-0.639,0.337-1,0.33h-45.55
	c-0.855-0.034-1.522-0.753-1.489-1.608C425.109,344.383,425.285,343.999,425.583,343.719"/>
<path fill="#F49700" d="M553.363,311.03c-0.761,2.55-1.54,5.08-2.36,7.61c-0.26,0.815,0.19,1.688,1.006,1.947
	c0.324,0.104,0.674,0.098,0.994-0.018l25.19-9.94c0.795-0.315,1.696,0.073,2.013,0.868c0.117,0.297,0.141,0.622,0.067,0.931
	l-5.54,23.392c-0.117,0.494-0.468,0.9-0.94,1.09l-34.86,13.75c-0.366,0.148-0.663,0.431-0.829,0.79c-1.921,4.16-3.921,8.267-6,12.32
	c-0.402,0.756-0.115,1.694,0.641,2.096c0.34,0.181,0.735,0.228,1.109,0.134l30.869-7.89c0.829-0.213,1.674,0.288,1.887,1.117
	c0.084,0.33,0.058,0.679-0.076,0.991l-9.84,22.881c-0.183,0.434-0.55,0.761-1,0.891l-41.67,10.66
	c-0.36,0.09-0.677,0.307-0.891,0.608c-3.267,4.734-6.683,9.368-10.25,13.901c-0.534,0.668-0.426,1.643,0.242,2.179
	c0.318,0.254,0.724,0.373,1.128,0.331l35.63-3.649c0.852-0.087,1.612,0.533,1.698,1.386c0.036,0.361-0.055,0.724-0.258,1.022
	l-14.51,21.321c-0.257,0.382-0.672,0.628-1.131,0.67l-47.569,4.88c-0.343,0.032-0.663,0.181-0.91,0.419
	c-5.247,5.114-10.674,10-16.28,14.661c-0.662,0.534-0.765,1.504-0.23,2.166c0.258,0.319,0.633,0.522,1.041,0.564l37.25,4.08
	c0.851,0.089,1.469,0.852,1.379,1.703c-0.039,0.374-0.213,0.721-0.489,0.977l-19.09,17.76c-0.334,0.303-0.782,0.448-1.231,0.4
	l-48.759-5.33c-0.349-0.044-0.702,0.034-1,0.22c-7.427,4.667-15.054,8.957-22.88,12.87c-0.768,0.367-1.091,1.287-0.724,2.053
	c0.186,0.389,0.523,0.681,0.934,0.808l35.1,11.26c0.816,0.26,1.267,1.131,1.008,1.947c-0.126,0.396-0.406,0.725-0.777,0.913
	l-25.18,12.658c-0.364,0.18-0.783,0.212-1.171,0.092l-45.199-14.46c-0.324-0.111-0.676-0.111-1,0c-8,2.666-16.13,4.933-24.391,6.8
	c-3.77,0.86-7.523-1.496-8.385-5.267c-0.861-3.768,1.496-7.522,5.265-8.384c99.659-22.75,176.83-103.609,201.19-203.3
	c0.17-0.692,0.788-1.178,1.5-1.18h3c1.134,0.001,2.233-0.385,3.12-1.09l3.899-3.12l5-3.95l25.431-20.32
	c0.671-0.532,1.646-0.418,2.177,0.253c0.235,0.297,0.354,0.669,0.333,1.047l-1.201,22.15c-0.021,0.477-0.265,0.918-0.659,1.19
	l-32.17,22.3C553.703,310.383,553.473,310.68,553.363,311.03"/>
<path fill="#F49700" d="M569.223,238.91l-14.87-21.64c-0.483-0.707-1.446-0.889-2.153-0.406c-0.419,0.286-0.672,0.759-0.676,1.266
	l-0.28,21.64c-0.006,0.862,0.688,1.564,1.55,1.57h15.15c0.855,0.002,1.551-0.69,1.554-1.546
	C569.497,239.478,569.402,239.169,569.223,238.91"/>
<path fill="#F49700" d="M216.803,392.56l-41.1-36.65c-0.279-0.242-0.632-0.379-1-0.39h-42.52c-0.856-0.025-1.569,0.647-1.594,1.504
	c-0.015,0.492,0.206,0.962,0.594,1.265l46.49,36.621c0.285,0.222,0.638,0.338,1,0.33h37.14c0.855-0.038,1.517-0.763,1.479-1.618
	C217.274,393.217,217.098,392.836,216.803,392.56"/>
<path fill="#F49700" d="M136.153,286.74h-94.9c-0.363,0.007-0.717-0.113-1-0.34l-39.67-31.69c-0.669-0.534-0.778-1.51-0.243-2.178
	c0.142-0.178,0.32-0.322,0.523-0.422l12.44-6.09c1.153-0.56,2.418-0.851,3.7-0.85h77.31c0.39-0.002,0.765,0.145,1.05,0.41
	l41.8,38.47c0.63,0.58,0.671,1.561,0.091,2.19C136.97,286.548,136.572,286.729,136.153,286.74"/>
<path fill="#F49700" d="M163.243,343.719c-22.09-20.359-21.81-27.149-21.79-48.859c0.005-0.856-0.684-1.555-1.54-1.561h-0.01h-86.47
	c-0.856-0.024-1.569,0.648-1.594,1.505c-0.014,0.492,0.206,0.962,0.594,1.266l63.25,50c0.287,0.218,0.639,0.334,1,0.33h45.51
	c0.856-0.006,1.545-0.705,1.539-1.561C163.729,344.415,163.552,344.01,163.243,343.719"/>
<path fill="#F49700" d="M35.433,311.03c0.75,2.55,1.54,5.08,2.36,7.61c0.26,0.815-0.19,1.688-1.006,1.947
	c-0.324,0.104-0.674,0.098-0.994-0.018l-25.21-9.94c-0.796-0.315-1.697,0.073-2.013,0.868c-0.117,0.297-0.141,0.622-0.067,0.931
	l5.54,23.392c0.114,0.496,0.466,0.904,0.94,1.09l34.85,13.75c0.369,0.146,0.666,0.429,0.83,0.79c1.933,4.16,3.95,8.267,6.05,12.32
	c0.402,0.756,0.115,1.694-0.641,2.096c-0.34,0.181-0.736,0.228-1.109,0.134l-30.88-7.89c-0.829-0.213-1.674,0.288-1.886,1.117
	c-0.085,0.33-0.058,0.679,0.076,0.991l9.83,22.882c0.184,0.431,0.55,0.757,1,0.89l41.68,10.66c0.357,0.091,0.67,0.307,0.88,0.608
	c3.267,4.734,6.683,9.368,10.25,13.901c0.535,0.668,0.426,1.643-0.242,2.179c-0.318,0.254-0.723,0.373-1.128,0.331l-35.63-3.649
	c-0.852-0.086-1.612,0.533-1.698,1.386c-0.036,0.361,0.055,0.724,0.258,1.022l14.51,21.321c0.255,0.38,0.665,0.625,1.12,0.67
	l47.57,4.88c0.346,0.03,0.671,0.179,0.92,0.419c5.253,5.114,10.68,10,16.28,14.661c0.657,0.548,0.745,1.526,0.196,2.184
	c-0.256,0.306-0.619,0.502-1.016,0.547l-37.25,4.08c-0.851,0.089-1.469,0.852-1.38,1.703c0.039,0.374,0.214,0.722,0.49,0.977
	l19.1,17.76c0.329,0.305,0.774,0.451,1.22,0.4l48.76-5.33c0.349-0.041,0.701,0.036,1,0.22c7.42,4.667,15.046,8.957,22.88,12.87
	c0.765,0.385,1.073,1.316,0.689,2.081c-0.187,0.371-0.514,0.651-0.909,0.779l-35.07,11.26c-0.815,0.263-1.262,1.137-0.999,1.951
	c0.127,0.395,0.408,0.723,0.779,0.909l25.18,12.658c0.364,0.181,0.783,0.213,1.17,0.092l45.2-14.46c0.309-0.101,0.641-0.101,0.95,0
	c8,2.666,16.127,4.933,24.38,6.8c3.769,0.86,7.523-1.496,8.385-5.267c0.862-3.768-1.496-7.522-5.265-8.384
	c-99.62-22.75-176.78-103.609-201.11-203.3c-0.17-0.692-0.788-1.178-1.5-1.18h-3.05c-1.134,0.001-2.234-0.385-3.12-1.09l-3.9-3.12
	l-5-3.95l-25.42-20.32c-0.666-0.537-1.643-0.433-2.18,0.234c-0.242,0.3-0.363,0.681-0.34,1.065l1.2,22.15
	c0.026,0.479,0.273,0.919,0.67,1.19l32.17,22.3C35.093,310.383,35.324,310.68,35.433,311.03"/>
<path fill="#F49700" d="M19.583,238.91l14.88-21.64c0.483-0.707,1.447-0.889,2.154-0.406c0.419,0.286,0.672,0.759,0.676,1.266
	l0.27,21.64c0.017,0.85-0.659,1.553-1.51,1.57c-0.013,0-0.027,0-0.04,0h-15.17c-0.856-0.009-1.543-0.71-1.534-1.566
	C19.312,239.464,19.408,239.164,19.583,238.91"/>
<path fill="#F49700" d="M166.723,436.81c0.96,0.83-0.21,2.31-1.25,1.569c-37.74-27.1-66.48-65.7-80.98-110.591l20.45,16.161
	C117.273,380.539,138.853,412.53,166.723,436.81"/>
<path fill="#F49700" d="M96.173,237.26c-0.16,1.02-0.32,2.04-0.46,3.06c-0.44-0.1-0.9-0.15-1.37-0.15h-19.31
	c1.65-17.14,5.29-33.7,10.7-49.45c-0.02,0.18-0.04,0.36-0.04,0.53C83.663,207.29,85.023,221.35,96.173,237.26"/>
<path fill="#F49700" d="M449.903,104.05l-15.37,14.28c-36.23-36.12-85.16-58.27-139-58.27c-53.83,0-102.75,22.14-138.97,58.25
	l-15.35-14.26c39.89-38.3,94.33-61.89,154.35-61.89C355.573,42.16,410.013,65.75,449.903,104.05"/>
<path fill="#F49700" d="M486.933,341.53l20.45-16.16c-14.261,46.021-43.45,85.59-81.99,113.19c-1.029,0.739-2.21-0.73-1.25-1.57
	C452.723,412.16,474.713,379.23,486.933,341.53"/>
<path fill="#F49700" d="M494.903,237.27c11.17-15.92,12.54-29.98,10.52-46.02c0-0.17-0.02-0.35-0.041-0.53
	c5.411,15.75,9.051,32.31,10.701,49.45h-20.74C495.203,239.2,495.053,238.239,494.903,237.27"/>
<rect x="-227.417" y="-209.09" fill="none" width="1041.38" height="941.63"/>
<polygon fill="#F49700" points="369.905,101.68 376.823,122.973 399.208,122.973 381.098,136.138 388.016,157.431 369.905,144.278 
	351.795,157.431 358.713,136.138 340.603,122.973 362.987,122.973 "/>
</svg>
