<?xml version="1.0" encoding="utf-8"?>
<!-- Generator: Adobe Illustrator 16.0.0, SVG Export Plug-In . SVG Version: 6.00 Build 0)  -->
<!DOCTYPE svg PUBLIC "-//W3C//DTD SVG 1.1//EN" "http://www.w3.org/Graphics/SVG/1.1/DTD/svg11.dtd">
<svg version="1.1" xmlns="http://www.w3.org/2000/svg" xmlns:xlink="http://www.w3.org/1999/xlink" x="0px" y="0px"
	 width="1022.128px" height="1384.432px" viewBox="0 0 1022.128 1384.432" enable-background="new 0 0 1022.128 1384.432"
	 xml:space="preserve">
<g id="planet">
	<path fill="#FF7100" d="M983.621,1095.145c0,13.924,9.049,26.351,12.355,39.93c6.27,25.75,26.563,3.327,26.146-3.379
		c-1.156-18.597-1.225-34.662-8.113-54.68C1013.209,1074.692,983.621,1069.635,983.621,1095.145z"/>
	<path fill="#FF7100" d="M931.54,829.321c-3.983,0.362,2.667,13.333,0,18.667s-2,16,0,22.667s11.333,9.334,13.333,8.667
		s5.333-14.667,7.333-18.667s0.666-14-2.667-17.333S938.873,828.655,931.54,829.321z"/>
	<path fill="#FF7100" d="M975.54,964.654c-0.529-0.464-1.092-0.852-1.543-1.354c-7.859-8.739,2.804-32.197,1.543-35.979
		c-1.333-4,9.333-6.667,15.333-3.333s24.667,17.333,16.667,24.667s-15.455,10.943-17.248,16
		C988.874,968.654,977.083,966.008,975.54,964.654z"/>
	<path fill="#FF7100" d="M859.09,797.683c-6.93-5.601-2.945,12.493,0,12.493s22.086-2.677,18.406-6.247
		C873.815,800.36,863.508,801.253,859.09,797.683z"/>
	<path fill="#FF7100" d="M95.107,1105.38c2.128,13.761-2.006,16.115-5.313,29.694c-6.27,25.75-26.563,3.327-26.146-3.379
		c1.156-18.597-2.815-12.047,2.872-27.377S94.02,1098.348,95.107,1105.38z"/>
	<path fill="#FF7100" d="M157.63,914.477c-41.106,44.167-71.03,95.646-86.312,151.634c-2.918,10.69,29.706,23.231,33.676,14.019
		c22.704-52.68,58.347-100.09,103.672-139.479C197.04,935.654,164.04,921.654,157.63,914.477z"/>
	<g>
		<path fill="#FF7100" d="M1002.007,1037.479c-27.311-86.802-97.973-164.882-192.467-215.324c0.336,6.329-7.315,44.43-14,64.5
			c73.153,41.882,134.676,102.928,171.705,171.62C983.621,1088.654,1009.501,1061.299,1002.007,1037.479z"/>
	</g>
</g>
<g id="wings">
	<path fill="#FF7100" d="M330.54,0c0,0-90,79.654-55.751,281.987c17.303,102.221,70.134,243.323,212.251,319.484
		c123.5,66.184,344.5,195.137,211.548,462.517c47.619-198.667,4.214-276.739-265.141-379.945
		c-102.246-39.177-239.045-176.854-217.156-429.394C233.54,55.654,301.794,24.654,330.54,0z"/>
	<path fill="#FF7100" d="M238.207,82.654c0,0-66,61.333-62.435,298.349c1.559,103.664,73.65,252.49,215.768,328.651
		c123.5,66.184,413.08,126.339,266.667,401.418C681.54,946.934,602.54,894.654,326.54,796.654
		C223.357,760.017,66.092,601.932,117.275,353.665C159.54,148.654,208.505,111.146,238.207,82.654z"/>
	<path fill="#FF7100" d="M136.874,221.988c0,0-62.333,65.188-62.333,264.667c0,152.156,110.253,305.307,230.147,343.452
		c259.704,82.627,417.079,207.842,289.585,368.334c-49.177,61.905-217.489,136.493-356.982,185.991
		c442.478-280.777,330.118-328.431-14.245-484.282C80.54,835.654-7.772,710.638,0.54,553.654
		C12.207,333.321,136.874,221.988,136.874,221.988z"/>
</g>
<g id="head">
	<path fill="#FF7100" d="M846.26,350.983c27.586,7.562,14.266-73.496-91.495-17.999c-13.674,7.175,20.469-38.623-44.998-28.932
		c-83.996,12.433-133.493,96.429-222.546,109.928c-21.941,28.498,122.052,1.5,122.052,59.997c0,23.471,6,25.499-8.598,63.354
		c-7.127,18.482-34.9,13.897-34.9,61.313v11.344c64.791,26.269,185.766,88.667,187.766,269.434c0,0,78.667-248.1-27.805-328.133
		C695.04,528.215,822.508,344.473,846.26,350.983z"/>
</g>
</svg>
