<svg id="Layer_1" data-name="Layer 1" xmlns="http://www.w3.org/2000/svg" viewBox="0 0 200 200"><defs><style>.cls-1{fill:#f07b05;}</style></defs><title>leaderboard</title><path class="cls-1" d="M100,200l-2.66-1.34c-3.44-1.74-84.23-43.13-84.23-91.87V33.09L100,0l86.92,33.09v73.7c0,49.88-80.84,90.21-84.28,91.9ZM25,41.32v65.47c0,37.05,61.37,72.4,75,79.8,13.66-7.24,74.95-41.87,74.95-79.8V41.32L100,12.78Z"/><path class="cls-1" d="M155.5,91.13H142.08a43.67,43.67,0,0,0-39.45-39.45V38.26h-8V51.68A43.67,43.67,0,0,0,55.22,91.13H41.8v8H55.22a43.67,43.67,0,0,0,39.45,39.45V152h8V138.54a43.67,43.67,0,0,0,39.45-39.45H155.5Zm-52.87,35.4V115.3h-8v11.23A31.75,31.75,0,0,1,67.23,99.09H78.46v-8H67.23A31.75,31.75,0,0,1,94.67,63.69V74.92h8V63.69a31.75,31.75,0,0,1,27.44,27.44H118.84v8h11.23A31.75,31.75,0,0,1,102.63,126.53Z"/></svg>