<?xml version="1.0" encoding="utf-8"?>
<!-- Generator: Adobe Illustrator 16.0.0, SVG Export Plug-In . SVG Version: 6.00 Build 0)  -->
<!DOCTYPE svg PUBLIC "-//W3C//DTD SVG 1.1//EN" "http://www.w3.org/Graphics/SVG/1.1/DTD/svg11.dtd">
<svg version="1.1" xmlns="http://www.w3.org/2000/svg" xmlns:xlink="http://www.w3.org/1999/xlink" x="0px" y="0px" width="1696px"
	 height="1200px" viewBox="0 0 1696 1200" enable-background="new 0 0 1696 1200" xml:space="preserve">
<g id="Guiidies">
</g>
<g id="Stripes">
	<g>
		<polygon fill="#FFFFFF" points="0,481 85.685,652 380.225,652 295.292,481 		"/>
		<polygon fill="#FFFFFF" points="1610.315,652 1696,481 1399.644,481 1324,652 		"/>
		<polygon fill="#FFFFFF" points="1464,944 1553.192,766 1246,766 1114.038,944 		"/>
		<polygon fill="#FFFFFF" points="142.808,766 232,944 595.066,944 451.184,766 		"/>
	</g>
</g>
<g id="Shield">
	<path fill="#FFFFFF" d="M1153.287,70l255.984,228.68c-2.337,49.33-10.283,99.15-23.707,148.503
		c-14.918,54.841-36.952,110.436-65.489,165.24c-48.944,93.993-117.632,187.386-204.156,277.586
		c-78.095,81.412-156.438,144.955-208.409,183.925c-23.393,17.541-43.699,31.822-59.51,42.564
		c-15.811-10.742-36.117-25.023-59.51-42.564c-51.971-38.97-130.314-102.513-208.41-183.925
		c-86.523-90.2-155.211-183.594-204.156-277.586c-28.538-54.804-50.571-110.399-65.489-165.24
		c-13.424-49.353-21.371-99.173-23.707-148.503L542.713,70H1153.287 M1180,0H516L216,268c0,552,632,932,632,932s632-380,632-932
		L1180,0L1180,0z"/>
</g>
<g id="Inner_logo">
	<g>
		<polygon fill="#FFFFFF" points="700,640 700,527.115 465.75,262.75 511.832,571.832 808,912 808,640 		"/>
		<polygon fill="#FFFFFF" points="996,640 996,527.115 1230.25,262.75 1184.168,571.832 888,912 888,640 		"/>
	</g>
	<polygon fill="#FFFFFF" points="848,589.375 938,589.375 848,409.375 758,589.375 	"/>
</g>
</svg>
