<?xml version="1.0" encoding="utf-8"?>
<!-- Generator: Adobe Illustrator 16.0.0, SVG Export Plug-In . SVG Version: 6.00 Build 0)  -->
<!DOCTYPE svg PUBLIC "-//W3C//DTD SVG 1.1//EN" "http://www.w3.org/Graphics/SVG/1.1/DTD/svg11.dtd">
<svg version="1.1" id="Layer_1" xmlns="http://www.w3.org/2000/svg" xmlns:xlink="http://www.w3.org/1999/xlink" x="0px" y="0px"
	 width="632px" height="593.333px" viewBox="0 -0.001 632 593.333" enable-background="new 0 -0.001 632 593.333"
	 xml:space="preserve">
<g id="Lavigny-Duval_logo">
	<polygon fill="#000000" points="314,593.333 261,475.833 261,283.833 314,401.333 	"/>
	<polygon fill="#000000" points="328,593.333 381,475.833 381,283.833 328,401.333 	"/>
	<polygon fill="#000000" points="246,262.999 157,185.333 157,374.333 246,451.999 	"/>
	<polygon fill="#000000" points="143,171.999 0,48.499 0,237.499 143,360.999 	"/>
	<polygon fill="#000000" points="487,176.999 630,41.499 630,230.499 487,365.999 	"/>
	<polygon fill="#000000" points="400,262.999 473,191.665 473,380.665 400,451.999 	"/>
	<g id="Empire_bird">
		<path fill="#000000" d="M320.833,367.333l53.403-114.887c0,0,256.37-251.054,257.764-252.447
			c-1.333,0.352-108.442,24.373-108.442,24.373L317.943,171.249c0,0-315.108-151.709-316.11-152.25
			C2.67,19.837,272.98,252.262,272.98,252.262L320.833,367.333z"/>
		<g id="Layer_6">
			<path fill="#000000" d="M284.667,141.961l23.111,11.037c0,0,55.336-36.564,57.835-38.287c3.336-2.301,2.901-4.853,2.901-9.106
				c0-1.294,1.006-60.272-22.735-60.272h-23.7c-14.102,0-36.479,7.756-36.479,26.584c0.92,1.724,4.055-2.317,10.563-2.317
				c4.744,0,13.392,1.237,15.351,3.196c1.957,1.959-0.477,8.955-1.811,12.264C308.009,89.258,287.512,139.116,284.667,141.961z"/>
		</g>
	</g>
</g>
</svg>
