<?xml version="1.0" encoding="utf-8"?>
<!-- Generator: Adobe Illustrator 16.0.0, SVG Export Plug-In . SVG Version: 6.00 Build 0)  -->
<!DOCTYPE svg PUBLIC "-//W3C//DTD SVG 1.1//EN" "http://www.w3.org/Graphics/SVG/1.1/DTD/svg11.dtd">
<svg version="1.1" id="Layer_1" xmlns="http://www.w3.org/2000/svg" xmlns:xlink="http://www.w3.org/1999/xlink" x="0px" y="0px"
	 width="762.42px" height="762.5px" viewBox="104 124.75 762.42 762.5" enable-background="new 104 124.75 762.42 762.5"
	 xml:space="preserve">
<g id="Alliance">
	<path fill="#000000" d="M495.43,241.17l-0.22,258.14l307.63,177.61L737.99,585h120.3c-36.36,172.65-189.57,302.25-373.04,302.25
		c-90.08,0-172.85-31.24-238.1-83.479l68.2-118.141l393.36-35.82L485.26,520.56L177.63,698.17l111.94-10.188l-58.82,101.88
		C152.95,720.08,104,618.76,104,506c0-160.81,99.55-298.36,240.39-354.38l69.681,120.7L248.33,631.04L472,502.16V146.94
		l-47.07,101.88l-60.37-104.57c37.931-12.65,78.511-19.5,120.69-19.5c210.56,0,381.25,170.69,381.25,381.25
		c0,19.72-1.5,39.09-4.38,58H723.18L495.43,241.17z"/>
</g>
</svg>
