<?xml version="1.0" encoding="utf-8"?>
<!-- Generator: Adobe Illustrator 16.0.0, SVG Export Plug-In . SVG Version: 6.00 Build 0)  -->
<!DOCTYPE svg PUBLIC "-//W3C//DTD SVG 1.1//EN" "http://www.w3.org/Graphics/SVG/1.1/DTD/svg11.dtd">
<svg version="1.1" xmlns="http://www.w3.org/2000/svg" xmlns:xlink="http://www.w3.org/1999/xlink" x="0px" y="0px"
	 width="769.027px" height="710.624px" viewBox="0 0 769.027 710.624" enable-background="new 0 0 769.027 710.624"
	 xml:space="preserve">
<g id="Layer_2">
	<g>
		<path fill="#000000" d="M615.229,710.624C600.011,688.735,567.618,654,545.5,654c-19.928,0-55.628,10.748-87.126,20.23
			C426.703,683.766,399.351,692,382.5,692c-25.162,0-74.599-4.267-118.217-8.03c-29.614-2.556-57.585-4.97-66.783-4.97
			c-6.235,0-17.234-2.132-47.204-18.757c-22.498-12.479-46.742-28.152-63.119-39.102c-21.034-14.063-41.985-28.982-57.481-40.93
			C2.809,559.482,0,554.325,0,547.5C0,524.957,42.433,510,70.5,510c13.712,0,29.515,9.236,51.385,22.02
			C153.64,550.58,197.129,576,245.5,576c47.424,0,87.576-19.878,112.99-36.628c-33.202,1.16-77.633,2.628-89.99,2.628
			c-24.133,0-70.5-20.481-70.5-48.5c0-23.806,20.455-49.5,53.5-49.5h0.171c0.003,0,0.008,0,0.011,0
			c55.506,0,192.744-1.633,268.366-16.757c29.115-5.823,60.63,0.042,93.664,17.43c25.446,13.396,51.934,33.696,78.727,60.339
			c45.079,44.827,75.322,91.772,76.588,93.748l-21.053,13.482c-1.165-1.817-117.741-181.531-223.023-160.485
			C447.144,467.318,307.939,469,251.682,469c-0.007,0-0.004,0-0.011,0H251.5c-17.604,0-28.5,12.718-28.5,24.5
			c0,1.675,3.81,7.488,15.128,13.855C248.224,513.034,260.713,517,268.5,517c19.542,0,126.46-3.951,127.537-3.991l31.811-1.179
			l-22.509,22.509C402.617,537.061,337.619,601,245.5,601c-55.142,0-102.009-27.395-136.23-47.396
			C93.622,544.457,77.442,535,70.5,535c-17.624,0-34.53,6.802-42.193,11.87c11.167,9.977,39.546,31.541,78.144,57.064
			c59.506,39.35,85.584,49.955,91.059,50.065c10.264,0,36.15,2.234,68.922,5.063C307.413,662.599,358.415,667,382.5,667
			c13.169,0,41.383-8.494,68.667-16.708C485.937,639.824,521.891,629,545.5,629c42.321,0,85.488,60.48,90.271,67.376
			L615.229,710.624z"/>
	</g>
</g>
<g id="Layer_3">
	<g>
		<path fill="#000000" d="M455,363H314V252H203V111h111V0h141v111h111v141H455V363z M339,338h91V227h111v-91H430V25h-91v111H228v91
			h111V338z"/>
	</g>
</g>
</svg>
