<?xml version="1.0" encoding="utf-8"?>
<!-- Generator: Adobe Illustrator 16.0.0, SVG Export Plug-In . SVG Version: 6.00 Build 0)  -->
<!DOCTYPE svg PUBLIC "-//W3C//DTD SVG 1.1//EN" "http://www.w3.org/Graphics/SVG/1.1/DTD/svg11.dtd">
<svg version="1.1" id="Layer_2" xmlns="http://www.w3.org/2000/svg" xmlns:xlink="http://www.w3.org/1999/xlink" x="0px" y="0px"
	 width="847.644px" height="685.729px" viewBox="0 0 847.644 685.729" enable-background="new 0 0 847.644 685.729"
	 xml:space="preserve">
<g>
	<path fill="#000000" d="M186.666,73.374v39.465v30h30h356.581v152.988H216.666h-30v30v42.132L42.043,220.667L186.666,73.374
		 M216.666,0L0,220.667l216.666,220.667V325.827h386.581V112.839H216.666V0L216.666,0z"/>
</g>
<g opacity="0.5">
	<path fill="#000000" d="M660.978,317.771L805.6,465.063L660.978,612.355v-42.132v-30h-30H274.396V387.235h356.581h30v-30V317.771
		 M630.978,244.397v112.838H244.396v212.988h386.581v115.506l216.666-220.666L630.978,244.397L630.978,244.397z"/>
</g>
</svg>
