<?xml version="1.0" encoding="utf-8"?>
<!-- Generator: Adobe Illustrator 16.0.0, SVG Export Plug-In . SVG Version: 6.00 Build 0)  -->
<!DOCTYPE svg PUBLIC "-//W3C//DTD SVG 1.1//EN" "http://www.w3.org/Graphics/SVG/1.1/DTD/svg11.dtd">
<svg version="1.1" xmlns="http://www.w3.org/2000/svg" xmlns:xlink="http://www.w3.org/1999/xlink" x="0px" y="0px"
	 width="677.75px" height="812.35px" viewBox="0 0 677.75 812.35" enable-background="new 0 0 677.75 812.35" xml:space="preserve">
<g id="Layer_2">
	<g id="Layer_3">
		<g>
			<polyline opacity="0.5" fill="none" stroke="#000000" stroke-width="15.6389" enable-background="new    " points="
				502.517,513.629 625.994,768.395 549.413,800.464 424.301,543.986 			"/>
			<path fill="#000000" d="M555.667,448.275l-21.895-43.163l-65.02-11.26l-78.571,33.127l-45.953,61.332l19,59.108l119.912,259.85
				l77.53,5.08l74.858-42.538l42.219-57.804L555.667,448.275z M399.904,439.936l70.48-29.892l52.954,9.067l14.337,28.263
				l-38.126,59.538l-71.016,28.181l-53.721-4.704l-13.558-38.458L399.904,439.936z M625.149,757.492l-67.676,39.003l-64.095-4.282
				L380.095,546.279l51.087,4.588l78.82-31.278l35.626-55.635l114.01,246.384L625.149,757.492z"/>
			<path opacity="0.5" fill="#000000" enable-background="new    " d="M442.928,501.508l-31.03-1.393l-6.845-27.378l19.004-25.364
				l31.34-13.214l27.594,4.778l10.332,20.369l-19.06,29.767L442.928,501.508z M423.847,485.501l16.517,0.74l23.784-9.438
				l11.761-18.368l-2.992-5.9l-15.798-2.706l-23.486,9.961L421.5,476.111L423.847,485.501z"/>
		</g>
	</g>
</g>
<g id="Layer_3_1_" opacity="0.5">
	<g>
		<path fill="none" d="M470.824,356.72c-3.048-2.177-7.871-5.334-13.735-8.465c-13.29-7.096-19.86-7.647-21.558-7.647
			c-7.113,0-26.723,1.625-47.226,4.344c-25.011,3.317-37.272,6.37-41.258,7.855c-6.619,7.311-20.609,26.733-24.05,33.896v8.337
			c1.311,3.177,6.953,12.346,18.08,24.153c11.625,12.335,20.293,17.892,23.147,18.915h17.621l8.337-11.128l74.862-31.563
			c0.524-2.326,1.049-4.759,1.563-7.319C469.692,372.771,470.756,362.081,470.824,356.72z"/>
		<path fill="none" d="M508.281,164.424c-14.653-32.069-35.636-60.038-62.364-83.13c-24.257-20.958-52.37-37.26-83.557-48.452
			c-28.547-10.246-58.694-15.661-87.182-15.661c-28.49,0-58.646,5.416-87.207,15.662c-31.204,11.194-59.334,27.497-83.609,48.456
			c-26.748,23.094-47.747,51.063-62.412,83.131c-16.436,35.94-24.77,76.862-24.77,121.629c0,61.039,21.89,98.819,39.479,129.177
			c12.926,22.31,24.089,41.577,24.089,64.106c0,7.217-3.393,13.391-7.688,21.207c-3.644,6.631-8.634,15.713-8.634,21.744
			c0.033,2.674,3.48,11.961,11.636,22.286c8.352,10.575,15.569,14.481,17.607,14.652c0.591-0.001,1.045-0.03,1.38-0.066
			c0.231-0.394,0.492-0.86,0.709-1.249c2.292-4.104,8.383-15.005,22.788-15.005c12.522,0,23.104,5.026,30.602,14.536
			c10.866,13.783,12.703,34.773,10.654,52.461c1.543,0.008,3.052,0.008,4.388,0.008h1.983l2.198-0.001
			c13.507,0,23.098,3.428,29.323,10.479c5.461,6.187,6.674,13.195,6.654,18.959c13.016,0.699,25.43,3.353,32.143,12.654h77.23
			c6.713-9.302,19.127-11.955,32.144-12.654c-0.021-5.765,1.191-12.772,6.653-18.959c6.225-7.052,15.816-10.479,29.323-10.479
			l2.198,0.001h1.983c1.335,0,2.845,0,4.388-0.008c-0.171-1.476-0.304-2.98-0.417-4.496L363.23,547.42l-19-59.108l24.743-33.023
			h-5.601c-16.751,0-57.555-45.958-57.555-58.843c0-7.732,0,1.575,0-12.17c0-6.3,22.621-37.229,30.352-44.959
			c7.732-7.731,81.323-15.889,99.363-15.889c18.039,0,45.958,18.899,50.682,23.623c3.845,3.844,0.903,27.636-3.751,49.177
			l19.945,3.454c15.305-27.78,30.623-62.561,30.623-113.622C533.03,241.288,524.703,200.364,508.281,164.424z"/>
		<path fill="#000000" d="M364.224,438.107c-2.854-1.022-11.522-6.579-23.147-18.915c-11.126-11.807-16.769-20.976-18.08-24.153
			v-8.337c3.441-7.163,17.431-26.585,24.05-33.896c3.985-1.485,16.247-4.538,41.258-7.855c20.503-2.719,40.112-4.344,47.226-4.344
			c1.697,0,8.268,0.552,21.558,7.647c5.864,3.131,10.688,6.289,13.735,8.465c-0.067,5.361-1.132,16.051-4.216,31.377
			c-0.515,2.56-1.039,4.993-1.563,7.319l3.709-1.564l13.708,2.374c4.654-21.541,7.596-45.333,3.751-49.177
			c-4.724-4.724-32.643-23.623-50.682-23.623c-18.04,0-91.631,8.157-99.363,15.889c-7.731,7.731-30.352,38.66-30.352,44.959
			c0,13.745,0,4.438,0,12.17c0,12.885,40.804,58.843,57.555,58.843h5.601l12.873-17.181H364.224z"/>
		<path fill="#000000" d="M390.409,609.908c-1.543,0.008-3.053,0.008-4.388,0.008h-1.983l-2.198-0.001
			c-13.506,0-23.098,3.428-29.323,10.479c-5.462,6.187-6.674,13.194-6.653,18.959c-13.016,0.699-25.431,3.353-32.144,12.654h-77.23
			c-6.713-9.302-19.126-11.955-32.143-12.654c0.021-5.764-1.192-12.772-6.654-18.959c-6.225-7.052-15.816-10.479-29.323-10.479
			l-2.198,0.001h-1.983c-1.335,0-2.845,0-4.388-0.008c2.049-17.688,0.212-38.678-10.654-52.461
			c-7.498-9.51-18.079-14.536-30.602-14.536c-14.405,0-20.495,10.901-22.788,15.005c-0.217,0.389-0.478,0.855-0.709,1.249
			c-0.334,0.036-0.789,0.065-1.38,0.066c-2.038-0.171-9.255-4.077-17.607-14.652c-8.155-10.325-11.603-19.612-11.636-22.286
			c0-6.031,4.99-15.113,8.634-21.744c4.295-7.816,7.688-13.99,7.688-21.207c0-22.529-11.164-41.796-24.089-64.106
			C39.07,384.878,17.18,347.097,17.18,286.059c0-44.767,8.333-85.689,24.77-121.629c14.665-32.068,35.664-60.038,62.412-83.131
			c24.275-20.959,52.405-37.262,83.609-48.456c28.561-10.246,58.717-15.662,87.207-15.662c28.488,0,58.635,5.416,87.182,15.661
			c31.187,11.192,59.299,27.494,83.557,48.452c26.729,23.092,47.711,51.062,62.364,83.13c16.422,35.94,24.749,76.864,24.749,121.634
			c0,51.062-15.318,85.842-30.623,113.622l17.875,3.095c15.25-28.567,29.929-64.706,29.929-116.717
			C550.21,86.763,393.725,0,275.178,0S0,86.763,0,286.059c0,108.238,63.568,147.755,63.568,193.283
			c0,7.157-16.322,25.771-16.322,42.951s26.63,54.119,46.388,54.119c19.757,0,14.604-16.32,24.912-16.32
			c26.63,0,27.489,36.938,22.335,58.413c-2.001,8.339,2.788,8.592,23.308,8.592c1.327,0,2.72-0.001,4.181-0.001
			c36.08,0,5.154,29.207,25.771,29.207c42.952,0,22.335,12.886,35.221,12.886c6.872,0,84.614,0,91.487,0
			c12.885,0-7.731-12.886,35.22-12.886c20.617,0-10.309-29.207,25.771-29.207c1.462,0,2.853,0.001,4.181,0.001
			c5.821,0,10.373-0.021,13.866-0.24l-9.896-21.444C390.105,606.928,390.238,608.433,390.409,609.908z"/>
	</g>
	<g>
		<polygon fill="#000000" points="266.3,656.066 275.75,622.969 285.199,656.066 		"/>
	</g>
	<g>
		<polygon fill="#000000" points="218.042,646.837 238.779,619.364 235.671,653.645 		"/>
	</g>
	<g>
		<polygon fill="#000000" points="181.055,624.868 197.429,594.593 199.508,628.949 		"/>
	</g>
	<g>
		<polygon fill="#000000" points="332.599,646.837 311.861,619.364 314.969,653.645 		"/>
	</g>
	<g>
		<polygon fill="#000000" points="369.586,624.868 353.211,594.593 351.133,628.949 		"/>
	</g>
	<path fill="#000000" d="M111.674,340.607c7.113,0,26.722,1.625,47.224,4.344c25.013,3.317,37.273,6.37,41.258,7.855
		c6.619,7.309,20.609,26.732,24.051,33.896v8.337c-1.311,3.177-6.953,12.346-18.08,24.153
		c-11.625,12.335-20.293,17.892-23.147,18.915h-71.082c-3.212-1.07-11.794-6.844-22.256-17.131
		c-1.807-3.764-5.625-15.878-9.046-32.879c-3.094-15.375-4.155-26.084-4.216-31.428C84.565,350.82,102.49,340.607,111.674,340.607
		 M111.674,323.427c-18.04,0-45.959,18.899-50.684,23.623c-6.872,6.873,7.946,77.528,15.463,85.044
		c8.805,8.807,25.199,23.194,34.648,23.194h72.731c16.751,0,57.556-45.958,57.556-58.843c0-7.732,0,1.575,0-12.17
		c0-6.3-22.621-37.229-30.353-44.959C203.305,331.584,129.713,323.427,111.674,323.427L111.674,323.427z"/>
	<g>
		<path fill="#000000" d="M273.603,428.828c4.599,5.611,10.626,13.31,17.697,22.855c13.294,17.949,20.748,29.523,23.214,34.066
			v16.678c0,6.705-2.051,7.911-3.037,8.49c-1.672,0.983-5.088,2.155-11.864,2.155c-0.213,0-0.424-0.001-0.633-0.003
			c-2.73-4.184-6.704-11.295-9.931-17.914l-15.438-31.691l-15.453,31.688c-3.229,6.622-7.203,13.734-9.934,17.918
			c-0.208,0.002-0.419,0.003-0.633,0.003c-6.776,0-10.192-1.172-11.864-2.155c-0.986-0.579-3.037-1.784-3.037-8.49V485.75
			c2.466-4.543,9.92-16.117,23.214-34.066C262.977,442.138,269.003,434.439,273.603,428.828 M273.603,404.176
			c-5.023,0-58.092,71.192-58.092,78.495v19.757c0,25.038,20.003,27.826,32.082,27.826c3.462,0,6.275-0.229,7.777-0.229
			c4.915,0,18.233-27.346,18.233-27.346s13.318,27.346,18.233,27.346c1.502,0,4.313,0.229,7.777,0.229
			c12.079,0,32.082-2.79,32.082-27.826v-19.757C331.694,475.368,278.626,404.176,273.603,404.176L273.603,404.176z"/>
	</g>
</g>
</svg>
