<?xml version="1.0" encoding="utf-8"?>
<!-- Generator: Adobe Illustrator 16.0.0, SVG Export Plug-In . SVG Version: 6.00 Build 0)  -->
<!DOCTYPE svg PUBLIC "-//W3C//DTD SVG 1.1//EN" "http://www.w3.org/Graphics/SVG/1.1/DTD/svg11.dtd">
<svg version="1.1" xmlns="http://www.w3.org/2000/svg" xmlns:xlink="http://www.w3.org/1999/xlink" x="0px" y="0px"
	 width="804.234px" height="669px" viewBox="0 0 804.234 669" enable-background="new 0 0 804.234 669" xml:space="preserve">
<g id="Layer_5">
	<polygon opacity="0.5" fill="#000000" points="804.234,308.197 587.568,87.531 587.568,200.369 383.521,200.369 396.935,230.369 
		587.568,230.369 617.568,230.369 617.568,200.369 617.568,160.905 762.19,308.197 617.568,455.489 617.568,413.357 
		617.568,383.357 587.568,383.357 465.34,383.357 478.754,413.357 587.568,413.357 587.568,528.863 	"/>
</g>
<g id="Layer_3">
	<g>
		<line opacity="0.5" fill="none" stroke="#000000" stroke-width="25" x1="128" y1="240" x2="328" y2="650"/>
		<line opacity="0.5" fill="none" stroke="#000000" stroke-width="25" x1="253.034" y1="191.471" x2="450.422" y2="598.733"/>
		<path fill="#000000" d="M337.999,87l-35-69L199.061,0L73.459,52.957L0,151l30.373,94.489l191.69,415.392L346,669l119.667-68
			l67.491-92.405L337.999,87z M89,73.667l112.667-47.783l84.651,14.493l22.918,45.182l-60.945,95.176l-113.527,45.05l-85.875-7.522
			l-21.673-61.478L89,73.667z M449.071,581.305l-108.185,62.348l-102.46-6.843L57.333,243.667L139,251l126-50l56.95-88.937
			l182.255,393.863L449.071,581.305z"/>
		<path opacity="0.5" fill="#000000" d="M157.777,172.096l-49.604-2.227l-10.942-43.766l30.38-40.546l50.101-21.124l44.109,7.639
			l16.517,32.562l-30.47,47.584L157.777,172.096z M127.274,146.505l26.403,1.186l38.02-15.087L210.5,103.24l-4.785-9.432
			l-25.254-4.324l-37.545,15.923l-19.394,26.091L127.274,146.505z"/>
	</g>
</g>
</svg>
