<?xml version="1.0" encoding="utf-8"?>
<!-- Generator: Adobe Illustrator 16.0.0, SVG Export Plug-In . SVG Version: 6.00 Build 0)  -->
<!DOCTYPE svg PUBLIC "-//W3C//DTD SVG 1.1//EN" "http://www.w3.org/Graphics/SVG/1.1/DTD/svg11.dtd">
<svg version="1.1" id="Layer_2" xmlns="http://www.w3.org/2000/svg" xmlns:xlink="http://www.w3.org/1999/xlink" x="0px" y="0px"
	 width="772.025px" height="772.026px" viewBox="0 0 772.025 772.026" enable-background="new 0 0 772.025 772.026"
	 xml:space="preserve">
<polygon fill="none" stroke="#000000" stroke-width="70" stroke-miterlimit="10" points="386.422,205.077 536.422,323.91 
	536.422,448.244 386.422,567.077 236.422,448.244 236.422,323.91 "/>
<g>
	<path fill="#000000" d="M70.549,342.077c3.783-27.495,11.116-54.255,21.982-79.945c16.037-37.916,39.01-71.983,68.282-101.254
		s63.338-52.245,101.254-68.282c25.506-10.788,52.067-18.094,79.354-21.901V0.127C162.307,20.596,20.201,162.88,0,342.077H70.549z"
		/>
	<path fill="#000000" d="M429.422,70.532c27.702,3.758,54.662,11.119,80.536,22.063c37.916,16.037,71.983,39.01,101.255,68.282
		c29.271,29.271,52.244,63.338,68.281,101.254c10.866,25.69,18.199,52.45,21.981,79.945h70.55
		C751.78,162.487,609.093,19.978,429.422,0V70.532z"/>
	<path fill="#000000" d="M341.422,701.458c-27.288-3.807-53.849-11.112-79.354-21.9c-37.916-16.037-71.983-39.011-101.254-68.282
		c-29.271-29.271-52.245-63.338-68.282-101.254c-10.866-25.69-18.199-52.45-21.982-79.945H0
		c20.201,179.196,162.307,321.48,341.422,341.949V701.458z"/>
	<path fill="#000000" d="M701.476,430.077c-3.782,27.495-11.115,54.255-21.981,79.945c-16.037,37.916-39.011,71.983-68.281,101.254
		c-29.271,29.271-63.339,52.245-101.255,68.282c-25.874,10.943-52.834,18.305-80.536,22.063v70.532
		c179.671-19.977,322.358-162.486,342.604-342.076H701.476z"/>
</g>
<g>
</g>
<g>
</g>
<g>
</g>
<g>
</g>
<g>
</g>
<g>
</g>
<g>
</g>
<g>
</g>
<g>
</g>
<g>
</g>
<g>
</g>
<g>
</g>
<g>
</g>
<g>
</g>
<g>
</g>
</svg>
