<?xml version="1.0" encoding="utf-8"?>
<!-- Generator: Adobe Illustrator 16.0.0, SVG Export Plug-In . SVG Version: 6.00 Build 0)  -->
<!DOCTYPE svg PUBLIC "-//W3C//DTD SVG 1.1//EN" "http://www.w3.org/Graphics/SVG/1.1/DTD/svg11.dtd">
<svg version="1.1" id="Layer_1" xmlns="http://www.w3.org/2000/svg" xmlns:xlink="http://www.w3.org/1999/xlink" x="0px" y="0px"
	 width="834.386px" height="834.386px" viewBox="0 0 834.386 834.386" enable-background="new 0 0 834.386 834.386"
	 xml:space="preserve">
<g id="Layer_2">
	<path fill="#000000" d="M565.715,151.182L104.45,401.458l169.734,168.723l461.265-250L565.715,151.182z M132.587,406.697
		L562.43,173.835l142.82,142.212L275.407,548.681L132.587,406.697z"/>
	<path fill="#000000" d="M121.318,455.203l-17.104,9.279l164.5,163.49l461.269-250l-12.908-12.839l-444.45,240.439L121.318,455.203z
		"/>
	<path fill="#000000" d="M121.318,513.162l-17.104,9.277l164.5,163.49l461.269-250l-12.908-12.84l-444.45,240.441L121.318,513.162z"
		/>
	<path fill="#000000" d="M414.95,281.515c-47,0-86.151,26.403-86.151,67.325c0,40.921,40.817,82.341,109.819,82.341
		c54.48,0,81.666-25.078,81.666-66C520.284,324.261,475.95,281.515,414.95,281.515z M437.024,422.828
		c-61.188,0-97.384-36.729-97.384-73.019c0-36.287,34.718-59.701,76.396-59.701c54.092,0,93.406,37.905,93.406,74.193
		C509.444,400.591,485.336,422.83,437.024,422.828z"/>
	<g>
		<path fill="#000000" d="M419.19,368.333l6.643-3.625c0.906,0.997,1.502,1.654,1.791,1.971c3.01,3.27,4.834,5.78,5.469,7.534
			c1.334,3.576,0.055,6.867-3.84,9.871c-1.465,1.139-5.555,3.539-12.266,7.203c-3.006,1.641-5.197,2.762-6.57,3.355
			c-1.375,0.6-2.852,1.057-4.434,1.379c-6.115,1.34-12.086-0.67-17.912-6.025c-2.666-2.477-5.367-5.219-8.105-8.23
			c-5.615-6.184-9.119-10.334-10.506-12.459c-2.215-3.397-2.322-6.795-0.324-10.189c1.232-2.129,3.533-4.249,6.904-6.361
			c1.646-1.032,4.736-2.788,9.275-5.266c4.289-2.341,7.488-3.748,9.6-4.223c4.77-1.079,9.137-0.075,13.107,3.009
			c1.449,1.139,3.07,2.693,4.861,4.664c0.205,0.227,0.521,0.597,0.945,1.11l-6.559,3.58c-0.83-0.868-1.369-1.438-1.615-1.709
			c-2.98-3.185-5.447-4.802-7.406-4.85c-1.711-0.049-4.586,1.029-8.623,3.233c-5.348,2.919-9.076,5.142-11.188,6.667
			c-1.307,0.95-2.121,1.895-2.453,2.837c-0.33,0.944-0.232,2.05,0.297,3.319c0.584,1.376,2.07,3.377,4.457,6.004
			c8.477,9.33,14.072,14.982,16.783,16.959c1.721,1.297,3.346,1.984,4.875,2.063c1.752,0.096,3.924-0.498,6.512-1.773
			c1.572-0.791,3.236-1.666,4.99-2.623c4.037-2.203,6.898-3.926,8.584-5.166c1.684-1.242,2.627-2.324,2.83-3.248
			c0.273-1.301-0.814-3.301-3.264-5.996C421.25,370.462,420.295,369.458,419.19,368.333z"/>
		<path fill="#000000" d="M447.655,373.732l-36.113-39.743l24.646-13.453c4.344-2.371,8.188-3.572,11.535-3.604
			c2.924-0.037,5.715,0.812,8.373,2.544c1.568,1.041,3.291,2.591,5.162,4.651c3.088,3.397,4.787,6.163,5.102,8.295
			c0.381,2.299-0.844,4.391-3.674,6.273c5.018-2.364,9.711-1.166,14.08,3.597l9.443,10.395l-6.643,3.625l-8.521-9.376
			c-2.221-2.445-4.426-3.749-6.611-3.91c-2.184-0.063-4.658,0.697-7.432,2.277l-16.877,9.211l14.168,15.591L447.655,373.732z
			 M435.747,349.691l16.207-8.847c3.314-1.809,5.381-3.478,6.197-5.009c0.938-1.765,0.234-3.938-2.111-6.521
			c-3.188-3.51-5.586-5.505-7.188-5.986c-1.982-0.578-4.729,0.091-8.238,2.006l-18.045,9.85L435.747,349.691z"/>
	</g>
</g>
<g id="Layer_4">
	<path fill="#000000" d="M761.045,345.113l-11.922,6.463l67.584,67.586l-398.1,398.1L306.17,704.826l-12.841,6.957l123.863,123.863
		l417.193-417.191L761.045,345.113z M0,418.455l68.547,68.547l12.841-6.959L20.506,419.16l398.102-398.1l108.18,108.181l11.914-6.47
		L417.192,1.261L0,418.455z"/>
</g>
</svg>
