<?xml version="1.0" encoding="utf-8"?>
<!-- Generator: Adobe Illustrator 16.0.0, SVG Export Plug-In . SVG Version: 6.00 Build 0)  -->
<!DOCTYPE svg PUBLIC "-//W3C//DTD SVG 1.1//EN" "http://www.w3.org/Graphics/SVG/1.1/DTD/svg11.dtd">
<svg version="1.1" id="Layer_2" xmlns="http://www.w3.org/2000/svg" xmlns:xlink="http://www.w3.org/1999/xlink" x="0px" y="0px"
	 width="678px" height="548px" viewBox="0 0 678 548" enable-background="new 0 0 678 548" xml:space="preserve">
<g>
	<path fill="#000000" d="M233,40c56.794,0,103,46.206,103,103s-46.206,103-103,103s-103-46.206-103-103S176.206,40,233,40 M233,0
		C154.023,0,90,64.023,90,143s64.023,143,143,143s143-64.023,143-143S311.977,0,233,0L233,0z"/>
	<path fill="#000000" d="M356.123,340.768c11.53,7.5,22.754,20.961,33.668,34.955C408.018,399.096,425,446.37,425,473v35H40v-35
		c0-26.571,17.573-73.906,35.896-97.401c10.839-13.897,22.38-27.272,33.958-34.768C146.717,363.905,188.875,376,232.938,376
		C277.044,376,319.236,363.885,356.123,340.768 M350.696,295.847C318.098,321.008,277.27,336,233,336
		c-44.236,0-85.036-14.97-117.623-40.096c-28.74,5.675-50.693,29.028-71.023,55.096C20.292,381.854,0,437.667,0,473v75h465v-75
		c0-35.333-19.605-91.021-43.666-121.875C400.934,324.967,379.546,301.445,350.696,295.847L350.696,295.847z"/>
</g>
<g>
	<path fill="#000000" d="M507.39,53c-58.08,0-105.17,47.08-105.17,105.16s47.09,105.16,105.17,105.16s105.16-47.08,105.16-105.16
		S565.47,53,507.39,53z M507.39,233.91c-41.77,0-75.75-33.98-75.75-75.75c0-41.76,33.98-75.74,75.75-75.74
		c41.761,0,75.74,33.98,75.74,75.74C583.13,199.93,549.15,233.91,507.39,233.91z"/>
	<path fill="#000000" d="M645.89,311.22c-15-19.24-30.729-36.54-51.949-40.65c-23.971,18.5-54,29.52-86.551,29.52
		c-32.529,0-62.54-11-86.5-29.48c-19.55,3.86-34.84,18.84-48.859,36.24l22.95,18.141c7.01-8.641,14.399-16.601,21.729-21.34
		c27.11,16.97,58.17,25.859,90.57,25.859c32.439,0,63.52-8.91,90.649-25.91c8.48,5.521,16.94,15.42,24.971,25.71
		C636.3,346.5,649,381.26,649,400.84V427H454.94l6.52,29H678v-55.16C678,374.86,663.58,333.91,645.89,311.22z"/>
</g>
<g>
</g>
<g>
</g>
<g>
</g>
<g>
</g>
<g>
</g>
<g>
</g>
<g>
</g>
<g>
</g>
<g>
</g>
<g>
</g>
<g>
</g>
<g>
</g>
<g>
</g>
<g>
</g>
<g>
</g>
</svg>
