<?xml version="1.0" encoding="utf-8"?>
<!-- Generator: Adobe Illustrator 16.0.0, SVG Export Plug-In . SVG Version: 6.00 Build 0)  -->
<!DOCTYPE svg PUBLIC "-//W3C//DTD SVG 1.1//EN" "http://www.w3.org/Graphics/SVG/1.1/DTD/svg11.dtd">
<svg version="1.1" id="Layer_2" xmlns="http://www.w3.org/2000/svg" xmlns:xlink="http://www.w3.org/1999/xlink" x="0px" y="0px"
	 width="952.88px" height="952.881px" viewBox="0 0 952.88 952.881" enable-background="new 0 0 952.88 952.881"
	 xml:space="preserve">
<g>
	<polygon fill="none" points="318.933,953.5 632.778,953.5 475.855,796.576 	"/>
	<polygon fill="none" points="633.949,0.5 317.764,0.5 475.856,158.592 	"/>
	<polygon fill="none" points="-0.62,320.101 -0.62,633.948 156.304,477.024 	"/>
	<polygon fill="none" points="952.38,635.116 952.38,318.933 794.289,477.024 	"/>
	<polygon fill="none" points="597.73,477.316 952.38,122.667 952.38,0.5 830.214,0.5 475.564,355.15 120.914,0.5 -0.62,0.5 
		-0.62,124.418 352.278,477.316 -0.62,830.214 -0.62,953.5 122.667,953.5 475.564,600.603 828.461,953.5 952.38,953.5 
		952.38,831.966 	"/>
	<g>
		<polygon fill="#000000" points="952.38,831.966 952.38,635.116 794.289,477.024 952.38,318.933 952.38,122.667 597.731,477.316 		
			"/>
	</g>
	<g>
		<polygon fill="#000000" points="830.214,0.5 633.949,0.5 475.856,158.593 317.764,0.5 120.914,0.5 475.564,355.15 		"/>
	</g>
	<g>
		<polygon fill="#000000" points="0.38,124.418 0.38,320.101 157.304,477.024 0.38,633.948 0.38,830.214 353.278,477.316 		"/>
	</g>
	<g>
		<polygon fill="#000000" points="122.667,952.5 318.933,952.5 475.855,795.576 632.778,952.5 828.461,952.5 475.564,599.602 		"/>
	</g>
</g>
<g>
</g>
<g>
</g>
<g>
</g>
<g>
</g>
<g>
</g>
<g>
</g>
<g>
</g>
<g>
</g>
<g>
</g>
<g>
</g>
<g>
</g>
<g>
</g>
<g>
</g>
<g>
</g>
<g>
</g>
</svg>
