<?xml version="1.0" encoding="utf-8"?>
<!-- Generator: Adobe Illustrator 16.0.0, SVG Export Plug-In . SVG Version: 6.00 Build 0)  -->
<!DOCTYPE svg PUBLIC "-//W3C//DTD SVG 1.1//EN" "http://www.w3.org/Graphics/SVG/1.1/DTD/svg11.dtd">
<svg version="1.1" id="Layer_1" xmlns="http://www.w3.org/2000/svg" xmlns:xlink="http://www.w3.org/1999/xlink" x="0px" y="0px"
	 width="793.364px" height="750.791px" viewBox="73.226 130.223 793.364 750.791"
	 enable-background="new 73.226 130.223 793.364 750.791" xml:space="preserve">
<g id="Li_Yong-Rui">
	<path fill="#000000" d="M571.76,396.94c-26.358-24.7-52.8-48.06-79-69.91l-18.09,14.02c26.07,22.09,52.55,45.67,79.08,70.54
		c199.18,186.67,325.92,375.04,283.09,420.75c-42.84,45.7-239.03-68.57-438.2-255.25C199.46,390.42,72.72,202.05,115.55,156.34
		c26.34-28.1,110.67,4.29,218.03,76.81l19.77-9.96C227.07,140.9,123.07,107.52,86.63,146.4c-56.26,60.02,69.74,269.51,281.42,467.89
		c211.681,198.4,428.891,310.57,485.14,250.54C909.439,804.81,783.45,595.33,571.76,396.94z"/>
	<path fill="#000000" d="M219,328c12.33,60,145.33,163.33,193.5,175.5C356.33,352.67,470,194,716.5,312C681,249,422,73,219,328z
		 M239.62,334l65.05-7c5.66,22.33,6.33,53,75.66,139C332,446.33,239.75,363.12,239.62,334z M314.67,309.83L244,317.61
		c32.5-47.11,171.25-178.11,372.33-76.28C432.72,193.84,320.96,291.89,314.67,309.83z"/>
	<path fill="#000000" d="M630.29,784.84c33.14-20.85,65.97-50.03,97.46-89.58c-12.33-60-145.33-163.33-193.5-175.5
		c26.43,70.96,15.26,143.66-29.65,188.472l79.592,46.17c29.068-17.012,45.578-34.392,47.89-40.972l70.67-7.778
		c-12.19,17.658-39.31,47.119-79.04,71.68L630.29,784.84z M642.08,696.26c-5.66-22.33-6.33-53-75.66-139
		c48.33,19.67,140.58,102.88,140.71,132L642.08,696.26z M330.42,781.93c73.05,18.892,134.72,14.75,182.91,1.78l-54.79-44.86
		c-53.67,22.49-130.53,19.21-228.29-27.59c25.87,45.91,170.45,151.84,325.55,107.22l-9.39-7.689
		C487.4,826.37,414.34,824.43,330.42,781.93z"/>
</g>
</svg>
