<?xml version="1.0" encoding="utf-8"?>
<!-- Generator: Adobe Illustrator 16.0.0, SVG Export Plug-In . SVG Version: 6.00 Build 0)  -->
<!DOCTYPE svg PUBLIC "-//W3C//DTD SVG 1.1//EN" "http://www.w3.org/Graphics/SVG/1.1/DTD/svg11.dtd">
<svg version="1.1" id="Layer_2" xmlns="http://www.w3.org/2000/svg" xmlns:xlink="http://www.w3.org/1999/xlink" x="0px" y="0px"
	 width="784.668px" height="913.839px" viewBox="0 0 784.668 913.839" enable-background="new 0 0 784.668 913.839"
	 xml:space="preserve">
<circle fill="#000000" cx="392.334" cy="460.42" r="180.086"/>
<circle fill="#000000" cx="392.334" cy="67.086" r="67.086"/>
<circle fill="#000000" cx="392.334" cy="843.417" r="70.422"/>
<g>
	<path fill="#000000" d="M392.334,852.754c-52.959,0-104.341-10.375-152.718-30.837c-46.72-19.761-88.677-48.048-124.705-84.075
		c-36.027-36.027-64.314-77.983-84.075-124.704C10.375,564.761,0,513.38,0,460.42c0-52.959,10.375-104.341,30.836-152.718
		c19.761-46.72,48.048-88.677,84.075-124.705c36.028-36.027,77.984-64.314,124.705-84.075
		c48.376-20.461,99.758-30.836,152.718-30.836c52.96,0,104.341,10.375,152.718,30.836c46.721,19.761,88.677,48.048,124.704,84.075
		c36.027,36.028,64.314,77.984,84.075,124.705c20.462,48.376,30.837,99.758,30.837,152.718c0,52.96-10.375,104.341-30.837,152.718
		c-19.761,46.721-48.048,88.677-84.075,124.704s-77.983,64.314-124.704,84.075C496.675,842.379,445.294,852.754,392.334,852.754z
		 M392.334,92.086C189.234,92.086,24,257.32,24,460.42c0,203.1,165.234,368.334,368.334,368.334
		c203.1,0,368.334-165.234,368.334-368.334C760.668,257.32,595.434,92.086,392.334,92.086z"/>
</g>
</svg>
