<?xml version="1.0" encoding="utf-8"?>
<!-- Generator: Adobe Illustrator 16.0.0, SVG Export Plug-In . SVG Version: 6.00 Build 0)  -->
<!DOCTYPE svg PUBLIC "-//W3C//DTD SVG 1.1//EN" "http://www.w3.org/Graphics/SVG/1.1/DTD/svg11.dtd">
<svg version="1.1" xmlns="http://www.w3.org/2000/svg" xmlns:xlink="http://www.w3.org/1999/xlink" x="0px" y="0px"
	 width="824.079px" height="834.336px" viewBox="0 0 824.079 834.336" enable-background="new 0 0 824.079 834.336"
	 xml:space="preserve">
<g id="Layer_3">
	<g>
		<path opacity="0.5" fill="#000000" d="M814.799,519.81l-1.732-11.956l-58.48,10.042l50.79-237.755l-5.856-1.479l-1.224-5.914
			l-70.611,14.832l9.973-75.472l-5.915-1.225l-1.479-5.855l-232.72,55.822l8.356-58.738l-11.956-1.732l-9.648,67.672l5.977,0.866
			l-0.829,5.984l225.109,25.813l25.986,225.282l5.982-0.828l0.866,5.977L814.799,519.81z M749.531,492.388l-22.866-192.261
			l64.638-13.595L749.531,492.388z M723.874,219.103l-8.734,69.498l-190.777-24.006L723.874,219.103z"/>
		<g>
			<path fill="#000000" d="M789.289,574.747l-348.77-348.771l48.495-34.006l258.261,8.669l67.354,67.35l9.45,258.598
				L789.289,574.747z M472.084,231.919l311.263,311.262l21.995-18.987l-7.674-247.538l-63.735-63.816l-242.528-2.136
				L472.084,231.919z"/>
		</g>
	</g>
	<g opacity="0.75">
		<path opacity="0.5" fill="#000000" d="M591.015,678.52l-1.379-9.52l-46.564,7.996l40.44-189.307l-4.663-1.178l-0.974-4.709
			l-56.223,11.811l7.94-60.093l-4.71-0.976l-1.178-4.662L338.408,472.33l6.654-46.769l-9.52-1.38l-7.682,53.882l4.759,0.69
			l-0.66,4.764l179.238,20.553l20.691,179.376l4.763-0.66l0.69,4.759L591.015,678.52z M539.046,656.686L520.84,503.603
			l51.466-10.825L539.046,656.686z M518.618,439.089l-6.954,55.337l-151.902-19.115L518.618,439.089z"/>
		<g>
			<path fill="#000000" d="M570.703,722.263l-277.699-277.7l38.613-27.077l205.634,6.902l53.629,53.626l7.524,205.902
				L570.703,722.263z M318.137,449.294l247.835,247.835l17.513-15.118l-6.109-197.097l-50.748-50.812l-193.107-1.701
				L318.137,449.294z"/>
		</g>
	</g>
	<g opacity="0.5">
		<path opacity="0.5" fill="#000000" d="M404.722,801.5l-1.035-7.146l-34.953,6.003l30.356-142.101l-3.5-0.884l-0.73-3.535
			l-42.203,8.865l5.96-45.108l-3.535-0.731l-0.884-3.5l-139.092,33.363l4.995-35.105l-7.146-1.036l-5.767,40.446l3.572,0.518
			l-0.495,3.576l134.542,15.428l15.532,134.646l3.575-0.495l0.519,3.571L404.722,801.5z M365.712,785.111l-13.666-114.91
			l38.632-8.125L365.712,785.111z M350.378,621.775l-5.22,41.538l-114.023-14.35L350.378,621.775z"/>
		<g>
			<path fill="#000000" d="M389.475,834.336L181.023,625.884l28.985-20.325l154.356,5.182l40.256,40.253l5.648,154.558
				L389.475,834.336z M199.889,629.436L385.924,815.47l13.146-11.349l-4.586-147.948l-38.093-38.142l-144.954-1.275L199.889,629.436
				z"/>
		</g>
	</g>
</g>
<g id="Layer_2" opacity="0.5">
	<g>
		<g>
			<path fill="#000000" d="M266.896,229.187c20.793,0,37.709,16.917,37.709,37.709s-16.917,37.709-37.709,37.709
				s-37.709-16.917-37.709-37.709S246.103,229.187,266.896,229.187 M266.896,212.526c-30.027,0-54.37,24.342-54.37,54.37
				c0,30.028,24.342,54.37,54.37,54.37s54.37-24.342,54.37-54.37C321.266,236.869,296.923,212.526,266.896,212.526L266.896,212.526z
				"/>
		</g>
		<g>
			<path fill="#000000" d="M468.667,352.124c-10.814,25.567-26.219,48.574-45.779,68.425l21.997,0.738
				c31.756-36.583,52.426-83.05,56.771-134.173l-15.842-15.841C485.272,299.293,479.517,326.473,468.667,352.124z"/>
			<path fill="#000000" d="M326.197,477.757c-19.176,5.389-39.028,8.111-59.301,8.111c-29.568,0-58.243-5.787-85.229-17.201
				c-26.073-11.028-49.493-26.819-69.608-46.935c-20.115-20.116-35.907-43.535-46.935-69.608
				c-11.414-26.985-17.201-55.66-17.201-85.228c0-29.568,5.787-58.243,17.201-85.229c11.028-26.073,26.819-49.493,46.935-69.608
				c20.116-20.115,43.535-35.906,69.608-46.935c26.985-11.414,55.66-17.201,85.229-17.201s58.243,5.788,85.229,17.201
				c26.073,11.028,49.493,26.819,69.608,46.935c20.116,20.116,35.907,43.535,46.935,69.608c2.715,6.419,5.102,12.937,7.178,19.537
				l13.169-9.234l1.359,0.045C459.082,98.589,370.854,31.263,266.896,31.263c-130.136,0-235.633,105.497-235.633,235.633
				c0,130.135,105.497,235.632,235.633,235.632c25.353,0,49.767-4.012,72.65-11.423L326.197,477.757z"/>
		</g>
		<g>
			<path fill="#000000" d="M266.896,155.492c29.757,0,57.733,11.588,78.775,32.629s32.629,49.018,32.629,78.775
				s-11.588,57.733-32.629,78.775S296.653,378.3,266.896,378.3s-57.733-11.588-78.775-32.629s-32.629-49.018-32.629-78.775
				s11.588-57.733,32.629-78.775S237.139,155.492,266.896,155.492 M266.896,138.832c-70.728,0-128.064,57.336-128.064,128.064
				S196.168,394.96,266.896,394.96c70.729,0,128.064-57.336,128.064-128.064S337.625,138.832,266.896,138.832L266.896,138.832z"/>
		</g>
		<line fill="none" stroke="#000000" stroke-width="10.7152" x1="266.896" y1="525.462" x2="266.896" y2="311.545"/>
		<polygon fill="#000000" points="476.089,261.547 312.212,261.547 312.212,272.245 486.788,272.245 		"/>
		<line fill="none" stroke="#000000" stroke-width="10.7818" x1="266.896" y1="224.912" x2="266.896" y2="8.33"/>
		<line fill="none" stroke="#000000" stroke-width="10.7486" x1="8.33" y1="266.896" x2="223.58" y2="266.896"/>
		<g>
			<rect y="242.905" fill="#000000" width="16.66" height="47.982"/>
		</g>
		<g>
			<rect x="242.905" fill="#000000" width="47.982" height="16.66"/>
		</g>
		<g>
			<rect x="242.905" y="517.132" fill="#000000" width="47.982" height="16.66"/>
		</g>
	</g>
</g>
</svg>
