<?xml version="1.0" encoding="utf-8"?>
<!-- Generator: Adobe Illustrator 16.0.0, SVG Export Plug-In . SVG Version: 6.00 Build 0)  -->
<!DOCTYPE svg PUBLIC "-//W3C//DTD SVG 1.1//EN" "http://www.w3.org/Graphics/SVG/1.1/DTD/svg11.dtd">
<svg version="1.1" id="Layer_2" xmlns="http://www.w3.org/2000/svg" xmlns:xlink="http://www.w3.org/1999/xlink" x="0px" y="0px"
	 width="810.309px" height="855.061px" viewBox="0 0 810.309 855.061" enable-background="new 0 0 810.309 855.061"
	 xml:space="preserve">
<g>
	<path fill="#000000" d="M430.135,855.061h-55c-18.663,0-39.209-15.243-55.718-27.491c-6.365-4.723-12.948-9.606-16.593-11.333
		c-12.714-6.022-36.068-28.563-58.899-51.133c-3.336-3.298-6.217-6.146-8.125-7.972c-8.281-7.921-28.167-17.975-43.14-23.965
		c-16.363-6.546-18.915-23.393-20.286-32.443c-0.269-1.773-0.546-3.606-0.809-4.579c-1.563-4.884-15.718-25.658-23.643-34.654
		c-9.716-11.027-12.684-31.009-16.121-54.144l-0.127-0.855c-2.669-17.961-44.909-110.131-59.469-129.767
		c-0.787-1.062-1.706-2.256-2.713-3.568c-7.585-9.875-20.243-26.356-23.385-44.337c-2.367-7.991-28.1-61.899-38.687-83.404
		c-8.515-17.295-10.662-74.265-1.33-95.263c9.44-21.241,49.127-60.967,68.9-71.867c3.962-2.184,14.486-7.985,86.747-12.999
		c38.688-2.685,77.028-3.893,91.897-3.893c34.932,0,83.952,32.985,110.287,50.706c3.829,2.576,7.135,4.801,9.391,6.227
		c42.52,26.871,73.258,66.838,88.03,86.045c2.518,3.274,4.507,5.86,5.88,7.501c10.37,12.396,57.829,100.863,62.674,129.167
		c1.444,8.441,1.336,25.931,0.986,53.729c-0.258,20.455-0.688,54.607,1.308,61.349c1.426,3.118,5.773,8.646,9.618,13.535
		c9.527,12.114,20.326,25.845,20.326,40.24v50c0,28.353-44.283,97.58-53.16,111.169c-14.21,21.754-28.753,41.619-40.949,55.937
		C447.017,851.661,437.398,855.061,430.135,855.061z M253.635,186.395c-14.061,0-52.398,1.215-90.028,3.823
		c-64.837,4.493-75.542,9.417-76.548,9.964c-16.712,9.212-51.478,45.175-58.122,60.125c-6.521,14.671-4.107,63.87,0.913,74.067
		c1.596,3.242,39.108,79.517,40.85,89.942c2,11.972,12.404,25.519,18.62,33.613c1.103,1.436,2.106,2.743,2.967,3.905
		c15.688,21.155,60.632,117.538,64.116,140.982l0.127,0.856c2.245,15.111,5.319,35.808,10.15,41.292
		c5.7,6.47,25.893,33.048,29.024,44.68c0.628,2.334,0.996,4.763,1.386,7.335c1.008,6.655,2.006,11.837,4.854,12.977
		c5.942,2.377,36.333,14.951,51.135,29.109c2.058,1.969,4.866,4.744,8.421,8.259c12.596,12.453,42.094,41.614,52.025,46.318
		c5.866,2.779,12.781,7.909,20.787,13.849c12.114,8.987,30.42,22.569,40.822,22.569h53.938c7.431-3.465,30.916-29.029,61.813-77.052
		c30.363-47.19,46.249-82.563,46.249-93.114v-50c0-5.742-9.013-17.202-14.977-24.785c-5.336-6.784-10.375-13.192-12.996-19.253
		c-3.675-8.496-3.82-28.281-3.277-71.4c0.25-19.873,0.533-42.397-0.631-49.198c-3.894-22.753-49.058-107.601-57.207-117.343
		c-1.701-2.034-3.828-4.799-6.521-8.301c-13.894-18.064-42.805-55.654-81.569-80.153c-2.56-1.618-5.84-3.825-9.993-6.62
		C329.309,218.943,280.939,186.395,253.635,186.395z"/>
</g>
<g opacity="0.75">
	<path fill="#000000" d="M621.302,349.728c-19.906,0-47.5-18.322-86.839-57.661c-17.463-17.462-16.767-61.199-14.381-108.313
		c0.386-7.63,0.72-14.22,0.72-18.526c0-22.912,21.059-67.408,33.611-91.892c8.349-16.284,17.173-31.969,24.846-44.165
		C592.387,8.306,597.12,5.426,601.548,3.998C609.771,1.345,618.17,0,626.509,0c13.134,0,25.979,3.248,38.18,9.653
		c1.24,0.387,5.662,1.133,12.204,1.133c4.909,0,7.985-0.417,9.313-0.688c5.078-3.553,11.538-5.353,19.233-5.353
		c6.966,0,14.806,1.527,22.672,4.415c12.643,4.642,29.947,23.161,57.458,55.711c4.424,5.234,9.438,11.167,10.779,12.415
		c7.412,6.671,13.552,24.098,13.961,39.657c0.362,13.783-3.615,25.236-11.502,33.124c-3.597,3.648-18.785,27.078-30.99,45.904
		c-16.51,25.467-35.222,54.332-46.14,67.796c-0.587,0.739-2.479,3.659-4.149,6.235C702.059,293.859,665.835,349.728,621.302,349.728
		z M611.1,27.218c-5.23,5.67-20.255,29.322-36.661,61.894c-21.114,41.919-28.637,66.805-28.637,76.116
		c0,4.938-0.349,11.821-0.752,19.79c-0.819,16.178-1.839,36.312-0.86,54.498c1.421,26.401,6.445,33.367,7.951,34.873
		c46.709,46.709,64.746,50.339,69.161,50.339c30.947,0,64.291-51.427,75.249-68.327c2.702-4.169,4.334-6.685,5.707-8.379
		c10.082-12.434,28.41-40.707,44.581-65.651c18.473-28.495,29.173-44.865,34.29-49.982c3.493-3.493,4.904-10.429,3.872-19.03
		c-1.072-8.942-4.35-16.056-5.641-17.731c-2.352-2.182-5.92-6.377-12.887-14.619c-9.436-11.164-38.148-45.138-46.98-48.381
		c-5.063-1.859-10.055-2.883-14.055-2.883c-3.717,0-4.932,0.859-4.943,0.868c-1.913,1.547-6.395,5.173-23.603,5.173
		c-7.427,0-17.549-0.673-23.599-3.879C639.802,24.759,625.392,23.113,611.1,27.218z"/>
</g>
<g opacity="0.5">
	<path fill="#000000" d="M680.635,553.395c-17.488,0-31.246-2.016-42.059-6.162c-17.48-6.703-27.107-19.489-27.107-36.004
		c0-26.958,34.881-53.467,60.35-72.822c6.296-4.785,14.082-10.702,16.103-12.974c6.848-12.305,28.408-35.371,49.381-35.371
		c25.758,0,46.5,27.991,46.5,51.167c0,23.808-13.781,36.576-22.016,44.205c-1.043,0.966-2.355,2.182-3.227,3.077
		c-0.077,1.594-0.014,4.227,0.036,6.271c0.202,8.296,0.478,19.657-3.435,31.398C747.271,549.859,705.081,553.395,680.635,553.395z
		 M737.302,415.062c-7.853,0-23.188,14.373-27.638,22.715c-2.812,5.273-8.997,10.105-22.719,20.534
		c-10.827,8.229-24.302,18.469-34.789,28.896c-14.159,14.077-15.688,21.489-15.688,24.022c0,14.188,24.018,17.166,44.166,17.166
		c31.285,0,48.736-6.734,50.84-10.215c2.498-7.57,2.302-15.655,2.129-22.791c-0.186-7.62-0.345-14.201,3.242-19.677
		c2.087-3.186,4.935-5.824,7.949-8.617c6.887-6.38,14.007-12.977,14.007-25.866C758.802,431.618,748.178,415.062,737.302,415.062z"
		/>
</g>
</svg>
