<?xml version="1.0" encoding="utf-8"?>
<!-- Generator: Adobe Illustrator 16.0.0, SVG Export Plug-In . SVG Version: 6.00 Build 0)  -->
<!DOCTYPE svg PUBLIC "-//W3C//DTD SVG 1.1//EN" "http://www.w3.org/Graphics/SVG/1.1/DTD/svg11.dtd">
<svg version="1.1" xmlns="http://www.w3.org/2000/svg" xmlns:xlink="http://www.w3.org/1999/xlink" x="0px" y="0px"
	 width="950.134px" height="739px" viewBox="0 0 950.134 739" enable-background="new 0 0 950.134 739" xml:space="preserve">
<g id="Layer_2">
	<g>
		<path fill="#000000" d="M688.032,45l208.606,324.5L688.032,694H262.101L53.496,369.5L262.101,45H688.032 M712.6,0H237.533L0,369.5
			L237.533,739H712.6l237.534-369.5L712.6,0L712.6,0z"/>
	</g>
	<g>
		<path fill="#000000" d="M639.499,120.498L799.571,369.5L639.499,618.503H310.635L150.563,369.5l160.071-249.002H639.499
			 M664.067,75.498h-378l-189,294.002l189,294.003h378l189-294.003L664.067,75.498L664.067,75.498z"/>
	</g>
</g>
<g id="Layer_6">
	<polygon fill="#000000" points="396.663,346.945 566.059,253.287 566.059,152.05 425.951,223.385 	"/>
	<polygon fill="#000000" points="452.512,447.904 358.854,278.508 257.617,278.508 328.952,418.615 	"/>
	<polygon fill="#000000" points="553.471,392.055 384.075,485.713 384.075,586.949 524.182,515.615 	"/>
	<polygon fill="#000000" points="497.622,291.096 591.28,460.492 692.516,460.492 621.182,320.385 	"/>
</g>
</svg>
