<?xml version="1.0" encoding="utf-8"?>
<!-- Generator: Adobe Illustrator 16.0.0, SVG Export Plug-In . SVG Version: 6.00 Build 0)  -->
<!DOCTYPE svg PUBLIC "-//W3C//DTD SVG 1.1//EN" "http://www.w3.org/Graphics/SVG/1.1/DTD/svg11.dtd">
<svg version="1.1" xmlns="http://www.w3.org/2000/svg" xmlns:xlink="http://www.w3.org/1999/xlink" x="0px" y="0px"
	 width="640.499px" height="779px" viewBox="0 0 640.499 779" enable-background="new 0 0 640.499 779" xml:space="preserve">
<g id="Layer_4">
	<g>
		<polygon fill="#000000" points="310,763.725 321,725.195 332,763.725 		"/>
	</g>
	<g>
		<polygon fill="#000000" points="253.822,752.98 277.963,721 274.345,760.905 		"/>
	</g>
	<g>
		<polygon fill="#000000" points="210.766,727.407 229.827,692.162 232.247,732.158 		"/>
	</g>
	<g>
		<polygon fill="#000000" points="387.178,752.98 363.037,721 366.654,760.905 		"/>
	</g>
	<g>
		<polygon fill="#000000" points="430.234,727.407 411.173,692.162 408.753,732.158 		"/>
	</g>
</g>
<g id="Layer_2">
	<g>
		<path fill="#000000" d="M320.334,20c33.162,0,68.257,6.304,101.488,18.23c36.305,13.029,69.03,32.006,97.269,56.403
			c31.114,26.882,55.54,59.44,72.598,96.772c19.117,41.838,28.811,89.477,28.811,141.594c0,31.574-4.931,60.399-15.074,88.123
			c-8.885,24.283-20.571,44.454-30.883,62.251c-15.048,25.971-28.043,48.399-28.043,74.626c0,8.401,3.949,15.588,8.949,24.688
			c4.241,7.719,10.051,18.291,10.051,25.309c-0.038,3.116-4.051,13.928-13.545,25.948c-9.722,12.309-18.123,16.856-20.496,17.056
			c-0.688-0.001-1.217-0.035-1.605-0.077c-0.27-0.458-0.573-1.001-0.826-1.454c-2.669-4.777-9.758-17.469-26.527-17.469
			c-14.577,0-26.896,5.852-35.623,16.921c-12.649,16.045-14.787,40.48-12.402,61.071c-1.801,0.009-3.563,0.009-5.121,0.009h-2.304
			l-2.55-0.001c-15.723,0-26.889,3.99-34.135,12.198c-6.357,7.203-7.77,15.361-7.745,22.071
			c-15.152,0.814-29.604,3.902-37.418,14.73h-89.903c-7.814-10.828-22.266-13.916-37.418-14.73
			c0.024-6.71-1.387-14.868-7.746-22.071C222.889,713.99,211.723,710,196,710l-2.55,0.001h-2.303c-1.559,0-3.321,0-5.122-0.009
			c2.385-20.591,0.247-45.026-12.403-61.071C164.895,637.852,152.577,632,138,632c-16.77,0-23.859,12.691-26.528,17.469
			c-0.252,0.453-0.556,0.996-0.825,1.454c-0.39,0.042-0.918,0.076-1.606,0.077c-2.372-0.199-10.774-4.747-20.496-17.056
			C79.051,621.924,75.039,611.112,75,608c0-7.021,5.809-17.594,10.051-25.313c5-9.1,8.949-16.286,8.949-24.688
			c0-26.227-12.996-48.655-28.043-74.626c-10.311-17.797-21.998-37.968-30.883-62.251C24.931,393.399,20,364.574,20,333
			c0-52.113,9.701-99.751,28.834-141.588c17.072-37.331,41.516-69.89,72.653-96.773c28.258-24.398,61.004-43.376,97.329-56.407
			C252.064,26.304,287.169,20,320.334,20 M320.334,0C182.334,0,0,101,0,333c0,126,74,172,74,225c0,8.332-19,30-19,50s31,63,54,63
			s17-19,29-19c31,0,32,43,26,68c-2.33,9.707,3.247,10.001,27.147,10.001c1.54,0,3.158-0.001,4.853-0.001c42,0,6,34,30,34
			c50,0,26,15,41,15c8,0,98.499,0,106.499,0c15,0-9-15,41-15c24,0-12-34,30-34c1.697,0,3.312,0.001,4.854,0.001
			c23.896,0,29.477-0.294,27.146-10.001c-6-25-5-68,26-68c12,0,6,19,29,19s54-43,54-63s-19-41.668-19-50c0-53,74-99,74-225
			C640.499,101,458.334,0,320.334,0L320.334,0z"/>
	</g>
</g>
<g id="Layer_3">
	<g>
		<path fill="#000000" d="M130,396.5c8.28,0,31.107,1.892,54.975,5.058c29.064,3.854,43.337,7.402,48.002,9.134
			c3.267,3.655,9.106,10.995,15.275,19.634c7.652,10.714,11.357,17.126,12.748,19.903v9.637
			c-1.525,3.698-8.094,14.372-21.046,28.116c-13.533,14.36-23.623,20.829-26.946,22.019h-82.747
			c-3.738-1.246-13.729-7.969-25.909-19.942c-2.104-4.383-6.548-18.485-10.53-38.274c-3.59-17.842-4.829-30.286-4.907-36.526
			c3.548-2.534,9.162-6.21,15.988-9.854C120.375,397.142,128.024,396.5,130,396.5 M130,376.5c-21,0-53.5,22-59,27.5
			c-8,8,9.25,90.25,18,99c10.25,10.25,29.333,27,40.333,27H214c19.5,0,67-53.5,67-68.5c0-9,0,1.833,0-14.167
			c0-7.333-26.333-43.337-35.333-52.337S151,376.5,130,376.5L130,376.5z"/>
	</g>
	<g>
		<path fill="#000000" d="M318.5,499.197c5.354,6.532,12.37,15.493,20.602,26.606c15.475,20.893,24.152,34.366,27.023,39.656v19.415
			c0,7.805-2.388,9.208-3.535,9.883c-1.948,1.145-5.925,2.509-13.813,2.509c-0.248,0-0.493-0.001-0.735-0.004
			c-3.178-4.869-7.804-13.148-11.562-20.853l-17.98-36.919l-17.981,36.919c-3.686,7.568-8.371,15.943-11.569,20.854
			c-0.24,0.002-0.482,0.003-0.728,0.003c-7.888,0-11.865-1.364-13.813-2.509c-1.147-0.674-3.535-2.077-3.535-9.883V565.46
			c2.871-5.29,11.549-18.764,27.024-39.656C306.13,514.69,313.146,505.729,318.5,499.197 M318.5,470.5
			c-5.848,0-67.625,82.875-67.625,91.375v23c0,29.146,23.287,32.392,37.348,32.392c4.031,0,7.304-0.267,9.052-0.267
			c5.721,0,21.225-31.833,21.225-31.833S334.004,617,339.726,617c1.749,0,5.02,0.267,9.052,0.267
			c14.061,0,37.348-3.248,37.348-32.392v-23C386.125,553.375,324.349,470.5,318.5,470.5L318.5,470.5z"/>
	</g>
	<g>
		<path fill="#000000" d="M507,396.5c1.976,0,9.625,0.642,25.097,8.902c6.826,3.645,12.44,7.32,15.988,9.854
			c-0.079,6.24-1.317,18.685-4.907,36.526c-3.982,19.789-8.427,33.892-10.53,38.274c-12.18,11.974-22.171,18.696-25.909,19.942
			h-82.746c-3.323-1.189-13.412-7.658-26.945-22.019c-12.953-13.744-19.521-24.418-21.047-28.116v-9.637
			c1.391-2.777,5.097-9.189,12.748-19.903c6.169-8.639,12.009-15.979,15.274-19.634c4.665-1.731,18.939-5.279,48.003-9.134
			C475.893,398.392,498.72,396.5,507,396.5 M507,376.5c-21,0-106.667,9.496-115.667,18.496S356,440,356,447.333
			c0,16,0,5.167,0,14.167c0,15,47.5,68.5,67,68.5h84.666c11,0,30.084-16.75,40.334-27c8.75-8.75,26-91,18-99
			C560.5,398.5,528,376.5,507,376.5L507,376.5z"/>
	</g>
</g>
</svg>
