<?xml version="1.0" encoding="utf-8"?>
<!-- Generator: Adobe Illustrator 16.0.0, SVG Export Plug-In . SVG Version: 6.00 Build 0)  -->
<!DOCTYPE svg PUBLIC "-//W3C//DTD SVG 1.1//EN" "http://www.w3.org/Graphics/SVG/1.1/DTD/svg11.dtd">
<svg version="1.1" xmlns="http://www.w3.org/2000/svg" xmlns:xlink="http://www.w3.org/1999/xlink" x="0px" y="0px" width="960px"
	 height="866.838px" viewBox="0 0 960 866.838" enable-background="new 0 0 960 866.838" xml:space="preserve">
<g id="Layer_3" opacity="0.5">
	<path fill="#000000" d="M665.778,406.842c2.027,0,9.876,0.659,25.751,9.134c7.004,3.74,12.765,7.511,16.405,10.111
		c-0.081,6.403-1.352,19.172-5.035,37.479c-4.086,20.307-8.646,34.776-10.806,39.272c-12.498,12.288-22.749,19.186-26.585,20.464
		h-84.903c-3.41-1.221-13.763-7.858-27.649-22.594c-13.29-14.103-20.03-25.055-21.596-28.85v-9.889
		c1.427-2.849,5.229-9.429,13.08-20.422c6.331-8.864,12.322-16.394,15.675-20.145c4.787-1.777,19.433-5.417,49.255-9.373
		C633.859,408.783,657.282,406.842,665.778,406.842 M665.778,386.32c-21.549,0-109.449,9.744-118.684,18.979
		c-9.236,9.234-36.256,46.177-36.256,53.702c0,16.417,0,5.302,0,14.537c0,15.391,48.74,70.287,68.748,70.287h86.874
		c11.287,0,30.869-17.188,41.386-27.705c8.979-8.978,26.679-93.373,18.47-101.582C720.674,408.894,687.326,386.32,665.778,386.32
		L665.778,386.32z"/>
	<path fill="#000000" d="M533.769,561.313c-11.441-17.884-32.702-46.646-47.067-63.957c0.08,0.307,0.168,0.61,0.242,0.92
		l11.587,48.102c11.766,16.191,18.919,27.207,22.007,32.596C523.626,572.063,528.183,566.066,533.769,561.313z"/>
	<path fill="#000000" d="M278.261,543.824h86.875c0.493,0,1.008-0.043,1.535-0.108l7.953-27.123
		c-5.06,3.952-8.731,6.074-10.507,6.71h-84.904c-3.835-1.278-14.086-8.176-26.585-20.463c-2.159-4.498-6.719-18.968-10.805-39.273
		c-3.684-18.307-4.955-31.076-5.036-37.479c3.641-2.601,9.401-6.372,16.405-10.111c15.875-8.476,23.724-9.135,25.751-9.135
		c8.496,0,31.918,1.941,56.408,5.189c29.822,3.955,44.468,7.595,49.255,9.373c3.352,3.75,9.344,11.281,15.674,20.145
		c7.851,10.994,11.653,17.573,13.081,20.423v0.419c4.854-1.562,10.002-2.405,15.305-2.405h5.216c0-0.322,0-0.639,0-0.985
		c0-7.524-27.021-44.467-36.255-53.702c-9.235-9.235-97.136-18.979-118.684-18.979c-21.547,0-54.895,22.573-60.539,28.217
		c-8.208,8.209,9.492,92.604,18.47,101.582C247.393,526.637,266.974,543.824,278.261,543.824z"/>
	<path fill="#000000" d="M201.988,623.858c0,6.343,3.042,14.941,7.938,23.794l15.93-13.84c-2.275-4.749-3.326-8.35-3.346-9.954
		c0-7.205,5.961-18.053,10.314-25.974c5.13-9.336,9.182-16.71,9.182-25.33c0-26.91-13.334-49.925-28.774-76.573
		c-10.58-18.261-22.572-38.958-31.688-63.874c-10.408-28.447-15.468-58.025-15.468-90.422c0-53.473,9.955-102.353,29.586-145.282
		c17.517-38.304,42.599-71.712,74.548-99.297c28.995-25.034,62.596-44.507,99.868-57.877
		c34.115-12.239,70.135-18.708,104.166-18.708c34.027,0,70.037,6.469,104.136,18.706c37.251,13.369,70.83,32.841,99.806,57.875
		c31.926,27.583,56.987,60.991,74.491,99.296c19.615,42.929,29.562,91.811,29.562,145.287c0,32.397-5.06,61.975-15.468,90.422
		c-9.116,24.916-21.107,45.613-31.688,63.875c-15.439,26.647-28.773,49.662-28.773,76.572c0,8.62,4.052,15.994,9.182,25.33
		c4.353,7.92,10.313,18.768,10.313,25.97c-0.028,2.239-2.065,8.356-6.624,16.054l20.313,5.688
		c4.244-8.118,6.832-15.888,6.832-21.738c0-20.522-19.495-42.755-19.495-51.304c0-54.383,75.93-101.582,75.93-230.869
		C802.759,103.634,615.843,0,474.243,0S145.554,103.634,145.554,341.686c0,129.287,75.931,176.486,75.931,230.869
		C221.484,581.104,201.988,603.336,201.988,623.858z"/>
</g>
<g id="Layer_2">
	<g>
		<polygon fill="#000000" points="492.042,866.838 434.437,612.011 365.838,824.21 287.055,686.616 235.606,731.318 0,731.318 
			0,701.318 224.394,701.318 294.945,640.021 358.162,750.428 439.563,498.626 499.958,765.799 569.746,590.411 656.577,746.5 
			694.093,684.808 753.061,701.318 960,701.318 960,731.318 748.939,731.318 707.907,719.829 655.423,806.137 574.254,660.226 		"/>
	</g>
</g>
</svg>
