<?xml version="1.0" encoding="utf-8"?>
<!-- Generator: Adobe Illustrator 16.0.0, SVG Export Plug-In . SVG Version: 6.00 Build 0)  -->
<!DOCTYPE svg PUBLIC "-//W3C//DTD SVG 1.1//EN" "http://www.w3.org/Graphics/SVG/1.1/DTD/svg11.dtd">
<svg version="1.1" id="Layer_2" xmlns="http://www.w3.org/2000/svg" xmlns:xlink="http://www.w3.org/1999/xlink" x="0px" y="0px"
	 width="914.092px" height="818.925px" viewBox="0 0 914.092 818.925" enable-background="new 0 0 914.092 818.925"
	 xml:space="preserve">
<path d="M455.415,144.957c146.781,0,265.771,118.989,265.771,265.771c0,146.781-118.99,265.77-265.771,265.77
	c-146.781,0-265.771-118.988-265.771-265.77C189.644,263.946,308.633,144.957,455.415,144.957 M455.415,111.957
	c-40.319,0-79.45,7.904-116.305,23.492c-35.582,15.05-67.53,36.587-94.958,64.016c-27.428,27.428-48.966,59.376-64.016,94.958
	c-15.588,36.855-23.492,75.986-23.492,116.306s7.904,79.45,23.492,116.305c15.05,35.582,36.587,67.53,64.016,94.958
	c27.428,27.428,59.376,48.965,94.958,64.015c36.855,15.589,75.986,23.492,116.305,23.492c40.319,0,79.45-7.903,116.305-23.492
	c35.581-15.05,67.529-36.587,94.958-64.015c27.428-27.428,48.966-59.376,64.016-94.958c15.588-36.854,23.492-75.985,23.492-116.305
	s-7.904-79.45-23.492-116.306c-15.05-35.581-36.588-67.53-64.016-94.958c-27.429-27.428-59.377-48.966-94.958-64.016
	C534.864,119.86,495.733,111.957,455.415,111.957L455.415,111.957z"/>
<g>
	<path fill="#000000" d="M283.644,467.728c0-146.782,118.989-265.771,265.77-265.771c30.729,0,60.233,5.233,87.689,14.827
		c-47.524-44.54-111.416-71.827-181.689-71.827c-146.781,0-265.771,118.989-265.771,265.771
		c0,116.052,74.39,214.712,178.081,250.942C315.984,613.179,283.644,544.235,283.644,467.728z"/>
</g>
<g>
	<path d="M113.748,109.904c-3.625,0.001-6.427,0.888-8.292,2.752c-14.351,14.351,24.58,67.095,96.248,140.215
		c5.382-8.642,11.202-17.004,17.458-25.063c-23.052-23.677-42.039-44.626-56.616-62.493c-0.701-0.859-1.387-1.706-2.056-2.536
		c1.213,0.737,2.457,1.499,3.729,2.284c19.131,11.812,42.097,27.413,68.49,46.515c3.697-4.125,7.502-8.171,11.444-12.113
		c3.239-3.239,6.545-6.388,9.908-9.461C190.864,144.035,136.267,109.896,113.748,109.904z"/>
	<path d="M180.136,294.422c3.999-9.454,8.47-18.643,13.373-27.567C78.153,146.032,13.63,53.94,33.599,33.972
		c2.513-2.513,6.371-3.699,11.438-3.697C81.956,30.29,182.398,93.36,284.133,165.887c8.869-6.217,18.067-11.941,27.576-17.158
		c-9.441-6.781-18.91-13.512-28.363-20.154c-52.986-37.229-98.61-66.847-135.607-88.032C126.5,28.38,107.906,18.778,92.475,12.272
		C72.851,3.999,57.781,0,45.05,0c-0.004,0-0.021,0-0.025,0C28.366,0,18.081,6.926,12.385,12.621
		C6.273,18.733-0.823,29.75,0.078,47.199c0.444,8.585,2.799,18.002,7.2,28.72c6.904,16.812,19.381,37.875,37.085,62.572
		c30.945,43.166,77.477,97.233,135.249,157.204C179.791,295.269,179.956,294.848,180.136,294.422z"/>
	<path d="M914.055,773.876c-0.482-12.306-5.58-26.753-16.042-45.466c-7.93-14.186-19.28-31.372-33.735-51.082
		c-25.394-34.626-61.419-78.427-104.181-126.666c-8.786-9.911-17.76-19.901-26.845-29.895c-0.831,2.095-1.679,4.185-2.559,6.265
		c-3.371,7.971-7.086,15.747-11.102,23.343c96.706,107.203,180.474,214.478,161.903,233.048c-3.729,3.729-8.822,5.502-15.051,5.502
		c-29.844,0-85.756-40.702-142.566-101.924c22.398,14.669,37.164,19.252,46.789,19.252c10.716,0,15.061-5.684,16.462-9.454
		c5.071-13.647-32.113-60.459-85.349-116.994c-5.732,8.337-11.896,16.388-18.48,24.135c21.377,22.828,36.676,40.447,47.599,53.89
		c-2.309-0.556-4.661-0.829-7.004-0.829c-8.577-0.001-17.045,3.668-22.937,10.645c-9.783,11.585-9.385,28.648,0.93,39.763
		c29.45,31.736,59.146,58.666,85.879,77.876c31.502,22.638,57.238,33.642,78.678,33.642c18.163,0,29.745-7.771,36.264-14.289
		C910.497,796.847,914.527,785.923,914.055,773.876z"/>
</g>
<g>
	<path fill="#000000" d="M225.726,276.94c-86.784-85.503-136.151-148.402-120.27-164.284
		c27.373-27.373,255.076,156.079,373.083,255.711S798.524,666.13,787.129,696.799c-2.66,7.158-15.917,21.202-63.251-9.798
		C792.545,761,859.898,805.02,881.495,783.423c32.91-32.91-255.585-344.411-367.915-440.388
		C401.25,247.059,70.558-2.987,33.599,33.972c-21.323,21.323,53.692,124.882,184.07,257.848L225.726,276.94z"/>
</g>
<g>
	<path fill="#000000" d="M474.341,419.399c-47.224-42.32-135.722-115.247-222.292-179.756c-6.097,7.24-11.826,14.798-17.133,22.667
		C308.204,313.82,392.598,381.452,448.545,431c52.844,46.799,121.588,118.204,177.771,183.246
		c6.429-5.403,12.597-11.104,18.484-17.084C581.463,525.066,515.445,456.235,474.341,419.399z"/>
</g>
<g>
</g>
<g>
</g>
<g>
</g>
<g>
</g>
<g>
</g>
<g>
</g>
<g>
</g>
<g>
</g>
<g>
</g>
<g>
</g>
<g>
</g>
<g>
</g>
<g>
</g>
<g>
</g>
<g>
</g>
</svg>
