<?xml version="1.0" encoding="UTF-8" standalone="no"?>
<svg width="1020px" height="1020px" viewBox="0 0 1020 1020" version="1.1" xmlns="http://www.w3.org/2000/svg" xmlns:xlink="http://www.w3.org/1999/xlink" xmlns:sketch="http://www.bohemiancoding.com/sketch/ns">
    <!-- Generator: Sketch 3.2.2 (9983) - http://www.bohemiancoding.com/sketch -->
    <title>rank-5</title>
    <desc>Created with Sketch.</desc>
    <defs></defs>
    <g id="Icons" stroke="none" stroke-width="1" fill="none" fill-rule="evenodd" sketch:type="MSPage">
        <g id="rank-5" sketch:type="MSArtboardGroup" fill="#000000">
            <path d="M510,585 L510,738 L480,585 L510,585 Z M510,585 L510,738 L540,585 L510,585 Z M493,397 L510,409 L510,490 L479,463 L479,438 L470,430 L482,315 L490,352 L493,397 Z M527,397 L510,409 L510,490 L541,463 L541,438 L550,430 L538,315 L530,352 L527,397 Z M510,511 L510,570 L468,534 L409,534 L427,518 L464,508 L465,492 L436,493 L457,476 L467,473 L510,511 Z M510,511 L510,570 L552,534 L611,534 L593,518 L556,508 L555,492 L584,493 L563,476 L553,473 L510,511 Z M510,850 L510,903 L367,768 C367,768 361.315794,761.671612 356,752 C350.213087,742.219615 352,706 352,706 L510,850 Z M510,850 L510,903 L653,768 C653,768 658.684206,761.671612 664,752 C669.786913,742.219615 668,706 668,706 L510,850 Z M733,531 C733,531 855.867188,420.248047 856,420 C875.794922,401.142578 873.974609,368.929688 878,314 L790,394 L790,365 C790,365 942.830078,225.650391 943,226 C957,211.244141 957.000001,196.589841 957,116 L631,412 C631,412 631.365035,435.469375 631,435 C687.803852,483.864258 677,514 677,514 L635,550 L597,550 L558,590 L510,831 C510,831 787.805374,581.958923 788,582 C808.260788,562.4599 805,517.160034 805,486 L733,552 L733,531 Z M287,531 C287,531 164.132812,420.248047 164,420 C144.205078,401.142578 146.025391,368.929688 142,314 L230,394 L230,365 C230,365 77.1699219,225.650391 77,226 C62.9999999,211.244141 62.999999,196.589841 63,116 L389,412 C389,412 388.634965,435.469375 389,435 C332.196148,483.864258 343,514 343,514 L385,550 L423,550 L462,590 L510,831 C510,831 232.194626,581.958923 232,582 C211.739212,562.4599 215,517.160034 215,486 L287,552 L287,531 Z" sketch:type="MSShapeGroup"></path>
        </g>
    </g>
</svg>
