<?xml version="1.0" encoding="UTF-8" standalone="no"?>
<svg width="1020px" height="1020px" viewBox="0 0 1020 1020" version="1.1" xmlns="http://www.w3.org/2000/svg" xmlns:xlink="http://www.w3.org/1999/xlink" xmlns:sketch="http://www.bohemiancoding.com/sketch/ns">
    <!-- Generator: Sketch 3.2.2 (9983) - http://www.bohemiancoding.com/sketch -->
    <title>rank-3</title>
    <desc>Created with Sketch.</desc>
    <defs></defs>
    <g id="Icons" stroke="none" stroke-width="1" fill="none" fill-rule="evenodd" sketch:type="MSPage">
        <g id="rank-3" sketch:type="MSArtboardGroup" fill="#000000">
            <path d="M510.057812,820.546711 L461.031183,573.489468 L412.118524,526.211933 L389.673751,524.743061 C389.673751,524.743061 387.697212,490.322697 421.769859,453.602283 C421.769859,453.60228 143.446914,200 143.446914,200 C143.446914,200 141.115131,292.209167 147.104031,311.311043 C153.092931,330.412918 175.967487,347.974411 175.967487,347.974411 L323.17311,487.219162 L322.178346,520.325901 L225.079872,428.830734 C225.079872,428.830734 230.46385,523.753595 237.262678,537.339531 C244.061507,550.925467 252.094648,556.267685 252.094648,556.267685 L323.173107,621.64706 L323.173107,650.473009 L510.007023,820.802651 L509.984587,820.91571 L510.057812,820.848953 L510.131037,820.91571 L510.108601,820.802651 L696.942517,650.473009 L696.942517,621.64706 L768.020976,556.267685 C768.020976,556.267685 776.054117,550.925467 782.852945,537.339531 C789.651773,523.753595 795.035752,428.830734 795.035752,428.830734 L697.937277,520.325901 L696.942513,487.219162 L844.148137,347.974411 C844.148137,347.974411 867.022692,330.412918 873.011592,311.311043 C879.000492,292.209167 876.668709,200 876.668709,200 C876.668709,200 598.345765,453.60228 598.345765,453.602283 C632.418412,490.322697 630.441873,524.743061 630.441873,524.743061 L607.997099,526.211933 L559.08444,573.489468 L510.057812,820.546711 Z M511.131037,449.749033 L511.131037,449.889256 L511.050959,449.819144 L510.97088,449.889256 L510.97088,449.749033 L473.451349,416.899014 L473.451349,386.990803 L461.97088,376.74667 L468.785334,289.05331 L490.732599,336.914639 L511.050959,351.993881 L531.369318,336.914639 L553.316584,289.05331 L560.131037,376.74667 L548.650568,386.990803 L548.650568,416.899014 L511.131037,449.749033 L511.131037,449.749033 Z M511.131037,477.268154 L511.131037,548.268154 L461.131037,505.268154 L458.131037,430.268154 L511.131037,477.268154 Z M511.131037,476.268154 L511.131037,547.268154 L561.131037,504.268154 L564.131037,429.268154 L511.131037,476.268154 Z M509.984587,573.268154 L509.984587,709.268154 L483.984587,573.268154 L509.984587,573.268154 Z M509.984587,573.268154 L509.984587,709.268154 L535.984587,573.268154 L509.984587,573.268154 Z" sketch:type="MSShapeGroup"></path>
        </g>
    </g>
</svg>
