<?xml version="1.0" encoding="UTF-8" standalone="no"?>
<svg width="1020px" height="1020px" viewBox="0 0 1020 1020" version="1.1" xmlns="http://www.w3.org/2000/svg" xmlns:xlink="http://www.w3.org/1999/xlink" xmlns:sketch="http://www.bohemiancoding.com/sketch/ns">
    <!-- Generator: Sketch 3.2.2 (9983) - http://www.bohemiancoding.com/sketch -->
    <title>rank-9</title>
    <desc>Created with Sketch.</desc>
    <defs></defs>
    <g id="Icons" stroke="none" stroke-width="1" fill="none" fill-rule="evenodd" sketch:type="MSPage">
        <g id="rank-9" sketch:type="MSArtboardGroup" fill="#000000">
            <path d="M510,742.287139 L510,779 L498,797 L487,865 L463.329541,842.961986 L510,742.287139 L510,779 L522,797 L533,865 L557.274069,842.400005 L557.274069,842.400005 L510.432066,741.355111 L510,742.287139 Z M460.55587,820.413276 L384.107194,748.626105 C384.102171,748.61689 383.778642,748.270251 383.334836,747.752478 C382.568074,746.857922 381.797586,745.856288 381.086052,744.788986 C380.013519,743.180186 379.185929,741.58412 378.6921,740.102633 C378.500171,739.526847 378.322837,738.912088 378.160699,738.263536 C377.661609,736.267178 377.331158,734.064166 377.146755,731.851336 C377.081681,731.070448 377.040012,730.348182 377.017112,729.706993 C376.994349,728.73396 376.994349,728.73396 376.985097,728.469998 C376.919276,726.578592 376.881234,725.474214 376.840263,724.273021 C376.723205,720.841107 376.60615,717.321564 376.496919,713.914545 C376.468747,713.035829 376.441412,712.174309 376.414998,711.332112 C376.153703,703.000939 376,697.130152 376,695 C376,684.534475 372.456643,675.971361 365.242641,668.757359 C362.571127,666.085845 328.290659,634.148143 271.844206,581.687348 C251.190383,562.491947 229.257837,542.118737 207.325312,521.752626 C204.408768,519.044381 201.571373,516.40976 198.823153,513.858056 C181.881124,497.494931 167.868536,483.940741 168,484 C147,461 148.898087,442 149,403 C148.898093,403.219227 190,440 190,440 L190,426 L98,341 C76,319 81.015657,298.325074 81,243 C81.015657,243.457795 127,286 127,286 L127,272 C127,272 19.8623783,170.946244 20,171 C5.70134853,156.534944 2.99999901,146.61809 3,66 C3,66 180.498523,227.139212 214.431102,257.944364 C214.558267,273.501314 215.847701,289.448505 218.727834,304.845105 C223.640816,331.108895 232.735054,352.556056 246.988324,367.453872 C246.903458,370.741371 246.401632,389.756436 246,391 C246.145712,401.969819 246,409.79089 246,413 C246,420.154468 246.565808,426.095238 248,432 C250.470908,440.676525 254.564812,448.041162 261,454 C265.178836,457.822086 282.454731,474.063028 283,474 C286.759939,477.969272 298.411065,489.098068 304.387434,494.6964 C303.983404,495.194817 303.602978,495.666735 303.229355,496.133004 C300.383043,499.685108 298.267796,502.505067 296.507905,505.155568 C291.999443,511.945581 289.809691,517.743119 290.088643,523.772123 C290.422904,530.996531 294.35045,537.627802 301.999231,544.471448 C309.9044,551.544493 346.557425,584.743658 402.679416,635.641135 C425.155997,656.025348 449.103925,677.750638 473.046941,699.47594 C481.427007,707.079804 489.207877,714.140533 496.190229,720.477077 C498.634044,722.694861 500.803484,724.663706 502.673632,726.360981 C503.114379,726.760991 503.452618,727.067967 503.717208,727.308102 L460.55587,820.413276 Z M503.878119,726.960995 L503.55648,726.52349 L503.818708,727.089154 L503.878119,726.960995 Z M512.543911,715.280446 L541,573 L566,547 L601,547 L633,514 C633,514 643,493.5 604,459 L604,426 L794.364368,248.458103 C794.759575,266.281699 793.654479,284.924904 790.340899,302.638623 C785.635131,327.794691 776.921474,347.766097 763.671694,360.707743 C750.001142,374.060375 739.47593,384.153965 730.194204,392.871393 C725.439354,397.337164 713.562986,408.338276 711.063345,410.682816 C706.858492,414.638564 703.077057,418.301792 698.621491,422.757359 C678.690699,442.68815 679.913576,468.97999 700.220388,493.799427 C700.870622,494.594157 701.528348,495.395057 702.379256,496.428994 C702.37824,496.427761 703.998231,498.395355 704.447666,498.941968 C706.071545,500.916964 707.205717,502.30821 708.270307,503.636783 C710.912181,506.933757 712.831623,509.492675 714.359264,511.793394 C717.587013,516.654578 718.927731,520.204232 718.788313,523.217496 C718.624472,526.758587 716.323984,530.642733 710.863362,535.528552 C702.926358,542.630082 666.292483,575.811901 610.004895,626.859559 C587.645839,647.137188 563.697185,668.863137 539.753468,690.589074 C531.373177,698.193143 523.592091,705.254067 516.60953,711.590801 C515.155443,712.910398 513.798487,714.141869 512.543911,715.280446 Z M806.438489,257.15492 C842.420144,224.489546 1017,66 1017,66 C1017,146.61809 1014.29865,156.534944 1000,171 C1000.13762,170.946244 893,272 893,272 L893,286 C893,286 938.984343,243.457795 939,243 C938.984343,298.325074 944,319 922,341 L830,426 L830,440 C830,440 871.101907,403.219227 871,403 C871.101913,442 873,461 852,484 C852.133096,483.940005 837.768707,497.833635 820.544407,514.468876 C818.001904,516.829591 815.384532,519.259922 812.700108,521.752626 C790.767583,542.118737 768.835036,562.491947 748.181213,581.687348 C691.73476,634.148143 657.454293,666.085845 654.782779,668.757359 C647.568777,675.971361 644.025419,684.534475 644.025419,695 C644.025419,697.130152 643.871716,703.000939 643.610422,711.332112 C643.584008,712.174309 643.556673,713.035829 643.528501,713.914545 C643.41927,717.321564 643.302214,720.841107 643.185157,724.273021 C643.144186,725.474214 643.106143,726.578592 643.040322,728.469998 C643.03107,728.73396 643.03107,728.73396 643.008307,729.706993 C642.985408,730.348182 642.943738,731.070448 642.878664,731.851336 C642.694262,734.064166 642.36381,736.267178 641.864721,738.263536 C641.702583,738.912088 641.525248,739.526847 641.33332,740.102633 C640.839491,741.58412 640.011901,743.180186 638.939368,744.788986 C638.227833,745.856288 637.457346,746.857922 636.690583,747.752478 C636.246778,748.270251 635.923248,748.61689 635.918225,748.626105 L560.053892,819.864564 L517.146921,727.308099 C517.411513,727.067967 517.749752,726.760991 518.190499,726.360981 C520.060648,724.663706 522.230087,722.694861 524.673903,720.477077 C531.656254,714.140533 539.437125,707.079804 547.81719,699.47594 C571.760206,677.750638 595.708134,656.025348 618.184716,635.641135 C674.306706,584.743658 710.959732,551.544493 718.864901,544.471448 C726.513681,537.627802 730.441227,530.996531 730.775489,523.772123 C731.05444,517.743119 728.864688,511.945581 724.356227,505.155568 C722.596336,502.505067 720.481089,499.685108 717.634777,496.133004 C716.903055,495.21984 716.145243,494.285015 715.235131,493.171893 C721.495399,487.274392 731.556709,477.634994 735,474 C735.545269,474.063028 752.821164,457.822086 757,454 C763.435188,448.041162 767.529092,440.676525 770,432 C771.434192,426.095238 772,420.154468 772,413 C772,409.79089 771.854288,401.969819 772,391 C771.665072,389.96297 771.260467,376.567297 771.086095,370.239846 C771.407837,369.925796 771.73132,369.609941 772.056569,369.292257 C787.359488,354.345219 797.017422,332.209562 802.136298,304.845105 C805.06517,289.187957 806.349049,272.961426 806.438489,257.15492 Z M517.045424,727.089154 L516.986012,726.960995 L517.307652,726.52349 L517.045424,727.089154 Z M707.629347,483.821398 C713.87242,477.937693 723.522351,468.676969 727,465 C737.212277,455.984251 744.682217,448.984472 749,445 C757.226959,437.424373 760.019866,426.995912 760,413 C760.019866,409.923568 759.87487,402.14092 760,391 C759.828955,390.559342 759.629832,386.330149 759.454443,381.541115 C751.498401,389.230983 744.674791,395.733948 738.409424,401.618402 C733.615698,406.120685 721.733439,417.127254 720.203515,418.561285 C715.168107,423.296775 711.474207,426.875206 707.106772,431.24264 C692.51817,445.831243 692.782507,464.309191 707.629347,483.821398 Z M507.264462,714.322308 L479,573 L454,547 L419,547 L387,514 C387,514 377,493.5 416,459 L416,426 L226.483232,249.24861 C226.137692,266.832365 227.258607,285.186606 230.523233,302.638623 C235.229001,327.794691 243.942657,347.766097 257.192437,360.707743 C270.86299,374.060375 281.388201,384.153965 290.669928,392.871393 C295.424777,397.337164 307.301146,408.338276 309.800787,410.682816 C314.00564,414.638564 317.787074,418.301792 322.242641,422.757359 C342.173432,442.68815 340.950556,468.97999 320.643744,493.799427 C319.99351,494.594157 319.335784,495.395057 318.484876,496.428994 C318.485891,496.427761 316.8659,498.395355 316.416465,498.941968 C314.792587,500.916964 313.658414,502.30821 312.593825,503.636783 C309.95195,506.933757 308.032509,509.492675 306.504868,511.793394 C303.277118,516.654578 301.9364,520.204232 302.075819,523.217496 C302.239659,526.758587 304.540148,530.642733 310.000769,535.528552 C317.937773,542.630082 354.571649,575.811901 410.859236,626.859559 C433.218292,647.137188 457.166947,668.863137 481.110664,690.589074 C489.490955,698.193143 497.272041,705.254067 504.254601,711.590801 C505.309697,712.54831 506.313652,713.459419 507.264462,714.322308 L507.264462,714.322308 Z M312.023612,485.374909 C305.984791,479.717033 294.802591,469.020534 291,465 C280.787723,455.984251 273.317783,448.984472 269,445 C260.773041,437.424373 257.980134,426.995912 258,413 C257.980134,409.923568 258.12513,402.14092 258,391 C258.202525,390.478241 258.444414,384.645079 258.639663,378.86013 C267.800425,387.738105 275.474058,395.062153 282.454708,401.618402 C287.248433,406.120685 299.130692,417.127254 300.660616,418.561285 C305.696024,423.296775 309.389924,426.875206 313.757359,431.24264 C328.7326,446.217882 328.05718,465.291358 312.023612,485.374909 L312.023612,485.374909 Z M365.084577,731.417489 C325.225738,694.147883 286.009999,657.453888 276,648 C258,631 256.5,621 257,609 C256.740911,602.781854 256.75033,592.536069 256.819556,584.106349 C259.059369,586.18776 261.284007,588.255188 263.491637,590.306931 C319.361686,642.232022 354.26094,674.746221 356.757359,677.24264 C361.719828,682.205109 364,687.715525 364,695 C364,697.314412 364.154317,703.208647 364.420895,711.708289 C364.447399,712.553339 364.474822,713.417637 364.503081,714.299074 C364.6126,717.715069 364.72992,721.242546 364.847237,724.682086 C364.888297,725.885901 364.926427,726.9928 364.960649,727.977824 C365.001744,729.155173 365.001744,729.155173 365.003721,729.211271 C365.001131,729.639377 365.023442,730.416274 365.084614,731.417523 L365.084577,731.417489 Z M654.942377,731.392285 C694.79194,694.131342 733.992257,657.451757 744,648 C762,631 763.5,621 763,609 C763.258849,602.787617 763.249687,592.555058 763.180636,584.129793 C760.949346,586.203284 758.733124,588.262891 756.533782,590.306931 C700.663733,642.232022 665.76448,674.746221 663.26806,677.24264 C658.305591,682.205109 656.025419,687.715525 656.025419,695 C656.025419,697.314412 655.871103,703.208647 655.604524,711.708289 C655.57802,712.553339 655.550598,713.417637 655.522338,714.299074 C655.412819,717.715069 655.2955,721.242546 655.178182,724.682086 C655.137122,725.885901 655.098993,726.9928 655.06477,727.977824 C655.023675,729.155173 655.023675,729.155173 655.021699,729.211271 C655.024266,729.635778 655.002351,730.403236 654.94234,731.39232 L654.942377,731.392285 Z M510,955 C484.915236,935 485.918627,921 488,910 C489.932189,899 505,806 505,806 L510,799 C510,799 510,955 510,955 C535.084764,935 534.081373,921 532,910 C530.067811,899 515,806 515,806 L510,799 C510,799 510,955 510,955 Z M510,570 L510,668 L529,570 L510,570 Z M510,570 L510,668 L491,570 L510,570 Z M499,446 L510,454 L510,506 L490,489 L490,473 L484,468 L493,365 L497,387 L499,446 Z M521,446 L510,454 L510,506 L530,489 L530,473 L536,468 L527,365 L523,387 L521,446 Z M510,522 L510,560 L483,536 L437,536 L449,525 L481,520 L481,509 L459,509 L472,497 L483,496 L510,522 Z M510,522 L510,560 L537,536 L583,536 L571,525 L539,520 L539,509 L561,509 L548,497 L537,496 L510,522 Z" sketch:type="MSShapeGroup"></path>
        </g>
    </g>
</svg>
