<?xml version="1.0" encoding="UTF-8" standalone="no"?>
<svg width="1020px" height="1020px" viewBox="0 0 1020 1020" version="1.1" xmlns="http://www.w3.org/2000/svg" xmlns:xlink="http://www.w3.org/1999/xlink" xmlns:sketch="http://www.bohemiancoding.com/sketch/ns">
    <!-- Generator: Sketch 3.2.2 (9983) - http://www.bohemiancoding.com/sketch -->
    <title>rank-1</title>
    <desc>Created with Sketch.</desc>
    <defs></defs>
    <g id="Icons" stroke="none" stroke-width="1" fill="none" fill-rule="evenodd" sketch:type="MSPage">
        <g id="rank-1" sketch:type="MSArtboardGroup" fill="#000000">
            <path d="M509.95793,400.695722 L509.95793,400.835946 L509.877852,400.765834 L509.797774,400.835946 L509.797774,400.695722 L472.278243,367.845703 L472.278243,337.937493 L460.797774,327.693359 L467.612227,240 L489.559493,287.861328 L509.877852,302.94057 L530.196211,287.861328 L552.143477,240 L558.95793,327.693359 L547.477461,337.937493 L547.477461,367.845703 L509.95793,400.695722 L509.95793,400.695722 Z M509.95793,428.214844 L509.95793,499.214844 L459.95793,456.214844 L456.95793,381.214844 L509.95793,428.214844 Z M509.95793,427.214844 L509.95793,498.214844 L559.95793,455.214844 L562.95793,380.214844 L509.95793,427.214844 Z M508.81148,524.214844 L508.81148,660.214844 L482.81148,524.214844 L508.81148,524.214844 Z M508.81148,524.214844 L508.81148,660.214844 L534.81148,524.214844 L508.81148,524.214844 Z M370.525356,471.75278 L407.506276,473.2501 L459.766416,526.813813 L509.95793,780.862399 L320,607.419699 L370.525356,471.75278 Z M649.390504,471.75278 L612.409584,473.2501 L560.149444,526.813813 L509.95793,780.862399 L699.91586,607.419699 L649.390504,471.75278 Z" sketch:type="MSShapeGroup"></path>
        </g>
    </g>
</svg>
