<?xml version="1.0" encoding="UTF-8" standalone="no"?>
<svg width="1020px" height="1020px" viewBox="0 0 1020 1020" version="1.1" xmlns="http://www.w3.org/2000/svg" xmlns:xlink="http://www.w3.org/1999/xlink" xmlns:sketch="http://www.bohemiancoding.com/sketch/ns">
    <!-- Generator: Sketch 3.2.2 (9983) - http://www.bohemiancoding.com/sketch -->
    <title>rank-7</title>
    <desc>Created with Sketch.</desc>
    <defs></defs>
    <g id="Icons" stroke="none" stroke-width="1" fill="none" fill-rule="evenodd" sketch:type="MSPage">
        <g id="rank-7" sketch:type="MSArtboardGroup" fill="#000000">
            <path d="M736.220657,545.831697 C745.313183,556.257758 750.700649,565.472283 752.532237,574.631893 C755.040282,587.1744 750.603555,598.893184 739.076984,609.895332 C730.135435,618.396498 676.63573,666.5738 592.670182,741.861347 C568.649568,763.399113 543.697625,785.755344 518.493101,808.325484 C524.559963,813.757468 530.639259,819.199906 536.718556,824.641706 C548.867555,835.516717 560.148758,845.612328 570.272889,854.670466 C571.773162,856.012772 573.202134,857.291234 574.557059,858.503403 C617.178361,815.912495 665.174514,767.927883 665,768 C690,744 673,702 686,688 C686.429228,687.61719 881.330996,493.850799 881,494 C898.240395,475.76991 896.101907,437.390184 896,406 C896.101907,406.219227 865,434 865,434 L865,419 C865,419 938.028387,345.537612 938,345 C957.943616,326.425446 953.984343,309.325074 954,254 C953.984343,254.457795 883,321 883,321 L883,302 C883,302 997.137622,187.946244 997,188 C1011.29865,173.534944 1019,177.61809 1019,97 L846,256 L845.988835,255.96204 L845.988835,255.96204 C846.155198,276.952856 844.476352,299.274305 840.011603,320.731522 C833.937709,349.92216 823.299887,373.659889 807.06482,389.971136 C807.093702,390.902783 807.125031,391.939448 807.158284,393.07143 C807.275143,397.049429 807.391989,401.387521 807.501049,405.941291 C807.680139,413.419163 807.820189,420.728527 807.906238,427.592864 C807.967608,432.488551 808,437.05359 808,441.226394 C808,458.924653 807.440819,465.144666 804.095228,473.606752 C800.760653,482.040977 794.768918,490.113778 784.569752,499.909124 C780.086805,504.214576 775.030561,509.045935 769.501174,514.310011 C769.186003,514.610047 769.186003,514.610047 768.870807,514.910055 C760.76046,522.629291 752.071846,530.862247 743.383377,539.070627 C740.828152,541.48466 738.42627,543.751667 736.220657,545.831697 Z M729.475786,538.471108 C708.515822,515.008532 706.717572,484.376331 724.066234,467.923264 C728.000141,464.192438 727.880288,464.328029 729.786662,462.537606 C733.365484,459.17646 738.654339,454.212919 746.13182,447.19758 C753.210361,440.556525 783.09248,412.526525 797.374514,399.129789 C797.435692,401.404947 797.495841,403.763174 797.553781,406.182456 C797.732013,413.624521 797.871349,420.896601 797.956874,427.719122 C798.017746,432.575081 798.049845,437.098782 798.049845,441.226394 C798.049845,457.63258 797.563507,463.042327 794.849713,469.906396 C792.115183,476.82291 786.947351,483.785648 777.699411,492.66743 C773.227945,496.961855 768.181952,501.783419 762.662429,507.038105 C762.347719,507.337701 762.347719,507.337701 762.032979,507.637276 C753.932581,515.347043 745.252538,523.571877 736.572351,531.772433 C734.042388,534.1626 731.662932,536.40846 729.475786,538.471108 Z M500.506899,808.325484 C475.302375,785.755344 450.350432,763.399113 426.329818,741.861347 C342.36427,666.5738 288.864565,618.396498 279.923016,609.895332 C268.396445,598.893184 263.959718,587.1744 266.467763,574.631893 C268.299351,565.472283 273.686817,556.257758 282.779343,545.831697 L282.779343,545.831697 C280.57373,543.751667 278.171848,541.48466 275.616623,539.070627 C266.928154,530.862247 258.23954,522.629291 250.129193,514.910055 C249.813997,514.610047 249.813997,514.610047 249.498826,514.310011 C243.969439,509.045935 238.913195,504.214576 234.430248,499.909124 C224.231082,490.113778 218.239347,482.040977 214.904772,473.606752 C211.559181,465.144666 211,458.924653 211,441.226394 C211,437.05359 211.032392,432.488551 211.093762,427.592864 C211.179811,420.728527 211.319861,413.419163 211.498951,405.941291 C211.608011,401.387521 211.724857,397.049429 211.841716,393.07143 C211.874969,391.939448 211.906298,390.902783 211.93518,389.971136 C195.700113,373.659889 185.062291,349.92216 178.988397,320.731522 C174.462365,298.979783 172.799239,276.339924 173.019056,255.098438 L173.019056,255.098438 L1,97 C0.999999009,177.61809 8.70134853,173.534944 23,188 C22.8623783,187.946244 137,302 137,302 L137,321 C137,321 66.015657,254.457795 66,254 C66.015657,309.325074 62.056384,326.425446 82,345 C81.971613,345.537612 155,419 155,419 L155,434 C155,434 123.898093,406.219227 124,406 C123.898093,437.390184 121.759605,475.76991 139,494 C138.669004,493.850799 333.570772,687.61719 334,688 C347,702 330,744 355,768 C354.826131,767.928149 402.46783,815.55877 444.970567,858.031366 C446.167434,856.960591 447.42022,855.839752 448.727111,854.670466 C458.851242,845.612328 470.132445,835.516717 482.281444,824.641706 C488.360741,819.199906 494.440037,813.757468 500.506899,808.325484 L500.506899,808.325484 Z M509.324392,816.535342 L510,820 L510,923 C510,923 484.098023,897.128718 453.470992,866.525471 C454.515187,865.591274 455.600672,864.620111 456.726286,863.613015 C466.851102,854.554264 478.133011,844.458022 490.282748,833.58235 C496.63354,827.897525 502.984334,822.212001 509.324392,816.535342 L509.324392,816.535342 Z M514.766401,795.556919 L549,620 L583,588 L622,588 L665,546 C665,546 680.197853,527.720743 628,476 L628,438 L833.756795,245.767126 C834.623071,268.857149 833.266146,294.25578 828.265817,318.286949 C822.398571,346.484452 812.112749,368.824567 796.817385,383.201974 C797.586216,382.480777 747.385282,429.569654 737.923543,438.446614 C730.444642,445.463284 725.154552,450.427984 721.573821,453.790924 C719.664267,455.584333 715.810935,459.216652 715.810935,459.216652 C692.728224,481.107757 695.693092,520.555883 722.593619,548.69957 C744.205101,571.389404 747.063797,585.685488 730.802287,601.207166 C722.006655,609.569586 668.361122,657.878208 584.100999,733.429881 C561.832406,753.396719 538.470338,774.329243 514.766401,795.556919 L514.766401,795.556919 Z M289.524214,538.471108 C310.484178,515.008532 312.282428,484.376331 294.933766,467.923264 C290.999859,464.192438 291.119712,464.328029 289.213338,462.537606 C285.634516,459.17646 280.345661,454.212919 272.86818,447.19758 C265.789639,440.556525 235.90752,412.526525 221.625486,399.129789 C221.564308,401.404947 221.504159,403.763174 221.446219,406.182456 C221.267987,413.624521 221.128651,420.896601 221.043126,427.719122 C220.982254,432.575081 220.950155,437.098782 220.950155,441.226394 C220.950155,457.63258 221.436493,463.042327 224.150287,469.906396 C226.884817,476.82291 232.052649,483.785648 241.300589,492.66743 C245.772055,496.961855 250.818048,501.783419 256.337571,507.038105 C256.652281,507.337701 256.652281,507.337701 256.967021,507.637276 C265.067419,515.347043 273.747462,523.571877 282.427649,531.772433 C284.957612,534.1626 287.337068,536.40846 289.524214,538.471108 L289.524214,538.471108 Z M185.278206,244.865554 L392,438 L392,476 C339.802147,527.720743 355,546 355,546 L398,588 L437,588 L471,620 L505.445173,796.641915 C481.325853,775.04263 457.546905,753.736823 434.899001,733.429881 C350.638878,657.878208 296.993345,609.569586 288.197713,601.207166 C271.936203,585.685488 274.794899,571.389404 296.406381,548.69957 C323.306908,520.555883 326.271776,481.107757 303.189065,459.216652 C303.189065,459.216652 299.335733,455.584333 297.426179,453.790924 C293.845448,450.427984 288.555358,445.463284 281.076457,438.446614 C271.614718,429.569654 221.413784,382.480777 222.182615,383.201974 C206.887251,368.824567 196.601429,346.484452 190.734183,318.286949 C185.668688,293.942595 184.34218,268.194903 185.278207,244.865551 L185.278206,244.865554 Z M510.526966,817.297612 L510,820 L510,923 C510,923 535.636107,897.394272 566.056615,866.997496 C564.851778,865.91959 563.590192,864.790879 562.273714,863.613015 C552.148898,854.554264 540.866989,844.458022 528.717252,833.58235 C522.650705,828.151963 516.584156,822.720938 510.526966,817.297612 L510.526966,817.297612 Z M509,555 L509,604 L477,575 L417,575 L433,561 L473,554 L473,540 L447,540 L462,527 L475,525 L509,555 Z M509,555 L509,604 L541,575 L601,575 L585,561 L545,554 L545,540 L571,540 L556,527 L543,525 L509,555 Z M510,616 L510,737 L486,616 L510,616 Z M510,616 L510,737 L534,616 L510,616 Z M496,462 L509,472 L509,538 L486,517 L486,495 L477,488 L488,363 L493,391 L496,462 Z M522,462 L509,472 L509,538 L532,517 L532,495 L541,488 L530,363 L525,391 L522,462 Z" sketch:type="MSShapeGroup"></path>
        </g>
    </g>
</svg>
