<?xml version="1.0" encoding="UTF-8" standalone="no"?>
<svg width="1020px" height="1020px" viewBox="0 0 1020 1020" version="1.1" xmlns="http://www.w3.org/2000/svg" xmlns:xlink="http://www.w3.org/1999/xlink" xmlns:sketch="http://www.bohemiancoding.com/sketch/ns">
    <!-- Generator: Sketch 3.2.2 (9983) - http://www.bohemiancoding.com/sketch -->
    <title>rank-6</title>
    <desc>Created with Sketch.</desc>
    <defs></defs>
    <g id="Icons" stroke="none" stroke-width="1" fill="none" fill-rule="evenodd" sketch:type="MSPage">
        <g id="rank-6" sketch:type="MSArtboardGroup" fill="#000000">
            <path d="M208.631278,288.339735 C111.756745,198.365853 8,102 8,102 C7.99999901,182.61809 10.7013485,191.534944 25,206 C24.8623783,205.946244 166,342 166,342 L166,363 C166,363 82.015657,283.457795 82,283 C82.015657,338.325074 77.056384,376.425446 97,395 C96.971613,395.537612 202,489 202,489 L202,509 C202,509 150.898093,461.219227 151,461 C150.898093,492.390184 148.759605,547.76991 166,566 C165.669004,565.850799 359.570772,749.61719 360,750 C356.523247,776.172516 364.091523,797.146601 376,809 C375.686324,808.870375 510,917 510,917 L510,819.259686 L509.98754,819.270475 C509.98754,819.270475 505.066168,814.98564 504.736578,814.698458 C504.187689,814.220194 503.539773,813.65541 502.796364,813.007109 C500.672857,811.155272 498.209819,809.005409 495.435538,806.581545 C487.509834,799.65693 478.678667,791.924658 469.168305,783.576897 C441.994884,759.725311 414.821025,735.718752 389.455773,713.093545 C387.990164,711.786256 386.533917,710.486528 385.087263,709.194556 C333.138307,662.800204 296.419872,628.991745 281.00458,612.903649 C264.571733,596.163265 256.706265,579.556827 256.146242,562.865382 C255.715181,550.017602 259.287013,538.749795 266.387599,525.419559 C267.484758,523.359815 271.887942,515.515897 272.947221,513.48377 C279.253299,502.628594 282.246676,494.654847 282.294932,486.136691 C282.357428,475.104912 276.986574,464.010063 264.255358,452.146686 C234.687583,424.888658 218.018053,387.489698 211.288305,344.768961 C208.9425,329.877688 207.996171,315.357822 208.106137,301.885251 C208.145268,297.090991 208.319527,292.740686 208.581194,289.027577 C208.597689,288.793512 208.614403,288.564086 208.631278,288.339735 Z M220.313661,299.189948 C220.692711,299.541997 221.071584,299.893882 221.450275,300.245598 C220.840089,306.106808 220.988721,303.116935 220.313661,299.189948 Z M222.117687,300.865468 C301.695198,374.774444 373,441 373,441 C373,441 372.137932,464.419347 373,464 C320.802147,515.720747 329,541 329,541 L379,590 L428,590 L466,630 L504.656467,796.047095 C504.653239,796.044275 504.650011,796.041455 504.646783,796.038634 C496.728879,789.120834 487.90574,781.395591 478.403772,773.055198 C451.25625,749.226344 424.109166,725.24344 398.774872,702.645847 C397.311381,701.340447 395.857265,700.042621 394.412754,698.752563 C342.780561,652.641105 306.171647,618.933486 291.054194,603.156951 C276.901195,588.738354 270.573993,575.379673 270.138369,562.395926 C269.805357,552.470525 272.692982,543.361139 278.743954,532.001389 C279.726361,530.157073 284.188934,522.20736 285.219362,520.212404 C292.481666,507.728267 296.229394,497.745082 296.294707,486.216001 C296.380725,471.032179 289.249606,456.301061 273.772093,441.878757 C246.802471,417.015787 231.397372,382.453643 225.117765,342.590422 C222.898585,328.502965 222.00167,314.74128 222.10567,301.999517 C222.108782,301.618305 222.112797,301.24025 222.117687,300.865468 Z M506.462131,803.803245 L506.570985,804.27082 C506.217986,804.224891 506.029682,804.178055 506.083187,804.131686 C506.204659,804.026415 506.330986,803.916924 506.462131,803.803245 Z M812.300794,287.474057 C908.907565,197.748864 1012,102 1012,102 C1012,182.61809 1009.29865,191.534944 995,206 C995.137622,205.946244 854,342 854,342 L854,363 C854,363 937.984343,283.457795 938,283 C937.984343,338.325074 942.943616,376.425446 923,395 C923.028387,395.537612 818,489 818,489 L818,509 C818,509 869.101907,461.219227 869,461 C869.101907,492.390184 871.240395,547.76991 854,566 C854.330996,565.850799 660.429228,749.61719 660,750 C663.476753,776.172516 655.908477,797.146601 644,809 C644.313676,808.870375 510,917 510,917 L510,819.259686 L514.582283,815.291756 C515.803158,814.233868 516.453751,813.669805 517.200227,813.022325 C519.332485,811.172846 521.805667,809.025674 524.59137,806.604786 C532.549686,799.68869 541.417182,791.9655 550.966664,783.626997 C578.251881,759.801845 605.537547,735.817814 631.007234,713.208117 C632.519255,711.865881 634.021349,710.531601 635.513267,709.20549 C687.713022,662.807014 724.574652,628.99746 740.054194,612.843049 C756.428267,596.163265 764.293735,579.556827 764.853758,562.865382 C765.284819,550.017602 761.712987,538.749795 754.612401,525.419559 C753.515242,523.359815 749.112058,515.515897 748.219362,513.787596 C741.746701,502.628594 738.753324,494.654847 738.705068,486.136691 C738.642572,475.104912 744.013426,464.010063 756.772093,452.121243 C786.312417,424.888658 802.981947,387.489698 809.711695,344.768961 C812.0575,329.877688 813.003829,315.357822 812.893863,301.885251 C812.854732,297.090991 812.680473,292.740686 812.418806,289.027577 C812.380413,288.48277 812.340832,287.963097 812.300794,287.474057 Z M800.900217,298.062538 C800.420671,298.507925 799.941394,298.953061 799.462402,299.397934 C800.239182,307.003021 799.9385,302.657418 800.900217,298.062538 Z M798.868524,299.949508 C718.894892,374.226388 647,441 647,441 C647,441 647.862068,464.419347 647,464 C699.197853,515.720747 691,541 691,541 L641,590 L592,590 L554,630 L515.329958,796.105408 C515.355954,796.082817 515.381977,796.060202 515.408028,796.037562 C523.358324,789.128435 532.217568,781.412433 541.758421,773.081465 C569.017017,749.279557 596.275164,725.319715 621.713037,702.738261 C623.222822,701.398009 624.722666,700.065728 626.212319,698.741629 C678.08453,652.634295 714.833829,618.927772 730.00458,603.096351 C744.098805,588.738354 750.426007,575.379673 750.861631,562.395926 C751.194643,552.470525 748.307018,543.361139 742.256046,532.001389 C741.273639,530.157073 736.811066,522.20736 735.947221,520.51623 C728.518334,507.728267 724.770606,497.745082 724.705293,486.216001 C724.619275,471.032179 731.750394,456.301061 747.255358,441.853314 C774.197529,417.015787 789.602628,382.453643 795.882235,342.590422 C798.101415,328.502965 798.99833,314.74128 798.89433,301.999517 C798.888665,301.305482 798.880005,300.621909 798.868524,299.949508 Z M513.538846,803.799048 L513.335314,804.673312 C514.094997,804.703379 514.596491,804.72058 514.596491,804.72058 C514.188218,804.364892 513.844106,804.065065 513.538846,803.799048 Z M492,444 L509,456 L509,537 L478,510 L478,485 L469,477 L481,362 L489,399 L492,444 Z M526,444 L509,456 L509,537 L540,510 L540,485 L549,477 L537,362 L529,399 L526,444 Z M509,553 L509,608 L469,574 L414,574 L431,558 L466,551 L466,536 L441,536 L458,520 L469,518 L509,553 Z M509,553 L509,608 L549,574 L604,574 L587,558 L552,551 L552,536 L577,536 L560,520 L549,518 L509,553 Z M510,618 L510,771 L480,618 L510,618 Z M510,618 L510,771 L540,618 L510,618 Z" sketch:type="MSShapeGroup"></path>
        </g>
    </g>
</svg>
