<?xml version="1.0" encoding="UTF-8" standalone="no"?>
<svg width="1020px" height="1020px" viewBox="0 0 1020 1020" version="1.1" xmlns="http://www.w3.org/2000/svg" xmlns:xlink="http://www.w3.org/1999/xlink" xmlns:sketch="http://www.bohemiancoding.com/sketch/ns">
    <!-- Generator: Sketch 3.2.2 (9983) - http://www.bohemiancoding.com/sketch -->
    <title>rank-4</title>
    <desc>Created with Sketch.</desc>
    <defs></defs>
    <g id="Icons" stroke="none" stroke-width="1" fill="none" fill-rule="evenodd" sketch:type="MSPage">
        <g id="rank-4" sketch:type="MSArtboardGroup" fill="#000000">
            <path d="M349.287188,580 L220.287188,463 C220.287188,463 212.318289,457.963597 205.287188,444 C198.725223,430.788371 195.287188,350 195.287188,350 L283.287188,431 L283.287188,402 L155.287188,281 C155.287188,281 132.376711,263.42704 126.287188,244 C120.402955,225.218574 122.287188,149 122.287188,149 L428.287188,423 C428.287188,423 428.001568,450.063125 428.287188,450 C371.384763,499.550449 381.287188,531 381.287188,531 L419.287188,533 L460.287188,575 L510.287188,832 L320.287188,661 C320.287188,661 306.372708,649.8495 294.287188,632 C281.732592,614.849087 283.287188,543 283.287188,543 L349.287188,601 L349.287188,580 Z M671.287188,580 L800.287188,463 C800.287188,463 808.256087,457.963597 815.287188,444 C821.849152,430.788371 825.287188,350 825.287188,350 L737.287188,431 L737.287188,402 L865.287188,281 C865.287188,281 888.197664,263.42704 894.287188,244 C900.17142,225.218574 898.287188,149 898.287188,149 L592.287188,423 C592.287188,423 592.572808,450.063125 592.287188,450 C649.189612,499.550449 639.287188,531 639.287188,531 L601.287188,533 L560.287188,575 L510.287188,832 L700.287188,661 C700.287188,661 714.201668,649.8495 726.287188,632 C738.841784,614.849087 737.287188,543 737.287188,543 L671.287188,601 L671.287188,580 Z M510.287188,570 L510.287188,723 L480.287188,570 L510.287188,570 Z M510.287188,570 L510.287188,723 L540.287188,570 L510.287188,570 Z M492.287188,371 L510.287188,384 L510.287188,469 L477.287188,441 L477.287188,414 L468.287188,406 L481.287188,285 L489.287188,324 L492.287188,371 Z M528.287188,371 L510.287188,384 L510.287188,469 L543.287188,441 L543.287188,414 L552.287188,406 L539.287188,285 L531.287188,324 L528.287188,371 Z M510.287188,491 L510.287188,554 L466.287188,515 L403.287188,515 L422.287188,498 L461.287188,488 L462.287188,470 L432.287188,471 L454.287188,453 L464.287188,450 L510.287188,491 Z M510.287188,491 L510.287188,554 L554.287188,515 L617.287188,515 L598.287188,498 L559.287188,488 L558.287188,470 L588.287188,471 L566.287188,453 L556.287188,450 L510.287188,491 Z M510.287188,844 L510.287188,871 L460.287188,827 L460.287188,802 L510.287188,844 Z M510.287188,844 L510.287188,871 L560.287188,827 L560.287188,802 L510.287188,844 Z" sketch:type="MSShapeGroup"></path>
        </g>
    </g>
</svg>
