<?xml version="1.0" encoding="utf-8"?>
<!-- Generator: Adobe Illustrator 16.0.0, SVG Export Plug-In . SVG Version: 6.00 Build 0)  -->
<!DOCTYPE svg PUBLIC "-//W3C//DTD SVG 1.1//EN" "http://www.w3.org/Graphics/SVG/1.1/DTD/svg11.dtd">
<svg version="1.1" id="Layer_2" xmlns="http://www.w3.org/2000/svg" xmlns:xlink="http://www.w3.org/1999/xlink" x="0px" y="0px"
	 width="645.576px" height="645.577px" viewBox="0 0 645.576 645.577" enable-background="new 0 0 645.576 645.577"
	 xml:space="preserve">
<g opacity="0.75">
	<path fill="#000000" d="M427.196,645.577l-316.801-104.82l-1.924-1.727l-9.939-7.681l3.19-5.527L0,218.38L150.414,0l0.326,93.272
		c24.75,49.014,53.647,102.532,62.518,113.674c1.676,0.318,5.19,0.772,11.577,0.772c19.682,0,46.096-4.066,55.685-7.564
		c12.649-4.614,50.309-24.858,68.406-34.587c6.332-3.404,10.923-5.872,13.31-7.087c3.413-1.888,20.021-13.874,34.681-24.453
		c54.279-39.173,68.543-48.588,76.313-50.368c7.419-1.701,26.096-3.035,42.517-3.035c26.875,0,35.513,3.239,40.738,8.465
		c4.453,4.453,8.771,11.502,8.452,43.825c-0.131,13.303-1.234,31.645-3.021,39.435c-1.778,7.766-11.192,22.03-50.364,76.308
		c-10.579,14.658-22.565,31.267-24.454,34.682c-1.218,2.391-3.693,6.996-7.107,13.349c-9.724,18.089-29.956,55.728-34.567,68.368
		c-5.739,15.733-9.189,56.363-6.856,67.21c10.999,8.811,64.629,37.771,113.738,62.57l93.272,0.326L427.196,645.577z
		 M129.949,515.626l292.513,96.785l127.158-87.584l-4.495-0.016l-3.156-1.589c-0.294-0.147-29.674-14.944-59.452-30.848
		c-63.574-33.952-66.966-39.584-69.691-44.108c-1.924-3.194-7.034-11.679-4.091-46.605c1.192-14.142,4.134-34.906,8.504-46.886
		c4.937-13.532,21.339-44.411,36.326-72.291c3.225-5.998,5.771-10.736,6.821-12.803c2.189-4.306,9.1-14,26.839-38.58
		c14.665-20.321,41.736-57.833,45.601-66.169c1.863-9.494,2.974-40.739,1.295-53.399c-3.585-0.471-9.527-0.909-18.375-0.909
		c-15.015,0-30.175,1.217-35.121,2.135c-8.374,3.896-45.846,30.939-66.152,45.594C389.894,176.091,380.2,183,375.896,185.189
		c-2.063,1.049-6.786,3.588-12.766,6.803c-27.896,14.995-58.79,31.407-72.331,36.346c-13.94,5.085-44.148,9.38-65.966,9.38
		c-17.085,0-23.684-2.654-27.524-4.967c-4.525-2.726-10.156-6.117-44.108-69.691c-15.903-29.779-30.701-59.159-30.848-59.452
		l-1.589-3.157l-0.016-4.494L33.166,223.116L129.949,515.626z"/>
</g>
<g id="Layer_3">
	<g>
		<g>
			<path fill="#000000" d="M314.942,296.263l34.37,34.369l-35.183,35.181l-14.144,14.143l14.143,14.143l35.182,35.18l-34.369,34.368
				l-35.18-35.18l-14.142-14.142l-14.143,14.142l-35.181,35.18l-34.369-34.368l35.181-35.18l14.142-14.142l-14.142-14.143
				l-35.181-35.183l34.368-34.367l35.18,35.179l14.142,14.142l14.142-14.142L314.942,296.263 M314.942,267.979l-49.323,49.322
				l-49.322-49.32l-62.652,62.649l49.323,49.325l-49.324,49.322l62.653,62.652l49.323-49.321l49.322,49.321l62.653-62.652
				l-49.324-49.322l49.326-49.323L314.942,267.979L314.942,267.979z"/>
		</g>
	</g>
</g>
</svg>
