<?xml version="1.0" encoding="utf-8"?>
<!-- Generator: Adobe Illustrator 16.0.0, SVG Export Plug-In . SVG Version: 6.00 Build 0)  -->
<!DOCTYPE svg PUBLIC "-//W3C//DTD SVG 1.1//EN" "http://www.w3.org/Graphics/SVG/1.1/DTD/svg11.dtd">
<svg version="1.1" xmlns="http://www.w3.org/2000/svg" xmlns:xlink="http://www.w3.org/1999/xlink" x="0px" y="0px" width="924px"
	 height="924px" viewBox="0 0 924 924" enable-background="new 0 0 924 924" xml:space="preserve">
<g id="Outer_ring">
	<path fill="#000000" d="M584.63,40L884,328.05v265.4L584.63,884H551.5v-54h17.34L829,576.77V344.66L568.84,94H551.5V40H584.63
		 M371.5,40v54h-12.91L95,344.23v232.11L358.59,830h12.91v54h-28.63L40,592.95v-265.4L342.87,40H371.5 M600.749,0H584.63H551.5h-40
		v40v54v40h40h1.205L789,361.666v198.218L552.587,790H551.5h-40v40v54v40h40h33.13h16.219l11.64-11.296l299.37-290.55L924,610.37
		v-16.92v-265.4v-17.022l-12.266-11.802L612.363,11.176L600.749,0L600.749,0z M411.5,0h-40h-28.63h-15.964l-11.577,10.992
		l-302.87,287.55L0,310.37v17.18v265.4v17.037l12.284,11.805l302.87,291.05L326.766,924h16.104h28.63h40v-40v-54v-40h-36.79
		L135,559.319V361.411L374.552,134H411.5V94V40V0L411.5,0z"/>
</g>
<g id="Layer_3">
	<g>
		<polygon fill="#000000" points="439.5,202 451,202 451,287 439.5,287 300,410.5 300,326.5 		"/>
		<polygon fill="#000000" points="623,326.5 623,410.5 484.5,287 471,287 471,202 484.5,202 		"/>
		<polygon opacity="0.66" fill="#000000" points="439.5,326 451,326 451,411 439.5,411 300,534.5 300,450.5 		"/>
		<polygon opacity="0.66" fill="#000000" points="623,450.5 623,534.5 484.5,411 471,411 471,326 484.5,326 		"/>
		<polygon opacity="0.33" fill="#000000" points="439.5,450 451,450 451,535 439.5,535 300,658.5 300,574.5 		"/>
		<polygon opacity="0.33" fill="#000000" points="623,574.5 623,658.5 484.5,535 471,535 471,450 484.5,450 		"/>
	</g>
	<g>
	</g>
	<g>
	</g>
	<g>
	</g>
	<g>
	</g>
	<g>
	</g>
	<g>
	</g>
	<g>
	</g>
	<g>
	</g>
	<g>
	</g>
	<g>
	</g>
	<g>
	</g>
	<g>
	</g>
	<g>
	</g>
	<g>
	</g>
	<g>
	</g>
</g>
</svg>
