<?xml version="1.0" encoding="utf-8"?>
<!-- Generator: Adobe Illustrator 16.0.0, SVG Export Plug-In . SVG Version: 6.00 Build 0)  -->
<!DOCTYPE svg PUBLIC "-//W3C//DTD SVG 1.1//EN" "http://www.w3.org/Graphics/SVG/1.1/DTD/svg11.dtd">
<svg version="1.1" id="Layer_1" xmlns="http://www.w3.org/2000/svg" xmlns:xlink="http://www.w3.org/1999/xlink" x="0px" y="0px"
	 width="807px" height="807px" viewBox="0 0 807 807" enable-background="new 0 0 807 807" xml:space="preserve">
<g id="Layer_2">
	<g>
		<path fill="#000000" d="M404,108c163.476,0,296,132.524,296,296c0,163.476-132.524,296-296,296c-163.476,0-296-132.524-296-296
			C108,240.524,240.524,108,404,108 M404,77.379c-44.08,0-86.858,8.64-127.145,25.68c-38.897,16.452-73.825,39.999-103.811,69.985
			c-29.986,29.986-53.533,64.914-69.985,103.811C86.02,317.142,77.379,359.92,77.379,404s8.64,86.857,25.68,127.146
			c16.452,38.896,39.999,73.823,69.985,103.811c29.986,29.987,64.914,53.533,103.811,69.985
			c40.287,17.04,83.064,25.681,127.145,25.681s86.857-8.641,127.145-25.682c38.897-16.451,73.824-39.998,103.812-69.984
			s53.533-64.913,69.985-103.812c17.039-40.286,25.681-83.063,25.681-127.145s-8.642-86.858-25.681-127.145
			c-16.452-38.897-40-73.825-69.985-103.811c-29.986-29.986-64.913-53.533-103.812-69.985C490.857,86.02,448.08,77.379,404,77.379
			L404,77.379z"/>
	</g>
</g>
<g id="Layer_3">
	<rect x="394" fill="#000000" width="19" height="233"/>
	<rect x="394" y="574" fill="#000000" width="19" height="233"/>
	<rect y="394" fill="#000000" width="233" height="19"/>
	<rect x="574" y="394" fill="#000000" width="233" height="19"/>
</g>
</svg>
