<?xml version="1.0" encoding="utf-8"?>
<!-- Generator: Adobe Illustrator 16.0.0, SVG Export Plug-In . SVG Version: 6.00 Build 0)  -->
<!DOCTYPE svg PUBLIC "-//W3C//DTD SVG 1.1//EN" "http://www.w3.org/Graphics/SVG/1.1/DTD/svg11.dtd">
<svg version="1.1" xmlns="http://www.w3.org/2000/svg" xmlns:xlink="http://www.w3.org/1999/xlink" x="0px" y="0px" width="924px"
	 height="924px" viewBox="0 0 924 924" enable-background="new 0 0 924 924" xml:space="preserve">
<g id="Outer_ring">
	<path fill="#000000" d="M584.63,40L884,328.05v265.4L584.63,884H551.5v-54h17.34L829,576.77V344.66L568.84,94H551.5V40H584.63
		 M371.5,40v54h-12.91L95,344.23v232.11L358.59,830h12.91v54h-28.63L40,592.95v-265.4L342.87,40H371.5 M600.749,0H584.63H551.5h-40
		v40v54v40h40h1.205L789,361.666v198.218L552.587,790H551.5h-40v40v54v40h40h33.13h16.219l11.64-11.296l299.37-290.55L924,610.37
		v-16.92v-265.4v-17.022l-12.266-11.802L612.363,11.176L600.749,0L600.749,0z M411.5,0h-40h-28.63h-15.964l-11.577,10.992
		l-302.87,287.55L0,310.37v17.18v265.4v17.037l12.284,11.805l302.87,291.05L326.766,924h16.104h28.63h40v-40v-54v-40h-36.79
		L135,559.319V361.411L374.552,134H411.5V94V40V0L411.5,0z"/>
</g>
<g id="Firing_Cobra">
	<path fill="#000000" d="M423.547,537c25.703,0,34.752-51.197,21.78-171.5c-10.783-100-11.905-116.022-21.78-171.5h-0.344
		c-9.875,55.478-10.998,71.5-21.78,171.5C388.451,485.803,397.5,537,423.203,537H423.547z"/>
	<polygon fill="#000000" points="599,675 599,639 506,555 418,555 325,639 325,675 	"/>
	<path fill="#000000" d="M500.453,537c-25.703,0-34.752-51.197-21.78-171.5c10.782-100,11.905-116.022,21.78-171.5h0.344
		c9.875,55.478,10.998,71.5,21.78,171.5C535.549,485.803,526.5,537,500.797,537H500.453z"/>
	<g>
	</g>
	<g>
	</g>
	<g>
	</g>
	<g>
	</g>
	<g>
	</g>
	<g>
	</g>
	<g>
	</g>
	<g>
	</g>
	<g>
	</g>
	<g>
	</g>
	<g>
	</g>
	<g>
	</g>
	<g>
	</g>
	<g>
	</g>
	<g>
	</g>
</g>
</svg>
