<?xml version="1.0" encoding="utf-8"?>
<!-- Generator: Adobe Illustrator 16.0.0, SVG Export Plug-In . SVG Version: 6.00 Build 0)  -->
<!DOCTYPE svg PUBLIC "-//W3C//DTD SVG 1.1//EN" "http://www.w3.org/Graphics/SVG/1.1/DTD/svg11.dtd">
<svg version="1.1" xmlns="http://www.w3.org/2000/svg" xmlns:xlink="http://www.w3.org/1999/xlink" x="0px" y="0px"
	 width="634.667px" height="682.466px" viewBox="0 0 634.667 682.466" enable-background="new 0 0 634.667 682.466"
	 xml:space="preserve">
<g id="bottom">
	<g>
		<path fill="#FD7022" d="M347.333,598.947v-66.872H0v66.906c0,46.107,37.377,83.484,83.485,83.484H395
			C390,682.466,347.333,649.739,347.333,598.947z"/>
	</g>
</g>
<g id="main_page_1_">
	<g>
		<path fill="#FD7022" d="M253.885,120.925l-54.3,48.505c0.495,10.465,2.182,21.034,5.028,31.502
			c3.165,11.634,7.839,23.426,13.892,35.051c10.383,19.938,24.953,39.75,43.306,58.884c16.566,17.269,33.184,30.747,44.209,39.013
			c4.962,3.722,9.269,6.751,12.623,9.029c3.354-2.278,7.661-5.308,12.623-9.029c11.025-8.266,27.643-21.744,44.208-39.013
			c18.354-19.134,32.924-38.944,43.306-58.884c6.053-11.625,10.728-23.417,13.893-35.051c2.847-10.468,4.532-21.037,5.027-31.502
			l-54.299-48.505H253.885z M310.158,299.53l-62.823-72.157l-9.775-65.562l49.69,56.075v23.946h22.909V299.53z M299.553,231.095
			l19.09-38.183l19.09,38.183h-19.09H299.553z M389.951,227.373l-62.824,72.157v-57.697h22.909v-23.946l49.69-56.075
			L389.951,227.373z"/>
		<path fill="#FD7022" d="M189.139,0c-46.107,0-83.485,37.377-83.485,83.484v435.922h258.941v79.541
			c0,46.126,37.393,83.519,83.519,83.519s83.519-37.393,83.519-83.519V0H189.139z M441.313,462.742H195.974v-16.001h245.339V462.742
			z M441.313,413.075H195.974v-16.001h245.339V413.075z M480.346,244.379h-49.218c-4.481,8.44-9.47,16.514-14.793,24.182h51.894
			l-18.919,37.757h-64.258c-33.307,34.394-66.409,54.304-66.409,54.304s-33.103-19.91-66.41-54.304h-64.258l-18.919-37.757h51.894
			c-5.323-7.668-10.312-15.741-14.793-24.182h-49.218l-18.175-36.273h52.467c-4.203-14.33-6.649-29.421-6.649-45.181l63.637-56.85
			h140.848l63.637,56.85c0,15.76-2.446,30.851-6.649,45.181h52.468L480.346,244.379z"/>
	</g>
</g>
<g id="backside">
	<path fill="#FD7022" d="M553.333,0.055V194.74h81.333V83.484C634.667,38.099,598.443,1.199,553.333,0.055z"/>
</g>
</svg>
