<?xml version="1.0" encoding="UTF-8" standalone="no"?>
<svg xmlns:dc="http://purl.org/dc/elements/1.1/" xmlns:cc="http://creativecommons.org/ns#" xmlns:rdf="http://www.w3.org/1999/02/22-rdf-syntax-ns#" xmlns:svg="http://www.w3.org/2000/svg" xmlns="http://www.w3.org/2000/svg" id="svg859" version="1.1" viewBox="0 0 860.5957 1024" height="1024" width="860.5957">
  <defs id="defs853"/>
  <metadata id="metadata856">
    <rdf:RDF>
      <cc:Work rdf:about="">
        <dc:format>image/svg+xml</dc:format>
        <dc:type rdf:resource="http://purl.org/dc/dcmitype/StillImage"/>
        <dc:title/>
      </cc:Work>
    </rdf:RDF>
  </metadata>
  <g style="display:inline" id="layer2">
    <path id="path862" d="M 430.302,50.436337 H 783.73535 V 607.04348 L 430.29785,973.47205 M 430.2937,50.436337 H 76.86035 V 607.04348 l 353.4375,366.42857" style="opacity:1;fill:none;fill-opacity:1;fill-rule:evenodd;stroke:#000000;stroke-width:18;stroke-linecap:round;stroke-linejoin:round;stroke-miterlimit:3.9000001;stroke-dasharray:none;stroke-dashoffset:164.68000793;stroke-opacity:0.99545456;paint-order:normal"/>
    <path id="path874" d="m 679.44963,488.98624 21.14739,21.97082 29.21521,-46.71956 h -12.87945 v -18.94036 l 9.06418,-5.23321 v -18.0003 L 679.44963,317.2603 632.9023,422.06363 v 18.0003 l 9.06418,5.23321 v 18.94036 h -12.87945 l 29.21521,46.71956 z" style="opacity:1;fill:#000000;fill-opacity:1;fill-rule:evenodd;stroke:#000000;stroke-width:3;stroke-linecap:round;stroke-linejoin:round;stroke-miterlimit:3.9000001;stroke-dasharray:none;stroke-dashoffset:164.68000793;stroke-opacity:0.99545456;paint-order:normal"/>
    <path style="opacity:1;fill:#000000;fill-opacity:1;fill-rule:evenodd;stroke:#000000;stroke-width:3;stroke-linecap:round;stroke-linejoin:round;stroke-miterlimit:3.9000001;stroke-dasharray:none;stroke-dashoffset:164.68000793;stroke-opacity:0.99545456;paint-order:normal" d="m 183.46473,488.98624 21.14739,21.97082 29.21521,-46.71956 h -12.87945 v -18.94036 l 9.06418,-5.23321 v -18.0003 L 183.46473,317.2603 m 0,171.72594 -21.14739,21.97082 -29.21521,-46.71956 h 12.87945 v -18.94036 l -9.06418,-5.23321 v -18.0003 L 183.46473,317.2603" id="path879"/>
    <path id="path883" d="m 412.36397,157.40286 -111.62304,311.63281 25.00195,66.66992 v 36.11328 l -30.4668,30.4668 80.72266,80.72265 h 16.75977 l 15.05859,-26.08398 h 22.48047 22.48047 l 15.05859,26.08398 h 16.76172 l 80.7207,-80.72265 -30.46679,-30.4668 v -36.11328 l 25.00195,-66.66992 -111.6211,-311.63281 h -17.93554 z m -5.01562,160.03124 c 2.27958,-0.10673 4.18643,1.71208 4.1875,3.99415 v 127.69726 h 18.74609 v 8 h -21.67383 l -27.99609,16.16406 15.27539,57.00977 h 34.39453 v 8 h -37.46289 c -1.81025,-3.4e-4 -3.39467,-1.21629 -3.86328,-2.96484 l -16.86523,-62.93946 c -0.46882,-1.74882 0.29541,-3.59449 1.86328,-4.5 l 29.58203,-17.07812 V 336.35598 l -8.40234,14.55273 v 20.14258 c 0.0765,5.40929 -8.0765,5.40929 -8,0 V 349.8384 c 3.9e-4,-0.70225 0.18562,-1.39203 0.5371,-2 l 16.4004,-28.41015 c 0.68168,-1.17935 1.91662,-1.93078 3.27734,-1.99415 z m 45.88281,0 c 1.36072,0.0634 2.59567,0.8148 3.27735,1.99415 l 16.40039,28.41015 c 0.35148,0.60797 0.53672,1.29775 0.53711,2 v 21.21289 c 0.0765,5.40929 -8.0765,5.40929 -8,0 v -20.14258 l -8.40235,-14.55273 v 114.46094 l 29.58203,17.07812 c 1.56787,0.90551 2.3321,2.75118 1.86328,4.5 l -16.86523,62.93946 c -0.46861,1.74855 -2.05303,2.9645 -3.86328,2.96484 h -37.46289 v -8 h 34.39453 l 15.27539,-57.00977 -27.99609,-16.16406 h -21.67383 v -8 h 18.74609 V 321.42825 c 0.001,-2.28207 1.90792,-4.10088 4.1875,-3.99415 z" style="opacity:1;fill:#000000;fill-opacity:1;fill-rule:evenodd;stroke:none;stroke-width:8;stroke-linecap:round;stroke-linejoin:round;stroke-miterlimit:3.9000001;stroke-dasharray:none;stroke-dashoffset:164.68000793;stroke-opacity:0.99545456;paint-order:normal"/>
    <path style="opacity:1;fill:none;fill-opacity:1;fill-rule:evenodd;stroke:#000000;stroke-width:16;stroke-linecap:round;stroke-linejoin:round;stroke-miterlimit:3.9000001;stroke-dasharray:none;stroke-dashoffset:164.68000793;stroke-opacity:0.99545456;paint-order:normal" d="m 412.36397,157.40286 -111.62304,311.63281 25.00195,66.66992 v 36.11328 l -30.4668,30.4668 80.72266,80.72265 h 16.75977 l 15.05859,-26.08398 h 22.48047 22.48047 l 15.05859,26.08398 h 16.76172 l 80.7207,-80.72265 -30.46679,-30.4668 v -36.11328 l 25.00195,-66.66992 -111.6211,-311.63281 h -17.93554 z" id="path903"/>
    <path id="path905" d="M 567.69358,831.02616 V 675.28749 l -39.70829,39.70829 v 157.19819" style="opacity:1;fill:#000000;fill-opacity:1;fill-rule:evenodd;stroke:#000000;stroke-width:2;stroke-linecap:round;stroke-linejoin:round;stroke-miterlimit:3.9000001;stroke-dasharray:none;stroke-dashoffset:164.68000793;stroke-opacity:0.99545456;paint-order:normal"/>
    <path style="opacity:1;fill:#000000;fill-opacity:1;fill-rule:evenodd;stroke:#000000;stroke-width:2;stroke-linecap:round;stroke-linejoin:round;stroke-miterlimit:3.9000001;stroke-dasharray:none;stroke-dashoffset:164.68000793;stroke-opacity:0.99545456;paint-order:normal" d="M 292.90212,831.02616 V 675.28749 l 39.70829,39.70829 v 157.19819" id="path907"/>
    <path id="path909" d="M 166.7996,700.28857 V 553.90479 l 17.0002,-17.00019 14.88862,14.88862 v 181.55629" style="opacity:1;fill:#000000;fill-opacity:1;fill-rule:evenodd;stroke:#000000;stroke-width:2;stroke-linecap:round;stroke-linejoin:round;stroke-miterlimit:3.9000001;stroke-dasharray:none;stroke-dashoffset:164.68000793;stroke-opacity:0.99545456;paint-order:normal"/>
    <path style="opacity:1;fill:#000000;fill-opacity:1;fill-rule:evenodd;stroke:#000000;stroke-width:2;stroke-linecap:round;stroke-linejoin:round;stroke-miterlimit:3.9000001;stroke-dasharray:none;stroke-dashoffset:164.68000793;stroke-opacity:0.99545456;paint-order:normal" d="M 695.39404,700.28857 V 553.90479 l -17.0002,-17.00019 -14.88862,14.88862 v 181.55629" id="path911"/>
  </g>
</svg>