<?xml version="1.0" encoding="utf-8"?>
<!-- Generator: Adobe Illustrator 16.0.0, SVG Export Plug-In . SVG Version: 6.00 Build 0)  -->
<!DOCTYPE svg PUBLIC "-//W3C//DTD SVG 1.1//EN" "http://www.w3.org/Graphics/SVG/1.1/DTD/svg11.dtd">
<svg version="1.1" xmlns="http://www.w3.org/2000/svg" xmlns:xlink="http://www.w3.org/1999/xlink" x="0px" y="0px"
	 width="1171.716px" height="996.038px" viewBox="0 0 1171.716 996.038" enable-background="new 0 0 1171.716 996.038"
	 xml:space="preserve">
<g id="hollow_person">
	<g>
		<path fill="#FF7100" d="M413.463,40c55.618,0,107.906,21.658,147.234,60.986c39.327,39.327,60.986,91.615,60.986,147.233
			s-21.659,107.907-60.986,147.234c-39.328,39.328-91.616,60.986-147.234,60.986s-107.907-21.658-147.234-60.986
			c-39.327-39.327-60.986-91.616-60.986-147.234s21.658-107.906,60.986-147.233C305.556,61.658,357.845,40,413.463,40 M413.463,0
			c-137.089,0-248.22,111.131-248.22,248.22S276.374,496.44,413.463,496.44c137.088,0,248.22-111.132,248.22-248.221
			S550.551,0,413.463,0L413.463,0z"/>
	</g>
	<g>
		<path fill="#FF7100" d="M413.462,552.44c50.949,0,100.32,8.936,146.742,26.558c44.609,16.934,84.613,41.123,118.902,71.897
			c33.979,30.494,60.605,65.9,79.143,105.234c19.027,40.373,28.675,83.232,28.675,127.387v74.005H40v-74.005
			c0-44.154,9.647-87.014,28.675-127.387c18.537-39.334,45.164-74.74,79.142-105.234c34.29-30.774,74.294-54.964,118.903-71.897
			C313.142,561.376,362.514,552.44,413.462,552.44 M413.462,512.44C185.114,512.44,0,678.577,0,883.517v114.005h826.924V883.517
			C826.924,678.577,641.812,512.44,413.462,512.44L413.462,512.44z"/>
	</g>
</g>
<g id="solid_person">
	<circle fill="#FF7100" cx="884.857" cy="476.175" r="172.214"/>
	<path fill="#FF7100" d="M597.999,916.942v79.096h573.718v-79.096c0-142.188-128.431-257.452-286.858-257.452
		C726.431,659.49,597.999,774.755,597.999,916.942z"/>
</g>
</svg>
