<?xml version="1.0" encoding="utf-8"?>
<!-- Generator: Adobe Illustrator 16.0.0, SVG Export Plug-In . SVG Version: 6.00 Build 0)  -->
<!DOCTYPE svg PUBLIC "-//W3C//DTD SVG 1.1//EN" "http://www.w3.org/Graphics/SVG/1.1/DTD/svg11.dtd">
<svg version="1.1" xmlns="http://www.w3.org/2000/svg" xmlns:xlink="http://www.w3.org/1999/xlink" x="0px" y="0px"
	 width="728.982px" height="763.016px" viewBox="0 0 728.982 763.016" enable-background="new 0 0 728.982 763.016"
	 xml:space="preserve">
<g id="Layer_3">
</g>
<g id="Layer_2">
</g>
<g id="Layer_4">
	<path fill="#FD7022" d="M476.477,650.64c7.598-28.354,36.74-45.181,65.096-37.583l102.916,27.578
		c38.224-41.282,67.432-91.031,84.493-146.122l-75.423-75.422c-20.756-20.757-20.757-54.409,0-75.167l75.423-75.421
		c-17.061-55.09-46.269-104.839-84.492-146.121l-102.917,27.577c-28.354,7.597-57.498-9.229-65.096-37.584L448.879,9.372
		C421.732,3.242,393.491,0,364.491,0c-28.999,0-57.24,3.242-84.387,9.372l-27.6,103.004c-7.598,28.354-36.74,45.181-65.096,37.582
		L84.492,122.382C46.269,163.664,17.061,213.413,0,268.503l75.422,75.422c20.756,20.757,20.758,54.408,0,75.166L0,494.512
		c17.061,55.091,46.269,104.84,84.492,146.122l102.917-27.577c28.354-7.597,57.498,9.228,65.096,37.583l27.598,103.004
		c27.147,6.13,55.389,9.372,84.389,9.372c28.999,0,57.24-3.242,84.386-9.372L476.477,650.64z"/>
</g>
</svg>
