<svg id="Layer_1" data-name="Layer 1" xmlns="http://www.w3.org/2000/svg" viewBox="0 0 200 200"><defs><style>.cls-1{fill:#f07b05;}</style></defs><title>squadron</title><polygon class="cls-1" points="117.56 81.29 117.56 95.39 105.07 95.39 105.07 127.53 140.19 87.53 146.43 50.37 117.56 81.29"/><polygon class="cls-1" points="82.44 81.29 53.57 50.37 59.81 87.53 94.93 127.53 94.93 95.39 82.44 95.39 82.44 81.29"/><polygon class="cls-1" points="99.61 69.73 89.07 87.97 110.14 87.97 99.61 69.73"/><path class="cls-1" d="M193.76,105.05,200,85.32H173.57a82.24,82.24,0,0,0,3.55-23.41V59.15L141,26.34H59L22.88,59.15v2.76a82.92,82.92,0,0,0,3.51,23.41H0l6.24,19.73H34.48A139.77,139.77,0,0,0,43,119.14H18.73L25,138.87H58.89a227.65,227.65,0,0,0,37.26,32.49l3.44,2.3,3.46-2.28a229.4,229.4,0,0,0,37.68-32.51H175l6.24-19.73H156.75a140.49,140.49,0,0,0,8.65-14.09ZM99.63,158.52c-13.54-10-62.29-48.82-64.21-93.89l28.42-25.8h72.31l28.42,25.8C162.64,109.64,113.27,148.59,99.63,158.52Z"/></svg>