<?xml version="1.0" encoding="utf-8"?>
<!-- Generator: Adobe Illustrator 16.0.0, SVG Export Plug-In . SVG Version: 6.00 Build 0)  -->
<!DOCTYPE svg PUBLIC "-//W3C//DTD SVG 1.1//EN" "http://www.w3.org/Graphics/SVG/1.1/DTD/svg11.dtd">
<svg version="1.1" xmlns="http://www.w3.org/2000/svg" xmlns:xlink="http://www.w3.org/1999/xlink" x="0px" y="0px"
	 width="602.649px" height="473.12px" viewBox="0 0 602.649 473.12" enable-background="new 0 0 602.649 473.12"
	 xml:space="preserve">
<g id="Layer_2">
	<path d="M289.937,46.578l-57.263,68.031c-0.065,0.074-0.13,0.148-0.194,0.224l-0.036,0.042l-0.036,0.043
		c-10.643,12.635-15.728,28.657-14.318,45.118c1.409,16.46,9.144,31.386,21.779,42.028c11.136,9.379,25.278,14.544,39.821,14.544
		c18.297,0,35.547-8.021,47.326-22.006l0.054-0.063l0.01-0.013l0.026-0.031l0.027-0.032l57.563-68.381v89.683L193.607,451.595
		c-1.401,1.318-3.008,1.525-3.875,1.525c-1.007,0-2.491-0.261-3.837-1.505L21.824,300.142c-2.297-2.121-2.441-5.715-0.321-8.012
		l0.438-0.475l0.406-0.501L213.544,55.169L289.937,46.578 M337.524,21.099L203.164,36.21L6.808,278.564
		c-9.616,10.416-8.968,26.653,1.448,36.271l164.071,151.476c4.935,4.557,11.179,6.81,17.404,6.81c6.914,0,13.806-2.776,18.865-8.256
		l196.1-242.015V71.267l-92.864,110.315c0,0-0.076,0.09-0.114,0.136c-8.276,9.826-20.113,14.89-32.028,14.89
		c-9.519,0-19.087-3.229-26.938-9.841c-17.676-14.889-19.937-41.29-5.048-58.965c0.033-0.039,0.069-0.076,0.103-0.115
		L337.524,21.099L337.524,21.099z"/>
</g>
<g id="Layer_3">
	<g>
		<path d="M397.664,171.333v-20c51.656,0,99.548-9.828,134.856-27.675c31.857-16.102,50.128-37.36,50.128-58.325
			c0-15.286-7.406-25.983-23.307-33.662C543.304,23.927,519.632,20,488.982,20c-83.153,0-138.173,63.994-139.616,65.697
			l-62.314,76.474c-3.489,4.281-9.788,4.925-14.069,1.436c-4.281-3.488-4.924-9.787-1.436-14.068l62.436-76.622
			c0.627-0.752,15.667-18.623,42.177-36.541C411.371,12.578,450.384,0,488.982,0c93.947,0,113.667,35.529,113.667,65.333
			C602.649,124.773,512.609,171.333,397.664,171.333z"/>
	</g>
</g>
</svg>
