<?xml version="1.0" encoding="UTF-8" standalone="no"?>
<!-- Created with Inkscape (http://www.inkscape.org/) -->

<svg
   xmlns:dc="http://purl.org/dc/elements/1.1/"
   xmlns:cc="http://creativecommons.org/ns#"
   xmlns:rdf="http://www.w3.org/1999/02/22-rdf-syntax-ns#"
   xmlns:svg="http://www.w3.org/2000/svg"
   xmlns="http://www.w3.org/2000/svg"
   xmlns:sodipodi="http://sodipodi.sourceforge.net/DTD/sodipodi-0.dtd"
   xmlns:inkscape="http://www.inkscape.org/namespaces/inkscape"
   width="253.62848mm"
   height="228.85864mm"
   viewBox="0 0 898.68359 810.91645"
   id="svg4228"
   version="1.1"
   inkscape:version="0.48.4 r9939"
   sodipodi:docname="rank-9-cqc.svg"
   inkscape:export-filename="C:\Users\Pedro\Pictures\Frontier Developments\Elite Dangerous\Other\rank-9-cqc.png"
   inkscape:export-xdpi="90"
   inkscape:export-ydpi="90">
  <defs
     id="defs4230" />
  <sodipodi:namedview
     id="base"
     pagecolor="#ffffff"
     bordercolor="#666666"
     borderopacity="1.0"
     inkscape:pageopacity="0.0"
     inkscape:pageshadow="2"
     inkscape:zoom="1"
     inkscape:cx="449.3418"
     inkscape:cy="405.45822"
     inkscape:document-units="px"
     inkscape:current-layer="layer1"
     showgrid="false"
     fit-margin-top="0"
     fit-margin-left="0"
     fit-margin-right="0"
     fit-margin-bottom="0"
     inkscape:window-width="1680"
     inkscape:window-height="987"
     inkscape:window-x="-8"
     inkscape:window-y="-8"
     inkscape:window-maximized="1" />
  <metadata
     id="metadata4233">
    <rdf:RDF>
      <cc:Work
         rdf:about="">
        <dc:format>image/svg+xml</dc:format>
        <dc:type
           rdf:resource="http://purl.org/dc/dcmitype/StillImage" />
        <dc:title></dc:title>
      </cc:Work>
    </rdf:RDF>
  </metadata>
  <g
     inkscape:label="Layer 1"
     inkscape:groupmode="layer"
     id="layer1"
     transform="translate(74.3418,-126.90398)">
    <g
       inkscape:label="Layer 1"
       id="g4073"
       transform="translate(-0.39211,-16.631725)">
      <g
         id="g4075"
         transform="translate(-218.71299,83.552784)">
        <g
           id="g4077"
           transform="matrix(4.0041057,0,0,4.0041057,1517.2254,-471.67883)">
          <path
             style="fill:#8a050c;fill-opacity:1;fill-rule:evenodd;stroke:none;stroke-width:1px;stroke-linecap:butt;stroke-linejoin:round;stroke-opacity:1"
             d="m -230.63811,132.77915 -5,25 -25,5 25,5 5,25 5,-25 25,-5 -25,-5 z"
             id="path4079"
             inkscape:connector-curvature="0" />
          <path
             inkscape:connector-curvature="0"
             style="color:#000000;clip-rule:nonzero;display:inline;overflow:visible;visibility:visible;opacity:1;isolation:auto;mix-blend-mode:normal;color-interpolation:sRGB;color-interpolation-filters:linearRGB;solid-color:#000000;solid-opacity:1;fill:#8a050c;fill-opacity:1;fill-rule:evenodd;stroke:none;stroke-width:1px;stroke-linecap:butt;stroke-linejoin:miter;stroke-miterlimit:4;stroke-dasharray:none;stroke-dashoffset:0;stroke-opacity:1;color-rendering:auto;image-rendering:auto;shape-rendering:auto;text-rendering:auto;enable-background:accumulate"
             d="m -300.63811,277.77825 -4,16 -16,4 16,4 4,16 4,-16 16,-4 -16,-4 -4,-16 z"
             id="path4081" />
          <g
             id="g4083"
             transform="matrix(-1,0,0,1,2609.3619,1375.417)"
             style="fill:#8a050c;fill-opacity:1;stroke:none;stroke-linejoin:round">
            <path
               style="color:#000000;clip-rule:nonzero;display:inline;overflow:visible;visibility:visible;opacity:1;isolation:auto;mix-blend-mode:normal;color-interpolation:sRGB;color-interpolation-filters:linearRGB;solid-color:#000000;solid-opacity:1;fill:#8a050c;fill-opacity:1;fill-rule:evenodd;stroke:none;stroke-width:1px;stroke-linecap:butt;stroke-linejoin:round;stroke-miterlimit:4;stroke-dasharray:none;stroke-dashoffset:0;stroke-opacity:1;color-rendering:auto;image-rendering:auto;shape-rendering:auto;text-rendering:auto;enable-background:accumulate"
               d="m 2770,-1097.6387 -4,16 -16,4 16,4 4,16 4,-16 16,-4 -16,-4 -4,-16 z"
               id="path4085"
               inkscape:connector-curvature="0" />
          </g>
        </g>
        <path
           inkscape:connector-curvature="0"
           style="color:#000000;clip-rule:nonzero;display:inline;overflow:visible;visibility:visible;opacity:1;isolation:auto;mix-blend-mode:normal;color-interpolation:sRGB;color-interpolation-filters:linearRGB;solid-color:#000000;solid-opacity:1;fill:#ff0507;fill-opacity:1;fill-rule:evenodd;stroke:none;stroke-width:4.00410557px;stroke-linecap:butt;stroke-linejoin:round;stroke-miterlimit:4;stroke-dasharray:none;stroke-dashoffset:0;stroke-opacity:1;color-rendering:auto;image-rendering:auto;shape-rendering:auto;text-rendering:auto;enable-background:accumulate"
           d="m 144.7633,83.000876 c 0,71.450004 2.3964,80.238704 15.0704,93.056704 l 94.83,89.51559 0,12.4063 -40.7695,-38.1094 c 0.014,49.034 -4.4296,67.3575 15.0684,86.8555 l 81.5371,75.332 0,12.4082 -36.3379,-32.791 c -0.09,34.564 -1.7722,51.4031 16.8398,71.7871 0,0 12.3004,11.9609 27.3164,26.4629 2.435,2.262 4.9502,4.5971 7.5352,6.9961 19.438,18.05 38.8766,36.1061 57.1816,53.1191 50.026,46.494 80.4094,74.8 82.7774,77.168 6.393,6.395 9.2452,13.9883 9.5332,23.2578 l 1.0156,32.6621 c 0.2307,5.8639 2.4083,10.636 6.168,14.8672 l 67.7539,63.623 38.25,-82.5136 -178.7774,-162.045 c -6.779,-6.065 -10.2601,-11.9407 -10.5566,-18.3437 -0.2475,-5.344 1.6934,-10.481 5.6894,-16.5 l 6.9844,-9.2695 -38.4531,-36.0704 c -5.703,-5.281 -9.3315,-11.808 -11.5215,-19.498 -1.27,-5.233 -1.9069,-10.4984 -1.7695,-16.8379 l 0.875,-40.3672 c -12.632,-13.203 -20.6909,-32.2113 -25.0449,-55.4883 -2.553,-13.646 -3.6956,-27.7784 -3.8086,-41.5664 C 302.0771,225.81507 144.7633,83.000876 144.7633,83.000876 Z m 898.6836,0 c 0,0 -157.3137,142.814194 -187.3867,170.117194 -0.113,13.788 -1.2556,27.9204 -3.8086,41.5664 -4.354,23.277 -12.4129,42.2853 -25.0449,55.4883 l 0.875,40.3672 c 0.1374,6.3395 -0.4995,11.6049 -1.7695,16.8379 -2.19,7.69 -5.8185,14.217 -11.5215,19.498 l -38.4531,36.0704 6.9843,9.2695 c 3.996,6.019 5.937,11.156 5.6895,16.5 -0.2965,6.403 -3.7776,12.2787 -10.5566,18.3437 l -178.7774,162.045 38.25,82.5136 67.7539,-63.623 c 3.7597,-4.2312 5.9373,-9.0033 6.168,-14.8672 l 1.0156,-32.6621 c 0.288,-9.2695 3.1402,-16.8628 9.5332,-23.2578 2.368,-2.368 32.7514,-30.674 82.7774,-77.168 18.305,-17.013 37.7436,-35.0691 57.1816,-53.1191 2.585,-2.399 5.1001,-4.7341 7.5351,-6.9961 15.016,-14.502 27.3165,-26.4629 27.3165,-26.4629 18.612,-20.384 16.9298,-37.2231 16.8398,-71.7871 l -36.3379,32.791 0,-12.4082 81.5371,-75.332 c 19.498,-19.498 15.0544,-37.8215 15.0684,-86.8555 l -40.7696,38.1094 0,-12.4063 94.8301,-89.51559 c 12.674,-12.818 15.0703,-21.6067 15.0703,-93.056704 z M 342.8337,245.41107 c -0.307,15.584 0.6851,31.8494 3.5781,47.3164 4.171,22.295 11.8947,39.9949 23.6367,51.4649 l 57.6523,54.9941 c 18.0758,17.2424 16.5801,40.9659 -1.4179,62.9629 l -12.5293,15.9472 c -2.861,4.3091 -4.0495,7.4542 -3.9258,10.125 0.1453,3.1391 2.1834,6.5822 7.0234,10.9122 l 174.8301,158.4589 -25.0508,-125.25 -22.1562,-23.0429 -31.0215,0 -28.3594,-29.2481 c 0,0 -8.8619,-18.1681 25.7031,-48.7441 l 0,-29.2481 -167.9628,-156.6484 z m 502.5429,0 -167.9629,156.6484 0,29.2481 c 34.565,30.576 25.7032,48.7441 25.7032,48.7441 l -28.3594,29.2481 -31.0215,0 -22.1562,23.0429 -25.0508,125.25 174.83,-158.4589 c 4.84,-4.33 6.8782,-7.7732 7.0235,-10.9122 0.1237,-2.6708 -1.0648,-5.816 -3.9258,-10.125 l -12.5293,-15.9472 c -17.998,-21.997 -19.4938,-45.7205 -1.418,-62.9629 l 57.6524,-54.9941 c 11.742,-11.47 19.4657,-29.1699 23.6367,-51.4649 2.893,-15.467 3.8851,-31.7324 3.5781,-47.3164 z m -266.3379,102.5859 -7.9785,91.2852 5.3184,4.4316 0,14.1797 17.72649,15.0684 17.7266,-15.0684 0,-14.1797 5.3184,-4.4316 -7.9786,-91.2852 -3.5449,19.4981 -1.7715,52.291 -9.75,7.0898 -9.75,-7.0898 -1.77139,-52.291 -3.545,-19.4981 z m -207.7089,12.2852 -0.5665,30.2578 c -0.018,12.403 2.458,21.6454 9.75,28.3594 l 38.1309,35.7832 c 14.21,-17.8 14.8072,-34.7026 1.5352,-47.9746 l -48.8496,-46.4258 z m 445.5507,0 -48.8496,46.4258 c -13.272,13.272 -12.6748,30.1746 1.5352,47.9746 l 38.1308,-35.7832 c 7.292,-6.714 9.768,-15.9564 9.75,-28.3594 l -0.5664,-30.2578 z m -246.707,103.8164 -9.748,0.8867 -11.5215,10.6348 19.4961,0 0,9.75 -28.3594,4.4316 -10.63671,9.7481 40.7715,0 23.9296,21.2715 23.92971,-21.2715 40.7715,0 -10.6367,-9.7481 -28.3594,-4.4316 0,-9.75 19.49609,0 -11.52149,-10.6348 -9.74801,-0.8867 -23.9317,23.043 -23.9316,-23.043 z m 7.0918,65.5859 16.8398,86.8536 16.8399,-86.8536 -16.8399,0 -16.8398,0 z m -207.5469,12.5 0.1602,22.0645 c 0.077,10.643 0.8849,19.4965 16.8379,34.5625 8.871,8.379 43.6271,40.9016 78.9531,73.9316 l -0.9609,-32.2754 c -0.1921,-6.4531 -2.023,-11.3402 -6.42,-15.7382 -2.214,-2.212 -88.5703,-82.545 -88.5703,-82.545 z m 448.7735,0 c 0,0 -86.3564,80.333 -88.5704,82.545 -4.39701,4.398 -6.2278,9.2851 -6.4199,15.7382 l -0.9609,32.2754 c 35.326,-33.03 70.08209,-65.5526 78.9531,-73.9316 15.953,-15.066 16.7609,-23.9195 16.8379,-34.5625 l 0.1602,-22.0645 z m -224.3868,140.1934 -41.3632,89.2246 20.9785,19.5313 9.75,-60.2657 10.6347,-15.9531 10.6348,15.9531 9.75,60.2657 20.9785,-19.5313 -41.3633,-89.2246 z m 0,50.2617 -4.4316,6.2031 c 0,0 -13.3544,82.4229 -15.0664,92.1719 -1.845,9.749 -2.733,22.1578 19.498,39.8848 22.231,-17.727 21.3431,-30.1358 19.4981,-39.8848 -1.712,-9.749 -15.0664,-92.1719 -15.0664,-92.1719 l -4.4317,-6.2031 z"
           id="path4066" />
      </g>
    </g>
  </g>
</svg>
