<?xml version="1.0" encoding="UTF-8" standalone="no"?>
<!-- Created with Inkscape (http://www.inkscape.org/) -->

<svg
   xmlns:dc="http://purl.org/dc/elements/1.1/"
   xmlns:cc="http://creativecommons.org/ns#"
   xmlns:rdf="http://www.w3.org/1999/02/22-rdf-syntax-ns#"
   xmlns:svg="http://www.w3.org/2000/svg"
   xmlns="http://www.w3.org/2000/svg"
   xmlns:sodipodi="http://sodipodi.sourceforge.net/DTD/sodipodi-0.dtd"
   xmlns:inkscape="http://www.inkscape.org/namespaces/inkscape"
   width="203.40858mm"
   height="209.05785mm"
   viewBox="0 0 720.73908 740.75614"
   id="svg5923"
   version="1.1"
   inkscape:version="0.48.4 r9939"
   sodipodi:docname="rank-3-cqc.svg"
   inkscape:export-filename="C:\Users\Pedro\Pictures\Frontier Developments\Elite Dangerous\Other\rank-3-cqc.png"
   inkscape:export-xdpi="90"
   inkscape:export-ydpi="90">
  <defs
     id="defs5925" />
  <sodipodi:namedview
     id="base"
     pagecolor="#ffffff"
     bordercolor="#666666"
     borderopacity="1.0"
     inkscape:pageopacity="0.0"
     inkscape:pageshadow="2"
     inkscape:zoom="1"
     inkscape:cx="360.36954"
     inkscape:cy="370.37808"
     inkscape:document-units="px"
     inkscape:current-layer="layer1"
     showgrid="false"
     fit-margin-top="0"
     fit-margin-left="0"
     fit-margin-right="0"
     fit-margin-bottom="0"
     inkscape:window-width="1680"
     inkscape:window-height="987"
     inkscape:window-x="-8"
     inkscape:window-y="-8"
     inkscape:window-maximized="1" />
  <metadata
     id="metadata5928">
    <rdf:RDF>
      <cc:Work
         rdf:about="">
        <dc:format>image/svg+xml</dc:format>
        <dc:type
           rdf:resource="http://purl.org/dc/dcmitype/StillImage" />
        <dc:title></dc:title>
      </cc:Work>
    </rdf:RDF>
  </metadata>
  <g
     inkscape:label="Layer 1"
     inkscape:groupmode="layer"
     id="layer1"
     transform="translate(420.36953,-136.26984)">
    <g
       transform="translate(-653.72605,76.286922)"
       id="g4584">
      <path
         inkscape:connector-curvature="0"
         style="color:#000000;clip-rule:nonzero;display:inline;overflow:visible;visibility:visible;opacity:1;isolation:auto;mix-blend-mode:normal;color-interpolation:sRGB;color-interpolation-filters:linearRGB;solid-color:#000000;solid-opacity:1;fill:#ff0507;fill-opacity:1;fill-rule:evenodd;stroke:none;stroke-width:4.00410557px;stroke-linecap:butt;stroke-linejoin:round;stroke-miterlimit:4;stroke-dasharray:none;stroke-dashoffset:0;stroke-opacity:1;color-rendering:auto;image-rendering:auto;shape-rendering:auto;text-rendering:auto;enable-background:accumulate"
         d="m 268.7168,242.54022 c 0,0 -2.0648,81.72335 3.2422,98.65235 5.308,16.929 25.5801,32.49414 25.5801,32.49414 l 130.4648,123.41015 -0.8808,29.3418 -86.0566,-81.08984 c 0,0 4.7718,84.12696 10.7968,96.16796 6.026,12.041 13.1446,16.77344 13.1446,16.77344 l 62.996,57.94336 0,25.54883 165.709,151.06055 -43.5293,-219.28711 -43.3496,-41.90039 -19.8906,-1.30274 c 0,0 -1.7536,-30.50483 28.4434,-63.04883 l -246.67,-224.76367 z m 324.9961,550.30274 165.709,-151.06055 0,-25.54883 62.9961,-57.94336 c 0,0 7.1185,-4.73244 13.1445,-16.77344 6.025,-12.041 10.7969,-96.16796 10.7969,-96.16796 l -86.0566,81.08984 -0.8809,-29.3418 130.4649,-123.41015 c 0,0 20.272,-15.56514 25.58,-32.49414 5.307,-16.929 3.2422,-98.65235 3.2422,-98.65235 L 672.0391,467.30389 c 30.197,32.544 28.4434,63.04883 28.4434,63.04883 l -19.8907,1.30274 -43.3496,41.90039 -43.5293,219.28711 z m -37.3144,-471.375 -6.041,77.71875 10.1757,9.08007 0,26.50586 33.1797,29.11524 33.1797,-29.11524 0,-26.50586 10.1758,-9.08007 -6.041,-77.71875 -19.4492,42.41797 -17.8653,13.36328 -17.8652,-13.36328 -19.4492,-42.41797 z m -9.5156,124.26953 2.6582,66.46875 44.1718,38.11133 44.1719,-38.11133 2.6582,-66.46875 -46.8301,41.65429 -46.83,-41.65429 z m 23.9296,127.62109 22.9004,120.5332 22.9004,-120.5332 -22.9004,0 -22.9004,0 z"
         id="path4648" />
      <g
         transform="matrix(4.0041057,0,0,4.0041057,1517.2254,-471.67883)"
         id="g4588">
        <path
           inkscape:connector-curvature="0"
           id="path4590"
           d="m -230.63811,132.77915 -5,25 -25,5 25,5 5,25 5,-25 25,-5 -25,-5 z"
           style="fill:#8a050c;fill-opacity:1;fill-rule:evenodd;stroke:none;stroke-width:1px;stroke-linecap:butt;stroke-linejoin:round;stroke-opacity:1" />
        <path
           id="path4592"
           d="m -300.63811,277.77825 -4,16 -16,4 16,4 4,16 4,-16 16,-4 -16,-4 -4,-16 z"
           style="color:#000000;clip-rule:nonzero;display:inline;overflow:visible;visibility:visible;opacity:1;isolation:auto;mix-blend-mode:normal;color-interpolation:sRGB;color-interpolation-filters:linearRGB;solid-color:#000000;solid-opacity:1;fill:#8a050c;fill-opacity:1;fill-rule:evenodd;stroke:none;stroke-width:1px;stroke-linecap:butt;stroke-linejoin:miter;stroke-miterlimit:4;stroke-dasharray:none;stroke-dashoffset:0;stroke-opacity:1;color-rendering:auto;image-rendering:auto;shape-rendering:auto;text-rendering:auto;enable-background:accumulate"
           inkscape:connector-curvature="0" />
        <g
           style="fill:#8a050c;fill-opacity:1;stroke:none;stroke-linejoin:round"
           transform="matrix(-1,0,0,1,2609.3619,1375.417)"
           id="g4594">
          <path
             inkscape:connector-curvature="0"
             id="path4596"
             d="m 2770,-1097.6387 -4,16 -16,4 16,4 4,16 4,-16 16,-4 -16,-4 -4,-16 z"
             style="color:#000000;clip-rule:nonzero;display:inline;overflow:visible;visibility:visible;opacity:1;isolation:auto;mix-blend-mode:normal;color-interpolation:sRGB;color-interpolation-filters:linearRGB;solid-color:#000000;solid-opacity:1;fill:#8a050c;fill-opacity:1;fill-rule:evenodd;stroke:none;stroke-width:1px;stroke-linecap:butt;stroke-linejoin:round;stroke-miterlimit:4;stroke-dasharray:none;stroke-dashoffset:0;stroke-opacity:1;color-rendering:auto;image-rendering:auto;shape-rendering:auto;text-rendering:auto;enable-background:accumulate" />
        </g>
      </g>
    </g>
  </g>
</svg>
