<?xml version="1.0" encoding="utf-8"?>
<!-- Generator: Adobe Illustrator 16.0.0, SVG Export Plug-In . SVG Version: 6.00 Build 0)  -->
<!DOCTYPE svg PUBLIC "-//W3C//DTD SVG 1.1//EN" "http://www.w3.org/Graphics/SVG/1.1/DTD/svg11.dtd">
<svg version="1.1" xmlns="http://www.w3.org/2000/svg" xmlns:xlink="http://www.w3.org/1999/xlink" x="0px" y="0px"
	 width="942.329px" height="841.851px" viewBox="0 0 942.329 841.851" enable-background="new 0 0 942.329 841.851"
	 xml:space="preserve">
<g id="Layer_3">
</g>
<g id="Layer_7">
	<path fill="#FFFFFF" d="M180.226,159.696c71.892-79.113,175.61-128.782,290.929-128.782s219.038,49.669,290.93,128.782
		c5.506-4.999,11.729-10.647,18.467-16.765c-4.496-4.942-9.119-9.792-13.87-14.542c-38.375-38.375-83.068-68.506-132.839-89.557
		c-51.541-21.8-106.277-32.854-162.688-32.854S360.009,17.031,308.468,38.831c-49.771,21.051-94.464,51.183-132.838,89.557
		c-4.751,4.751-9.374,9.6-13.871,14.542L180.226,159.696z"/>
</g>
<g id="Layer_8">
	<path fill="#FFFFFF" d="M856.238,261.227c-0.455-1.076-0.938-2.137-1.402-3.208c-0.221,0.227-0.433,0.453-0.659,0.68l-0.042,0.042
		l-0.043,0.041L835.39,276.06c18.546,45.641,28.766,95.554,28.766,147.854c0,212.83-169.182,386.139-380.396,392.794
		c-2.875,3.131-6.401,6.413-10.733,9.867l-1.87,1.491l-1.87-1.491c-4.332-3.454-7.859-6.736-10.733-9.867
		C247.338,810.053,78.155,636.744,78.155,423.914c0-52.301,10.22-102.213,28.766-147.854L88.219,258.78l-0.044-0.041l-0.042-0.042
		c-0.227-0.227-0.438-0.453-0.659-0.68c-0.464,1.071-0.947,2.132-1.402,3.208c-21.8,51.542-32.854,106.277-32.854,162.688
		S64.272,535.06,86.072,586.602c21.051,49.771,51.183,94.464,89.557,132.838c38.375,38.375,83.068,68.506,132.838,89.558
		c51.542,21.8,106.277,32.854,162.688,32.854s111.146-11.054,162.688-32.854c49.771-21.052,94.464-51.183,132.839-89.558
		c38.374-38.374,68.506-83.067,89.557-132.838c21.8-51.542,32.854-106.277,32.854-162.688S878.038,312.768,856.238,261.227z"/>
</g>
<g id="Layer_2">
</g>
<g id="Layer_4">
	<path fill="#FFFFFF" d="M377.477,101.909c20.799,8.334,37.362,24.995,45.564,45.861c8.334-20.799,24.994-37.363,45.86-45.564
		c-20.798-8.334-37.362-24.995-45.563-45.861C415.003,77.145,398.344,93.708,377.477,101.909z"/>
	<path fill="#FFFFFF" d="M513.676,241.88c10.19,4.083,18.306,12.246,22.324,22.47c4.084-10.19,12.246-18.306,22.47-22.324
		c-10.189-4.083-18.306-12.246-22.324-22.47C532.063,229.747,523.899,237.862,513.676,241.88z"/>
	<path fill="#FFFFFF" d="M783.896,434.094c12.921,5.177,23.21,15.526,28.305,28.489c5.178-12.92,15.526-23.211,28.489-28.305
		c-12.919-5.178-23.21-15.527-28.305-28.489C807.209,418.71,796.859,428.999,783.896,434.094z"/>
	<path fill="#FFFFFF" d="M543,720.177c17.016,6.817,30.566,20.447,37.275,37.519c6.818-17.015,20.447-30.567,37.519-37.275
		c-17.014-6.82-30.566-20.447-37.275-37.519C573.701,699.917,560.071,713.466,543,720.177z"/>
	<path fill="#FFFFFF" d="M177.642,658.156c17.142,6.868,30.793,20.599,37.552,37.797c6.869-17.141,20.599-30.794,37.797-37.552
		c-17.14-6.871-30.793-20.599-37.552-37.797C208.57,637.746,194.839,651.396,177.642,658.156z"/>
	<path fill="#FFFFFF" d="M95.155,406.719c9.862,3.951,17.715,11.851,21.604,21.745c3.952-9.862,11.851-17.716,21.745-21.604
		c-9.86-3.953-17.715-11.851-21.604-21.745C112.949,394.977,105.049,402.829,95.155,406.719z"/>
	<path fill="#FFFFFF" d="M281.892,178.633c18.069,7.241,32.458,21.714,39.583,39.842c7.24-18.069,21.713-32.458,39.841-39.583
		c-18.068-7.241-32.458-21.714-39.583-39.841C314.492,157.119,300.019,171.508,281.892,178.633z"/>
</g>
<g id="Layer_9">
</g>
<g id="Layer_5">
	<path fill="#FFFFFF" d="M260.674,626.159c-19.799,0-29.519-7.739-29.519-26.279v-87.107c0-18.539,9.72-26.279,29.519-26.279h21.462
		c19.799,0,29.519,7.74,29.519,26.279v87.107c0,18.54-9.72,26.279-29.519,26.279H260.674z M271.405,609.24
		c10.8,0,13.68-3.78,13.68-12.78v-80.447c0-9-2.88-12.78-13.68-12.78h-1.571c-10.799,0-13.679,3.78-13.679,12.78v80.447
		c0,9,2.88,12.78,13.679,12.78H271.405z"/>
	<path fill="#FFFFFF" d="M408.155,626.159h-54.722c-19.799,0-29.519-7.739-29.519-26.279V486.493h26.329V596.46
		c0,9,2.88,12.78,14.039,12.78h4.181c10.8,0,13.68-3.78,13.68-12.78V486.493h26.012V626.159z"/>
	<path fill="#FFFFFF" d="M424.415,486.493h54.722c19.799,0,29.519,7.739,29.519,26.279v113.387h-26.328V516.192
		c0-9-2.881-12.78-14.04-12.78h-4.181c-10.799,0-13.68,3.78-13.68,12.78v109.967h-26.012V486.493z"/>
	<path fill="#FFFFFF" d="M608.489,599.88c0,18.54-9.18,26.279-28.979,26.279h-54.688V488.284h54.688
		c19.8,0,28.979,7.74,28.979,26.279V599.88z M583.05,517.804c0-9-2.88-12.78-13.68-12.78h-18.548V609.24h18.548
		c10.8,0,13.68-3.78,13.68-12.78V517.804z"/>
	<path fill="#FFFFFF" d="M767.656,626.159v-51.667l-7.568-10.583h-21.599v62.25h-27.18V488.284h51.869
		c19.8,0,29.52,7.92,29.52,26.279v21.627c0,10.08-3.607,17.273-11.057,21.034l11.194,17.268l0.069,51.667H767.656z M754.598,547.53
		c10.8,0,13.68-3.78,13.68-12.779v-16.947c0-9-2.88-12.78-13.68-12.78h-16.108v42.507H754.598z"/>
	<path fill="#FFFFFF" d="M625.655,557.222v42.396c0,19.667,11.834,26.542,24.834,26.542h42v-16.875h-29.376
		c-5.213,0-9.958-2.757-9.958-10.643l-0.006-23.258c0-5.213,2.756-9.959,10.643-9.959c7.5,0,28.697-0.014,28.697-0.014v-8.189
		v-8.189c0,0-21.197-0.014-28.697-0.014c-7.887,0-10.643-4.746-10.643-9.959l0.006-23.258c0-7.886,4.745-10.643,9.958-10.643h29.376
		v-16.875h-42c-13,0-24.834,6.875-24.834,26.542V557.222z"/>
	<path fill="#FFFFFF" d="M178.405,626.159l-0.252-50.775c0-5.213,2.756-9.959,10.643-9.959c7.5,0,28.697-0.014,28.697-0.014v-8.189
		v-8.189c0,0-21.197-0.014-28.697-0.014c-7.887,0-10.643-4.746-10.643-9.959l-0.039-23.258c0-7.886,4.745-10.643,9.958-10.643
		h29.421v-16.875h-42c-13,0-24.834,6.875-24.834,26.542v42.396v68.938H178.405z"/>
</g>
<g id="Layer_10">
	<g>
		<polygon fill="#FFFFFF" points="452.155,393.094 471.155,408.892 490.155,393.094 490.155,378.225 495.523,373.579 
			487.057,277.861 483.288,298.305 481.403,353.134 471.168,360.568 460.939,353.134 459.078,298.305 455.358,277.861 
			446.788,373.579 452.155,378.225 		"/>
		<polygon fill="#FFFFFF" points="471.155,459.463 496.247,437.159 538.994,437.159 527.868,426.744 498.155,421.901 
			498.155,412.159 518.55,412.159 506.469,400.768 496.247,399.718 471.155,423.821 446.064,399.628 435.842,400.783 
			423.761,412.159 444.155,412.159 444.155,421.901 414.442,426.744 403.316,437.159 446.064,437.159 		"/>
		<polygon fill="#FFFFFF" points="487.688,474.159 488.812,468.159 471.155,468.159 453.499,468.159 454.622,474.159 		"/>
		<path fill="#FFFFFF" d="M555.722,447.159h-32.525l-23.232,24.079l-0.601,2.921h116.623c22.7-20.567,37.302-33.774,41.831-37.827
			c5.074-4.54,7.213-8.149,7.364-11.439c0.131-2.801-1.116-6.1-4.114-10.617c-1.42-2.137-3.204-4.516-5.66-7.58
			c-0.988-1.234-2.043-2.526-3.553-4.362c-0.417-0.508-1.922-2.336-1.921-2.335c-0.791-0.96-1.401-1.705-2.006-2.443
			c-18.871-23.065-20.009-47.498-1.487-66.019c4.142-4.141,7.655-7.545,11.563-11.222c2.324-2.179,13.359-12.402,17.779-16.552
			c8.625-8.102,18.405-17.481,31.109-29.89c12.314-12.027,20.411-30.586,24.784-53.963c3.079-16.462,3.931-33.788,3.563-50.351
			l-177.083,164.99v30.667c37,32.061,27.127,51.195,27.127,51.195L555.722,447.159z"/>
		<path fill="#FFFFFF" d="M702.973,293.232c-7.393,7.146-13.734,13.189-19.557,18.658c-4.455,4.185-15.497,14.413-16.919,15.746
			c-4.679,4.4-8.111,7.726-12.171,11.784c-13.557,13.558-13.312,30.73,0.485,48.863c5.803-5.468,14.77-14.074,18.002-17.492
			c9.489-8.378,16.433-14.883,20.445-18.585c7.645-7.04,10.239-16.731,10.222-29.738c0.018-2.859-0.116-10.091,0-20.445
			C703.321,301.613,703.137,297.683,702.973,293.232z"/>
		<path fill="#FFFFFF" d="M236.221,273.872c12.704,12.409,22.485,21.788,31.111,29.89c4.418,4.149,15.455,14.373,17.777,16.552
			c3.909,3.676,7.422,7.081,11.563,11.222c18.522,18.521,17.385,42.954-1.485,66.019c-0.604,0.738-1.215,1.483-2.006,2.443
			c0.001-0.001-1.504,1.827-1.922,2.335c-1.508,1.836-2.563,3.128-3.552,4.362c-2.455,3.064-4.239,5.443-5.658,7.58
			c-2.999,4.517-4.246,7.816-4.115,10.617c0.151,3.291,2.29,6.899,7.364,11.439c4.529,4.053,19.132,17.26,41.832,37.827h115.82
			l-0.601-2.921l-23.232-24.079h-32.526l-29.56-30.75c0,0-9.874-19.134,27.126-51.195v-30.667L207.86,170.293
			c-0.321,16.34,0.633,33.397,3.666,49.616C215.899,243.286,223.909,261.845,236.221,273.872z"/>
		<path fill="#FFFFFF" d="M475.802,687.683l-4.646-6.506l-4.646,6.506c0,0-14.002,86.424-15.798,96.646
			c-1.934,10.223-2.867,23.232,20.444,41.819c23.313-18.587,22.38-31.597,20.444-41.819
			C489.804,774.106,475.802,687.683,475.802,687.683z"/>
		<polygon fill="#FFFFFF" points="488.74,638.159 517.671,700.566 584.13,638.159 		"/>
		<path fill="#FFFFFF" d="M926.552,97.577C939.839,84.134,942.329,74.918,942.329,0c0,0-162.246,147.285-195.684,177.64
			c-0.084,14.689-1.281,29.769-4.003,44.318c-4.757,25.43-13.735,46-27.956,59.891c-0.303,0.295-0.605,0.589-0.903,0.881
			c0.162,5.88,0.538,18.329,0.85,19.292c-0.135,10.194-0.001,17.462-0.001,20.445c0,6.649-0.525,12.17-1.859,17.657
			c-2.296,8.063-6.1,14.907-12.08,20.445c-3.882,3.552-19.938,18.645-20.444,18.586c-3.2,3.378-12.551,12.335-18.368,17.816
			c0.847,1.034,1.551,1.903,2.231,2.752c2.645,3.301,4.61,5.92,6.245,8.383c4.188,6.31,6.225,11.699,5.966,17.302
			c-0.311,6.713-3.961,12.876-11.068,19.235c-3.875,3.466-15.187,13.691-32.658,29.516h65.355
			c17.581-16.339,36.037-33.481,54.503-50.628c2.495-2.317,4.927-4.577,7.291-6.769c16.006-15.459,29.354-28.371,29.23-28.315
			c19.516-21.374,17.563-39.03,17.469-75.273c0.094,0.204-38.289,34.384-38.289,34.384v-13.01l85.684-78.99
			c20.443-20.445,15.917-39.658,15.932-91.071c-0.015,0.425-42.615,39.96-42.615,39.96v-13.011
			C827.155,191.436,926.679,97.526,926.552,97.577z"/>
		<path fill="#FFFFFF" d="M236.972,322.467c-0.019,13.006,2.577,22.698,10.223,29.738c4.012,3.703,10.954,10.207,20.444,18.585
			c3.534,3.737,13.925,13.677,19.537,18.935c14.9-18.664,15.527-36.389,1.611-50.306c-4.059-4.058-7.492-7.384-12.171-11.784
			c-1.421-1.333-12.464-11.561-16.919-15.746c-6.487-6.093-13.618-12.899-22.131-21.149c-0.182,5.376-0.407,10.796-0.595,11.282
			C237.088,312.376,236.953,319.608,236.972,322.467z"/>
		<polygon fill="#FFFFFF" points="466.665,638.159 427.783,722.031 449.781,742.511 460.004,679.318 471.155,662.591 
			482.308,679.318 492.529,742.511 515.088,721.509 476.448,638.159 		"/>
		<polygon fill="#FFFFFF" points="358.205,638.159 425.207,701.075 454.373,638.159 		"/>
		<path fill="#FFFFFF" d="M174.155,347.558c0,0-38.384-34.181-38.29-34.384c-0.094,36.243-1.953,53.899,17.563,75.273
			c-0.122-0.055,12.853,12.542,28.597,27.748c2.554,2.371,5.167,4.818,7.878,7.336c18.465,17.146,36.898,34.289,54.48,50.628h66.135
			c-17.471-15.824-28.783-26.05-32.658-29.516c-7.108-6.359-10.758-12.522-11.068-19.235c-0.26-5.603,1.776-10.992,5.965-17.302
			c1.636-2.463,3.602-5.082,6.247-8.383c0.347-0.434,0.701-0.873,1.077-1.335c-5.555-5.203-16.382-15.544-19.876-19.233
			c-0.507,0.059-16.561-15.034-20.444-18.586c-5.98-5.538-9.785-12.381-12.081-20.445c-1.333-5.487-1.859-11.008-1.859-17.657
			c0-2.982,0.136-10.25,0-20.445c0.373-1.155,0.84-18.826,0.918-21.88c-13.246-13.845-21.696-33.776-26.262-58.183
			c-2.677-14.308-3.875-29.127-3.994-43.584C164.95,149.747,0,0,0,0c0,74.918,2.471,84.134,15.759,97.577
			c-0.128-0.05,99.396,93.859,99.396,93.859v13.011c0,0-42.694-39.535-42.708-39.96c0.015,51.413-4.439,70.626,16.006,91.071
			l85.703,78.99V347.558z"/>
	</g>
	<g>
	</g>
	<g>
	</g>
	<g>
	</g>
	<g>
	</g>
	<g>
	</g>
	<g>
	</g>
	<g>
	</g>
	<g>
	</g>
	<g>
	</g>
	<g>
	</g>
	<g>
	</g>
	<g>
	</g>
	<g>
	</g>
	<g>
	</g>
	<g>
	</g>
</g>
</svg>
