<?xml version="1.0" encoding="utf-8"?>
<!-- Generator: Adobe Illustrator 16.0.0, SVG Export Plug-In . SVG Version: 6.00 Build 0)  -->
<!DOCTYPE svg PUBLIC "-//W3C//DTD SVG 1.1//EN" "http://www.w3.org/Graphics/SVG/1.1/DTD/svg11.dtd">
<svg version="1.1" id="Layer_1" xmlns="http://www.w3.org/2000/svg" xmlns:xlink="http://www.w3.org/1999/xlink" x="0px" y="0px"
	 width="315.358px" height="410.364px" viewBox="78.175 794.929 315.358 410.364"
	 enable-background="new 78.175 794.929 315.358 410.364" xml:space="preserve">
<path d="M247.813,902.558v-12.845h22.811l-3.765-94.784l28.125,13.952l98.549,226.553l-13.951,18.381l7.308,15.06l-48.721,67.103
	l-14.396,8.415v44.292l-5.094,12.18l-46.063,4.43l-14.395-19.267v-46.507l-5.537-5.094v-11.073l-6.201-2.214l-1.771,34.326
	c0,0-2.215,12.18-8.858,12.18c-6.644,0-8.858-12.18-8.858-12.18l-1.772-34.326l-6.201,2.214v11.073l-5.537,5.094v46.507
	l-14.395,19.267l-46.063-4.43l-5.093-12.18v-44.292l-14.395-8.415l-48.721-67.103l7.308-15.06l-13.952-18.381l99.435-226.332
	l28.125-13.951l-3.765,94.784h22.81v12.623H247.813z"/>
</svg>
