<?xml version="1.0" encoding="utf-8"?>
<!-- Generator: Adobe Illustrator 16.0.0, SVG Export Plug-In . SVG Version: 6.00 Build 0)  -->
<!DOCTYPE svg PUBLIC "-//W3C//DTD SVG 1.1//EN" "http://www.w3.org/Graphics/SVG/1.1/DTD/svg11.dtd">
<svg version="1.1" xmlns="http://www.w3.org/2000/svg" xmlns:xlink="http://www.w3.org/1999/xlink" x="0px" y="0px" width="960px"
	 height="960px" viewBox="0 0 960 960" enable-background="new 0 0 960 960" xml:space="preserve">
<g id="Layer_2">
	<g>
		<path fill="#F99949" d="M771.619,634.315c0-10.42,3.76-19.354,11.279-26.802c7.52-7.447,16.543-11.172,27.07-11.172
			s19.551,3.732,27.07,11.199c7.52,7.465,11.279,16.391,11.279,26.774c0,10.42-3.751,19.362-11.252,26.829
			c-7.502,7.465-16.535,11.198-27.098,11.198c-10.6,0-19.641-3.715-27.124-11.146C775.36,653.768,771.619,644.808,771.619,634.315z
			 M779.622,634.315c0,8.522,2.963,15.773,8.89,21.753c5.926,5.98,13.078,8.97,21.457,8.97c8.343,0,15.486-3.008,21.431-9.023
			c5.943-6.016,8.916-13.248,8.916-21.699c0-8.414-2.973-15.63-8.916-21.646c-5.944-6.016-13.088-9.023-21.431-9.023
			c-8.344,0-15.487,3.008-21.431,9.023C782.594,618.686,779.622,625.901,779.622,634.315z M795.145,612.348h14.824
			c10.491,0,15.737,4.279,15.737,12.837c0,5.264-2.346,9.077-7.036,11.44l9.077,19.712h-9.993l-7.349-17.886h-6.022v17.886h-9.238
			V612.348z M804.383,619.008v12.783h5.21c4.654,0,6.982-2.256,6.982-6.768c0-4.01-2.31-6.016-6.929-6.016H804.383z"/>
	</g>
</g>
<g id="Layer_3">
	<path fill="#F99949" d="M480.334,906.001c4.667,0,22.333-23.667,22.333-31.668s-8.667-58-8.667-58l33.667-30.833L480,679
		l-47.333,106.5l33.667,31.083c0,0-8.667,49.874-8.667,57.875s17.666,31.605,22.333,31.605"/>
	<path fill="#F99949" d="M480.334,521.667l28-23.667H560c0,0-10.333-18-49-18v-12h26c0,0-12.666-14-20-14h-13l-2.334-24l5.668-5.331
		L498,312.289l-8.334,89.211L480,409.002l-9.667-7.502L462,312.289l-9.333,112.38l5.667,5.331L456,454h-13c-7.333,0-20,14-20,14h26
		v12c-38.667,0-49,18-49,18h51.667l28,23.667"/>
	<path fill="#F99949" d="M480,617l45.5,95H620l35.895-33H550.5l-13-22h142.324L806,541H692c40.192-40.224,105-86.556,105-119.567
		V371.5c47.702-42.767,62.166-45.001,62.166-88.001L859,243c56.5-48,67-65.5,67-106V87L561,418v18c0,0,27,15.333,26,44l-28,31l-32,1
		l-21,21v8h-52v-8l-21-21l-32-1l-28-31c-1-28.667,26-44,26-44v-18L34,87v50c0,40.5,10.5,58,67,106l-0.167,40.499
		c0,43,14.464,45.235,62.167,88.001v49.933c0,33.011,64.808,79.343,105,119.567H154l126.175,116H422.5l-13,22H304.105L340,712h94.5
		L480,617z"/>
	<g>
	</g>
	<g>
	</g>
	<g>
	</g>
	<g>
	</g>
	<g>
	</g>
	<g>
	</g>
	<g>
	</g>
	<g>
	</g>
	<g>
	</g>
	<g>
	</g>
	<g>
	</g>
	<g>
	</g>
	<g>
	</g>
	<g>
	</g>
	<g>
	</g>
</g>
</svg>
