<svg width="2800.45px" height="996.2px" viewBox="0 0 2800.45 996.2" xmlns="http://www.w3.org/2000/svg" xmlns:xlink="http://www.w3.org/1999/xlink">
  <defs/>
  <g>
    <path stroke="none" fill="#787878" d="M2608.8 712.95 L2608.8 713.05 2614 713.25 2619.1 713.75 2624.15 714.6 2629.2 715.8 2634.2 717.35 2639.2 719.25 2644.15 721.45 2649.05 724 2653.95 726.9 2658.8 730.15 2663.65 733.7 2668.45 737.6 2673.25 741.85 2678 746.45 2682.7 751.35 2688.55 758 2688.9 758.6 2689 759.25 2688.85 759.9 2688.45 760.45 2648.55 795.7 2648 796.05 2647.2 796.15 2646.5 795.9 2645.95 795.4 2640.1 787.55 2635.45 782.25 2630.8 777.75 2626.15 774.1 2621.65 771.4 2617.2 769.5 2612.75 768.35 2608.3 767.95 2604.8 768.2 2601.5 768.9 2598.5 770 2595.6 771.6 2593 773.7 2591.15 776 2590 778.75 2589.65 781.6 2589.85 784.15 2590.55 786.75 2591.7 789.3 2593.4 791.9 2597.85 796.9 2605.3 804.1 2615.8 813.5 2652.65 845 2659.9 851.45 2664.25 855.6 2670.85 862.85 2676.7 870.35 2681.75 878.15 2685.75 885.75 2688.9 893.6 2691.2 901.75 2692.55 909.85 2693 918.05 2692.6 926.55 2691.45 934.8 2689.5 942.6 2686.7 950.15 2683.2 957.1 2678.95 963.6 2673.9 969.7 2668.25 975.25 2662.2 980.1 2655.75 984.3 2648.9 987.85 2641.65 990.75 2634.05 993.05 2625.9 994.7 2617.55 995.65 2608.75 995.95 2601.6 995.7 2594.85 995 2588.15 993.85 2581.55 992.2 2575.3 990.1 2569.25 987.55 2563.45 984.55 2557.85 981.1 2552.5 977.2 2547.35 972.8 2542.4 967.95 2537.7 962.65 2533.25 956.9 2529 950.7 2525 944.05 2520.45 935.45 2520.25 934.55 2520.65 933.5 2521.1 933.15 2566.2 905.9 2567.1 905.65 2568.2 906.05 2568.65 906.6 2574.2 916.2 2578.95 923 2583.85 928.75 2588.9 933.4 2593.9 936.9 2596.45 938.25 2599 939.35 2601.65 940.25 2604.3 940.85 2606.95 941.2 2609.75 941.35 2614.8 940.95 2619.45 939.85 2623.85 938 2627.95 935.4 2629.95 933.8 2631.7 932.15 2633.15 930.4 2634.35 928.55 2635.25 926.6 2635.9 924.55 2636.3 922.45 2636.45 920.1 2636.25 917.5 2635.7 914.8 2634.75 912.05 2633.4 909.2 2631.7 906.25 2629.65 903.3 2627.15 900.15 2624.3 896.95 2621.05 893.7 2616.25 889.4 2587.15 865 2574.8 854.15 2565 844.95 2557.8 837.4 2552 830.45 2547.05 823.65 2542.8 816.75 2539.3 809.9 2536.55 802.95 2534.65 796.35 2533.5 789.6 2533.1 782.7 2533.45 775.25 2534.5 768.3 2536.35 761.3 2538.9 754.8 2542.15 748.6 2546.15 742.75 2550.85 737.25 2556.15 732.2 2561.75 727.7 2567.65 723.8 2573.95 720.4 2580.4 717.7 2586.95 715.65 2593.95 714.15 2601.35 713.25 2608.8 712.95 M2005.9 712.95 L2005.95 713 2013.25 713.15 2020.35 713.65 2027.3 714.45 2034.15 715.6 2040.85 717.1 2047.4 718.9 2053.8 721.05 2060.1 723.5 2066.25 726.3 2072.25 729.4 2078.1 732.85 2083.8 736.6 2089.4 740.7 2094.85 745.15 2100.15 749.9 2105.3 755 2110.15 760.25 2114.7 765.65 2118.95 771.2 2122.85 776.85 2126.45 782.65 2129.75 788.6 2132.7 794.65 2135.35 800.85 2137.7 807.2 2139.75 813.7 2141.45 820.3 2142.85 827.05 2143.95 833.95 2144.75 840.95 2145.2 848.1 2145.35 855.35 2145.2 862.6 2144.75 869.75 2143.95 876.75 2142.85 883.6 2141.45 890.3 2139.7 896.9 2137.65 903.35 2135.3 909.65 2132.65 915.8 2129.65 921.8 2126.35 927.7 2122.75 933.45 2118.85 939.05 2114.6 944.5 2110.05 949.8 2105.2 955 2100.1 959.95 2094.85 964.6 2089.45 968.9 2083.9 972.9 2078.2 976.6 2072.35 979.95 2066.4 983 2060.3 985.7 2054.05 988.1 2047.65 990.2 2041.1 991.95 2034.4 993.4 2027.55 994.5 2020.55 995.3 2013.4 995.8 2006.15 995.95 1998.8 995.8 1991.6 995.3 1984.55 994.5 1977.6 993.35 1970.8 991.9 1964.15 990.15 1957.65 988.05 1951.3 985.65 1945.1 982.9 1939.05 979.85 1933.15 976.5 1927.4 972.8 1921.8 968.8 1916.35 964.45 1911.05 959.8 1905.9 954.85 1901 949.65 1896.4 944.3 1892.1 938.8 1888.15 933.15 1884.5 927.35 1881.15 921.4 1878.15 915.35 1875.45 909.15 1873.05 902.8 1871 896.3 1869.25 889.65 1867.8 882.85 1866.7 875.9 1865.9 868.85 1865.45 861.65 1865.3 854.3 1865.6 844.75 1866.45 835.4 1867.9 826.25 1869.95 817.3 1872.55 808.55 1875.75 800 1879.5 791.6 1883.85 783.4 1888.7 775.5 1894 768 1899.8 760.95 1906.05 754.3 1912.75 748.05 1919.9 742.2 1927.5 736.8 1935.55 731.8 1943.8 727.4 1952.2 723.55 1960.75 720.3 1969.45 717.65 1978.35 715.6 1987.4 714.15 1996.6 713.25 2005.9 712.95 M1115.3 712.95 L1115.25 713 1123.95 713.2 1132.35 713.8 1140.55 714.8 1148.6 716.2 1156.45 718 1164.15 720.2 1171.65 722.8 1179 725.75 1186.15 729.1 1193.15 732.85 1199.95 737 1206.6 741.55 1213.05 746.5 1219.35 751.85 1225.45 757.6 1232.55 765 1233 765.9 1232.9 766.9 1232.55 767.45 1194.75 804.9 1194.2 805.25 1193.55 805.4 1192.85 805.25 1192.25 804.85 1186.9 799.35 1182.75 795.45 1178.5 791.8 1174.2 788.45 1169.8 785.35 1165.3 782.55 1160.75 780 1156.1 777.7 1151.35 775.7 1146.55 773.95 1141.65 772.45 1136.65 771.25 1131.6 770.3 1126.45 769.65 1121.2 769.25 1115.9 769.1 1106.9 769.45 1098.25 770.6 1090.05 772.45 1082.1 775.1 1074.55 778.5 1067.35 782.65 1060.5 787.55 1053.95 793.2 1047.9 799.45 1042.65 806.1 1038.2 813.1 1034.55 820.5 1031.75 828.25 1029.75 836.4 1028.55 844.95 1028.15 853.85 1028.55 863.05 1029.8 871.85 1031.85 880.25 1034.75 888.25 1038.5 895.9 1043.05 903.15 1048.45 910 1054.7 916.45 1061.4 922.2 1068.55 927.25 1076 931.5 1083.75 934.95 1092 937.7 1100.55 939.65 1109.5 940.8 1118.7 941.2 1124.75 941.05 1130.55 940.55 1136.1 939.7 1141.5 938.5 1146.65 937 1151.5 935.15 1156.15 932.95 1160.5 930.45 1164.75 927.55 1168.7 924.35 1172.4 920.85 1175.95 916.95 1179.2 912.8 1182.3 908.25 1184.95 903.7 1184.65 903.2 1113.2 903.2 1112.5 903.05 1111.95 902.65 1111.55 902.1 1111.4 901.4 1111.4 850.9 1111.55 850.2 1111.95 849.65 1112.5 849.25 1113.2 849.1 1248.95 849.1 1249.6 849.25 1250.15 849.6 1250.55 850.15 1250.7 850.8 1251.1 863.7 1251.05 872.1 1250.35 880.4 1249 888.95 1247 897.35 1244.35 905.8 1241.1 914.2 1237.2 922.55 1232.65 930.9 1227.8 938.75 1222.6 946.1 1217.1 952.95 1211.25 959.3 1205.1 965.15 1198.75 970.4 1192 975.25 1184.9 979.6 1177.45 983.45 1169.6 986.8 1161.55 989.6 1153.2 991.9 1144.55 993.7 1135.55 994.95 1126.25 995.7 1116.65 995.95 1106.55 995.65 1096.7 994.85 1087.15 993.5 1077.85 991.6 1068.8 989.15 1060.05 986.15 1051.55 982.6 1043.3 978.5 1035.1 973.7 1027.35 968.4 1020.1 962.65 1013.2 956.3 1006.65 949.3 1000.65 941.9 995.1 934 990 925.6 985.5 917.1 981.6 908.45 978.3 899.6 975.6 890.6 973.5 881.45 972 872.1 971.1 862.6 970.8 852.95 970.95 846.35 971.35 839.85 972.05 833.45 973 827.15 974.25 820.95 975.75 814.85 977.55 808.85 979.65 803 982 797.25 984.65 791.6 987.55 786.05 990.75 780.6 994.2 775.25 997.95 770.05 1001.95 764.95 1006.25 759.95 1011.6 754.25 1017.15 748.9 1022.9 743.95 1028.85 739.35 1035 735.15 1041.35 731.3 1047.9 727.8 1054.65 724.7 1061.55 721.95 1068.65 719.55 1075.95 717.55 1083.45 715.9 1091.15 714.6 1099.05 713.7 1107.15 713.15 1115.3 712.95 M2247.25 719.55 L2247 719.45 2300.75 719.45 2301.45 719.6 2302 720 2302.4 720.55 2302.55 721.25 2302.55 893.15 2302.65 901.05 2303.05 907.8 2303.7 913.45 2304.6 917.85 2305.45 920.75 2306.55 923.45 2307.85 925.95 2309.35 928.25 2311.05 930.4 2313 932.35 2315.15 934.1 2317.55 935.7 2321.8 937.9 2326.4 939.45 2331.35 940.35 2336.95 940.7 2343 940.4 2348.5 939.5 2353.5 938 2357.75 935.95 2361.55 933.25 2364.9 929.85 2367.6 925.9 2369.8 921.4 2370.6 919 2371.3 916.05 2372.35 908.5 2372.95 898.9 2373.15 887 2373.15 721.3 2373.3 720.6 2373.7 720.05 2374.25 719.65 2374.95 719.5 2428.7 719.5 2429.4 719.65 2429.95 720.05 2430.35 720.6 2430.5 721.3 2430.5 879.7 2430.35 894.9 2429.9 907.6 2429.15 917.8 2428.1 925.4 2426.85 931.25 2425.25 936.9 2423.3 942.35 2420.95 947.6 2418.25 952.7 2415.2 957.6 2411.8 962.3 2408.05 966.8 2404.75 970.3 2401.3 973.6 2397.7 976.7 2393.95 979.55 2390.05 982.15 2386 984.55 2381.85 986.7 2377.55 988.65 2373.1 990.35 2368.5 991.85 2363.75 993.1 2358.9 994.15 2353.9 994.95 2348.75 995.5 2343.45 995.85 2338 995.95 2331.4 995.75 2324.95 995.2 2318.65 994.25 2312.5 992.95 2306.5 991.25 2300.65 989.2 2294.95 986.8 2289.4 984.05 2283.65 980.6 2278.4 976.95 2273.45 972.9 2268.8 968.4 2264.7 963.7 2261 958.7 2257.8 953.5 2254.95 947.85 2252.7 942.2 2250.75 935.8 2249.15 928.6 2247.85 920.55 2246.8 911.6 2246.05 901.8 2245.6 891.15 2245.45 879.7 2245.45 721.35 2245.6 720.65 2246 720.1 2246.55 719.7 2247.25 719.55 M400.05 719.55 L400.1 719.45 453.35 719.45 453.85 719.55 454.7 720.15 557.35 986.9 557.45 987.75 557.15 988.55 556.5 989.1 555.7 989.3 499.9 989.3 498.9 989 498.25 988.2 478.25 935.6 477.75 935.25 376.25 935.25 375.75 935.6 354.9 988.25 354.25 989.05 353.25 989.35 297.5 989.35 296.7 989.15 296.05 988.6 295.75 987.8 295.85 986.95 398.4 720.65 399.05 719.85 400.05 719.55 M1.5 719.55 L1.45 719.6 62.6 719.6 74.75 719.75 86.15 720.25 96.85 721.05 106.85 722.2 116.15 723.65 124.7 725.45 132.55 727.6 139.65 730.05 148.4 733.9 156.5 738.4 164.5 743.85 171.75 749.85 178.7 756.7 185.25 764.4 191.25 772.75 196.8 781.9 201.15 790.25 204.9 798.95 208.05 808 210.65 817.4 212.65 827.1 214.1 837.15 214.95 847.55 215.25 858.25 215.1 866.1 214.65 873.75 213.9 881.2 212.85 888.45 211.45 895.45 209.75 902.25 207.75 908.85 205.45 915.25 202.85 921.45 199.95 927.45 196.75 933.2 193.25 938.75 189.45 944.1 185.35 949.25 180.95 954.2 176.2 958.95 170.45 963.95 164.45 968.5 158.2 972.55 151.7 976.15 144.9 979.3 137.85 982 130.55 984.25 123.15 986 112.55 987.55 99.2 988.6 82.85 989.25 63.5 989.45 1.5 989.45 0.8 989.3 0.25 988.9 -0.1 988.35 -0.25 987.65 -0.25 721.35 -0.1 720.65 0.25 720.1 0.8 719.7 1.5 719.55 M1609.15 719.55 L1609.1 719.45 1664 719.45 1680.6 719.75 1694.85 720.6 1706.75 722.05 1711.85 723 1716.4 724.1 1723 726.15 1729.35 728.75 1735.3 731.85 1740.85 735.45 1745.95 739.55 1750.65 744.15 1754.9 749.25 1758.75 754.85 1761.6 759.8 1763.95 764.75 1766 770.15 1767.65 775.65 1768.95 781.4 1769.85 787.3 1770.4 793.4 1770.6 799.7 1770.4 806.35 1769.8 812.6 1768.8 818.65 1767.35 824.6 1765.5 830.15 1763.3 835.3 1760.65 840.3 1757.5 845.15 1754.1 849.45 1750.2 853.6 1745.8 857.6 1741.1 861.2 1736.1 864.45 1730.45 867.55 1722.7 871 1722.45 871.65 1784.05 986.9 1784.25 987.75 1784 988.6 1783.35 989.2 1782.5 989.45 1723.8 989.45 1722.9 989.2 1722.25 988.5 1664.85 880.55 1664.7 880.6 1664.7 987.65 1664.55 988.35 1664.15 988.9 1663.6 989.3 1662.9 989.45 1609.15 989.45 1608.45 989.3 1607.9 988.9 1607.5 988.35 1607.35 987.65 1607.35 721.35 1607.5 720.65 1607.9 720.1 1608.45 719.7 1609.15 719.55 M1353.75 719.55 L1353.75 719.45 1500.8 719.45 1501.5 719.6 1502.05 720 1502.45 720.55 1502.6 721.25 1502.6 773.7 1502.45 774.4 1502.05 774.95 1501.5 775.35 1500.8 775.5 1409.5 775.5 1409.05 775.95 1409.05 815.6 1409.5 816.05 1500.8 816.05 1501.5 816.2 1502.05 816.6 1502.45 817.15 1502.6 817.85 1502.6 869.45 1502.45 870.15 1502.05 870.7 1501.5 871.1 1500.8 871.25 1409.5 871.25 1409.05 871.7 1409.05 932.75 1409.5 933.2 1500.8 933.2 1501.5 933.35 1502.05 933.75 1502.45 934.3 1502.6 935 1502.6 987.65 1502.45 988.35 1502.05 988.9 1501.5 989.3 1500.8 989.45 1353.75 989.45 1353.05 989.3 1352.5 988.9 1352.1 988.35 1351.95 987.65 1351.95 721.35 1352.1 720.65 1352.5 720.1 1353.05 719.7 1353.75 719.55 M652.1 719.55 L702.8 719.55 703.65 719.75 704.3 720.35 810.55 883.35 810.8 883.25 810.8 721.3 810.95 720.6 811.35 720.05 811.9 719.65 812.6 719.5 866.3 719.5 867 719.65 867.55 720.05 867.95 720.6 868.1 721.3 868.1 987.6 867.95 988.3 867.55 988.85 867 989.25 866.3 989.4 815.4 989.4 814.55 989.2 813.9 988.6 707.85 826.1 707.6 826.2 707.6 987.65 707.45 988.35 707.05 988.9 706.5 989.3 705.8 989.45 652.1 989.45 651.4 989.3 650.85 988.9 650.45 988.35 650.3 987.65 650.3 721.35 650.45 720.65 650.85 720.1 651.4 719.7 652.1 719.55 M2005.2 768.9 L2005.15 769.05 1996.3 769.45 1987.85 770.6 1979.8 772.55 1972.15 775.3 1964.9 778.85 1958.1 783.15 1951.7 788.25 1945.7 794.15 1940.3 800.45 1935.65 807.15 1931.7 814.2 1928.45 821.65 1925.95 829.5 1924.15 837.7 1923.05 846.3 1922.7 855.2 1922.8 860.4 1923.15 865.45 1923.75 870.35 1924.55 875.1 1925.6 879.7 1926.9 884.2 1928.4 888.55 1930.15 892.75 1932.15 896.8 1934.35 900.75 1936.8 904.55 1939.5 908.2 1942.4 911.7 1945.55 915.1 1948.95 918.35 1952.55 921.45 1958.55 925.95 1964.7 929.8 1971.05 933.05 1977.6 935.75 1984.4 937.85 1991.35 939.35 1998.6 940.25 2006.05 940.55 2014.65 940.15 2022.9 938.95 2030.8 937 2038.3 934.25 2045.45 930.7 2052.25 926.35 2058.7 921.2 2064.85 915.25 2070.3 908.9 2075 902.2 2079 895.2 2082.25 887.85 2084.8 880.15 2086.6 872.1 2087.7 863.7 2088.05 854.95 2087.7 846.15 2086.6 837.7 2084.75 829.6 2082.2 821.85 2078.9 814.45 2074.85 807.4 2070.1 800.65 2064.6 794.25 2058.45 788.3 2051.95 783.15 2045.05 778.8 2037.8 775.25 2030.2 772.5 2022.25 770.5 2013.95 769.3 2005.2 768.9 M70.3 774.8 L70.35 774.95 57.5 774.95 57.05 775.4 57.05 933 57.5 933.45 76.55 933.45 89.8 933.15 101.3 932.2 106.35 931.5 110.95 930.6 115.05 929.55 118.8 928.3 123.3 926.35 127.6 924 131.7 921.2 135.5 918 139.05 914.4 142.35 910.4 145.45 905.9 148.25 901.05 150.45 896.45 152.35 891.7 153.95 886.6 155.3 881.2 156.35 875.55 157.1 869.65 157.55 863.45 157.7 857 157.35 846.9 156.35 837.55 154.65 828.85 152.3 820.8 149.25 813.4 145.5 806.65 143.45 803.6 141.15 800.65 138.7 797.85 136.05 795.2 133.25 792.7 130.2 790.35 123.8 786.25 116.6 782.7 108.75 779.85 100.2 777.65 90.95 776.05 81.1 775.1 70.3 774.8 M426.8 803.2 L426.75 803.2 397.45 878.95 397.8 879.45 456 879.45 456.35 878.95 427.2 803.2 426.8 803.2 M1674.7 775.5 L1674.75 775.55 1665.15 775.55 1664.7 776 1664.7 821.7 1665.15 822.15 1676.65 822.15 1685.4 821.95 1692.9 821.25 1698.95 820.1 1703.6 818.55 1706.25 817.1 1708.55 815.4 1710.55 813.3 1712.1 811 1713.3 808.4 1714.15 805.55 1714.65 802.4 1714.85 798.75 1714.65 794.95 1714 791.45 1712.9 788.35 1711.45 785.7 1709.5 783.3 1707.1 781.2 1704.2 779.4 1700.8 777.9 1696.65 776.85 1691 776.1 1683.65 775.65 1674.7 775.5 M2049.55 22.25 L2049.8 22.25 2050.75 22.55 2051.3 23.2 2051.5 24 2051.5 176.15 2051.3 176.95 2050.75 177.6 2049.75 177.9 2049.1 177.8 2001.25 158.9 1882.75 158.9 1869.35 166.55 1869.05 167.05 1869.05 555.85 1887.65 603.45 1887.75 604.3 1887.45 605.1 1886.8 605.65 1886 605.85 1705.8 605.85 1705 605.65 1704.35 605.1 1704.05 604.3 1704.15 603.45 1723.05 556.6 1723.05 165.6 1722.75 165.1 1712.5 160.45 1583.5 160.45 1537 178.9 1536.35 179 1535.35 178.7 1534.8 178.05 1534.6 177.25 1534.6 25.15 1534.8 24.35 1535.35 23.7 1535.8 23.5 1536.95 23.55 1582.95 42.15 2001.05 42.15 2048.9 22.4 2049.55 22.25 M1250.8 24.55 L1250.8 24.5 1427.6 24.5 1428.4 24.7 1429.05 25.25 1429.35 26.05 1429.25 26.9 1410 76.7 1410 554.65 1428.45 603.45 1428.55 604.3 1428.25 605.1 1427.6 605.65 1426.8 605.85 1250.5 605.85 1249.7 605.65 1249.05 605.1 1248.75 604.3 1248.85 603.45 1267.8 554.7 1267.8 75.45 1249.15 26.95 1249.05 26.1 1249.35 25.3 1250 24.75 1250.8 24.55 M634.9 22.3 L634.95 22.4 815.65 22.4 816.45 22.6 817.1 23.15 817.4 23.95 817.3 24.8 798 72.1 798 469 798.45 469.45 1095 469.45 1142.55 450.1 1143.7 450.05 1144.15 450.25 1144.7 450.9 1144.9 451.7 1144.9 603.4 1144.7 604.2 1144.15 604.85 1143.2 605.15 1142.55 605 1094.9 585.3 633.8 585.3 633 585.1 632.35 584.55 632.05 583.75 632.15 582.9 651.55 534.85 651.55 72.2 633.25 24.7 633.15 23.85 633.45 23.05 634.1 22.5 634.9 22.3 M517.8 4.65 L517.85 4.65 518.85 4.95 519.4 5.6 519.6 6.4 519.6 156.9 519.4 157.7 518.85 158.35 517.85 158.65 517.2 158.55 470.9 140.35 171 140.35 170.55 140.8 170.55 247.6 171 248.05 470.05 248.05 517.2 229.9 518.35 229.85 518.85 230.1 519.4 230.75 519.6 231.55 519.6 381.95 519.4 382.75 518.85 383.4 518.35 383.65 517.2 383.6 469.05 365.05 169.5 365.05 169.05 365.5 169.05 469.8 169.5 470.25 469.75 470.25 517.25 451.2 518.4 451.15 518.85 451.4 519.4 452.05 519.6 452.85 519.6 603.4 519.4 604.2 518.85 604.85 518.4 605.1 517.25 605.05 469.85 586.45 7.35 586.45 6.55 586.25 5.9 585.7 5.6 584.9 5.7 584.05 24.9 536.4 24.9 73.9 6.4 25.85 6.3 25 6.6 24.2 7.25 23.65 8.05 23.45 469.4 23.45 517.15 4.75 517.8 4.65 M2668.35 4.65 L2668.4 4.65 2669.4 4.95 2669.95 5.6 2670.15 6.4 2670.15 156.9 2669.95 157.7 2669.4 158.35 2668.4 158.65 2667.75 158.55 2621.45 140.35 2321.55 140.35 2321.05 140.8 2321.05 247.6 2321.55 248.05 2620.6 248.05 2667.75 229.9 2668.9 229.85 2669.35 230.1 2669.9 230.75 2670.1 231.55 2670.1 381.95 2669.9 382.75 2669.35 383.4 2668.9 383.65 2667.75 383.6 2619.6 365.05 2320.05 365.05 2319.55 365.5 2319.55 469.8 2320.05 470.25 2620.25 470.25 2667.75 451.2 2668.9 451.15 2669.35 451.4 2669.9 452.05 2670.1 452.85 2670.1 603.4 2669.9 604.2 2669.35 604.85 2668.9 605.1 2667.75 605.05 2620.4 586.45 2157.9 586.45 2157.1 586.25 2156.45 585.7 2156.15 584.9 2156.25 584.05 2175.45 536.4 2175.45 73.9 2156.95 25.85 2156.85 25 2157.15 24.2 2157.8 23.65 2158.6 23.45 2619.95 23.45 2667.7 4.75 2668.35 4.65 M2757.7 -0.25 L2757.65 -0.2 2761.9 0 2766.1 0.65 2770.2 1.7 2774.1 3.1 2777.8 4.9 2781.3 7 2784.6 9.45 2787.65 12.2 2790.4 15.2 2792.85 18.45 2795.05 22.1 2796.85 25.8 2798.3 29.7 2799.35 33.8 2800 38 2800.2 42.15 2800 46.5 2799.35 50.7 2798.3 54.8 2796.85 58.7 2795.05 62.4 2792.9 65.9 2790.45 69.2 2787.7 72.25 2784.7 75 2781.45 77.45 2777.95 79.6 2774.1 81.45 2770.35 82.8 2766.3 83.85 2762.1 84.5 2757.65 84.75 2753.4 84.55 2749.2 83.9 2745.15 82.85 2741.25 81.45 2737.55 79.65 2734.05 77.5 2730.75 75.05 2727.7 72.3 2724.95 69.3 2722.5 66.05 2720.3 62.4 2718.5 58.7 2717.05 54.8 2716 50.7 2715.35 46.5 2715.15 42.35 2715.35 38 2716 33.8 2717.05 29.7 2718.5 25.8 2720.3 22.1 2722.45 18.6 2724.9 15.3 2727.65 12.25 2730.8 9.4 2734.1 6.95 2737.6 4.85 2741.3 3.05 2745.2 1.65 2749.25 0.6 2753.45 -0.05 2757.7 -0.25 M2757.7 6.9 L2757.75 6.85 2754.15 7.05 2750.65 7.6 2747.25 8.45 2744 9.65 2740.9 11.15 2738 12.9 2735.3 14.95 2732.8 17.25 2730.5 19.75 2728.45 22.45 2726.65 25.35 2725.15 28.45 2723.95 31.7 2723.1 35.1 2722.55 38.6 2722.35 42.2 2722.55 45.8 2723.1 49.3 2723.95 52.7 2725.15 55.95 2726.65 59.05 2728.4 61.95 2730.45 64.65 2732.75 67.15 2735.25 69.45 2737.95 71.5 2740.85 73.3 2743.95 74.8 2747.2 76 2750.6 76.85 2754.1 77.4 2757.7 77.6 2761.3 77.4 2764.8 76.85 2768.2 76 2771.45 74.8 2774.55 73.3 2777.45 71.55 2780.2 69.5 2782.7 67.2 2785 64.7 2787.05 62 2788.85 59.1 2790.35 56 2791.55 52.75 2792.4 49.35 2792.95 45.85 2793.15 42.25 2792.95 38.65 2792.4 35.15 2791.55 31.75 2790.35 28.5 2788.85 25.4 2787.1 22.5 2785.05 19.8 2782.75 17.3 2780.25 15 2777.5 12.95 2774.6 11.2 2771.5 9.7 2768.25 8.5 2764.85 7.65 2761.35 7.1 2757.7 6.9 M2744.7 20.1 L2744.8 20.15 2759.35 20.15 2763.6 20.5 2766.65 21.3 2769.4 22.7 2771.8 25.05 2773.05 27.1 2773.85 29.1 2774.4 31.55 2774.6 34.4 2774.5 36.5 2774.15 38.6 2773.5 40.75 2772.8 42.2 2771.75 43.7 2770.25 45.2 2767.8 46.7 2767.65 47.35 2768.5 48.55 2769.6 50.6 2775.6 64.1 2775.75 64.95 2775.45 65.75 2774.8 66.35 2773.95 66.55 2768.1 66.55 2767.15 66.25 2766.5 65.5 2760.4 51.55 2759.5 50 2758.4 48.95 2757.2 48.5 2755.5 48.35 2752.5 48.35 2752.05 48.8 2752.05 64.75 2751.9 65.45 2751.5 66 2750.95 66.35 2750.25 66.5 2744.7 66.5 2744 66.35 2743.45 66 2743.05 65.45 2742.9 64.75 2742.9 21.85 2743.05 21.15 2743.45 20.6 2744 20.25 2744.7 20.1 M2758.2 27.25 L2758.25 27.25 2752.55 27.25 2752.1 27.7 2752.1 40.75 2752.55 41.25 2758.3 41.25 2759.95 41.15 2761.4 40.8 2762.65 40.2 2763.65 39.35 2764.45 38.3 2765 37.1 2765.35 35.65 2765.45 34.2 2765.35 32.85 2765 31.4 2764.45 30.2 2763.75 29.25 2762.75 28.4 2761.5 27.75 2759.9 27.35 2758.2 27.25"/>
  </g>
</svg>