<svg width="2800.1px" height="150.55px" viewBox="0 0 2800.1 150.55" xmlns="http://www.w3.org/2000/svg" xmlns:xlink="http://www.w3.org/1999/xlink">
  <defs/>
  <g>
    <path stroke="none" fill="#000000" d="M2798.05 115.25 L2798.15 115.25 2798.9 115.45 2799.5 115.95 2799.85 116.65 2799.85 117.45 2798.65 121.35 2797.5 124.15 2796.05 127 2794.45 129.65 2792.7 132.15 2790.6 134.7 2788.4 137.05 2785.2 139.95 2781.75 142.55 2777.95 144.85 2774.15 146.65 2770.2 148.05 2766.05 149.05 2761.9 149.65 2757.3 149.85 2559.65 149.85 2559 149.7 2558.45 149.3 2558.05 148.75 2557.9 148.1 2557.9 138.45 2558.05 137.75 2558.4 137.2 2558.95 136.8 2559.65 136.65 2617.45 136.45 2617.9 135.95 2617.85 126.15 2618 125.5 2618.4 124.95 2618.95 124.55 2619.6 124.4 2757.3 124.4 2761.05 124.05 2764.45 123 2767.6 121.3 2770.45 118.9 2773.25 115.55 2774.1 115.35 2798.05 115.25 M982.8 -0.25 L982.55 -0.55 1105.7 -0.55 1106.4 -0.4 1106.95 -0.05 1107.35 0.5 1107.5 1.2 1107.55 11.7 1108.05 12.15 1177.8 11.95 1178.55 12.1 1179.15 12.55 1181 14.75 1182.9 17.45 1184.6 20.4 1186 23.45 1187.1 26.65 1187.9 29.95 1188.35 33.4 1188.45 35.45 1188.35 36.15 1188 36.75 1187.4 37.15 1186.7 37.3 1164.65 37.3 1164 37.2 1163.45 36.85 1163.05 36.35 1162.75 34.6 1162.05 32.35 1160.9 30.3 1159.35 28.45 1157.45 26.9 1155.4 25.8 1153.15 25.15 1150.8 24.95 982.7 24.95 979 25.3 975.6 26.3 972.4 28.05 969.6 30.4 967.2 33.25 965.5 36.35 964.5 39.6 964.15 43.3 964.15 105.6 964.5 109.3 965.5 112.7 967.2 115.8 969.65 118.7 972.5 121.1 975.6 122.8 978.85 123.8 982.6 124.15 1144.45 124.15 1148.25 123.8 1151.65 122.75 1154.8 121.05 1157.6 118.75 1159.95 115.95 1161.7 112.75 1162.7 109.35 1163.05 105.75 1163.05 87.8 1162.6 87.35 1090.15 87.35 1089.45 87.2 1088.9 86.85 1088.5 86.3 1088.35 85.6 1088.35 63.65 1088.5 62.95 1088.9 62.4 1089.45 62.05 1090.15 61.9 1186.8 61.9 1187.5 62.05 1188.05 62.4 1188.45 62.95 1188.6 63.65 1188.6 105.9 1188.4 110.15 1187.8 114.4 1186.75 118.7 1185.4 122.5 1183.6 126.3 1181.4 129.95 1178.7 133.55 1175.65 136.85 1172.35 139.85 1169.05 142.35 1165.45 144.55 1161.65 146.35 1157.5 147.8 1153.35 148.8 1149.05 149.4 1144.6 149.6 982.65 149.6 978.2 149.4 974.1 148.8 970 147.8 965.9 146.35 962.1 144.55 958.6 142.45 955 139.75 951.7 136.75 948.7 133.45 946.1 129.95 943.9 126.3 942.1 122.5 940.7 118.55 939.7 114.45 939.1 110.2 938.9 105.8 938.9 43.4 939.1 39.15 939.7 34.9 940.7 30.8 942.1 26.85 944 22.9 946.2 19.3 948.8 15.85 951.8 12.6 955.1 9.6 958.45 7.1 962.1 4.85 965.9 3 969.85 1.6 974.15 0.55 978.4 -0.05 982.8 -0.25 M2247.25 -0.25 L2247.4 -0.1 2451.45 -0.1 2455.75 0.1 2460.05 0.7 2464.15 1.7 2468.3 3.15 2472.1 5 2475.7 7.25 2479.15 9.9 2482.4 12.9 2485.3 16.05 2487.95 19.5 2490.25 23.25 2492.05 27.05 2493.45 31 2494.45 35.1 2495.05 39.35 2495.25 43.65 2495.15 46.95 2494.85 50 2494.3 53 2493.55 55.95 2492.65 58.75 2491.5 61.6 2490.15 64.35 2488.6 67 2486.9 69.55 2483.1 74.1 2478.75 78.05 2476.4 79.8 2472.1 82.4 2472 83.05 2476.95 88.1 2479.55 91.2 2484.05 97.45 2486 100.7 2487.75 104 2489.35 107.4 2490.75 110.85 2491.95 114.4 2492.95 118.05 2494.45 125.55 2494.9 129.4 2495.25 137.3 2495.25 148.2 2495.1 148.9 2494.7 149.45 2494.15 149.85 2493.45 150 2471.5 150 2470.8 149.85 2470.25 149.45 2469.85 148.9 2469.7 148.2 2469.7 137.35 2469.45 132.25 2468.75 127.4 2467.6 122.75 2466.05 118.35 2464 114 2461.5 109.9 2458.55 106 2455.15 102.25 2451.45 98.85 2447.55 95.9 2443.45 93.4 2439.15 91.35 2434.7 89.75 2430.05 88.6 2425.2 87.9 2420.2 87.65 2271.4 87.65 2270.9 88.1 2270.9 148.15 2270.75 148.85 2270.35 149.4 2269.8 149.8 2269.1 149.95 2247.25 149.95 2246.55 149.8 2246 149.4 2245.6 148.85 2245.45 148.15 2245.45 63.9 2245.6 63.2 2245.95 62.65 2246.5 62.25 2247.2 62.1 2270.45 62.05 2271.05 62.15 2451.15 62.15 2454.8 61.8 2458.2 60.8 2461.35 59.15 2464.2 56.8 2466.55 53.95 2468.25 50.8 2469.25 47.4 2469.6 43.7 2469.3 40.05 2468.25 36.55 2466.55 33.45 2464.2 30.6 2461.35 28.25 2458.2 26.6 2454.8 25.6 2451.2 25.25 2271.3 25.25 2270.8 25.7 2270.8 40.9 2270.65 41.6 2270.3 42.15 2269.75 42.5 2269.05 42.65 2247.2 42.7 2246.55 42.55 2246 42.15 2245.6 41.6 2245.45 40.95 2245.45 1.5 2245.6 0.8 2246 0.25 2246.55 -0.1 2247.25 -0.25 M1941.05 -0.25 L1941.05 -0.1 2116 -0.1 2116.7 0.05 2117.25 0.4 2117.65 0.95 2117.8 1.65 2117.85 12.15 2118.35 12.6 2187.25 12.4 2187.9 12.55 2188.45 12.95 2188.85 13.5 2189 14.15 2189 23.6 2188.85 24.3 2188.45 24.85 2187.9 25.2 2187.2 25.35 1965.15 25.35 1964.7 25.8 1964.7 61.65 1965.15 62.1 2187.2 62.1 2187.9 62.25 2188.45 62.6 2188.85 63.15 2189 63.85 2189 85.8 2188.85 86.5 2188.45 87.05 2187.9 87.4 2187.2 87.55 1965.15 87.55 1964.7 88 1964.7 123.95 1965.15 124.4 2187.2 124.4 2187.9 124.55 2188.45 124.9 2188.85 125.45 2189 126.15 2189 148 2188.85 148.7 2188.45 149.25 2187.9 149.65 2187.2 149.8 1941.05 149.8 1940.35 149.65 1939.8 149.25 1939.45 148.7 1939.3 148 1939.3 1.5 1939.45 0.8 1939.8 0.25 1940.35 -0.1 1941.05 -0.25 M1741.1 62 L1741.2 62.15 1881.15 62.15 1881.85 62.3 1882.4 62.65 1882.75 63.2 1882.9 63.9 1882.9 85.85 1882.75 86.55 1882.4 87.1 1881.85 87.45 1881.15 87.6 1659.1 87.6 1658.65 88.05 1658.65 124 1659.1 124.45 1881.15 124.45 1881.85 124.6 1882.4 124.95 1882.75 125.5 1882.9 126.2 1882.9 148.05 1882.75 148.75 1882.4 149.3 1881.85 149.7 1881.15 149.85 1635 149.85 1634.3 149.7 1633.75 149.3 1633.35 148.75 1633.2 148.05 1633.2 76.1 1633.35 75.4 1633.7 74.85 1634.25 74.45 1634.95 74.3 1738.95 73.95 1739.4 73.45 1739.35 63.75 1739.5 63.1 1739.9 62.55 1740.45 62.15 1741.1 62 M1328.75 -0.25 L1328.55 -0.25 1361.5 -0.25 1362.45 0.05 1550.5 125.4 1551 125.15 1551 1.5 1551.15 0.8 1551.55 0.25 1552.1 -0.1 1552.8 -0.25 1574.75 -0.25 1575.45 -0.1 1576 0.25 1576.4 0.8 1576.55 1.5 1576.55 44.25 1576.4 44.95 1576.05 45.5 1575.5 45.9 1574.8 46.05 1564.8 46.1 1564.35 46.6 1564.45 74.1 1564.95 74.55 1574.85 74.5 1575.55 74.65 1576.1 75 1576.5 75.55 1576.65 76.25 1576.65 148 1576.5 148.7 1576.1 149.25 1575.55 149.65 1574.85 149.8 1541.9 149.8 1540.95 149.5 1363.2 31.05 1327.75 7.6 1327.15 6.95 1326.95 6.1 1326.95 1.5 1327.1 0.8 1327.5 0.25 1328.05 -0.1 1328.75 -0.25 M1328.75 31.65 L1328.8 31.6 1329.75 31.9 1351.6 46.35 1352.2 47 1352.4 47.85 1352.4 148 1352.25 148.7 1351.85 149.25 1351.3 149.65 1350.6 149.8 1328.75 149.8 1328.05 149.65 1327.5 149.25 1327.1 148.7 1326.95 148 1326.95 33.4 1327.2 32.5 1327.9 31.85 1328.75 31.65 M1246.9 -0.25 L1246.95 -0.2 1268.8 -0.2 1269.5 -0.05 1270.05 0.3 1270.45 0.85 1270.6 1.55 1270.6 148.05 1270.45 148.75 1270.05 149.3 1269.5 149.7 1268.8 149.85 1246.95 149.85 1246.25 149.7 1245.7 149.3 1245.3 148.75 1245.15 148.05 1245.15 80 1245.3 79.3 1245.65 78.75 1246.2 78.35 1246.9 78.2 1257.15 78.15 1257.6 77.65 1257.5 49.8 1257 49.35 1246.85 49.4 1246.2 49.25 1245.65 48.85 1245.25 48.3 1245.1 47.65 1245.1 1.5 1245.25 0.8 1245.65 0.25 1246.2 -0.1 1246.9 -0.25 M634.55 -0.25 L634.45 -0.25 667.4 -0.25 668.35 0.05 856.4 125.4 856.9 125.15 856.9 1.5 857.05 0.8 857.45 0.25 858 -0.1 858.7 -0.25 880.65 -0.25 881.35 -0.1 881.9 0.25 882.3 0.8 882.45 1.5 882.45 148 882.3 148.7 881.9 149.25 881.35 149.65 880.65 149.8 847.7 149.8 846.75 149.5 658.2 23.85 657.65 23.6 633.55 7.65 632.95 7 632.75 6.15 632.75 1.5 632.9 0.8 633.3 0.25 633.85 -0.1 634.55 -0.25 M634.55 31.7 L634.65 31.7 635.6 32 657.45 46.45 658.05 47.1 658.25 47.95 658.25 148 658.1 148.7 657.7 149.25 657.15 149.65 656.45 149.8 634.6 149.8 633.9 149.65 633.35 149.25 632.95 148.7 632.8 148 632.8 138.2 632.95 137.5 633.3 136.95 633.85 136.55 634.55 136.4 644.45 136.35 644.9 135.85 644.8 108 644.3 107.55 634.5 107.6 633.85 107.45 633.3 107.05 632.9 106.5 632.75 105.85 632.75 33.45 633 32.55 633.7 31.9 634.55 31.7 M351.65 61.9 L351.6 62 352.25 62.1 574.5 62.1 575.2 62.25 575.75 62.6 576.15 63.15 576.3 63.85 576.3 85.8 576.15 86.5 575.75 87.05 575.2 87.4 574.5 87.55 352.45 87.55 352 88 352 123.95 352.45 124.4 468.25 124.4 468.95 124.55 469.5 124.9 469.9 125.45 470.05 126.15 470.1 136.5 470.6 136.95 574.6 136.6 575.3 136.75 575.85 137.1 576.25 137.65 576.4 138.35 576.4 148 576.25 148.7 575.85 149.25 575.3 149.65 574.6 149.8 328.45 149.8 327.75 149.65 327.2 149.25 326.8 148.7 326.65 148 326.65 63.75 326.8 63.05 327.15 62.5 327.7 62.1 328.4 61.95 351.65 61.9 M172.8 46.45 L172.7 46.35 180.55 46.35 181.55 46.5 182.1 46.75 183.05 47.55 183.65 48.65 183.8 49.35 183.85 99.8 183.7 100.8 183.1 101.9 182.15 102.7 180.95 103.05 172.8 103.1 171.8 102.95 171.25 102.7 170.3 101.9 169.7 100.8 169.55 100.1 169.5 49.65 169.9 48.15 170.7 47.2 171.8 46.6 172.8 46.45 M201.2 69.1 L201.2 69.2 275.85 69.2 276.55 69.35 277.1 69.7 277.5 70.25 277.65 70.95 277.65 78.8 277.5 79.5 277.1 80.05 276.55 80.4 275.85 80.55 201.95 80.55 201.5 81 201.5 89.85 201.95 90.3 275.85 90.3 276.55 90.45 277.1 90.8 277.5 91.35 277.65 92.05 277.65 99.9 277.5 100.6 277.1 101.15 276.55 101.5 275.85 101.65 191.9 101.65 191.2 101.5 190.65 101.15 190.25 100.6 190.1 99.9 190.1 70.95 190.25 70.25 190.6 69.7 191.15 69.3 191.85 69.15 201.2 69.1 M96.7 47.95 L96.7 48.05 104.55 48.05 105.25 48.2 105.8 48.55 106.15 49.1 106.3 49.8 106.3 68.7 106.75 69.15 162.7 69.15 163.4 69.3 163.95 69.65 164.35 70.2 164.5 70.9 164.5 78.75 164.35 79.45 163.95 80 163.4 80.35 162.7 80.5 106.75 80.5 106.3 80.95 106.3 99.85 106.15 100.55 105.8 101.1 105.25 101.45 104.55 101.6 96.7 101.6 96 101.45 95.45 101.1 95.1 100.55 94.95 99.85 94.95 49.7 95.1 49 95.45 48.45 96 48.1 96.7 47.95 M1.5 47.95 L1.45 47.95 47.35 47.95 48.05 48.1 48.6 48.45 48.95 49 49.1 49.7 49.1 59.05 49.1 99.8 48.95 100.5 48.6 101.05 48.05 101.4 47.35 101.55 39.5 101.55 38.8 101.4 38.25 101.05 37.9 100.5 37.75 99.8 37.75 59.75 37.3 59.3 1.5 59.3 0.8 59.15 0.25 58.8 -0.1 58.25 -0.25 57.55 -0.25 49.7 -0.1 49 0.25 48.45 0.8 48.1 1.5 47.95 M2595.45 -0.25 L2595.55 -0.2 2793.35 -0.2 2794.05 -0.05 2794.6 0.3 2795 0.85 2795.15 1.55 2795.15 23.5 2795 24.2 2794.6 24.75 2794.05 25.1 2793.35 25.25 2595.55 25.25 2591.9 25.6 2588.5 26.6 2585.4 28.25 2582.55 30.6 2580.15 33.45 2578.45 36.55 2577.4 40.05 2577.05 43.7 2577.4 47.25 2578.4 50.65 2580.15 53.9 2582.55 56.75 2585.4 59.1 2588.5 60.75 2591.9 61.75 2595.5 62.1 2757.5 62.1 2761.95 62.3 2766.25 62.9 2770.2 63.85 2774.15 65.25 2778.1 67.15 2781.55 69.3 2785 71.9 2788.45 75.05 2790.6 77.35 2792.55 79.75 2794.3 82.2 2795.85 84.7 2797.2 87.35 2798.35 90.05 2799.3 92.75 2799.6 93.8 2799.65 94.6 2799.3 95.3 2798.7 95.8 2797.95 96 2773.95 96.1 2773.15 95.9 2772.55 95.35 2770.55 92.9 2767.7 90.55 2764.55 88.85 2761.15 87.85 2757.4 87.5 2595.4 87.5 2590.95 87.3 2586.65 86.7 2582.55 85.7 2578.6 84.3 2574.8 82.45 2571.3 80.3 2567.7 77.6 2564.4 74.55 2561.4 71.25 2558.8 67.8 2556.6 64.15 2554.85 60.5 2553.45 56.55 2552.4 52.25 2551.8 47.95 2551.6 43.5 2551.8 39.05 2552.4 34.8 2553.35 30.85 2554.75 26.9 2556.55 23.1 2558.75 19.5 2561.45 15.9 2564.45 12.65 2567.75 9.6 2571.1 7.1 2574.75 4.85 2578.55 3 2582.5 1.6 2586.8 0.55 2591.05 -0.05 2595.45 -0.25 M191.9 47.95 L191.85 48 275.8 48 276.5 48.15 277.05 48.5 277.45 49.05 277.6 49.75 277.6 57.6 277.45 58.3 277.05 58.85 276.5 59.2 275.8 59.35 201.9 59.35 201.45 59.8 201.3 61.45 200.95 62 200.4 62.35 199.7 62.5 191.85 62.55 191.2 62.4 190.65 62 190.25 61.45 190.1 60.8 190.1 49.7 190.25 49 190.65 48.45 191.2 48.1 191.9 47.95 M57.5 46.45 L57.45 46.4 85.4 46.4 86.4 46.55 86.95 46.8 87.9 47.6 88.5 48.7 88.65 49.4 88.7 57.55 88.55 58.55 88.3 59.1 87.5 60.05 86.4 60.65 85.4 60.8 57.45 60.8 56.45 60.65 55.9 60.4 54.95 59.6 54.35 58.5 54.2 57.5 54.2 49.65 54.6 48.15 55.4 47.2 56.5 46.6 57.5 46.45 M1634.9 -0.25 L1634.8 -0.2 1880.95 -0.2 1881.65 -0.05 1882.2 0.3 1882.55 0.85 1882.7 1.55 1882.7 23.5 1882.55 24.2 1882.2 24.75 1881.65 25.1 1880.95 25.25 1658.9 25.25 1658.45 25.7 1658.45 44 1658.3 44.7 1657.95 45.25 1657.4 45.6 1656.7 45.75 1634.85 45.8 1634.2 45.65 1633.65 45.25 1633.25 44.7 1633.1 44.05 1633.1 1.5 1633.25 0.8 1633.65 0.25 1634.2 -0.1 1634.9 -0.25 M328.4 -0.25 L328.3 -0.2 574.45 -0.2 575.15 -0.05 575.7 0.3 576.1 0.85 576.25 1.55 576.25 23.5 576.1 24.2 575.7 24.75 575.15 25.1 574.45 25.25 352.4 25.25 351.95 25.7 351.95 40.9 351.8 41.6 351.45 42.15 350.9 42.5 350.2 42.65 328.35 42.7 327.7 42.55 327.15 42.15 326.75 41.6 326.6 40.95 326.6 1.5 326.75 0.8 327.15 0.25 327.7 -0.1 328.4 -0.25"/>
  </g>
</svg>