<?xml version="1.0" encoding="utf-8"?>
<!-- Generator: Adobe Illustrator 16.0.0, SVG Export Plug-In . SVG Version: 6.00 Build 0)  -->
<!DOCTYPE svg PUBLIC "-//W3C//DTD SVG 1.1//EN" "http://www.w3.org/Graphics/SVG/1.1/DTD/svg11.dtd">
<svg version="1.1" xmlns="http://www.w3.org/2000/svg" xmlns:xlink="http://www.w3.org/1999/xlink" x="0px" y="0px"
	 width="827.721px" height="721.5px" viewBox="0 0 827.721 721.5" enable-background="new 0 0 827.721 721.5" xml:space="preserve">
<g id="Layer_2">
	<g>
		<polygon fill="#FF7100" points="189.656,83.5 166.185,45.262 0,316.231 46.921,316.235 		"/>
		<polygon fill="#FF7100" points="247.811,2.078 272.367,42.081 554.445,42.1 578.973,2.102 		"/>
		<polygon fill="#FF7100" points="637.621,82.756 780.801,316.286 827.721,316.288 661.083,44.495 		"/>
		<polygon fill="#FF7100" points="46.303,408.393 -0.619,408.392 164.598,677.869 188.061,639.607 		"/>
		<polygon fill="#FF7100" points="582.581,723.602 558.027,683.6 269.201,683.58 244.673,723.578 		"/>
		<polygon fill="#FF7100" points="639.396,639.996 662.869,678.233 828.326,408.449 781.406,408.445 		"/>
	</g>
</g>
<g id="Layer_3">
	<polygon fill="#FF7100" points="305.878,483.814 537.143,371.866 544.426,237.686 353.592,322.151 	"/>
</g>
</svg>
