<?xml version="1.0" encoding="utf-8"?>
<!-- Generator: Adobe Illustrator 16.0.0, SVG Export Plug-In . SVG Version: 6.00 Build 0)  -->
<!DOCTYPE svg PUBLIC "-//W3C//DTD SVG 1.1//EN" "http://www.w3.org/Graphics/SVG/1.1/DTD/svg11.dtd">
<svg version="1.1" id="Layer_2" xmlns="http://www.w3.org/2000/svg" xmlns:xlink="http://www.w3.org/1999/xlink" x="0px" y="0px"
	 width="721.127px" height="588.005px" viewBox="0 0 721.127 588.005" enable-background="new 0 0 721.127 588.005"
	 xml:space="preserve">
<polygon fill="#FF7100" points="278.98,294.23 415.5,157.01 387.241,59.797 272.614,167.405 "/>
<polygon fill="#FF7100" points="360.79,375.586 223.571,239.066 126.358,267.325 233.966,381.951 "/>
<polygon fill="#FF7100" points="442.147,293.776 305.626,430.996 333.885,528.208 448.512,420.6 "/>
<polygon fill="#FF7100" points="360.336,212.419 497.557,348.939 594.769,320.681 487.161,206.054 "/>
<g>
	<path fill="#FF7100" d="M518.452,40l155.753,254.002L518.452,548.005H202.676L46.921,294.002L202.676,40H518.452 M540.846,0
		H180.282L0,294.002l180.282,294.003h360.563l180.281-294.003L540.846,0L540.846,0z"/>
</g>
</svg>
