<?xml version="1.0" encoding="utf-8"?>
<!-- Generator: Adobe Illustrator 16.0.0, SVG Export Plug-In . SVG Version: 6.00 Build 0)  -->
<!DOCTYPE svg PUBLIC "-//W3C//DTD SVG 1.1//EN" "http://www.w3.org/Graphics/SVG/1.1/DTD/svg11.dtd">
<svg version="1.1" id="Layer_2" xmlns="http://www.w3.org/2000/svg" xmlns:xlink="http://www.w3.org/1999/xlink" x="0px" y="0px"
	 width="739.463px" height="606.576px" viewBox="0 0 739.463 606.576" enable-background="new 0 0 739.463 606.576"
	 xml:space="preserve">
<rect y="546.576" fill="#FFFFFF" width="739.463" height="60"/>
<g>
	<path fill="#FFFFFF" d="M307.89,467v79.576h-193V467H307.89 M367.89,407h-60h-193h-60v60v79.576v60h60h193h60v-60V467V407
		L367.89,407z"/>
</g>
<g>
	<path fill="#FFFFFF" d="M609.89,360v186.576h-242V360H609.89 M669.89,300h-362v306.576h362V300L669.89,300z"/>
</g>
<line fill="none" stroke="#FFFFFF" stroke-width="60" stroke-miterlimit="10" x1="181.89" y1="242" x2="321.89" y2="242"/>
<line fill="none" stroke="#FFFFFF" stroke-width="60" stroke-miterlimit="10" x1="181.89" y1="134" x2="321.89" y2="134"/>
<line fill="none" stroke="#FFFFFF" stroke-width="60" stroke-miterlimit="10" x1="515.89" y1="439" x2="656.89" y2="439"/>
<polygon fill="#FFFFFF" points="228.89,423.289 228.89,60 376.89,60 376.89,304.667 436.89,304.667 436.89,0 168.89,0 
	168.89,423.289 "/>
</svg>
