<?xml version="1.0" encoding="utf-8"?>
<!-- Generator: Adobe Illustrator 16.0.0, SVG Export Plug-In . SVG Version: 6.00 Build 0)  -->
<!DOCTYPE svg PUBLIC "-//W3C//DTD SVG 1.1//EN" "http://www.w3.org/Graphics/SVG/1.1/DTD/svg11.dtd">
<svg version="1.1" id="Layer_1" xmlns="http://www.w3.org/2000/svg" xmlns:xlink="http://www.w3.org/1999/xlink" x="0px" y="0px"
	 width="666px" height="666px" viewBox="0 0 666 666" enable-background="new 0 0 666 666" xml:space="preserve">
<g id="Layer_3">
	<path fill="#034942" d="M666,333c0,183.91-149.09,333-333,333S0,516.91,0,333c0-9.66,0.41-19.23,1.22-28.68
		c-0.14,3.88-0.21,7.77-0.21,11.68c0,173.97,141.02,315,314.99,315c173.97,0,315-141.03,315-315S489.97,1,316,1
		c-3.85,0-7.68,0.07-11.49,0.21C313.9,0.41,323.4,0,333,0C516.91,0,666,149.09,666,333z"/>
</g>
<path fill="#08FADC" d="M337.324,555.416l-44.159-223.514l-46.317-47.472h-77.555L79.98,198.961c0,0,4.647,88.413,10.673,100.454
	c6.025,12.041,15.371,18.295,15.371,18.295l63.269,60.083v25.548l167.805,153.216L337,557.059l0.324-0.297l0.325,0.297l-0.101-0.502
	l167.807-153.216v-25.548l63.27-60.083c0,0,9.346-6.254,15.371-18.295c6.024-12.041,10.673-100.454,10.673-100.454l-89.313,85.468
	H427.8l-46.314,47.472L337.324,555.416L337.324,555.416z M337.649,220.126v0.125l-0.071-0.063l-0.071,0.063v-0.125l-33.252-29.114
	v-26.507l-10.175-9.079l6.04-77.72l19.451,42.418l18.008,13.364l18.008-13.364l19.451-42.418l6.039,77.72l-10.175,9.079v26.507
	L337.649,220.126L337.649,220.126L337.649,220.126z M337.649,244.516v62.925l-44.313-38.11l-2.659-66.47L337.649,244.516
	L337.649,244.516z M337.649,243.63v62.925l44.313-38.11l2.658-66.47L337.649,243.63L337.649,243.63z M336.633,329.599v120.533
	L313.59,329.599H336.633L336.633,329.599z M336.633,329.599v120.533l23.043-120.533H336.633L336.633,329.599z"/>
</svg>
