<?xml version="1.0" encoding="utf-8"?>
<!-- Generator: Adobe Illustrator 16.0.0, SVG Export Plug-In . SVG Version: 6.00 Build 0)  -->
<!DOCTYPE svg PUBLIC "-//W3C//DTD SVG 1.1//EN" "http://www.w3.org/Graphics/SVG/1.1/DTD/svg11.dtd">
<svg version="1.1" id="Layer_2" xmlns="http://www.w3.org/2000/svg" xmlns:xlink="http://www.w3.org/1999/xlink" x="0px" y="0px"
	 width="435.596px" height="435.333px" viewBox="0 0 435.596 435.333" enable-background="new 0 0 435.596 435.333"
	 xml:space="preserve">
<g>
	<path d="M222.905,90.098c11.736,0.432,23.068,2.442,33.787,5.835l44.14-79.63C274.541,5.495,246.733,0,218.132,0
		c-3.165,0-6.318,0.081-9.463,0.214L222.905,90.098z"/>
</g>
<g opacity="0.95">
	<path d="M296.913,117.463c9.241,7.248,17.227,15.535,23.905,24.58l82.515-38.477c-14.917-24.198-34.185-44.988-57.323-61.799
		c-2.561-1.86-5.159-3.649-7.781-5.389L296.913,117.463z"/>
</g>
<g opacity="0.9">
	<path d="M340.702,183.103c3.216,11.295,4.805,22.693,4.892,33.937l89.372,17.372c2.155-28.344-1.213-56.489-10.051-83.69
		c-0.979-3.01-2.029-5.985-3.128-8.933L340.702,183.103z"/>
</g>
<g opacity="0.85">
	<path d="M337.545,261.945c-4.037,11.028-9.452,21.184-15.99,30.33l62.092,66.586c18.404-21.664,32.222-46.413,41.06-73.614
		c0.979-3.01,1.877-6.034,2.721-9.065L337.545,261.945z"/>
</g>
<g opacity="0.8">
	<path d="M288.649,323.874c-9.748,6.55-20.098,11.583-30.763,15.139l11.095,90.366c27.623-6.708,53.35-18.608,76.488-35.42
		c2.561-1.86,5.064-3.779,7.529-5.735L288.649,323.874z"/>
</g>
<g opacity="0.75">
	<path d="M212.691,345.235c-11.736-0.431-23.067-2.442-33.787-5.834l-44.139,79.629c26.29,10.81,54.098,16.304,82.699,16.303
		c3.165,0,6.319-0.08,9.462-0.214L212.691,345.235z"/>
</g>
<g opacity="0.7">
	<path d="M138.684,317.87c-9.242-7.247-17.227-15.535-23.905-24.58l-82.515,38.477c14.916,24.198,34.184,44.988,57.323,61.799
		c2.561,1.861,5.159,3.649,7.781,5.389L138.684,317.87z"/>
</g>
<g opacity="0.65">
	<path d="M94.896,252.23c-3.217-11.295-4.805-22.693-4.892-33.936L0.631,200.921c-2.156,28.345,1.212,56.489,10.051,83.69
		c0.978,3.01,2.029,5.984,3.128,8.933L94.896,252.23z"/>
</g>
<g opacity="0.6">
	<path d="M98.052,173.389c4.036-11.029,9.451-21.184,15.989-30.33L51.949,76.472c-18.405,21.664-32.223,46.413-41.061,73.614
		c-0.979,3.01-1.876,6.035-2.72,9.065L98.052,173.389z"/>
</g>
<g opacity="0.55">
	<path d="M146.948,111.46c9.748-6.55,20.098-11.583,30.763-15.139L166.616,5.955c-27.624,6.708-53.351,18.608-76.488,35.42
		c-2.562,1.86-5.065,3.779-7.529,5.735L146.948,111.46z"/>
</g>
<g>
</g>
<g>
</g>
<g>
</g>
<g>
</g>
<g>
</g>
<g>
</g>
<g>
</g>
<g>
</g>
<g>
</g>
<g>
</g>
<g>
</g>
<g>
</g>
<g>
</g>
<g>
</g>
<g>
</g>
</svg>
