<?xml version="1.0" encoding="utf-8"?>
<!-- Generator: Adobe Illustrator 16.0.0, SVG Export Plug-In . SVG Version: 6.00 Build 0)  -->
<!DOCTYPE svg PUBLIC "-//W3C//DTD SVG 1.1//EN" "http://www.w3.org/Graphics/SVG/1.1/DTD/svg11.dtd">
<svg version="1.1" id="Layer_1" xmlns="http://www.w3.org/2000/svg" xmlns:xlink="http://www.w3.org/1999/xlink" x="0px" y="0px"
	 width="1938.259px" height="1891.731px" viewBox="31.319 53.738 1938.259 1891.731"
	 enable-background="new 31.319 53.738 1938.259 1891.731" xml:space="preserve">
<g>
	<path d="M1466.667,1920.833c-133.334-11.11-180.556-58.333-250-75c-65.278-15.277-101.39-8.333-166.667-16.666
		c-86.111-11.111-159.723-79.167-155.556-151.389c2.778-41.667,19.444-75,58.333-101.39c69.445-47.222,138.89-80.556,212.5-108.333
		c77.778-30.556,134.723-77.777,186.111-138.889c88.889-102.778,172.223-329.167,70.834-472.223
		c-34.723-50-69.445-97.222-130.556-126.389c-94.444-44.444-119.444-29.167-140.278,61.111
		c-23.611,104.166-27.777,208.333-22.222,315.277c4.167,84.723,6.944,180.556-69.444,243.056
		c-33.334,27.778-77.778,43.056-119.445,58.333c-25,9.723-77.777,16.667-102.777,15.278
		c-115.277-9.723-155.556-43.056-226.389-109.723C502.777,1211.111,475,984.723,559.723,845.833
		c76.389-125,166.666-238.889,315.277-290.277c40.277-13.889,63.889-47.223,59.723-91.667
		c-5.556-48.611-56.945-48.611-80.556-47.222c-22.223,1.389-59.723,2.777-88.89,9.722c-90.277,20.834-151.389-34.722-131.944-125
		c20.834-100,108.334-193.055,173.611-215.277C975,27.778,1159.723,50,1395.834,138.889c247.222,91.667,391.666,275,476.389,481.944
		c69.444,175,81.943,380.556,94.444,566.667c12.5,190.278-12.5,380.556-129.167,541.667
		C1744.444,1855.556,1600,1931.944,1466.667,1920.833z"/>
	<path d="M36.111,1111.111C8.333,868.056,104.167,609.723,250,481.944c38.889-33.333,87.5-61.111,136.111-77.778
		c30.556-11.111,87.5-1.389,105.556,16.667c18.056,18.055,16.666,70.833,4.166,100C466.667,584.723,425,644.444,388.889,705.556
		c-80.556,136.111-112.5,284.723-112.5,441.667c0,59.722,5.556,120.833-59.722,158.333c-44.444,26.389-75,12.5-105.555-29.167
		C68.056,1219.444,40.278,1147.223,36.111,1111.111z"/>
	<path d="M711.111,1736.111c0,76.389-50,101.389-140.278,154.167c-27.777,16.666-91.666,44.444-123.61,51.389
		c-83.334,16.666-154.167-22.223-176.39-101.389c-18.055-66.667-36.111-152.778-38.889-220.834
		c-1.389-41.666,1.389-84.722,34.722-113.889c43.056-37.5,66.667-29.167,112.5,5.556c59.722,45.833,181.944,119.444,256.944,141.667
		C681.944,1666.667,711.111,1684.723,711.111,1736.111z"/>
</g>
</svg>
