<?xml version="1.0" encoding="utf-8"?>
<!-- Generator: Adobe Illustrator 16.0.0, SVG Export Plug-In . SVG Version: 6.00 Build 0)  -->
<!DOCTYPE svg PUBLIC "-//W3C//DTD SVG 1.1//EN" "http://www.w3.org/Graphics/SVG/1.1/DTD/svg11.dtd">
<svg version="1.1" id="Layer_2" xmlns="http://www.w3.org/2000/svg" xmlns:xlink="http://www.w3.org/1999/xlink" x="0px" y="0px"
	 width="801px" height="801px" viewBox="0 0 801 801" enable-background="new 0 0 801 801" xml:space="preserve">
<g>
	<path fill="#FFFFFF" d="M400.5,343.914c31.201,0,56.586,25.384,56.586,56.586c0,31.201-25.385,56.586-56.586,56.586
		c-31.202,0-56.586-25.385-56.586-56.586C343.914,369.298,369.298,343.914,400.5,343.914 M400.5,318.914
		c-45.059,0-81.586,36.527-81.586,81.586s36.527,81.586,81.586,81.586s81.586-36.527,81.586-81.586S445.559,318.914,400.5,318.914
		L400.5,318.914z"/>
</g>
<g>
	<path fill="#FFFFFF" d="M400.5,71.914c44.37,0,87.398,8.685,127.893,25.812c39.125,16.549,74.268,40.244,104.452,70.429
		c30.186,30.185,53.881,65.328,70.43,104.453c17.127,40.494,25.812,83.523,25.812,127.893c0,44.37-8.685,87.398-25.812,127.893
		c-16.549,39.125-40.244,74.268-70.43,104.452c-30.185,30.186-65.327,53.881-104.452,70.43
		c-40.494,17.127-83.522,25.812-127.893,25.812c-44.37,0-87.399-8.685-127.893-25.812c-39.125-16.549-74.268-40.244-104.453-70.43
		c-30.185-30.185-53.88-65.327-70.429-104.452C80.599,487.898,71.914,444.87,71.914,400.5c0-44.37,8.685-87.399,25.812-127.893
		c16.549-39.125,40.245-74.268,70.429-104.453c30.185-30.185,65.328-53.88,104.453-70.429
		C313.101,80.599,356.13,71.914,400.5,71.914 M400.5,46.914C205.22,46.914,46.914,205.22,46.914,400.5
		c0,195.279,158.306,353.586,353.586,353.586c195.279,0,353.586-158.307,353.586-353.586
		C754.086,205.22,595.779,46.914,400.5,46.914L400.5,46.914z"/>
</g>
<g>
	<path fill="#FFFFFF" d="M400.5,233.328c44.653,0,86.634,17.389,118.208,48.963c31.575,31.575,48.964,73.555,48.964,118.208
		s-17.389,86.634-48.964,118.208c-31.574,31.575-73.555,48.964-118.208,48.964c-44.653,0-86.633-17.389-118.208-48.964
		c-31.575-31.574-48.964-73.555-48.964-118.208s17.389-86.634,48.964-118.208C313.866,250.717,355.847,233.328,400.5,233.328
		 M400.5,208.328c-106.133,0-192.172,86.039-192.172,192.172c0,106.133,86.039,192.172,192.172,192.172
		c106.134,0,192.172-86.039,192.172-192.172C592.672,294.367,506.634,208.328,400.5,208.328L400.5,208.328z"/>
</g>
<line fill="none" stroke="#FFFFFF" stroke-width="16.0791" x1="400.5" y1="788.5" x2="400.5" y2="467.5"/>
<line fill="none" stroke="#FFFFFF" stroke-width="16.054" x1="468.5" y1="400.5" x2="788.5" y2="400.5"/>
<line fill="none" stroke="#FFFFFF" stroke-width="16.179" x1="400.5" y1="337.5" x2="400.5" y2="12.5"/>
<line fill="none" stroke="#FFFFFF" stroke-width="16.1291" x1="12.5" y1="400.5" x2="335.5" y2="400.5"/>
<g>
	<rect y="364.5" fill="#FFFFFF" width="25" height="72"/>
</g>
<g>
	<rect x="776" y="364.5" fill="#FFFFFF" width="25" height="72"/>
</g>
<g>
	<rect x="364.5" fill="#FFFFFF" width="72" height="25"/>
</g>
<g>
	<rect x="364.5" y="776" fill="#FFFFFF" width="72" height="25"/>
</g>
</svg>
