<?xml version="1.0" encoding="utf-8"?>
<!-- Generator: Adobe Illustrator 16.0.0, SVG Export Plug-In . SVG Version: 6.00 Build 0)  -->
<!DOCTYPE svg PUBLIC "-//W3C//DTD SVG 1.1//EN" "http://www.w3.org/Graphics/SVG/1.1/DTD/svg11.dtd">
<svg version="1.1" xmlns="http://www.w3.org/2000/svg" xmlns:xlink="http://www.w3.org/1999/xlink" x="0px" y="0px"
	 width="772.552px" height="694.155px" viewBox="0 0 772.552 694.155" enable-background="new 0 0 772.552 694.155"
	 xml:space="preserve">
<g id="Layer_4">
	<g>
		<g>
			<path fill="#FFFFFF" d="M372.824,254.796l92.16,92.159l-92.16,92.159v-31.565v-14.492h-14.492H178.732l96.062-93.739h83.538
				h14.492v-14.492V254.796 M358.332,219.809v65.017h-89.437L143.13,407.549h215.202v66.553l127.147-127.146L358.332,219.809
				L358.332,219.809z"/>
		</g>
		<polygon opacity="0.75" fill="#FFFFFF" points="112.695,407.558 102.606,397.118 217.956,284.809 228.045,295.25 		"/>
		<polygon opacity="0.5" fill="#FFFFFF" points="61.393,407.558 51.303,397.118 166.653,284.809 176.742,295.25 		"/>
		<polygon opacity="0.25" fill="#FFFFFF" points="10.089,407.558 0,397.118 115.35,284.809 125.44,295.25 		"/>
		<path fill="#FFFFFF" d="M311.656,287.858"/>
	</g>
</g>
<g id="Layer_3">
	<path opacity="0.5" fill="none" stroke="#FFFFFF" stroke-width="23.2782" d="M349.511,673.192
		c163.307-14.345,291.492-154.872,291.492-326.114c0-172.261-129.716-313.442-294.41-326.358"/>
	<path fill="#FFFFFF" d="M425.475,0C267.821,0,134.723,105.115,92.43,249.082h26.153c2.952-9.238,6.309-18.367,10.114-27.363
		c16.22-38.35,39.447-72.797,69.034-102.384c29.587-29.587,64.034-52.813,102.384-69.034C339.806,33.512,381.983,25,425.475,25
		s85.668,8.512,125.359,25.3c38.35,16.221,72.797,39.447,102.384,69.034c29.587,29.587,52.813,64.034,69.034,102.384
		c16.788,39.691,25.3,81.868,25.3,125.359s-8.512,85.668-25.3,125.359c-16.221,38.35-39.447,72.797-69.034,102.384
		s-64.034,52.813-102.384,69.034c-39.691,16.788-81.868,25.3-125.359,25.3s-85.668-8.512-125.359-25.3
		c-38.35-16.221-72.797-39.447-102.384-69.034c-29.587-29.587-52.814-64.034-69.034-102.384
		c-3.805-8.996-7.162-18.126-10.114-27.363H92.43c42.293,143.967,175.392,249.081,333.045,249.081
		c191.686,0,347.077-155.392,347.077-347.077S617.16,0,425.475,0z"/>
</g>
</svg>
