<?xml version="1.0" encoding="utf-8"?>
<!-- Generator: Adobe Illustrator 16.0.0, SVG Export Plug-In . SVG Version: 6.00 Build 0)  -->
<!DOCTYPE svg PUBLIC "-//W3C//DTD SVG 1.1//EN" "http://www.w3.org/Graphics/SVG/1.1/DTD/svg11.dtd">
<svg version="1.1" xmlns="http://www.w3.org/2000/svg" xmlns:xlink="http://www.w3.org/1999/xlink" x="0px" y="0px"
	 width="777.656px" height="694.155px" viewBox="0 0 777.656 694.155" enable-background="new 0 0 777.656 694.155"
	 xml:space="preserve">
<g id="Layer_4">
	<polygon opacity="0.5" fill="#FFFFFF" points="472.443,345.049 345.163,215.419 345.163,281.706 225.297,281.706 233.177,299.329 
		345.163,299.329 362.787,299.329 362.787,281.706 362.787,258.523 447.744,345.049 362.787,431.575 362.787,406.825 
		362.787,389.201 345.163,389.201 273.361,389.201 281.241,406.825 345.163,406.825 345.163,474.677 	"/>
	<g>
		<polygon opacity="0.5" fill="#FFFFFF" points="472.443,345.049 345.163,215.419 345.163,281.706 225.297,281.706 233.177,299.329 
			345.163,299.329 362.787,299.329 362.787,281.706 362.787,258.523 447.744,345.049 362.787,431.575 362.787,406.825 
			362.787,389.201 345.163,389.201 273.361,389.201 281.241,406.825 345.163,406.825 345.163,474.677 		"/>
		<g>
			<line opacity="0.5" fill="none" stroke="#FFFFFF" stroke-width="14.6861" x1="75.192" y1="304.987" x2="192.681" y2="545.837"/>
			<line opacity="0.5" fill="none" stroke="#FFFFFF" stroke-width="14.6861" x1="148.643" y1="276.479" x2="264.598" y2="515.722"/>
			<path fill="#FFFFFF" d="M198.555,215.108l-20.56-40.534L116.937,164l-73.784,31.109L0,252.705l17.842,55.507L130.45,552.232
				L203.255,557l70.297-39.945l39.647-54.283L198.555,215.108z M52.282,207.275l66.186-28.069l49.728,8.514l13.463,26.542
				l-35.802,55.91l-66.69,26.464l-50.447-4.419l-12.731-36.115L52.282,207.275z M263.804,505.483l-63.552,36.627l-60.19-4.02
				L33.68,307.14l47.975,4.309l74.018-29.373l33.455-52.245l107.064,231.374L263.804,505.483z"/>
			<path opacity="0.5" fill="#FFFFFF" d="M92.685,265.097l-29.139-1.308l-6.428-25.71l17.846-23.818l29.432-12.409l25.912,4.487
				l9.702,19.128l-17.899,27.953L92.685,265.097z M74.766,250.063l15.51,0.697l22.334-8.863l11.046-17.25l-2.811-5.541
				l-14.835-2.541l-22.056,9.354l-11.393,15.327L74.766,250.063z"/>
		</g>
	</g>
</g>
<g id="Layer_3">
	<path opacity="0.5" fill="none" stroke="#FFFFFF" stroke-width="23.2782" d="M354.615,673.192
		c163.307-14.345,291.492-154.872,291.492-326.114c0-172.261-129.716-313.442-294.41-326.358"/>
	<path fill="#FFFFFF" d="M430.579,0C319.691,0,220.952,52.003,157.413,132.951l28.298,4.9c5.45-6.362,11.151-12.543,17.125-18.517
		c29.587-29.587,64.034-52.813,102.384-69.034C344.91,33.512,387.087,25,430.579,25s85.668,8.512,125.359,25.3
		c38.35,16.221,72.797,39.447,102.384,69.034c29.587,29.587,52.813,64.034,69.034,102.384c16.788,39.691,25.3,81.868,25.3,125.359
		s-8.512,85.668-25.3,125.359c-16.221,38.35-39.447,72.797-69.034,102.384s-64.034,52.813-102.384,69.034
		c-39.691,16.788-81.868,25.3-125.359,25.3s-85.668-8.512-125.359-25.3c-31.206-13.199-59.826-31.038-85.347-53.166l-7.857,4.465
		l-25.868-1.694c62.729,62.237,149.084,100.695,244.432,100.695c191.686,0,347.077-155.392,347.077-347.077S622.264,0,430.579,0z"/>
</g>
</svg>
