<?xml version="1.0" encoding="utf-8"?>
<!-- Generator: Adobe Illustrator 16.0.0, SVG Export Plug-In . SVG Version: 6.00 Build 0)  -->
<!DOCTYPE svg PUBLIC "-//W3C//DTD SVG 1.1//EN" "http://www.w3.org/Graphics/SVG/1.1/DTD/svg11.dtd">
<svg version="1.1" xmlns="http://www.w3.org/2000/svg" xmlns:xlink="http://www.w3.org/1999/xlink" x="0px" y="0px"
	 width="829.519px" height="725.29px" viewBox="0 0 829.519 725.29" enable-background="new 0 0 829.519 725.29"
	 xml:space="preserve">
<g id="Layer_2" opacity="0.5">
	<g>
		<path fill="#FFFFFF" d="M272.5,233.999c21.229,0,38.501,17.272,38.501,38.501S293.729,311,272.5,311
			c-21.23,0-38.501-17.271-38.501-38.5S251.27,233.999,272.5,233.999 M272.5,216.989c-30.658,0-55.511,24.853-55.511,55.511
			c0,30.658,24.853,55.51,55.511,55.51s55.511-24.853,55.511-55.51C328.011,241.841,303.158,216.989,272.5,216.989L272.5,216.989z"
			/>
	</g>
	<g>
		<path fill="#FFFFFF" d="M272.5,158.756c30.382,0,58.946,11.832,80.429,33.314c21.483,21.484,33.314,50.047,33.314,80.429
			c0,30.382-11.831,58.946-33.314,80.429c-21.483,21.483-50.047,33.315-80.429,33.315s-58.945-11.832-80.429-33.315
			c-21.483-21.483-33.314-50.046-33.314-80.429c0-30.381,11.831-58.945,33.314-80.429
			C213.554,170.587,242.118,158.756,272.5,158.756 M272.5,141.747c-72.213,0-130.753,58.541-130.753,130.753
			c0,72.213,58.541,130.754,130.753,130.754c72.213,0,130.753-58.541,130.753-130.754
			C403.253,200.287,344.713,141.747,272.5,141.747L272.5,141.747z"/>
	</g>
	<g>
		<rect x="267.03" y="318.086" fill="#FFFFFF" width="10.94" height="218.409"/>
	</g>
	<g>
		<rect x="266.996" y="8.505" fill="#FFFFFF" width="11.008" height="221.13"/>
	</g>
	<g>
		<rect x="8.505" y="267.013" fill="#FFFFFF" width="219.769" height="10.975"/>
	</g>
	<g>
		<rect y="248.006" fill="#FFFFFF" width="17.01" height="48.988"/>
	</g>
	<g>
		<rect x="248.006" fill="#FFFFFF" width="48.988" height="17.01"/>
	</g>
	<g>
		<rect x="248.006" y="527.99" fill="#FFFFFF" width="48.988" height="17.01"/>
	</g>
	<path fill="#FFFFFF" d="M427.605,267.039H318.768v10.923h112.416C429.765,274.381,428.579,270.733,427.605,267.039z"/>
	<path fill="#FFFFFF" d="M487.798,333.012c-2.524,8.989-5.621,17.833-9.29,26.506c-11.26,26.621-27.381,50.532-47.921,71.069
		c-20.537,20.539-44.448,36.661-71.069,47.922c-27.552,11.652-56.828,17.563-87.018,17.563c-30.189,0-59.466-5.91-87.019-17.563
		c-26.621-11.261-50.532-27.383-71.07-47.922c-20.538-20.537-36.66-44.448-47.919-71.069C54.84,331.965,48.931,302.689,48.931,272.5
		s5.909-59.466,17.562-87.019c11.26-26.621,27.382-50.532,47.919-71.07c20.538-20.538,44.449-36.66,71.07-47.919
		C213.034,54.84,242.311,48.93,272.5,48.93s59.466,5.91,87.018,17.563c26.621,11.26,50.532,27.381,71.069,47.92
		c14.375,14.374,26.577,30.405,36.472,47.855c4.761-3.207,9.744-5.933,14.884-8.199C440.615,81.14,362.311,31.92,272.5,31.92
		c-132.868,0-240.58,107.712-240.58,240.58S139.632,513.079,272.5,513.079c110.382,0,203.393-74.343,231.715-175.687
		C498.649,336.421,493.156,334.964,487.798,333.012z"/>
</g>
<g id="Layer_3">
	<g>
		<g>
			<path fill="#FFFFFF" d="M705.772,258.956l10.651,10.652l-100.54,118.663l-28.776-28.775L705.772,258.956 M707.174,225.002
				L550.23,357.973l67.175,67.176l132.973-156.941L707.174,225.002L707.174,225.002z"/>
		</g>
		<g>
			<path fill="#FFFFFF" d="M520.887,170.861c19.098,0,37.053,7.437,50.558,20.942c27.878,27.878,27.878,73.239,0,101.117
				c-13.504,13.504-31.459,20.941-50.558,20.941s-37.055-7.437-50.559-20.941c-27.878-27.878-27.878-73.239,0-101.117
				C483.832,178.298,501.788,170.861,520.887,170.861 M520.887,145.861c-24.697,0-49.394,9.421-68.236,28.264
				c-37.686,37.687-37.686,98.786,0,136.473c18.845,18.845,43.537,28.264,68.236,28.264c24.693,0,49.395-9.423,68.235-28.264
				c37.686-37.687,37.686-98.787,0-136.473C570.279,155.282,545.583,145.861,520.887,145.861L520.887,145.861z"/>
		</g>
		<g>
			<path fill="#FFFFFF" d="M733.018,382.993c19.099,0,37.054,7.438,50.559,20.942s20.942,31.46,20.942,50.558
				s-7.438,37.053-20.942,50.558s-31.46,20.942-50.559,20.942c-19.098,0-37.053-7.438-50.558-20.942
				c-27.878-27.878-27.878-73.237,0-101.116C695.965,390.431,713.92,382.993,733.018,382.993 M733.018,357.993
				c-24.696,0-49.393,9.422-68.235,28.265c-37.686,37.686-37.686,98.785,0,136.471c18.843,18.844,43.539,28.265,68.235,28.265
				s49.394-9.421,68.236-28.265c37.687-37.686,37.687-98.785,0-136.471C782.411,367.415,757.714,357.993,733.018,357.993
				L733.018,357.993z"/>
		</g>
		
			<rect x="690.709" y="155.46" transform="matrix(0.6428 0.766 -0.766 0.6428 398.1446 -470.1605)" fill="#FFFFFF" width="24.999" height="72.753"/>
		
			<rect x="771.044" y="235.795" transform="matrix(-0.766 -0.6428 0.6428 -0.766 1208.7986 984.3343)" fill="#FFFFFF" width="25" height="72.753"/>
		
			<rect x="529.599" y="387.996" transform="matrix(0.7071 0.7071 -0.7071 0.7071 445.1526 -264.7014)" fill="#FFFFFF" width="25" height="34"/>
		
			<rect x="557.884" y="416.28" transform="matrix(0.7071 0.7071 -0.7071 0.7071 473.4366 -276.4175)" fill="#FFFFFF" width="25" height="34"/>
	</g>
	<g opacity="0.25">
		<g>
			<path fill="#FFFFFF" d="M523.958,575.666l5.457,5.457l-51.511,60.797l-14.743-14.743L523.958,575.666 M524.676,558.27
				l-80.408,68.127l34.416,34.418l68.128-80.409L524.676,558.27L524.676,558.27z"/>
		</g>
		<g>
			<path fill="#FFFFFF" d="M429.233,530.53c9.785,0,18.984,3.811,25.902,10.729c14.283,14.284,14.283,37.524,0.001,51.809
				c-6.919,6.918-16.118,10.729-25.903,10.729s-18.985-3.811-25.904-10.729c-14.283-14.284-14.283-37.524,0-51.809
				C410.249,534.341,419.448,530.53,429.233,530.53 M429.233,517.722c-12.653,0-25.307,4.827-34.961,14.481
				c-19.308,19.309-19.308,50.613,0,69.922c9.655,9.654,22.307,14.48,34.961,14.48c12.652,0,25.308-4.828,34.96-14.48
				c19.308-19.309,19.308-50.613,0-69.922C454.539,522.549,441.887,517.722,429.233,517.722L429.233,517.722z"/>
		</g>
		<g>
			<path fill="#FFFFFF" d="M537.917,639.215c9.785,0,18.984,3.811,25.903,10.73c6.92,6.919,10.73,16.117,10.73,25.902
				s-3.811,18.983-10.731,25.903c-6.918,6.92-16.117,10.73-25.902,10.73c-9.784,0-18.983-3.811-25.903-10.731
				c-6.919-6.918-10.729-16.117-10.729-25.902s3.811-18.984,10.73-25.903C518.933,643.025,528.133,639.215,537.917,639.215
				 M537.917,626.406c-12.653,0-25.306,4.827-34.96,14.481c-19.309,19.308-19.309,50.612,0,69.92
				c9.654,9.654,22.307,14.482,34.96,14.482s25.307-4.828,34.96-14.482c19.31-19.308,19.31-50.612,0-69.92
				C563.224,631.233,550.57,626.406,537.917,626.406L537.917,626.406z"/>
		</g>
		
			<rect x="516.24" y="522.64" transform="matrix(0.6428 0.766 -0.766 0.6428 601.3126 -207.0202)" fill="#FFFFFF" width="12.808" height="37.275"/>
		
			<rect x="557.4" y="563.799" transform="matrix(-0.766 -0.6428 0.6428 -0.766 621.2923 1391.0176)" fill="#FFFFFF" width="12.808" height="37.275"/>
		
			<rect x="433.697" y="641.779" transform="matrix(0.7071 0.7071 -0.7071 0.7071 588.8674 -120.6752)" fill="#FFFFFF" width="12.809" height="17.419"/>
		
			<rect x="448.188" y="656.269" transform="matrix(0.7071 0.7071 -0.7071 0.7071 603.3585 -126.6772)" fill="#FFFFFF" width="12.809" height="17.42"/>
	</g>
</g>
</svg>
