<?xml version="1.0" encoding="utf-8"?>
<!-- Generator: Adobe Illustrator 16.0.0, SVG Export Plug-In . SVG Version: 6.00 Build 0)  -->
<!DOCTYPE svg PUBLIC "-//W3C//DTD SVG 1.1//EN" "http://www.w3.org/Graphics/SVG/1.1/DTD/svg11.dtd">
<svg version="1.1" id="Layer_2" xmlns="http://www.w3.org/2000/svg" xmlns:xlink="http://www.w3.org/1999/xlink" x="0px" y="0px"
	 width="800.115px" height="424.999px" viewBox="0 0 800.115 424.999" enable-background="new 0 0 800.115 424.999"
	 xml:space="preserve">
<g>
	<path fill="#C7C7C7" d="M400.058,43.668c96.833,0,175.331,78.499,175.331,175.332s-78.498,175.331-175.331,175.331
		S224.726,315.833,224.726,219S303.225,43.668,400.058,43.668 M400.058,23.668c-26.361,0-51.944,5.167-76.038,15.358
		c-23.262,9.839-44.15,23.92-62.082,41.853c-17.933,17.932-32.014,38.82-41.853,62.082c-10.191,24.094-15.358,49.677-15.358,76.038
		c0,26.36,5.167,51.943,15.358,76.038c9.839,23.262,23.92,44.149,41.853,62.082c17.932,17.933,38.82,32.014,62.082,41.853
		c24.094,10.191,49.677,15.358,76.038,15.358c26.36,0,51.943-5.167,76.038-15.358c23.262-9.839,44.149-23.92,62.082-41.853
		s32.014-38.82,41.853-62.082c10.191-24.095,15.358-49.678,15.358-76.038c0-26.361-5.167-51.944-15.358-76.038
		c-9.839-23.262-23.92-44.15-41.853-62.082c-17.933-17.933-38.82-32.014-62.082-41.853
		C452.001,28.836,426.418,23.668,400.058,23.668L400.058,23.668z"/>
</g>
<g>
	<path fill="#FFFFFF" d="M400.058,30c46.184,0,94.445,10.292,143.444,30.589c39.994,16.567,80.548,39.782,120.535,69.001
		c43.095,31.49,76.326,63.333,95.309,82.926c-18.75,19.369-51.456,50.716-94.152,82.047c-40.11,29.433-80.801,52.828-120.943,69.537
		c-49.26,20.503-97.772,30.899-144.192,30.899c-46.183,0-94.445-10.292-143.444-30.589c-39.994-16.567-80.548-39.782-120.535-69.001
		c-43.095-31.49-76.327-63.332-95.309-82.926c18.75-19.369,51.457-50.716,94.153-82.047c40.11-29.433,80.801-52.828,120.943-69.537
		C305.125,40.396,353.638,30,400.058,30 M400.058,0C179.111,0,0,212.5,0,212.5s179.111,212.5,400.058,212.5
		s400.058-212.5,400.058-212.5S621.004,0,400.058,0L400.058,0z"/>
</g>
</svg>
