<?xml version="1.0" encoding="utf-8"?>
<!-- Generator: Adobe Illustrator 16.0.0, SVG Export Plug-In . SVG Version: 6.00 Build 0)  -->
<!DOCTYPE svg PUBLIC "-//W3C//DTD SVG 1.1//EN" "http://www.w3.org/Graphics/SVG/1.1/DTD/svg11.dtd">
<svg version="1.1" xmlns="http://www.w3.org/2000/svg" xmlns:xlink="http://www.w3.org/1999/xlink" x="0px" y="0px" width="1850px"
	 height="1129.455px" viewBox="0 0 1850 1129.455" enable-background="new 0 0 1850 1129.455" xml:space="preserve">
<g id="Layer_2">
	<g>
		<rect y="82.455" width="285" height="250"/>
		<rect x="1559" y="82.455" width="291" height="250"/>
		<rect x="797" y="841.455" width="250" height="288"/>
	</g>
	<path d="M1401.646,283.687c-26.035,61.554-63.362,116.891-110.943,164.472c-47.58,47.581-102.917,84.908-164.472,110.943
		c-63.593,26.897-131.297,40.536-201.231,40.536c-69.934,0-137.638-13.639-201.231-40.536
		c-61.555-26.035-116.892-63.362-164.472-110.943c-47.581-47.581-84.908-102.917-110.943-164.472
		c-26.897-63.593-40.536-131.297-40.536-201.231h-260c0,429.227,347.957,777.183,777.183,777.183
		c429.227,0,777.183-347.956,777.183-777.183h-260C1442.183,152.389,1428.544,220.093,1401.646,283.687z"/>
</g>
<g id="Layer_3">
	<circle cx="925" cy="204.455" r="204.455"/>
</g>
</svg>
