<svg width="1231.6px" height="999.2px" viewBox="0 0 1231.6 999.2" xmlns="http://www.w3.org/2000/svg" xmlns:xlink="http://www.w3.org/1999/xlink">
  <defs/>
  <g>
    <path stroke="none" fill="#000000" d="M0.65 0.75 L0.8 0.6 1.3 0.8 245.35 228.35 244.85 239.85 244.75 248.15 244.95 258.25 245.55 269.9 246.05 276.25 247.55 289.8 249.8 304.3 251.25 311.85 252.95 319.55 254.9 327.35 257.1 335.25 259.6 343.2 262.4 351.15 267.25 363.1 270.9 371 277.05 382.65 281.65 390.25 286.65 397.7 289.3 401.35 294.95 408.5 301.05 415.4 314.65 429.7 319.05 434.7 322.9 439.4 326.2 443.9 330.2 450.3 332.2 454.45 333.7 458.5 334.7 462.55 335.2 466.6 335.2 470.7 334.7 474.9 334.25 477.05 333 481.45 331.25 486.05 329.05 490.9 323.2 503 318 514.2 313.5 524.65 311.55 529.6 308.2 539 305.7 547.85 304.05 556.25 303.55 560.3 303.3 564.25 303.3 568.15 303.55 572 304.05 575.8 304.8 579.6 305.8 583.35 307.1 587.1 308.65 590.85 310.5 594.65 312.65 598.45 315.1 602.3 317.85 606.2 324.25 614.25 331.95 622.7 341 631.6 360.5 649.6 385.9 672.45 489.25 764.25 529.95 800.6 572.4 838.85 615.5 878.2 615.8 878.2 890.5 631.6 899.55 622.7 907.25 614.25 913.65 606.2 916.4 602.3 918.85 598.45 921 594.65 922.85 590.85 924.4 587.1 925.7 583.35 926.7 579.6 927.45 575.8 927.95 572 928.2 568.15 928.2 564.25 927.95 560.25 927.45 556.2 926.75 552.05 924.65 543.45 923.3 538.95 919.95 529.55 918 524.6 913.5 514.15 908.3 502.9 902.45 490.75 900.25 485.9 898.55 481.3 897.3 476.9 896.85 474.75 896.35 470.55 896.35 466.45 896.85 462.4 897.85 458.35 899.35 454.3 901.35 450.2 905.35 443.8 908.65 439.3 912.5 434.6 916.9 429.65 930.45 415.45 936.55 408.55 942.2 401.4 944.85 397.75 949.85 390.3 954.45 382.7 960.6 371.05 964.25 363.15 969.05 351.25 971.85 343.3 974.35 335.35 976.55 327.45 978.5 319.65 980.2 311.95 981.65 304.4 983.9 289.9 985.4 276.35 985.9 270 986.5 258.35 986.7 248.25 986.6 239.95 986.05 228.75 986.3 228.15 1230.2 0.85 1230.75 0.65 1231.25 0.85 1231.5 1.45 1231.15 36.35 1230.65 51.35 1229.45 70.4 1228.3 81.1 1226.8 90.45 1224.95 98.6 1222.65 105.75 1219.95 112.1 1216.8 117.85 1215.05 120.55 1211.1 125.8 1206.6 130.95 1201.55 136.15 1195.9 141.65 1038.8 292.5 1038.8 319.6 1039 319.7 1139.15 223.3 1139.7 223.1 1140.35 223.45 1140.5 223.85 1140.5 257.3 1140.35 284.95 1140.1 296.4 1139.65 306.45 1139 315.25 1138.1 323 1137.55 326.5 1136.15 332.9 1135.35 335.85 1133.4 341.25 1132.25 343.75 1129.65 348.45 1128.15 350.7 1124.8 355.1 1120.9 359.45 1116.4 363.95 1012.7 456.75 992.8 474.75 993.3 482.65 993.45 490.5 993.4 498.3 993.6 498.4 1054.95 439.9 1055.5 439.7 1056.15 440.05 1056.3 440.45 1056.35 443.55 1056.45 455.85 1056.25 473.6 1055.95 483.8 1055.45 494.5 1054.75 505.45 1053.75 516.3 1052.45 526.85 1051.7 531.9 1049.9 541.4 1048.85 545.8 1047.7 549.9 1046.45 553.65 1045.05 557 1042.75 561.3 1041.1 563.55 1040.15 564.55 1019.05 585 832.7 762 809.35 784.55 801.2 792.8 800.65 793.65 800.9 800.1 800.9 806.4 800.65 812.4 800.15 818.15 799.4 823.6 798.45 828.8 797.25 833.75 795.85 838.45 794.25 842.95 792.45 847.2 790.5 851.25 788.35 855.1 786.05 858.75 783.6 862.2 781 865.5 778.35 868.55 616.3 999.65 615.8 999.8 615.3 999.65 453.1 868.55 450.4 865.45 447.8 862.15 445.35 858.7 443.05 855.05 440.9 851.2 438.95 847.15 437.15 842.9 435.55 838.4 434.15 833.7 432.95 828.75 432 823.55 431.25 818.1 430.75 812.35 430.5 806.35 430.5 800.05 430.75 793.65 430.2 792.85 422.05 784.6 398.7 762.05 212.35 585.05 191.2 564.55 190.3 563.6 188.6 561.3 186.35 557.05 184.95 553.6 183.7 549.85 182.55 545.8 181.5 541.45 179.7 531.95 178.95 526.9 177.65 516.35 176.65 505.5 175.95 494.55 175.45 483.85 175 464.25 174.95 455.9 175.2 440.25 175.7 439.8 176.45 440 237.8 498.5 238 498.4 237.95 490.55 238.1 482.7 238.6 474.85 218.7 456.85 114.95 364 110.45 359.5 106.55 355.15 103.2 350.75 101.7 348.5 99.1 343.75 98 341.25 96.05 335.85 95.25 332.95 93.9 326.55 93.35 323.05 92.45 315.3 91.8 306.5 91.35 296.45 91.1 285 90.95 257.35 90.95 223.9 91.1 223.4 91.7 223.1 92.25 223.3 192.4 319.7 192.6 319.6 192.6 292.5 29.8 136.15 22.45 128.35 18.25 123.2 16.35 120.55 12.95 115 11.45 112.05 8.75 105.7 7.55 102.25 5.5 94.65 4.6 90.45 3.1 81.15 2.5 76 1.5 64.55 0.75 51.4 0.25 36.4 -0.1 1.55 0.05 1.05 0.65 0.75 M967.5 240.35 L967.65 240.2 968.3 240.55 968.45 240.95 968.6 244.25 968.65 249.85 968.25 261.75 967.5 271.7 966.95 277.2 965.35 289.15 964.25 295.55 961.45 309 959.7 316.05 957.7 323.25 955.45 330.6 952.9 338.05 950.05 345.55 946.9 353.15 943.4 360.75 939.55 368.35 935.35 375.95 928.3 387.25 923.1 394.7 917.5 402.05 911.45 409.25 904.95 416.3 893.5 427.9 887.85 434.4 884.5 439 881.55 443.95 879.1 449.25 877.2 455 876.5 458.05 876 461.25 875.7 464.6 875.6 468.1 875.7 471.75 876 475.55 876.55 479.55 877.35 483.7 878.4 488.05 879.75 492.6 881.35 497.35 883.25 502.35 888 513 894.1 524.6 900.05 535.1 902.1 539.3 903.8 543.4 905.2 547.4 906.3 551.35 907.1 555.25 907.6 559.05 907.85 562.8 907.8 566.5 907.5 570.15 906.95 573.75 906.15 577.3 905.15 580.8 903.9 584.25 902.45 587.65 898.95 594.35 896.9 597.65 892.3 604.15 889.75 607.4 884.25 613.8 875.05 623.35 868.4 629.7 861.4 636.1 789.15 699.45 730.25 750.35 660.6 809.8 623.7 840.95 623.2 841.15 622.85 841.05 622.6 840.85 622.45 840.2 670.2 643.65 670.45 643.15 717.65 598.25 761.6 598.3 769.25 598.15 774.4 597.85 835.3 537.7 835.15 533.1 834.7 528.35 834 523.65 833 519 831.8 514.45 830.35 509.95 828.7 505.55 826.9 501.25 824.95 497.05 820.6 489 818.25 485.15 813.4 477.8 808.35 471.05 803.3 464.9 798.45 459.4 793.9 454.6 786.35 447.35 781.4 442.95 781.4 415.45 966.95 240.55 967.5 240.35 M264.15 240.35 L264.4 240.6 264.95 240.8 450.5 415.7 450.5 443.2 445.55 447.6 438 454.85 433.45 459.65 428.55 465.15 423.5 471.3 418.45 478.05 413.6 485.35 411.25 489.2 406.9 497.25 404.95 501.45 401.5 510.15 400.05 514.6 398.85 519.15 397.85 523.8 397.1 528.5 396.65 533.25 396.5 537.95 457.4 598.1 462.7 598.4 470.9 598.55 518.65 598.55 561.4 643.45 561.65 643.95 609.4 840.55 609.35 841 609.05 841.35 608.65 841.45 608.15 841.25 571.25 810.1 501.6 750.65 442.7 699.75 370.45 636.4 363.45 630 356.8 623.65 347.6 614.1 342.1 607.7 339.55 604.45 334.95 597.9 332.9 594.6 329.4 587.9 327.95 584.5 326.7 581.05 325.7 577.55 324.9 574 324.35 570.4 324.05 566.75 324 563.1 324.25 559.35 324.75 555.5 325.55 551.6 326.65 547.65 328.05 543.65 329.75 539.55 331.8 535.4 337.7 525 343.8 513.4 348.55 502.75 350.45 497.75 352.05 493 353.4 488.45 354.45 484.1 355.25 479.95 355.8 475.95 356.15 472.15 356.25 468.5 356.15 465 355.85 461.65 355.35 458.45 354.65 455.4 352.75 449.65 350.3 444.35 347.35 439.4 344 434.75 338.4 428.25 326.85 416.6 320.35 409.55 314.3 402.35 308.7 395 303.5 387.55 296.5 376.25 292.3 368.65 288.45 361 284.95 353.4 281.8 345.8 278.95 338.3 276.4 330.85 274.15 323.5 272.15 316.3 270.4 309.25 267.6 295.8 266.5 289.4 264.9 277.45 263.55 262 263.15 250.05 263.2 244.4 263.35 241.1 263.5 240.7 264.15 240.35 M584.1 638.5 L584.15 638.6 649.3 638.6 649.65 638.65 650.05 639.15 616.85 805.5 616.35 806.05 615.8 806.05 615.3 805.45 583.35 639.45 583.5 638.8 584.1 638.5 M665.35 509.1 L665.3 509.1 677 511.85 697.6 529.05 697.9 529.65 697.75 530.1 697.15 530.4 667.25 530.4 667.05 530.6 668.4 549.85 668.6 550.05 710.6 559.55 731.35 577.4 731.6 578 731.45 578.45 730.85 578.75 662.9 578.75 616.4 619.5 615.9 619.7 615.4 619.5 569.05 578.75 501.05 578.75 500.6 578.6 500.3 578.25 500.3 577.8 500.55 577.4 521.3 559.55 563.3 550.05 563.5 549.85 564.85 530.6 564.65 530.4 534.75 530.4 534.3 530.25 534 529.9 534 529.45 534.25 529.05 555.15 511.65 566.3 509.1 566.8 509.15 615.85 553 616.15 553 664.85 509.3 665.35 509.1 M584.9 330.9 L585 330.85 585.5 331.05 585.75 331.5 592.45 368.25 596.55 420.6 615.7 435.3 616 435.3 635.4 420.6 639.5 368.2 646.2 331.55 646.45 331.1 646.95 330.9 647.45 331.1 647.7 331.6 662.15 458.2 661.9 458.55 651.25 467.9 651.45 496.2 616.4 527.15 615.9 527.35 615.4 527.15 580.4 496.2 580.6 467.9 569.95 458.55 569.7 458.2 584.15 331.6 584.4 331.1 584.9 330.9"/>
  </g>
</svg>