<svg width="1076.65px" height="997.35px" viewBox="0 0 1076.65 997.35" xmlns="http://www.w3.org/2000/svg" xmlns:xlink="http://www.w3.org/1999/xlink">
  <defs/>
  <g>
    <path stroke="none" fill="#000000" d="M1075.9 255.35 L1076 255.35 1076.3 255.4 1076.45 255.5 1076.65 255.85 1076.65 256.05 1073.95 296.3 1071.4 332.1 1069.05 362.55 1066.85 388.1 1065.75 399.25 1064.65 409.35 1063.55 418.5 1062.4 426.75 1061.2 434.2 1059.95 440.85 1058.65 446.85 1057.3 452.2 1055.85 457 1054.3 461.3 1052.65 465.15 1050.9 468.6 1049 471.75 1047 474.65 1044.85 477.35 1042.55 479.95 1040.05 482.5 1037.4 485.05 1024.75 496.75 1021 500.35 1017 504.4 1000.15 519.9 963.15 553.7 921.7 591.3 904.2 607 891.6 618.15 891.55 618.35 891.85 622.15 892 626.5 892.05 631.15 892 636.05 891.65 646.15 891.1 656.05 890.45 665 889.25 678.8 889.2 679.05 889.05 679.25 539.65 998.8 539.45 998.95 539.2 999 538.9 998.95 538.65 998.75 538.5 998.5 538.5 998.2 544.4 972.5 550.75 943.4 557.1 913 563.4 881.6 569.65 849.45 575.85 816.85 588.05 751.45 599.85 687.7 605.55 657.15 611.1 627.9 616.5 600.2 621.75 574.35 626.8 550.6 631.65 529.45 631.8 529.15 634.4 526.25 637.95 522.5 647.3 513.1 686.65 474.25 701.2 459.65 715.25 445.15 721.9 438.1 727.95 431.5 728.15 431.35 728.45 431.3 741.1 430.95 762.5 430.55 818.3 429.8 893.1 429 893.25 428.95 974.7 351.5 1075.45 255.55 1075.65 255.4 1075.9 255.35 M0.65 255.35 L0.75 255.4 1 255.45 1.2 255.6 101.95 351.55 183.4 429 183.55 429.05 258.35 429.85 314.15 430.6 335.6 431 348.25 431.35 348.55 431.4 348.75 431.55 354.8 438.15 361.45 445.2 375.5 459.7 390.05 474.3 429.4 513.15 438.75 522.6 442.3 526.35 444.9 529.2 445.05 529.5 449.9 550.65 454.95 574.4 460.2 600.25 465.6 627.95 471.15 657.2 476.85 687.75 488.65 751.45 500.85 816.8 507.05 849.4 513.3 881.55 519.6 912.95 525.95 943.35 532.3 972.45 538.2 998.15 538.15 998.55 537.85 998.85 537.5 998.95 537.25 998.9 537.05 998.75 187.65 679.2 187.5 679 187.45 678.75 186.25 664.95 185.65 656 185.1 646.1 184.75 636 184.7 631.1 184.75 626.4 184.9 622.05 185.15 618.3 185.1 618.1 172.5 606.95 155 591.25 113.55 553.65 76.55 519.85 59.65 504.3 55.7 500.3 51.95 496.7 39.25 484.95 36.6 482.4 34.1 479.85 31.75 477.25 29.6 474.5 27.6 471.6 25.7 468.45 23.95 465 22.3 461.15 20.75 456.9 19.3 452.15 17.95 446.8 16.65 440.85 15.4 434.2 14.2 426.75 13.05 418.5 11.95 409.35 10.85 399.25 9.75 388.1 7.55 362.55 5.2 332.1 2.7 296.3 0 256.05 0 255.85 0.2 255.5 0.35 255.4 0.65 255.35 M489.25 526.05 L489.3 526.05 584.75 526.95 585 527 585.2 527.15 585.35 527.35 585.4 527.6 537.1 771.8 537 772 536.65 772.3 536.4 772.35 536.15 772.3 535.8 772 535.7 771.8 488.55 526.85 488.55 526.55 488.7 526.3 488.95 526.1 489.25 526.05 M632.45 262.7 L632.35 262.6 632.65 262.65 632.8 262.75 633 263.1 633 263.3 628.25 398.25 628.2 398.55 628.05 398.75 536.6 479.05 536.4 479.15 536.15 479.2 535.9 479.15 535.7 479.05 444.55 398.75 444.4 398.55 444.35 398.3 439.6 263.5 439.7 263.15 440 262.9 440.3 262.85 440.55 262.9 440.75 263.05 536.4 348.5 536.65 348.5 632 262.9 632.2 262.75 632.45 262.7 M459.3 1.65 L459.35 1.65 459.7 1.75 459.95 2.05 498.15 88.45 536.05 117.4 536.3 117.4 574.6 88.55 574.7 88.45 600.95 2.4 601.2 2.05 601.4 1.95 601.65 1.9 602.05 2.1 602.25 2.5 627.15 161.75 627.15 162.05 626.95 162.35 605.8 180.7 605.7 180.85 606.25 236.25 606.2 236.55 606.05 236.8 536.9 297.65 536.7 297.8 536.45 297.85 536.2 297.8 536 297.65 466.9 236.8 466.75 236.55 466.7 236.25 467.2 180.85 467.1 180.7 445.95 162.35 445.75 162.05 445.7 161.8 458.7 2.3 458.85 1.9 459 1.75 459.3 1.65"/>
  </g>
</svg>