<svg width="1136.35px" height="999.2px" viewBox="0 0 1136.35 999.2" xmlns="http://www.w3.org/2000/svg" xmlns:xlink="http://www.w3.org/1999/xlink">
  <defs/>
  <g>
    <path stroke="none" fill="#000000" d="M768.7 748.3 L769.3 748.6 769.4 749 769.4 764.95 769 784.7 768.3 794.5 767.75 798.6 767.05 802.15 766.15 805.45 765.1 808.3 763.8 810.95 762.25 813.4 760.45 815.75 758.35 818.1 756 820.35 568.7 999.65 568.2 999.85 567.7 999.65 377.95 818.05 375.9 815.8 374.1 813.45 372.55 811 371.25 808.35 370.15 805.45 369.25 802.2 368.55 798.55 368 794.5 367.3 784.7 366.9 764.95 366.9 749 367.05 748.55 367.6 748.3 368.1 748.5 567.95 929.45 568.2 929.45 768.2 748.5 768.7 748.3 M1135.7 0.65 L1135.55 0.75 1136.15 1.05 1136.25 1.45 1136.2 43.65 1136.05 61.1 1135.75 76 1134.85 94.25 1133.85 104.1 1133.2 108.45 1131.55 116.1 1130.55 119.5 1129.4 122.65 1128.15 125.6 1126.75 128.4 1125.2 131.05 1123.45 133.6 1119.45 138.5 1114.7 143.45 1109.15 148.7 924.7 316.2 924.7 351.1 924.85 351.2 1012.25 271.3 1034.9 250.25 1035.4 250.05 1036 250.4 1036.1 250.8 1033.25 292.6 1031.95 309.6 1030.7 323.9 1029.45 335.8 1027.55 349.7 1026.15 356.8 1025.4 359.8 1023.75 364.85 1022.85 367 1020.8 370.7 1019.65 372.3 1017.15 375.3 1002.85 388.95 851.55 525.25 852.1 533.95 852.25 542.55 852.15 551.2 852.3 551.3 942.6 469.4 943.1 469.2 943.4 469.25 943.7 469.5 943.8 469.9 943.7 495.55 943.5 507.4 943.15 518.25 942.65 528.15 941.45 541.4 939.7 552.9 938.15 559.75 937.25 562.95 935.2 568.95 934 571.75 932.7 574.45 929.8 579.5 928.2 581.9 924.65 586.5 922.7 588.7 918.35 592.95 569.65 906.35 569.2 906.55 568.85 906.45 568.55 906.1 568.5 905.65 575.55 874 579.5 854.85 587.75 813.15 608.65 702.85 619.95 644.05 626.45 612.75 629.25 600.5 632.65 596.7 637.35 592 664.5 565.6 671.85 558.05 678.9 550.55 689.7 550.2 726.6 549.8 781.55 503.9 781.95 497.95 781.85 492 781.25 486.15 780.1 480.4 779.35 477.55 777.4 471.85 774.9 466.15 771.85 460.45 768.25 454.65 764.05 448.75 759.3 442.7 751.1 433.25 744.9 426.65 738.1 419.8 722.7 405 722.7 374.8 1135.2 0.85 1135.7 0.65 M0.6 0.65 L0.5 0.65 1 0.85 413.5 374.8 413.5 405 398.1 419.75 391.3 426.6 385.1 433.2 376.85 442.65 372.1 448.7 367.9 454.6 364.3 460.4 361.25 466.1 358.75 471.8 356.8 477.45 355.4 483.15 354.9 486.05 354.3 491.9 354.2 497.85 354.6 503.85 409.55 549.75 446.45 550.15 457.25 550.5 464.3 558 471.7 565.55 498.9 592 503.65 596.7 506.85 600.1 509.8 612.7 516.3 644 527.6 702.75 548.45 813 556.7 854.7 560.65 873.85 567.7 905.5 567.65 905.95 567.35 906.3 567 906.4 566.5 906.2 217.75 592.8 213.4 588.55 211.45 586.35 207.9 581.75 206.3 579.35 203.45 574.3 202.15 571.6 200.95 568.8 198.9 562.85 198 559.65 196.45 552.8 194.7 541.3 193.5 528.05 193 518.15 192.65 507.3 192.45 495.45 192.35 469.8 192.65 469.2 193.05 469.1 193.55 469.3 283.85 551.2 284 551.1 283.9 542.4 284.05 533.8 284.6 525.15 133.25 388.85 118.95 375.15 116.45 372.15 115.3 370.5 113.25 366.8 112.35 364.65 110.7 359.6 109.95 356.6 108.55 349.55 106.65 335.65 105.4 323.8 102.85 292.5 100 250.75 100.15 250.25 100.7 250 101.2 250.2 123.9 271.25 211.3 351.15 211.45 351.05 211.45 316.15 26.95 148.65 21.35 143.4 16.6 138.45 12.6 133.5 10.85 130.95 9.3 128.3 7.9 125.5 6.65 122.55 4.55 116 2.95 108.35 2.3 104 1.3 94.15 0.4 75.9 0.1 61 -0.05 43.55 -0.1 1.35 0 0.95 0.6 0.65 M533.25 594.65 L533.3 594.7 605.1 594.7 605.4 594.75 605.8 595.2 569.2 778.45 568.75 779 568.25 779 567.8 778.45 532.55 595.5 532.7 594.9 533.25 594.65 M622.55 452.6 L622.55 452.75 635.4 455.8 658.25 474.9 658.5 475.45 658.35 475.85 657.8 476.15 624.6 476.15 624.4 476.35 625.85 497.6 626 497.8 672.2 508.25 695.2 528 695.45 528.55 695.3 528.95 694.75 529.2 619.8 529.2 568.7 574 568.25 574.2 567.8 574 516.85 529.2 441.9 529.2 441.5 529.05 441.25 528.7 441.25 528.3 441.45 527.95 464.45 508.2 510.65 497.75 510.8 497.55 512.25 476.3 512.05 476.1 478.85 476.1 478.45 475.95 478.2 475.6 478.2 475.15 478.45 474.8 501.6 455.5 513.95 452.65 514.45 452.7 568.35 500.85 568.6 500.85 622.1 452.8 622.55 452.6 M534.25 256.35 L534.15 256.4 534.6 256.55 534.85 256.95 542.4 298.05 546.9 355.5 567.95 371.7 568.2 371.7 589.55 355.5 594.05 298 601.55 256.95 601.8 256.55 602.3 256.4 602.75 256.6 602.95 257.05 618.9 396.8 606.95 407.35 607.2 438.4 568.65 472.4 568.2 472.6 567.75 472.4 529.25 438.4 529.5 407.35 517.6 396.8 533.55 257 533.75 256.55 534.25 256.35"/>
  </g>
</svg>