<?xml version="1.0" encoding="utf-8"?>
<!-- Generator: Adobe Illustrator 16.0.0, SVG Export Plug-In . SVG Version: 6.00 Build 0)  -->
<!DOCTYPE svg PUBLIC "-//W3C//DTD SVG 1.1//EN" "http://www.w3.org/Graphics/SVG/1.1/DTD/svg11.dtd">
<svg version="1.1" id="Layer_2" xmlns="http://www.w3.org/2000/svg" xmlns:xlink="http://www.w3.org/1999/xlink" x="0px" y="0px"
	 width="1897.785px" height="765.746px" viewBox="56.676 617.127 1897.785 765.746"
	 enable-background="new 56.676 617.127 1897.785 765.746" xml:space="preserve">
<g>
	<g>
		
			<linearGradient id="SVGID_1_" gradientUnits="userSpaceOnUse" x1="-96.2329" y1="1899.9629" x2="-96.2329" y2="1993.4963" gradientTransform="matrix(2.4749 0 0 -2.4749 701.6024 6085.1709)">
			<stop  offset="0" style="stop-color:#97B8C1"/>
			<stop  offset="1" style="stop-color:#5A7A8D"/>
		</linearGradient>
		<polygon fill="url(#SVGID_1_)" points="640.268,1306.646 384.111,1147.754 221.507,1382.873 705.358,1382.873 		"/>
		
			<linearGradient id="SVGID_2_" gradientUnits="userSpaceOnUse" x1="18.3071" y1="2104.6729" x2="-40.1927" y2="1919.1736" gradientTransform="matrix(2.4749 0 0 -2.4749 701.6024 6085.1709)">
			<stop  offset="0" style="stop-color:#97B8C1"/>
			<stop  offset="1" style="stop-color:#5A7A8D"/>
		</linearGradient>
		<polygon fill="url(#SVGID_2_)" points="768.222,949.017 537.805,1143.547 711.051,1370.993 860.784,910.902 		"/>
		
			<linearGradient id="SVGID_3_" gradientUnits="userSpaceOnUse" x1="-97.6826" y1="2132.7637" x2="60.418" y2="2132.7637" gradientTransform="matrix(2.4749 0 0 -2.4749 701.6024 6085.1709)">
			<stop  offset="0" style="stop-color:#97B8C1"/>
			<stop  offset="1" style="stop-color:#5A7A8D"/>
		</linearGradient>
		<polygon fill="url(#SVGID_3_)" points="467.517,716.866 581.363,996.287 851.133,901.497 459.844,617.127 		"/>
		
			<linearGradient id="SVGID_4_" gradientUnits="userSpaceOnUse" x1="-101.2485" y1="2144.6641" x2="-260.2767" y2="2144.6641" gradientTransform="matrix(2.4749 0 0 -2.4749 701.6024 6085.1709)">
			<stop  offset="0" style="stop-color:#97B8C1"/>
			<stop  offset="1" style="stop-color:#5A7A8D"/>
		</linearGradient>
		<polygon fill="url(#SVGID_4_)" points="153.941,931.196 454.646,909.17 448.212,623.313 56.676,907.685 		"/>
		
			<linearGradient id="SVGID_5_" gradientUnits="userSpaceOnUse" x1="-154.3296" y1="1916.2686" x2="-214.3296" y2="2100.7686" gradientTransform="matrix(2.4749 0 0 -2.4749 701.6024 6085.1709)">
			<stop  offset="0" style="stop-color:#97B8C1"/>
			<stop  offset="1" style="stop-color:#5A7A8D"/>
		</linearGradient>
		<polygon fill="url(#SVGID_5_)" points="260.859,1295.508 332.88,1002.723 58.904,920.802 208.39,1380.894 		"/>
	</g>
	<polygon fill="#C4041A" points="400.198,1120.282 363.816,1008.662 458.606,939.859 553.396,1008.662 517.263,1120.282 	"/>
</g>
<polygon fill="#42545F" points="1084.024,960.896 1131.048,960.896 1148.373,907.189 904.344,907.189 813.266,1187.353 
	1057.542,1187.353 1074.867,1134.142 1027.596,1134.142 1022.646,1148.991 873.159,1148.991 938.992,946.789 1088.231,946.789 "/>
<path fill="#42545F" d="M1572.083,1100.978c3.465,0,74.248,0,74.248,0l62.863-193.788h-244.029l-13.117,39.6h43.56l-57.172,42.816
	l-64.348,197.748h46.033l78.208-240.564h153.446l-39.599,122.51H1484.47l81.673,117.807h56.924c0,0-50.241-71.03-53.953-76.723
	C1565.152,1104.938,1568.617,1100.978,1572.083,1100.978z"/>
<path fill="#42545F" d="M1183.021,907.189l-91.077,280.163h244.276l91.078-280.163H1183.021z M1302.066,1148.991h-150.724
	l65.586-202.202h150.724L1302.066,1148.991z"/>
<polygon fill="#42545F" points="1941.097,946.789 1954.461,907.189 1751.269,907.189 1737.904,946.789 1781.711,946.789 
	1724.291,989.605 1660.19,1187.353 1686.178,1187.353 1706.225,1187.353 1863.383,1187.353 1875.511,1148.991 1718.6,1148.991 
	1744.586,1069.298 1901.25,1069.298 1914.862,1028.462 1794.332,1028.462 1746.566,1062.863 1784.433,946.789 "/>
<path fill="#648495" d="M867.467,1233.14c-23.512,0-70.288,0-70.288,0l-41.084,133.646c0,0,36.382,0,57.419,0
	s61.378-4.455,71.772-37.371c10.147-32.917,13.365-43.56,19.8-64.102C911.521,1244.771,890.979,1233.14,867.467,1233.14z
	 M882.564,1270.264c-5.445,17.819-12.128,39.104-18.563,59.646c-6.435,20.789-31.432,22.274-37.371,22.274h-45.787l32.917-106.176
	c0,0,35.392-0.247,47.023,0C872.664,1246.257,888.009,1252.444,882.564,1270.264z"/>
<polygon fill="#648495" points="931.073,1233.14 959.287,1311.348 941.963,1366.786 962.505,1366.786 979.829,1311.843 
	1054.82,1233.14 1032.298,1233.14 973.642,1294.766 951.12,1233.14 "/>
<polygon fill="#648495" points="1034.03,1366.786 1054.572,1366.786 1088.975,1255.661 1131.543,1366.786 1158.025,1366.786 
	1199.356,1233.14 1178.814,1233.14 1145.65,1340.057 1102.339,1233.14 1075.362,1233.14 "/>
<path fill="#648495" d="M1294.89,1366.786h22.77l-14.107-133.646h-25.739l-97.266,133.646h18.81l29.699-41.084h61.874
	L1294.89,1366.786z M1238.955,1311.595l44.55-61.378l5.939,61.378H1238.955z"/>
<polygon fill="#648495" points="1502.537,1233.14 1424.081,1343.274 1411.954,1233.14 1378.789,1233.14 1337.458,1366.786 
	1358,1366.786 1393.393,1252.939 1406.014,1366.786 1425.318,1366.786 1506.249,1252.939 1471.105,1366.786 1491.646,1366.786 
	1533.227,1233.14 "/>
<polygon fill="#648495" points="1530.009,1366.786 1550.551,1366.786 1591.883,1233.14 1571.34,1233.14 "/>
<path fill="#648495" d="M1718.6,1249.722c0,0-14.355-6.435-36.629-6.435c-27.967,0-42.074,7.672-49.004,30.688
	c-7.178,23.018-9.652,31.432-16.83,54.201s18.81,25.492,31.185,25.492c12.374,0,40.589-4.95,40.589-4.95l-4.703,14.85
	c0,0-15.592,4.703-40.341,4.703c-35.392,0-57.171-8.663-46.776-42.322s12.127-39.352,20.047-64.348
	c7.672-24.75,37.866-31.68,71.031-31.68c24.502,0,36.134,4.95,36.134,4.95L1718.6,1249.722z"/>
<path fill="#648495" d="M1716.371,1347.481c0,0,15.84,5.197,40.59,5.197s32.916-5.444,37.124-13.859s16.087-32.917-7.177-32.917
	c-23.266,0-12.87,0-24.255,0s-26.978-3.96-26.978-21.531c0-17.572,2.971-55.439,69.547-55.439c26.729,0,36.876,3.96,36.876,3.96
	l-4.207,14.355c0,0-12.622-2.971-37.619-2.971s-32.917,2.971-37.124,11.385c-4.208,8.415-16.088,32.917,7.177,32.917
	s17.819,0,29.204,0s24.502,1.485,24.502,19.057c0,17.572-5.444,60.389-72.021,60.389c-26.729,0-40.589-4.949-40.589-4.949
	L1716.371,1347.481z"/>
</svg>
