<svg xmlns="http://www.w3.org/2000/svg" viewBox="0 0 245.7 339.33" style="background: black;"><defs><style>.cls-1{fill:#fff;}</style></defs><title>logo-delacy</title><g id="Layer_2" data-name="Layer 2"><g id="Layer_1-2" data-name="Layer 1"><path id="DELACY" class="cls-1" d="M5.82,286.73c.43,0,.88-.07,1.37-.09l1.47-.07,1.33,0a14.34,14.34,0,0,1,5.27.91,9.92,9.92,0,0,1,3.85,2.66,11.63,11.63,0,0,1,2.36,4.3,19.44,19.44,0,0,1,.81,5.82,21,21,0,0,1-.57,5.12,12.67,12.67,0,0,1-1.56,3.7,9.17,9.17,0,0,1-2.3,2.51,11.55,11.55,0,0,1-2.8,1.53,13.8,13.8,0,0,1-3.09.75,25.18,25.18,0,0,1-3.13.21l-.91,0-1.11,0-1.07-.08-.82-.1q-.09-1.31-.15-3.27c0-1.31-.08-2.68-.1-4.1s0-2.81-.06-4.16,0-2.51,0-3.46c0-.46,0-1,0-1.57s0-1.21,0-1.86,0-1.31,0-2,0-1.33,0-2c0-1.49.06-3,.09-4.63ZM0,285a11.63,11.63,0,0,1,.25,1.14c.08.45.15,1,.21,1.67s.1,1.45.13,2.37,0,2,0,3.19v13.91c0,1.21,0,2.26,0,3.17s-.07,1.68-.13,2.34-.13,1.2-.21,1.64A10.57,10.57,0,0,1,0,315.5v.09c.41,0,1,0,1.71.05l2.34.12,2.47.11c.83,0,1.51.06,2.09.06a28.63,28.63,0,0,0,4.72-.39,19.91,19.91,0,0,0,4.3-1.21,16,16,0,0,0,3.68-2.13,12.41,12.41,0,0,0,2.85-3.11A14.68,14.68,0,0,0,26,304.91a20,20,0,0,0,.66-5.34,17.18,17.18,0,0,0-1.26-7A12.07,12.07,0,0,0,22,288a13.17,13.17,0,0,0-5-2.52,23,23,0,0,0-6-.77c-.79,0-1.63,0-2.51,0l-2.58.09c-.83,0-1.56.05-2.21.08s-1.1,0-1.38,0H1.7c-.26,0-.51,0-.77,0l-.93,0V285Zm31.8,0v.09c.09.3.17.67.26,1.11s.14,1,.2,1.66.1,1.44.13,2.35,0,2,0,3.17v13.9c0,1.21,0,2.27,0,3.17s-.08,1.68-.13,2.34-.13,1.2-.2,1.64a10.33,10.33,0,0,1-.26,1.11v.09H41.9l1.12,0,1.35,0,1.34,0,1.17.05c.34,0,.6,0,.78,0l.63-3.46c-1,.27-2.17.5-3.41.7-1.08.19-2.33.35-3.77.49s-3.14.22-4.72.22V300.32c1,0,2,0,3,.11s2,.17,2.93.27l3.07.36.67-3.09c-.75.11-1.62.21-2.6.3s-1.87.14-3.07.21-2.55.12-4,.13V287l1.59-.08,1.4-.08,1.26,0a27.2,27.2,0,0,1,2.72.12c.79.08,1.46.16,2,.24s1.12.2,1.67.34l1.07-2.84a17.46,17.46,0,0,1-2.16.17c-1.05,0-2.33.08-3.82.1l-4.94.05c-1.78,0-3.58,0-5.4,0Zm26.43,8.38q0-1.81.06-3.18c0-.9.07-1.68.13-2.35a16.58,16.58,0,0,1,.19-1.65,8.53,8.53,0,0,1,.25-1.11V285H53.64v.09c.08.3.17.67.25,1.11s.15,1,.21,1.65.1,1.45.13,2.35,0,2,0,3.18v13.9c0,1.21,0,2.26,0,3.17s-.08,1.68-.13,2.34-.13,1.2-.21,1.64-.17.81-.25,1.11v.09h10.1l1.12,0,1.34,0,1.35,0,1.16,0,.79.05.63-3.46c-1,.27-2.17.5-3.42.7-1.07.19-2.32.35-3.76.49s-3.14.22-4.72.22V293.34Zm43.43,22.25v-.09c-.06-.08-.21-.28-.41-.6s-.43-.69-.69-1.15-.55-1-.84-1.55-.59-1.17-.86-1.78L87.05,284.33H85.31L72.85,311.47c-.47,1-.9,1.9-1.28,2.59a8.44,8.44,0,0,1-1,1.45v.08H75v-.08a.73.73,0,0,1-.08-.25,1.75,1.75,0,0,1,0-.46,5.18,5.18,0,0,1,.37-1.9c.25-.62.48-1.2.7-1.73l2.5-5.64c.85,0,1.82,0,2.88,0H89c1.35,0,2.42,0,3.24,0l2.63,5.81a12.85,12.85,0,0,1,.71,2,6.55,6.55,0,0,1,.18,1.46,2.75,2.75,0,0,1,0,.39,1,1,0,0,1-.07.32v.08ZM79.27,303.65l6-13.65,6.11,13.56-2.14,0-2.44,0-2.6,0H79.27Zm48.82-17.94a23.38,23.38,0,0,0-7.79-1.26,19.7,19.7,0,0,0-5,.61,17.5,17.5,0,0,0-4.24,1.7,16.21,16.21,0,0,0-3.42,2.57,15.39,15.39,0,0,0-4.08,7,15.06,15.06,0,0,0-.54,4,15.58,15.58,0,0,0,1.34,6.52,14.59,14.59,0,0,0,3.75,5,17,17,0,0,0,5.74,3.24,22.69,22.69,0,0,0,7.36,1.14,24,24,0,0,0,4-.33,19.48,19.48,0,0,0,3.6-.95l1.74-4.36-.24-.15a11,11,0,0,1-1.84,1.63,12,12,0,0,1-4.53,2,12.22,12.22,0,0,1-2.48.26,14.3,14.3,0,0,1-6-1.19,11.9,11.9,0,0,1-4.3-3.26,13.91,13.91,0,0,1-2.58-4.9,20.25,20.25,0,0,1-.87-6.09,14.53,14.53,0,0,1,.91-5.3,11,11,0,0,1,2.56-3.92,10.78,10.78,0,0,1,3.93-2.45,15.34,15.34,0,0,1,10.25.08,13.06,13.06,0,0,1,4.08,2.45l.19-.08Zm28.15,2.67a15.46,15.46,0,0,1,1.74-2.12c.54-.54,1-.94,1.28-1.21V285H155a2,2,0,0,1-.18.73,8.46,8.46,0,0,1-.5.94c-.19.34-.42.7-.67,1.07l-.74,1.09-7,10-7.14-9.58a12.44,12.44,0,0,1-1.53-2.64,5.32,5.32,0,0,1-.42-1.61h-6.59v.08c.13.09.31.22.54.41a8.6,8.6,0,0,1,.79.69c.29.28.59.6.92,1s.65.78,1,1.22l9.72,13v5.92c0,1.21,0,2.27,0,3.17s-.08,1.68-.13,2.34a16.35,16.35,0,0,1-.2,1.64,10.57,10.57,0,0,1-.25,1.11v.09h5.22v-.09c-.08-.3-.17-.67-.25-1.11a16.35,16.35,0,0,1-.2-1.64c-.06-.66-.1-1.44-.14-2.34s0-2,0-3.17V300.9Z"/><path id="relief" class="cls-1" d="M244.82,304.39c-.12-1.73-.21-3-2.1-4.22,0,0,1.18.8-1.7,1.21s-2.08-4-5.6-3.11a8.16,8.16,0,0,1,.94,6.91s-2.2-2.68-3.46-4.56c-1.83,2.52-11.51-1.18-13.27-.85,1.78,2.94-5.41,9.09-9,9.11-4.1,11.62,1.57,15.59,2,19.05s-.43,3.52-1.08,6.83,10.31,3.23,6.8,4.34-11.33-1.85-13.87-6,2.72-15.23-1.71-20.81c-4.6-7-18.08,2.17-21.32-1.46-1.29-7.44-4.92-25.88-10.62-35.27-7.24-11.92-25.63-26-31.76-28.19s-9.29-8.67-10.59-12.47c-1.18-3.44-8.08-32.27-10.19-50.5-2-17.27-4.3-34.6-7.08-42.74S81.72,90.13,78.38,86.87,72.25,90.67,70,98.8s-18.2,53.72,16.72,100.29c28.72,38.31,50.52,64.25,60,75.12a2.13,2.13,0,0,1,.44.7c.15,1.08.82,4.1-6.68,2.34C78.32,268,28.2,268.13,2.33,272.59a86.82,86.82,0,0,1,11.61-19c17-.1,58.28,2.59,58.28,2.59s-28.85-3.53-56.55-4.6a60.65,60.65,0,0,1,12.68-10.31s5.72-.11,38.51,5l-34.64-6.67.07-.1a24,24,0,0,1,9.3-2.35c11.59,1.56,58.26,11.05,61.53,9.41,2.78-1.39,5-5,.57-9.89C82,214.86,26.86,172.81,20.92,132.82c13.45,12.44,21.59,18.27,21.59,18.27L19.76,128,17,110.7l21.27,19.56L16.88,103.73,16.61,83,41.16,106,16.74,76.3,18.8,54.68,45,78.4S26.8,52.85,19.44,47.09c.5-11.19,6.2-25.44,6.2-25.44l26,33.43L28.47,15.24s5.66-11.9,8.32-14.16,5.7-1.11,9.7,4.61,73.62,135.79,73.92,136.39c2.42,4.71,32.57,63.1,49.22,92.54,13.54-8.29,26.25-11.62,35.36-10.88-3-2.52-11.67-5-11.67-5s8-5.35,3.17-12.31-24-1.9-24-1.9L158.88,192c17.41,5.1,37.05-3.57,48.77,1.7,11.31,5.1,13.18,10.23,14.3,15.66,1.34,2.39,3.8,3.91,1.11,9.35,3.58,4.35,6.93,12.18-2.9,16.75,1.56-5-7.17-6.8-11.2-9.19a41.38,41.38,0,0,0-13.83.7c-8.17,1.53-18.61,12.9-22.86,15.08l.17,0s30.82,60.8,33.17,62.17,2.24.06,3.39-2.63,9-8.46,13-8.95a25.46,25.46,0,0,1,12.89,1.75s-1-1.68-5.85-3.53c3.75-.69,11.05,1,13.94,3.85S246.38,304.29,244.82,304.39ZM208.08,215c1,1,6.06-.13,7.21,1.62,1.85-.07,1.42-.62.91-1.5s-7.66-6.84-8.25-7.14c-1.52-.79-.89,6,.13,7Zm-125-79.44-1.08,7c-.09.53-.63.14-1.22-.86l-3.13-5.34a5.71,5.71,0,0,1-.92-2.76l1.08-7c.09-.53.63-.15,1.22.85l3.14,5.35A5.8,5.8,0,0,1,83.11,135.51Zm-2.76,17.74-1.08,7c-.08.53-.63.14-1.21-.86L74.92,154a5.71,5.71,0,0,1-.92-2.77l1.08-7c.09-.53.63-.15,1.22.85l3.14,5.35A5.8,5.8,0,0,1,80.35,153.25Zm5.54-35.59-1.09,7c-.08.53-.62.14-1.21-.86l-3.14-5.34a5.81,5.81,0,0,1-.92-2.76l1.09-7c.08-.53.63-.15,1.21.85L85,114.9A5.71,5.71,0,0,1,85.89,117.66Zm4.21,29.75-1.08,7c-.09.53-.44.48-.78-.11l-1.86-3.16a3.7,3.7,0,0,1-.48-2l1.09-7c.08-.52.42-.47.77.12l1.86,3.16A3.67,3.67,0,0,1,90.1,147.41Zm-2.76,17.74-1.08,7c-.09.53-.43.48-.78-.12l-1.86-3.15a3.72,3.72,0,0,1-.48-2l1.09-7c.08-.52.42-.47.77.12l1.86,3.16A3.67,3.67,0,0,1,87.34,165.15Zm5.54-35.59-1.09,7c-.08.53-.43.48-.78-.12l-1.85-3.15a3.61,3.61,0,0,1-.48-2l1.08-7c.08-.52.43-.47.78.12l1.86,3.16a3.69,3.69,0,0,1,.48,2ZM73.52,119.18l-1.08,7c-.09.53-.79-.13-1.57-1.46l-4.19-7.12a7.93,7.93,0,0,1-1.26-3.37l1.08-7c.08-.52.79.13,1.57,1.46l4.18,7.13a7.86,7.86,0,0,1,1.27,3.36Zm-2.76,17.74-1.08,7c-.09.53-.78-.13-1.57-1.46l-4.18-7.12A8,8,0,0,1,62.66,132l1.08-7c.08-.53.79.13,1.57,1.46l4.18,7.12a7.93,7.93,0,0,1,1.27,3.37Zm5.54-35.59-1.09,7c-.08.53-.78-.12-1.56-1.46l-4.19-7.12a8,8,0,0,1-1.27-3.37l1.09-7c.08-.52.78.13,1.57,1.46L75,98a8.08,8.08,0,0,1,1.27,3.37Z"/></g></g></svg>