<svg xmlns="http://www.w3.org/2000/svg" viewBox="0 0 474.28 86.89"><defs><style>.cls-1{fill:#fff;}</style></defs><title>logo-lakon</title><g id="Layer_2" data-name="Layer 2"><g id="Layer_1-2" data-name="Layer 1"><path id="LAKON" class="cls-1" d="M0,85.7H70.35V66.64H21.17V1.14H0Zm75.81,0H97.9l6.55-14.22h45.38L156.6,85.7h22L137.74,1.14h-22.2ZM111,53.33l15.39-32.79,16.68,32.79ZM183.17,85.7h21.17V67.32l13.47-12.76,30.3,31.14H275L233.3,41.5,275,1.13H249L204.34,44.91V1.14H183.17ZM274.9,60.84a40.4,40.4,0,0,0,9.87,13.83,45.35,45.35,0,0,0,15.26,9,62,62,0,0,0,39.42,0,45.24,45.24,0,0,0,15.28-9,40.3,40.3,0,0,0,9.88-13.83,43.56,43.56,0,0,0,3.52-17.66,42.92,42.92,0,0,0-3.52-17.53A39.73,39.73,0,0,0,354.73,12a44.68,44.68,0,0,0-15.28-8.84,63.38,63.38,0,0,0-39.42,0A44.8,44.8,0,0,0,284.78,12a39.73,39.73,0,0,0-9.88,13.67,42.92,42.92,0,0,0-3.52,17.53A43.56,43.56,0,0,0,274.9,60.84Zm19.25-28.05A22.11,22.11,0,0,1,300,25a25.78,25.78,0,0,1,8.78-4.87,37,37,0,0,1,22,0A25.69,25.69,0,0,1,339.53,25a22.66,22.66,0,0,1,5.81,7.8,24.73,24.73,0,0,1,2.11,10.42,24.91,24.91,0,0,1-2.11,10.46,23.41,23.41,0,0,1-5.81,7.94,26,26,0,0,1-8.76,5.07,35,35,0,0,1-22,0A26.09,26.09,0,0,1,300,61.61a22.83,22.83,0,0,1-5.81-7.94,25.43,25.43,0,0,1-2.09-10.46A24.9,24.9,0,0,1,294.15,32.79ZM379.24,85.7h21.17V23.5l52.7,27.43V85.7h21.17V1.14H453.11V28.73L400.41,1.14H379.24V85.7Z"/></g></g></svg>