<svg xmlns="http://www.w3.org/2000/svg" viewBox="0 0 502.27 141.25"><defs><style>.cls-1{fill:#fff;}</style></defs><title>logo-zorgon-peterson</title><g id="Layer_2" data-name="Layer 2"><g id="Layer_1-2" data-name="Layer 1"><path class="cls-1" d="M72,72.58h0Z"/><path class="cls-1" d="M70.63,0h0a70.63,70.63,0,1,0,70.62,70.63A70.63,70.63,0,0,0,70.63,0ZM16.82,70.62A53.63,53.63,0,0,1,33.14,32H54.58L35.42,72.59H72.1c2.09,0,13.2,0,18.05,0,11.36,0,9.77,6.67,9.77,12.28,0,9.36-8.37,9.77-16.83,9.77H65.82l-.29,29.53A53.79,53.79,0,0,1,16.82,70.62Zm64.7,52.69c0-6.16,0-17.14,0-20.43,19.62,0,32.35-.11,32.35-10.27,0-5.65.21-10.92.21-14.3,0-13.56-12.33-12.8-12.33-12.8l-27.13,0H55L73.74,25.36H41.56a53.45,53.45,0,0,1,29.06-8.53h0A53.8,53.8,0,0,1,81.52,123.31Z"/><path class="cls-1" d="M172.24,86.93H159v48.25h3.26V114.43h10q7.27,0,11-3.49T187,100.67q0-6.76-3.72-10.25T172.24,86.93Zm8.41,22c-2,1.92-4.78,2.87-8.41,2.87h-10V89.61h10q5.44,0,8.41,2.88c2,1.94,3,4.66,3,8.18S182.65,107,180.65,108.91Z"/><polygon class="cls-1" points="196.72 5.32 196.75 5.34 196.72 3.57 157.29 3.57 157.29 16.64 176.08 16.64 155.53 63.7 155.53 65.44 195.33 65.44 195.33 52.7 176.08 52.7 196.72 5.32"/><path class="cls-1" d="M263.47,35.56c0-.29,0-.58,0-.87s0-.58,0-.87a30.74,30.74,0,0,0-9.19-22.52,29.84,29.84,0,0,0-21.94-9.24q-.74,0-1.47,0t-1.59,0a30.72,30.72,0,0,0-15.72,4.23,31.19,31.19,0,0,0-15.65,27.32c0,.34,0,.68,0,1s0,.48,0,.73a31,31,0,0,0,9,22.23q9,9.36,22.5,9.36.75,0,1.5,0c.51,0,1,0,1.55,0a29.8,29.8,0,0,0,22-9.11A30.42,30.42,0,0,0,263.47,35.56ZM243.24,48.25a18.6,18.6,0,0,1-12.33,5.83,19.5,19.5,0,0,1-11.25-4.49,19,19,0,0,1-7.15-15,20,20,0,0,1,5.67-13.83,16.33,16.33,0,0,1,25,.14l.28.28A19.11,19.11,0,0,1,243.24,48.25Z"/><path class="cls-1" d="M435.07,86.05q-9.49,0-15.2,6.79h0q-5.67,6.82-5.67,18.27t5.67,18.22q5.72,6.79,15.2,6.79t15.13-6.82q5.67-6.78,5.67-18.2T450.2,92.84Q444.52,86.06,435.07,86.05Zm12.68,41.47a16.36,16.36,0,0,1-25.4,0q-4.69-6-4.69-16.41t4.69-16.49a16.37,16.37,0,0,1,23-2.38,16.73,16.73,0,0,1,2.38,2.38h0q4.67,6,4.66,16.49T447.75,127.52Z"/><path class="cls-1" d="M436.29,57.84h0a30.4,30.4,0,0,0,9.06-22.27c0-.3,0-.59,0-.88s0-.58,0-.87a30.7,30.7,0,0,0-9.19-22.52,29.84,29.84,0,0,0-21.94-9.24c-.49,0-1,0-1.47,0s-1.05,0-1.59,0H411a31.39,31.39,0,0,0-31.22,31.55c0,.35,0,.68,0,1s0,.49,0,.73a31.09,31.09,0,0,0,9,22.24q9,9.36,22.5,9.36c.5,0,1,0,1.5,0s1,0,1.55,0A29.84,29.84,0,0,0,436.29,57.84ZM401.54,49.6a19.05,19.05,0,0,1-7.14-15,19.92,19.92,0,0,1,5.66-13.83,16.92,16.92,0,0,1,2-2,16.34,16.34,0,0,1,23,2.11h0c.09.09.18.17.26.26a19.12,19.12,0,0,1-.22,27,18.6,18.6,0,0,1-12.33,5.83A19.49,19.49,0,0,1,401.54,49.6Z"/><path class="cls-1" d="M397.39,113a27.18,27.18,0,0,0-8.05-3.23l-3.88-1a20.23,20.23,0,0,1-8-3.59A7.09,7.09,0,0,1,375,99.44c0-3.88,1.09-6.61,3.27-8.21a15,15,0,0,1,9.32-2.52,22.86,22.86,0,0,1,6.42.87,50.88,50.88,0,0,1,7.08,2.81v-3a47.61,47.61,0,0,0-6.91-2.52h0a24,24,0,0,0-6.95-.77q-7.69,0-11.47,3.36Q371.7,93,371.7,99.7c0,3.57,1.66,6.4,5,8.46a26.91,26.91,0,0,0,8,3.17l3.91.94a19,19,0,0,1,8.54,4.27,7.29,7.29,0,0,1,2.28,5.68q0,6.18-3.71,8.63a17.6,17.6,0,0,1-9.92,2.62,20.3,20.3,0,0,1-7.56-1.65,59.35,59.35,0,0,1-6.39-3.42v3.16a33.37,33.37,0,0,0,5.8,3,30.46,30.46,0,0,0,10,1.52A19,19,0,0,0,398,132.86q4.66-3,4.67-10.89Q402.71,116.54,397.39,113Z"/><polygon class="cls-1" points="499.01 86.93 499.01 131.05 475.4 86.93 470.58 86.93 470.58 135.18 470.58 135.18 473.9 135.18 473.9 90.78 497.64 135.19 502.27 135.19 502.27 86.93 499.01 86.93"/><polygon class="cls-1" points="498.33 65.44 498.33 65.44 501.39 65.44 501.39 3.57 486.89 3.57 486.89 38.44 464.22 3.57 450.18 3.57 450.18 65.44 464.68 65.44 464.68 30.69 487.32 65.44 498.33 65.44"/><path class="cls-1" d="M297.15,38.42a15.5,15.5,0,0,0,10.63-15.65c0-.29,0-.58,0-.87s0-.58,0-.88a18.08,18.08,0,0,0-2.58-9.77,14.56,14.56,0,0,0-6.79-5.9q-4.23-1.78-14.19-1.78H269V65.45h14.5V43.77l11.51,21.68h15.57l.66,0-.66-1.78Zm-5.56-12.78c-1.38,1-3.88,1.44-7.52,1.44h-.53V16.48h.08a20.41,20.41,0,0,1,6.27.64,5.59,5.59,0,0,1,2.73,2.09,5.54,5.54,0,0,1,1,2.62A5,5,0,0,1,291.59,25.64Z"/><polygon class="cls-1" points="232.89 89.58 232.89 89.58 250.17 89.58 250.17 135.18 253.47 135.18 253.47 89.58 270.75 89.58 270.75 86.93 232.89 86.93 232.89 89.58"/><path class="cls-1" d="M374.18,52.44a29.39,29.39,0,0,0,4.09-15l0-.88c0-.29,0-.57,0-.87l-.08-2.53H344.88V45.7h16.51a16.54,16.54,0,0,1-5.66,6.06,18,18,0,0,1-8.47,2.45,20.89,20.89,0,0,1-13.82-6,19.74,19.74,0,0,1-6.2-13.89,19.26,19.26,0,0,1,6-13.43,20.14,20.14,0,0,1,13.32-5.84q9.25.57,16.33,8.05l1.5,1.11a4.78,4.78,0,0,0,1.56-1.11l8.06-8c-.29-.31,1-.45.71-.74l-.71-1A33.73,33.73,0,0,0,362.7,5,37,37,0,0,0,348,2.07c-.51,0-1,0-1.53,0s-1,0-1.52,0q-15,0-24.36,10.5a30.11,30.11,0,0,0-7.89,20.76c0,.23,0,.47,0,.7s0,.69,0,1A32.31,32.31,0,0,0,317,51.3,29.74,29.74,0,0,0,328.6,62.89,33.85,33.85,0,0,0,345.29,67c.51,0,1,0,1.51,0s1,0,1.55,0a30.3,30.3,0,0,0,15.25-3.72,28.54,28.54,0,0,0,10.58-10.79Z"/><polygon class="cls-1" points="285.86 110.75 309.04 110.75 309.04 108.13 285.86 108.13 285.86 89.61 310.05 89.61 310.05 86.93 282.53 86.93 282.53 135.18 282.53 135.18 310.64 135.18 310.64 132.57 285.86 132.57 285.86 110.75"/><path class="cls-1" d="M349.58,115.6a9.06,9.06,0,0,0-3.91-3,9.74,9.74,0,0,0,6.07-4.17h0a14,14,0,0,0,1.92-7.56q0-7-3.68-10.44t-11.16-3.46h-13.2v48.25h3.26V113.37h8.84a12.29,12.29,0,0,1,6.88,1.68q2.47,1.68,5.18,6.88l6.94,13.25h3.49L353.4,122A45.83,45.83,0,0,0,349.58,115.6Zm-9.94-4.91H328.88V89.58h10.76q5.22,0,7.89,2.65c1.78,1.77,2.67,4.38,2.67,7.85s-.89,6.14-2.67,7.92S343.12,110.69,339.64,110.69Z"/><polygon class="cls-1" points="199.88 110.75 223.06 110.75 223.06 108.13 199.88 108.13 199.88 89.61 224.07 89.61 224.07 86.93 196.55 86.93 196.55 135.18 196.55 135.18 224.66 135.18 224.66 132.57 199.88 132.57 199.88 110.75"/></g></g></svg>