<svg xmlns="http://www.w3.org/2000/svg" viewBox="0 0 430.44 172.08"><defs><style>.cls-1{fill:#fff;}</style></defs><title>logo-core-dynamics</title><g id="Layer_2" data-name="Layer 2"><g id="Layer_1-2" data-name="Layer 1"><path id="Shape_11_copy_3" data-name="Shape 11 copy 3" class="cls-1" d="M104.84,113.07l-26.61.65-8.84-25.1L90.54,72.46l21.9,15.11Z"/><path id="DYNAMICS" class="cls-1" d="M180.55,138.41h-13l-9.28,30.27h13q13.65,0,16.17-8.2l4.11-13.39q2.65-8.67-11.05-8.68h0Zm-8.63,27.19h-7.79l7.38-24.07h8a22.68,22.68,0,0,1,3.3.21,10.7,10.7,0,0,1,2.61.75,2.8,2.8,0,0,1,1.62,1.68A4.62,4.62,0,0,1,187,147l-4.09,13.34c-1.07,3.48-4.72,5.23-10.94,5.22Zm48.91-27.19-13.05,14.23-4.33-14.23h-5.57l6.27,18.05-3.75,12.22h4.87l3.79-12.36,17.35-17.91Zm38.07,0h-4.27l-7.66,25-10.07-25H231l-9.28,30.27H226l7.79-25.42,9.93,25.42h5.88Zm23.55,0h-5.62L254.6,168.68h4.82l6.48-9.19h14l.9,9.19h5.07Zm-14.34,18,9.72-13.67h.45l1.34,13.67Zm66.78-18h-7l-17.63,25.24-.14-.05-2.72-25.19h-7.29l-9.28,30.27h4.37L303,143.07h.26l3,25.61h4.37L329,143.07h.24l-7.85,25.61h4.27Zm13.31,0h-4.87l-9.28,30.27h4.87Zm22.19,26.4a43.65,43.65,0,0,1-9.18,1.12q-9.34,0-7.74-5.22l4.34-14.18a6.93,6.93,0,0,1,1.64-2.87,6.52,6.52,0,0,1,2.67-1.68,16.39,16.39,0,0,1,3.09-.75,24.58,24.58,0,0,1,3.43-.21,35.34,35.34,0,0,1,8.5,1.12l1-3.36a40.76,40.76,0,0,0-8.67-.88q-13.71,0-16.37,8.67l-4.41,14.37q-2.5,8.2,11.2,8.21a50.33,50.33,0,0,0,9.41-.89ZM400.26,153q-1.29-1.69-6.36-1.7H390c-2,0-3.39-.24-4-.72a1.91,1.91,0,0,1-.5-2.31l1.06-3.45a4.56,4.56,0,0,1,2.42-2.92q1.8-.85,6.47-.86a60.52,60.52,0,0,1,8.5.8l1-3.41a75.44,75.44,0,0,0-8.23-.51q-7.33,0-10.6,1.72a8.66,8.66,0,0,0-4.37,5.32l-.74,2.43q-1.11,3.59.27,5.43t6.29,1.84h3.82c2,0,3.37.28,4,.82s.73,1.45.34,2.73l-1.2,3.92a4.19,4.19,0,0,1-2.72,2.91,17,17,0,0,1-5.52.73,48.41,48.41,0,0,1-9.89-1.17l-1.16,3.78a77,77,0,0,0,9.72.75q6.27,0,9.8-1.85c2.35-1.23,4-3.46,5-6.69l.67-2.19q1.13-3.69-.15-5.4Z"/><path id="CORE_copy" data-name="CORE copy" class="cls-1" d="M308,74.24a6.8,6.8,0,0,0-.62-6.35,6.46,6.46,0,0,0-5.67-2.64h-37a12.3,12.3,0,0,0-7.4,2.64,12.79,12.79,0,0,0-4.8,6.35l-14.76,44.93a6.82,6.82,0,0,0,.62,6.36,6.47,6.47,0,0,0,5.67,2.63h37a12.4,12.4,0,0,0,7.4-2.63,12.89,12.89,0,0,0,4.79-6.36Zm-59.65,44.93,14.76-44.93h34.33l-14.76,44.93Zm94.59-8.86.46-1.41h7.92q9.24,0,12.61-10.27l8-24.39a6.75,6.75,0,0,0-.71-6.29,6.38,6.38,0,0,0-5.58-2.7H319.43l-2.95,9h9.24L313.57,83.1l-14.8,45.06h10.56L327,74.24h34.33l-8.86,27h-29l18.6,27h13.47Zm69.81,8.86H377.08l5.91-18h35.64l3-9H393.86l-10.45,7.71,8.43-25.68h35.65l2.95-9H384.23l-3,9h9.25l-12.2,9-14.76,44.93h46.21ZM199.79,74.27h34.33l-1,3h10.57l2-6A3.62,3.62,0,0,0,244.36,67a9.15,9.15,0,0,0-6-1.75h-37a12.34,12.34,0,0,0-7.4,2.64,12.83,12.83,0,0,0-4.8,6.35l-14.75,44.9a6.85,6.85,0,0,0,.62,6.36,6.47,6.47,0,0,0,5.67,2.63h37a15.05,15.05,0,0,0,7.11-1.75,7.84,7.84,0,0,0,4.09-4.23l2-6H220.35l-1,3H185"/><path id="Shape_14_copy_4" data-name="Shape 14 copy 4" class="cls-1" d="M88.85.6l1.47,64.75-68,5.23L0,65.12Z"/><path id="Shape_14_copy_5" data-name="Shape 14 copy 5" class="cls-1" d="M0,67.18,62,85.79,46,152l-12.1,19.58Zm0,0L62,85.79,46,152l-12.1,19.58Z"/><path id="Shape_14_copy_6" data-name="Shape 14 copy 6" class="cls-1" d="M36,172.05,72.88,118.8l58.06,35.72,14.88,17.56Zm0,0L72.88,118.8l58.06,35.72,14.88,17.56Z"/><path id="Shape_14_copy_2" data-name="Shape 14 copy 2" class="cls-1" d="M179.49,64.56,118.36,86l-26-63L90.67,0Z"/><path id="Shape_14_copy_3" data-name="Shape 14 copy 3" class="cls-1" d="M147.1,170.42,107.84,118.9l51.91-44.17L181.05,66Z"/></g></g></svg>