<?xml version="1.0" encoding="utf-8"?>
<!-- Generator: Adobe Illustrator 16.0.0, SVG Export Plug-In . SVG Version: 6.00 Build 0)  -->
<!DOCTYPE svg PUBLIC "-//W3C//DTD SVG 1.1//EN" "http://www.w3.org/Graphics/SVG/1.1/DTD/svg11.dtd">
<svg version="1.1" id="Layer_1" xmlns="http://www.w3.org/2000/svg" xmlns:xlink="http://www.w3.org/1999/xlink" x="0px" y="0px"
	 width="1053.68px" height="178.93px" viewBox="79.077 87.61 1053.68 178.93" enable-background="new 79.077 87.61 1053.68 178.93"
	 xml:space="preserve">
<path fill="#F9BA01" d="M160.91,111.27c-13.64-7.87-27.25-15.78-40.89-23.66c-13.64,7.9-27.28,15.82-40.94,23.69
	c0,15.82-0.01,31.64,0.01,47.46c13.65,7.88,27.29,15.78,40.92,23.69c13.65-7.87,27.27-15.78,40.91-23.67
	C160.92,142.95,160.93,127.11,160.91,111.27z M120.03,175.61c-11.71-6.78-23.44-13.54-35.13-20.36c0.04-13.48,0.02-26.97,0.01-40.45
	c11.7-6.8,23.42-13.56,35.12-20.35c11.68,6.78,23.38,13.52,35.06,20.31c-0.01,13.51-0.03,27.02,0.01,40.53
	C143.43,162.09,131.72,168.83,120.03,175.61z"/>
<path fill="#F9BA01" d="M251.91,111.27c-13.64-7.86-27.23-15.8-40.89-23.63c-13.66,7.85-27.27,15.8-40.94,23.66
	c0,15.82-0.01,31.64,0.01,47.46c13.65,7.88,27.29,15.78,40.92,23.69c13.65-7.87,27.27-15.78,40.91-23.67
	C251.92,142.95,251.93,127.11,251.91,111.27z M211.03,175.61c-11.71-6.78-23.44-13.54-35.13-20.36c0.03-13.48,0.03-26.96,0-40.44
	c11.69-6.82,23.42-13.56,35.13-20.36c11.68,6.78,23.38,13.52,35.06,20.32c-0.02,13.5-0.03,27.01,0.01,40.51
	C234.43,162.09,222.72,168.83,211.03,175.61z"/>
<path fill="#FCF6E3" d="M772.31,122.62c17.82-0.1,35.671-0.42,53.48,0.19c0.02,1.44,0.22,2.98-0.7,4.22
	c-20.91,36.16-41.77,72.35-62.72,108.489c7.33,0.16,14.71-0.479,22.01,0.41c-0.45,1.891-1.09,3.73-2.11,5.391
	c-4.899,8.35-9.699,16.76-14.569,25.13c-15.57,0.12-31.15,0.01-46.73,0.069c-5.79,0.061-11.739-2.689-14.859-7.67
	c-3.301-5.319-3.58-12.1-1.57-17.93c1.27-4.42,4.24-8.02,6.44-11.98C731.4,193.48,751.93,158.09,772.31,122.62z"/>
<path fill="#FCF6E3" d="M1016.33,124.4c0.58-1.55,2.06-2.15,3.65-1.91c15.029,0.05,30.069-0.07,45.1,0.06
	c2.32-0.41,3.76,1.94,2.29,3.78c-12.64,21.85-25.16,43.76-37.94,65.52c16.891-11.37,33.561-23.13,50.66-34.16
	c16.26-0.42,32.58-0.12,48.87-0.15c2.7-0.63,5.5,3.13,2.51,4.7c-23.109,17.68-46.39,35.15-69.56,52.75
	c5.74,12.64,11.33,25.359,17.18,37.96c0.36,1.04,1.43,2.45,0.25,3.399c-3.189,3.561-6.74,6.76-10.08,10.17
	c-16.21,0.2-32.449-0.489-48.63,0.36c-4.96-10.54-8.87-21.54-13.39-32.271c-5.96,10.57-12.46,20.841-18,31.631
	c-15.061,0.609-30.16,0.07-45.23,0.279c-2.649-0.09-5.399,0.381-7.939-0.55c-0.471-1.409,0.01-2.79,0.76-3.989
	C963.33,216.13,989.82,170.26,1016.33,124.4z"/>
<path fill="#FCF6E3" d="M957.19,161.8c-5.4-3.98-12.5-4.31-18.95-4.46c-19.061,0.37-38.13,0.05-57.19,0.16
	c-10.37,0.15-21.03-0.86-31.05,2.4c-12.46,3.65-22.56,12.78-29.52,23.51c-9.75,16.6-19.03,33.479-29.171,49.85
	c-4.79,6.7-6.75,15.98-3.229,23.67c2.67,6.09,9.37,9.69,15.88,9.59c24.36-0.029,48.72-0.02,73.07-0.01
	c11.939,0.28,24.649-1.649,34.37-9.09c7.59-5.59,12.09-14.04,17.39-21.6c8.71-14.98,17.31-30.03,26.03-45
	c3.05-4.88,5.62-10.181,6.71-15.87C962.46,170.24,961.28,164.71,957.19,161.8z M875.06,235.49c-9.56,0.029-19.119-0.021-28.68,0.029
	c8.93-15.3,17.73-30.689,26.66-45.989c9.56-0.07,19.12,0.01,28.68-0.05C892.79,204.79,884.01,220.19,875.06,235.49z"/>
<path fill="#F9BA01" d="M505.87,163.06c-4.06-4.25-10.21-5.55-15.88-5.54c-25.67-0.12-51.33,0.06-77-0.08
	c-6.34-0.32-12.62,1.09-18.6,3.05c-8.29,2.73-15.23,8.68-20.13,15.78c-11.78,20.52-23.64,41.01-35.47,61.5
	c-2.8,5.211-4.91,11.28-3.49,17.23c0.95,4.08,4.13,7.4,8.01,8.88c5.95,2.311,12.46,1.59,18.69,1.64c31.01,0,62.01-0.029,93.02,0.021
	c1.7-0.22,4.09,0.4,5-1.53c2.93-4.51,5.18-9.439,8.18-13.91c2.75-4.529,6.15-8.89,7.23-14.189c-3.14-0.37-6.3-0.48-9.46-0.45
	c-24.05,0.1-48.1-0.08-72.15,0.09c1.54-2.24,2.94-4.569,4.22-6.97c23.34-0.15,46.68-0.03,70.01-0.061
	c3.94-0.09,7.93,0.33,11.84-0.329c4.67-5.73,7.38-12.881,11.37-19.11c3.47-5.2,6.41-10.73,9.57-16.11
	c2.96-5.18,6.29-10.25,8.08-15.99C510.35,172.24,509.42,166.65,505.87,163.06z M443.69,201.39c-11.36,0.23-22.73,0.011-34.1,0.12
	c2.95-4.979,5.77-10.029,8.75-14.99c11.31-0.02,22.62,0.011,33.93-0.01C449.38,191.45,446.5,196.39,443.69,201.39z"/>
<path fill="#F9BA01" d="M546.3,157.61c50.54-0.3,101.08-0.03,151.62-0.13c6.23-0.1,13.11,0.35,18.021,4.68
	c4.439,3.7,5.67,10.23,3.739,15.55c-2.52,7.04-6.779,13.26-10.21,19.87c-10.2,18.92-21.05,37.47-31.79,56.09
	c-2.33,4.061-5.029,7.99-6.37,12.53c-13.079,0.75-26.21,0.069-39.319,0.34c-2.9-0.14-6.04,0.479-8.74-0.83
	c-1.68-1.79,0.02-3.88,0.85-5.61c14.051-24.16,27.971-48.399,41.98-72.6c-5.75,0.02-11.5,0.01-17.25,0.02
	c-14.01,24.4-28.11,48.75-42.19,73.11c-0.989,1.761-1.67,3.66-2.319,5.56c-10.771,0.74-21.58,0.131-32.36,0.32
	c-5.28-0.21-10.64,0.521-15.85-0.4c-2.54-0.829-1.41-3.789-0.351-5.399c14.141-24.38,28.21-48.8,42.32-73.21
	c-5.76,0.02-11.5,0.01-17.25,0.02c-14.01,24.4-28.12,48.75-42.19,73.121c-0.989,1.76-1.67,3.659-2.33,5.56
	c-11.079,0.72-22.21,0.12-33.31,0.31c-5.29-0.21-10.66,0.53-15.88-0.4c-2.521-0.819-1.46-3.719-0.39-5.329
	C506.59,226.4,526.51,192.04,546.3,157.61z"/>
<path fill="#F9BA01" d="M271.73,161.79c11.11-3.16,22.79-2.4,34.2-2.33c21.69,0.07,43.38-0.01,65.07,0.03
	c2.01-0.22,3.7,0.94,5.27,2.04c-3.64,6.85-7.84,13.38-11.659,20.13c-1.16,1.89-2.091,4-3.721,5.55c-3.25,0.56-6.58,0.271-9.859,0.32
	c-16.771-0.021-33.54-0.03-50.311,0.01c-15.15,25.92-30.229,51.89-45.33,77.84c-0.83,2.36-3.44,2.12-5.45,2.16
	c-15.98-0.03-31.96-0.06-47.93,0.021c-1.91-0.041-3.88,0.029-5.66-0.75c-0.69-1.591,0.3-3.051,1.03-4.4
	c11.22-19.16,22.16-38.49,33.42-57.63c6.02-10.38,11.87-21.021,19.97-29.96C256.36,168.64,263.67,163.99,271.73,161.79z"/>
<path fill="#F9BA01" d="M166.02,164.62c-13.65,7.88-27.26,15.82-40.93,23.67c-0.02,15.82-0.02,31.65,0,47.47
	c13.65,7.88,27.29,15.78,40.92,23.69c13.65-7.87,27.26-15.79,40.9-23.66c0.02-15.84,0.01-31.67,0.01-47.51
	C193.28,180.4,179.66,172.49,166.02,164.62z M166.03,252.61c-11.71-6.78-23.43-13.54-35.12-20.351c0.02-13.49,0.02-26.97-0.01-40.45
	c11.7-6.819,23.42-13.56,35.13-20.359c11.68,6.77,23.38,13.53,35.06,20.319c-0.02,13.5-0.03,27.011,0.01,40.521
	C189.42,239.09,177.72,245.83,166.03,252.61z"/>
</svg>
