<svg id="Layer_1" data-name="Layer 1" xmlns="http://www.w3.org/2000/svg" viewBox="0 0 100 120"><defs><style>.cls-1{fill:#ff67f0;}</style></defs><title>engineer</title><rect x="6.82" y="6.86" width="86.36" height="86.96"/><path class="cls-1" d="M0,0V100.69H38.91L50,120l11.09-19.31H100V0ZM93.18,93.82H6.82v-87H93.18Z"/><path class="cls-1" d="M50,19.28,22.53,35.14V66.86L50,82.72,77.47,66.86V35.14Zm-20.47,22L51.76,28.39,70.47,39.18V61.09L48.52,73.78l-19-11Z"/><path class="cls-1" d="M55.4,44.6A8.37,8.37,0,1,0,43.6,56.4,8.37,8.37,0,1,0,55.4,44.6ZM49,55.38a5.27,5.27,0,0,1-3.26-1.12A5.27,5.27,0,0,1,44.62,51,5.39,5.39,0,0,1,50,45.62a5.27,5.27,0,0,1,3.26,1.12A5.27,5.27,0,0,1,54.38,50,5.39,5.39,0,0,1,49,55.38Z"/></svg>