<?xml version="1.0" encoding="utf-8"?>
<!-- Generator: Adobe Illustrator 16.0.0, SVG Export Plug-In . SVG Version: 6.00 Build 0)  -->
<!DOCTYPE svg PUBLIC "-//W3C//DTD SVG 1.1//EN" "http://www.w3.org/Graphics/SVG/1.1/DTD/svg11.dtd">
<svg version="1.1" id="Layer_1" xmlns="http://www.w3.org/2000/svg" xmlns:xlink="http://www.w3.org/1999/xlink" x="0px" y="0px"
	 width="2000px" height="2000px" viewBox="0 0 2000 2000" enable-background="new 0 0 2000 2000" xml:space="preserve">
<title>friends</title>
<rect x="280.333" y="114.333" width="1439.333" height="1449.333"/>
<path fill="#00D007" d="M166.666,0v1678.167h648.5L1000,2000l184.833-321.833h648.5V0H166.666z M1719.666,1563.667H280.333v-1450
	h1439.333V1563.667z"/>
<g>
	<path fill="#00D007" d="M810.799,456.335c96.612,0,175.215,78.603,175.215,175.214c0,96.613-78.603,175.214-175.215,175.214
		s-175.214-78.601-175.214-175.214C635.585,534.938,714.187,456.335,810.799,456.335 M810.799,388.291
		c-134.35,0-243.259,108.912-243.259,243.259c0,134.348,108.909,243.259,243.259,243.259c134.349,0,243.259-108.911,243.259-243.259
		C1054.058,497.202,945.148,388.291,810.799,388.291L810.799,388.291z"/>
	<path fill="#00D007" d="M1020.244,967.974c19.612,12.759,38.707,35.658,57.274,59.462c31.005,39.761,59.894,120.18,59.894,165.479
		v59.539H482.485v-59.539c0-45.2,29.892-125.723,61.063-165.688c18.438-23.643,38.07-46.395,57.766-59.146
		c62.708,39.252,134.424,59.825,209.379,59.825C885.723,1027.908,957.495,1007.3,1020.244,967.974 M1011.012,891.56
		c-55.452,42.802-124.905,68.305-200.213,68.305c-75.25,0-144.655-25.466-200.09-68.208c-48.89,9.654-86.235,49.379-120.818,93.724
		c-40.932,52.486-75.45,147.43-75.45,207.535V1320.5h791.017v-127.584c0-60.105-33.351-154.837-74.281-207.322
		C1096.473,941.096,1060.09,901.083,1011.012,891.56L1011.012,891.56z"/>
</g>
<g>
	<path fill="#00D007" d="M1277.567,478.45c-98.801,0-178.905,80.088-178.905,178.889c0,98.8,80.104,178.889,178.905,178.889
		s178.889-80.088,178.889-178.889C1456.455,558.538,1376.367,478.45,1277.567,478.45z M1277.567,786.199
		c-71.057,0-128.859-57.805-128.859-128.859c0-71.039,57.803-128.843,128.859-128.843c71.04,0,128.842,57.804,128.842,128.843
		C1406.408,728.394,1348.606,786.199,1277.567,786.199z"/>
	<path fill="#00D007" d="M1513.171,917.71c-25.517-32.728-52.275-62.158-88.371-69.149c-40.777,31.472-91.86,50.216-147.233,50.216
		c-55.336,0-106.387-18.712-147.146-50.149c-33.256,6.566-59.267,32.049-83.115,61.648l39.042,30.86
		c11.925-14.7,24.494-28.24,36.964-36.303c46.115,28.869,98.953,43.989,154.068,43.989c55.184,0,108.056-15.157,154.205-44.075
		c14.425,9.392,28.817,26.231,42.478,43.737c22.796,29.241,44.4,88.371,44.4,121.679v44.501h-330.118l11.09,49.332h368.36v-93.833
		C1567.794,1025.969,1543.264,956.31,1513.171,917.71z"/>
</g>
</svg>
