<svg id="Layer_1" data-name="Layer 1" xmlns="http://www.w3.org/2000/svg" viewBox="0 0 100 120"><defs><style>.cls-1{fill:lime;}.cls-2{fill:#006837;}</style></defs><title>friends</title><rect x="6.82" y="6.86" width="86.36" height="86.96"/><path class="cls-1" d="M57.91,79.23H19.37a5.6,5.6,0,0,1-5.57-6.07c.73-8.86,4-15.61,9.82-20.06a2.27,2.27,0,0,1,2.75,0c1.27,1,4.43,2.12,12.23,2,7.88.11,11-1,12.31-2a2.27,2.27,0,0,1,2.74,0c5.79,4.45,9.09,11.2,9.82,20.06a5.6,5.6,0,0,1-5.56,6.07ZM25.22,57.71c-4.06,3.65-6.31,8.85-6.89,15.83a1,1,0,0,0,.27.77,1,1,0,0,0,.77.35H57.91a1,1,0,0,0,.76-.35,1,1,0,0,0,.27-.77c-.57-7-2.83-12.18-6.88-15.83-2.89,1.39-7.31,2-13.46,1.95C32.54,59.73,28.1,59.1,25.22,57.71Z"/><path class="cls-1" d="M38.64,52A14.45,14.45,0,1,1,53,37.54,14.42,14.42,0,0,1,38.64,52Zm0-24.32a9.87,9.87,0,1,0,9.8,9.87A9.84,9.84,0,0,0,38.64,27.67Z"/><path class="cls-2" d="M77.25,50.16a1.69,1.69,0,0,0-2,0c-.93.71-3.27,1.56-9.13,1.46-5.8.1-8.14-.75-9.09-1.46a1.67,1.67,0,0,0-2,0,4.29,4.29,0,0,0-.72.64,3.82,3.82,0,0,1,.82.48,25.4,25.4,0,0,1,3.31,3.07,31.36,31.36,0,0,0,7.71.68c4.57.07,7.86-.41,10-1.44,3,2.7,4.68,6.57,5.11,11.76a.77.77,0,0,1-.77.83H64.61a30.36,30.36,0,0,1,.71,3.39H80.41a4.15,4.15,0,0,0,4.14-4.51C84,58.49,81.55,53.48,77.25,50.16Z"/><path class="cls-2" d="M66.1,49.14A10.74,10.74,0,1,1,76.76,38.41,10.71,10.71,0,0,1,66.1,49.14Zm0-18.07a7.34,7.34,0,1,0,7.28,7.34A7.31,7.31,0,0,0,66.1,31.07Z"/><path class="cls-1" d="M0,0V100.69H38.91L50,120l11.09-19.31H100V0ZM93.18,93.82H6.82v-87H93.18Z"/></svg>