<svg id="Layer_1" data-name="Layer 1" xmlns="http://www.w3.org/2000/svg" viewBox="0 0 100 120"><defs><style>.cls-1{fill:red;}</style></defs><title>ship</title><rect x="6.82" y="6.86" width="86.36" height="86.96"/><path class="cls-1" d="M0,0V100.69H38.91L50,120l11.09-19.31H100V0ZM93.18,93.82H6.82v-87H93.18Z"/><path class="cls-1" d="M60.14,34.42,56.43,32a1.16,1.16,0,0,0-.65-.2H44.23a1.22,1.22,0,0,0-.66.2l-3.71,2.47c-18.19,13-29.33,21.43-29.33,32v1.49a1.14,1.14,0,0,0,1.13,1.14H88.34a1.14,1.14,0,0,0,1.13-1.14V66.43C89.47,55.85,78.33,47.38,60.14,34.42ZM49.43,35.67l.57-.39.6.4,4,2.66a.24.24,0,0,1,.07.32l-3.33,5.69a.24.24,0,0,1-.42,0l-.69-1.14a.24.24,0,0,0-.42,0l-.68,1.14a.24.24,0,0,1-.42,0l-3.34-5.69a.24.24,0,0,1,.08-.32ZM16.41,63a13.52,13.52,0,0,1,1.42-2.74.58.58,0,0,1,1,.07L20,63a.58.58,0,0,1-.52.81H17.21C16.54,63.81,16.27,63.4,16.41,63Zm7.07-.46L19.89,58a.24.24,0,0,1,0-.31c3.14-3.43,8-7,14.22-11.45a.24.24,0,0,1,.36.3l-8.24,16a.25.25,0,0,1-.22.13l-2.36-.05A.22.22,0,0,1,23.48,62.56ZM36.79,44.38a.28.28,0,0,1,.09-.1c1.89-1.34,3.89-2.74,6-4.24l.58-.39,4.61,6.15a.24.24,0,0,1,0,.27l-1,1.75-.07.07-14,10a.24.24,0,0,1-.34-.06l-.93-1.38a.24.24,0,0,1,0-.23Zm-3.63,19L46.67,50.6a.26.26,0,0,1,.19-.07l2.4.24a7.32,7.32,0,0,0,1.48,0l2.41-.24a.26.26,0,0,1,.19.07l13.5,12.79a.24.24,0,0,1-.16.42H33.33A.24.24,0,0,1,33.16,63.39Zm33.9-5.53-14-10L53,47.82l-1-1.75a.24.24,0,0,1,0-.27l4.61-6.15.58.39c2.1,1.5,4.11,2.91,6,4.24a.23.23,0,0,1,.08.11l5.15,11.8a.27.27,0,0,1,0,.23l-.93,1.38A.25.25,0,0,1,67.06,57.86Zm6.7,4.72-8.23-16a.24.24,0,0,1,.36-.31c6.24,4.43,11.08,8,14.21,11.45a.24.24,0,0,1,0,.31l-3.58,4.57a.26.26,0,0,1-.19.1L74,62.71A.25.25,0,0,1,73.76,62.58Zm6,.88,1.64-3.62a.25.25,0,0,1,.43,0,13.18,13.18,0,0,1,1.92,3.69.26.26,0,0,1-.24.32H80A.24.24,0,0,1,79.76,63.46Z"/></svg>