<svg id="Layer_1" data-name="Layer 1" xmlns="http://www.w3.org/2000/svg" viewBox="0 0 100 120"><defs><style>.cls-1{fill:aqua;}</style></defs><title>wing</title><rect x="6.82" y="6.86" width="86.36" height="86.96"/><path class="cls-1" d="M0,0V100.69H38.91L50,120l11.09-19.31H100V0ZM93.18,93.82H6.82v-87H93.18Z"/><path class="cls-1" d="M78.59,55.93A29,29,0,0,0,58.07,22.32a2,2,0,0,0,0-.25,8.33,8.33,0,0,0-16.65,0c0,.17,0,.34,0,.5A29,29,0,0,0,21.2,50.21a28.71,28.71,0,0,0,.47,5.19,7.9,7.9,0,0,0,6.86,14,28.92,28.92,0,0,0,42.91.44,8,8,0,0,0,2.66.45,7.9,7.9,0,0,0,4.49-14.4Zm-3-1.26a8.4,8.4,0,0,0-1.51-.14,7.9,7.9,0,0,0-5.41,13.66,25.79,25.79,0,0,1-37.34-.34A7.9,7.9,0,0,0,26.15,54a8.18,8.18,0,0,0-1.49.14,25.52,25.52,0,0,1-.3-3.93A25.86,25.86,0,0,1,42.24,25.64a8.32,8.32,0,0,0,15.14-.22A25.85,25.85,0,0,1,76,50.21,26.23,26.23,0,0,1,75.61,54.67Z"/></svg>