<?xml version="1.0" encoding="utf-8"?>
<!-- Generator: Adobe Illustrator 16.0.0, SVG Export Plug-In . SVG Version: 6.00 Build 0)  -->
<!DOCTYPE svg PUBLIC "-//W3C//DTD SVG 1.1//EN" "http://www.w3.org/Graphics/SVG/1.1/DTD/svg11.dtd">
<svg version="1.1" id="Layer_2" xmlns="http://www.w3.org/2000/svg" xmlns:xlink="http://www.w3.org/1999/xlink" x="0px" y="0px"
	 width="1827.744px" height="534.588px" viewBox="84.396 732.706 1827.744 534.588"
	 enable-background="new 84.396 732.706 1827.744 534.588" xml:space="preserve">
<g>
	<g>
		<path d="M1249.351,856.701c18.562-21.285,46.033-34.649,76.476-34.649c30.441,0,57.914,13.364,76.476,34.649h105.928
			c-27.472-72.516-98.751-123.995-182.403-123.995c-83.653,0-154.932,51.727-182.403,123.995H1249.351z"/>
		<path d="M1426.804,912.14c0.495,3.712,0.495,7.178,0.495,10.89c0,55.687-45.539,100.978-101.473,100.978
			s-101.473-45.291-101.473-100.978c0-3.712,0.247-7.425,0.495-10.89h-93.058c-0.248,3.712-0.248,7.178-0.248,10.89
			c0,105.185,87.118,190.57,194.53,190.57c107.413,0,194.53-85.386,194.53-190.57c0-3.712-0.247-7.425-0.247-10.89H1426.804z"/>
	</g>
	<g>
		<rect x="84.396" y="745.823" width="93.553" height="110.878"/>
		<polygon points="177.948,912.14 84.396,912.14 84.396,1098.998 371.736,1098.998 371.736,1023.017 177.948,1023.017 		"/>
	</g>
	<g>
		<polygon points="689.023,856.701 647.692,745.823 548.941,745.823 505.631,856.701 		"/>
		<polygon points="615.271,912.14 635.07,967.826 555.624,967.826 575.424,912.14 483.852,912.14 410.593,1098.998 
			508.601,1098.998 530.875,1036.877 659.819,1036.877 682.094,1098.998 779.359,1098.998 709.565,912.14 		"/>
	</g>
	<g>
		<polygon points="1821.062,912.14 1821.062,973.766 1776.266,912.14 1675.288,912.14 1821.062,1098.998 1912.14,1098.998 
			1912.14,912.14 		"/>
		<polygon points="1735.924,856.701 1655.488,745.823 1564.163,745.823 1564.163,856.701 		"/>
		<rect x="1821.062" y="745.823" width="91.078" height="110.878"/>
		<rect x="1564.163" y="912.14" width="91.077" height="187.105"/>
	</g>
	<g>
		<polygon points="1134.266,745.823 1025.121,745.823 935.775,856.701 1041.95,856.701 		"/>
		<g>
			<polygon points="819.205,912.14 819.205,1098.998 912.016,1098.998 912.016,950.254 1032.793,1098.998 1146.888,1098.998 
				990.472,912.14 			"/>
			<rect x="819.205" y="745.823" width="92.811" height="110.878"/>
		</g>
	</g>
	<g>
		<g>
			<polygon points="1650.291,1177.453 1650.785,1177.453 1678.506,1177.453 1666.378,1144.536 1634.946,1144.536 1622.818,1177.453 
							"/>
			<polygon points="1657.716,1199.48 1663.902,1218.785 1636.926,1218.785 1643.113,1199.48 1614.404,1199.48 1590.893,1262.591 
				1622.324,1262.591 1629.996,1241.555 1671.08,1241.555 1678.258,1262.591 1710.432,1262.591 1686.92,1199.48 			"/>
		</g>
		<g>
			<path d="M1847.297,1177.453c0-0.495-0.248-0.742-0.248-1.237c0-7.672,8.167-10.147,14.85-10.147
				c8.662,0,17.572,2.97,18.81,11.385h30.689c-1.732-24.502-24.502-35.144-47.024-35.144c-22.027,0-47.766,9.899-48.014,35.144
				H1847.297z"/>
			<path d="M1900.755,1199.48h-75.485c6.682,6.435,16.334,9.899,25.739,12.622c17.077,4.702,33.907,6.683,33.907,17.324
				c0,8.662-9.652,12.128-18.811,12.128c-13.117,0-21.779-4.455-22.273-18.315h-30.689c0.247,30.194,24.254,42.074,51.23,42.074
				c25.987,0,51.479-9.652,51.479-39.599C1915.604,1212.845,1909.417,1204.925,1900.755,1199.48z"/>
		</g>
		<g>
			<path d="M895.929,1177.453c0-0.495-0.247-0.742-0.247-1.237c0-7.672,8.167-10.147,14.85-10.147c8.662,0,17.572,2.97,18.81,11.385
				h30.937c-1.732-24.502-24.502-35.144-47.024-35.144c-22.026,0-47.766,9.899-48.014,35.144H895.929z"/>
			<path d="M949.388,1199.48h-75.485c6.682,6.435,16.334,9.899,25.738,12.622c17.078,4.702,33.907,6.683,33.907,17.324
				c0,8.662-9.652,12.128-18.81,12.128c-13.117,0-21.779-4.455-22.274-18.315h-30.689c0.248,30.194,24.255,42.074,51.231,42.074
				c25.987,0,51.479-9.652,51.479-39.599C964.237,1212.845,958.05,1204.925,949.388,1199.48z"/>
		</g>
		<g>
			<path d="M1012.993,1177.453v-8.167h20.79c6.93,0,12.622,2.475,15.097,8.167h31.927c-2.475-24.007-21.779-32.669-42.321-32.669
				h-56.182v32.669H1012.993z"/>
			<path d="M1033.783,1199.48h-20.79h-30.688v63.11h30.688v-39.352h25.245c20.294,0,34.648-6.93,40.341-23.759H1033.783z"/>
		</g>
		<g>
			<polygon points="1136.74,1177.453 1137.235,1177.453 1164.955,1177.453 1152.828,1144.536 1121.396,1144.536 1109.269,1177.453 
							"/>
			<polygon points="1144.165,1199.48 1150.353,1218.785 1123.376,1218.785 1129.563,1199.48 1100.854,1199.48 1077.342,1262.591 
				1108.773,1262.591 1116.446,1241.555 1157.53,1241.555 1164.707,1262.591 1196.882,1262.591 1173.369,1199.48 			"/>
		</g>
		<g>
			<path d="M1237.718,1177.453c4.455-5.444,10.89-8.662,19.553-8.662c8.909,0,15.839,2.97,20.047,8.662h33.164
				c-5.94-22.521-29.946-35.144-52.469-35.144c-25.987,0-45.044,14.354-53.706,35.144H1237.718z"/>
			<path d="M1257.271,1238.584c-19.8,0-27.472-17.571-27.472-35.144c0-1.485,0-2.723,0.247-4.208h-30.689
				c0,1.485-0.247,2.723-0.247,4.208c0,34.154,23.264,61.626,58.903,61.626c29.946,0,52.221-17.82,53.954-48.262h-30.689
				C1280.04,1230.417,1271.625,1238.584,1257.271,1238.584z"/>
		</g>
		<g>
			<polygon points="1361.713,1213.835 1419.626,1213.835 1419.626,1199.48 1330.776,1199.48 1330.776,1262.591 1426.557,1262.591 
				1426.557,1236.109 1361.713,1236.109 			"/>
			<polygon points="1361.713,1177.453 1361.713,1169.286 1425.071,1169.286 1425.071,1144.536 1330.776,1144.536 1330.776,1177.453 
							"/>
		</g>
		<g>
			<polygon points="1555.006,1199.48 1548.818,1230.912 1548.57,1230.912 1542.136,1199.48 1520.356,1199.48 1532.979,1262.591 
				1563.668,1262.591 1581.24,1199.48 			"/>
			<polygon points="1537.682,1177.453 1531.246,1144.536 1502.289,1144.536 1495.607,1177.453 			"/>
			<polygon points="1587.18,1177.453 1596.337,1144.536 1565.648,1144.536 1559.213,1177.453 			"/>
			<polygon points="1474.075,1177.453 1467.888,1144.536 1436.951,1144.536 1445.861,1177.453 			"/>
			<polygon points="1491.152,1199.48 1484.717,1230.912 1484.47,1230.912 1478.529,1199.48 1451.801,1199.48 1468.878,1262.591 
				1500.31,1262.591 1512.684,1199.48 			"/>
		</g>
		<g>
			<polygon points="1728.004,1199.48 1739.141,1218.785 1739.141,1262.591 1770.078,1262.591 1770.078,1218.785 1781.215,1199.48 
							"/>
			<polygon points="1794.085,1177.453 1812.895,1144.536 1777.998,1144.536 1762.158,1177.453 			"/>
			<polygon points="1747.061,1177.453 1731.222,1144.536 1696.077,1144.536 1715.135,1177.453 			"/>
		</g>
	</g>
	<polygon points="842.718,1154.437 97.018,1154.437 119.787,1177.453 842.718,1177.453 	"/>
	<polygon points="141.814,1199.48 164.583,1222.25 842.718,1222.25 842.718,1199.48 	"/>
	<polygon points="186.61,1244.524 209.38,1267.294 842.718,1267.294 842.718,1244.524 	"/>
</g>
</svg>
