<?xml version="1.0" encoding="utf-8"?>
<!-- Generator: Adobe Illustrator 16.0.0, SVG Export Plug-In . SVG Version: 6.00 Build 0)  -->
<!DOCTYPE svg PUBLIC "-//W3C//DTD SVG 1.1//EN" "http://www.w3.org/Graphics/SVG/1.1/DTD/svg11.dtd">
<svg version="1.1" id="Layer_1" xmlns="http://www.w3.org/2000/svg" xmlns:xlink="http://www.w3.org/1999/xlink" x="0px" y="0px"
	 width="1180px" height="113px" viewBox="80 80 1180 113" enable-background="new 80 80 1180 113" xml:space="preserve">
<g transform="translate(0.000000,268.000000) scale(0.100000,-0.100000)">
	<path fill="#E5E5E5" d="M12599.999,1640v240h-1000V760h1000v240h-760v200h600v240h-600v200H12599.999z M11310.995,934.004
		c-66.992,85.996-121.992,160.996-123.994,166.992c-1.006,5,22.998,18.008,52.998,29.004c70,24.004,122.998,79.004,144.004,150.996
		c21.992,73.003,21.992,374.004,0.996,447.002c-19.004,63.003-57.002,109.004-110,133.003
		c-37.002,16.997-75.996,18.999-517.002,18.999h-477.998V760h240v360h297.998l147.998-185l149.004-185h152.998
		c122.002,0,154.004,2.998,157.998,14.004C11429.003,772.002,11380.995,844.004,11310.995,934.004z M11159.999,1360h-640v280h640
		V1360z M10047.001,1852.998c-41.006,22.002-47.998,22.002-502.002,24.004c-522.998,2.998-517.998,3.999-557.998-71.001
		c-22.002-40-22.002-50-25-476.001c-4.004-499.004-2.998-502.998,70.996-542.998c41.006-22.002,49.004-22.002,497.002-25
		c522.002-4.004,522.998-2.998,562.998,70.996c22.002,41.006,22.002,50,25,477.002
		C10122.001,1808.999,10120.995,1812.998,10047.001,1852.998z M9839.999,1000h-640v640h640V1000z M8839.999,1640v240l-497.002-1.001
		c-565,0-557.002,1.001-595.996-72.998c-22.002-40-22.002-50-25-476.001c-4.004-499.004-2.998-502.998,70.996-542.998
		c42.002-22.002,47.002-22.002,545-25l502.002-2.998V1000h-880v640H8839.999z M7359.999,1880V760h240v1120H7359.999z M6119.999,1880
		v-240h440V760h240v880h440v240H6119.999z M5760,1880l-2.002-366.001L5755,1149.004l-315,364.995L5125,1880h-245V760h240
		l2.002,367.998l2.998,369.004l315-367.998l315-368.008h122.998L5999.999,760v1120H5760z M4681,760l-3.003,502.998
		C4675,1746.001,4673.999,1766.001,4655,1800c-12.002,18.999-37.998,43.999-60,55c-37.998,18.999-62.002,20-440,22.002
		c-220,0.996-415-2.002-432.002-6.001c-45.996-12.002-80-36.001-100-73.999c-15.996-29.004-17.998-76.001-20.996-534.004
		L3598.999,760H3800v360h680V760H4681z M3800,1360v280h680v-280H3800z M3242.998,1880L3125,1878.999l-190-200
		c-103.999-110-195-197.998-201.001-196.997c-6.001,1.997-88.999,91.997-183.999,200.996L2377.998,1880H2120V760h240v690
		l156.001-177.002c182.998-208.994,208.999-233.994,227.998-227.002c8.003,3.008,93.999,98.008,193.003,211.006L3115,1462.998
		l2.998-352.002L3120,760h240v1120H3242.998z M800,1880V750h1120v1130H800z"/>
</g>
</svg>
