<?xml version="1.0" encoding="utf-8"?>
<!-- Generator: Adobe Illustrator 16.0.0, SVG Export Plug-In . SVG Version: 6.00 Build 0)  -->
<!DOCTYPE svg PUBLIC "-//W3C//DTD SVG 1.1//EN" "http://www.w3.org/Graphics/SVG/1.1/DTD/svg11.dtd">
<svg version="1.1" id="Layer_1" xmlns="http://www.w3.org/2000/svg" xmlns:xlink="http://www.w3.org/1999/xlink" x="0px" y="0px"
	 width="1788.214px" height="602.21px" viewBox="92.081 667.588 1788.214 602.21"
	 enable-background="new 92.081 667.588 1788.214 602.21" xml:space="preserve">
<g>
	<g>
		<g>
			<path fill="#010101" d="M235.728,940.147c22.1,0,151.013,18.416,377.532-117.864c248.619-149.171,421.73-147.329,433.701-147.329
				s14.733,11.971-6.445,14.732c-155.617,16.575-256.906,104.052-377.532,174.954s-245.856,94.844-342.541,94.844
				C217.311,958.563,221.915,940.147,235.728,940.147z"/>
		</g>
		<g>
			<path fill="#010101" d="M1104.052,667.588c-2.763-5.525-9.208-3.684-27.624,20.258c-19.338,26.703-69.982,85.635-129.835,150.092
				c-58.932,65.377-92.081,102.21-98.526,107.734c-5.525,5.525-10.129,11.05,13.813,10.129
				c23.94-0.921,101.289-13.812,163.903-52.486c62.615-38.674,146.409-122.468,258.748-163.903
				c112.339-42.357,174.954-50.646,173.112-56.17c-1.842-5.525-22.1-6.445-58.932-1.842
				c-36.832,4.604-137.201,24.862-225.599,69.981c-88.397,45.12-157.458,92.081-158.379,91.16s46.961-73.664,67.219-108.655
				C1108.655,686.004,1106.814,673.112,1104.052,667.588z"/>
		</g>
		<g>
			<path fill="#010101" d="M1212.707,831.491c-14.732,9.209-23.021,22.1-6.445,32.229c16.574,10.129,68.14,46.962,237.568,69.062
				c169.43,22.099,290.056,11.97,295.58,8.287c5.525-4.604,8.287-9.208-10.129-11.05c-18.416-2.763-175.875-9.208-267.035-31.308
				s-168.508-51.565-202.578-69.981C1235.728,814.917,1227.44,822.283,1212.707,831.491z"/>
		</g>
	</g>
	<g>
		<g>
			<path fill="#010101" d="M226.52,1104.973c0,0-5.525-50.645-62.615-50.645c-47.882,0-65.377,28.545-65.377,53.406
				c0,24.862,13.812,37.754,61.694,57.091c47.882,19.337,53.407,33.149,53.407,53.407s-15.654,41.437-46.961,41.437
				c-27.624,0-45.12-8.288-57.09-43.278l-17.495,3.683c0,0,3.683,49.725,73.665,49.725c69.981,0,67.219-43.278,67.219-56.17
				s-7.366-35.911-42.357-49.724c-36.833-14.733-77.348-29.466-76.427-58.932c0.92-28.546,25.782-41.437,47.882-41.437
				s42.357,21.179,42.357,35.911L226.52,1104.973z"/>
		</g>
		<g>
			<polygon fill="#010101" points="265.193,1265.193 325.967,1101.289 384.898,1265.193 406.077,1265.193 331.492,1058.932 
				316.759,1058.932 319.521,1067.219 244.936,1265.193 			"/>
		</g>
		<g>
			<path fill="#010101" d="M452.118,1058.932c0,0,0.921,99.447,0,133.518c0,21.179,5.524,66.299,52.485,66.299
				c46.962,0,53.407-45.12,53.407-66.299c0-33.149,0-133.518,0-133.518h22.1c0,0,0,99.447,0,133.518
				c0,25.783-11.05,75.507-74.585,75.507c-63.536,0-74.586-48.804-74.586-75.507c0-33.149,0-133.518,0-133.518H452.118z"/>
		</g>
		<g>
			<path fill="#010101" d="M1231.123,1058.932c0,0,0.921,99.447,0,133.518c0,21.179,5.525,66.299,52.486,66.299
				c46.962,0,53.407-45.12,53.407-66.299c0-33.149,0-133.518,0-133.518h22.1c0,0,0,99.447,0,133.518
				c0,25.783-11.05,75.507-74.586,75.507s-74.586-48.804-74.586-75.507c0-33.149,0-133.518,0-133.518H1231.123z"/>
		</g>
		<g>
			<path fill="#010101" d="M641.805,1058.932h-19.337v206.262h21.179c111.418,0,120.626-81.952,120.626-101.289
				C763.352,1143.646,754.144,1058.932,641.805,1058.932z M643.646,1255.985V1068.14c92.081,6.446,100.368,81.952,100.368,94.844
				C744.015,1176.796,736.648,1251.381,643.646,1255.985z"/>
		</g>
		<g>
			<polygon fill="#010101" points="1032.229,1265.193 924.494,1157.458 1022.1,1058.932 1000,1058.932 902.395,1157.458 
				902.395,1058.932 883.057,1058.932 883.057,1265.193 902.395,1265.193 902.395,1157.458 1009.208,1265.193 			"/>
		</g>
		<g>
			<path fill="#010101" d="M1137.201,1162.063c0,0,34.069-9.208,34.069-49.724s-35.911-53.407-63.536-53.407
				c-21.178,0-40.516,0-40.516,0h-19.337v206.262h19.337v-195.212h38.674c27.625,0,46.041,19.337,46.041,46.041
				c0,26.703-35.912,42.356-35.912,42.356l38.675,106.814h19.337L1137.201,1162.063z"/>
		</g>
		<g>
			<path fill="#010101" d="M1843.463,1162.063c0,0,34.069-9.208,34.069-49.724s-35.911-53.407-63.536-53.407
				c-21.179,0-40.516,0-40.516,0h-19.337v206.262h19.337v-195.212h38.674c27.625,0,46.041,19.337,46.041,46.041
				c0,26.703-35.912,42.356-35.912,42.356l38.675,106.814h19.337L1843.463,1162.063z"/>
		</g>
		<g>
			<path fill="#010101" d="M1541.437,1163.904h-3.684h-16.574h-36.833v11.05h36.833c0,47.882-1.842,85.635-48.804,85.635
				c-51.564,0-58.01-44.198-58.01-98.526s7.365-98.526,58.01-98.526c29.467,0,41.438,14.732,46.041,38.674l19.337-6.445
				c-6.445-24.862-22.099-39.596-63.536-39.596c-70.902,0-80.109,37.754-80.109,105.894s10.129,105.894,80.109,105.894
				C1544.199,1268.877,1542.357,1225.599,1541.437,1163.904z"/>
		</g>
		<g>
			<polygon fill="#010101" points="1730.203,1069.981 1730.203,1058.932 1610.497,1058.932 1605.893,1058.932 1590.239,1058.932 
				1590.239,1265.193 1605.893,1265.193 1610.497,1265.193 1730.203,1265.193 1730.203,1255.064 1610.497,1255.064 
				1610.497,1158.379 1707.182,1158.379 1707.182,1148.25 1610.497,1148.25 1610.497,1069.981 			"/>
		</g>
	</g>
</g>
</svg>
