<?xml version="1.0" encoding="UTF-8" standalone="no"?>
<!-- Created with Inkscape (http://www.inkscape.org/) -->

<svg
   xmlns:dc="http://purl.org/dc/elements/1.1/"
   xmlns:cc="http://creativecommons.org/ns#"
   xmlns:rdf="http://www.w3.org/1999/02/22-rdf-syntax-ns#"
   xmlns:svg="http://www.w3.org/2000/svg"
   xmlns="http://www.w3.org/2000/svg"
   xmlns:sodipodi="http://sodipodi.sourceforge.net/DTD/sodipodi-0.dtd"
   xmlns:inkscape="http://www.inkscape.org/namespaces/inkscape"
   width="203.40858mm"
   height="209.05785mm"
   viewBox="0 0 720.73908 740.75614"
   id="svg5823"
   version="1.1"
   inkscape:version="0.48.4 r9939"
   sodipodi:docname="rank-1-cqc.svg"
   inkscape:export-filename="C:\Users\Pedro\Pictures\Frontier Developments\Elite Dangerous\Other\rank-1-cqc.png"
   inkscape:export-xdpi="90"
   inkscape:export-ydpi="90">
  <defs
     id="defs5825" />
  <sodipodi:namedview
     id="base"
     pagecolor="#ffffff"
     bordercolor="#666666"
     borderopacity="1.0"
     inkscape:pageopacity="0.0"
     inkscape:pageshadow="2"
     inkscape:zoom="1"
     inkscape:cx="360.36954"
     inkscape:cy="370.37808"
     inkscape:document-units="px"
     inkscape:current-layer="layer1"
     showgrid="false"
     fit-margin-top="0"
     fit-margin-left="0"
     fit-margin-right="0"
     fit-margin-bottom="0"
     inkscape:window-width="1680"
     inkscape:window-height="987"
     inkscape:window-x="-8"
     inkscape:window-y="-8"
     inkscape:window-maximized="1" />
  <metadata
     id="metadata5828">
    <rdf:RDF>
      <cc:Work
         rdf:about="">
        <dc:format>image/svg+xml</dc:format>
        <dc:type
           rdf:resource="http://purl.org/dc/dcmitype/StillImage" />
        <dc:title></dc:title>
      </cc:Work>
    </rdf:RDF>
  </metadata>
  <g
     inkscape:label="Layer 1"
     inkscape:groupmode="layer"
     id="layer1"
     transform="translate(134.65524,-610.55556)">
    <g
       id="g4337"
       transform="translate(-368.01176,550.57264)">
      <g
         transform="matrix(4.0041057,0,0,4.0041057,1517.2254,-471.67883)"
         id="g4325">
        <path
           inkscape:connector-curvature="0"
           id="path4327"
           d="m -230.63811,132.77915 -5,25 -25,5 25,5 5,25 5,-25 25,-5 -25,-5 z"
           style="fill:#8a050c;fill-opacity:1;fill-rule:evenodd;stroke:none;stroke-width:1px;stroke-linecap:butt;stroke-linejoin:round;stroke-opacity:1" />
        <path
           id="path4329"
           d="m -300.63811,277.77825 -4,16 -16,4 16,4 4,16 4,-16 16,-4 -16,-4 -4,-16 z"
           style="color:#000000;clip-rule:nonzero;display:inline;overflow:visible;visibility:visible;opacity:1;isolation:auto;mix-blend-mode:normal;color-interpolation:sRGB;color-interpolation-filters:linearRGB;solid-color:#000000;solid-opacity:1;fill:#8a050c;fill-opacity:1;fill-rule:evenodd;stroke:none;stroke-width:1px;stroke-linecap:butt;stroke-linejoin:miter;stroke-miterlimit:4;stroke-dasharray:none;stroke-dashoffset:0;stroke-opacity:1;color-rendering:auto;image-rendering:auto;shape-rendering:auto;text-rendering:auto;enable-background:accumulate"
           inkscape:connector-curvature="0" />
        <g
           style="fill:#8a050c;fill-opacity:1;stroke:none;stroke-linejoin:round"
           transform="matrix(-1,0,0,1,2609.3619,1375.417)"
           id="g4331">
          <path
             inkscape:connector-curvature="0"
             id="path4333"
             d="m 2770,-1097.6387 -4,16 -16,4 16,4 4,16 4,-16 16,-4 -16,-4 -4,-16 z"
             style="color:#000000;clip-rule:nonzero;display:inline;overflow:visible;visibility:visible;opacity:1;isolation:auto;mix-blend-mode:normal;color-interpolation:sRGB;color-interpolation-filters:linearRGB;solid-color:#000000;solid-opacity:1;fill:#8a050c;fill-opacity:1;fill-rule:evenodd;stroke:none;stroke-width:1px;stroke-linecap:butt;stroke-linejoin:round;stroke-miterlimit:4;stroke-dasharray:none;stroke-dashoffset:0;stroke-opacity:1;color-rendering:auto;image-rendering:auto;shape-rendering:auto;text-rendering:auto;enable-background:accumulate" />
        </g>
        <path
           inkscape:connector-curvature="0"
           id="path4335"
           d="m -239.95651,196.42285 -1.5097,19.4316 2.5429,2.2695 0,6.627 8.2872,7.2793 8.2832,-7.2793 0,-6.627 2.5429,-2.2695 -1.5097,-19.4316 -4.8633,10.6054 -4.4531,3.3418 -4.459,-3.3418 -4.8614,-10.6054 z m -2.3593,31.291 0.6621,16.6191 11.0176,9.5274 11.0117,-9.5274 0.664,-16.6191 -11.6757,10.1933 -11.6797,-10.1933 z m -19.1543,20.0625 -11.1953,30.0605 42.0293,38.4336 -11.0586,-56.293 -11.5821,-11.8691 -8.1933,-0.332 z m 30.834,68.4941 42.0253,-38.4336 -11.1972,-30.0605 -8.1914,0.332 -11.5821,11.8691 -11.0546,56.293 z m -5.9532,-56.8691 5.9532,30.1347 5.9492,-30.1347 -5.9492,0 -5.9532,0 z"
           style="color:#000000;clip-rule:nonzero;display:inline;overflow:visible;visibility:visible;opacity:1;isolation:auto;mix-blend-mode:normal;color-interpolation:sRGB;color-interpolation-filters:linearRGB;solid-color:#000000;solid-opacity:1;fill:#ff0507;fill-opacity:1;fill-rule:evenodd;stroke:none;stroke-width:1px;stroke-linecap:butt;stroke-linejoin:round;stroke-miterlimit:4;stroke-dasharray:none;stroke-dashoffset:0;stroke-opacity:1;color-rendering:auto;image-rendering:auto;shape-rendering:auto;text-rendering:auto;enable-background:accumulate" />
      </g>
    </g>
  </g>
</svg>
