<?xml version="1.0" encoding="UTF-8" standalone="no"?>
<!-- Created with Inkscape (http://www.inkscape.org/) -->

<svg
   xmlns:dc="http://purl.org/dc/elements/1.1/"
   xmlns:cc="http://creativecommons.org/ns#"
   xmlns:rdf="http://www.w3.org/1999/02/22-rdf-syntax-ns#"
   xmlns:svg="http://www.w3.org/2000/svg"
   xmlns="http://www.w3.org/2000/svg"
   xmlns:sodipodi="http://sodipodi.sourceforge.net/DTD/sodipodi-0.dtd"
   xmlns:inkscape="http://www.inkscape.org/namespaces/inkscape"
   width="203.40858mm"
   height="219.47096mm"
   viewBox="0 0 720.73908 777.65301"
   id="svg5964"
   version="1.1"
   inkscape:version="0.48.4 r9939"
   sodipodi:docname="rank-4-cqc.svg"
   inkscape:export-filename="C:\Users\Pedro\Pictures\Frontier Developments\Elite Dangerous\Other\rank-4-cqc.png"
   inkscape:export-xdpi="90"
   inkscape:export-ydpi="90">
  <defs
     id="defs5966" />
  <sodipodi:namedview
     id="base"
     pagecolor="#ffffff"
     bordercolor="#666666"
     borderopacity="1.0"
     inkscape:pageopacity="0.0"
     inkscape:pageshadow="2"
     inkscape:zoom="1"
     inkscape:cx="360.36954"
     inkscape:cy="388.82651"
     inkscape:document-units="px"
     inkscape:current-layer="layer1"
     showgrid="false"
     fit-margin-top="0"
     fit-margin-left="0"
     fit-margin-right="0"
     fit-margin-bottom="0"
     inkscape:window-width="1680"
     inkscape:window-height="987"
     inkscape:window-x="-8"
     inkscape:window-y="-8"
     inkscape:window-maximized="1" />
  <metadata
     id="metadata5969">
    <rdf:RDF>
      <cc:Work
         rdf:about="">
        <dc:format>image/svg+xml</dc:format>
        <dc:type
           rdf:resource="http://purl.org/dc/dcmitype/StillImage" />
        <dc:title></dc:title>
      </cc:Work>
    </rdf:RDF>
  </metadata>
  <g
     inkscape:label="Layer 1"
     inkscape:groupmode="layer"
     id="layer1"
     transform="translate(-111.05904,-752.10713)">
    <g
       id="g4766"
       transform="translate(-122.29748,692.12421)">
      <g
         id="g4770"
         transform="matrix(4.0041057,0,0,4.0041057,1517.2254,-471.67883)">
        <path
           style="fill:#8a050c;fill-opacity:1;fill-rule:evenodd;stroke:none;stroke-width:1px;stroke-linecap:butt;stroke-linejoin:round;stroke-opacity:1"
           d="m -230.63811,132.77915 -5,25 -25,5 25,5 5,25 5,-25 25,-5 -25,-5 z"
           id="path4772"
           inkscape:connector-curvature="0" />
        <path
           inkscape:connector-curvature="0"
           style="color:#000000;clip-rule:nonzero;display:inline;overflow:visible;visibility:visible;opacity:1;isolation:auto;mix-blend-mode:normal;color-interpolation:sRGB;color-interpolation-filters:linearRGB;solid-color:#000000;solid-opacity:1;fill:#8a050c;fill-opacity:1;fill-rule:evenodd;stroke:none;stroke-width:1px;stroke-linecap:butt;stroke-linejoin:miter;stroke-miterlimit:4;stroke-dasharray:none;stroke-dashoffset:0;stroke-opacity:1;color-rendering:auto;image-rendering:auto;shape-rendering:auto;text-rendering:auto;enable-background:accumulate"
           d="m -300.63811,277.77825 -4,16 -16,4 16,4 4,16 4,-16 16,-4 -16,-4 -4,-16 z"
           id="path4774" />
        <g
           id="g4776"
           transform="matrix(-1,0,0,1,2609.3619,1375.417)"
           style="fill:#8a050c;fill-opacity:1;stroke:none;stroke-linejoin:round">
          <path
             style="color:#000000;clip-rule:nonzero;display:inline;overflow:visible;visibility:visible;opacity:1;isolation:auto;mix-blend-mode:normal;color-interpolation:sRGB;color-interpolation-filters:linearRGB;solid-color:#000000;solid-opacity:1;fill:#8a050c;fill-opacity:1;fill-rule:evenodd;stroke:none;stroke-width:1px;stroke-linecap:butt;stroke-linejoin:round;stroke-miterlimit:4;stroke-dasharray:none;stroke-dashoffset:0;stroke-opacity:1;color-rendering:auto;image-rendering:auto;shape-rendering:auto;text-rendering:auto;enable-background:accumulate"
             d="m 2770,-1097.6387 -4,16 -16,4 16,4 4,16 4,-16 16,-4 -16,-4 -4,-16 z"
             id="path4778"
             inkscape:connector-curvature="0" />
        </g>
      </g>
      <path
         inkscape:connector-curvature="0"
         style="color:#000000;clip-rule:nonzero;display:inline;overflow:visible;visibility:visible;opacity:1;isolation:auto;mix-blend-mode:normal;color-interpolation:sRGB;color-interpolation-filters:linearRGB;solid-color:#000000;solid-opacity:1;fill:#ff0507;fill-opacity:1;fill-rule:evenodd;stroke:none;stroke-width:4.00410557px;stroke-linecap:butt;stroke-linejoin:round;stroke-miterlimit:4;stroke-dasharray:none;stroke-dashoffset:0;stroke-opacity:1;color-rendering:auto;image-rendering:auto;shape-rendering:auto;text-rendering:auto;enable-background:accumulate"
         d="m 249.8398,197.74725 c 0,0 -1.67,67.54931 3.545,84.19531 5.397,17.217 25.7011,32.79298 25.7011,32.79298 l 113.4453,107.23828 0,25.70313 -77.9921,-71.78907 c 0,0 3.0463,71.60155 8.8613,83.31055 6.231,12.376 13.2949,16.83789 13.2949,16.83789 l 114.3281,103.69531 0,18.61133 -58.4941,-51.40429 c 0,0 -1.377,63.67986 9.75,78.88085 10.711,15.81801 23.043,25.70118 23.043,25.70118 l 168.3867,151.54493 -44.3028,-227.76564 -36.3378,-37.22461 -33.6797,-1.77148 -0.4414,-2.57031 c -0.8105,-7.78142 0.5391,-33.02882 42.0957,-69.2168 l 0,-23.93164 -271.1993,-242.83789 0,0 z M 593.709,803.06562 762.0976,651.5207 c 0,0 12.332,-9.88317 23.043,-25.70118 11.127,-15.201 9.75,-78.88085 9.75,-78.88085 l -58.4941,51.40429 0,-18.61133 114.3281,-103.69531 c 0,0 7.0639,-4.46189 13.2949,-16.83789 5.815,-11.709 8.8614,-83.31055 8.8614,-83.31055 l -77.9922,71.78907 0,-25.70313 113.4453,-107.23828 c 0,0 20.3042,-15.57597 25.7012,-32.79297 5.215,-16.646 3.5449,-84.19531 3.5449,-84.19531 l 0,0 -271.1993,242.83789 0,23.93164 c 41.5566,36.18798 42.9063,61.43538 42.0957,69.2168 l -0.4414,2.57031 -33.6796,1.77148 -36.3379,37.22461 -44.3047,227.76564 z m -25.6992,-484.78712 -11.5215,107.24023 7.9785,7.08985 0,23.92773 29.2422,24.81641 29.2441,-24.81641 0,-23.92773 7.9785,-7.08985 -11.5214,-107.24023 -7.0899,34.56641 -2.6601,41.65429 -15.9512,11.52149 -15.9492,-11.52149 -2.6602,-41.65429 -7.0898,-34.56641 z m -15.0664,146.23633 -8.8614,2.66015 -19.498,15.95313 26.5879,-0.88672 -0.8867,15.95312 -34.5645,8.86329 -16.8379,15.0664 55.834,0 38.9922,34.5625 38.9941,-34.5625 55.834,0 -16.8379,-15.0664 -34.5644,-8.86329 -0.8868,-15.95312 26.5879,0.88672 -19.498,-15.95313 -8.8613,-2.66015 -40.7676,36.33789 -40.7656,-36.33789 z m 14.1816,106.35351 26.584,135.60158 26.5859,-135.60158 -26.5859,0 -26.584,0 z m -17.7246,205.61528 0,22.1562 44.3086,38.9961 44.3105,-38.9961 0,-22.1562 -44.3105,37.2226 -44.3086,-37.2226 z"
         id="path4782" />
    </g>
  </g>
</svg>
