<?xml version="1.0" encoding="UTF-8" standalone="no"?>
<!-- Created with Inkscape (http://www.inkscape.org/) -->

<svg
   xmlns:dc="http://purl.org/dc/elements/1.1/"
   xmlns:cc="http://creativecommons.org/ns#"
   xmlns:rdf="http://www.w3.org/1999/02/22-rdf-syntax-ns#"
   xmlns:svg="http://www.w3.org/2000/svg"
   xmlns="http://www.w3.org/2000/svg"
   xmlns:sodipodi="http://sodipodi.sourceforge.net/DTD/sodipodi-0.dtd"
   xmlns:inkscape="http://www.inkscape.org/namespaces/inkscape"
   width="223.61374mm"
   height="219.47096mm"
   viewBox="0 0 792.33215 777.65301"
   id="svg6005"
   version="1.1"
   inkscape:version="0.48.4 r9939"
   sodipodi:docname="rank-5-cqc.svg"
   inkscape:export-filename="C:\Users\Pedro\Pictures\Frontier Developments\Elite Dangerous\Other\rank-5-cqc.png"
   inkscape:export-xdpi="90"
   inkscape:export-ydpi="90">
  <defs
     id="defs6007" />
  <sodipodi:namedview
     id="base"
     pagecolor="#ffffff"
     bordercolor="#666666"
     borderopacity="1.0"
     inkscape:pageopacity="0.0"
     inkscape:pageshadow="2"
     inkscape:zoom="1"
     inkscape:cx="396.16608"
     inkscape:cy="388.82651"
     inkscape:document-units="px"
     inkscape:current-layer="layer1"
     showgrid="false"
     fit-margin-top="0"
     fit-margin-left="0"
     fit-margin-right="0"
     fit-margin-bottom="0"
     inkscape:window-width="1680"
     inkscape:window-height="987"
     inkscape:window-x="-8"
     inkscape:window-y="-8"
     inkscape:window-maximized="1" />
  <metadata
     id="metadata6010">
    <rdf:RDF>
      <cc:Work
         rdf:about="">
        <dc:format>image/svg+xml</dc:format>
        <dc:type
           rdf:resource="http://purl.org/dc/dcmitype/StillImage" />
        <dc:title></dc:title>
      </cc:Work>
    </rdf:RDF>
  </metadata>
  <g
     inkscape:label="Layer 1"
     inkscape:groupmode="layer"
     id="layer1"
     transform="translate(21.16608,-143.53571)">
    <g
       transform="translate(-218.71283,83.552784)"
       id="g4907">
      <g
         transform="matrix(4.0041057,0,0,4.0041057,1517.2254,-471.67883)"
         id="g4909">
        <path
           inkscape:connector-curvature="0"
           id="path4911"
           d="m -230.63811,132.77915 -5,25 -25,5 25,5 5,25 5,-25 25,-5 -25,-5 z"
           style="fill:#8a050c;fill-opacity:1;fill-rule:evenodd;stroke:none;stroke-width:1px;stroke-linecap:butt;stroke-linejoin:round;stroke-opacity:1" />
        <path
           id="path4913"
           d="m -300.63811,277.77825 -4,16 -16,4 16,4 4,16 4,-16 16,-4 -16,-4 -4,-16 z"
           style="color:#000000;clip-rule:nonzero;display:inline;overflow:visible;visibility:visible;opacity:1;isolation:auto;mix-blend-mode:normal;color-interpolation:sRGB;color-interpolation-filters:linearRGB;solid-color:#000000;solid-opacity:1;fill:#8a050c;fill-opacity:1;fill-rule:evenodd;stroke:none;stroke-width:1px;stroke-linecap:butt;stroke-linejoin:miter;stroke-miterlimit:4;stroke-dasharray:none;stroke-dashoffset:0;stroke-opacity:1;color-rendering:auto;image-rendering:auto;shape-rendering:auto;text-rendering:auto;enable-background:accumulate"
           inkscape:connector-curvature="0" />
        <g
           style="fill:#8a050c;fill-opacity:1;stroke:none;stroke-linejoin:round"
           transform="matrix(-1,0,0,1,2609.3619,1375.417)"
           id="g4915">
          <path
             inkscape:connector-curvature="0"
             id="path4917"
             d="m 2770,-1097.6387 -4,16 -16,4 16,4 4,16 4,-16 16,-4 -16,-4 -4,-16 z"
             style="color:#000000;clip-rule:nonzero;display:inline;overflow:visible;visibility:visible;opacity:1;isolation:auto;mix-blend-mode:normal;color-interpolation:sRGB;color-interpolation-filters:linearRGB;solid-color:#000000;solid-opacity:1;fill:#8a050c;fill-opacity:1;fill-rule:evenodd;stroke:none;stroke-width:1px;stroke-linecap:butt;stroke-linejoin:round;stroke-miterlimit:4;stroke-dasharray:none;stroke-dashoffset:0;stroke-opacity:1;color-rendering:auto;image-rendering:auto;shape-rendering:auto;text-rendering:auto;enable-background:accumulate" />
        </g>
      </g>
      <path
         inkscape:connector-curvature="0"
         style="color:#000000;clip-rule:nonzero;display:inline;overflow:visible;visibility:visible;opacity:1;isolation:auto;mix-blend-mode:normal;color-interpolation:sRGB;color-interpolation-filters:linearRGB;solid-color:#000000;solid-opacity:1;fill:#ff0507;fill-opacity:1;fill-rule:evenodd;stroke:none;stroke-width:4.00410557px;stroke-linecap:butt;stroke-linejoin:round;stroke-miterlimit:4;stroke-dasharray:none;stroke-dashoffset:0;stroke-opacity:1;color-rendering:auto;image-rendering:auto;shape-rendering:auto;text-rendering:auto;enable-background:accumulate"
         d="m 197.54675,140.13786 c 0,71.425 3e-4,84.41224 12.4082,97.49024 0.1501,-0.31 135.5997,123.19337 135.5997,123.19337 l 0,25.70117 -77.9922,-70.90235 c 3.567,48.683 1.954,77.23232 19.498,93.94532 0.118,0.219 109.0137,98.375 109.0137,98.375 l 0,18.61132 -63.8125,-58.49414 c 0,27.617 -2.8906,67.76601 15.0664,85.08204 0.172,-0.036 246.3848,220.68359 246.3848,220.68359 l -42.543,-213.59375 -34.5645,-35.44922 -33.6777,0 -37.2246,-31.90625 c 0,0 -9.5745,-26.7076 40.7695,-70.01563 l 0,-20.38476 -288.9258,-262.33595 z m 396.1661,633.68556 c 0,0 246.21265,-220.7196 246.38465,-220.68359 17.957,-17.31603 15.0664,-57.46504 15.0664,-85.08204 l -63.8125,58.49414 0,-18.61132 c 0,0 108.8958,-98.156 109.0138,-98.375 17.544,-16.713 15.9311,-45.26232 19.4981,-93.94532 l -77.9923,70.90235 0,-25.70117 c 0,0 135.4497,-123.50337 135.5997,-123.19337 12.408,-13.078 12.4082,-26.06524 12.4082,-97.49024 l -288.92585,262.33595 0,20.38476 c 50.344,43.30803 40.7695,70.01563 40.7695,70.01563 l -37.2246,31.90625 -33.6777,0 -34.5645,35.44922 -42.5429,213.59375 z m -24.8184,-457.31641 -10.6348,101.91992 7.9786,7.08985 0,22.1582 27.4746,23.92774 27.4746,-23.92774 0,-22.1582 7.9785,-7.08985 -10.6348,-101.91992 -7.0918,32.79102 -2.6582,39.88281 -15.0683,10.63477 -15.0684,-10.63477 -2.6582,-39.88281 -7.0918,-32.79102 z m -13.293,140.03125 -8.8613,2.65821 -18.6133,15.0664 25.7031,-0.88476 -0.8867,14.17968 -32.791,8.86328 -15.9531,14.17969 52.2891,0 37.2246,31.90625 37.2246,-31.90625 52.289,0 -15.9531,-14.17969 -32.791,-8.86328 -0.8867,-14.17968 25.7031,0.88476 -18.6133,-15.0664 -8.8613,-2.65821 -38.1113,33.67774 -38.1114,-33.67774 z m 11.5235,99.26172 26.5879,135.60156 26.5879,-135.60156 -26.5879,0 -26.5879,0 z m -113.4434,107.23828 0,21.06836 c 0.3848,7.95654 1.3454,15.98388 3.5449,19.70117 4.711,8.573 9.7481,14.18164 9.7481,14.18164 l 126.7383,119.64649 126.7382,-119.64649 c 0,0 5.0371,-5.60864 9.7481,-14.18164 2.1995,-3.71729 3.1601,-11.74463 3.5449,-19.70117 l 0,-21.06836 -140.0312,127.625 -140.0313,-127.625 z"
         id="path4921" />
    </g>
  </g>
</svg>
