<?xml version="1.0" encoding="UTF-8" standalone="no"?>
<!-- Created with Inkscape (http://www.inkscape.org/) -->

<svg
   xmlns:dc="http://purl.org/dc/elements/1.1/"
   xmlns:cc="http://creativecommons.org/ns#"
   xmlns:rdf="http://www.w3.org/1999/02/22-rdf-syntax-ns#"
   xmlns:svg="http://www.w3.org/2000/svg"
   xmlns="http://www.w3.org/2000/svg"
   xmlns:sodipodi="http://sodipodi.sourceforge.net/DTD/sodipodi-0.dtd"
   xmlns:inkscape="http://www.inkscape.org/namespaces/inkscape"
   width="254.12903mm"
   height="220.84677mm"
   viewBox="0 0 900.45719 782.52793"
   id="svg4140"
   version="1.1"
   inkscape:version="0.48.4 r9939"
   sodipodi:docname="rank-7-cqc.svg"
   inkscape:export-filename="C:\Users\Pedro\Pictures\Frontier Developments\Elite Dangerous\Other\rank-7-cqc.png"
   inkscape:export-xdpi="90"
   inkscape:export-ydpi="90">
  <defs
     id="defs4142" />
  <sodipodi:namedview
     id="base"
     pagecolor="#ffffff"
     bordercolor="#666666"
     borderopacity="1.0"
     inkscape:pageopacity="0.0"
     inkscape:pageshadow="2"
     inkscape:zoom="0.35"
     inkscape:cx="450.22858"
     inkscape:cy="391.26397"
     inkscape:document-units="px"
     inkscape:current-layer="layer1"
     showgrid="false"
     fit-margin-top="0"
     fit-margin-left="0"
     fit-margin-right="0"
     fit-margin-bottom="0"
     inkscape:window-width="1680"
     inkscape:window-height="987"
     inkscape:window-x="-8"
     inkscape:window-y="-8"
     inkscape:window-maximized="1" />
  <metadata
     id="metadata4145">
    <rdf:RDF>
      <cc:Work
         rdf:about="">
        <dc:format>image/svg+xml</dc:format>
        <dc:type
           rdf:resource="http://purl.org/dc/dcmitype/StillImage" />
        <dc:title></dc:title>
      </cc:Work>
    </rdf:RDF>
  </metadata>
  <g
     inkscape:label="Layer 1"
     inkscape:groupmode="layer"
     id="layer1"
     transform="translate(75.228585,-141.09824)">
    <g
       inkscape:label="Layer 1"
       id="g3852"
       transform="translate(-2.5e-5,-2.43747)">
      <g
         id="g3854"
         transform="translate(-218.71299,83.552784)">
        <g
           id="g3856"
           transform="matrix(4.0041057,0,0,4.0041057,1517.2254,-471.67883)">
          <path
             style="fill:#8a050c;fill-opacity:1;fill-rule:evenodd;stroke:none;stroke-width:1px;stroke-linecap:butt;stroke-linejoin:round;stroke-opacity:1"
             d="m -230.63811,132.77915 -5,25 -25,5 25,5 5,25 5,-25 25,-5 -25,-5 z"
             id="path3858"
             inkscape:connector-curvature="0" />
          <path
             inkscape:connector-curvature="0"
             style="color:#000000;clip-rule:nonzero;display:inline;overflow:visible;visibility:visible;opacity:1;isolation:auto;mix-blend-mode:normal;color-interpolation:sRGB;color-interpolation-filters:linearRGB;solid-color:#000000;solid-opacity:1;fill:#8a050c;fill-opacity:1;fill-rule:evenodd;stroke:none;stroke-width:1px;stroke-linecap:butt;stroke-linejoin:miter;stroke-miterlimit:4;stroke-dasharray:none;stroke-dashoffset:0;stroke-opacity:1;color-rendering:auto;image-rendering:auto;shape-rendering:auto;text-rendering:auto;enable-background:accumulate"
             d="m -300.63811,277.77825 -4,16 -16,4 16,4 4,16 4,-16 16,-4 -16,-4 -4,-16 z"
             id="path3860" />
          <g
             id="g3862"
             transform="matrix(-1,0,0,1,2609.3619,1375.417)"
             style="fill:#8a050c;fill-opacity:1;stroke:none;stroke-linejoin:round">
            <path
               style="color:#000000;clip-rule:nonzero;display:inline;overflow:visible;visibility:visible;opacity:1;isolation:auto;mix-blend-mode:normal;color-interpolation:sRGB;color-interpolation-filters:linearRGB;solid-color:#000000;solid-opacity:1;fill:#8a050c;fill-opacity:1;fill-rule:evenodd;stroke:none;stroke-width:1px;stroke-linecap:butt;stroke-linejoin:round;stroke-miterlimit:4;stroke-dasharray:none;stroke-dashoffset:0;stroke-opacity:1;color-rendering:auto;image-rendering:auto;shape-rendering:auto;text-rendering:auto;enable-background:accumulate"
               d="m 2770,-1097.6387 -4,16 -16,4 16,4 4,16 4,-16 16,-4 -16,-4 -4,-16 z"
               id="path3864"
               inkscape:connector-curvature="0" />
          </g>
        </g>
        <path
           style="color:#000000;clip-rule:nonzero;display:inline;overflow:visible;visibility:visible;opacity:1;isolation:auto;mix-blend-mode:normal;color-interpolation:sRGB;color-interpolation-filters:linearRGB;solid-color:#000000;solid-opacity:1;fill:#ff0507;fill-opacity:1;fill-rule:evenodd;stroke:none;stroke-width:4.00410557px;stroke-linecap:butt;stroke-linejoin:round;stroke-miterlimit:4;stroke-dasharray:none;stroke-dashoffset:0;stroke-opacity:1;color-rendering:auto;image-rendering:auto;shape-rendering:auto;text-rendering:auto;enable-background:accumulate"
           d="m 143.48443,110.45045 c 0,71.44996 6.8261,67.83036 19.4981,80.65036 l 101.0351,101.0371 0,16.8379 -62.9257,-59.3789 c 0.014,49.034 -3.4934,64.1884 14.1816,80.6504 l 64.6973,65.5839 0,13.293 -27.4747,-24.8144 c -0.09,27.82 -1.987,61.8352 13.293,77.9922 l 172.8242,171.9375 c 11.521,12.408 -3.5437,49.63125 18.6133,70.90225 0,0 42.0683,42.148 79.7383,79.791 l 49.2207,-44.0527 -195.498,-175.86325 c -10.216,-9.75 -14.1469,-20.1389 -11.9239,-31.2539 1.623,-8.117 6.3981,-16.2844 14.4571,-25.5234 l -42.8516,-40.6993 c -9.04,-8.681 -14.3497,-15.8355 -17.3047,-23.3105 -2.965,-7.5 -3.7471,-13.0158 -3.4609,-28.6992 l 0.8301,-45.4258 c -14.3891,-14.456 -23.8172,-35.4942 -29.2012,-61.3652 -4.011,-19.278 -5.485,-39.344 -5.291,-58.17 L 143.48443,110.45045 Z m 900.45717,0 -152.45714,140.11906 c 0.194,18.826 -1.28,38.892 -5.291,58.17 -5.384,25.871 -14.8121,46.9092 -29.2012,61.3652 l 0.8301,45.4258 c 0.2862,15.6834 -0.4959,21.1992 -3.4609,28.6992 -2.955,7.475 -8.26473,14.6295 -17.30473,23.3105 l -42.8516,40.6993 c 8.059,9.239 12.8341,17.4064 14.4571,25.5234 2.223,11.115 -1.7079,21.5039 -11.9239,31.2539 l -195.498,175.86325 49.2207,44.0527 c 37.67,-37.643 79.7383,-79.791 79.7383,-79.791 22.157,-21.271 7.0923,-58.49425 18.6133,-70.90225 l 172.82423,-171.9375 c 15.28,-16.157 13.3829,-50.1722 13.2929,-77.9922 l -27.4746,24.8144 0,-13.293 64.6973,-65.5839 c 17.675,-16.462 14.1676,-31.6164 14.1816,-80.6504 l -62.9257,59.3789 0,-16.8379 101.03514,-101.0371 c 12.672,-12.82 19.4981,-9.2004 19.4981,-80.65036 z M 306.80673,241.49921 c -0.829,20.677 0.345,43.4953 4.834,65.0703 5.2,24.99 14.317,44.7912 27.873,57.5332 l 71.793,67.3711 c 20.458,19.402 17.8293,54.3637 -6.0117,79.3067 -19.154,20.108 -21.6874,32.7791 -7.2754,46.5351 l 192.541,173.20895 -30.5293,-156.55465 -30.1328,-28.3594 -34.5645,0 -38.1074,-37.2226 c 0,0 -13.47,-16.202 32.791,-62.041 l 0,-33.6778 -183.2109,-171.1699 z m 573.81253,0 -183.21093,171.1699 0,33.6778 c 46.261,45.839 32.791,62.041 32.791,62.041 l -38.1074,37.2226 -34.5645,0 -30.1328,28.3594 -30.5293,156.55465 192.541,-173.20895 c 14.412,-13.756 11.8786,-26.4271 -7.2754,-46.5351 -23.841,-24.943 -26.4697,-59.9047 -6.0117,-79.3067 l 71.793,-67.3711 c 13.55603,-12.742 22.67303,-32.5432 27.87303,-57.5332 4.489,-21.575 5.663,-44.3933 4.834,-65.0703 z m -305.51953,104.7012 -9.7481,110.7832 7.9766,6.2051 0,19.498 20.3847,18.6094 20.3848,-18.6094 0,-19.498 7.9766,-6.2051 -9.7481,-110.7832 -4.4316,24.8164 -2.6602,62.9238 -11.5215,8.8614 -11.5214,-8.8614 -2.6602,-62.9238 -4.4316,-24.8164 z m -236.0801,32.0195 -0.5996,37.3086 c -0.2334,14.5391 0.4309,19.335 2.8359,25.418 2.423,6.13 7.0022,12.2999 15.1992,20.1719 l 42.7403,40.5957 c 18.576,-20.794 20.1709,-47.9415 4.7949,-62.5235 l -64.9707,-60.9707 z m 509.3867,0 -64.9707,60.9707 c -15.376,14.582 -13.7811,41.7295 4.7949,62.5235 l 42.7403,-40.5957 c 8.197,-7.872 12.7762,-14.0419 15.1992,-20.1719 2.40503,-6.083 3.06933,-10.8789 2.83593,-25.418 l -0.59963,-37.3086 z m -284.8281,111.5567 -11.5215,1.7714 -13.293,11.5215 23.043,0 0,12.4102 -35.4512,6.2031 -14.1816,12.4063 53.1777,0 28.3613,25.7011 28.3614,-25.7011 53.1777,0 -14.1816,-12.4063 -35.4512,-6.2031 0,-12.4102 23.043,0 -13.293,-11.5215 -11.5215,-1.7714 -30.1348,26.5879 -30.1347,-26.5879 z m 8.8633,80.6504 21.2714,107.23815 21.2715,-107.23815 -21.2715,0 -21.2714,0 z m 21.2714,177.19135 -50.1015,44.8418 50.1015,50.0507 50.1016,-50.0507 -50.1016,-44.8418 z"
           id="path3830"
           inkscape:connector-curvature="0" />
      </g>
    </g>
  </g>
</svg>
