<?xml version="1.0" encoding="utf-8"?>
<!-- Generator: Adobe Illustrator 16.0.0, SVG Export Plug-In . SVG Version: 6.00 Build 0)  -->
<!DOCTYPE svg PUBLIC "-//W3C//DTD SVG 1.1//EN" "http://www.w3.org/Graphics/SVG/1.1/DTD/svg11.dtd">
<svg version="1.1" id="Layer_1" xmlns="http://www.w3.org/2000/svg" xmlns:xlink="http://www.w3.org/1999/xlink" x="0px" y="0px"
	 width="960px" height="960px" viewBox="0 0 960 960" enable-background="new 0 0 960 960" xml:space="preserve">
<g id="Layer_4">
	<g>
		<path fill="#FFFFFF" d="M925,35v890H35V35H925 M960,0H0v960h960V0L960,0z"/>
	</g>
	<rect x="157" y="357" fill="#FFFFFF" width="90" height="188"/>
	<rect x="272" y="357" fill="#FFFFFF" width="90" height="188"/>
	<rect x="388" y="357" fill="#FFFFFF" width="90" height="188"/>
	<rect x="503" y="357" fill="#FFFFFF" width="90" height="188"/>
	<line fill="none" stroke="#FFFFFF" stroke-width="30" stroke-miterlimit="10" x1="243" y1="444" x2="621" y2="444"/>
	<line fill="none" stroke="#FFFFFF" stroke-width="30" stroke-miterlimit="10" x1="705" y1="60" x2="705" y2="370"/>
	<line fill="none" stroke="#FFFFFF" stroke-width="30" stroke-miterlimit="10" x1="658" y1="60" x2="658" y2="106"/>
	<line fill="none" stroke="#FFFFFF" stroke-width="30" stroke-miterlimit="10" x1="752" y1="60" x2="752" y2="106"/>
	<g>
		<path fill="#FFFFFF" d="M766,400v329h-43.717L647,654.93V400H766 M796,370H617v297.5l93,91.5h86V370L796,370z"/>
	</g>
	<line fill="none" stroke="#FFFFFF" stroke-width="30" stroke-miterlimit="10" x1="710" y1="269" x2="760" y2="269"/>
	<line fill="none" stroke="#FFFFFF" stroke-width="30" stroke-miterlimit="10" x1="760" y1="221" x2="760" y2="308"/>
	
		<line fill="none" stroke="#FFFFFF" stroke-width="30" stroke-linejoin="bevel" stroke-miterlimit="10" x1="781" y1="738" x2="781" y2="883"/>
</g>
</svg>
