<?xml version="1.0" encoding="utf-8"?>
<!-- Generator: Adobe Illustrator 16.0.0, SVG Export Plug-In . SVG Version: 6.00 Build 0)  -->
<!DOCTYPE svg PUBLIC "-//W3C//DTD SVG 1.1//EN" "http://www.w3.org/Graphics/SVG/1.1/DTD/svg11.dtd">
<svg version="1.1" xmlns="http://www.w3.org/2000/svg" xmlns:xlink="http://www.w3.org/1999/xlink" x="0px" y="0px"
	 width="470.669px" height="386.887px" viewBox="0 0 470.669 386.887" enable-background="new 0 0 470.669 386.887"
	 xml:space="preserve">
<g id="Layer_2">
	<g opacity="0.5">
		<polygon fill="#FFFFFF" points="85.582,297.387 18.258,259.942 18.355,231.391 85.679,268.835 		"/>
	</g>
	<line fill="none" stroke="#FFFFFF" stroke-width="25" stroke-miterlimit="10" x1="149" y1="342.728" x2="149" y2="267.5"/>
	<polyline fill="none" stroke="#FFFFFF" stroke-width="25" stroke-miterlimit="10" points="252.626,263.878 358.55,320.06 
		449.5,266.5 	"/>
	<path fill="#FFFFFF" d="M252.626,280.334l-104.269,61.529L25,276.459v-64.38l124,68.967l177-105.231v29.856l25,0.162V147.5l-140-87
		L0,185.5v106l149,79l103.626-60.833V280.334z M210.69,89.741l103.162,64.108l-165.558,98.526L36.351,193.023L210.69,89.741z"/>
	<g>
		<path fill="#FFFFFF" d="M351.667,219.566l94.008,49.934l-0.055,37.048l-87.752,51.695l-90.988-48.331l-0.007-40.396
			L351.667,219.566 M351.035,190.923l-109.164,64.307l0.011,69.713L358.5,386.887l112.099-66.038l0.099-66.365L351.035,190.923
			L351.035,190.923z"/>
	</g>
	<line fill="none" stroke="#FFFFFF" stroke-width="25" stroke-miterlimit="10" x1="358.55" y1="320.06" x2="358.55" y2="371.75"/>
</g>
<g id="Layer_3">
	<path fill="#FFFFFF" d="M355.5,0c-37.181,0-68.45,23.043-73,52.833V120.5l25-0.032V77.833c0,2.577,21.49,4.667,48,4.667
		s48-2.089,48-4.667V228.25l25,8V52.833C423.95,23.043,392.681,0,355.5,0z M319.834,36.969C329.012,29.362,342.012,25,355.5,25
		s26.488,4.362,35.666,11.969c3.511,2.909,8.834,8.326,11.168,15.865c0,1.565-20.945,2.833-46.834,2.833s-46.82-1.269-46.82-2.833
		C311.016,45.299,316.325,39.877,319.834,36.969z"/>
</g>
</svg>
