<?xml version="1.0" encoding="utf-8"?>
<!-- Generator: Adobe Illustrator 16.0.0, SVG Export Plug-In . SVG Version: 6.00 Build 0)  -->
<!DOCTYPE svg PUBLIC "-//W3C//DTD SVG 1.1//EN" "http://www.w3.org/Graphics/SVG/1.1/DTD/svg11.dtd">
<svg version="1.1" id="Layer_2" xmlns="http://www.w3.org/2000/svg" xmlns:xlink="http://www.w3.org/1999/xlink" x="0px" y="0px"
	 width="837.472px" height="438.667px" viewBox="0 0 837.472 438.667" enable-background="new 0 0 837.472 438.667"
	 xml:space="preserve">
<g>
	<path fill="#FFFFFF" d="M643.138,60.355l158.979,158.979L643.138,378.311v-54.453v-25h-25H308.321l165.71-161.701h144.106h25v-25
		V60.355 M618.138,0v112.157H463.854L246.905,323.858h371.232v114.809l219.334-219.333L618.138,0L618.138,0z"/>
</g>
<path fill="none" stroke="#FFFFFF" stroke-width="35" d="M479.967,112.157"/>
<path fill="none" stroke="#FFFFFF" stroke-width="35" d="M263.017,323.858"/>
<polygon opacity="0.75" fill="#FFFFFF" points="194.405,323.875 177,305.864 375.984,112.128 393.389,130.138 "/>
<polygon opacity="0.5" fill="#FFFFFF" points="105.905,323.875 88.5,305.864 287.484,112.128 304.889,130.138 "/>
<polygon opacity="0.25" fill="#FFFFFF" points="17.405,323.875 0,305.864 198.984,112.128 216.389,130.138 "/>
<path fill="#FFFFFF" d="M537.621,117.388"/>
<path fill="#FFFFFF" d="M345.763,303.998"/>
</svg>
