<?xml version="1.0" encoding="utf-8"?>
<!-- Generator: Adobe Illustrator 16.0.0, SVG Export Plug-In . SVG Version: 6.00 Build 0)  -->
<!DOCTYPE svg PUBLIC "-//W3C//DTD SVG 1.1//EN" "http://www.w3.org/Graphics/SVG/1.1/DTD/svg11.dtd">
<svg version="1.1" xmlns="http://www.w3.org/2000/svg" xmlns:xlink="http://www.w3.org/1999/xlink" x="0px" y="0px" width="960px"
	 height="659.03px" viewBox="0 0 960 659.03" enable-background="new 0 0 960 659.03" xml:space="preserve">
<g id="Layer_2">
	<g id="Layer_2_2_">
		<g>
			<polygon fill="#FFFFFF" points="492.042,659.03 434.438,404.203 365.838,616.402 287.055,478.809 235.606,523.511 0,523.511 
				0,493.511 224.394,493.511 294.945,432.213 358.162,542.62 439.563,290.818 499.958,557.991 569.746,382.604 656.577,538.692 
				694.093,477 753.061,493.511 960,493.511 960,523.511 748.939,523.511 707.907,512.021 655.423,598.329 574.254,452.418 			"/>
		</g>
	</g>
</g>
<g id="Layer_3" opacity="0.5">
	<polygon fill="#FFFFFF" points="379.161,298.857 343.975,298.857 509.685,137.157 653.79,137.157 678.79,137.157 678.79,112.157 
		678.79,60.355 678.792,60.355 837.771,219.334 678.792,378.311 678.792,323.857 678.792,298.857 653.792,298.857 497.768,298.857 
		503.419,323.857 653.79,323.857 653.79,438.668 873.124,219.334 653.792,0 653.792,112.157 499.507,112.157 282.558,323.857 
		371.079,323.857 	"/>
	<path fill="none" stroke="#FFFFFF" stroke-width="35" d="M515.62,112.157"/>
	<path fill="none" stroke="#FFFFFF" stroke-width="35" d="M298.67,323.857"/>
	<polygon opacity="0.75" fill="#FFFFFF" enable-background="new    " points="230.058,323.875 212.653,305.865 411.638,112.128 
		429.042,130.138 	"/>
	<polygon opacity="0.5" fill="#FFFFFF" enable-background="new    " points="141.558,323.875 124.153,305.865 323.137,112.128 
		340.542,130.138 	"/>
	<polygon opacity="0.25" fill="#FFFFFF" enable-background="new    " points="53.058,323.875 35.653,305.865 234.637,112.128 
		252.042,130.138 	"/>
	<path fill="#FFFFFF" d="M573.274,117.388"/>
	<path fill="#FFFFFF" d="M381.416,303.998"/>
</g>
</svg>
