<?xml version="1.0" encoding="utf-8"?>
<!-- Generator: Adobe Illustrator 16.0.0, SVG Export Plug-In . SVG Version: 6.00 Build 0)  -->
<!DOCTYPE svg PUBLIC "-//W3C//DTD SVG 1.1//EN" "http://www.w3.org/Graphics/SVG/1.1/DTD/svg11.dtd">
<svg version="1.1" xmlns="http://www.w3.org/2000/svg" xmlns:xlink="http://www.w3.org/1999/xlink" x="0px" y="0px"
	 width="640.499px" height="835.387px" viewBox="0 0 640.499 835.387" enable-background="new 0 0 640.499 835.387"
	 xml:space="preserve">
<g id="Layer_3" opacity="0.5">
	<g>
		<path fill="#FFFFFF" d="M130,452.887c8.28,0,31.107,1.892,54.975,5.058c29.064,3.854,43.337,7.402,48.002,9.134
			c3.267,3.655,9.106,10.995,15.275,19.634c7.652,10.714,11.357,17.126,12.748,19.903v9.637
			c-1.525,3.698-8.094,14.372-21.046,28.116c-13.533,14.36-23.623,20.829-26.946,22.019h-82.747
			c-3.738-1.246-13.729-7.969-25.909-19.942c-2.104-4.383-6.548-18.485-10.53-38.274c-3.59-17.842-4.829-30.286-4.907-36.526
			c3.548-2.534,9.162-6.21,15.988-9.854C120.375,453.528,128.024,452.887,130,452.887 M130,432.887c-21,0-53.5,22-59,27.5
			c-8,8,9.25,90.25,18,99c10.25,10.25,29.333,27,40.333,27H214c19.5,0,67-53.5,67-68.5c0-9,0,1.833,0-14.167
			c0-7.333-26.333-43.337-35.333-52.337S151,432.887,130,432.887L130,432.887z"/>
	</g>
	<g>
		<path fill="#FFFFFF" d="M318.5,555.584c5.354,6.532,12.37,15.493,20.602,26.606c15.475,20.893,24.152,34.366,27.023,39.656v19.415
			c0,7.805-2.388,9.208-3.535,9.883c-1.948,1.145-5.925,2.509-13.813,2.509c-0.248,0-0.493-0.001-0.735-0.004
			c-3.178-4.869-7.804-13.148-11.562-20.853l-17.98-36.919l-17.981,36.919c-3.686,7.568-8.371,15.943-11.569,20.854
			c-0.24,0.002-0.482,0.003-0.728,0.003c-7.888,0-11.865-1.364-13.813-2.509c-1.147-0.674-3.535-2.077-3.535-9.883v-19.415
			c2.871-5.29,11.549-18.764,27.024-39.656C306.13,571.077,313.146,562.116,318.5,555.584 M318.5,526.887
			c-5.848,0-67.625,82.875-67.625,91.375v23c0,29.146,23.287,32.392,37.348,32.392c4.031,0,7.304-0.267,9.052-0.267
			c5.721,0,21.225-31.833,21.225-31.833s15.504,31.833,21.226,31.833c1.749,0,5.02,0.267,9.052,0.267
			c14.061,0,37.348-3.248,37.348-32.392v-23C386.125,609.762,324.349,526.887,318.5,526.887L318.5,526.887z"/>
	</g>
	<g>
		<path fill="#FFFFFF" d="M507,452.887c1.976,0,9.625,0.642,25.097,8.902c6.826,3.645,12.44,7.32,15.988,9.854
			c-0.079,6.24-1.317,18.685-4.907,36.526c-3.982,19.789-8.427,33.892-10.53,38.274c-12.18,11.974-22.171,18.696-25.909,19.942
			h-82.746c-3.323-1.189-13.412-7.658-26.945-22.019c-12.953-13.744-19.521-24.418-21.047-28.116v-9.637
			c1.391-2.777,5.097-9.189,12.748-19.903c6.169-8.639,12.009-15.979,15.274-19.634c4.665-1.731,18.939-5.279,48.003-9.134
			C475.893,454.778,498.72,452.887,507,452.887 M507,432.887c-21,0-106.667,9.496-115.667,18.496S356,496.387,356,503.72
			c0,16,0,5.167,0,14.167c0,15,47.5,68.5,67,68.5h84.666c11,0,30.084-16.75,40.334-27c8.75-8.75,26-91,18-99
			C560.5,454.887,528,432.887,507,432.887L507,432.887z"/>
	</g>
</g>
<g id="Layer_2" opacity="0.5">
	<path fill="#FFFFFF" d="M640.499,389.387c0-114.412-44.305-196.963-105.766-251.254c0.626,6.688,0.96,13.459,0.96,20.311
		c0,2.661-0.065,5.307-0.161,7.945c23.383,23.625,42.229,50.922,56.156,81.404c19.117,41.838,28.811,89.477,28.811,141.594
		c0,31.574-4.931,60.399-15.074,88.123c-8.885,24.283-20.571,44.454-30.883,62.251c-15.048,25.971-28.043,48.399-28.043,74.626
		c0,8.401,3.949,15.588,8.949,24.688c4.241,7.719,10.051,18.291,10.051,25.309c-0.038,3.116-4.051,13.928-13.545,25.948
		c-9.722,12.309-18.123,16.856-20.496,17.056c-0.688-0.001-1.217-0.035-1.605-0.077c-0.27-0.458-0.573-1.001-0.826-1.454
		c-2.669-4.777-9.758-17.469-26.527-17.469c-14.577,0-26.896,5.852-35.623,16.921c-12.649,16.045-14.787,40.48-12.402,61.071
		c-1.801,0.009-3.563,0.009-5.121,0.009h-2.304l-2.55-0.001c-8.565,0-15.769,1.194-21.732,3.6l-11.594-21.438l-1.896,31.341
		c-5.432,6.871-6.681,14.459-6.657,20.767c-6.905,0.371-13.656,1.227-19.708,3.059l-19.874-26.328l3.313,36.553
		c-0.393,0.472-0.785,0.942-1.149,1.447h-34.55L321,781.582l-9.651,33.805h-36.051c-0.222-0.308-0.468-0.586-0.7-0.881l3.365-37.119
		l-19.97,26.456c-6.155-1.92-13.053-2.807-20.113-3.187c0.022-6.087-1.151-13.363-6.112-20.039l-1.94-32.068l-11.681,21.599
		c-6.042-2.518-13.384-3.761-22.146-3.761l-2.55,0.001h-2.303c-1.559,0-3.321,0-5.122-0.009
		c2.385-20.591,0.247-45.026-12.403-61.071c-8.728-11.069-21.045-16.921-35.623-16.921c-16.77,0-23.859,12.691-26.528,17.469
		c-0.252,0.453-0.556,0.996-0.825,1.454c-0.39,0.042-0.918,0.076-1.606,0.077c-2.372-0.199-10.774-4.747-20.496-17.056
		C79.051,678.311,75.039,667.499,75,664.387c0-7.021,5.809-17.594,10.051-25.313c5-9.1,8.949-16.286,8.949-24.688
		c0-26.227-12.996-48.655-28.043-74.626c-10.311-17.797-21.998-37.968-30.883-62.251C24.931,449.786,20,420.96,20,389.387
		c0-52.113,9.701-99.751,28.834-141.588c13.927-30.454,32.764-57.729,56.136-81.342c-0.097-2.661-0.164-5.329-0.164-8.013
		c0-6.824,0.332-13.57,0.953-20.232C44.303,192.503,0,275.029,0,389.387c0,126,74,172,74,225c0,8.332-19,30-19,50s31,63,54,63
		s17-19,29-19c31,0,32,43,26,68c-2.33,9.707,3.247,10.001,27.147,10.001c1.54,0,3.158-0.001,4.853-0.001c42,0,6,34,30,34
		c50,0,26,15,41,15c8,0,98.499,0,106.499,0c15,0-9-15,41-15c24,0-12-34,30-34c1.697,0,3.312,0.001,4.854,0.001
		c23.896,0,29.477-0.294,27.146-10.001c-6-25-5-68,26-68c12,0,6,19,29,19s54-43,54-63s-19-41.668-19-50
		C566.499,561.387,640.499,515.387,640.499,389.387z"/>
</g>
<g id="Layer_6">
	<g>
		<path fill="#FFFFFF" d="M320.249,20c36.979,0,71.746,14.4,97.895,40.549c26.149,26.148,40.55,60.915,40.55,97.894
			s-14.4,71.746-40.55,97.894c-26.148,26.149-60.915,40.549-97.895,40.549s-71.746-14.4-97.894-40.549
			c-26.149-26.148-40.549-60.915-40.549-97.894s14.4-71.746,40.549-97.894C248.503,34.4,283.27,20,320.249,20 M320.249,0
			c-87.505,0-158.443,70.938-158.443,158.443s70.938,158.443,158.443,158.443c87.506,0,158.444-70.938,158.444-158.443
			S407.755,0,320.249,0L320.249,0z"/>
	</g>
	<polygon fill="#FFFFFF" points="331.214,156.461 331.214,72.72 309.286,72.72 309.286,165.543 374.811,231.068 390.316,215.563 	
		"/>
</g>
</svg>
