<?xml version="1.0" encoding="utf-8"?>
<!-- Generator: Adobe Illustrator 16.0.0, SVG Export Plug-In . SVG Version: 6.00 Build 0)  -->
<!DOCTYPE svg PUBLIC "-//W3C//DTD SVG 1.1//EN" "http://www.w3.org/Graphics/SVG/1.1/DTD/svg11.dtd">
<svg version="1.1" id="Layer_1" xmlns="http://www.w3.org/2000/svg" xmlns:xlink="http://www.w3.org/1999/xlink" x="0px" y="0px"
	 width="688.258px" height="673.375px" viewBox="0 0 688.258 673.375" enable-background="new 0 0 688.258 673.375"
	 xml:space="preserve">
<g>
	<path fill="#034942" d="M554.82,110.263l13.533-12.118C508.723,41.878,428.332,7.376,339.875,7.376c-9.6,0-19.1,0.41-28.49,1.21
		c3.811-0.14,7.641-0.21,11.49-0.21C414.65,8.376,497.248,47.635,554.82,110.263z"/>
	<path fill="#034942" d="M633.296,182.998c-0.497,11.682-1.978,41.664-4.817,63.787c6.126,24.521,9.396,50.173,9.396,76.591
		c0,157.948-116.252,288.734-267.858,311.486l-25.888,22.781l-21.904-19.275c-173.67-0.353-314.34-141.239-314.34-314.992
		c0-3.91,0.07-7.8,0.21-11.68c-0.81,9.45-1.22,19.02-1.22,28.68c0,183.91,149.09,333,333,333s333-149.09,333-333
		c0-56.998-14.332-110.645-39.571-157.552L633.296,182.998z"/>
</g>
<path fill="#08FADC" d="M201.438,386.415L87.109,282.721c0,0-7.063-4.463-13.294-16.839c-5.815-11.709-8.862-83.31-8.862-83.31
	l77.992,71.788v-25.702L29.501,121.419c0,0-20.305-15.575-25.702-32.792C-1.416,71.981,0.254,4.431,0.254,4.431l271.2,242.839
	c0,0-0.253,23.985,0,23.93c-50.431,43.916-41.655,71.789-41.655,71.789l33.679,1.771l36.337,37.223l44.313,227.773L175.737,458.204
	c0,0-12.332-9.883-23.043-25.701c-11.127-15.201-9.749-78.879-9.749-78.879l58.494,51.403L201.438,386.415L201.438,386.415z
	 M486.819,386.415l114.329-103.693c0,0,7.063-4.463,13.295-16.839c5.814-11.709,8.861-83.31,8.861-83.31l-77.992,71.788v-25.702
	l113.443-107.239c0,0,20.305-15.575,25.702-32.792c5.215-16.646,3.545-84.196,3.545-84.196l-271.2,242.839c0,0,0.253,23.985,0,23.93
	c50.432,43.916,41.655,71.789,41.655,71.789l-33.679,1.771l-36.337,37.223l-44.314,227.773L512.52,458.202
	c0,0,12.332-9.881,23.043-25.701c11.128-15.201,9.75-78.879,9.75-78.879l-58.494,51.404L486.819,386.415L486.819,386.415z
	 M344.129,377.553v135.6l-26.588-135.6H344.129L344.129,377.553z M344.129,377.553v135.6l26.588-135.6H344.129L344.129,377.553z
	 M328.176,201.184l15.953,11.521v75.333l-29.247-24.816v-23.929l-7.977-7.09l11.521-107.239l7.09,34.565L328.176,201.184
	L328.176,201.184z M360.082,201.184l-15.953,11.521v75.333l29.247-24.816v-23.929l7.978-7.09l-11.521-107.239l-7.09,34.565
	L360.082,201.184L360.082,201.184z M344.129,307.537v55.834l-38.996-34.563h-55.835l16.839-15.067l34.564-8.863l0.886-15.953
	L275,289.812l19.498-15.953l8.863-2.659L344.129,307.537L344.129,307.537z M344.129,307.537v55.834l38.996-34.563h55.836
	l-16.84-15.067l-34.564-8.863l-0.886-15.953l26.588,0.886l-19.498-15.953l-8.861-2.659L344.129,307.537L344.129,307.537z
	 M344.129,620.391v23.932l-44.313-38.996v-22.158L344.129,620.391L344.129,620.391z M344.129,620.391v23.932l44.314-38.996v-22.158
	L344.129,620.391L344.129,620.391z"/>
</svg>
