<?xml version="1.0" encoding="utf-8"?>
<!-- Generator: Adobe Illustrator 16.0.0, SVG Export Plug-In . SVG Version: 6.00 Build 0)  -->
<!DOCTYPE svg PUBLIC "-//W3C//DTD SVG 1.1//EN" "http://www.w3.org/Graphics/SVG/1.1/DTD/svg11.dtd">
<svg version="1.1" id="Layer_1" xmlns="http://www.w3.org/2000/svg" xmlns:xlink="http://www.w3.org/1999/xlink" x="0px" y="0px"
	 width="899.568px" height="767.512px" viewBox="0 0 899.568 767.512" enable-background="new 0 0 899.568 767.512"
	 xml:space="preserve">
<g>
	<path fill="#034942" d="M672.136,182.76l13.98-13.097C625.656,107.819,541.319,69.416,448,69.416c-9.6,0-19.1,0.41-28.49,1.21
		c3.812-0.14,7.642-0.21,11.49-0.21C527.781,70.416,614.354,114.077,672.136,182.76z"/>
	<path fill="#034942" d="M393.787,726.187l5.058-11.863l-3.228-3.069c-3.401-3.232-9.076-8.629-15.77-14.993
		C230.21,671.82,116.01,541.965,116.01,385.417c0-3.911,0.07-7.8,0.21-11.681c-0.81,9.45-1.22,19.021-1.22,28.681
		c0,167.563,123.768,306.196,284.866,329.523L393.787,726.187z"/>
	<path fill="#034942" d="M765.956,324.431l0.037,11.437c0.008,2.588,0.038,5.187,0.067,7.788c0.3,25.791,0.638,55.023-21.467,78.047
		l-0.046-0.044c-0.245,0.282-0.487,0.535-0.726,0.784c-14.034,119.83-95.306,219.104-205.09,259.062
		c-12.763,12.141-25.034,23.811-30.617,29.118l-3.219,3.06l5.032,11.888l-5.317,5.032C661.554,703.719,781,567.026,781,402.417
		c0-28.475-3.582-56.112-10.306-82.493L765.956,324.431z"/>
</g>
<path fill="#08FADC" d="M632.294,401.809c9.307,12.547,13.162,22.089,12.321,30.867c-0.854,8.91-5.652,15.431-17.15,25.961
	c-7.453,6.609-39.327,35.119-87.867,78.582c-19.555,17.511-40.502,36.271-61.443,55.029c-6.518,5.836-12.618,11.303-18.185,16.289
	c0.579,0.52,0.653,0.586,0.896,0.803l1.349,1.889l39.011,92.146c14.062-13.369,70.545-67.082,70.421-67.031
	c26.591-28.358,0.889-63.813,26.591-86.854c0.38-0.341,139.438-134.848,139.145-134.715c21.271-22.156,18.702-51.059,18.612-78.878
	c0.09,0.194-39.883,36.337-39.883,36.337v-14.181l91.286-86.854c19.497-19.498,17.712-44.912,17.726-93.945
	c-0.014,0.406-47.858,44.314-47.858,44.314v-15.067c0,0,102.932-95.765,102.81-95.718c12.673-12.82,19.498-34.903,19.498-106.354
	c0,0-161.26,148.015-181.401,166.503l0,0c0.342,17.18-0.84,35.304-4.313,52.686c-4.571,22.867-12.705,41.684-25.22,55.056
	l-0.003,42.854c0.003,0.083,0.007,0.216,0.011,0.398c0.036,2.006-0.026,4.647-0.273,7.704c-0.376,4.633-1.102,9.224-2.271,13.567
	c-2.007,7.445-5.15,13.573-9.809,17.877c-4.199,3.874-11.938,11.032-22.225,20.56c-5.607,5.195-11.614,10.76-17.618,16.324
	C634.982,399.316,633.594,400.604,632.294,401.809L632.294,401.809z M625.7,393.418c-11.867-15.132-15.732-26.355-13.731-35.505
	c1.638-7.477,5.926-12.793,18.263-24.336c5.052-4.885,8.608-8.252,12.588-11.93c0.813-0.752,10.337-9.492,14.479-13.333
	c5.781-5.358,12.449-11.6,20.703-19.395v32.799c0.004,0.211,0.006,0.286,0.009,0.408c0.03,1.675-0.024,3.969-0.243,6.649
	c-0.324,4.031-0.952,7.999-1.938,11.657c-1.531,5.681-3.8,10.1-6.755,12.832c-4.203,3.876-11.942,11.038-22.198,20.537
	c-5.646,5.229-11.654,10.795-17.659,16.362C627.988,391.297,626.814,392.387,625.7,393.418L625.7,393.418z M215.365,278.68
	c-12.5-13.347-20.643-32.175-25.217-55.059c-3.416-17.087-4.616-34.894-4.331-51.814l0,0C165.605,153.255,4.431,5.318,4.431,5.318
	c0,71.45,6.826,93.533,19.498,106.353c-0.122-0.047,102.808,95.718,102.808,95.718v15.067c0,0-47.845-43.908-47.859-44.314
	c0.014,49.033-1.772,74.447,17.726,93.945l91.286,86.854v14.181c0,0-39.973-36.143-39.882-36.337
	c-0.09,27.82-2.659,56.721,18.612,78.877c-0.293-0.131,138.765,134.375,139.145,134.715c25.702,23.043,0,58.494,26.589,86.854
	c-0.122-0.052,55.66,52.995,70.153,66.774l0,0l39.278-92.776l1.349-1.89c0.243-0.217,0.316-0.283,0.896-0.803
	c-5.565-4.986-11.667-10.453-18.185-16.289c-20.942-18.76-41.89-37.521-61.526-55.104c-48.457-43.388-80.331-71.896-87.848-78.564
	c-11.434-10.475-16.233-16.992-17.086-25.902c-0.84-8.771,3.008-18.305,12.322-30.866c-1.3-1.205-2.689-2.492-4.151-3.849
	c-6.005-5.563-12.011-11.129-17.657-16.358c-10.25-9.494-17.987-16.652-22.191-20.529c-4.652-4.3-7.797-10.428-9.804-17.874
	c-1.17-4.343-1.896-8.934-2.271-13.567c-0.248-3.057-0.313-5.697-0.269-7.916L215.365,278.68L215.365,278.68z M226,288.919
	c8.262,7.803,14.925,14.04,20.703,19.395c4.143,3.84,13.666,12.581,14.146,13.024c4.311,3.986,7.87,7.354,12.858,12.179
	c12.398,11.604,16.688,16.919,18.324,24.396c2.003,9.157-1.87,20.391-13.73,35.505c-1.114-1.031-2.289-2.121-3.515-3.258
	c-6.006-5.566-12.013-11.132-17.622-16.327c-10.293-9.534-18.034-16.695-22.241-20.575c-2.951-2.728-5.219-7.147-6.75-12.828
	c-0.986-3.658-1.613-7.626-1.939-11.657c-0.217-2.68-0.273-4.975-0.242-6.649c0.002-0.122,0.008-0.408,0.008-0.408V288.919
	L226,288.919L226,288.919z M405.715,723.708L452,767.512V615.118l0,0v151.51l46.017-43.551l-45.596-107.701
	c0,0-0.141-0.104-0.383-0.283c-0.013,0.008-0.025,0.019-0.038,0.025L405.715,723.708L405.715,723.708z M453.64,599.928
	l28.493-139.953l26.589-25.698h31.905l32.793-32.794c0,0,6.203-21.271-28.361-52.291v-33.678L707.279,163.54
	c0.878,18.664-0.038,38.904-3.854,57.996c-4.487,22.449-12.557,40.332-24.687,52.043c-12.097,11.467-21.143,19.957-28.669,26.936
	c-4.12,3.818-13.637,12.55-14.135,13.012c-4.375,4.044-7.989,7.466-13.034,12.346c-6.688,6.257-9.68,9.252-12.854,13.188
	c-4.354,5.396-7.187,10.729-8.467,16.581c-2.948,13.479,2.69,28.582,18.256,47.453c10.73,13.292,14.819,22.036,14.193,28.569
	c-0.521,5.434-4.104,10.297-13.685,19.074c-7.409,6.567-39.272,35.069-87.76,78.483c-19.639,17.584-40.585,36.347-61.529,55.105
	C464.839,589.897,458.997,595.129,453.64,599.928L453.64,599.928L453.64,599.928z M196.683,164.39L358.941,316.4v33.679
	c-34.564,31.02-28.361,52.291-28.361,52.291l32.792,32.791h31.906l26.588,25.703l28.271,138.869
	c-5.297-4.746-11.063-9.912-17.194-15.404c-20.944-18.762-41.893-37.521-61.447-55.031c-48.568-43.488-80.432-71.99-87.905-78.617
	c-9.518-8.719-13.099-13.584-13.62-19.018c-0.625-6.533,3.463-15.276,14.229-28.613c15.529-18.827,21.168-33.93,18.22-47.409
	c-1.28-5.853-4.113-11.186-8.467-16.581c-3.175-3.936-6.165-6.93-12.916-13.248c-4.982-4.819-8.598-8.241-12.634-11.974
	c-0.837-0.773-10.352-9.505-14.472-13.324c-7.529-6.979-16.575-15.469-28.705-26.969c-12.094-11.678-20.163-29.561-24.651-52.009
	C196.817,202.733,195.872,182.817,196.683,164.39L196.683,164.39L196.683,164.39z M452,457.319v96.604l-17.726-96.604H452
	L452,457.319z M452,457.319v96.604l17.726-96.604H452L452,457.319z M441.365,335.898L452,343.875v51.404l-19.498-16.839v-15.953
	l-6.204-4.432l8.863-101.921l3.545,21.271L441.365,335.898L441.365,335.898z M462.635,335.898L452,343.875v51.404l19.498-16.839
	v-15.953l6.204-4.432l-8.863-101.921l-3.545,21.271L462.635,335.898L462.635,335.898z M452,409.458v37.225l-23.93-22.155h-47.859
	l12.408-11.521l31.02-4.432v-11.521h-20.384l11.521-10.635l11.521-0.887L452,409.458L452,409.458z M452,409.458v37.225l23.93-22.155
	h47.858l-12.408-11.521l-31.02-4.432v-11.521h20.385l-11.521-10.635l-11.521-0.887L452,409.458L452,409.458z"/>
</svg>
