<svg id="Layer_1" data-name="Layer 1" xmlns="http://www.w3.org/2000/svg" viewBox="0 0 200 200"><defs><style>.cls-1{fill:#f07b05;}</style></defs><title>icon-hardpoint</title><path class="cls-1" d="M200,93H176.4A76.83,76.83,0,0,0,107,23.6V0H93V23.6A76.83,76.83,0,0,0,23.6,93H0v14H23.6A76.83,76.83,0,0,0,93,176.4V200h14V176.4A76.83,76.83,0,0,0,176.4,107H200Zm-93,62.26V135.52H93v19.74A55.8,55.8,0,0,1,44.74,107H64.48V93H44.74A55.8,55.8,0,0,1,93,44.74V64.48h14V44.74A55.8,55.8,0,0,1,155.26,93H135.52v14h19.74A55.8,55.8,0,0,1,107,155.26Z"/></svg>