<?xml version="1.0" encoding="utf-8"?>
<!-- Generator: Adobe Illustrator 16.0.0, SVG Export Plug-In . SVG Version: 6.00 Build 0)  -->
<!DOCTYPE svg PUBLIC "-//W3C//DTD SVG 1.1//EN" "http://www.w3.org/Graphics/SVG/1.1/DTD/svg11.dtd">
<svg version="1.1" id="Layer_1" xmlns="http://www.w3.org/2000/svg" xmlns:xlink="http://www.w3.org/1999/xlink" x="0px" y="0px"
	 width="444.218px" height="578.998px" viewBox="0 0 444.218 578.998" enable-background="new 0 0 444.218 578.998"
	 xml:space="preserve">
<g id="Layer_2">
	<path fill="#FFFFFF" d="M179.494,317.26c-4.5-5.5-19.5-18.18-24.879-19.26c-5.391-1.09-28.791-1.17-42.621,0s-43,25.5-45.5,37.25
		c-0.889,4.18-1.709,33.86,0,37.37c2.25,4.63,18.91,23.33,25.381,26c12.369,5.13,36.26,0.02,41.869-1
		c16.5-3,42.75-19.62,47.75-45.87C184.253,337.25,183.994,322.76,179.494,317.26z M166.724,350.46
		c-3.711,19.46-23.172,31.78-35.4,34c-4.16,0.76-21.869,4.55-31.039,0.75c-4.801-1.99-17.15-15.85-18.82-19.28
		c-1.26-2.6-0.648-24.607,0-27.71c1.859-8.71,23.48-26.75,33.74-27.607c10.25-0.87,27.6-0.813,31.6,0
		c3.98,0.8,15.102,10.197,18.439,14.27C168.574,328.96,168.775,339.71,166.724,350.46z"/>
	<path fill="#FFFFFF" d="M219.003,0h-0.01C-12.486,17-31.997,189.13,30.833,344.75c-4.139,33.14-23.129,35.49-23.129,67.94
		c0,59.38,93.91,64.867,104.27,75.229c10.352,10.35,10.352,45.57,10.352,53.86s22.84,32.52,42.809,33.979
		c20.531,1.5,44.191,3.24,53.861,3.24h0.01c9.66,0,33.33-1.75,53.859-3.25c19.971-1.46,53.811-25.575,53.811-33.865
		c0-8.278,0-43.582,10.352-53.94c10.357-10.352,96.971-15.901,96.971-75.291c0-49.37-11.75-39.638-21.33-67.888
		C480.494,189.017,448.994,13,219.003,0z M419.035,402.87c0,55.188-80.49,60.32-90.121,69.95c-9.629,9.62-16.17,42.979-16.17,50.68
		s-24.91,35.68-43.469,37.039c-19.07,1.391-41.07,2.461-50.051,2.461h-0.012c-8.979,0-30.979-1.07-50.061-2.471
		c-18.561-1.359-35.66-30.109-35.66-37.812s-4.119-40.38-13.75-50c-9.629-9.63-96.899-14.729-96.899-69.92
		c0-30.16,17.649-32.42,21.499-63.221C-14.055,194.95,4.074,34.84,219.214,19h0.01c213.75,12.87,243.029,175.84,179.98,320.6
		C408.115,365.85,419.035,356.979,419.035,402.87z"/>
	<path fill="#FFFFFF" d="M261.501,351.75c5,26.25,31.25,42.87,47.75,45.87c5.609,1.02,29.5,6.13,41.871,1
		c6.469-2.67,23.129-21.37,25.379-26c1.711-3.51,0.893-33.19,0-37.37c-2.5-11.75-31.67-36.08-45.5-37.25s-37.229-1.09-42.619,0
		c-5.381,1.08-20.381,13.76-24.881,19.26S258.742,337.25,261.501,351.75z M277.751,324.88c3.34-4.07,14.461-13.47,18.439-14.27
		c4-0.813,21.352-0.87,31.602,0c10.26,0.857,31.879,18.897,33.738,27.607c0.65,3.103,1.262,25.11,0,27.71
		c-1.67,3.433-14.021,17.29-18.818,19.28c-9.17,3.8-26.881,0.01-31.041-0.75c-12.229-2.22-31.688-14.54-35.398-34
		C274.222,339.71,274.421,328.96,277.751,324.88z"/>
	<path fill="#FFFFFF" d="M223.494,387.5c-4.75,0-34,50-34,74c0,12.25,12,21.25,17,21.25s14.584-15.28,17-15.28
		c2.418,0,12,15.28,17,15.28s17-9,17-21.25C257.494,437.5,228.244,387.5,223.494,387.5z M240.115,467.75
		c-3.26,0-14.371-18.25-16.621-18.25s-13.289,18.25-16.559,18.25c-3.271,0-5.66-5.88-5.66-13.89c0-15.683,19.121-48.36,22.219-48.36
		c3.1,0,22.221,32.68,22.221,48.36C245.714,461.87,243.384,467.75,240.115,467.75z"/>
</g>
</svg>
