<?xml version="1.0" encoding="utf-8"?>
<!-- Generator: Adobe Illustrator 16.0.0, SVG Export Plug-In . SVG Version: 6.00 Build 0)  -->
<!DOCTYPE svg PUBLIC "-//W3C//DTD SVG 1.1//EN" "http://www.w3.org/Graphics/SVG/1.1/DTD/svg11.dtd">
<svg version="1.1" id="Layer_1" xmlns="http://www.w3.org/2000/svg" xmlns:xlink="http://www.w3.org/1999/xlink" x="0px" y="0px"
	 width="631.236px" height="534.748px" viewBox="0 0 631.236 534.748" enable-background="new 0 0 631.236 534.748"
	 xml:space="preserve">
<g id="Layer_2">
	<path fill="#FFFFFF" d="M461.502,0.001L0.236,250.278l169.734,168.723l461.266-250L461.502,0.001z M28.374,255.517L458.217,22.655
		l142.819,142.212L171.193,397.501L28.374,255.517z"/>
	<path fill="#FFFFFF" d="M17.104,304.021L0,313.302l164.5,163.489l461.269-250l-12.908-12.839L168.412,454.392L17.104,304.021z"/>
	<path fill="#FFFFFF" d="M17.104,361.98L0,371.259l164.5,163.489l461.269-250l-12.908-12.839L168.411,512.351L17.104,361.98z"/>
	<path fill="#FFFFFF" d="M310.736,130.334c-47,0-86.151,26.402-86.151,67.324S265.402,280,334.403,280
		c54.481,0,81.666-25.078,81.666-66C416.069,173.08,371.736,130.334,310.736,130.334z M332.811,271.648
		c-61.188,0-97.385-36.73-97.385-73.021s34.718-59.701,76.396-59.701c54.093,0,93.406,37.905,93.406,74.192
		C405.229,249.41,381.122,271.648,332.811,271.648z"/>
	<g>
		<path fill="#FFFFFF" d="M315.02,217.186l6.642-3.625c0.906,0.996,1.503,1.652,1.791,1.969c3.011,3.27,4.835,5.781,5.47,7.536
			c1.333,3.574,0.055,6.864-3.841,9.87c-1.465,1.141-5.554,3.54-12.265,7.203c-3.008,1.644-5.198,2.764-6.572,3.358
			c-1.374,0.598-2.852,1.057-4.434,1.379c-6.115,1.339-12.086-0.669-17.912-6.027c-2.666-2.475-5.367-5.218-8.104-8.229
			c-5.618-6.185-9.12-10.335-10.507-12.458c-2.213-3.398-2.322-6.795-0.322-10.189c1.23-2.13,3.533-4.25,6.904-6.361
			c1.646-1.033,4.736-2.789,9.275-5.268c4.288-2.34,7.488-3.746,9.598-4.223c4.771-1.078,9.138-0.075,13.107,3.009
			c1.451,1.14,3.07,2.694,4.86,4.664c0.207,0.228,0.521,0.597,0.946,1.11l-6.558,3.58c-0.831-0.869-1.369-1.438-1.616-1.709
			c-2.979-3.187-5.447-4.803-7.406-4.851c-1.711-0.048-4.586,1.029-8.624,3.233c-5.347,2.918-9.076,5.141-11.188,6.666
			c-1.306,0.949-2.122,1.896-2.453,2.838c-0.33,0.943-0.231,2.05,0.298,3.32c0.583,1.375,2.069,3.375,4.455,6.002
			c8.479,9.332,14.073,14.983,16.785,16.959c1.719,1.298,3.345,1.983,4.875,2.063c1.752,0.095,3.923-0.498,6.511-1.773
			c1.573-0.79,3.236-1.665,4.99-2.623c4.038-2.204,6.898-3.927,8.585-5.167c1.684-1.241,2.627-2.324,2.829-3.247
			c0.273-1.305-0.813-3.303-3.263-5.998C317.078,219.313,316.124,218.311,315.02,217.186z"/>
		<path fill="#FFFFFF" d="M343.484,222.584l-36.113-39.744l24.646-13.453c4.344-2.371,8.188-3.572,11.535-3.603
			c2.924-0.037,5.715,0.811,8.373,2.543c1.568,1.041,3.291,2.592,5.162,4.651c3.088,3.396,4.787,6.162,5.102,8.295
			c0.381,2.299-0.844,4.391-3.673,6.272c5.017-2.364,9.709-1.167,14.079,3.597l9.443,10.396l-6.643,3.625l-8.521-9.375
			c-2.222-2.446-4.428-3.749-6.612-3.911c-2.184-0.063-4.658,0.697-7.433,2.277l-16.876,9.211l14.168,15.592L343.484,222.584z
			 M331.575,198.543l16.208-8.848c3.313-1.809,5.379-3.478,6.197-5.008c0.937-1.765,0.23-3.938-2.113-6.521
			c-3.188-3.51-5.586-5.504-7.188-5.985c-1.983-0.576-4.729,0.092-8.237,2.006l-18.046,9.851L331.575,198.543z"/>
	</g>
</g>
</svg>
