<?xml version="1.0" encoding="utf-8"?>
<!-- Generator: Adobe Illustrator 16.0.0, SVG Export Plug-In . SVG Version: 6.00 Build 0)  -->
<!DOCTYPE svg PUBLIC "-//W3C//DTD SVG 1.1//EN" "http://www.w3.org/Graphics/SVG/1.1/DTD/svg11.dtd">
<svg version="1.1" id="Layer_2" xmlns="http://www.w3.org/2000/svg" xmlns:xlink="http://www.w3.org/1999/xlink" x="0px" y="0px"
	 width="960px" height="960px" viewBox="0 0 960 960" enable-background="new 0 0 960 960" xml:space="preserve">
<path fill="#FFFFFF" d="M71.488,754.347c49.385,19.79,88.715,59.349,108.188,108.894c19.79-49.386,59.348-88.715,108.893-108.188
	c-49.385-19.79-88.715-59.349-108.188-108.893C160.591,695.546,121.034,734.874,71.488,754.347z"/>
<path fill="#FFFFFF" d="M289.253,242.47c32.203,12.904,57.848,38.699,70.546,71.006c12.904-32.203,38.698-57.848,71.005-70.545
	c-32.202-12.904-57.848-38.699-70.546-71.005C347.354,204.127,321.561,229.772,289.253,242.47z"/>
<path fill="#FFFFFF" d="M463.75,365.491c29.247,11.72,52.538,35.147,64.071,64.488c11.719-29.247,35.145-52.538,64.486-64.07
	c-29.246-11.72-52.537-35.147-64.068-64.488C516.518,330.668,493.092,353.959,463.75,365.491z"/>
<path fill="#FFFFFF" d="M667.417,230.336c50.782,20.35,91.224,61.028,111.25,111.976c20.349-50.783,61.024-91.226,111.973-111.25
	c-50.782-20.35-91.224-61.028-111.247-111.975C759.041,169.871,718.365,210.313,667.417,230.336z"/>
<path fill="#FFFFFF" d="M793.417,615.483c30.308,12.145,54.443,36.423,66.396,66.829c12.144-30.309,36.42-54.445,66.826-66.396
	c-30.308-12.145-54.443-36.422-66.395-66.828C848.1,579.396,823.823,603.532,793.417,615.483z"/>
<g>
</g>
<g>
</g>
<g>
</g>
<g>
</g>
<g>
</g>
<g>
</g>
<g>
</g>
<g>
</g>
<g>
</g>
<g>
</g>
<g>
</g>
<g>
</g>
<g>
</g>
<g>
</g>
<g>
</g>
</svg>
