<?xml version="1.0" encoding="utf-8"?>
<!-- Generator: Adobe Illustrator 16.0.0, SVG Export Plug-In . SVG Version: 6.00 Build 0)  -->
<!DOCTYPE svg PUBLIC "-//W3C//DTD SVG 1.1//EN" "http://www.w3.org/Graphics/SVG/1.1/DTD/svg11.dtd">
<svg version="1.1" id="Layer_2" xmlns="http://www.w3.org/2000/svg" xmlns:xlink="http://www.w3.org/1999/xlink" x="0px" y="0px"
	 width="689.699px" height="663.659px" viewBox="0 0 689.699 663.659" enable-background="new 0 0 689.699 663.659"
	 xml:space="preserve">
<path fill="#00CDF7" d="M346.191,663.659c-81.069,0-157.286-31.57-214.611-88.895c-57.325-57.325-88.895-133.542-88.895-214.611
	s31.57-157.286,88.895-214.611s133.542-88.895,214.611-88.895s157.286,31.57,214.611,88.895
	c57.324,57.325,88.895,133.542,88.895,214.611s-31.57,157.286-88.895,214.611C503.477,632.089,427.26,663.659,346.191,663.659z
	 M346.191,106.648c-139.784,0-253.506,113.722-253.506,253.505s113.722,253.506,253.506,253.506
	c139.783,0,253.506-113.723,253.506-253.506S485.974,106.648,346.191,106.648z"/>
<circle fill="#00CDF7" cx="97.349" cy="485.35" r="97.349"/>
<circle fill="#00CDF7" cx="592.349" cy="485.35" r="97.35"/>
<circle fill="#00CDF7" cx="346.349" cy="97.35" r="97.35"/>
<g>
</g>
<g>
</g>
<g>
</g>
<g>
</g>
<g>
</g>
<g>
</g>
<g>
</g>
<g>
</g>
<g>
</g>
<g>
</g>
<g>
</g>
<g>
</g>
<g>
</g>
<g>
</g>
<g>
</g>
</svg>
