<?xml version="1.0" encoding="utf-8"?>
<!-- Generator: Adobe Illustrator 16.0.0, SVG Export Plug-In . SVG Version: 6.00 Build 0)  -->
<!DOCTYPE svg PUBLIC "-//W3C//DTD SVG 1.1//EN" "http://www.w3.org/Graphics/SVG/1.1/DTD/svg11.dtd">
<svg version="1.1" id="Layer_2" xmlns="http://www.w3.org/2000/svg" xmlns:xlink="http://www.w3.org/1999/xlink" x="0px" y="0px"
	 width="909px" height="794px" viewBox="35 45 909 794" enable-background="new 35 45 909 794" xml:space="preserve">
<path fill="#FE9847" d="M325.01,332.36L489.5,45l300.9,525.66C545.96,562.65,383.05,413.55,325.01,332.36z"/>
<polygon fill="#FE9847" points="121.31,688.22 405.59,815.4 405.18,839 35,839 "/>
<path fill="#FE9847" d="M297.44,380.53L176.75,591.37L486,823.479L777.49,604.69C524.52,587.66,356.72,460.28,297.44,380.53z
	 M490,725.4c0-18.4-42.33-59.4-59.4-59.4c17.07,0,59.4-40.67,59.4-59.4c0,18.07,39.67,59.4,59.4,59.4
	C529.67,666,490,707.33,490,725.4z"/>
<polygon fill="#FE9847" points="944,839 566.82,839 566.41,815.4 856.26,685.72 "/>
</svg>
