<?xml version="1.0" encoding="utf-8"?>
<!-- Generator: Adobe Illustrator 16.0.0, SVG Export Plug-In . SVG Version: 6.00 Build 0)  -->
<!DOCTYPE svg PUBLIC "-//W3C//DTD SVG 1.1//EN" "http://www.w3.org/Graphics/SVG/1.1/DTD/svg11.dtd">
<svg version="1.1" id="Layer_1" xmlns="http://www.w3.org/2000/svg" xmlns:xlink="http://www.w3.org/1999/xlink" x="0px" y="0px"
	 width="796.46px" height="518.021px" viewBox="96 264 796.46 518.021" enable-background="new 96 264 796.46 518.021"
	 xml:space="preserve">
<g id="Layer_3" display="none">
	<rect display="inline" width="960" height="960"/>
</g>
<g id="Layer_2">
	<path fill="#FFFFFF" d="M244.71,264L96,598h647.76l148.7-334H244.71z M721.667,574H140.63l124.037-281H847.37L721.667,574z"/>
	<polygon fill="#FFFFFF" points="767.743,471 757.007,495 282.51,495 371.36,293 402.09,293 324.51,471 	"/>
	<g>
		<path fill="#FFFFFF" d="M649.464,408.266h15.527c-1.275,2.866-2.116,4.753-2.521,5.664c-4.139,9.441-7.854,16.179-11.148,20.214
			c-6.677,8.27-15.566,13.25-26.672,14.942c-4.195,0.649-14.14,0.977-29.828,0.977c-7.031,0-11.98-0.146-14.845-0.438
			c-2.864-0.294-5.528-0.962-7.995-2.002c-9.749-3.841-11.72-13.965-5.911-30.371c2.711-7.552,5.994-15.657,9.85-24.317
			c7.913-17.773,13.524-29.426,16.835-34.961c5.31-8.853,12.92-15.494,22.835-19.921c6.193-2.799,13.541-4.459,22.042-4.98
			c4.151-0.259,11.534-0.391,22.146-0.391c10.024,0,16.733,0.651,20.127,1.953c7.68,2.93,10.184,9.441,7.515,19.532
			c-1.002,3.711-2.763,8.398-5.284,14.063c-0.291,0.651-0.787,1.693-1.488,3.125h-15.332c1.063-2.539,1.771-4.199,2.12-4.981
			c3.983-9.243,4.959-14.941,2.921-17.09c-1.766-1.888-7.366-2.832-16.807-2.832c-12.5,0-21.644,0.358-27.432,1.074
			c-3.589,0.456-6.636,1.416-9.145,2.881c-2.508,1.465-4.917,3.695-7.227,6.689c-2.491,3.256-5.418,8.659-8.78,16.211
			c-11.941,26.824-18.676,43.555-20.199,50.195c-1.067,4.297-0.854,7.324,0.645,9.082c1.705,2.02,5.43,3.159,11.173,3.419
			c3.522,0.131,7.336,0.195,11.438,0.195c9.438,0,16.493-0.31,21.164-0.928c4.67-0.618,8.166-1.71,10.489-3.271
			c3.265-2.212,6.621-7.193,10.07-14.941C646.877,414.516,648.115,411.586,649.464,408.266z"/>
		<path fill="#FFFFFF" d="M668.367,448.5l50.87-114.257h57.616c10.156,0,17.104,1.726,20.842,5.175
			c3.288,2.996,4.416,7.553,3.385,13.672c-0.646,3.647-2.289,8.433-4.926,14.355c-4.35,9.766-8.777,16.862-13.287,21.289
			c-4.815,4.819-10.916,7.554-18.301,8.203c10.878,0.717,13.292,7.943,7.241,21.68L758.504,448.5h-15.527l12-26.953
			c3.132-7.031,3.681-11.848,1.65-14.454c-2.249-2.408-6.688-3.547-13.322-3.417h-39.453L683.895,448.5H668.367z M710.025,389.809
			h37.891c7.747,0,13.809-1.041,18.188-3.125c5.044-2.408,9.22-7.324,12.523-14.746c4.492-10.091,6.406-16.438,5.744-19.043
			c-0.859-3.189-5.389-4.786-13.592-4.786h-42.188L710.025,389.809z"/>
	</g>
	<path fill="#FFFFFF" fill-opacity="0.45" d="M851.5,356l-12.91,29h8.78l-125.7,281H140.63l30.02-68h-33.69L96,690h647.76l148.7-334
		H851.5z"/>
	<path fill="#FFFFFF" fill-opacity="0.25" d="M851.5,448.021l-12.91,29h8.78l-125.7,281H140.63l30.02-68h-33.69l-40.96,92h647.76
		l148.7-334H851.5z"/>
</g>
</svg>
