<?xml version="1.0" encoding="utf-8"?>
<!-- Generator: Adobe Illustrator 16.0.0, SVG Export Plug-In . SVG Version: 6.00 Build 0)  -->
<!DOCTYPE svg PUBLIC "-//W3C//DTD SVG 1.1//EN" "http://www.w3.org/Graphics/SVG/1.1/DTD/svg11.dtd">
<svg version="1.1" id="Layer_1" xmlns="http://www.w3.org/2000/svg" xmlns:xlink="http://www.w3.org/1999/xlink" x="0px" y="0px"
	 width="796.46px" height="518.02px" viewBox="0 0 796.46 518.02" enable-background="new 0 0 796.46 518.02" xml:space="preserve">
<g id="Layer_2">
	<path fill="#FFFFFF" d="M148.71,0L0,334h647.759L796.46,0H148.71z M625.667,310H44.63L168.667,29h582.704L625.667,310z"/>
	<polygon fill="#FFFFFF" points="671.744,207 661.007,231 186.51,231 275.36,29 306.089,29 228.51,207 	"/>
	<g>
		<path fill="#FFFFFF" d="M553.464,144.266h15.527c-1.275,2.865-2.117,4.753-2.521,5.664c-4.139,9.441-7.854,16.18-11.148,20.213
			c-6.678,8.271-15.566,13.25-26.672,14.943c-4.195,0.648-14.141,0.977-29.828,0.977c-7.031,0-11.98-0.146-14.846-0.438
			c-2.863-0.295-5.527-0.963-7.994-2.002c-9.748-3.842-11.721-13.965-5.91-30.371c2.711-7.553,5.994-15.658,9.85-24.317
			c7.912-17.772,13.523-29.427,16.834-34.961c5.311-8.853,12.92-15.494,22.836-19.921c6.193-2.799,13.541-4.459,22.041-4.98
			c4.152-0.259,11.535-0.391,22.146-0.391c10.023,0,16.732,0.65,20.127,1.953c7.68,2.93,10.184,9.441,7.516,19.531
			c-1.002,3.711-2.764,8.398-5.285,14.063c-0.291,0.651-0.787,1.692-1.486,3.125h-15.332c1.063-2.539,1.77-4.198,2.119-4.981
			c3.982-9.242,4.959-14.94,2.922-17.09c-1.768-1.888-7.367-2.832-16.809-2.832c-12.5,0-21.643,0.358-27.432,1.074
			c-3.588,0.456-6.635,1.416-9.145,2.881c-2.508,1.465-4.918,3.695-7.227,6.689c-2.492,3.256-5.418,8.658-8.781,16.211
			c-11.939,26.824-18.676,43.555-20.199,50.195c-1.066,4.297-0.854,7.324,0.646,9.082c1.705,2.02,5.43,3.158,11.172,3.418
			c3.523,0.131,7.336,0.195,11.439,0.195c9.438,0,16.492-0.311,21.164-0.928c4.67-0.617,8.166-1.711,10.488-3.271
			c3.266-2.211,6.621-7.193,10.07-14.94C550.876,150.516,552.115,147.586,553.464,144.266z"/>
		<path fill="#FFFFFF" d="M572.367,184.5l50.871-114.258h57.615c10.156,0,17.104,1.727,20.842,5.176
			c3.289,2.996,4.416,7.553,3.385,13.672c-0.646,3.646-2.289,8.433-4.926,14.354c-4.35,9.767-8.777,16.862-13.287,21.289
			c-4.814,4.819-10.916,7.554-18.301,8.203c10.879,0.717,13.293,7.942,7.24,21.681L662.503,184.5h-15.527l12-26.953
			c3.133-7.031,3.682-11.848,1.65-14.455c-2.248-2.407-6.688-3.547-13.322-3.416h-39.453L587.894,184.5H572.367z M614.025,125.809
			h37.891c7.748,0,13.809-1.041,18.188-3.125c5.045-2.408,9.221-7.324,12.523-14.746c4.492-10.091,6.406-16.438,5.744-19.043
			c-0.859-3.189-5.389-4.786-13.592-4.786h-42.188L614.025,125.809z"/>
	</g>
	<path fill="#FFFFFF" fill-opacity="0.45" d="M755.5,92l-12.91,29h8.781L625.669,402H44.63l30.02-68H40.96L0,426h647.759L796.46,92
		H755.5z"/>
	<path fill="#FFFFFF" fill-opacity="0.25" d="M755.5,184.02l-12.91,29h8.781l-125.701,281H44.63l30.02-68H40.96L0,518.02h647.759
		l148.701-334H755.5z"/>
</g>
</svg>
