<?xml version="1.0" encoding="UTF-8" standalone="no"?>
<svg
   xmlns:dc="http://purl.org/dc/elements/1.1/"
   xmlns:cc="http://creativecommons.org/ns#"
   xmlns:rdf="http://www.w3.org/1999/02/22-rdf-syntax-ns#"
   xmlns:svg="http://www.w3.org/2000/svg"
   xmlns="http://www.w3.org/2000/svg"
   xmlns:xlink="http://www.w3.org/1999/xlink"
   xmlns:sodipodi="http://sodipodi.sourceforge.net/DTD/sodipodi-0.dtd"
   xmlns:inkscape="http://www.inkscape.org/namespaces/inkscape"
   width="926.46411"
   height="635.35248"
   viewBox="0 0 926.46416 635.35248"
   version="1.1"
   id="svg8"
   sodipodi:docname="INRA.svg"
   inkscape:version="0.92.2 (5c3e80d, 2017-08-06)"
   inkscape:export-filename="D:\Documents\Dropbox\Elite Dangerous\INRA.png"
   inkscape:export-xdpi="96"
   inkscape:export-ydpi="96">
  <title
     id="title4596">INRA</title>
  <metadata
     id="metadata12">
    <rdf:RDF>
      <cc:Work
         rdf:about="">
        <dc:format>image/svg+xml</dc:format>
        <dc:type
           rdf:resource="http://purl.org/dc/dcmitype/StillImage" />
        <dc:title>INRA</dc:title>
        <cc:license
           rdf:resource="http://artlibre.org/licence/lal" />
        <dc:date>10/14/2017</dc:date>
        <dc:creator>
          <cc:Agent>
            <dc:title>RocketTurtle</dc:title>
          </cc:Agent>
        </dc:creator>
        <dc:rights>
          <cc:Agent>
            <dc:title>FreeArt License</dc:title>
          </cc:Agent>
        </dc:rights>
        <dc:subject>
          <rdf:Bag>
            <rdf:li>inra elite dangerous</rdf:li>
          </rdf:Bag>
        </dc:subject>
        <dc:description>INRA logo from Elite Dangerous</dc:description>
      </cc:Work>
      <cc:License
         rdf:about="http://artlibre.org/licence/lal">
        <cc:permits
           rdf:resource="http://creativecommons.org/ns#Reproduction" />
        <cc:permits
           rdf:resource="http://creativecommons.org/ns#Distribution" />
        <cc:permits
           rdf:resource="http://creativecommons.org/ns#DerivativeWorks" />
        <cc:requires
           rdf:resource="http://creativecommons.org/ns#ShareAlike" />
        <cc:requires
           rdf:resource="http://creativecommons.org/ns#Notice" />
        <cc:requires
           rdf:resource="http://creativecommons.org/ns#Attribution" />
      </cc:License>
    </rdf:RDF>
  </metadata>
  <sodipodi:namedview
     pagecolor="#ffffff"
     bordercolor="#666666"
     borderopacity="1"
     objecttolerance="10"
     gridtolerance="10"
     guidetolerance="10"
     inkscape:pageopacity="0"
     inkscape:pageshadow="2"
     inkscape:window-width="1920"
     inkscape:window-height="1017"
     id="namedview10"
     showgrid="false"
     showguides="true"
     inkscape:guide-bbox="true"
     inkscape:zoom="1"
     inkscape:cx="399.82108"
     inkscape:cy="300.0092"
     inkscape:window-x="1912"
     inkscape:window-y="-8"
     inkscape:window-maximized="1"
     inkscape:current-layer="layer2"
     inkscape:pagecheckerboard="true"
     fit-margin-top="10"
     fit-margin-left="10"
     fit-margin-right="10"
     fit-margin-bottom="10"
     showborder="false" />
  <defs
     id="defs2" />
  <g
     inkscape:groupmode="layer"
     id="layer4"
     inkscape:label="Circles"
     transform="translate(-395.86788,-250.88647)"
     sodipodi:insensitive="true">
    <circle
       style="fill-opacity:1;fill-rule:nonzero;stroke:#000000;stroke-width:9;stroke-linecap:square;stroke-linejoin:miter;stroke-miterlimit:4;stroke-dasharray:none;stroke-dashoffset:0;stroke-opacity:1;paint-order:normal"
       id="path4586"
       cx="675.31378"
       cy="800.18457"
       r="34.348385" />
    <use
       x="0"
       y="0"
       xlink:href="#path4586"
       id="use4588"
       transform="matrix(1,0,0,-1,367.57234,1598.5011)"
       width="100%"
       height="100%" />
  </g>
  <g
     inkscape:groupmode="layer"
     id="layer3"
     inkscape:label="Rings"
     style="display:inline"
     transform="translate(-395.86788,-250.88647)"
     sodipodi:insensitive="true">
    <circle
       style="fill:none;fill-opacity:1;fill-rule:nonzero;stroke:#000000;stroke-width:10;stroke-linecap:square;stroke-linejoin:miter;stroke-miterlimit:4;stroke-dasharray:none;stroke-dashoffset:0;stroke-opacity:1;paint-order:normal"
       id="path4564"
       cx="859.09998"
       cy="580.62396"
       r="290.61496" />
    <path
       style="fill:none;fill-opacity:1;fill-rule:nonzero;stroke:#000000;stroke-width:8;stroke-linecap:square;stroke-linejoin:miter;stroke-miterlimit:4;stroke-dasharray:none;stroke-dashoffset:0;stroke-opacity:1;paint-order:normal"
       d="m 1075.5088,468.60581 c 11.515,27.79968 17.6076,57.8454 17.6076,88.51929 0,30.67388 -6.0926,60.71961 -17.6076,88.51929 -11.515,27.79968 -28.4524,53.35332 -50.1421,75.04303 -21.6898,21.68971 -47.24338,38.62714 -75.04308,50.14215 -27.79967,11.515 -57.8454,17.60758 -88.51928,17.60758 -30.67389,0 -60.71961,-6.09258 -88.51929,-17.60758 -27.79968,-11.51501 -53.35332,-28.45244 -75.04303,-50.14215 -21.68971,-21.68972 -38.62714,-47.24335 -50.14214,-75.04303 -11.515,-27.79968 -17.60758,-57.84541 -17.60757,-88.51929 0,-30.67388 6.09258,-60.71961 17.60758,-88.51928"
       id="path4564-8"
       inkscape:connector-curvature="0"
       sodipodi:nodetypes="csssssssssc" />
  </g>
  <g
     inkscape:groupmode="layer"
     id="layer1"
     inkscape:label="Wings"
     transform="translate(-395.86788,-250.88647)"
     sodipodi:insensitive="true">
    <g
       id="g4561"
       transform="matrix(0.5231704,0,0,0.5231704,408.34642,261.09424)">
      <a
         transform="translate(8.5989307,1.1145764)"
         id="a822">
        <g
           id="g6">
          <path
             d="m 1717.55,-0.05 0.1,-0.2 0.55,0.15 0.4,0.45 0.6,1.2 0.1,0.7 -0.35,0.6 -9.2,8.5 -698.95,676.35 -2.75,2.8 -2.6,2.9 -2.45,2.95 -2.25,3.1 -2.1,3.2 -1.95,3.3 -1.8,3.45 -1.65,3.65 -58.35,137.65 -58.5,137.55 -4.85,10.7 -0.25,0.35 -0.4,0.2 -11.13089,0.10578 0.0712,-531.3424 2.05968,-1.01336 2.5,-0.8 2.55,-1.25 2.65,-1.7 547.35001,-384.35 2.75,-1.8 2.75,-1.65 2.8,-1.5 2.85,-1.35 2.9,-1.25 3,-1.1 3.05,-0.95 3.15,-0.85 134.65,-33.55 134.65,-33.65 4.25,-0.9 3.8,-0.65"
             id="path4"
             inkscape:connector-curvature="0"
             style="fill:#000000;stroke:none"
             sodipodi:nodetypes="ccccccccccccccccccccccccccccccccccccccccc" />
        </g>
      </a>
      <use
         height="100%"
         width="100%"
         transform="matrix(-1,0,0,1,1723.1614,-1.2617151)"
         id="use4517"
         xlink:href="#a822"
         y="0"
         x="0" />
    </g>
  </g>
  <g
     inkscape:groupmode="layer"
     id="layer2"
     inkscape:label="Star"
     transform="translate(-395.86788,-250.88647)"
     sodipodi:insensitive="true">
    <path
       d="m 859.33271,268.82973 0.0716,0.0298 0.3939,0.11908 0.25067,0.29767 27.00023,89.86908 0.14324,0.11906 108.86038,22.56402 0.35805,0.1786 0.1791,0.44652 -0.1791,0.41675 -0.3222,0.14884 -5.6221,1.39908 -47.98455,9.97224 -48.0203,9.82338 -1.89788,0.44652 -1.64723,0.53582 -1.39657,0.65489 -1.25332,0.8335 -1.00267,0.98233 -0.85943,1.16095 -0.68036,1.36932 -0.57296,1.60747 -11.56642,39.41261 -11.81707,39.35306 -0.50133,1.42886 -0.64457,1.42886 -0.85941,1.36932 -0.53716,0.68465 -0.25066,0.17862 -0.32227,0.0595 -0.39391,-0.11907 -0.25066,-0.26791 -1.8979,-5.12007 -11.81708,-39.3233 -11.63803,-39.35307 -0.46552,-1.42886 -0.57294,-1.25025 -0.68038,-1.07164 -0.85942,-0.95257 -1.03848,-0.77396 -1.25333,-0.65489 -1.46818,-0.53582 -1.75465,-0.41675 -48.8081,-9.97223 -48.73649,-10.15083 -4.94169,-1.25025 -0.32228,-0.17861 -0.14324,-0.47629 0.25067,-0.53581 0.32228,-0.14884 108.57385,-22.47471 0.14325,-0.11907 26.96441,-89.86907 0.39391,-0.38699 1.07428,-0.0595"
       id="path4-5"
       inkscape:connector-curvature="0"
       style="fill:#000000;stroke:none;stroke-width:0.65298259"
       sodipodi:nodetypes="ccccccccccccccccccccccccccccccccccccccccccccccccccccccc" />
  </g>
</svg>
