<svg xmlns="http://www.w3.org/2000/svg" xmlns:xlink="http://www.w3.org/1999/xlink" viewBox="0 0 577 573"><defs><style>.e93e880f-91da-4344-a171-c71ef3becd23{fill:none;}.a60afba3-27a2-44ee-a6a0-4a658c916d3b{clip-path:url(#f674b037-86ef-4310-8e04-68eddb2dfbcf);}.a7f096a7-9afc-45fa-b853-f6fe36261b02{fill:#ff7100;}.fb17bcc6-24d0-434a-a23f-7eb7177cba95{fill:#fff;}</style><clipPath id="f674b037-86ef-4310-8e04-68eddb2dfbcf"><path class="e93e880f-91da-4344-a171-c71ef3becd23" d="M0,0V573H577V0ZM486.329,410.259H88.19806V170.33638H486.329Z"/></clipPath></defs><title>rank3</title><g id="eb50ed14-34e0-4a42-af37-fe47764a9697" data-name="Layer 2"><g id="b59a50ca-e5c4-4934-b789-0a5d728bed05" data-name="Layer 3"><rect width="577" height="573"/><g class="a60afba3-27a2-44ee-a6a0-4a658c916d3b"><path class="a7f096a7-9afc-45fa-b853-f6fe36261b02" d="M289.2059,12.70576,563.25153,285.7966,287.7941,560.29425,13.74849,287.2034,289.2059,12.70576M289.2059,0,.99831,287.2034,287.7941,573,576.00171,285.7966,289.2059,0Z"/></g><polygon class="a7f096a7-9afc-45fa-b853-f6fe36261b02" points="288.5 277.43 297.125 292.359 314.038 295.92 302.455 308.707 304.283 325.837 288.5 318.811 272.717 325.837 274.545 308.707 262.962 295.92 279.875 292.359 288.5 277.43"/><polygon class="a7f096a7-9afc-45fa-b853-f6fe36261b02" points="227.469 293.549 232.687 302.581 242.919 304.735 235.912 312.471 237.018 322.835 227.469 318.584 217.92 322.835 219.026 312.471 212.019 304.735 222.251 302.581 227.469 293.549"/><polygon class="a7f096a7-9afc-45fa-b853-f6fe36261b02" points="349.531 293.549 354.749 302.581 364.981 304.735 357.974 312.471 359.08 322.835 349.531 318.584 339.982 322.835 341.088 312.471 334.081 304.735 344.313 302.581 349.531 293.549"/><path class="fb17bcc6-24d0-434a-a23f-7eb7177cba95" d="M288.5,99.72018c-94.2133,84.19079-185.27889,90.47368-185.27889,90.47368v47.49869S164.446,248.24781,288.5,151.49123c124.054,96.75658,185.27889,86.20132,185.27889,86.20132V190.19386S382.7133,183.911,288.5,99.72018Z"/><path class="fb17bcc6-24d0-434a-a23f-7eb7177cba95" d="M288.5,168.87566c-94.2133,84.19079-185.27889,90.47369-185.27889,90.47369V306.848S164.446,317.40329,288.5,220.64671C412.554,317.40329,473.77889,306.848,473.77889,306.848V259.34935S382.7133,253.06645,288.5,168.87566Z"/><path class="fb17bcc6-24d0-434a-a23f-7eb7177cba95" d="M288.5,364.95063c76.41493,0,184.102-31.58407,184.102-31.58407v48.37366S361.8886,417.78845,288.5,417.78845s-184.102-36.04823-184.102-36.04823V333.36656S212.08507,364.95063,288.5,364.95063Z"/></g></g></svg>