<?xml version="1.0" encoding="UTF-8" standalone="no"?>
<svg
   xmlns:dc="http://purl.org/dc/elements/1.1/"
   xmlns:cc="http://creativecommons.org/ns#"
   xmlns:rdf="http://www.w3.org/1999/02/22-rdf-syntax-ns#"
   xmlns:svg="http://www.w3.org/2000/svg"
   xmlns="http://www.w3.org/2000/svg"
   xmlns:sodipodi="http://sodipodi.sourceforge.net/DTD/sodipodi-0.dtd"
   xmlns:inkscape="http://www.inkscape.org/namespaces/inkscape"
   viewBox="0 0 575.00342 573"
   version="1.1"
   id="svg39"
   sodipodi:docname="rank5.svg"
   width="575.00342"
   height="573"
   inkscape:export-filename="G:\Users\SpyTec\Documents\JavaScriptProjects\EDAssets\static\img\powerplay\ranks\rank5.png"
   inkscape:export-xdpi="96"
   inkscape:export-ydpi="96"
   inkscape:version="0.92.3 (2405546, 2018-03-11)">
  <metadata
     id="metadata43">
    <rdf:RDF>
      <cc:Work
         rdf:about="">
        <dc:format>image/svg+xml</dc:format>
        <dc:type
           rdf:resource="http://purl.org/dc/dcmitype/StillImage" />
      </cc:Work>
    </rdf:RDF>
  </metadata>
  <sodipodi:namedview
     pagecolor="#ffffff"
     bordercolor="#666666"
     borderopacity="1"
     objecttolerance="10"
     gridtolerance="10"
     guidetolerance="10"
     inkscape:pageopacity="0"
     inkscape:pageshadow="2"
     inkscape:window-width="1920"
     inkscape:window-height="1017"
     id="namedview41"
     showgrid="false"
     inkscape:zoom="1.1649368"
     inkscape:cx="183.21539"
     inkscape:cy="255.76841"
     inkscape:window-x="3192"
     inkscape:window-y="-8"
     inkscape:window-maximized="1"
     inkscape:current-layer="b7999ae4-e29c-4b9c-822c-680e8f2ae66c" />
  <defs
     id="defs7">
    <style
       id="style2">.abb1d545-e075-40da-89d9-2d46dae58b19{fill:none;}.e4c6f796-a42e-463c-8b35-f08f7a731cc6{clip-path:url(#fe579a78-91c6-4250-a817-687a3b781d88);}.b5bf7f04-3e5b-4a5d-9ac8-35527b93ed33{fill:#ff7100;}.f2b056d2-e8ea-4c13-a2ea-099445675b58{fill:#fff;}</style>
    <clipPath
       id="fe579a78-91c6-4250-a817-687a3b781d88">
      <path
         class="abb1d545-e075-40da-89d9-2d46dae58b19"
         d="M 0,0 V 573 H 577 V 0 Z M 486.329,539.259 H 88.19806 V 112.33634 h 88.27871 l -25.60177,25.60179 38.54607,-25.60179 h 199.3263 l 38.56929,25.30577 -25.38166,-25.30577 h 84.394 z"
         id="path4"
         inkscape:connector-curvature="0"
         style="fill:none" />
    </clipPath>
  </defs>
  <title
     id="title9">rank5</title>
  <g
     id="b7999ae4-e29c-4b9c-822c-680e8f2ae66c"
     data-name="Layer 2"
     transform="translate(-0.99831)">
    <g
       id="g15"
       clip-path="url(#fe579a78-91c6-4250-a817-687a3b781d88)"
       class="e4c6f796-a42e-463c-8b35-f08f7a731cc6">
      <path
         style="fill:#ff7100"
         inkscape:connector-curvature="0"
         id="path13"
         d="M 289.2059,12.70576 563.25153,285.7966 287.7941,560.29425 13.74849,287.2034 289.2059,12.70576 M 289.2059,0 0.99831,287.2034 287.7941,573 576.00171,285.7966 Z"
         class="b5bf7f04-3e5b-4a5d-9ac8-35527b93ed33" />
    </g>
    <path
       style="fill:#ffffff"
       inkscape:connector-curvature="0"
       id="path17"
       d="m 288.5,474.57168 c 76.41493,0 184.102,-31.58407 184.102,-31.58407 v 48.37366 c 0,0 -110.7134,36.04823 -184.102,36.04823 -73.3886,0 -184.102,-36.04823 -184.102,-36.04823 v -48.37366 c 0,0 107.68707,31.58407 184.102,31.58407 z"
       class="f2b056d2-e8ea-4c13-a2ea-099445675b58" />
    <path
       style="fill:#ffffff"
       inkscape:connector-curvature="0"
       id="path19"
       d="m 288.5,405.60326 c 76.41493,0 184.102,-31.58407 184.102,-31.58407 v 48.37366 c 0,0 -110.7134,36.04823 -184.102,36.04823 -73.3886,0 -184.102,-36.04823 -184.102,-36.04823 v -48.37366 c 0,0 107.68707,31.58407 184.102,31.58407 z"
       class="f2b056d2-e8ea-4c13-a2ea-099445675b58" />
    <polygon
       style="fill:#ff7100"
       id="polygon21"
       points="307.906,375.604 285.974,365.84 264.041,375.604 266.582,351.8 250.486,334.031 273.989,329.083 285.974,308.337 297.959,329.083 321.462,334.031 305.366,351.8 "
       class="b5bf7f04-3e5b-4a5d-9ac8-35527b93ed33" />
    <polygon
       style="fill:#ff7100"
       id="polygon23"
       points="233.545,371.507 222.164,366.441 210.783,371.507 212.101,359.155 203.749,349.935 215.945,347.367 222.164,336.602 228.383,347.367 240.579,349.935 232.226,359.155 "
       class="b5bf7f04-3e5b-4a5d-9ac8-35527b93ed33" />
    <polygon
       style="fill:#ff7100"
       id="polygon25"
       points="361.67,371.507 350.289,366.441 338.908,371.507 340.226,359.155 331.874,349.935 344.07,347.367 350.289,336.602 356.508,347.367 368.704,349.935 360.351,359.155 "
       class="b5bf7f04-3e5b-4a5d-9ac8-35527b93ed33" />
    <polygon
       style="fill:#ff7100"
       id="polygon27"
       points="189.47,368.441 182.395,365.291 175.32,368.441 176.14,360.762 170.947,355.03 178.529,353.434 182.395,346.742 186.261,353.434 193.842,355.03 188.65,360.762 "
       class="b5bf7f04-3e5b-4a5d-9ac8-35527b93ed33" />
    <polygon
       style="fill:#ff7100"
       id="polygon29"
       points="397.638,368.441 390.563,365.291 383.488,368.441 384.308,360.762 379.116,355.03 386.697,353.434 390.563,346.742 394.429,353.434 402.011,355.03 396.818,360.762 "
       class="b5bf7f04-3e5b-4a5d-9ac8-35527b93ed33" />
    <path
       style="fill:#ffffff"
       inkscape:connector-curvature="0"
       id="path31"
       d="m 288.5,120.43861 c 129.01579,111.18244 185.27889,100.20133 185.27889,100.20133 v -47.49869 c 0,0 -62.70521,4.29033 -185.27889,-126.4737 -122.57368,130.764 -185.27889,126.4737 -185.27889,126.4737 v 47.49869 c 0,0 56.2631,10.98111 185.27889,-100.20133 z"
       class="f2b056d2-e8ea-4c13-a2ea-099445675b58" />
    <path
       style="fill:#ffffff"
       inkscape:connector-curvature="0"
       id="path33"
       d="m 288.5,213.86442 c 107.79474,93.80274 185.27889,87.47369 185.27889,87.47369 v 47.49868 c 0,0 -56.2631,12.00532 -185.27889,-85.20132 -129.01579,97.20664 -185.27889,85.20132 -185.27889,85.20132 v -47.49868 c 0,0 77.48415,6.32905 185.27889,-87.47369 z"
       class="f2b056d2-e8ea-4c13-a2ea-099445675b58" />
    <path
       style="fill:#ffffff"
       inkscape:connector-curvature="0"
       id="path35"
       d="m 288.5,141.22885 c 107.79474,93.80273 185.27889,97.47369 185.27889,97.47369 v 46.49868 c 0,0 -59.29468,8.94615 -185.27889,-94.20132 -125.98421,103.14747 -185.27889,94.20132 -185.27889,94.20132 v -46.49868 c 0,0 77.48415,-3.67096 185.27889,-97.47369 z"
       class="f2b056d2-e8ea-4c13-a2ea-099445675b58" />
  </g>
</svg>
