<?xml version="1.0" encoding="utf-8"?>
<!-- Generator: Adobe Illustrator 16.0.0, SVG Export Plug-In . SVG Version: 6.00 Build 0)  -->
<!DOCTYPE svg PUBLIC "-//W3C//DTD SVG 1.1//EN" "http://www.w3.org/Graphics/SVG/1.1/DTD/svg11.dtd">
<svg version="1.1" xmlns="http://www.w3.org/2000/svg" xmlns:xlink="http://www.w3.org/1999/xlink" x="0px" y="0px" width="686px"
	 height="686.001px" viewBox="0 0 686 686.001" enable-background="new 0 0 686 686.001" xml:space="preserve">
<g id="Layer_3">
	<path d="M343,139.001c54.49,0,105.72,21.22,144.25,59.75c38.53,38.531,59.75,89.759,59.75,144.25
		c0,54.49-21.22,105.72-59.75,144.25s-89.76,59.75-144.25,59.75c-54.491,0-105.719-21.22-144.25-59.75
		c-38.53-38.53-59.75-89.76-59.75-144.25c0-54.491,21.22-105.719,59.75-144.25C237.281,160.221,288.51,139.001,343,139.001
		 M343,89.001c-140.281,0-254,113.719-254,254c0,140.28,113.719,254,254,254c140.28,0,254-113.72,254-254
		C597,202.72,483.281,89.001,343,89.001L343,89.001z"/>
</g>
<g id="Layer_4">
	<g>
		<circle cx="235" cy="343.001" r="35"/>
		<circle cx="266.633" cy="419.369" r="35"/>
		<circle cx="343" cy="451.001" r="35"/>
		<circle cx="419.368" cy="419.369" r="35"/>
		<circle cx="451" cy="343.001" r="35"/>
		<circle cx="419.368" cy="266.634" r="35"/>
		<circle cx="343" cy="235.001" r="35"/>
		<circle cx="266.633" cy="266.634" r="35"/>
	</g>
</g>
<g id="Layer_7">
	<g>
		<circle cx="343" cy="651.001" r="35"/>
		<circle cx="125.211" cy="560.79" r="35"/>
		<path d="M70,342.999c0,19.331-15.67,35-35,35.001c-19.331,0-35-15.67-35-34.998C0,323.669,15.67,308,35,308
			C54.329,308,69.998,323.67,70,342.999z"/>
		<circle cx="125.212" cy="125.211" r="35"/>
		<path d="M343.002,70c-19.331,0.001-35-15.67-35-35C308.001,15.67,323.671,0,343,0c19.333,0,35.001,15.671,35.001,35
			S362.331,69.998,343.002,70z"/>
		<circle cx="560.791" cy="125.212" r="34.999"/>
		<circle cx="651.001" cy="343.001" r="34.999"/>
		<circle cx="560.79" cy="560.791" r="34.999"/>
	</g>
</g>
<g id="Layer_2" display="none">
</g>
</svg>
