<?xml version="1.0" encoding="utf-8"?>
<!-- Generator: Adobe Illustrator 16.0.0, SVG Export Plug-In . SVG Version: 6.00 Build 0)  -->
<!DOCTYPE svg PUBLIC "-//W3C//DTD SVG 1.1//EN" "http://www.w3.org/Graphics/SVG/1.1/DTD/svg11.dtd">
<svg version="1.1" id="Layer_2" xmlns="http://www.w3.org/2000/svg" xmlns:xlink="http://www.w3.org/1999/xlink" x="0px" y="0px"
	 width="436px" height="436px" viewBox="0 0 436 436" enable-background="new 0 0 436 436" xml:space="preserve">
<g>
	<path d="M218,40c47.546,0,92.245,18.515,125.865,52.135C377.484,125.755,396,170.455,396,218
		c0,47.546-18.516,92.245-52.135,125.865C310.245,377.484,265.546,396,218,396c-47.545,0-92.245-18.516-125.865-52.135
		C58.515,310.245,40,265.546,40,218c0-47.545,18.515-92.245,52.135-125.865C125.755,58.515,170.455,40,218,40 M218,0
		C97.602,0,0,97.602,0,218c0,120.398,97.602,218,218,218c120.398,0,218-97.602,218-218C436,97.602,338.398,0,218,0L218,0z"/>
</g>
<g>
	<circle cx="136.75" cy="128" r="28"/>
	<circle cx="136.75" cy="218" r="28"/>
	<circle cx="136.75" cy="308" r="28"/>
	<circle cx="297.75" cy="128" r="28"/>
	<circle cx="297.75" cy="218" r="28"/>
	<circle cx="297.75" cy="308" r="28"/>
</g>
<g>
	<circle cx="217.25" cy="331" r="28"/>
	<circle cx="217.25" cy="257" r="28"/>
	<circle cx="217.25" cy="183" r="28"/>
	<circle cx="217.25" cy="109" r="28"/>
</g>
</svg>
