<?xml version="1.0" encoding="utf-8"?>
<!-- Generator: Adobe Illustrator 16.0.0, SVG Export Plug-In . SVG Version: 6.00 Build 0)  -->
<!DOCTYPE svg PUBLIC "-//W3C//DTD SVG 1.1//EN" "http://www.w3.org/Graphics/SVG/1.1/DTD/svg11.dtd">
<svg version="1.1" id="Layer_1" xmlns="http://www.w3.org/2000/svg" xmlns:xlink="http://www.w3.org/1999/xlink" x="0px" y="0px"
	 width="558.325px" height="269.073px" viewBox="720.505 865.574 558.325 269.073"
	 enable-background="new 720.505 865.574 558.325 269.073" xml:space="preserve">
<path d="M999.89,956.815c12.845,0,24.139,6.865,29.011,16.831l0,0v-40.749c0,0,0.222-13.73,11.295-13.73c0.221,0,0.221,0,0.442,0
	v-53.593h4.208v55.144c11.516,7.308,29.011,37.869,49.385,58.908c23.254,23.917,64.889,46.949,64.889,46.949h49.828l3.986,3.322
	c0,0,9.301-6.645,13.287-23.696c10.63-15.503,9.966-16.167,12.845-26.133c1.993-6.644,6.644-10.408,9.522-12.18l3.766-34.77v34.104
	l4.65,3.544l4.872-5.094c0,0,11.294,7.751,14.395,23.696c5.758,30.118,0,77.953,0,77.953l-2.214,2.215l-2.215,11.073l-2.215,2.215
	l-2.215,11.072l-2.215,2.215l-2.214,11.073h-11.517v-23.032l-5.094-4.872h-10.408c0,0-7.751-12.18-11.072-21.703
	c0,0-64.667-2.879-102.536,7.752c-38.091,10.63-64.666,31.668-64.666,31.668l-4.872,11.737h-24.14c0,0-10.187,9.744-15.28,15.945
	c-5.758,6.865-6.644,9.966-13.73,9.966s-7.973-3.101-13.73-9.966c-5.094-5.979-15.281-15.945-15.281-15.945h-24.139l-4.872-11.737
	c0,0-26.575-21.038-64.666-31.668c-38.091-10.631-102.536-7.752-102.536-7.752c-3.322,9.523-11.072,21.703-11.072,21.703h-10.409
	l-5.094,4.872v23.032h-11.516l-2.215-11.073l-2.214-2.215l-2.215-11.072l-2.215-2.215l-2.215-11.073l-2.215-2.215
	c0,0-5.758-47.613,0-77.953c3.101-15.945,14.396-23.696,14.396-23.696l4.872,5.094l4.65-3.544v-34.104l3.765,34.77
	c2.879,1.771,7.53,5.758,9.523,12.18c2.879,9.966,2.214,10.63,12.845,26.133c3.986,17.052,13.287,23.696,13.287,23.696l3.986-3.322
	h49.828c0,0,41.635-22.811,64.888-46.949c20.374-21.039,37.87-51.601,49.386-58.908v-55.144h4.207v53.593c0.222,0,0.222,0,0.443,0
	c11.073,0,11.295,13.73,11.295,13.73v40.971l0,0C975.972,963.902,987.045,956.815,999.89,956.815z"/>
</svg>
