<?xml version="1.0" encoding="utf-8"?>
<!-- Generator: Adobe Illustrator 16.0.0, SVG Export Plug-In . SVG Version: 6.00 Build 0)  -->
<!DOCTYPE svg PUBLIC "-//W3C//DTD SVG 1.1//EN" "http://www.w3.org/Graphics/SVG/1.1/DTD/svg11.dtd">
<svg version="1.1" id="Layer_1" xmlns="http://www.w3.org/2000/svg" xmlns:xlink="http://www.w3.org/1999/xlink" x="0px" y="0px"
	 width="441.369px" height="365.63px" viewBox="1479.57 817.296 441.369 365.63"
	 enable-background="new 1479.57 817.296 441.369 365.63" xml:space="preserve">
<polygon points="1706.566,988.263 1710.331,993.356 1718.304,986.934 1718.304,1011.295 1724.947,1032.555 1761.267,1032.555 
	1767.91,1012.181 1764.811,1005.979 1764.811,997.121 1768.575,992.471 1768.575,980.733 1759.053,969.66 1781.641,942.642 
	1781.641,971.432 1773.004,987.377 1873.104,1167.645 1880.854,1168.31 1881.52,1182.926 1920.939,1151.921 1859.816,991.142 
	1836.563,970.768 1836.563,908.759 1849.407,902.115 1849.407,877.533 1904.108,849.629 1909.866,850.515 1920.939,845.421 
	1897.686,817.296 1838.999,842.764 1838.999,835.013 1824.604,826.376 1765.253,849.851 1760.381,862.695 1760.381,883.291 
	1730.927,903.001 1730.927,889.935 1725.391,879.747 1725.391,857.38 1721.625,857.38 1721.625,873.104 1708.781,849.851 
	1691.729,849.851 1678.884,873.104 1678.884,857.38 1675.119,857.38 1675.119,879.747 1669.582,889.935 1669.582,903.001 
	1640.129,883.291 1640.129,862.695 1635.256,849.851 1575.905,826.376 1561.51,835.013 1561.51,842.764 1502.823,817.296 
	1479.57,845.421 1490.644,850.515 1496.623,849.629 1551.102,877.533 1551.102,902.115 1564.168,908.759 1564.168,970.768 
	1540.914,991.142 1479.57,1151.921 1518.99,1182.926 1519.876,1168.31 1527.406,1167.645 1627.727,987.377 1618.868,971.432 
	1618.868,942.642 1641.679,969.66 1631.935,980.733 1631.935,992.471 1635.699,997.121 1635.699,1005.979 1632.82,1012.181 
	1639.464,1032.555 1675.563,1032.555 1682.206,1011.295 1682.206,986.934 1690.399,993.356 1693.943,988.263 "/>
</svg>
