<?xml version="1.0" encoding="utf-8"?>
<!-- Generator: Adobe Illustrator 16.0.0, SVG Export Plug-In . SVG Version: 6.00 Build 0)  -->
<!DOCTYPE svg PUBLIC "-//W3C//DTD SVG 1.1//EN" "http://www.w3.org/Graphics/SVG/1.1/DTD/svg11.dtd">
<svg version="1.1" id="Layer_2" xmlns="http://www.w3.org/2000/svg" xmlns:xlink="http://www.w3.org/1999/xlink" x="0px" y="0px"
	 width="1041.381px" height="941.625px" viewBox="0 0 1041.381 941.625" enable-background="new 0 0 1041.381 941.625"
	 xml:space="preserve">
<g>
	<path fill="#FD7022" d="M366.333,622.501c-2.491-2.489-100.149-92.796-102.389-94.877c-0.069,8.43-0.079,20.649,0.181,26.867
		c0,13.884-0.188,19.196,18.125,37.509c10.01,9.454,53.497,48.931,93.356,86.2c-0.062-1.013-1.085-34.103-1.085-36.417
		C374.521,634.499,371.295,627.464,366.333,622.501z"/>
	<path fill="#FD7022" d="M308.625,486.625c-7.648-6.844-10.202-13.496-10.536-20.72c-0.279-6.029,1.911-13.46,6.419-20.25
		c1.76-2.65,7.963-9.595,8.367-10.093c-5.977-5.599-39.696-37.24-43.875-41.063c-6.435-5.959-10.529-13.323-13-22
		c-1.434-5.904-2-11.846-2-19c0-3.209,0.146-11.03,0-22c0.401-1.244-0.503-20.039-0.418-23.326
		c-14.253-14.898-21.941-36.565-26.854-62.829c-2.88-15.397-4.17-31.344-4.297-46.901C188.499,167.639,4.5,0,4.5,0
		C3.981,80.167,38.083,119.5,68.544,149.646L131,209.667v15.666c0,0-48.734-45.042-48.75-45.5
		c0,55.416,10.625,82.166,57.264,132.745L196,367.5v15.333c0,0-41.602-38.447-41.5-38.667c-4.25,32.583-1.625,62.208,38,101.833
		c-0.131-0.06,177.302,163.828,179.973,166.5c9.083,9.083,11.527,22.159,11.527,32.625V668.5c0,3.125,1.114,12.175,1.306,12.751
		c0.493,1.481,1.191,4.517,2.263,6.125c0.712,1.067,2.176,3.44,2.943,4.335c0.443,0.518,0.75,0.864,0.755,0.873l80.491,76.041
		l42.245-98.375C513.74,670.011,316.53,493.698,308.625,486.625z"/>
	<path fill="#FD7022" d="M263.727,351.125c-0.02,13.996,2.162,23.653,12.884,34.375c4.318,3.984,43.731,39.975,43.731,39.975
		c29.742-33.808,1.671-54.546,2.242-53.975c0,0-49.057-44.868-58.217-53.746c-0.195,5.785-0.437,10.849-0.64,11.371
		C263.852,340.267,263.707,348.049,263.727,351.125z"/>
	<polygon fill="#FD7022" points="523,491.25 502.125,434.125 495.218,427.4 484.218,428.4 471.25,439.5 493,439.5 493,451.25 
		461,456.5 449.125,467.5 495.688,467.5 	"/>
	<path fill="#FD7022" d="M264.583,301.667c13.67,13.353,60.211,56.627,64.667,61.083c20.25,20.375,19.7,46.729-0.606,71.55
		c-0.65,0.794-12.611,15.693-14.139,17.993C307.667,462,308.208,470.958,328,490.75c7.937,7.102,191,165.75,191,165.75
		l-27.125-139.125L471.75,489.5l-44.833-2c-31.667-3.166-49.917-43-0.917-87.167v-33L233.917,188.813
		c-0.346,17.584-0.042,35.604,3.958,53.854C242.58,267.823,251.334,288.725,264.583,301.667z"/>
	<polygon fill="#FD7022" points="375.606,678.201 375.606,678.2 375.606,678.2 	"/>
	<polygon fill="#FD7022" points="475.897,792.726 499.417,816.001 509.75,751.25 523,731.667 536.25,751.25 546.583,816.001 
		570.103,792.726 523,680.384 	"/>
	<path fill="#FD7022" d="M545.753,862.193C543.82,851.193,528,753.25,528,753.25l-5-7l-5,7c0,0-15.82,97.943-17.753,108.943
		C498.167,876,500.834,881.667,514.5,898c-3.168,3.168-7.5,7.167-7.5,11.167c0,2.126,0,14.208,0,14.208
		c0,3.445,1.415,18.25,16,18.25s16-14.805,16-18.25c0,0,0-12.082,0-14.208c0-4-4.332-7.999-7.5-11.167
		C545.166,881.667,547.833,876,545.753,862.193z"/>
	<polygon fill="#FD7022" points="523,503.25 485.75,489 504,512.667 523,611.167 542,512.667 560.25,489 	"/>
	<polygon fill="#FD7022" points="549.625,409.25 540.833,305.5 536.839,326.661 534.833,387.917 523,379.917 511.167,387.917 
		509.161,326.661 505.167,305.5 496.375,409.25 510.375,420.875 523,491.25 535.625,420.875 	"/>
	<path fill="#FD7022" d="M619.084,487.5l-44.792,2l-20.146,27.875L527.011,656.5c0,0,183.058-158.648,190.994-165.75
		c19.792-19.792,20.332-28.75,13.493-38.457c-1.527-2.3-13.49-17.199-14.141-17.993c-20.307-24.82-20.856-51.175-0.606-71.55
		c4.455-4.456,50.995-47.731,64.665-61.083c13.25-12.942,21.962-33.843,26.668-59c4-18.25,4.346-36.271,4-53.854L620,367.333v33
		C669,444.5,650.75,484.334,619.084,487.5z"/>
	<path fill="#FD7022" d="M725.658,425.475c0,0,39.414-35.99,43.731-39.975c10.722-10.722,12.903-20.378,12.884-34.375
		c0.02-3.077-0.125-10.859,0-22c-0.203-0.522-0.444-5.586-0.64-11.371c-9.161,8.878-58.218,53.746-58.218,53.746
		C723.988,370.929,695.916,391.667,725.658,425.475z"/>
	<polygon fill="#FD7022" points="596.875,467.5 585,456.5 553,451.25 553,439.5 574.75,439.5 561.782,428.4 550.782,427.4 
		543.875,434.125 523,491.25 550.313,467.5 	"/>
	<path fill="#FD7022" d="M679.666,622.501c-4.961,4.963-8.188,11.998-8.188,19.282c0,2.314-1.023,35.404-1.084,36.417
		c39.859-37.27,83.346-76.746,93.355-86.2c18.313-18.313,18.125-23.625,18.125-37.509c0.26-6.218,0.25-18.438,0.181-26.867
		C779.815,529.705,682.157,620.012,679.666,622.501z"/>
	<polygon fill="#FD7022" points="670.395,678.201 670.395,678.2 670.395,678.2 	"/>
	<path fill="#FD7022" d="M823.568,198.444c-0.127,15.557-1.416,31.504-4.297,46.901c-4.912,26.264-12.6,47.931-26.854,62.829
		c0.086,3.287-0.819,22.083-0.418,23.326c-0.146,10.97,0,18.791,0,22c0,7.154-0.566,13.096-2,19c-2.471,8.677-6.564,16.041-13,22
		c-4.179,3.822-37.898,35.464-43.875,41.063c0.404,0.498,6.607,7.442,8.367,10.093c4.508,6.79,6.698,14.221,6.419,20.25
		c-0.334,7.224-2.888,13.876-10.536,20.72C729.47,493.698,532.264,670.011,532,670.25l42.25,98.375l80.5-76.041
		c0.005-0.009,0.329-0.355,0.772-0.873c0.767-0.895,2.266-3.268,2.978-4.335c1.072-1.608,1.701-4.644,2.193-6.125
		c0.193-0.576,1.307-9.626,1.307-12.751v-23.375c0-10.466,2.443-23.542,11.527-32.625c2.672-2.672,180.034-166.56,179.903-166.5
		c39.625-39.625,42.284-69.25,38.034-101.833c0.102,0.219-41.465,38.667-41.465,38.667V367.5l56.361-54.921
		C953,262,963.25,235.25,963.25,179.834c-0.016,0.458-49.25,45.5-49.25,45.5v-15.666l62.956-60.021
		c30.46-30.146,64.938-69.479,64.419-149.646C1041.375,0,857.502,167.639,823.568,198.444z"/>
</g>
<g>
</g>
<g>
</g>
<g>
</g>
<g>
</g>
<g>
</g>
<g>
</g>
<g>
</g>
<g>
</g>
<g>
</g>
<g>
</g>
<g>
</g>
<g>
</g>
<g>
</g>
<g>
</g>
<g>
</g>
</svg>
