<?xml version="1.0" encoding="utf-8"?>
<!-- Generator: Adobe Illustrator 16.0.0, SVG Export Plug-In . SVG Version: 6.00 Build 0)  -->
<!DOCTYPE svg PUBLIC "-//W3C//DTD SVG 1.1//EN" "http://www.w3.org/Graphics/SVG/1.1/DTD/svg11.dtd">
<svg version="1.1" xmlns="http://www.w3.org/2000/svg" xmlns:xlink="http://www.w3.org/1999/xlink" x="0px" y="0px" width="960px"
	 height="960px" viewBox="0 0 960 960" enable-background="new 0 0 960 960" xml:space="preserve">
<g id="Layer_4" display="none">
	<rect display="inline" width="960" height="960"/>
</g>
<g id="Alliance">
	<path fill="#FFFFFF" d="M495.43,241.17l-0.22,258.14l307.63,177.61L737.99,585h120.3c-36.36,172.65-189.57,302.25-373.04,302.25
		c-90.08,0-172.85-31.24-238.1-83.48l68.2-118.14l393.36-35.82L485.26,520.56L177.63,698.17l111.94-10.189l-58.82,101.88
		C152.95,720.08,104,618.76,104,506c0-160.81,99.55-298.36,240.39-354.38l69.68,120.7L248.33,631.04L472,502.16V146.94
		l-47.07,101.88l-60.37-104.57c37.93-12.65,78.51-19.5,120.69-19.5c210.56,0,381.25,170.69,381.25,381.25c0,19.72-1.5,39.09-4.38,58
		H723.18L495.43,241.17z"/>
	<g>
	</g>
	<g>
	</g>
	<g>
	</g>
	<g>
	</g>
	<g>
	</g>
	<g>
	</g>
	<g>
	</g>
	<g>
	</g>
	<g>
	</g>
	<g>
	</g>
	<g>
	</g>
	<g>
	</g>
	<g>
	</g>
	<g>
	</g>
	<g>
	</g>
</g>
</svg>
