<?xml version="1.0" encoding="utf-8"?>
<!-- Generator: Adobe Illustrator 16.0.0, SVG Export Plug-In . SVG Version: 6.00 Build 0)  -->
<!DOCTYPE svg PUBLIC "-//W3C//DTD SVG 1.1//EN" "http://www.w3.org/Graphics/SVG/1.1/DTD/svg11.dtd">
<svg version="1.1" id="Layer_1" xmlns="http://www.w3.org/2000/svg" xmlns:xlink="http://www.w3.org/1999/xlink" x="0px" y="0px"
	 width="910.167px" height="530.55px" viewBox="26.833 231.487 910.167 530.55"
	 enable-background="new 26.833 231.487 910.167 530.55" xml:space="preserve">
<g id="Empire_logo">
	<g id="Layer_7">
	</g>
	<g id="Empire_bird">
		<path fill="#FFFFFF" d="M487.573,762.037l77.132-165.935c0,0,370.281-362.604,372.295-364.616
			c-1.926,0.508-156.626,35.203-156.626,35.203L483.4,478.828c0,0-455.121-219.119-456.567-219.899
			c1.209,1.21,391.625,336.91,391.625,336.91L487.573,762.037z"/>
		<g id="Layer_6">
			<path fill="#FFFFFF" d="M435.337,436.527l33.379,15.941c0,0,79.924-52.812,83.533-55.3c4.818-3.322,4.192-6.991,4.192-13.135
				c0-1.868,1.453-87.034-32.84-87.034h-34.229c-20.365,0-52.685,11.183-52.685,38.376c1.327,2.49,5.854-3.356,15.257-3.356
				c6.851,0,19.34,1.784,22.17,4.612c2.826,2.829-0.688,12.932-2.615,17.709C469.051,360.41,439.447,432.417,435.337,436.527z"/>
		</g>
	</g>
</g>
</svg>
