<?xml version="1.0" encoding="utf-8"?>
<!-- Generator: Adobe Illustrator 16.0.0, SVG Export Plug-In . SVG Version: 6.00 Build 0)  -->
<!DOCTYPE svg PUBLIC "-//W3C//DTD SVG 1.1//EN" "http://www.w3.org/Graphics/SVG/1.1/DTD/svg11.dtd">
<svg version="1.1" id="Federation_logo" xmlns="http://www.w3.org/2000/svg" xmlns:xlink="http://www.w3.org/1999/xlink" x="0px"
	 y="0px" width="668.303px" height="537.143px" viewBox="147.617 233.925 668.303 537.143"
	 enable-background="new 147.617 233.925 668.303 537.143" xml:space="preserve">
<g id="Ring">
</g>
<g id="Layer_8">
</g>
<g id="Inner_ring_1_">
	<circle fill="#FFFFFF" cx="606.425" cy="537.658" r="21.323"/>
	<polygon fill="#FFFFFF" points="293.653,233.925 302.45,261 330.919,261 307.887,278.633 316.686,306.158 293.653,289.648 
		270.62,306.495 279.419,278.576 256.386,261 284.856,261 	"/>
	<polygon fill="#FFFFFF" points="194.928,345.613 202.2,368 225.741,368 206.697,381.52 213.972,403.746 194.928,389.833 
		175.885,403.627 183.16,381.54 164.116,368 187.656,368 	"/>
	<polygon fill="#FFFFFF" points="169.518,467.087 174.688,483 191.42,483 177.885,492.283 183.055,507.918 169.518,497.947 
		155.982,507.711 161.153,492.317 147.617,483 164.35,483 	"/>
	<polygon fill="#FFFFFF" points="180.873,557.774 184.52,569 196.323,569 186.774,575.57 190.421,586.608 180.873,579.579 
		171.325,586.47 174.972,575.593 165.423,569 177.227,569 	"/>
	<polygon fill="#FFFFFF" points="205.562,618.892 207.221,624 212.592,624 208.247,626.801 209.907,631.729 205.562,628.483 
		201.217,631.597 202.877,626.823 198.532,624 203.903,624 	"/>
	<polygon fill="#FFFFFF" points="756.563,379.892 758.221,385 763.592,385 759.247,387.801 760.906,392.729 756.563,389.483 
		752.217,392.597 753.877,387.823 749.532,385 754.903,385 	"/>
	<g id="Ring_copy">
		<path fill="#FFFFFF" d="M483.25,301.5c-85.6,0-155,69.4-155,155c0,85.6,69.4,155,155,155s155-69.4,155-155
			C638.25,370.9,568.85,301.5,483.25,301.5z M483.25,601.5C401.79,601.5,333,535.46,333,454c0-81.47,68.79-147.51,150.25-147.51
			S633.67,372.53,633.67,454C633.67,535.46,564.71,601.5,483.25,601.5z"/>
	</g>
	<polygon fill="#FFFFFF" points="670.885,697.925 679.68,725 708.15,725 685.117,742.938 693.916,770.616 670.885,754.182 
		647.852,771.067 656.65,742.862 633.617,725 662.088,725 	"/>
	<polygon fill="#FFFFFF" points="767.607,601.614 774.881,624 798.42,624 779.377,637.897 786.651,660.313 767.607,646.494 
		748.564,660.336 755.84,637.894 736.797,624 760.336,624 	"/>
	<polygon fill="#FFFFFF" points="794.019,503.087 799.188,519 815.92,519 802.385,528.339 807.555,544.001 794.019,534.045 
		780.482,543.815 785.653,528.369 772.117,519 788.85,519 	"/>
	<polygon fill="#FFFFFF" points="782.664,422.774 786.311,434 798.114,434 788.565,440.938 792.212,452.159 782.664,445.222 
		773.116,452.158 776.763,440.937 767.214,434 779.018,434 	"/>
</g>
<g id="Outer_ring">
	<circle fill="#FFFFFF" cx="343.625" cy="644.941" r="29.625"/>
	<polygon fill="#FFFFFF" points="464.508,453.348 393.903,435.096 464.75,417.345 483.277,345.613 501.405,417.345 572.651,435.096 
		502.193,453.302 483.277,526.126 	"/>
	<path fill="#FFFFFF" d="M483,273.49c-119.34,0-220,96.75-220,216.09s100.66,216.09,220,216.09s222-96.75,222-216.09
		S602.34,273.49,483,273.49z M483.05,689.67C369.36,689.67,270,597.51,270,483.83c0-113.69,99.36-205.84,213.05-205.84
		C596.73,277.99,697,370.14,697,483.83C697,597.51,596.73,689.67,483.05,689.67z"/>
	<path fill="#FFFFFF" d="M481.86,261.49c-135.541,0-245.87,109.88-245.87,245.43S346.32,766,481.86,766
		c135.55,0,250.148-123.53,250.148-259.08S617.41,261.49,481.86,261.49z M481.92,748.5c-129.12,0-237.98-118.99-237.98-248.11
		c0-129.12,108.86-233.79,237.98-233.79s241,104.67,241,233.79C722.92,629.51,611.04,748.5,481.92,748.5z"/>
	<circle fill="#FFFFFF" cx="483.125" cy="262.625" r="8.375"/>
</g>
<g id="Innermost_ring">
	<path fill="#FFFFFF" d="M422.375,528.375c0-3.176-2.574-5.75-5.75-5.75s-5.75,2.574-5.75,5.75s2.574,5.75,5.75,5.75
		C421.052,534.125,422.375,530.299,422.375,528.375z"/>
	<path fill="#FFFFFF" d="M483.71,328.51c-62.25,0-112.71,50.47-112.71,112.74c0,62.27,50.46,112.74,112.71,112.74
		s112.71-50.471,112.71-112.74C596.42,378.98,545.96,328.51,483.71,328.51z M483.71,546.99c-59.35,0-109.38-48.12-109.38-107.49
		S424.36,332,483.71,332s108.96,48.13,108.96,107.5S543.06,546.99,483.71,546.99z"/>
</g>
</svg>
