<?xml version="1.0" encoding="utf-8"?>
<!-- Generator: Adobe Illustrator 16.0.0, SVG Export Plug-In . SVG Version: 6.00 Build 0)  -->
<!DOCTYPE svg PUBLIC "-//W3C//DTD SVG 1.1//EN" "http://www.w3.org/Graphics/SVG/1.1/DTD/svg11.dtd">
<svg version="1.1" id="Layer_2" xmlns="http://www.w3.org/2000/svg" xmlns:xlink="http://www.w3.org/1999/xlink" x="0px" y="0px"
	 width="654px" height="469.476px" viewBox="0 0 654 469.476" enable-background="new 0 0 654 469.476" xml:space="preserve">
<polygon fill="#FFFFFF" points="248.094,397.48 86.103,0 294.592,364.482 "/>
<polygon fill="#FFFFFF" points="221.096,436.478 137.1,362.982 236.095,409.479 "/>
<polygon fill="#FFFFFF" points="405.906,397.48 567.897,0 359.408,364.482 "/>
<polygon fill="#FFFFFF" points="432.904,436.478 516.9,362.982 417.905,409.479 "/>
<polygon fill="#FFFFFF" points="343,362.982 327,207.398 311,362.982 "/>
<g opacity="0.5">
	<path fill="#FFFFFF" d="M327,159.379c40.704,0,80.184,8.166,117.341,24.272c35.943,15.579,68.239,37.898,95.99,66.336
		c27.793,28.481,49.615,61.652,64.862,98.593c12.639,30.62,20.292,62.779,22.848,95.896H25.959
		c2.555-33.117,10.209-65.277,22.847-95.896c15.247-36.94,37.07-70.111,64.862-98.593c27.751-28.438,60.047-50.757,95.991-66.336
		C246.816,167.545,286.296,159.379,327,159.379 M327,134.379c-180.597,0-327,150.029-327,335.097h654
		C654,284.408,507.597,134.379,327,134.379L327,134.379z"/>
</g>
<g>
	<path fill="#FFFFFF" d="M327,345.892c-68.253,0-123.584,55.33-123.584,123.584h247.168
		C450.584,401.222,395.254,345.892,327,345.892z"/>
</g>
</svg>
