<?xml version="1.0" encoding="utf-8"?>
<!-- Generator: Adobe Illustrator 16.0.0, SVG Export Plug-In . SVG Version: 6.00 Build 0)  -->
<!DOCTYPE svg PUBLIC "-//W3C//DTD SVG 1.1//EN" "http://www.w3.org/Graphics/SVG/1.1/DTD/svg11.dtd">
<svg version="1.1" id="Layer_2" xmlns="http://www.w3.org/2000/svg" xmlns:xlink="http://www.w3.org/1999/xlink" x="0px" y="0px"
	 width="724.327px" height="827.11px" viewBox="0 0 724.327 827.11" enable-background="new 0 0 724.327 827.11"
	 xml:space="preserve">
<path fill="#FFFFFF" d="M724.327,413.56c0,228.4-191.75,413.55-428.3,413.55c-28.88,0-29.521-10.031-5.706-13.93
	c201.628-33.002,355.006-199.81,355.006-400.621c0-200.061-152.217-366.361-352.714-400.253C269.903,8.468,271.057,0,296.027,0
	C532.577,0,724.327,185.16,724.327,413.56z"/>
<path fill="#FFFFFF" d="M-1.351,400.443c-5.857,177.074,138.056,325.534,321.449,331.601c22.39,0.739,23.146-7.021,4.782-10.653
	C169.407,690.634,54.773,557.378,59.922,401.693c5.13-155.103,127.405-280.129,283.716-301.265
	c17.704-2.395,17.028-8.989-2.332-9.629C157.914,84.733,4.505,223.368-1.351,400.443z"/>
<path fill="#FFFFFF" d="M445.624,533.667c-167.587,0-317.811-65.461-391.527-147.456l8.152-36.509
	c79.989,86.73,237.497,156.214,421.282,155.108C534.957,504.5,530.688,533.667,445.624,533.667z"/>
<path fill="#FFFFFF" d="M382.521,29.789c0,0-25.224,115.211-10.224,115.211s50.97-96.267,50.97-96.267L382.521,29.789z"/>
<g>
</g>
<g>
</g>
<g>
</g>
<g>
</g>
<g>
</g>
<g>
</g>
<g>
</g>
<g>
</g>
<g>
</g>
<g>
</g>
<g>
</g>
<g>
</g>
<g>
</g>
<g>
</g>
<g>
</g>
</svg>
