<?xml version="1.0" encoding="utf-8"?>
<!-- Generator: Adobe Illustrator 16.0.0, SVG Export Plug-In . SVG Version: 6.00 Build 0)  -->
<!DOCTYPE svg PUBLIC "-//W3C//DTD SVG 1.1//EN" "http://www.w3.org/Graphics/SVG/1.1/DTD/svg11.dtd">
<svg version="1.1" id="Layer_1" xmlns="http://www.w3.org/2000/svg" xmlns:xlink="http://www.w3.org/1999/xlink" x="0px" y="0px"
	 width="835.871px" height="550.301px" viewBox="0 0 835.871 550.301" enable-background="new 0 0 835.871 550.301"
	 xml:space="preserve">
<g id="Layer_3_copy">
	<g>
		<polygon fill="#953B09" points="562,493.971 665.82,411.972 581.562,411.972 491.619,493.971 		"/>
		<polygon fill="#953B09" points="170.05,411.972 273.87,493.971 338.484,493.971 248.539,411.972 		"/>
		<polygon fill="#953B09" points="191.462,333.972 71.29,333.972 147.26,393.972 239,393.972 239,378.084 		"/>
		<polygon fill="#953B09" points="591,393.972 688.611,393.972 764.58,333.972 638.64,333.972 591,378.084 		"/>
		<path fill="#953B09" d="M657.695,315.972h129.676l48.5-38.31L828,265.972H672.667c-1.867,17.06-4.189,32.057-6.902,37.479
			C663.134,308.709,660.283,312.834,657.695,315.972z"/>
		<path fill="#953B09" d="M157.436,265.972H7.88L0,277.663l48.5,38.31h123.908c-2.587-3.138-5.439-7.263-8.071-12.521
			C161.624,298.029,159.301,283.032,157.436,265.972z"/>
	</g>
</g>
<path fill="#FD7022" d="M415.051,549.975L371.6,331.015l-43.35-41.901l-19.892-1.302c0,0-1.752-30.506,28.445-63.05L90.133,0
	c0,0-2.066,81.723,3.241,98.652c5.308,16.929,25.581,32.494,25.581,32.494L249.42,254.555l-0.882,29.342l-86.056-81.09
	c0,0,4.772,84.127,10.797,96.168c6.026,12.041,13.145,16.775,13.145,16.775l62.995,57.943v25.549l165.586,150.959l-0.02,0.1
	l0.064-0.061l0.065,0.061l-0.021-0.1l165.584-150.959v-25.549l62.996-57.943c0,0,7.119-4.734,13.146-16.775
	c6.025-12.041,10.797-96.168,10.797-96.168l-86.055,81.09l-0.885-29.342l130.465-123.409c0,0,20.273-15.564,25.582-32.494
	C742.035,81.723,739.968,0,739.968,0l-246.67,224.761c30.197,32.544,28.445,63.05,28.445,63.05l-19.893,1.303l-43.35,41.9
	L415.051,549.975L415.051,549.975z M416.002,221.346v0.125l-0.071-0.063l-0.07,0.063v-0.125l-33.252-29.114v-26.507l-10.176-9.079
	l6.04-77.72l19.451,42.418l18.007,13.364l18.006-13.364l19.451-42.418l6.041,77.72l-10.176,9.079v26.507L416.002,221.346
	L416.002,221.346L416.002,221.346z M416.002,245.736v62.925l-44.313-38.11l-2.659-66.47L416.002,245.736L416.002,245.736z
	 M416.002,244.85v62.926l44.314-38.11l2.658-66.47L416.002,244.85L416.002,244.85z M414.986,330.818V451.35l-23.043-120.532H414.986
	L414.986,330.818z M414.986,330.818V451.35l23.042-120.532H414.986L414.986,330.818z"/>
</svg>
