<svg xmlns="http://www.w3.org/2000/svg" viewBox="0 0 577 573"><defs><style>.bae7da12-8ec8-49ab-a2c0-e8f19cff0e7b{fill:#ff7100;}.ea785979-df8b-4ff5-bf16-85e6a72d2c87{fill:#fff;}</style></defs><title>rank2</title><g id="ad2954b7-7122-4ad6-a688-b5ad739ed17d" data-name="Layer 2"><g id="e76f787a-5103-414a-9204-364415809991" data-name="Layer 2"><rect width="577" height="573"/><path class="bae7da12-8ec8-49ab-a2c0-e8f19cff0e7b" d="M289.2059,12.70576,563.25153,285.7966,287.7941,560.29425,13.74849,287.2034,289.2059,12.70576M289.2059,0,.99831,287.2034,287.7941,573,576.00171,285.7966,289.2059,0Z"/><polygon class="bae7da12-8ec8-49ab-a2c0-e8f19cff0e7b" points="244.688 242.748 253.313 257.678 270.226 261.238 258.643 274.026 260.472 291.156 244.688 284.129 228.905 291.156 230.733 274.026 219.15 261.238 236.064 257.678 244.688 242.748"/><polygon class="bae7da12-8ec8-49ab-a2c0-e8f19cff0e7b" points="333.475 242.748 342.099 257.678 359.013 261.238 347.43 274.026 349.258 291.156 333.475 284.129 317.691 291.156 319.52 274.026 307.936 261.238 324.85 257.678 333.475 242.748"/><path class="ea785979-df8b-4ff5-bf16-85e6a72d2c87" d="M289.2811,134.24452c-94.2133,84.19079-185.27889,90.47368-185.27889,90.47368v47.49869s61.22489,10.55526,185.27889-86.20132c124.054,96.75658,185.2789,86.20132,185.2789,86.20132V224.7182S383.4944,218.43531,289.2811,134.24452Z"/><path class="ea785979-df8b-4ff5-bf16-85e6a72d2c87" d="M290.458,322.73968c76.41493,0,184.102-31.58407,184.102-31.58407v48.37366S363.8466,375.5775,290.458,375.5775s-184.102-36.04823-184.102-36.04823V291.15561S214.04307,322.73968,290.458,322.73968Z"/></g></g></svg>