<?xml version="1.0" encoding="utf-8"?>
<!-- Generator: Adobe Illustrator 16.0.0, SVG Export Plug-In . SVG Version: 6.00 Build 0)  -->
<!DOCTYPE svg PUBLIC "-//W3C//DTD SVG 1.1//EN" "http://www.w3.org/Graphics/SVG/1.1/DTD/svg11.dtd">
<svg version="1.1" id="Layer_1" xmlns="http://www.w3.org/2000/svg" xmlns:xlink="http://www.w3.org/1999/xlink" x="0px" y="0px"
	 width="855.861px" height="855.871px" viewBox="0 0 855.861 855.871" enable-background="new 0 0 855.861 855.871"
	 xml:space="preserve">
<g id="Layer_4">
	<path fill="#FFFFFF" d="M428,10c230.855,0,418,187.145,418,418S658.855,846,428,846C197.145,846,10,658.855,10,428
		S197.145,10,428,10 M428,0c-57.775,0-113.828,11.317-166.6,33.639c-50.967,21.557-96.738,52.416-136.042,91.72
		C86.054,164.663,55.196,210.433,33.639,261.4C11.317,314.172,0,370.225,0,428s11.317,113.828,33.639,166.599
		c21.557,50.969,52.416,96.738,91.72,136.043c39.304,39.305,85.074,70.162,136.042,91.721C314.172,844.683,370.225,856,428,856
		s113.828-11.316,166.6-33.639c50.969-21.557,96.738-52.416,136.042-91.721c39.305-39.303,70.163-85.072,91.721-136.041
		C844.683,541.828,856,485.775,856,428s-11.317-113.828-33.639-166.6c-21.558-50.967-52.416-96.738-91.721-136.042
		C691.337,86.054,645.567,55.196,594.6,33.639C541.828,11.317,485.775,0,428,0L428,0z"/>
	<g>
		<path fill="#FFFFFF" d="M428,267c88.918,0,161,72.082,161,161c0,88.917-72.082,161-161,161s-161-72.082-161-161
			C267,339.082,339.082,267,428,267 M428,257c-23.081,0-45.476,4.522-66.564,13.442c-20.363,8.613-38.649,20.941-54.352,36.642
			c-15.701,15.701-28.029,33.988-36.642,54.352C261.522,382.524,257,404.919,257,428c0,23.08,4.522,45.476,13.442,66.564
			c8.613,20.363,20.941,38.648,36.642,54.352c15.701,15.701,33.988,28.029,54.352,36.643C382.524,594.478,404.919,599,428,599
			c23.08,0,45.476-4.521,66.564-13.441c20.362-8.613,38.648-20.941,54.351-36.643c15.702-15.703,28.029-33.988,36.643-54.352
			C594.479,473.476,599,451.08,599,428c0-23.081-4.521-45.476-13.442-66.564c-8.612-20.364-20.94-38.65-36.643-54.352
			c-15.701-15.701-33.987-28.029-54.351-36.642C473.476,261.522,451.08,257,428,257L428,257z"/>
	</g>
	<g>
		<path fill="#FFFFFF" d="M428,290.667c75.847,0,137.333,61.486,137.333,137.333S503.847,565.333,428,565.333
			S290.667,503.847,290.667,428S352.153,290.667,428,290.667 M428,280.667c-39.354,0-76.354,15.325-104.18,43.153
			c-27.827,27.828-43.153,64.826-43.153,104.18c0,39.355,15.325,76.353,43.153,104.179c27.828,27.828,64.826,43.154,104.18,43.154
			s76.354-15.326,104.18-43.154c27.828-27.826,43.153-64.824,43.153-104.179c0-39.354-15.325-76.353-43.153-104.18
			C504.354,295.992,467.354,280.667,428,280.667L428,280.667z"/>
	</g>
	<g>
		<path fill="#FFFFFF" d="M466,418v21h-76v-21H466 M476,408h-9.666h-76.668H380v10v21v10h9.666h76.668H476v-10v-21V408L476,408z"/>
	</g>
</g>
</svg>
