<?xml version="1.0" encoding="utf-8"?>
<!-- Generator: Adobe Illustrator 16.0.0, SVG Export Plug-In . SVG Version: 6.00 Build 0)  -->
<!DOCTYPE svg PUBLIC "-//W3C//DTD SVG 1.1//EN" "http://www.w3.org/Graphics/SVG/1.1/DTD/svg11.dtd">
<svg version="1.1" id="Layer_1" xmlns="http://www.w3.org/2000/svg" xmlns:xlink="http://www.w3.org/1999/xlink" x="0px" y="0px"
	 width="925px" height="925px" viewBox="0 0 925 925" enable-background="new 0 0 925 925" xml:space="preserve">
<g id="Layer_4">
	<rect x="328.5" y="433.5" fill="#FFFFFF" width="268" height="58"/>
	<g>
		<path fill="#FFFFFF" d="M462.5,302c88.643,0,160.5,71.859,160.5,160.5c0,88.643-71.857,160.5-160.5,160.5
			C373.859,623,302,551.143,302,462.5C302,373.859,373.859,302,462.5,302 M462.5,272c-25.704,0-50.655,5.041-74.16,14.983
			c-22.688,9.596-43.058,23.328-60.543,40.813c-17.484,17.485-31.217,37.855-40.813,60.543C277.041,411.845,272,436.796,272,462.5
			s5.041,50.655,14.983,74.161c9.596,22.688,23.328,43.058,40.813,60.543c17.486,17.484,37.855,31.217,60.543,40.813
			C411.845,647.959,436.796,653,462.5,653s50.655-5.041,74.16-14.982c22.688-9.597,43.059-23.327,60.544-40.813
			s31.217-37.855,40.813-60.544C647.959,513.155,653,488.204,653,462.5s-5.041-50.655-14.982-74.16
			c-9.597-22.688-23.327-43.058-40.813-60.543c-17.485-17.485-37.855-31.217-60.543-40.813C513.155,277.041,488.204,272,462.5,272
			L462.5,272z"/>
	</g>
	<path fill="#FFFFFF" d="M462.5,30C701.363,30,895,223.637,895,462.5S701.363,895,462.5,895C223.637,895,30,701.363,30,462.5
		C30,223.637,223.637,30,462.5,30 M462.5,0c-62.424,0-122.997,12.232-180.035,36.358c-55.078,23.296-104.536,56.64-147.002,99.105
		c-42.465,42.466-75.809,91.924-99.105,147.002C12.232,339.503,0,400.076,0,462.5s12.232,122.996,36.358,180.035
		c23.296,55.078,56.64,104.536,99.105,147.002c42.466,42.465,91.924,75.809,147.002,99.104C339.503,912.768,400.076,925,462.5,925
		s122.996-12.232,180.035-36.357c55.078-23.297,104.536-56.641,147.002-99.104c42.465-42.466,75.809-91.924,99.105-147.002
		C912.768,585.496,925,524.924,925,462.5s-12.232-122.997-36.357-180.035c-23.297-55.078-56.641-104.536-99.104-147.002
		c-42.466-42.465-91.924-75.809-147.002-99.105C585.496,12.232,524.924,0,462.5,0L462.5,0z"/>
	
		<line fill="none" stroke="#FFFFFF" stroke-width="30" stroke-miterlimit="10" x1="861.174" y1="667.117" x2="621.592" y2="550.936"/>
	
		<line fill="none" stroke="#FFFFFF" stroke-width="30" stroke-miterlimit="10" x1="462.445" y1="29.829" x2="462.521" y2="296.096"/>
	
		<line fill="none" stroke="#FFFFFF" stroke-width="30" stroke-miterlimit="10" x1="87.824" y1="678.883" x2="318.379" y2="545.684"/>
</g>
</svg>
