<?xml version="1.0" encoding="utf-8"?>
<!-- Generator: Adobe Illustrator 16.0.0, SVG Export Plug-In . SVG Version: 6.00 Build 0)  -->
<!DOCTYPE svg PUBLIC "-//W3C//DTD SVG 1.1//EN" "http://www.w3.org/Graphics/SVG/1.1/DTD/svg11.dtd">
<svg version="1.1" xmlns="http://www.w3.org/2000/svg" xmlns:xlink="http://www.w3.org/1999/xlink" x="0px" y="0px"
	 width="889.819px" height="739.146px" viewBox="0 0 889.819 739.146" enable-background="new 0 0 889.819 739.146"
	 xml:space="preserve">
<g id="Layer_3">
	<g>
		<path fill="#4D4B4D" d="M125.78,312.86C50.478,608.729,304.478,711.729,385.478,726.063v-12.834
			C312.478,690.029,85.478,624.063,125.78,312.86z"/>
		<polygon fill="#4D4B4D" points="322.979,706.729 278.409,728.564 325.659,739.146 362.104,720.328 		"/>
		<polygon fill="#4D4B4D" points="263.942,675.148 217.659,686.479 258.788,704.959 297.853,695.848 		"/>
		<polygon fill="#4D4B4D" points="205.972,631.691 166.759,631.691 204.833,660.927 241.335,660.736 		"/>
		<polygon fill="#4D4B4D" points="159.858,574.557 122.576,566.857 153.038,602.111 187.778,609.107 		"/>
		<polygon fill="#4D4B4D" points="128.314,511.977 98.356,494.102 114.126,533.777 143.346,551.063 		"/>
		<polygon fill="#4D4B4D" points="115.089,447.215 93.242,426.742 99.2,462.898 120.534,482.742 		"/>
		<polygon fill="#4D4B4D" points="114.485,377.361 94.02,353.156 95.668,388.787 114.038,410.396 		"/>
	</g>
	<g>
		<path fill="#4D4B4D" d="M761.177,312.86c75.301,295.868-177.699,398.868-259.699,413.202v-12.834
			C574.478,690.029,801.478,624.063,761.177,312.86z"/>
		<polygon fill="#4D4B4D" points="565.171,706.729 609.741,728.564 562.491,739.146 526.046,720.328 		"/>
		<polygon fill="#4D4B4D" points="624.21,675.148 670.491,686.479 629.362,704.959 590.3,695.848 		"/>
		<polygon fill="#4D4B4D" points="682.179,631.691 721.392,631.691 683.317,660.927 646.815,660.736 		"/>
		<polygon fill="#4D4B4D" points="728.294,574.557 765.575,566.857 735.114,602.111 700.374,609.107 		"/>
		<polygon fill="#4D4B4D" points="759.837,511.977 789.794,494.102 774.024,533.777 744.806,551.063 		"/>
		<polygon fill="#4D4B4D" points="773.062,447.215 794.909,426.742 788.952,462.898 767.616,482.742 		"/>
		<polygon fill="#4D4B4D" points="773.667,377.361 794.132,353.156 792.483,388.787 774.114,410.396 		"/>
	</g>
</g>
<g id="Layer_2">
	<g id="_x36_">
		<path fill-rule="evenodd" clip-rule="evenodd" fill="#FFFFFF" d="M177.814,165.771C91.957,86.029,0,0.623,0,0.623
			c0,71.45,2.394,79.354,15.066,92.173c-0.122-0.048,124.965,120.533,124.965,120.533v18.612c0,0-74.433-70.496-74.447-70.902
			c0.015,49.033-4.382,82.801,13.294,99.263c-0.025,0.477,93.059,83.31,93.059,83.31v17.726c0,0-45.29-42.347-45.199-42.541
			c-0.091,27.82-1.986,76.901,13.294,93.06c-0.294-0.133,171.557,162.734,171.937,163.074c-3.08,23.195,3.627,41.783,14.182,52.289
			c-0.279-0.115,118.76,95.719,118.76,95.719v-86.625l-0.011,0.01c0,0-4.362-3.799-4.653-4.053
			c-0.486-0.424-1.061-0.924-1.721-1.498c-1.881-1.643-4.064-3.547-6.523-5.695c-7.023-6.137-14.851-12.99-23.279-20.389
			c-24.084-21.139-48.167-42.416-70.647-62.467c-1.299-1.16-2.589-2.311-3.872-3.457c-46.041-41.117-78.583-71.082-92.245-85.34
			c-14.563-14.836-21.535-29.555-22.032-44.348c-0.381-11.387,2.784-21.373,9.078-33.188c0.972-1.824,4.874-8.777,5.813-10.578
			c5.59-9.62,8.242-16.688,8.285-24.236c0.055-9.777-4.705-19.611-15.988-30.125c-26.205-24.158-40.979-57.304-46.943-95.166
			c-2.079-13.197-2.918-26.066-2.82-38.007c0.035-4.249,0.189-8.104,0.422-11.396C177.784,166.174,177.8,165.971,177.814,165.771
			L177.814,165.771z M188.168,175.388c0.336,0.312,0.672,0.624,1.007,0.936C188.635,181.518,188.767,178.868,188.168,175.388
			L188.168,175.388z M189.767,176.873c70.527,65.504,133.723,124.197,133.723,124.197s-0.764,20.756,0,20.385
			c-46.261,45.838-38.996,68.242-38.996,68.242l44.314,43.428h43.428l33.678,35.451l34.261,147.164
			c-0.003-0.004-0.006-0.006-0.009-0.008c-7.018-6.131-14.837-12.979-23.258-20.371c-24.061-21.117-48.121-42.373-70.574-62.4
			c-1.297-1.158-2.585-2.309-3.865-3.451c-45.761-40.867-78.206-70.742-91.604-84.725c-12.544-12.777-18.151-24.617-18.537-36.125
			c-0.295-8.797,2.265-16.869,7.627-26.938c0.87-1.635,4.825-8.68,5.739-10.448c6.436-11.064,9.758-19.913,9.815-30.13
			c0.077-13.457-6.243-26.514-19.961-39.295c-23.902-22.035-37.556-52.668-43.121-87.997c-1.967-12.485-2.762-24.683-2.669-35.975
			C189.759,177.54,189.763,177.205,189.767,176.873L189.767,176.873z M441.774,622.613l0.096,0.414
			c-0.313-0.041-0.479-0.082-0.432-0.123C441.546,622.811,441.657,622.715,441.774,622.613L441.774,622.613z M712.831,165.004
			C798.45,85.482,889.819,0.623,889.819,0.623c0,71.45-2.395,79.354-15.066,92.173c0.121-0.048-124.965,120.533-124.965,120.533
			v18.612c0,0,74.434-70.496,74.447-70.902c-0.014,49.033,4.381,82.801-13.295,99.263c0.025,0.477-93.059,83.31-93.059,83.31v17.726
			c0,0,45.291-42.347,45.199-42.541c0.092,27.82,1.986,76.901-13.293,93.06c0.293-0.133-171.557,162.734-171.938,163.074
			c3.082,23.195-3.627,41.783-14.18,52.289c0.277-0.115-118.762,95.719-118.762,95.719v-86.625l4.061-3.518
			c1.084-0.938,1.66-1.438,2.32-2.012c1.891-1.639,4.082-3.541,6.551-5.688c7.055-6.129,14.912-12.975,23.377-20.363
			c24.182-21.117,48.363-42.373,70.938-62.412c1.34-1.189,2.672-2.371,3.994-3.547c46.262-41.121,78.932-71.086,92.65-85.402
			c14.512-14.783,21.484-29.502,21.98-44.295c0.381-11.387-2.783-21.373-9.078-33.188c-0.971-1.824-4.873-8.777-5.666-10.309
			c-5.736-9.89-8.389-16.957-8.432-24.506c-0.055-9.777,4.705-19.611,16.012-30.147c26.182-24.136,40.955-57.281,46.92-95.144
			c2.08-13.197,2.918-26.066,2.82-38.007c-0.035-4.249-0.189-8.104-0.42-11.396C712.901,165.898,712.866,165.438,712.831,165.004
			L712.831,165.004z M702.728,174.389c-0.426,0.395-0.85,0.789-1.275,1.184C702.142,182.313,701.874,178.461,702.728,174.389
			L702.728,174.389z M700.927,176.061c-70.879,65.83-134.598,125.01-134.598,125.01s0.764,20.756,0,20.385
			c46.262,45.838,38.996,68.242,38.996,68.242l-44.314,43.428h-43.428l-33.678,35.451l-34.271,147.215
			c0.023-0.02,0.045-0.041,0.068-0.061c7.047-6.123,14.898-12.961,23.354-20.346c24.158-21.094,48.318-42.33,70.861-62.342
			c1.338-1.189,2.668-2.369,3.988-3.543c45.973-40.863,78.543-70.736,91.988-84.768c12.492-12.725,18.1-24.564,18.486-36.072
			c0.295-8.797-2.266-16.869-7.629-26.938c-0.869-1.635-4.824-8.68-5.59-10.18c-6.584-11.333-9.906-20.182-9.965-30.398
			c-0.076-13.457,6.244-26.514,19.986-39.318c23.879-22.012,37.531-52.645,43.098-87.974c1.967-12.485,2.762-24.683,2.67-35.975
			C700.944,177.263,700.937,176.656,700.927,176.061L700.927,176.061z M448.046,622.609l-0.18,0.775
			c0.672,0.027,1.117,0.041,1.117,0.041C448.622,623.111,448.317,622.846,448.046,622.609L448.046,622.609z M428.956,303.729
			l15.067,10.636v71.788l-27.475-23.93v-22.156l-7.977-7.09l10.636-101.922l7.09,32.792L428.956,303.729L428.956,303.729z
			 M459.091,303.729l-15.067,10.636v71.788l27.474-23.93v-22.156l7.977-7.09l-10.635-101.922l-7.09,32.792L459.091,303.729
			L459.091,303.729z M444.023,400.334v48.744l-35.451-30.133h-48.745l15.066-14.182l31.02-6.203v-13.295h-22.156l15.066-14.18
			l9.749-1.772L444.023,400.334L444.023,400.334z M444.023,400.334v48.744l35.45-30.133h48.746l-15.066-14.182l-31.02-6.203v-13.295
			h22.156l-15.066-14.18l-9.75-1.772L444.023,400.334L444.023,400.334z M444.909,457.941v135.6l-26.588-135.6H444.909
			L444.909,457.941z M444.909,457.941v135.6l26.588-135.6H444.909L444.909,457.941z M444.909,457.941"/>
	</g>
</g>
</svg>
