<?xml version="1.0" encoding="utf-8"?>
<!-- Generator: Adobe Illustrator 16.0.0, SVG Export Plug-In . SVG Version: 6.00 Build 0)  -->
<!DOCTYPE svg PUBLIC "-//W3C//DTD SVG 1.1//EN" "http://www.w3.org/Graphics/SVG/1.1/DTD/svg11.dtd">
<svg version="1.1" xmlns="http://www.w3.org/2000/svg" xmlns:xlink="http://www.w3.org/1999/xlink" x="0px" y="0px"
	 width="902.311px" height="732.063px" viewBox="0 0 902.311 732.063" enable-background="new 0 0 902.311 732.063"
	 xml:space="preserve">
<g id="Layer_3">
	<g>
		<path fill="#4D4B4D" d="M132.871,286.237C57.568,582.105,311.568,685.105,392.568,699.439v-12.834
			C319.568,663.406,92.568,597.439,132.871,286.237z"/>
		<polygon fill="#4D4B4D" points="329.268,680.105 284.697,701.941 331.947,712.523 368.393,693.705 		"/>
		<polygon fill="#4D4B4D" points="270.23,648.525 223.947,659.855 265.076,678.336 304.141,669.225 		"/>
		<polygon fill="#4D4B4D" points="212.26,604.467 173.047,604.467 211.121,634.003 247.623,633.662 		"/>
		<polygon fill="#4D4B4D" points="166.146,547.934 128.864,540.234 159.326,575.488 194.066,582.484 		"/>
		<polygon fill="#4D4B4D" points="134.603,485.354 104.645,467.479 120.414,507.154 149.634,524.439 		"/>
		<polygon fill="#4D4B4D" points="121.377,420.592 99.53,400.119 105.488,436.275 126.822,456.119 		"/>
		<polygon fill="#4D4B4D" points="120.773,350.738 100.308,326.533 101.956,362.164 120.326,383.773 		"/>
	</g>
	<g>
		<path fill="#4D4B4D" d="M768.268,286.237c75.301,295.868-177.699,398.868-259.699,413.202v-12.834
			C581.568,663.406,808.568,597.439,768.268,286.237z"/>
		<polygon fill="#4D4B4D" points="571.459,680.105 616.029,701.941 568.779,712.523 532.334,693.705 		"/>
		<polygon fill="#4D4B4D" points="630.498,648.525 676.779,659.855 635.65,678.336 596.588,669.225 		"/>
		<polygon fill="#4D4B4D" points="688.467,604.467 727.68,604.467 689.605,634.003 653.104,633.662 		"/>
		<polygon fill="#4D4B4D" points="734.582,547.934 771.863,540.234 741.402,575.488 706.662,582.484 		"/>
		<polygon fill="#4D4B4D" points="766.125,485.354 796.082,467.479 780.313,507.154 751.094,524.439 		"/>
		<polygon fill="#4D4B4D" points="779.35,420.592 801.197,400.119 795.24,436.275 773.904,456.119 		"/>
		<polygon fill="#4D4B4D" points="779.955,350.738 800.42,326.533 798.771,362.164 780.402,383.773 		"/>
	</g>
</g>
<g id="Layer_2">
	<g id="_x37_">
		<path fill-rule="evenodd" clip-rule="evenodd" fill="#FFFFFF" d="M651.691,397.787c8.059,9.24,12.832,17.408,14.457,25.525
			c2.223,11.115-1.711,21.502-11.926,31.254c-7.924,7.533-55.34,50.232-129.758,116.957c-21.287,19.088-43.402,38.902-65.74,58.906
			c5.377,4.814,10.766,9.637,16.152,14.461c10.768,9.637,20.766,18.584,29.738,26.613c1.33,1.189,2.598,2.322,3.797,3.396
			c37.775-37.746,80.313-80.275,80.158-80.211c22.156-21.27,7.09-58.494,18.611-70.902c0.381-0.338,173.117-172.068,172.824-171.937
			c15.279-16.157,13.385-50.172,13.293-77.992c0.092,0.194-27.475,24.815-27.475,24.815V285.38c0,0,64.725-65.108,64.699-65.585
			c17.674-16.461,14.166-31.617,14.18-80.65c-0.014,0.406-62.926,59.381-62.926,59.381v-16.84c0,0,101.158-101.082,101.035-101.035
			c12.674-12.82,19.498-9.201,19.498-80.65L748.986,140.918l-0.01-0.035l0,0c0.146,18.604-1.342,38.387-5.299,57.404
			c-5.383,25.871-14.811,46.909-29.199,61.365c0.025,0.826,0.053,1.744,0.082,2.748c0.105,3.525,0.207,7.37,0.305,11.406
			c0.158,6.627,0.283,13.105,0.359,19.189c0.055,4.338,0.082,8.385,0.082,12.082c0,15.686-0.494,21.199-3.461,28.698
			c-2.955,7.476-8.266,14.63-17.305,23.312c-3.973,3.815-8.453,8.098-13.354,12.763c-0.279,0.267-0.279,0.267-0.561,0.532
			c-7.188,6.842-14.887,14.138-22.588,21.412C655.775,393.936,653.646,395.943,651.691,397.787L651.691,397.787z M645.713,391.264
			c-18.576-20.794-20.17-47.942-4.793-62.524c3.486-3.307,3.379-3.187,5.068-4.772c3.172-2.979,7.859-7.379,14.486-13.596
			c6.273-5.887,32.758-30.729,45.416-42.602c0.053,2.017,0.107,4.106,0.158,6.25c0.158,6.596,0.281,13.041,0.357,19.088
			c0.055,4.304,0.082,8.313,0.082,11.971c0,14.541-0.43,19.336-2.836,25.418c-2.424,6.131-7.004,12.302-15.199,20.174
			c-3.963,3.806-8.436,8.078-13.328,12.736c-0.277,0.266-0.277,0.266-0.557,0.531c-7.18,6.832-14.873,14.121-22.566,21.39
			C649.76,387.445,647.652,389.436,645.713,391.264L645.713,391.264z M442.784,630.43c-22.338-20.004-44.452-39.818-65.741-58.906
			C302.627,504.799,255.211,462.1,247.287,454.566c-10.217-9.752-14.148-20.139-11.926-31.254
			c1.623-8.117,6.398-16.285,14.457-25.525l0,0c-1.955-1.844-4.084-3.852-6.349-5.992c-7.7-7.274-15.401-14.57-22.589-21.412
			c-0.279-0.266-0.279-0.266-0.559-0.532c-4.9-4.665-9.382-8.947-13.355-12.763c-9.039-8.682-14.35-15.836-17.305-23.312
			c-2.965-7.499-3.461-13.013-3.461-28.698c0-3.697,0.029-7.744,0.084-12.082c0.076-6.084,0.199-12.563,0.359-19.189
			c0.096-4.036,0.199-7.881,0.303-11.406c0.029-1.004,0.058-1.922,0.083-2.748c-14.389-14.456-23.816-35.494-29.2-61.365
			c-4.011-19.277-5.484-39.344-5.29-58.169l0,0L0.084,0c0,71.449,6.826,67.83,19.498,80.65
			c-0.122-0.047,101.035,101.035,101.035,101.035v16.84c0,0-62.912-58.975-62.926-59.381c0.014,49.033-3.494,64.189,14.181,80.65
			c-0.024,0.477,64.698,65.585,64.698,65.585v13.294c0,0-27.564-24.621-27.475-24.815c-0.09,27.82-1.986,61.835,13.294,77.992
			c-0.293-0.132,172.443,171.599,172.823,171.937c11.521,12.408-3.545,49.633,18.612,70.902
			c-0.154-0.063,42.069,42.15,79.739,79.793c1.061-0.949,2.17-1.943,3.328-2.979c8.973-8.029,18.971-16.977,29.738-26.613
			C432.02,640.066,437.407,635.244,442.784,630.43L442.784,630.43L442.784,630.43z M450.6,637.705l0.598,3.07v91.287
			c0,0-22.955-22.93-50.1-50.053c0.926-0.828,1.887-1.688,2.885-2.58c8.973-8.029,18.973-16.977,29.74-26.615
			C439.352,647.775,444.98,642.736,450.6,637.705L450.6,637.705L450.6,637.705z M455.422,619.113l30.34-155.592l30.135-28.361
			h34.564l38.109-37.223c0,0,13.469-16.201-32.793-62.04v-33.679l182.357-170.371c0.768,20.465-0.436,42.975-4.867,64.273
			c-5.199,24.99-14.314,44.789-27.871,57.531c0.682-0.639-43.811,41.096-52.197,48.963c-6.627,6.219-11.316,10.619-14.49,13.6
			c-1.691,1.589-5.105,4.809-5.105,4.809c-20.459,19.4-17.83,54.363,6.01,79.307c19.154,20.109,21.688,32.779,7.275,46.535
			c-7.795,7.412-55.34,50.227-130.018,117.186C497.135,581.748,476.43,600.299,455.422,619.113L455.422,619.113L455.422,619.113z
			 M255.795,391.264c18.576-20.794,20.171-47.942,4.795-62.524c-3.486-3.307-3.381-3.187-5.07-4.772
			c-3.172-2.979-7.858-7.379-14.486-13.596c-6.273-5.887-32.757-30.729-45.414-42.602c-0.055,2.017-0.107,4.106-0.159,6.25
			c-0.158,6.596-0.282,13.041-0.357,19.088c-0.054,4.304-0.083,8.313-0.083,11.971c0,14.541,0.432,19.336,2.837,25.418
			c2.423,6.131,7.003,12.302,15.2,20.174c3.963,3.806,8.435,8.078,13.326,12.736c0.279,0.266,0.279,0.266,0.559,0.531
			c7.179,6.832,14.871,14.121,22.564,21.39C251.748,387.445,253.857,389.436,255.795,391.264L255.795,391.264L255.795,391.264z
			 M163.405,131.049l183.212,171.17v33.679c-46.262,45.839-32.792,62.04-32.792,62.04l38.11,37.223H386.5l30.133,28.361
			l30.527,156.553c-21.375-19.143-42.45-38.025-62.523-56.023C309.96,497.092,262.416,454.277,254.62,446.865
			c-14.412-13.756-11.879-26.426,7.274-46.535c23.842-24.943,26.469-59.906,6.012-79.307c0,0-3.415-3.22-5.107-4.809
			c-3.174-2.98-7.861-7.381-14.49-13.6c-8.386-7.867-52.877-49.602-52.196-48.963c-13.556-12.742-22.672-32.541-27.872-57.531
			C163.751,174.545,162.576,151.725,163.405,131.049L163.405,131.049L163.405,131.049z M451.664,638.381l-0.467,2.395v91.287
			c0,0,22.721-22.693,49.682-49.635c-1.068-0.955-2.186-1.955-3.352-2.998c-8.975-8.029-18.973-16.977-29.74-26.615
			C462.41,648,457.033,643.188,451.664,638.381L451.664,638.381L451.664,638.381z M450.312,405.914v43.426l-28.36-25.701h-53.178
			l14.182-12.408l35.45-6.203v-12.408h-23.043l13.294-11.521l11.521-1.772L450.312,405.914L450.312,405.914z M450.312,405.914
			v43.426l28.36-25.701h53.176l-14.18-12.408l-35.451-6.203v-12.408h23.043l-13.293-11.521l-11.521-1.772L450.312,405.914
			L450.312,405.914z M451.197,459.977v107.238l-21.27-107.238H451.197L451.197,459.977z M451.197,459.977v107.238l21.271-107.238
			H451.197L451.197,459.977z M438.789,323.49l11.522,8.862v58.493l-20.384-18.611v-19.498l-7.977-6.203l9.748-110.785l4.432,24.816
			L438.789,323.49L438.789,323.49z M461.832,323.49l-11.521,8.862v58.493l20.384-18.611v-19.498l7.977-6.203l-9.748-110.785
			l-4.432,24.816L461.832,323.49L461.832,323.49z M461.832,323.49"/>
	</g>
</g>
</svg>
