<?xml version="1.0" encoding="utf-8"?>
<!-- Generator: Adobe Illustrator 16.0.0, SVG Export Plug-In . SVG Version: 6.00 Build 0)  -->
<!DOCTYPE svg PUBLIC "-//W3C//DTD SVG 1.1//EN" "http://www.w3.org/Graphics/SVG/1.1/DTD/svg11.dtd">
<svg version="1.1" xmlns="http://www.w3.org/2000/svg" xmlns:xlink="http://www.w3.org/1999/xlink" x="0px" y="0px"
	 width="701.667px" height="632.116px" viewBox="0 0 701.667 632.116" enable-background="new 0 0 701.667 632.116"
	 xml:space="preserve">
<g id="Layer_3">
	<g>
		<path fill="#4D4B4D" d="M32.478,205.83c-75.303,295.868,178.697,398.868,259.697,413.202v-12.834
			C219.175,582.999-7.825,517.032,32.478,205.83z"/>
		<polygon fill="#4D4B4D" points="229.737,599.698 185.167,621.534 232.417,632.116 268.862,613.297 		"/>
		<polygon fill="#4D4B4D" points="170.7,568.118 124.417,579.448 165.546,597.928 204.61,588.817 		"/>
		<polygon fill="#4D4B4D" points="112.729,524.896 73.517,524.896 111.591,554.013 148.093,553.882 		"/>
		<polygon fill="#4D4B4D" points="66.616,467.526 29.334,459.827 59.796,495.081 94.536,502.077 		"/>
		<polygon fill="#4D4B4D" points="35.072,404.946 5.114,387.071 20.884,426.747 50.104,444.032 		"/>
		<polygon fill="#4D4B4D" points="21.847,340.184 0,319.711 5.958,355.868 27.292,375.711 		"/>
		<polygon fill="#4D4B4D" points="21.243,270.331 0.777,246.125 2.426,281.756 20.796,303.366 		"/>
	</g>
	<g>
		<path fill="#4D4B4D" d="M667.874,205.83c75.301,295.868-177.699,398.868-259.699,413.202v-12.834
			C481.175,582.999,708.175,517.032,667.874,205.83z"/>
		<polygon fill="#4D4B4D" points="471.929,599.698 516.499,621.534 469.249,632.116 432.804,613.297 		"/>
		<polygon fill="#4D4B4D" points="530.968,568.118 577.249,579.448 536.12,597.928 497.058,588.817 		"/>
		<polygon fill="#4D4B4D" points="588.937,524.896 628.149,524.896 590.075,554.013 553.573,553.882 		"/>
		<polygon fill="#4D4B4D" points="635.052,467.526 672.333,459.827 641.872,495.081 607.132,502.077 		"/>
		<polygon fill="#4D4B4D" points="666.595,404.946 696.552,387.071 680.782,426.747 651.563,444.032 		"/>
		<polygon fill="#4D4B4D" points="679.819,340.184 701.667,319.711 695.71,355.868 674.374,375.711 		"/>
		<polygon fill="#4D4B4D" points="680.425,270.331 700.89,246.125 699.241,281.756 680.872,303.366 		"/>
	</g>
</g>
<g id="Layer_2">
	<g id="_x33_">
		<path fill-rule="evenodd" clip-rule="evenodd" fill="#FFFFFF" d="M351.719,549.975l-43.451-218.961l-43.351-41.9l-19.892-1.303
			c0,0-1.752-30.506,28.446-63.05L26.801,0c0,0-2.066,81.723,3.241,98.652c5.309,16.929,25.581,32.493,25.581,32.493
			l130.464,123.409l-0.881,29.342l-86.057-81.09c0,0,4.772,84.127,10.798,96.168c6.026,12.041,13.146,16.775,13.146,16.775
			l62.994,57.945v25.547l165.586,150.959l-0.02,0.1l0.065-0.059l0.065,0.059l-0.021-0.1l165.585-150.959v-25.547l62.996-57.945
			c0,0,7.119-4.734,13.145-16.775s10.797-96.168,10.797-96.168l-86.055,81.09l-0.883-29.342l130.465-123.409
			c0,0,20.273-15.564,25.582-32.493C678.702,81.723,676.636,0,676.636,0l-246.67,224.761c30.197,32.544,28.445,63.05,28.445,63.05
			l-19.891,1.303l-43.352,41.9L351.719,549.975L351.719,549.975z M352.669,221.346v0.125l-0.07-0.063l-0.07,0.063v-0.125
			l-33.253-29.114v-26.507l-10.175-9.079l6.039-77.72l19.451,42.418l18.008,13.364l18.008-13.364l19.451-42.418l6.039,77.72
			l-10.174,9.079v26.507L352.669,221.346L352.669,221.346L352.669,221.346z M352.669,245.736v62.925l-44.313-38.109l-2.659-66.471
			L352.669,245.736L352.669,245.736z M352.669,244.85v62.926l44.314-38.111l2.658-66.47L352.669,244.85L352.669,244.85z
			 M351.653,330.819v120.533L328.61,330.819H351.653L351.653,330.819z M351.653,330.819v120.533l23.043-120.533H351.653
			L351.653,330.819z M351.653,330.819"/>
	</g>
</g>
</svg>
