<?xml version="1.0" encoding="utf-8"?>
<!-- Generator: Adobe Illustrator 16.0.0, SVG Export Plug-In . SVG Version: 6.00 Build 0)  -->
<!DOCTYPE svg PUBLIC "-//W3C//DTD SVG 1.1//EN" "http://www.w3.org/Graphics/SVG/1.1/DTD/svg11.dtd">
<svg version="1.1" id="Layer_1" xmlns:serif="http://www.serif.com/"
	 xmlns="http://www.w3.org/2000/svg" xmlns:xlink="http://www.w3.org/1999/xlink" x="0px" y="0px" width="612px" height="417.171px"
	 viewBox="0 187.713 612 417.171" enable-background="new 0 187.713 612 417.171" xml:space="preserve">
<g transform="matrix(1,0,0,1,-1344,-1286.49)">
	<g transform="matrix(1.58758,0,0,1.57242,-1590.8,-1213.7)">
		<path fill="#FFFFFF" d="M2080.563,1819.79c1.68,2.212,5.859,6.594,8.806,5.589c3.36-1.149,5.417-7.996,5.502-10.085
			c0.712-17.404-7.412-92.671-11.856-92.802c-7.391-0.217-30.592,46.618-32.533,47.766c-3.773,2.24,15.421-45.579,21.181-54.225
			c0.164-0.241,0.311-0.454,0.454-0.634c2.273-2.915,4.493-7.813,13.904-5.993c5.556,1.071,7.608,1.341,11.304,6.136
			c8.998,11.668,18.687,36.393,18.396,78.084c-0.053,7.69-1.116,25.338-4.906,37.202c-3.561,11.145-6.676,12.539-8.585,16.353
			c-0.65,1.3-3.226,4.652-2.444,5.539c0.785,0.883,5.748,0.123,7.146-0.225c3.54-0.874,23.601-13.127,34.954-20.441
			c11.353-7.314,59.614-42.521,60.913-43.743c1.301-1.223,13.177-10.163,12.747-11.292c-0.429-1.128-4.882-0.642-10.294,0.254
			c-5.412,0.895-45.542,13.479-53.052,16.107c-7.51,2.629-8.307,2.285-8.994,0.409c-0.687-1.876,14.529-8.667,24.7-12.089
			c10.172-3.434,47.043-15.347,51.246-15.601c6.307-0.384,13.887,6.21,9.811,16.896c-3.483,9.133-24.275,24.476-49.467,43.743
			c-25.191,19.268-69.299,40.138-79.72,44.152c-3.017,1.161-27.983,7.016-29.026,8.586c-1.043,1.569,11.275,3.88,14.308,4.496
			c3.034,0.617,132.159-1.115,133.835-1.156c1.676-0.033,1.905-2.453,0-3.639c-2.604-1.619-14.909-4.718-18.025-5.981
			c-3.115-1.255-38.229-10.793-39.913-11.439c-1.684-0.646-0.045-2.412,1.635-2.862c1.68-0.45,51.941,9.812,63.257,13.54
			c11.316,3.729,9.403,9.456,2.707,17.26s-32.129,10.061-42.877,10.539c-10.748,0.487-63.919-1.333-99.801-1.954
			c-35.882-0.622-54.152-15.036-56.826-16.762c-1.623-1.051-1.198,0.63-0.408,6.132c1.848,12.853,40.493,44.209,48.649,51.511
			c8.156,7.301,31.54,25.212,32.162,23.748c0.687-1.615,0.437-3.029,0.257-7.281c-0.18-4.252-7.829-29.026-9.53-35.632
			c-1.7-6.607,0.936-6.235,2.453-4.089c3.283,4.644,10.752,17.28,14.721,30.612c3.97,13.332,4.935,17.767-0.817,22.485
			c-5.752,4.718-17.235,3.651-28.617,0c-11.382-3.651-31.81-21.197-43.335-31.888c-11.524-10.69-35.685-44.737-38.653-50.906
			s-1.917-23.192-3.046-23.09c-1.129,0.103-6.979,3.888-12.673,9.403c-5.695,5.519-28.061,66.245-31.07,73.996
			c-3.009,7.751-6.337,19.807-5.225,21.071c1.112,1.263,5.31-1.578,6.86-2.674c1.549-1.096,39.071-35.354,41.262-37.476
			c2.195-2.122,3.254-3.193,2.862-0.409c-0.392,2.784-18.029,22.767-31.042,35.023c-13.012,12.256-17.023,13.528-27.39,12.265
			c-10.368-1.263-9.897-9.758-10.22-13.9c-0.802-10.269,5.363-32.223,17.669-58.089c12.08-25.396,29.516-46.164,33.842-51.065
			c8.729-9.893,21.328-15.396,21.259-16.353c-0.062-0.887-10.188-0.331-21.668,0.818c-11.479,1.149-116.627,41.241-121.419,42.926
			c-4.791,1.684-4.039,2.485-2.915,3.136c2.114,1.222,65.28-1.243,70.288-1.227c5.008,0.017,2.42,3.737,0.528,4.591
			c-1.897,0.854-76.535,5.637-79.348,4.946c-2.812-0.691-4.893-3.16-5.723-6.132c-0.83-2.967,1.627-6.864,3.27-9.811
			c1.644-2.948,13.508-9.677,24.12-15.535c10.613-5.858,54.516-23.736,63.6-26.491c9.084-2.755,29.1-12.485,67.467-15.077
			c4.624-0.315,35.477,0.597,41.454,0.278c0.875-0.045-1.337-2.952-4.906-6.132c-3.569-3.18-34.438-13.565-44.561-17.579
			c-10.122-4.015-78.117-23.495-80.537-23.303c-2.42,0.192,1.652,3.356,3.316,4.877c2.609,2.375,34.513,33.135,35.792,34.823
			c1.284,1.688-0.115,3.197-4.89,2.6c-2.494-0.315-38.31-30.931-43.212-34.533c-4.902-3.602-3.949-7.608-3.14-9.652
			c1.656-4.199,7.633-7.048,14.587-7.927c4.857-0.613,15.057-0.274,31.479,2.044c16.422,2.318,60.615,18.033,88.714,30.253
			C2069.415,1805.028,2076.965,1815.056,2080.563,1819.79z"/>
	</g>
</g>
</svg>
