<?xml version="1.0" encoding="utf-8"?>
<!-- Generator: Adobe Illustrator 16.0.0, SVG Export Plug-In . SVG Version: 6.00 Build 0)  -->
<!DOCTYPE svg PUBLIC "-//W3C//DTD SVG 1.1//EN" "http://www.w3.org/Graphics/SVG/1.1/DTD/svg11.dtd">
<svg version="1.1" id="Layer_1" xmlns="http://www.w3.org/2000/svg" xmlns:xlink="http://www.w3.org/1999/xlink" x="0px" y="0px"
	 width="632px" height="593.333px" viewBox="185 267.667 632 593.333" enable-background="new 185 267.667 632 593.333"
	 xml:space="preserve">
<g id="Layer_4" display="none">
	<rect display="inline" width="960" height="960"/>
</g>
<g id="Lavigny-Duval_logo">
	<polygon fill="#FFFFFF" points="499,861 446,743.5 446,551.5 499,669 	"/>
	<polygon fill="#FFFFFF" points="513,861 566,743.5 566,551.5 513,669 	"/>
	<polygon fill="#FFFFFF" points="431,530.667 342,453 342,642 431,719.667 	"/>
	<polygon fill="#FFFFFF" points="328,439.667 185,316.167 185,505.167 328,628.667 	"/>
	<polygon fill="#FFFFFF" points="672,444.667 815,309.167 815,498.166 672,633.667 	"/>
	<polygon fill="#FFFFFF" points="585,530.667 658,459.333 658,648.333 585,719.667 	"/>
	<g id="Empire_bird">
		<path fill="#FFFFFF" d="M505.833,635l53.403-114.887c0,0,256.37-251.053,257.764-252.446
			c-1.333,0.352-108.442,24.373-108.442,24.373L502.943,438.917c0,0-315.108-151.71-316.11-152.25
			c0.837,0.838,271.147,233.264,271.147,233.264L505.833,635z"/>
		<g id="Layer_6">
			<path fill="#FFFFFF" d="M469.667,409.629l23.111,11.038c0,0,55.336-36.565,57.835-38.288c3.336-2.3,2.902-4.852,2.902-9.106
				c0-1.294,1.006-60.272-22.736-60.272h-23.7c-14.101,0-36.478,7.755-36.478,26.583c0.92,1.724,4.054-2.317,10.563-2.317
				c4.744,0,13.392,1.238,15.351,3.197c1.957,1.958-0.477,8.955-1.811,12.263C493.009,356.926,472.512,406.783,469.667,409.629z"/>
		</g>
	</g>
</g>
</svg>
