<?xml version="1.0" encoding="utf-8"?>
<!-- Generator: Adobe Illustrator 16.0.0, SVG Export Plug-In . SVG Version: 6.00 Build 0)  -->
<!DOCTYPE svg PUBLIC "-//W3C//DTD SVG 1.1//EN" "http://www.w3.org/Graphics/SVG/1.1/DTD/svg11.dtd">
<svg version="1.1" xmlns="http://www.w3.org/2000/svg" xmlns:xlink="http://www.w3.org/1999/xlink" x="0px" y="0px" width="960px"
	 height="960px" viewBox="0 0 960 960" enable-background="new 0 0 960 960" xml:space="preserve">
<g id="Layer_4" display="none">
	<rect display="inline" width="960" height="960"/>
</g>
<g id="Denton_Patreus_logo">
	<g id="Layer_7">
		<polygon fill="#FFFFFF" points="504.917,162.719 519.305,207 565.863,207 528.196,234.465 542.584,278.795 504.917,251.453 
			467.25,278.832 481.637,234.459 443.97,207 490.529,207 		"/>
		<polygon fill="#FFFFFF" points="388,223.285 396.355,249 423.394,249 401.52,264.643 409.875,290.233 388,274.277 
			366.125,290.139 374.48,264.658 352.606,249 379.645,249 		"/>
		<polygon fill="#FFFFFF" points="621,223.285 629.355,249 656.395,249 634.52,264.643 642.875,290.233 621,274.277 
			599.125,290.139 607.48,264.658 585.605,249 612.645,249 		"/>
		<polygon fill="#FFFFFF" points="309,300.869 314.241,317 331.203,317 317.48,326.862 322.722,342.94 309,332.944 295.278,342.9 
			300.52,326.869 286.797,317 303.759,317 		"/>
		<polygon fill="#FFFFFF" points="700,300.869 705.241,317 722.203,317 708.48,326.862 713.723,342.94 700,332.944 686.277,342.9 
			691.52,326.869 677.797,317 694.759,317 		"/>
	</g>
	<g id="Empire_bird">
		<path fill="#FFFFFF" d="M508.906,753.857l54.4-117.031c0,0,261.155-255.74,262.575-257.159
			c-1.358,0.358-110.467,24.828-110.467,24.828L505.963,554.113c0,0-320.991-154.542-322.011-155.092
			c0.853,0.854,276.209,237.619,276.209,237.619L508.906,753.857z"/>
		<g id="Layer_6">
			<path fill="#FFFFFF" d="M472.064,524.279l23.542,11.244c0,0,56.369-37.248,58.915-39.003c3.398-2.343,2.957-4.866,2.957-9.2
				c0-1.317,1.025-61.32-23.161-61.32h-24.143c-14.363,0-37.158,7.823-37.158,27.002c0.937,1.757,4.128-2.398,10.761-2.398
				c4.832,0,13.641,1.242,15.637,3.237c1.993,1.995-0.485,9.113-1.845,12.482C495.843,470.602,474.963,521.38,472.064,524.279z"/>
		</g>
	</g>
	<g>
	</g>
	<g>
	</g>
	<g>
	</g>
	<g>
	</g>
	<g>
	</g>
	<g>
	</g>
	<g>
	</g>
	<g>
	</g>
	<g>
	</g>
	<g>
	</g>
	<g>
	</g>
	<g>
	</g>
	<g>
	</g>
	<g>
	</g>
	<g>
	</g>
</g>
</svg>
