<?xml version="1.0" encoding="utf-8"?>
<!-- Generator: Adobe Illustrator 16.0.0, SVG Export Plug-In . SVG Version: 6.00 Build 0)  -->
<!DOCTYPE svg PUBLIC "-//W3C//DTD SVG 1.1//EN" "http://www.w3.org/Graphics/SVG/1.1/DTD/svg11.dtd">
<svg version="1.1" xmlns="http://www.w3.org/2000/svg" xmlns:xlink="http://www.w3.org/1999/xlink" x="0px" y="0px"
	 width="774.508px" height="756px" viewBox="0 0 774.508 756" enable-background="new 0 0 774.508 756" xml:space="preserve">
<g id="Layer_4" display="none">
	<rect x="-97.242" y="-120" display="inline" width="960" height="960"/>
</g>
<g id="Archon_Delaine">
	<g id="Legs_Right">
		<path fill="#FFFFFF" d="M448.207,469.896c14.166-20.833,74.663-75.23,182.218-77.563c87.667,65.417,118.553,128.434,126,219.917
			c31-54.25-47.5-190.416-85.834-217.75c-10.999-5.167-4.417-15.667-25.583-22.5c-84.75,0-175.125,56.75-182.125,67.75
			L448.207,469.896z"/>
		<path fill="#FFFFFF" d="M656.298,422.69c5.02,4.96,9.99,10.439,14.88,16.359c-19.14,13.11-29.63,22.181-34.42,24.28
			c-22,9.67-74.673,0.92-87.833-5.58c30.5-2.84,24.163-10.42,22.503-12.08c-1.67-1.67-8.25-14.84-34.92-9.42
			c-4.08-3.75-14.07-8.19-14.75-13c6.5,1.69,26.17,0.5,36.75,0.5c22.25,0,29.42,20.75,53.92,20.75
			C623.317,444.5,636.638,435.39,656.298,422.69z"/>
		<path fill="#FFFFFF" d="M774.508,275.93c0,52.83-34.12,106.23-69.99,137.43c-5.35-5.71-10.62-10.801-15.609-15.2
			c25.159-21.77,46.68-49.58,51.6-72.66c40.44-40.43,10.5-172.75,4-187C768.758,138.5,774.508,225.46,774.508,275.93z"/>
		<path fill="#FFFFFF" d="M522.87,381.929c0-44.066,29.888-89.263,53.555-105.999c17.587-12.437,28.693-27.255,41.333-37.597
			c14.25-29.25-10.414-206.408-31.374-229.951c50.374,36.951,61.707,165.951,55.707,198.951c13.625-7.125,22.834-39.167,33-52
			c1.834,16.833-5.09,45.703-14.999,69.5C641.925,224.833,569.412,317.76,522.87,381.929z"/>
		<path fill="#FFFFFF" d="M256.508,380.93c3.25-43.68-17-65.68-41.95-86.476c-16.546-13.792-43.411-46.862-56.05-57.204
			C138.008,160.5,166.258,37,189.758,0c-50.374,36.951-63.5,176.75-57.5,209.75c-14.75-5.25-20.5-41.897-26.75-56.75
			c-3.5,16.25,1.841,49.453,11.75,73.25C132.758,230,215.258,315.25,256.508,380.93z"/>
	</g>
	<g id="Legs_Left">
		<path fill="#FFFFFF" d="M292.008,472.25c-12.93,8.641-30.41,21.25-54.25,36.084C195.091,517.667,115.554,624.185,122.508,756
			c-24.25-101,33.75-225,67.75-243.5c-12.793-1.5-20.131-5.658-29-5.75C220.008,495,248.517,478.095,292.008,472.25z"/>
		<path fill="#FFFFFF" d="M495.758,477.333c12.93,8.641,20.396,16.167,44.236,31.001C577.608,516.562,660.247,628.468,654.258,742
			c24.25-101-33.5-212.5-67.5-231c12.793-1.5,17.956-2.007,28-2.5C556.008,496.75,539.248,483.178,495.758,477.333z"/>
		<path fill="#FFFFFF" d="M300.175,454.75c-8.31-2.254-4.208-10.959-24.306-21.958c-33.219-18.18-78.837-37.142-132.444-38.958
			C90.092,415.75,28.758,519.667,15.594,606.5c-10.502-101.833,56.831-184.666,95.165-212c10.999-5.167,2-12.917,23.166-19.75
			c52.583,0,135,31.418,168.167,66.084c2.214,2.314,11.167,6.167,21.75,7.333l4.633,6.488
			C328.475,454.655,324.758,461.417,300.175,454.75z"/>
		<path fill="#FFFFFF" d="M120.052,423.69c-5.02,4.96-9.99,10.439-14.88,16.359c19.14,13.11,34.63,21.181,39.42,23.28
			c22,9.67,69.672-0.33,82.833-6.83c-6.658-0.62-27.361-1.445-32.5-8c14.413-13.61,44.514-16.526,54.833-15.666
			c-2.92-6.25-4.176-6.19-3.496-11c-6.5,1.69-12.84,1.916-23.42,1.916c-22.25,0-29.42,20.75-53.92,20.75
			C158.032,444.5,139.712,436.39,120.052,423.69z"/>
		<path fill="#FFFFFF" d="M0.592,286c0,52.83,35.37,97.16,71.24,128.36c5.35-5.71,10.62-10.801,15.609-15.2
			c-25.159-21.77-46.93-48.08-51.85-71.16c-40.44-40.43-24.5-155.667-1.5-191.67C-7.242,174.667,0.592,235.53,0.592,286z"/>
	</g>
	<g id="Skull">
		<path fill="#FFFFFF" d="M432.758,533.333c20.25,2.917,36.5-10.583,39.5-20.583s3-51,15-55c0,0-27.25,9.75-29.75,25.5
			S451.008,520.083,432.758,533.333z"/>
		<path fill="#FFFFFF" d="M344.758,533.333c-17-2-30.579-13.561-30.667-24c-0.187-22.279,9.788-28.235-16-36.832
			c1.9-0.157,21.955-7.919,29.833,13.166C333.394,500.306,330.091,514.666,344.758,533.333z"/>
		<path fill="#FFFFFF" d="M376.883,456.25c-3.125-3.125,10.709-62.58,17.375-62.58c1.36,0,6.74,9.237,6.74,17.64
			c0,31.024,11.385,43.565,9.385,45.565c-2.5,2.327-5.514,5.013-10.736,4.625c-4.5-0.334-2.294-9.771-6.723-9.833
			c-3.907-0.056-3.218,9.452-6.791,8.833C383.17,459.986,379.217,457.186,376.883,456.25z M279.008,310
			c37.001-8.281,22.75-31.75,11.5-42.5c-6.157-5.883-0.172-22.826-1.5-26c-4.5-10.75-18-19.5,14.5-54.5
			c-14.25,40.75-6.644,41.506,14.15,99.25C317.658,317.75,290.118,311.33,279.008,310z M501.379,342.768
			c-5.052-1.02-8.948-3.828-11.788-4.268c1,3.84,5.67,27.256,4,32.667c2.75-0.56,7.084-2.396,12.834-2.167
			c1.8-2.39,4.133-9.263,4-13C510.259,351.333,505.329,350.718,501.379,342.768z M350.878,414.83c-6.5,1.75-8.62,3-13.37,1.17
			c4.58-0.5,21.75-7,26.75-10.67C361.458,408.22,357.378,413.08,350.878,414.83z M405.588,369.83
			c-5.913-5.913,4.17-13.83,8.504-14.164C410.925,358.5,405.588,362.93,405.588,369.83z M436.698,409.65
			c-1.25-0.311-21.141-3.905-21.94-5.525c-0.83-1.66-0.17-2.295-0.5-4.455C418.798,402.98,435.567,409.23,436.698,409.65z
			 M373.258,374.75c1.14-5.26-8.41-27.62-8.97-28.94C369.924,352.333,381.568,371.18,373.258,374.75z M287.218,366.63
			c-3.03-0.17-6.49-0.17-9.45-0.01c-0.14,5.72-0.84,10.63-0.84,10.63c5.31,3.15,9.6,0.34,11.33,0.25
			C287.978,375.41,287.548,371.06,287.218,366.63z M488.258,320.5c2.67,0.17,2,8,2,8s10.12,2.558,12.144,0.862
			c0.856-9.029,11.905-36.19,18.259-57.523c3.805-12.775-6.049-15.339-6.049-26.339s-12.854-96.167-125.523-126.833
			C287.424,145.333,259.758,218,259.758,268.67c0,35.33,13.149,50.402,16.649,57.902s-3.969,18.458-0.479,25.678
			c1.06,2.19,1.57,5.34,1.77,8.67c2.83,0.37,6.12,0.49,9.18,0.23c-0.08-1.53-0.12-2.96-0.12-4.15c0-17,4-38.25,25.5-38.25
			c10,0,43.25,32.5,51.5,45.75c4,20.25,2.75,33-14.5,32c-10.5,6.25-38.67,10.08-51.17-7.17c-0.81,0.76-2.8,1.42-5.39,1.91
			c5.12,7.189,17.9,15.43,25.06,17.26c-8.22,2.16-26.3-7.45-31.78-16.41c-4.82,0.35-9.97,0.22-13.36-0.59
			c0.21,8.94-0.04,18.77,2.14,20c51.25,29,36.29,41.77,44.29,46.77s23.21,19.855,25.71,33.855s11,22.375,11,22.375
			s-12.666-42.086,28.334-42.086c6.978,0,12.04,7.231,16.666,4.919c22.667-11.333,27.739,9.969,28.154,32.789
			c0,0,17.596-18.789,17.596-32.789s18.251-24.412,23.751-29.412s-7.542-11.671-4.542-14.671s38.541-21,39.291-28.5
			c0.687-6.86-0.28-5.98-0.71-12.25c-6.43-3.56-13.51-7.83-14.37-8.92c-5.17,8.5-15.84,14.09-34.5,14.09c-18.67,0-39-3.67-39-19.67
			s34.95-53.12,39.66-56.83c4.75-3.75,21.253-4.178,25.463-4.178c-0.62-1.75-0.54-7.08,0-9c-9.42-0.38-17.126-1.409-17.126-10.159
			s7.666-12.333,7.666-21.333c0-12.75-12.333-17-12.333-20c0-5.311-9.181-20.584,2-34c7.5-9,14.667-5.625,14.667-13.5
			c0-3.889,2.084-6.999-10.869-10.664c-9.26-2.63-14.798-13.67-11.308-24.337c13.236,3.331,38.177,26.788,38.177,45.001
			c0,27.833,17.708,38.167,17.708,55.125C510.133,292.375,485.588,320.33,488.258,320.5z"/>
		<path fill="#FFFFFF" d="M340.378,374.75c-4.9,0-8.87-3.97-8.87-8.87c0-4.91,3.97-8.88,8.87-8.88c4.91,0,8.88,3.97,8.88,8.88
			C349.258,370.78,345.288,374.75,340.378,374.75z"/>
	</g>
	<g>
	</g>
	<g>
	</g>
	<g>
	</g>
	<g>
	</g>
	<g>
	</g>
	<g>
	</g>
	<g>
	</g>
	<g>
	</g>
	<g>
	</g>
	<g>
	</g>
	<g>
	</g>
	<g>
	</g>
	<g>
	</g>
	<g>
	</g>
	<g>
	</g>
</g>
</svg>
