<?xml version="1.0" encoding="utf-8"?>
<!-- Generator: Adobe Illustrator 16.0.0, SVG Export Plug-In . SVG Version: 6.00 Build 0)  -->
<!DOCTYPE svg PUBLIC "-//W3C//DTD SVG 1.1//EN" "http://www.w3.org/Graphics/SVG/1.1/DTD/svg11.dtd">
<svg version="1.1" xmlns="http://www.w3.org/2000/svg" xmlns:xlink="http://www.w3.org/1999/xlink" x="0px" y="0px" width="960px"
	 height="960px" viewBox="0 0 960 960" enable-background="new 0 0 960 960" xml:space="preserve">
<g id="Layer_4" display="none">
	<rect display="inline" width="960" height="960"/>
</g>
<g id="Denton_Patreus_logo">
	<g id="Layer_7">
		<polygon fill="#9E9E9E" points="508.89,678 723.76,449.55 785,545.09 709.753,609.732 683.069,581.227 509,766.318 
			334.751,581.243 308.067,609.774 232.82,545.179 294.06,449.549 		"/>
		<polyline fill="#9E9E9E" points="509,236 659.641,480.46 709.525,427.32 509,114.67 308.43,427.32 358.27,480.46 509,236 		"/>
	</g>
	<g id="Empire_bird">
		<path fill="#FFFFFF" d="M508.906,637.857l54.4-117.031c0,0,261.155-255.74,262.575-257.159
			c-1.358,0.358-110.467,24.828-110.467,24.828L505.963,438.114c0,0-320.991-154.542-322.011-155.093
			c0.853,0.854,276.209,237.619,276.209,237.619L508.906,637.857z"/>
		<g id="Layer_6">
			<path fill="#FFFFFF" d="M472.064,408.279l23.542,11.244c0,0,56.369-37.248,58.915-39.002c3.398-2.343,2.957-4.866,2.957-9.2
				c0-1.317,1.025-61.32-23.161-61.32h-24.143c-14.363,0-37.158,7.823-37.158,27.002c0.937,1.757,4.128-2.398,10.761-2.398
				c4.832,0,13.641,1.242,15.637,3.237c1.993,1.995-0.485,9.113-1.845,12.482C495.843,354.602,474.963,405.38,472.064,408.279z"/>
		</g>
	</g>
	<g>
	</g>
	<g>
	</g>
	<g>
	</g>
	<g>
	</g>
	<g>
	</g>
	<g>
	</g>
	<g>
	</g>
	<g>
	</g>
	<g>
	</g>
	<g>
	</g>
	<g>
	</g>
	<g>
	</g>
	<g>
	</g>
	<g>
	</g>
	<g>
	</g>
</g>
</svg>
