<?xml version="1.0" encoding="utf-8"?>
<!-- Generator: Adobe Illustrator 16.0.0, SVG Export Plug-In . SVG Version: 6.00 Build 0)  -->
<!DOCTYPE svg PUBLIC "-//W3C//DTD SVG 1.1//EN" "http://www.w3.org/Graphics/SVG/1.1/DTD/svg11.dtd">
<svg version="1.1" id="Layer_1" xmlns="http://www.w3.org/2000/svg" xmlns:xlink="http://www.w3.org/1999/xlink" x="0px" y="0px"
	 width="718.311px" height="717.476px" viewBox="126 147.18 718.311 717.476" enable-background="new 126 147.18 718.311 717.476"
	 xml:space="preserve">
<g id="Edmund_Mahon">
	<g id="Layer_5">
	</g>
	<polygon fill="#FFFFFF" points="249.416,629.033 472,500.771 472,147.271 	"/>
	<path fill="#FFFFFF" d="M741.86,718.55c-6.5,7.86-13.352,15.41-20.54,22.642l17.67,18.84c7.83-7.812,15.3-15.99,22.38-24.5
		L741.86,718.55z M704.44,757.03c-11.15,9.79-22.95,18.818-35.342,27.05l0.052,0.06l13.01,22.16
		c13.55-8.91,26.46-18.71,38.648-29.31L704.44,757.03z M704.44,757.03c-11.15,9.79-22.95,18.818-35.342,27.05l0.052,0.06
		l13.01,22.16c13.55-8.91,26.46-18.71,38.648-29.31L704.44,757.03z"/>
	<path fill="#FFFFFF" d="M663.08,818c-52.43,29.95-113.13,47.06-177.83,47.06c-128.21,0-240.59-67.116-304.11-168.228l22.067-11.555
		c59.14,93.38,162.743,154.383,281.453,154.383c60.52,0,117.27-16.11,166.21-44.28l0.03,0.11L663.08,818z"/>
	<path fill="#FFFFFF" d="M163.11,595.35c2.72,9.882,5.9,19.57,9.51,29.052l-23.5,8.119c-3.88-10.279-7.29-20.789-10.22-31.5
		L163.11,595.35z"/>
	<path fill="#FFFFFF" d="M151.79,529c1.01,14.9,3,29.53,5.91,43.83l-24.52,4.03c-3.12-15.602-5.34-31.57-6.35-47.82l24.94-0.04
		H151.79L151.79,529z"/>
	<path fill="#FFFFFF" d="M472,147.18v25.39C293.59,179.23,151,325.97,151,506v1.24l-25-0.63V506C126,312.11,279.79,154.1,472,147.18
		z"/>
	<path fill="#FFFFFF" d="M543.67,151.69c10.99,1.79,21.811,4.09,32.44,6.87l-7.37,24.38l-0.021,0.09
		c-9.8-2.55-19.77-4.66-29.89-6.311L543.67,151.69z"/>
	<path fill="#FFFFFF" d="M599.98,165.7c15.408,5.18,30.35,11.4,44.75,18.54l-12.69,22.34c-13.22-6.52-26.92-12.19-41.05-16.93
		l0.01-0.03v-0.01L599.98,165.7z"/>
	<path fill="#FFFFFF" d="M844.311,506c0,61.5-15.461,119.38-42.711,169.979l-22.364-13.146l0,0
		c25.02-46.8,39.074-100.053,39.074-156.833c0-123.7-67.318-231.68-167.31-289.3l13.45-21.87
		C771.94,256.87,844.311,372.99,844.311,506z"/>
	<polygon fill="#FFFFFF" points="709.649,648.715 487.28,520.082 181.14,696.832 	"/>
	<polygon fill="#FFFFFF" points="495.405,242.049 495.19,498.943 801.331,675.692 	"/>
</g>
</svg>
