<?xml version="1.0" encoding="utf-8"?>
<!-- Generator: Adobe Illustrator 16.0.0, SVG Export Plug-In . SVG Version: 6.00 Build 0)  -->
<!DOCTYPE svg PUBLIC "-//W3C//DTD SVG 1.1//EN" "http://www.w3.org/Graphics/SVG/1.1/DTD/svg11.dtd">
<svg version="1.1" id="Layer_1" xmlns="http://www.w3.org/2000/svg" xmlns:xlink="http://www.w3.org/1999/xlink" x="0px" y="0px"
	 width="929.677px" height="690.938px" viewBox="11.309 161.028 929.677 690.938"
	 enable-background="new 11.309 161.028 929.677 690.938" xml:space="preserve">
<g id="Zachary_Hudson_logo">
	<g id="Outer_ring">
		<circle fill="#FFFFFF" cx="727.194" cy="714.013" r="88.072"/>
		<g>
			<path fill="#FFFFFF" d="M198.197,334c54.229-97,157.421-161.525,275.888-161.525c118.468,0,221.66,64.525,275.889,161.525h23.657
				c-59.82-104-171.519-172.972-299.546-172.972C346.06,161.028,234.36,230,174.539,334H198.197z"/>
			<path fill="#FFFFFF" d="M787.126,534.113C764.817,687.027,633.19,804.466,474.085,804.466
				c-160.586,0-293.134-119.654-313.585-274.652l-32.306-25.706c-0.005,0.678-0.051,1.347-0.051,2.023
				c0,191.06,154.882,345.941,345.942,345.941c190.447,0,344.9-153.896,345.896-344.104L787.126,534.113z"/>
		</g>
		<polygon fill="#FFFFFF" points="477.26,199.859 489.651,238 529.757,238 497.311,262.539 509.705,301.164 477.26,277.831 
			444.813,301.525 457.208,262.478 424.762,238 464.868,238 		"/>
		<polygon fill="#FFFFFF" points="347.928,266.185 355.989,291 382.083,291 360.974,306.049 369.038,330.718 347.928,315.312 
			326.819,330.609 334.883,306.067 313.774,291 339.867,291 		"/>
		<polygon fill="#FFFFFF" points="605.004,266.185 613.066,291 639.159,291 618.05,306.049 626.113,330.718 605.004,315.312 
			583.895,330.609 591.96,306.067 570.849,291 596.942,291 		"/>
	</g>
	<g id="Inner_logo">
		<path fill="#FFFFFF" d="M477.26,356.96L330.27,475.98l146.99,260.79l145.5-261.38L477.26,356.96z M477.52,608l-22.06-85.55
			L372.47,501l83.28-20.87l21.77-84.31l21.311,84.31L582.58,501l-82.82,21.4L477.52,608z"/>
		<g>
			<polygon fill="#FFFFFF" points="314.132,501.019 295.926,468.722 321.743,448.813 86.55,398.818 146.012,465.287 			"/>
			<polygon fill="#FFFFFF" points="165.434,486.996 218.993,546.866 358.07,578.978 325.39,520.996 			"/>
			<polygon fill="#FFFFFF" points="339.613,435.028 388.75,397.131 11.309,314.712 67.13,377.11 			"/>
		</g>
		<g>
			<polygon fill="#FFFFFF" points="638.164,501.019 656.369,468.722 630.554,448.813 865.746,398.818 806.284,465.287 			"/>
			<polygon fill="#FFFFFF" points="786.863,486.996 733.303,546.866 594.226,578.978 626.906,520.996 			"/>
			<polygon fill="#FFFFFF" points="612.684,435.028 563.546,397.131 940.986,314.712 885.165,377.11 			"/>
		</g>
	</g>
</g>
</svg>
