<?xml version="1.0" encoding="utf-8"?>
<!-- Generator: Adobe Illustrator 16.0.0, SVG Export Plug-In . SVG Version: 6.00 Build 0)  -->
<!DOCTYPE svg PUBLIC "-//W3C//DTD SVG 1.1//EN" "http://www.w3.org/Graphics/SVG/1.1/DTD/svg11.dtd">
<svg version="1.1" id="Layer_1" xmlns="http://www.w3.org/2000/svg" xmlns:xlink="http://www.w3.org/1999/xlink" x="0px" y="0px"
	 width="767.188px" height="677.751px" viewBox="107.24 123 767.188 677.751" enable-background="new 107.24 123 767.188 677.751"
	 xml:space="preserve">
<g id="Lavigny-Duval_logo">
	<g id="Wreath">
		<path fill="#FFFFFF" d="M170.368,511.122c0.605-1.36,1.271-2.941,1.956-4.716c3.671-9.52,7.878-24.609,6.19-40.957
			c-2.83-27.412-21.165-47.978-21.165-47.978s-13.745,23.877-10.915,51.291c1.906,18.455,10.838,33.807,16.472,41.869
			c0.426,0.609,0.833,1.177,1.218,1.702c2.092,8.247,11.375,26.086,15.125,33.669c-1-0.61-9.66-10.58-10.28-11.18
			C151.66,518.109,126.5,498,126.5,498s-2.16,28.82,18.83,49.1c11.7,11.29,37.7,25.346,46.17,26.275
			c8.569,12.874,14.07,20.686,23.25,33.376c-22.958-9.917-63.083-30.418-63.083-30.418s4.858,28.212,30.708,44.542
			c19.73,12.45,41.713,15.333,49.563,13.063c10.63,11.22,19.882,19.481,32.472,29.643c-4.07-1.76-13.46-3.43-18.08-4.89
			c-25.3-7.99-53.664-12.857-53.664-12.857s17.119,29.849,48.167,38.334c24.586,6.72,47.276,4.271,55.62,1.07
			c12,8.149,18.377,9.963,31.327,17.013c-4.593,1.938-8.468,3.833-23.446,3.833c-30.992,0-30.744-0.526-54.833-1.166
			c0,0,23.184,24.533,57.833,25.083c42,0.667,49.907-7.21,56.446-13.34l0.01,0.01c9.93,4.48,26.145,8.936,36.335,12.705
			c-21.645,8.739-74.094,19.375-74.094,19.375s25.309,18.55,59.719,14.5c21.08-2.479,44.09-14.45,50.97-21.97
			c41.75,20.845,81.45,49.141,81.78,59.47c2.781,0,6.424-1.573,7.125-2.75c-5.17-8.67-54-47.575-85-60.2
			c0.18-10.39-2.946-21.629-20.313-37.233c-25.875-23.25-54.041-20.657-54.041-20.657S393.5,712.125,401.51,725
			c-13.72-4-24.83-8.12-37.76-14.16c0.91-10.13-2.68-22.729-12.16-37.858c-18.399-29.352-49.54-31.12-49.54-31.12
			s8.2,32.89,27.521,54.76l0.64,1.28c-9.25-4.94-24.1-11.75-33.05-17.512c2.52-9.01,1.38-26.51-4.34-41.619
			c-11.41-30.101-37.986-38.438-37.986-38.438s3.006,31.247,12.407,56.057c0.36,0.961,0.74,1.9,1.12,2.83
			c-11.406-9.192-21.323-18.372-31.922-29.031c4.73-7.67,7.623-22.599,5.942-38.509c-3.21-30.409-25.463-37.596-28.213-38.179
			c0.407,3.594,5,43.416,4.333,48.666c-9.63-12.27-14.66-18.287-21.17-31.427c7.31-4.971,12.055-21.688,12.1-40.2
			c0.07-28.54-9.764-48.707-9.764-48.707s-9.095,11.356-14.005,34.906c-1.16,5.54,0.258,23.091-0.102,28.081
			c-0.02-0.052-0.03-0.102-0.05-0.15C178.25,531.75,174.083,525.25,170.368,511.122z"/>
		<path fill="#FFFFFF" d="M800.694,511.121c-0.605-1.359-1.271-2.94-1.956-4.716c-3.672-9.52-7.878-24.609-6.189-40.957
			c2.83-27.412,21.164-47.978,21.164-47.978s13.745,23.877,10.914,51.291c-1.905,18.454-10.838,33.807-16.472,41.868
			c-0.428,0.609-0.833,1.178-1.219,1.702c-2.092,8.247-11.375,26.086-15.125,33.669c1-0.61,9.66-10.58,10.279-11.18
			c17.312-16.711,42.472-36.82,42.472-36.82s2.159,28.82-18.83,49.1c-11.699,11.29-37.699,25.346-46.171,26.275
			c-8.567,12.874-14.069,20.686-23.25,33.376c22.959-9.917,63.083-30.418,63.083-30.418s-4.857,28.212-30.708,44.542
			c-19.729,12.45-41.713,15.333-49.563,13.063c-10.631,11.22-19.883,19.481-32.473,29.643c4.069-1.76,13.46-3.43,18.079-4.89
			c25.302-7.99,53.664-12.857,53.664-12.857s-17.118,29.849-48.168,38.334c-24.586,6.72-47.274,4.271-55.619,1.07
			c-12,8.149-18.377,9.963-31.325,17.013c4.592,1.938,8.467,3.833,23.444,3.833c30.992,0,30.744-0.526,54.834-1.166
			c0,0-23.184,24.533-57.834,25.083c-42,0.667-49.905-7.21-56.444-13.34l-0.012,0.01c-9.931,4.48-26.146,8.936-36.335,12.705
			c21.646,8.739,74.095,19.375,74.095,19.375s-25.31,18.55-59.72,14.5c-21.08-2.479-44.09-14.45-50.971-21.97
			c-41.75,20.845-81.449,49.141-81.779,59.47c-2.78,0-6.424-1.573-7.125-2.75c5.17-8.67,54-47.575,85-60.2
			c-0.18-10.39,2.945-21.629,20.313-37.233c25.875-23.25,54.041-20.657,54.041-20.657s-27.228,32.215-35.237,45.09
			c13.721-4,24.83-8.12,37.76-14.16c-0.909-10.13,2.681-22.729,12.16-37.858c18.4-29.352,49.54-31.12,49.54-31.12
			s-8.2,32.89-27.521,54.76l-0.641,1.28c9.25-4.94,24.102-11.75,33.051-17.512c-2.521-9.01-1.381-26.51,4.34-41.619
			c11.41-30.101,37.985-38.438,37.985-38.438s-3.006,31.247-12.405,56.057c-0.359,0.961-0.74,1.9-1.119,2.83
			c11.406-9.192,21.322-18.372,31.922-29.031c-4.73-7.67-7.623-22.599-5.942-38.509c3.21-30.409,25.463-37.596,28.213-38.179
			c-0.406,3.594-5,43.416-4.333,48.666c9.631-12.27,14.66-18.287,21.17-31.427c-7.311-4.971-12.055-21.688-12.1-40.2
			c-0.07-28.54,9.764-48.706,9.764-48.706s9.095,11.355,14.005,34.905c1.159,5.54-0.259,23.091,0.102,28.081
			c0.021-0.051,0.031-0.102,0.051-0.15C792.813,531.75,796.979,525.25,800.694,511.121z"/>
	</g>
	<g id="Crown">
		<path fill="#FFFFFF" d="M491.084,123L491.084,123c3.75,9.625,20.959,29.25,36.021,29c-16.521,24.833-11.438,42.5,3.722,42.5
			s32.091-14,25.716-35.625l36.458-10.208L546.168,251H491h-55l-46.833-102.333l36.458,10.208
			C419.25,180.5,436.182,194.5,451.341,194.5s20.243-17.667,3.722-42.5c15.063,0.25,32.188-19.375,35.938-29l0,0H491.084z"/>
	</g>
	<g id="Empire_bird">
		<path fill="#FFFFFF" d="M495.602,687.871l65.017-139.867c0,0,312.112-305.641,313.81-307.337
			c-1.623,0.429-132.021,29.672-132.021,29.672L492.083,449.153c0,0-383.624-184.698-384.843-185.355
			c1.02,1.02,330.104,283.983,330.104,283.983L495.602,687.871z"/>
		<g id="Layer_6">
			<path fill="#FFFFFF" d="M451.57,413.497l28.137,13.438c0,0,67.367-44.515,70.41-46.612c4.061-2.799,3.535-5.835,3.535-11.015
				c0-1.574,1.224-73.306-27.683-73.306h-28.854c-17.165,0-44.408,9.369-44.408,32.292c1.119,2.099,4.934-2.857,12.859-2.857
				c5.775,0,16.304,1.49,18.688,3.874c2.383,2.384-0.581,10.893-2.204,14.919C479.989,349.343,455.035,410.032,451.57,413.497z"/>
		</g>
	</g>
</g>
</svg>
