<?xml version="1.0" encoding="utf-8"?>
<!-- Generator: Adobe Illustrator 16.0.0, SVG Export Plug-In . SVG Version: 6.00 Build 0)  -->
<!DOCTYPE svg PUBLIC "-//W3C//DTD SVG 1.1//EN" "http://www.w3.org/Graphics/SVG/1.1/DTD/svg11.dtd">
<svg version="1.1" id="CQC_logo" xmlns="http://www.w3.org/2000/svg" xmlns:xlink="http://www.w3.org/1999/xlink" x="0px" y="0px"
	 width="727px" height="316.893px" viewBox="0 0 727 316.893" enable-background="new 0 0 727 316.893" xml:space="preserve">
<g id="CQC">
	<path fill="#FFFFFF" d="M43,97v36.25C43,147.5,49.5,155,63,155h165v41H60c-26.333,0-60-17.875-60-63V97V63C0,17.875,33.667,0,60,0
		h168v41H63c-13.5,0-20,7.5-20,21.75V97z"/>
	<path fill="#FFFFFF" d="M541,97v36.25c0,14.25,6.5,21.75,20,21.75h165v41H558c-26.334,0-60-17.875-60-63V97V63
		c0-45.125,33.666-63,60-63h168v41H561c-13.5,0-20,7.5-20,21.75V97z"/>
	<path fill="#FFFFFF" d="M370.04,155l63.74,39.66c-4.46,0.87-9.37,1.34-14.78,1.34H248v-54.33L259.42,155H370.04z"/>
	<path fill="#FFFFFF" d="M477,63v70c0,5.13-0.4,12.188-2.08,19.74L435,127.95V63c0-12.38-6.12-22-16-22H259.42L248,54.33V0h171
		C471.67,0,477,44.33,477,63z"/>
	<polygon fill="#FFFFFF" points="480.9,212 295.021,97 365.598,97 551.479,212 	"/>
</g>
<g id="Stars_and_stripes">
	<g>
		<path fill="#FFFFFF" d="M663.932,276H509.38c-7.853,5.438-16.023,10.449-24.479,15h188.298L663.932,276z"/>
		<path fill="#FFFFFF" d="M439.573,310H684.93l-9.265-15h-198.53C465.118,300.945,452.571,305.982,439.573,310z"/>
		<path fill="#FFFFFF" d="M218.551,276H64l-9.265,15h188.297C234.577,286.449,226.404,281.439,218.551,276z"/>
		<path fill="#FFFFFF" d="M43,310h245.357c-12.997-4.02-25.545-9.057-37.563-15H52.265L43,310z"/>
	</g>
	<polygon fill="#FFFFFF" points="358.643,298.673 340.967,294.104 358.703,289.66 363.341,271.702 367.879,289.66 385.715,294.104 
		368.076,298.661 363.341,316.893 	"/>
	<polygon fill="#FFFFFF" points="305.444,292.062 294.418,289.21 305.482,286.438 308.376,275.236 311.207,286.438 322.333,289.21 
		311.33,292.055 308.376,303.427 	"/>
	<polygon fill="#FFFFFF" points="415.066,292.062 404.04,289.21 415.104,286.438 417.998,275.236 420.828,286.438 431.955,289.21 
		420.951,292.055 417.998,303.427 	"/>
</g>
<g id="CHAMPIONSHIP">
	<g>
		<path fill="#FFFFFF" d="M69.682,222.414c0,1.543-0.762,2.313-2.285,2.313H44.223c-5.625,0-8.438,1.123-8.438,3.369v17.666
			c0,2.656,3.115,3.984,9.346,3.984H67.25c1.582,0,2.373,0.889,2.373,2.666c0,1.797-0.791,2.693-2.373,2.693H45.131
			c-2.988,0-5.137-0.115-6.445-0.352c-1.426-0.273-2.911-0.801-4.453-1.582c-1.758-0.918-2.988-1.875-3.691-2.871
			c-0.84-1.133-1.26-2.607-1.26-4.424v-17.754c0-2.246,1.025-4.16,3.076-5.742c1.718-1.309,3.809-2.188,6.27-2.637
			c0.625-0.1,1.387-0.178,2.285-0.234c0.898-0.059,1.963-0.088,3.193-0.088h23.291C68.92,219.426,69.682,220.422,69.682,222.414z"/>
		<path fill="#FFFFFF" d="M133.201,252.795c0,1.543-0.772,2.313-2.314,2.313c-1.484,0-2.413-0.059-2.783-0.176
			c-0.898-0.254-1.348-0.967-1.348-2.139v-12.688H95.232v12.688c0,1.543-0.762,2.313-2.285,2.313c-0.664,0-1.23-0.015-1.699-0.044
			c-0.469-0.027-0.84-0.063-1.113-0.103c-0.938-0.293-1.406-1.018-1.406-2.168v-31.084c0-1.152,0.458-1.865,1.377-2.141
			c0.215-0.038,0.557-0.071,1.025-0.103c0.468-0.03,1.074-0.044,1.816-0.044c1.523,0,2.285,0.762,2.285,2.285v13.037h31.523v-13.037
			c0-1.113,0.458-1.816,1.377-2.109c0.371-0.117,1.289-0.176,2.754-0.176c1.542,0,2.314,0.762,2.314,2.285L133.201,252.795
			L133.201,252.795z"/>
		<path fill="#FFFFFF" d="M200.588,252.678c0,0.898-0.303,1.65-0.908,2.256c-0.605,0.606-1.358,0.908-2.256,0.908
			c-1.25,0-2.266-0.586-3.047-1.758l-5.771-8.379h-27.422l-5.771,8.379c-0.625,0.918-1.299,1.377-2.021,1.377
			c-0.723,0-1.417-0.234-2.08-0.703c-0.743-0.508-1.113-1.104-1.113-1.787c0-0.215,0.059-0.41,0.176-0.586l20.566-31.436
			c0.839-1.289,2.285-1.936,4.336-1.936c1.523,0,2.539,0.43,3.047,1.289c0.039,0.059,0.083,0.142,0.132,0.249
			c0.048,0.107,0.122,0.239,0.22,0.396l21.797,30.85C200.548,251.936,200.588,252.229,200.588,252.678z M184.797,240.344
			l-9.873-14.561l-9.932,14.561H184.797z"/>
		<path fill="#FFFFFF" d="M277.584,252.795c0,1.133-0.469,1.846-1.406,2.139c-0.391,0.117-1.329,0.176-2.813,0.176
			c-1.523,0-2.285-0.771-2.285-2.313V229.71l-19.189,23.672c-1.016,1.25-2.393,1.875-4.131,1.875c-1.758,0-3.145-0.625-4.16-1.875
			l-19.541-23.789v23.203c0,1.543-0.762,2.313-2.285,2.313c-1.504,0-2.442-0.059-2.813-0.176c-0.938-0.293-1.406-1.006-1.406-2.139
			v-29.941c0-2.207,1.211-3.311,3.633-3.311c1.582,0,2.852,0.564,3.809,1.699l22.852,27.041l22.324-27.07
			c0.938-1.133,2.168-1.699,3.691-1.699c2.48,0,3.721,1.201,3.721,3.604L277.584,252.795L277.584,252.795z"/>
		<path fill="#FFFFFF" d="M339.463,232.902c0,3.574-1.777,6.152-5.332,7.734c-2.754,1.152-6.075,1.729-9.961,1.729h-22.588v10.43
			c0,1.113-0.469,1.814-1.406,2.107c-0.254,0.139-1.189,0.205-2.813,0.205c-1.523,0-2.285-0.771-2.285-2.313v-31.084
			c0-1.523,0.762-2.285,2.285-2.285h27.1c3.672,0,6.787,0.508,9.346,1.523c3.771,1.404,5.654,3.545,5.654,6.416V232.902z
			 M333.018,232.679v-4.853c0-2.064-2.832-3.1-8.494-3.1h-22.939v12.275h22.969C330.195,237.004,333.018,235.563,333.018,232.679z"
			/>
		<path fill="#FFFFFF" d="M363.403,252.795c0,1.543-0.764,2.313-2.285,2.313c-0.664,0-1.23-0.015-1.699-0.044
			c-0.469-0.027-0.84-0.063-1.113-0.103c-0.938-0.293-1.404-1.018-1.404-2.168V221.71c0-1.152,0.458-1.865,1.377-2.141
			c0.215-0.037,0.557-0.071,1.023-0.103s1.074-0.044,1.816-0.044c1.521,0,2.285,0.762,2.285,2.285V252.795z"/>
		<path fill="#FFFFFF" d="M425.047,245.529c0,6.389-5.518,9.58-16.553,9.58h-10.137c-4.475,0-7.998-0.564-10.576-1.697
			c-3.945-1.604-5.918-4.221-5.918-7.854v-16.465c0-6.445,5.498-9.668,16.494-9.668h10.137c5.137,0,8.76,0.449,10.869,1.348
			c3.789,1.467,5.684,4.238,5.684,8.32V245.529z M418.543,245.383V229.24c0-3.01-3.295-4.514-9.883-4.514h-10.322
			c-6.646,0-9.971,1.504-9.971,4.514v16.143c0,2.91,3.324,4.365,9.971,4.365h10.354C415.26,249.748,418.543,248.293,418.543,245.383
			z"/>
		<path fill="#FFFFFF" d="M487.776,251.271c0,2.715-1.191,4.072-3.574,4.072c-1.094,0-2.334-0.576-3.722-1.729L450.1,227.803v24.99
			c0,1.15-0.469,1.875-1.404,2.168c-0.273,0.039-0.646,0.073-1.113,0.103c-0.468,0.03-1.035,0.044-1.699,0.044
			c-1.521,0-2.285-0.771-2.285-2.313v-29.768c0-2.576,1.114-3.865,3.344-3.865c1.406,0,2.854,0.625,4.34,1.875l29.994,25.518V221.71
			c0-1.133,0.467-1.846,1.397-2.139c0.272-0.039,0.642-0.073,1.108-0.104c0.466-0.03,1.028-0.044,1.69-0.044
			c1.535,0,2.305,0.762,2.305,2.285V251.271L487.776,251.271z"/>
		<path fill="#FFFFFF" d="M545.729,246.262c0,1.914-0.303,3.408-0.906,4.482c-1.621,2.908-6.523,4.363-14.707,4.363h-22.529
			c-1.504,0-2.256-0.771-2.256-2.313c0-1.055,0.117-1.787,0.352-2.197c0.332-0.564,0.969-0.85,1.904-0.85h22.529
			c6.073,0,9.109-1.123,9.109-3.369v-3.076c0-2.188-2.938-3.379-8.816-3.574l-10.813-0.352c-0.508-0.021-1.226-0.055-2.151-0.104
			c-0.929-0.049-2.065-0.122-3.413-0.22c-2.346-0.272-4.355-1.045-6.035-2.313c-1.836-1.405-2.754-3.253-2.754-5.536v-2.695
			c0-4.16,2.305-6.904,6.914-8.232c2.207-0.564,6.25-0.85,12.129-0.85c1.521,0,2.285,0.996,2.285,2.988
			c0,1.15-0.459,1.875-1.377,2.168c-0.139,0.078-1.064,0.117-2.783,0.117c-7.109,0-10.664,1.25-10.664,3.75v2.488
			c0,1.543,1.328,2.549,3.982,3.02c0.51,0.098,1.245,0.171,2.214,0.22c0.967,0.049,2.151,0.073,3.56,0.073h8.701
			c4.16,0,7.439,0.537,9.844,1.609c3.789,1.563,5.686,3.967,5.686,7.207v3.194L545.729,246.262L545.729,246.262z"/>
		<path fill="#FFFFFF" d="M607.579,252.795c0,1.543-0.771,2.313-2.314,2.313c-1.482,0-2.412-0.059-2.781-0.176
			c-0.898-0.254-1.35-0.967-1.35-2.139v-12.688H569.61v12.688c0,1.543-0.764,2.313-2.285,2.313c-0.664,0-1.23-0.015-1.699-0.044
			c-0.469-0.027-0.84-0.063-1.113-0.103c-0.938-0.293-1.404-1.018-1.404-2.168v-31.084c0-1.152,0.459-1.865,1.377-2.141
			c0.215-0.038,0.557-0.071,1.023-0.103c0.47-0.03,1.074-0.044,1.816-0.044c1.521,0,2.285,0.762,2.285,2.285v13.037h31.521v-13.037
			c0-1.113,0.459-1.816,1.377-2.109c0.371-0.117,1.289-0.176,2.754-0.176c1.543,0,2.314,0.762,2.314,2.285L607.579,252.795
			L607.579,252.795z"/>
		<path fill="#FFFFFF" d="M632.604,252.795c0,1.543-0.763,2.313-2.284,2.313c-0.664,0-1.23-0.015-1.699-0.044
			c-0.469-0.027-0.84-0.063-1.113-0.103c-0.938-0.293-1.405-1.018-1.405-2.168V221.71c0-1.152,0.459-1.865,1.378-2.141
			c0.215-0.037,0.557-0.071,1.023-0.103s1.074-0.044,1.816-0.044c1.521,0,2.284,0.762,2.284,2.285V252.795L632.604,252.795z"/>
		<path fill="#FFFFFF" d="M694.481,232.902c0,3.574-1.777,6.152-5.332,7.734c-2.755,1.152-6.074,1.729-9.961,1.729H656.6v10.43
			c0,1.113-0.469,1.814-1.404,2.107c-0.254,0.139-1.191,0.205-2.813,0.205c-1.521,0-2.285-0.771-2.285-2.313v-31.084
			c0-1.523,0.764-2.285,2.285-2.285h27.102c3.672,0,6.785,0.508,9.346,1.523c3.77,1.404,5.654,3.545,5.654,6.416v5.536H694.481z
			 M688.036,232.679v-4.853c0-2.064-2.832-3.1-8.496-3.1h-22.939v12.275h22.971C685.214,237.004,688.036,235.563,688.036,232.679z"
			/>
	</g>
</g>
</svg>
