<?xml version="1.0" encoding="utf-8"?>
<!-- Generator: Adobe Illustrator 16.0.0, SVG Export Plug-In . SVG Version: 6.00 Build 0)  -->
<!DOCTYPE svg PUBLIC "-//W3C//DTD SVG 1.1//EN" "http://www.w3.org/Graphics/SVG/1.1/DTD/svg11.dtd">
<svg version="1.1" xmlns="http://www.w3.org/2000/svg" xmlns:xlink="http://www.w3.org/1999/xlink" x="0px" y="0px"
	 width="391.001px" height="444.648px" viewBox="0 0 391.001 444.648" enable-background="new 0 0 391.001 444.648"
	 xml:space="preserve">
<g id="Layer_2">
	<path fill="#6DCDD5" d="M195.5,69.334c69.68,0,126.167,56.487,126.167,126.167c0,69.679-56.487,126.167-126.167,126.167
		S69.334,265.18,69.334,195.5C69.334,125.821,125.821,69.334,195.5,69.334 M195.5,57.334c-36.906,0-71.602,14.372-97.698,40.468
		c-26.097,26.096-40.468,60.792-40.468,97.698s14.372,71.602,40.468,97.698c26.096,26.097,60.793,40.469,97.698,40.469
		s71.602-14.372,97.698-40.469c26.097-26.096,40.468-60.792,40.468-97.698s-14.372-71.602-40.468-97.698
		C267.103,71.706,232.406,57.334,195.5,57.334L195.5,57.334z"/>
	<g>
		<path fill="#91F2F2" d="M195.5,44c83.671,0,151.5,67.829,151.5,151.5s-67.829,151.5-151.5,151.5S44,279.172,44,195.5
			S111.829,44,195.5,44 M195.5,31c-22.202,0-43.746,4.351-64.035,12.933c-19.59,8.286-37.181,20.145-52.284,35.249
			c-15.104,15.103-26.962,32.694-35.249,52.284C35.351,151.754,31,173.299,31,195.5s4.351,43.747,12.933,64.035
			c8.286,19.591,20.145,37.182,35.249,52.285c15.103,15.103,32.694,26.962,52.284,35.248c20.289,8.581,41.833,12.933,64.035,12.933
			s43.746-4.352,64.035-12.933c19.59-8.286,37.181-20.146,52.284-35.248c15.104-15.104,26.962-32.694,35.249-52.285
			c8.582-20.288,12.933-41.833,12.933-64.035s-4.351-43.746-12.933-64.035c-8.286-19.59-20.145-37.181-35.249-52.284
			c-15.103-15.104-32.694-26.962-52.284-35.249C239.247,35.351,217.702,31,195.5,31L195.5,31z"/>
	</g>
	<g>
		<path fill="#DFF2F5" d="M195.5,20c96.926,0,175.5,78.574,175.5,175.5s-78.574,175.5-175.5,175.5S20,292.427,20,195.5
			S98.574,20,195.5,20 M195.5,0c-26.384,0-51.989,5.172-76.104,15.372c-23.283,9.848-44.188,23.941-62.136,41.889
			c-17.948,17.948-32.042,38.854-41.889,62.136C5.172,143.512,0,169.117,0,195.5c0,26.383,5.172,51.989,15.372,76.104
			c9.848,23.282,23.941,44.188,41.889,62.136c17.948,17.948,38.854,32.041,62.136,41.889c24.115,10.2,49.72,15.372,76.104,15.372
			s51.989-5.172,76.104-15.372c23.283-9.848,44.188-23.94,62.136-41.889c17.948-17.948,32.042-38.854,41.889-62.136
			c10.2-24.115,15.372-49.721,15.372-76.104c0-26.384-5.172-51.989-15.372-76.104c-9.848-23.283-23.941-44.188-41.889-62.136
			c-17.948-17.948-38.854-32.042-62.136-41.889C247.489,5.172,221.884,0,195.5,0L195.5,0z"/>
	</g>
	<g>
		<path fill="#D73D0B" d="M36.498,343.385l-23.474,21.76c2.058,2.21,4.145,4.398,6.29,6.543
			c6.228,6.228,12.744,12.077,19.516,17.566l19.892-25.083C50.834,357.768,43.412,350.815,36.498,343.385z"/>
	</g>
	<g>
		<path fill="#D73D0B" d="M63.236,367.715l-19.538,25.354c2.396,1.837,4.817,3.648,7.287,5.408
			c7.175,5.108,14.571,9.796,22.16,14.086L88.6,384.526C79.76,379.52,71.288,373.896,63.236,367.715z"/>
	</g>
	<g>
		<path fill="#D73D0B" d="M93.64,387.271L78.58,415.516c2.667,1.414,5.355,2.799,8.083,4.125c7.923,3.846,15.994,7.242,24.19,10.213
			l10.589-30.211C111.894,396.172,102.606,392.031,93.64,387.271z"/>
	</g>
	<g>
		<path fill="#D73D0B" d="M126.868,401.514l-10.166,30.352c2.865,0.951,5.746,1.871,8.655,2.726
			c8.451,2.479,16.975,4.489,25.55,6.058l5.43-31.549C146.345,407.262,136.5,404.719,126.868,401.514z"/>
	</g>
	<g>
		<path fill="#D73D0B" d="M161.998,410.045l-4.989,31.617c2.983,0.463,5.977,0.893,8.987,1.252
			c8.745,1.043,17.484,1.611,26.201,1.734l0.12-32.012C182.159,412.482,172.028,411.607,161.998,410.045z"/>
	</g>
	<g>
		<path fill="#D73D0B" d="M198.056,412.631l0.325,32.006c3.02-0.039,6.042-0.111,9.071-0.257c8.796-0.423,17.509-1.312,26.125-2.636
			l-5.192-31.588C218.342,411.688,208.207,412.506,198.056,412.631z"/>
	</g>
	<g>
		<path fill="#D73D0B" d="M234.044,409.197l5.63,31.509c2.972-0.54,5.94-1.112,8.903-1.759c8.604-1.877,17.049-4.197,25.326-6.934
			l-10.361-30.289C253.893,404.902,244.034,407.391,234.044,409.197z"/>
	</g>
	<g>
		<path fill="#D73D0B" d="M268.964,399.842l10.779,30.137c2.841-1.025,5.674-2.082,8.488-3.211
			c8.173-3.279,16.116-6.968,23.824-11.039l-15.243-28.15C287.825,392.313,278.515,396.402,268.964,399.842z"/>
	</g>
	<g>
		<path fill="#D73D0B" d="M301.848,384.82l15.63,27.932c2.631-1.482,5.249-2.994,7.838-4.574c7.515-4.59,14.736-9.545,21.662-14.839
			l-19.702-25.231C319.198,374.268,310.696,379.845,301.848,384.82z"/>
	</g>
	<g>
		<path fill="#D73D0B" d="M331.784,364.553l20.047,24.951c2.35-1.898,4.68-3.823,6.971-5.811c6.649-5.773,12.948-11.857,18.9-18.228
			l-23.615-21.612C347.142,351.268,339.683,358.178,331.784,364.553z"/>
	</g>
</g>
<g id="Layer_5">
	<polygon fill="#D6F2FA" points="257.117,150.111 204,119.445 195.5,114.537 187,119.445 133.884,150.111 125.384,155.019 
		125.384,164.834 125.384,226.167 125.384,235.981 133.884,240.89 187,271.557 190.75,273.722 190.75,254.092 142.384,226.167 
		142.384,164.834 195.5,134.167 248.617,164.834 248.617,226.167 200.25,254.092 200.25,273.722 204,271.557 257.117,240.89 
		265.617,235.981 265.617,226.167 265.617,164.834 265.617,155.019 	"/>
</g>
</svg>
