<?xml version="1.0" encoding="utf-8"?>
<!-- Generator: Adobe Illustrator 16.0.0, SVG Export Plug-In . SVG Version: 6.00 Build 0)  -->
<!DOCTYPE svg PUBLIC "-//W3C//DTD SVG 1.1//EN" "http://www.w3.org/Graphics/SVG/1.1/DTD/svg11.dtd">
<svg version="1.1" id="Layer_1" xmlns="http://www.w3.org/2000/svg" xmlns:xlink="http://www.w3.org/1999/xlink" x="0px" y="0px"
	 width="1784.559px" height="1671.892px" viewBox="106.04 165.532 1784.559 1671.892"
	 enable-background="new 106.04 165.532 1784.559 1671.892" xml:space="preserve">
<g>
	<path fill="#F39200" d="M777.6,301.333c24.801-0.8,42.667,10.133,61.601,17.066c112,41.333,223.2,84.267,334.934,125.333
		c38.399,14.133,79.733,13.6,119.733,15.733c56.533,2.934,109.333,19.467,163.199,33.6c7.734,1.867,13.867,6.667,19.467,12.8
		c63.2,71.733,126.667,143.2,189.867,214.667c27.199,30.667,44,68,64.8,102.667c51.2,85.066,100.267,170.934,150.667,256.267
		c9.066,15.2,11.467,28.533,5.333,46.667c-30.667,93.866-59.733,188.533-89.067,282.933c-8.533,26.934-35.199,35.2-53.333,52
		c-18.667,17.067-41.6,29.334-59.466,47.2c-34.4,33.867-78.667,28.533-120,33.334C1500,1549.066,1434.133,1552,1368.8,1560
		c-35.2,4.267-66.667,23.2-99.733,36.267c-98.133,38.934-196.267,77.867-293.6,118.934c-32,13.333-58.4-1.867-85.867-8.8
		c-87.467-22.4-174.133-47.467-261.066-71.2c-15.733-4.267-26.133-11.733-32.533-28c-50.4-126.4-121.6-241.334-192.8-356.533
		c-35.467-57.334-67.467-116.533-101.601-174.4c-9.866-16.8-13.066-35.467-14.667-54.133c-8.533-89.334-17.6-178.4-29.333-267.2
		c-1.867-14.4,0.267-28.267,7.466-41.867c59.467-111.733,118.667-223.733,177.334-336c8.8-17.067,21.066-26.667,39.732-29.333
		c49.334-7.467,98.4-15.467,147.734-23.2c45.066-7.2,89.866-14.4,134.933-21.333C769.6,302.133,775.467,301.6,777.6,301.333z
		 M938.934,1664.267c12.8,0.8,19.733-1.333,26.666-4c89.867-36,180.268-70.667,269.601-108.533
		c70.399-29.867,141.333-52.267,219.2-53.6c54.666-1.067,109.333-9.601,164.267-14.4c7.466-0.8,13.866-3.2,20-7.733
		c32-24.8,64-49.601,96.267-74.134c8.267-6.399,13.333-14.133,16.533-24.533c25.6-82.666,50.934-165.6,78.4-247.733
		c5.6-16.8,2.666-28.533-5.334-42.399c-43.467-73.601-86.4-147.2-129.6-220.801c-21.6-36.8-40-76.267-66.934-108.8
		c-57.333-68.8-118.4-133.6-177.6-200.267c-8.267-9.333-17.867-14.933-30.4-18.933c-58.4-18.667-118.4-24-178.934-29.067
		c-28.267-2.399-57.333-4-85.066-14.666C1037.867,449.333,919.2,405.6,800.8,361.6c-10.133-3.733-20.267-4.8-31.733-3.2
		c-82.666,13.067-165.6,25.067-248.267,38.133c-14.667,2.4-29.866,4-38.399,20.267C428,521.333,372.8,625.601,317.867,729.866
		c-3.467,6.4-6.134,13.067-5.334,20.801c9.334,85.6,18.134,170.933,28,256.533c1.867,15.467,1.066,31.467,9.867,46.4
		c30.133,51.199,59.467,102.666,89.066,154.133C496.267,1305.866,564,1397.866,607.2,1504c8.533,20.8,18.399,41.066,27.2,61.6
		c5.066,11.733,12.267,19.2,26.133,22.934c66.4,17.333,132.267,36.533,198.134,54.667
		C886.934,1650.667,915.467,1658.134,938.934,1664.267z"/>
	<path fill="#F39200" d="M229.867,1710.134c-26.667-2.4-52.533-18.667-81.333-25.334c-29.333-6.934-38.4-24-41.333-53.866
		c-4.8-48.534,5.333-91.2,29.6-132.267c9.867-16.801,17.867-34.4,20-54.667c1.867-17.866,12-28.8,31.733-32.8
		c30.4-6.4,59.733-16.8,89.6-24.8c6.933-1.867,15.2-3.733,21.333-1.334c32.8,13.334,67.2,25.334,93.333,49.334
		c30.934,28.267,57.601,61.066,86.4,91.733c14.133,15.199,16.8,29.866,5.066,48.8c-14.934,24-26.934,49.6-40,74.399
		c-4.533,8.801-10.934,15.2-21.066,17.334c-58.934,14.133-117.867,28.267-177.067,42.133
		C242.133,1709.866,237.6,1709.6,229.867,1710.134z M286.4,1440c-24.267,6.667-47.2,12.8-69.867,19.467
		c-5.066,1.333-8.533,5.333-9.6,10.933c-6.4,27.2-19.733,51.467-33.333,75.2c-14.667,25.334-10.934,51.733-10.934,78.134
		c0,3.2,1.333,9.066,3.467,9.6c26.933,8,50.933,28.533,81.867,21.066c44.267-10.666,88.267-21.333,132.533-31.466
		c17.6-4,50.4-46.667,49.334-64.8c-0.268-5.601-3.467-9.334-6.934-13.067c-20-21.866-38.134-45.866-60.533-65.066
		C340.8,1460.533,313.333,1449.866,286.4,1440z"/>
	<path fill="#F39200" d="M1530.667,264.8c11.2,35.2-16,63.2-32.8,94.4c-5.334,9.866-16.268,13.6-27.467,15.2
		c-25.867,3.467-51.2,9.067-75.467,17.867c-20.533,7.467-39.2,6.667-57.066-7.467c-12.533-9.866-25.867-18.667-39.733-26.4
		c-18.934-10.4-24.534-25.6-20.267-45.333c5.6-26.933,12.533-53.333,17.6-80.267c3.467-17.6,15.2-25.333,30.4-30.133
		c22.934-7.2,45.066-15.2,64.8-29.333c23.2-16.8,46.134-1.6,69.066,0.8c10.667,1.067,21.333,4.534,31.2,8.534
		C1529.6,197.867,1530.4,199.733,1530.667,264.8z M1478.4,264.533c-0.801-32.8-1.066-32.8-32.533-40
		c-18.934-4.267-36.533-4.533-53.334,8.8c-7.733,6.133-18.4,8-27.199,12.533c-7.467,3.733-19.467,3.467-20.801,13.333
		c-2.399,18.667-12.8,35.733-9.6,55.2c0.267,1.867,1.866,4,3.467,5.333c16.8,12.8,32.8,26.4,56.533,16
		c11.733-5.067,24.8-8,37.333-10.667C1464.533,318.133,1479.2,299.2,1478.4,264.533z"/>
	<path fill="#F39200" d="M1637.334,1615.2c30.666,9.333,67.466,19.467,103.732,31.733c9.601,3.2,15.2,13.066,15.2,24.533
		c0,8-1.333,16.533,1.067,23.733c16.8,51.733-16,86.4-41.601,123.2c-11.2,16-27.2,23.733-47.466,16
		c-3.201-1.333-7.201-2.4-10.667-1.867c-46.4,5.601-74.4-23.733-102.4-53.333c-5.333-5.6-8.8-11.2-8.533-19.2
		c2.134-51.733,11.2-100.533,57.066-133.6C1612,1620.267,1620.267,1614.934,1637.334,1615.2z M1704.533,1716.8
		c4.267-18.934-3.199-30.4-24.267-33.333c-10.667-1.333-20.8-5.867-30.933-9.067c-8.268-2.399-15.467-1.066-22.667,3.467
		c-29.601,19.467-29.333,76.801,1.866,92.801c15.467,8,36.801,17.6,50.667,4C1693.6,1760.8,1708.8,1742.667,1704.533,1716.8z"/>
	<path fill="#F39200" d="M1027.467,1414.667c-244.267-1.867-419.2-184.267-420-420.533
		c-0.8-216.801,182.934-411.733,419.467-407.467c224.533,4,412.267,169.866,413.333,425.066
		C1441.334,1222.934,1261.333,1417.333,1027.467,1414.667z M1385.867,1011.2c1.066-218.934-166.667-366.934-358.934-370.667
		c-193.334-4-367.467,165.333-365.601,353.601c1.867,202.666,156,369.333,372,367.732
		C1228.267,1360.267,1389.334,1193.066,1385.867,1011.2z"/>
	<path fill="#F39200" d="M1605.066,1164.267c-56.266,5.867-87.199-33.333-82.133-74.4c3.2-25.866,18.934-44.8,45.066-52.533
		c21.066-6.133,42.667-8,64.533-7.199c28,1.066,51.734,19.732,58.667,46.399c7.733,29.867-4.267,61.867-28.533,76
		C1644.267,1163.2,1624.533,1165.601,1605.066,1164.267z M1602.4,1108.533c9.6,0,16,0.267,22.666,0
		c8-0.533,14.667-4.533,14.134-13.066c-0.533-8.267-7.2-12.533-15.467-12c-7.2,0.533-14.399,1.333-21.333,3.733
		c-9.066,2.934-26.4-3.2-24.533,13.066C1579.733,1114.667,1595.733,1106.4,1602.4,1108.533z"/>
	<path fill="#F39200" d="M1028.8,1234.4c-131.467,8.533-240.533-101.601-238.933-229.334
		c1.866-141.066,95.466-234.133,229.066-238.399c125.333-4,240.8,93.866,244.267,230.133
		C1266.667,1116.267,1163.733,1241.333,1028.8,1234.4z M1026.133,821.066c-101.6-3.467-181.866,76.267-183.199,187.733
		c-1.066,75.467,77.6,172,176.8,174.4c104.533,2.399,189.6-86.134,189.866-181.334
		C1209.333,894.134,1109.867,815.733,1026.133,821.066z"/>
</g>
<rect x="906.571" y="978.962" transform="matrix(-0.963 -0.2695 0.2695 -0.963 1746.4364 2253.426)" fill="#F39200" width="242.666" height="55.734"/>
</svg>
