<?xml version="1.0" encoding="utf-8"?>
<!-- Generator: Adobe Illustrator 16.0.0, SVG Export Plug-In . SVG Version: 6.00 Build 0)  -->
<!DOCTYPE svg PUBLIC "-//W3C//DTD SVG 1.1//EN" "http://www.w3.org/Graphics/SVG/1.1/DTD/svg11.dtd">
<svg version="1.1" xmlns="http://www.w3.org/2000/svg" xmlns:xlink="http://www.w3.org/1999/xlink" x="0px" y="0px" width="924px"
	 height="924px" viewBox="0 0 924 924" enable-background="new 0 0 924 924" xml:space="preserve">
<g id="Layer_3" display="none">
	<rect x="-18" y="-18" display="inline" width="960" height="960"/>
</g>
<g id="Layer_2">
	<g>
		<path fill="#FFFFFF" d="M539,448v28H385v-28H539 M557,430h-18H385h-18v18v28v18h18h154h18v-18v-28V430L557,430z"/>
	</g>
	<g>
		<path fill="#FFFFFF" d="M462,299c90.022,0,163,72.978,163,163s-72.978,163-163,163s-163-72.978-163-163S371.978,299,462,299
			 M462,283c-24.158,0-47.602,4.735-69.68,14.073c-21.317,9.017-40.458,21.921-56.893,38.354
			c-16.434,16.434-29.338,35.575-38.354,56.893C287.735,414.398,283,437.842,283,462c0,24.158,4.735,47.602,14.073,69.68
			c9.017,21.317,21.921,40.459,38.354,56.893c16.434,16.434,35.575,29.338,56.893,38.354C414.398,636.265,437.842,641,462,641
			c24.158,0,47.602-4.735,69.68-14.073c21.317-9.017,40.459-21.921,56.893-38.354s29.338-35.575,38.354-56.893
			C636.265,509.602,641,486.158,641,462c0-24.158-4.735-47.602-14.073-69.68c-9.017-21.317-21.921-40.458-38.354-56.893
			c-16.434-16.434-35.575-29.338-56.893-38.354C509.602,287.735,486.158,283,462,283L462,283z"/>
	</g>
	<g>
		<path fill="#FFFFFF" d="M462,177c157.401,0,285,127.599,285,285S619.401,747,462,747S177,619.401,177,462S304.599,177,462,177
			 M462,161c-40.628,0-80.049,7.96-117.168,23.661c-35.845,15.161-68.033,36.862-95.671,64.5s-49.339,59.827-64.5,95.671
			C168.96,381.951,161,421.372,161,462s7.96,80.049,23.661,117.168c15.161,35.845,36.862,68.033,64.5,95.671
			c27.638,27.639,59.827,49.34,95.671,64.501C381.951,755.039,421.372,763,462,763s80.049-7.961,117.168-23.66
			c35.845-15.161,68.033-36.862,95.671-64.501c27.639-27.638,49.34-59.826,64.501-95.671C755.039,542.049,763,502.628,763,462
			s-7.961-80.049-23.66-117.168c-15.161-35.845-36.862-68.033-64.501-95.671c-27.638-27.638-59.826-49.339-95.671-64.5
			C542.049,168.96,502.628,161,462,161L462,161z"/>
	</g>
	<g>
		<path fill="#FFFFFF" d="M462,16.063L871.58,52.42L907.938,462L871.58,871.58L462,907.938L52.42,871.58L16.063,462L52.42,52.42
			L462,16.063 M462,0L37.667,37.667L0,462l37.667,424.333L462,924l424.333-37.667L924,462L886.333,37.667L462,0L462,0z"/>
	</g>
	<g>
		<path fill="#FFFFFF" d="M462,25.937L898.063,462L462,898.063L25.937,462L462,25.937 M462,0L0,462l462,462l462-462L462,0L462,0z"/>
	</g>
	<g>
	</g>
	<g>
	</g>
	<g>
	</g>
	<g>
	</g>
	<g>
	</g>
	<g>
	</g>
	<g>
	</g>
	<g>
	</g>
	<g>
	</g>
	<g>
	</g>
	<g>
	</g>
	<g>
	</g>
	<g>
	</g>
	<g>
	</g>
	<g>
	</g>
</g>
</svg>
