<?xml version="1.0" encoding="utf-8"?>
<!-- Generator: Adobe Illustrator 16.0.0, SVG Export Plug-In . SVG Version: 6.00 Build 0)  -->
<!DOCTYPE svg PUBLIC "-//W3C//DTD SVG 1.1//EN" "http://www.w3.org/Graphics/SVG/1.1/DTD/svg11.dtd">
<svg version="1.1" id="Layer_1" xmlns="http://www.w3.org/2000/svg" xmlns:xlink="http://www.w3.org/1999/xlink" x="0px" y="0px"
	 width="1898.266px" height="1652.667px" viewBox="53.534 207 1898.266 1652.667"
	 enable-background="new 53.534 207 1898.266 1652.667" xml:space="preserve">
<g>
	<path fill="#F7931E" d="M1256,1859.667H749.333c-3.219,0-6.193-1.719-7.799-4.509l-688-1194.667c-1.601-2.78-1.601-6.202,0-8.982
		l253.333-440c1.606-2.79,4.58-4.509,7.799-4.509h1376c3.22,0,6.193,1.72,7.8,4.509l253.333,440c1.601,2.78,1.601,6.202-0.001,8.982
		l-688,1194.667C1262.192,1857.948,1259.219,1859.667,1256,1859.667z M754.536,1841.667h496.261L1933.614,656l-248.15-431H319.87
		L71.719,656L754.536,1841.667z"/>
</g>
<g>
	<g>
		<rect x="840" y="862.667" fill="#F7931E" width="341.333" height="72"/>
	</g>
	<g>
		<path fill="#F7931E" d="M1010.667,1207.733c-150.934,9.066-312.8-128-312.267-311.2c0.533-172.8,145.333-311.733,314.933-311.467
			c173.867,0.267,310.934,152,313.067,309.867C1328.533,1063.467,1170.667,1219.467,1010.667,1207.733z M756,896
			c-9.867,135.733,116.533,258.934,252.8,258.934c144.533,0,262.934-116.267,262.134-259.467
			c-0.801-141.601-121.334-254.134-256-255.467C863.2,638.134,746.667,770.4,756,896z"/>
	</g>
	<g>
		<path fill="#F7931E" d="M1002.934,1639.4c-75.009,0-142.22-38.764-179.79-103.692L362.873,738.366
			c-37.533-64.864-37.563-142.4-0.076-207.401C400.34,465.865,467.582,427,542.667,427H1463.2
			c74.956,0,142.105,38.734,179.625,103.614c37.575,64.975,37.641,142.636,0.176,207.741l-460.272,797.344
			C1145.153,1600.637,1077.942,1639.4,1002.934,1639.4z M542.667,445c-68.575,0-129.987,35.498-164.277,94.957
			c-34.234,59.361-34.209,130.166,0.067,189.402l460.271,797.342c34.31,59.294,95.697,94.699,164.206,94.699
			s129.896-35.405,164.21-94.708l460.262-797.326c34.217-59.459,34.158-130.396-0.162-189.742
			C1592.979,480.374,1531.653,445,1463.2,445H542.667z"/>
	</g>
</g>
</svg>
