<?xml version="1.0" encoding="utf-8"?>
<!-- Generator: Adobe Illustrator 16.0.0, SVG Export Plug-In . SVG Version: 6.00 Build 0)  -->
<!DOCTYPE svg PUBLIC "-//W3C//DTD SVG 1.1//EN" "http://www.w3.org/Graphics/SVG/1.1/DTD/svg11.dtd">
<svg version="1.1" xmlns="http://www.w3.org/2000/svg" xmlns:xlink="http://www.w3.org/1999/xlink" x="0px" y="0px" width="874px"
	 height="874px" viewBox="0 0 874 874" enable-background="new 0 0 874 874" xml:space="preserve">
<g id="Layer_2" display="none">
	<rect x="-43" y="-43" display="inline" width="960" height="960"/>
</g>
<g id="Layer_3" display="none">
	<path display="inline" fill="#FFFFFF" d="M437-4C193.44-4-4,193.44-4,437c0,243.56,197.44,441,441,441c243.56,0,441-197.44,441-441
		C878,193.44,680.56-4,437-4z M437,860C203.38,860,14,670.62,14,437S203.38,14,437,14s423,189.38,423,423S670.62,860,437,860z"/>
	<path display="inline" fill="#FFFFFF" d="M437,260c-97.75,0-177,79.25-177,177s79.25,177,177,177s177-79.25,177-177
		S534.75,260,437,260z M437,600.47c-90.28,0-163.47-73.189-163.47-163.47c0-90.28,73.19-163.47,163.47-163.47
		c90.28,0,163.47,73.19,163.47,163.47C600.47,527.28,527.28,600.47,437,600.47z"/>
	<path display="inline" fill="#FFFFFF" d="M437,285.99c-83.4,0-151.01,67.61-151.01,151.01c0,83.4,67.61,151.01,151.01,151.01
		c83.4,0,151.01-67.609,151.01-151.01C588.01,353.6,520.4,285.99,437,285.99z M437,574.01c-75.67,0-137.01-61.34-137.01-137.01
		S361.33,299.99,437,299.99S574.01,361.33,574.01,437S512.67,574.01,437,574.01z"/>
	<path display="inline" fill="#FFFFFF" d="M385,417v40h104v-40H385z M474,443h-75v-12h75V443z"/>
</g>
<g id="Layer_4">
	<path fill="#FFFFFF" d="M437,19c230.855,0,418,187.145,418,418c0,230.855-187.145,418-418,418C206.145,855,19,667.855,19,437
		C19,206.145,206.145,19,437,19 M437,0c-58.986,0-116.218,11.557-170.106,34.35c-52.04,22.011-98.772,53.518-138.9,93.645
		c-40.127,40.127-71.634,86.86-93.645,138.9C11.557,320.782,0,378.014,0,437s11.557,116.219,34.35,170.106
		c22.011,52.04,53.518,98.772,93.645,138.899c40.127,40.127,86.86,71.634,138.9,93.645C320.782,862.443,378.014,874,437,874
		s116.219-11.557,170.106-34.35c52.04-22.011,98.772-53.518,138.899-93.645s71.634-86.859,93.645-138.899
		C862.443,553.219,874,495.986,874,437s-11.557-116.218-34.35-170.106c-22.011-52.04-53.518-98.772-93.645-138.9
		C705.879,87.867,659.146,56.36,607.106,34.35C553.219,11.557,495.986,0,437,0L437,0z"/>
	<g>
		<path fill="#FFFFFF" d="M437,276c88.918,0,161,72.082,161,161s-72.082,161-161,161s-161-72.082-161-161S348.082,276,437,276
			 M437,260c-23.888,0-47.069,4.682-68.901,13.916c-21.079,8.916-40.006,21.676-56.257,37.926
			c-16.25,16.25-29.01,35.178-37.926,56.257C264.682,389.931,260,413.112,260,437s4.682,47.069,13.916,68.901
			c8.916,21.079,21.676,40.007,37.926,56.257c16.25,16.25,35.178,29.01,56.257,37.926C389.931,609.318,413.112,614,437,614
			s47.069-4.682,68.901-13.916c21.079-8.916,40.007-21.676,56.257-37.926s29.01-35.178,37.926-56.257
			C609.318,484.069,614,460.888,614,437s-4.682-47.069-13.916-68.901c-8.916-21.079-21.676-40.006-37.926-56.257
			c-16.25-16.25-35.178-29.01-56.257-37.926C484.069,264.682,460.888,260,437,260L437,260z"/>
	</g>
	<g>
		<path fill="#FFFFFF" d="M437,303c74.006,0,134,59.994,134,134c0,74.006-59.994,134-134,134c-74.006,0-134-59.994-134-134
			C303,362.994,362.994,303,437,303 M437,287c-40.066,0-77.735,15.603-106.066,43.934C302.603,359.265,287,396.934,287,437
			s15.603,77.734,43.934,106.065C359.265,571.397,396.934,587,437,587s77.734-15.603,106.066-43.934
			C571.397,514.734,587,477.066,587,437s-15.603-77.735-43.935-106.066C514.734,302.603,477.066,287,437,287L437,287z"/>
	</g>
	<g>
		<path fill="#FFFFFF" d="M470,432v11h-66v-11H470 M486,416h-16h-66h-16v16v11v16h16h66h16v-16v-11V416L486,416z"/>
	</g>
	<g>
	</g>
	<g>
	</g>
	<g>
	</g>
	<g>
	</g>
	<g>
	</g>
	<g>
	</g>
	<g>
	</g>
	<g>
	</g>
	<g>
	</g>
	<g>
	</g>
	<g>
	</g>
	<g>
	</g>
	<g>
	</g>
	<g>
	</g>
	<g>
	</g>
</g>
</svg>
