<?xml version="1.0" encoding="utf-8"?>
<!-- Generator: Adobe Illustrator 16.0.0, SVG Export Plug-In . SVG Version: 6.00 Build 0)  -->
<!DOCTYPE svg PUBLIC "-//W3C//DTD SVG 1.1//EN" "http://www.w3.org/Graphics/SVG/1.1/DTD/svg11.dtd">
<svg version="1.1" xmlns="http://www.w3.org/2000/svg" xmlns:xlink="http://www.w3.org/1999/xlink" x="0px" y="0px" width="910px"
	 height="910px" viewBox="0 0 910 910" enable-background="new 0 0 910 910" xml:space="preserve">
<g id="Layer_2" display="none">
	<rect x="-25" y="-25" display="inline" width="960" height="960"/>
</g>
<g id="Layer_3" display="none">
	<path display="inline" fill="#FFFFFF" d="M455,14C211.44,14,14,211.44,14,455c0,243.56,197.44,441,441,441
		c243.56,0,441-197.44,441-441C896,211.44,698.56,14,455,14z M455,878C221.38,878,32,688.62,32,455S221.38,32,455,32
		s423,189.38,423,423S688.62,878,455,878z"/>
	<path display="inline" fill="#FFFFFF" d="M455,278c-97.75,0-177,79.25-177,177s79.25,177,177,177s177-79.25,177-177
		S552.75,278,455,278z M455,618.47c-90.28,0-163.47-73.189-163.47-163.47c0-90.28,73.19-163.47,163.47-163.47
		c90.28,0,163.47,73.19,163.47,163.47C618.47,545.28,545.28,618.47,455,618.47z"/>
	<path display="inline" fill="#FFFFFF" d="M455,303.99c-83.4,0-151.01,67.61-151.01,151.01c0,83.4,67.61,151.01,151.01,151.01
		c83.4,0,151.01-67.609,151.01-151.01C606.01,371.6,538.4,303.99,455,303.99z M455,592.01c-75.67,0-137.01-61.34-137.01-137.01
		S379.33,317.99,455,317.99S592.01,379.33,592.01,455S530.67,592.01,455,592.01z"/>
	<path display="inline" fill="#FFFFFF" d="M403,435v40h104v-40H403z M492,461h-75v-12h75V461z"/>
</g>
<g id="Layer_4">
	<path fill="#FFFFFF" d="M455,37c230.855,0,418,187.145,418,418c0,230.855-187.145,418-418,418C224.145,873,37,685.855,37,455
		C37,224.145,224.145,37,455,37 M455,0c-61.408,0-121,12.035-177.118,35.771c-54.186,22.918-102.841,55.721-144.616,97.495
		s-74.577,90.43-97.495,144.616C12.035,334,0,393.592,0,455s12.035,121,35.771,177.118c22.918,54.186,55.721,102.841,97.495,144.615
		s90.43,74.577,144.616,97.495C334,897.965,393.592,910,455,910s121-12.035,177.118-35.771
		c54.186-22.918,102.841-55.721,144.615-97.495s74.577-90.43,97.495-144.615C897.965,576,910,516.408,910,455
		s-12.035-121-35.771-177.118c-22.918-54.186-55.721-102.841-97.495-144.616s-90.43-74.577-144.615-97.495
		C576,12.035,516.408,0,455,0L455,0z"/>
	<g>
		<path fill="#FFFFFF" d="M455,270c102.173,0,185,82.827,185,185s-82.827,185-185,185s-185-82.827-185-185S352.827,270,455,270
			 M455,233c-29.954,0-59.031,5.875-86.424,17.461c-26.44,11.183-50.178,27.185-70.554,47.562
			c-20.376,20.376-36.378,44.114-47.562,70.554C238.875,395.969,233,425.046,233,455c0,29.953,5.875,59.03,17.461,86.424
			c11.183,26.44,27.185,50.178,47.562,70.554c20.376,20.376,44.114,36.378,70.554,47.562C395.969,671.125,425.046,677,455,677
			c29.953,0,59.03-5.875,86.424-17.461c26.44-11.184,50.178-27.186,70.554-47.562s36.378-44.113,47.562-70.554
			C671.125,514.03,677,484.953,677,455c0-29.954-5.875-59.031-17.461-86.424c-11.184-26.44-27.186-50.178-47.562-70.554
			c-20.376-20.376-44.113-36.378-70.554-47.562C514.03,238.875,484.953,233,455,233L455,233z"/>
	</g>
	<g>
		<rect x="325" y="425" fill="#FFFFFF" width="260" height="61"/>
	</g>
	<g>
	</g>
	<g>
	</g>
	<g>
	</g>
	<g>
	</g>
	<g>
	</g>
	<g>
	</g>
	<g>
	</g>
	<g>
	</g>
	<g>
	</g>
	<g>
	</g>
	<g>
	</g>
	<g>
	</g>
	<g>
	</g>
	<g>
	</g>
	<g>
	</g>
</g>
</svg>
