<?xml version="1.0" encoding="utf-8"?>
<!-- Generator: Adobe Illustrator 16.0.0, SVG Export Plug-In . SVG Version: 6.00 Build 0)  -->
<!DOCTYPE svg PUBLIC "-//W3C//DTD SVG 1.1//EN" "http://www.w3.org/Graphics/SVG/1.1/DTD/svg11.dtd">
<svg version="1.1" xmlns="http://www.w3.org/2000/svg" xmlns:xlink="http://www.w3.org/1999/xlink" x="0px" y="0px"
	 width="855.861px" height="855.87px" viewBox="0 0 855.861 855.87" enable-background="new 0 0 855.861 855.87"
	 xml:space="preserve">
<g id="Layer_2" display="none">
	<rect x="-52" y="-52" display="inline" width="960" height="960"/>
</g>
<g id="Layer_3" display="none">
	<path display="inline" fill="#FFFFFF" d="M428-13C184.44-13-13,184.44-13,428c0,243.56,197.44,441,441,441
		c243.56,0,441-197.44,441-441C869,184.44,671.56-13,428-13z M428,851C194.38,851,5,661.62,5,428S194.38,5,428,5s423,189.38,423,423
		S661.62,851,428,851z"/>
	<path display="inline" fill="#FFFFFF" d="M428,251c-97.75,0-177,79.25-177,177s79.25,177,177,177s177-79.25,177-177
		S525.75,251,428,251z M428,591.47c-90.28,0-163.47-73.189-163.47-163.47c0-90.28,73.19-163.47,163.47-163.47
		c90.28,0,163.47,73.19,163.47,163.47C591.47,518.28,518.28,591.47,428,591.47z"/>
	<path display="inline" fill="#FFFFFF" d="M428,276.99c-83.4,0-151.01,67.61-151.01,151.01c0,83.4,67.61,151.01,151.01,151.01
		c83.4,0,151.01-67.609,151.01-151.01C579.01,344.6,511.4,276.99,428,276.99z M428,565.01c-75.67,0-137.01-61.34-137.01-137.01
		S352.33,290.99,428,290.99S565.01,352.33,565.01,428S503.67,565.01,428,565.01z"/>
	<path display="inline" fill="#FFFFFF" d="M376,408v40h104v-40H376z M465,434h-75v-12h75V434z"/>
</g>
<g id="Layer_4">
	<path fill="#FFFFFF" d="M428,10c230.855,0,418,187.145,418,418c0,230.855-187.145,418-418,418C197.145,846,10,658.855,10,428
		C10,197.145,197.145,10,428,10 M428,0c-57.775,0-113.828,11.317-166.6,33.639c-50.967,21.557-96.738,52.416-136.042,91.72
		S55.196,210.433,33.639,261.4C11.317,314.172,0,370.225,0,428s11.317,113.828,33.639,166.6
		c21.557,50.968,52.416,96.738,91.72,136.042s85.074,70.163,136.042,91.72C314.172,844.683,370.225,856,428,856
		s113.828-11.317,166.6-33.639c50.968-21.557,96.738-52.416,136.042-91.72s70.163-85.074,91.72-136.042
		C844.683,541.828,856,485.775,856,428s-11.317-113.828-33.639-166.6c-21.557-50.967-52.416-96.738-91.72-136.042
		S645.567,55.196,594.6,33.639C541.828,11.317,485.775,0,428,0L428,0z"/>
	<g>
		<path fill="#FFFFFF" d="M428,267c88.918,0,161,72.082,161,161s-72.082,161-161,161s-161-72.082-161-161S339.082,267,428,267
			 M428,257c-23.081,0-45.476,4.522-66.564,13.442c-20.364,8.613-38.65,20.941-54.352,36.642
			c-15.701,15.701-28.029,33.988-36.642,54.352C261.522,382.524,257,404.919,257,428c0,23.08,4.522,45.476,13.442,66.564
			c8.613,20.363,20.941,38.649,36.642,54.351c15.701,15.701,33.988,28.029,54.352,36.643C382.524,594.478,404.919,599,428,599
			c23.08,0,45.476-4.522,66.564-13.442c20.363-8.613,38.649-20.941,54.351-36.643s28.029-33.987,36.643-54.351
			C594.478,473.476,599,451.08,599,428c0-23.081-4.522-45.476-13.442-66.564c-8.613-20.364-20.941-38.65-36.643-54.352
			c-15.701-15.701-33.987-28.029-54.351-36.642C473.476,261.522,451.08,257,428,257L428,257z"/>
	</g>
	<g>
		<path fill="#FFFFFF" d="M428,290.667c75.847,0,137.333,61.486,137.333,137.333c0,75.847-61.486,137.333-137.333,137.333
			c-75.847,0-137.333-61.486-137.333-137.333C290.667,352.153,352.153,290.667,428,290.667 M428,280.667
			c-39.354,0-76.353,15.325-104.18,43.153S280.667,388.646,280.667,428c0,39.354,15.325,76.353,43.153,104.18
			c27.828,27.828,64.826,43.153,104.18,43.153c39.354,0,76.353-15.325,104.18-43.153c27.828-27.827,43.153-64.826,43.153-104.18
			c0-39.354-15.325-76.353-43.153-104.18C504.353,295.992,467.354,280.667,428,280.667L428,280.667z"/>
	</g>
	<g>
		<path fill="#FFFFFF" d="M466,418v21h-76v-21H466 M476,408h-9.666h-76.668H380v10v21v10h9.666h76.668H476v-10v-21V408L476,408z"/>
	</g>
	<g>
	</g>
	<g>
	</g>
	<g>
	</g>
	<g>
	</g>
	<g>
	</g>
	<g>
	</g>
	<g>
	</g>
	<g>
	</g>
	<g>
	</g>
	<g>
	</g>
	<g>
	</g>
	<g>
	</g>
	<g>
	</g>
	<g>
	</g>
	<g>
	</g>
</g>
</svg>
