<?xml version="1.0" encoding="UTF-8" standalone="no"?>
<!-- Created with Inkscape (http://www.inkscape.org/) -->

<svg
   xmlns:dc="http://purl.org/dc/elements/1.1/"
   xmlns:cc="http://creativecommons.org/ns#"
   xmlns:rdf="http://www.w3.org/1999/02/22-rdf-syntax-ns#"
   xmlns:svg="http://www.w3.org/2000/svg"
   xmlns="http://www.w3.org/2000/svg"
   xmlns:sodipodi="http://sodipodi.sourceforge.net/DTD/sodipodi-0.dtd"
   xmlns:inkscape="http://www.inkscape.org/namespaces/inkscape"
   width="251.12596mm"
   height="219.47096mm"
   viewBox="0 0 889.8164 777.65301"
   id="svg6046"
   version="1.1"
   inkscape:version="0.48.4 r9939"
   sodipodi:docname="rank-6-cqc.svg"
   inkscape:export-filename="C:\Users\Pedro\Pictures\Frontier Developments\Elite Dangerous\Other\rank-6-cqc.png"
   inkscape:export-xdpi="90"
   inkscape:export-ydpi="90">
  <defs
     id="defs6048" />
  <sodipodi:namedview
     id="base"
     pagecolor="#ffffff"
     bordercolor="#666666"
     borderopacity="1.0"
     inkscape:pageopacity="0.0"
     inkscape:pageshadow="2"
     inkscape:zoom="0.35"
     inkscape:cx="444.9082"
     inkscape:cy="388.8265"
     inkscape:document-units="px"
     inkscape:current-layer="layer1"
     showgrid="false"
     fit-margin-top="0"
     fit-margin-left="0"
     fit-margin-right="0"
     fit-margin-bottom="0"
     inkscape:window-width="1680"
     inkscape:window-height="987"
     inkscape:window-x="-8"
     inkscape:window-y="-8"
     inkscape:window-maximized="1" />
  <metadata
     id="metadata6051">
    <rdf:RDF>
      <cc:Work
         rdf:about="">
        <dc:format>image/svg+xml</dc:format>
        <dc:type
           rdf:resource="http://purl.org/dc/dcmitype/StillImage" />
        <dc:title></dc:title>
      </cc:Work>
    </rdf:RDF>
  </metadata>
  <g
     inkscape:label="Layer 1"
     inkscape:groupmode="layer"
     id="layer1"
     transform="translate(69.9082,-143.53571)">
    <g
       id="g5115"
       transform="translate(-218.71299,83.552784)">
      <g
         id="g5117"
         transform="matrix(4.0041057,0,0,4.0041057,1517.2254,-471.67883)">
        <path
           style="fill:#8a050c;fill-opacity:1;fill-rule:evenodd;stroke:none;stroke-width:1px;stroke-linecap:butt;stroke-linejoin:round;stroke-opacity:1"
           d="m -230.63811,132.77915 -5,25 -25,5 25,5 5,25 5,-25 25,-5 -25,-5 z"
           id="path5119"
           inkscape:connector-curvature="0" />
        <path
           inkscape:connector-curvature="0"
           style="color:#000000;clip-rule:nonzero;display:inline;overflow:visible;visibility:visible;opacity:1;isolation:auto;mix-blend-mode:normal;color-interpolation:sRGB;color-interpolation-filters:linearRGB;solid-color:#000000;solid-opacity:1;fill:#8a050c;fill-opacity:1;fill-rule:evenodd;stroke:none;stroke-width:1px;stroke-linecap:butt;stroke-linejoin:miter;stroke-miterlimit:4;stroke-dasharray:none;stroke-dashoffset:0;stroke-opacity:1;color-rendering:auto;image-rendering:auto;shape-rendering:auto;text-rendering:auto;enable-background:accumulate"
           d="m -300.63811,277.77825 -4,16 -16,4 16,4 4,16 4,-16 16,-4 -16,-4 -4,-16 z"
           id="path5121" />
        <g
           id="g5123"
           transform="matrix(-1,0,0,1,2609.3619,1375.417)"
           style="fill:#8a050c;fill-opacity:1;stroke:none;stroke-linejoin:round">
          <path
             style="color:#000000;clip-rule:nonzero;display:inline;overflow:visible;visibility:visible;opacity:1;isolation:auto;mix-blend-mode:normal;color-interpolation:sRGB;color-interpolation-filters:linearRGB;solid-color:#000000;solid-opacity:1;fill:#8a050c;fill-opacity:1;fill-rule:evenodd;stroke:none;stroke-width:1px;stroke-linecap:butt;stroke-linejoin:round;stroke-miterlimit:4;stroke-dasharray:none;stroke-dashoffset:0;stroke-opacity:1;color-rendering:auto;image-rendering:auto;shape-rendering:auto;text-rendering:auto;enable-background:accumulate"
             d="m 2770,-1097.6387 -4,16 -16,4 16,4 4,16 4,-16 16,-4 -16,-4 -4,-16 z"
             id="path5125"
             inkscape:connector-curvature="0" />
        </g>
      </g>
      <path
         inkscape:connector-curvature="0"
         style="color:#000000;clip-rule:nonzero;display:inline;overflow:visible;visibility:visible;opacity:1;isolation:auto;mix-blend-mode:normal;color-interpolation:sRGB;color-interpolation-filters:linearRGB;solid-color:#000000;solid-opacity:1;fill:#ff0507;fill-opacity:1;fill-rule:evenodd;stroke:none;stroke-width:4.00410557px;stroke-linecap:butt;stroke-linejoin:round;stroke-miterlimit:4;stroke-dasharray:none;stroke-dashoffset:0;stroke-opacity:1;color-rendering:auto;image-rendering:auto;shape-rendering:auto;text-rendering:auto;enable-background:accumulate"
         d="m 148.80479,115.32539 c 0,71.45 2.3944,79.35287 15.0664,92.17186 l 124.9648,120.5332 0,18.61329 -74.4472,-70.90235 c 0.014,49.033 -4.3798,82.79972 13.2949,99.26172 l 93.0586,83.31055 0,17.72656 -45.1992,-42.54102 c -0.091,27.82 -1.9871,76.9016 13.2929,93.0586 0,0 171.5575,162.73226 171.9375,163.07226 -3.081,23.197 3.6257,41.78502 14.1817,52.29102 0,0 118.7493,95.70795 118.7578,95.71484 0.01,-0.007 118.7578,-95.71484 118.7578,-95.71484 10.556,-10.506 17.2627,-29.09402 14.1817,-52.29102 0.38,-0.34 171.9374,-163.07226 171.9374,-163.07226 15.2801,-16.157 13.384,-65.2386 13.293,-93.0586 l -45.1992,42.54102 0,-17.72656 93.0586,-83.31055 c 17.6747,-16.462 13.2809,-50.22872 13.2949,-99.26172 l -74.4473,70.90235 0,-18.61329 124.96491,-120.5332 c 12.672,-12.81899 15.0664,-20.72186 15.0664,-92.17186 L 860.81069,280.47381 c 0.2591,3.73447 0.4008,7.86412 0.4628,12.00391 0.097,11.941 -0.7413,24.80981 -2.8203,38.00781 -5.964,37.862 -20.7383,71.00802 -46.9433,95.16602 -11.283,10.515 -16.0414,20.348 -15.9864,30.125 0.043,7.549 2.6944,14.61533 8.2832,24.23633 0.9382,1.802 4.8425,8.75312 5.8145,10.57812 6.2927,11.815 9.4582,21.7995 9.0762,33.1875 -0.497,14.793 -7.4673,29.50966 -22.0313,44.34766 -13.663,14.258 -202.9531,182.88867 -202.9531,182.88867 0,0 -189.2901,-168.63067 -202.9531,-182.88867 -14.564,-14.838 -21.5343,-29.55466 -22.0313,-44.34766 -0.382,-11.388 2.7835,-21.3725 9.0762,-33.1875 0.972,-1.825 4.8762,-8.77612 5.8144,-10.57812 5.5888,-9.621 8.2403,-16.68733 8.2833,-24.23633 0.055,-9.777 -4.7034,-19.61 -15.9864,-30.125 -26.205,-24.158 -40.9793,-57.30402 -46.9433,-95.16602 -2.079,-13.198 -2.9173,-26.06681 -2.8203,-38.00781 0.062,-4.13979 0.2037,-8.26944 0.4628,-12.00391 L 148.80479,115.32539 Z m 189.7656,176.25194 c 0,0.33236 -0.01,0.66654 -0.01,1.00391 -0.093,11.293 0.7009,23.4896 2.6679,35.9746 5.565,35.33 19.2191,65.96305 43.1211,87.99805 13.717,12.782 20.038,25.83792 19.961,39.29492 -0.058,10.217 -3.3775,19.06491 -9.8145,30.12891 -0.913,1.767 -4.8692,8.81129 -5.7402,10.44726 -5.363,10.06701 -7.922,18.14246 -7.627,26.93946 0.386,11.506 5.9941,23.346 18.5371,36.125 13.398,13.983 45.8425,43.85565 91.6035,84.72265 1.281,1.144 2.5702,2.29518 3.8672,3.45118 22.453,20.027 46.5113,41.28334 70.5723,62.40234 8.421,7.39 16.2408,14.23814 23.2578,20.36914 l 0,-0.002 -34.252,-147.15235 -33.6777,-35.45117 -43.4297,0 -44.3125,-43.42773 c 0,0 -7.2649,-22.40514 38.9961,-68.24414 l 0,-20.38477 -133.7207,-124.19531 z m 510.2852,0 -133.7207,124.19531 0,20.38477 c 46.261,45.839 38.9961,68.24414 38.9961,68.24414 l -44.3125,43.42773 -43.4297,0 -33.6778,35.45117 -34.2519,147.15235 0,0.002 c 7.017,-6.131 14.8368,-12.97914 23.2578,-20.36914 24.061,-21.119 48.1193,-42.37534 70.5723,-62.40234 1.297,-1.156 2.5862,-2.30718 3.8672,-3.45118 45.761,-40.867 78.2055,-70.73965 91.6035,-84.72265 12.543,-12.779 18.1511,-24.619 18.5371,-36.125 0.295,-8.797 -2.264,-16.87245 -7.627,-26.93946 -0.871,-1.63597 -4.8272,-8.68026 -5.7402,-10.44726 -6.437,-11.064 -9.7565,-19.91191 -9.8145,-30.12891 -0.077,-13.457 6.244,-26.51292 19.961,-39.29492 23.902,-22.035 37.5561,-52.66805 43.1211,-87.99805 1.967,-12.485 2.7609,-24.6816 2.6679,-35.9746 0,-0.33737 -0.01,-0.67155 -0.01,-1.00391 z m -279.961,54.17969 -10.6347,101.92187 7.9765,7.08985 0,22.15624 27.4766,23.93165 27.4766,-23.93165 0,-22.15624 7.9765,-7.08985 -10.6347,-101.92187 -7.0899,32.79101 -2.6601,39.88281 -15.0684,10.63477 -15.0684,-10.63477 -2.6601,-39.88281 -7.0899,-32.79101 z m -10.6308,138.25781 -9.75,1.77148 -15.0664,14.18164 22.1562,0 0,13.29297 -31.0195,6.20313 -15.0664,14.18164 48.7441,0 35.4512,30.13476 35.4512,-30.13476 48.7441,0 -15.0664,-14.18164 -31.0195,-6.20313 0,-13.29297 22.1562,0 -15.0664,-14.18164 -9.75,-1.77148 -35.4492,31.01953 -35.4492,-31.01953 z m 8.8613,88.62891 26.5879,135.5996 26.5879,-135.5996 -26.5879,0 -26.5879,0 z"
         id="path5263" />
    </g>
  </g>
</svg>
