<?xml version="1.0" encoding="UTF-8" standalone="no"?>
<!-- Created with Inkscape (http://www.inkscape.org/) -->

<svg
   xmlns:dc="http://purl.org/dc/elements/1.1/"
   xmlns:cc="http://creativecommons.org/ns#"
   xmlns:rdf="http://www.w3.org/1999/02/22-rdf-syntax-ns#"
   xmlns:svg="http://www.w3.org/2000/svg"
   xmlns="http://www.w3.org/2000/svg"
   xmlns:sodipodi="http://sodipodi.sourceforge.net/DTD/sodipodi-0.dtd"
   xmlns:inkscape="http://www.inkscape.org/namespaces/inkscape"
   width="252.62912mm"
   height="225.1628mm"
   viewBox="0 0 895.14255 797.82093"
   id="svg4184"
   version="1.1"
   inkscape:version="0.48.4 r9939"
   sodipodi:docname="rank-8-cqc.svg"
   inkscape:export-filename="C:\Users\Pedro\Pictures\Frontier Developments\Elite Dangerous\Other\rank-8-cqc.png"
   inkscape:export-xdpi="90"
   inkscape:export-ydpi="90">
  <defs
     id="defs4186" />
  <sodipodi:namedview
     id="base"
     pagecolor="#ffffff"
     bordercolor="#666666"
     borderopacity="1.0"
     inkscape:pageopacity="0.0"
     inkscape:pageshadow="2"
     inkscape:zoom="1"
     inkscape:cx="447.57129"
     inkscape:cy="398.91046"
     inkscape:document-units="px"
     inkscape:current-layer="layer1"
     showgrid="false"
     fit-margin-top="0"
     fit-margin-left="0"
     fit-margin-right="0"
     fit-margin-bottom="0"
     inkscape:window-width="1680"
     inkscape:window-height="987"
     inkscape:window-x="-8"
     inkscape:window-y="-8"
     inkscape:window-maximized="1" />
  <metadata
     id="metadata4189">
    <rdf:RDF>
      <cc:Work
         rdf:about="">
        <dc:format>image/svg+xml</dc:format>
        <dc:type
           rdf:resource="http://purl.org/dc/dcmitype/StillImage" />
        <dc:title></dc:title>
      </cc:Work>
    </rdf:RDF>
  </metadata>
  <g
     inkscape:label="Layer 1"
     inkscape:groupmode="layer"
     id="layer1"
     transform="translate(72.571285,-133.45173)">
    <g
       transform="translate(-0.392125,-10.083975)"
       id="g3957"
       inkscape:label="Layer 1">
      <g
         transform="translate(-218.71299,83.552784)"
         id="g3959">
        <g
           transform="matrix(4.0041057,0,0,4.0041057,1517.2254,-471.67883)"
           id="g3961">
          <path
             inkscape:connector-curvature="0"
             id="path3963"
             d="m -230.63811,132.77915 -5,25 -25,5 25,5 5,25 5,-25 25,-5 -25,-5 z"
             style="fill:#8a050c;fill-opacity:1;fill-rule:evenodd;stroke:none;stroke-width:1px;stroke-linecap:butt;stroke-linejoin:round;stroke-opacity:1" />
          <path
             id="path3965"
             d="m -300.63811,277.77825 -4,16 -16,4 16,4 4,16 4,-16 16,-4 -16,-4 -4,-16 z"
             style="color:#000000;clip-rule:nonzero;display:inline;overflow:visible;visibility:visible;opacity:1;isolation:auto;mix-blend-mode:normal;color-interpolation:sRGB;color-interpolation-filters:linearRGB;solid-color:#000000;solid-opacity:1;fill:#8a050c;fill-opacity:1;fill-rule:evenodd;stroke:none;stroke-width:1px;stroke-linecap:butt;stroke-linejoin:miter;stroke-miterlimit:4;stroke-dasharray:none;stroke-dashoffset:0;stroke-opacity:1;color-rendering:auto;image-rendering:auto;shape-rendering:auto;text-rendering:auto;enable-background:accumulate"
             inkscape:connector-curvature="0" />
          <g
             style="fill:#8a050c;fill-opacity:1;stroke:none;stroke-linejoin:round"
             transform="matrix(-1,0,0,1,2609.3619,1375.417)"
             id="g3967">
            <path
               inkscape:connector-curvature="0"
               id="path3969"
               d="m 2770,-1097.6387 -4,16 -16,4 16,4 4,16 4,-16 16,-4 -16,-4 -4,-16 z"
               style="color:#000000;clip-rule:nonzero;display:inline;overflow:visible;visibility:visible;opacity:1;isolation:auto;mix-blend-mode:normal;color-interpolation:sRGB;color-interpolation-filters:linearRGB;solid-color:#000000;solid-opacity:1;fill:#8a050c;fill-opacity:1;fill-rule:evenodd;stroke:none;stroke-width:1px;stroke-linecap:butt;stroke-linejoin:round;stroke-miterlimit:4;stroke-dasharray:none;stroke-dashoffset:0;stroke-opacity:1;color-rendering:auto;image-rendering:auto;shape-rendering:auto;text-rendering:auto;enable-background:accumulate" />
          </g>
        </g>
        <path
           style="color:#000000;clip-rule:nonzero;display:inline;overflow:visible;visibility:visible;opacity:1;isolation:auto;mix-blend-mode:normal;color-interpolation:sRGB;color-interpolation-filters:linearRGB;solid-color:#000000;solid-opacity:1;fill:#ff0507;fill-opacity:1;fill-rule:evenodd;stroke:none;stroke-width:4.00410557px;stroke-linecap:butt;stroke-linejoin:round;stroke-miterlimit:4;stroke-dasharray:none;stroke-dashoffset:0;stroke-opacity:1;color-rendering:auto;image-rendering:auto;shape-rendering:auto;text-rendering:auto;enable-background:accumulate"
           d="m 146.53573,95.606659 c 0,71.450001 6.826,93.534401 19.498,106.355401 l 102.8086,95.71681 0,15.0664 -47.8594,-44.3125 c 0.014,49.033 -1.7714,74.4474 17.7266,93.9454 l 91.2852,86.8535 0,14.1797 -39.8809,-36.336 c -0.09,27.82 -2.6597,56.721 18.6113,78.877 0,0 138.7646,134.3748 139.1446,134.7168 25.702,23.043 -2e-4,58.4935 26.5878,86.8535 l 70.1543,66.7754 41.5235,-95.4727 -167.5586,-149.9551 c -11.434,-10.475 -16.233,-16.9923 -17.086,-25.9023 -0.84,-8.772 3.0083,-18.3062 12.3223,-30.8672 l -44,-40.7363 c -4.652,-4.3 -7.7957,-10.4271 -9.8027,-17.8731 -1.17,-4.343 -1.8965,-8.9334 -2.2715,-13.5664 l -0.2695,-50.9551 0,0 c -12.5,-13.347 -20.6447,-32.1765 -25.2187,-55.0605 -3.416,-17.087 -4.6151,-34.8925 -4.3301,-51.8125 L 146.53383,95.606659 Z m 895.14067,0 -181.38485,166.490211 c 0.285,16.92 -0.914,34.7255 -4.3301,51.8125 -4.5739,22.884 -12.7187,41.7135 -25.2187,55.0605 l -0.2695,50.9551 c -0.375,4.633 -1.1015,9.2234 -2.2715,13.5664 -2.007,7.446 -5.1507,13.5731 -9.8027,17.8731 l -44,40.7363 c 9.3139,12.561 13.1622,22.0952 12.3222,30.8672 -0.853,8.91 -5.6519,15.4273 -17.0859,25.9023 l -167.55862,149.9551 41.5234,95.4727 70.1543,-66.7754 c 26.58802,-28.36 0.8859,-63.8105 26.58792,-86.8535 0.38,-0.342 139.1445,-134.7168 139.1445,-134.7168 21.271,-22.156 18.7014,-51.057 18.6114,-78.877 l -39.8809,36.336 0,-14.1797 91.2852,-86.8535 c 19.498,-19.498 17.7125,-44.9124 17.7265,-93.9454 l -47.8593,44.3125 0,-15.0664 102.80855,-95.71681 c 12.672,-12.821 19.4981,-34.9054 19.4981,-106.355401 z M 338.78763,254.67887 c -0.81,18.427 0.1356,38.3436 3.8946,57.1446 4.488,22.448 12.5563,40.3317 24.6503,52.0097 l 68.7266,65.5157 c 4.354,5.395 7.1868,10.727 8.4668,16.58 2.948,13.479 -2.6897,28.5822 -18.2187,47.4102 -10.766,13.336 -14.8555,22.0803 -14.2305,28.6133 0.521,5.434 4.1031,10.2985 13.6211,19.0175 l 166.5469,149.0508 -28.2735,-138.8691 -26.5879,-25.7012 -31.9062,0 -32.791,-32.793 c 0,0 -6.2037,-21.269 28.3593,-52.289 l 0,-33.6797 -162.2578,-152.0098 z m 510.63672,0 -162.25782,152.0098 0,33.6797 c 34.563,31.02 28.3594,52.289 28.3594,52.289 l -32.791,32.793 -31.9063,0 -26.5879,25.7012 -28.2734,138.8691 166.54692,-149.0508 c 9.518,-8.719 13.1001,-13.5835 13.6211,-19.0175 0.625,-6.533 -3.4645,-15.2773 -14.2305,-28.6133 -15.529,-18.828 -21.1667,-33.9312 -18.2187,-47.4102 1.28,-5.853 4.1128,-11.185 8.4668,-16.58 l 68.7265,-65.5157 c 12.094,-11.678 20.1624,-29.5617 24.6504,-52.0097 3.759,-18.801 4.7045,-38.7176 3.8945,-57.1446 z m -272.15622,91.7442 -8.8633,101.9218 6.2031,4.4317 0,15.9531 19.4981,16.8379 19.498,-16.8379 0,-15.9531 6.2032,-4.4317 -8.8633,-101.9218 -3.5449,21.2715 -2.6583,58.4921 -10.6347,7.9766 -10.6348,-7.9766 -2.6582,-58.4921 -3.5449,-21.2715 z m -209.1602,32.7871 0.2325,39.8535 c 0.326,4.031 0.9515,7.9982 1.9375,11.6562 1.531,5.681 3.799,10.1002 6.75,12.8282 l 43.3789,40.1601 c 11.86,-15.115 15.7334,-26.3488 13.7304,-35.5058 -1.636,-7.477 -5.9262,-12.7925 -18.3242,-24.3965 l -47.7051,-44.5957 z m 451.99612,0 -47.705,44.5957 c -12.398,11.604 -16.6883,16.9195 -18.3243,24.3965 -2.003,9.157 1.8705,20.3908 13.7305,35.5058 l 43.3789,-40.1601 c 2.951,-2.728 5.219,-7.1472 6.75,-12.8282 0.986,-3.658 1.6115,-7.6252 1.9375,-11.6562 l 0.2324,-39.8535 z m -251.70112,96.6094 -11.5196,0.8867 -11.5215,10.6347 20.3829,0 0,11.5235 -31.0196,4.4316 -12.4082,11.5215 47.8594,0 23.9297,22.1543 23.9297,-22.1543 47.8593,0 -12.4082,-11.5215 -31.0195,-4.4316 0,-11.5235 20.3828,0 -11.5215,-10.6347 -11.5195,-0.8867 -25.7031,23.9277 -25.7031,-23.9277 z m 7.9765,71.7871 17.7266,96.6054 17.7265,-96.6054 -17.7265,0 -17.7266,0 z m 17.7266,157.7988 -46.2852,108.5937 46.2852,43.8047 46.2851,-43.8047 -46.2851,-108.5937 z"
           id="path3947"
           inkscape:connector-curvature="0" />
      </g>
    </g>
  </g>
</svg>
