<?xml version="1.0" encoding="utf-8"?>
<!-- Generator: Adobe Illustrator 16.0.0, SVG Export Plug-In . SVG Version: 6.00 Build 0)  -->
<!DOCTYPE svg PUBLIC "-//W3C//DTD SVG 1.1//EN" "http://www.w3.org/Graphics/SVG/1.1/DTD/svg11.dtd">
<svg version="1.1" xmlns="http://www.w3.org/2000/svg" xmlns:xlink="http://www.w3.org/1999/xlink" x="0px" y="0px" width="807px"
	 height="807px" viewBox="0 0 807 807" enable-background="new 0 0 807 807" xml:space="preserve">
<g id="Layer_4" display="none">
	<rect x="-76" y="-76" display="inline" width="960" height="960"/>
</g>
<g id="Layer_2">
	<g>
		<path fill="#FFFFFF" d="M404,108c163.476,0,296,132.524,296,296c0,163.476-132.524,296-296,296c-163.476,0-296-132.524-296-296
			C108,240.524,240.524,108,404,108 M404,77.379c-44.08,0-86.858,8.64-127.145,25.68c-38.897,16.452-73.825,39.999-103.811,69.985
			s-53.533,64.914-69.985,103.811C86.02,317.142,77.379,359.92,77.379,404s8.64,86.857,25.68,127.145
			c16.452,38.897,39.999,73.824,69.985,103.811s64.914,53.533,103.811,69.985c40.287,17.04,83.064,25.681,127.145,25.681
			s86.857-8.641,127.145-25.681c38.897-16.452,73.824-39.999,103.811-69.985s53.533-64.913,69.985-103.811
			c17.04-40.287,25.681-83.064,25.681-127.145s-8.641-86.858-25.681-127.145c-16.452-38.897-39.999-73.825-69.985-103.811
			s-64.913-53.533-103.811-69.985C490.857,86.02,448.08,77.379,404,77.379L404,77.379z"/>
	</g>
</g>
<g id="Layer_3">
	<rect x="394" fill="#FFFFFF" width="19" height="233"/>
	<rect x="394" y="574" fill="#FFFFFF" width="19" height="233"/>
	<rect y="394" fill="#FFFFFF" width="233" height="19"/>
	<rect x="574" y="394" fill="#FFFFFF" width="233" height="19"/>
	<g>
	</g>
	<g>
	</g>
	<g>
	</g>
	<g>
	</g>
	<g>
	</g>
	<g>
	</g>
	<g>
	</g>
	<g>
	</g>
	<g>
	</g>
	<g>
	</g>
	<g>
	</g>
	<g>
	</g>
	<g>
	</g>
	<g>
	</g>
	<g>
	</g>
</g>
</svg>
