<?xml version="1.0" encoding="utf-8"?>
<!-- Generator: Adobe Illustrator 16.0.0, SVG Export Plug-In . SVG Version: 6.00 Build 0)  -->
<!DOCTYPE svg PUBLIC "-//W3C//DTD SVG 1.1//EN" "http://www.w3.org/Graphics/SVG/1.1/DTD/svg11.dtd">
<svg version="1.1" id="Layer_1" xmlns="http://www.w3.org/2000/svg" xmlns:xlink="http://www.w3.org/1999/xlink" x="0px" y="0px"
	 width="898.682px" height="787.898px" viewBox="0 0 898.682 787.898" enable-background="new 0 0 898.682 787.898"
	 xml:space="preserve">
<g id="Layer_3_copy">
	<g>
		<path fill="#953B09" d="M566.311,614.154l0.031-0.517l-41.392,38.867h71.391l103.82-82h-87.176
			c-8.457,7.911-17.903,16.746-28.355,26.521L566.311,614.154z"/>
		<path fill="#953B09" d="M332.435,614.211l-18.356-17.164c-9.09-8.499-18.866-17.642-28.379-26.541h-81.307l103.82,82h65.542
			l-41.353-38.831L332.435,614.211z"/>
		<path fill="#953B09" d="M663.595,523.082c-4.299,4.061-14.811,13.918-31.375,29.424h90.731l75.97-60H682.926
			C681.235,502.029,676.104,511.27,663.595,523.082z"/>
		<path fill="#953B09" d="M215.756,492.506H105.631l75.97,60h84.861c-14.653-13.717-26.646-24.957-31.375-29.425
			C222.579,511.269,217.447,502.029,215.756,492.506z"/>
		<path fill="#953B09" d="M214.955,459.102l0.082-10c-8.691-8.074-17.559-16.313-26.479-24.597H42.221l-7.88,11.69l48.5,38.31
			h132.112C214.904,470.342,214.904,465.195,214.955,459.102z"/>
		<path fill="#953B09" d="M683.729,459.123c0.051,6.083,0.051,11.222,0.002,15.383h137.98l48.5-38.31l-7.87-11.69H710.146
			c-8.928,8.291-17.803,16.535-26.5,24.617L683.729,459.123z"/>
	</g>
</g>
<path fill="#FD7022" d="M449.341,599.376v32.538l-10.635,15.953l-9.749,60.266l-20.979-19.531L449.341,599.376v32.538l10.635,15.953
	l9.749,60.266l21.515-20.028l0,0l-41.516-89.555L449.341,599.376L449.341,599.376z M405.52,668.617l-67.754-63.623
	c-0.004-0.008-0.292-0.315-0.685-0.774c-0.68-0.793-1.362-1.681-1.993-2.626c-0.95-1.426-1.684-2.841-2.122-4.153
	c-0.17-0.511-0.327-1.056-0.471-1.629c-0.442-1.771-0.735-3.724-0.898-5.685c-0.058-0.692-0.095-1.332-0.114-1.9
	c-0.021-0.861-0.021-0.861-0.028-1.097c-0.059-1.676-0.092-2.654-0.128-3.72c-0.104-3.041-0.208-6.16-0.305-9.18
	c-0.024-0.779-0.049-1.544-0.072-2.289c-0.231-7.385-0.368-12.587-0.368-14.476c0-9.274-3.141-16.863-9.534-23.258
	c-2.368-2.368-32.75-30.674-82.776-77.168c-18.305-17.013-37.744-35.069-57.182-53.119c-2.585-2.399-5.1-4.735-7.535-6.997
	c-15.016-14.502-27.434-26.515-27.318-26.462c-18.612-20.384-16.929-37.224-16.839-71.788c-0.09,0.194,36.337,32.792,36.337,32.792
	v-12.408l-81.537-75.333c-19.498-19.498-15.053-37.821-15.067-86.855c0.014,0.406,40.769,38.11,40.769,38.11v-12.408
	c0,0-94.953-89.562-94.831-89.514C2.395,80.239,0,71.45,0,0c0,0,157.313,142.813,187.386,170.116
	c0.113,13.788,1.255,27.921,3.808,41.567c4.354,23.277,12.414,42.285,25.046,55.488c-0.075,2.914-0.52,19.766-0.876,20.869
	c0.129,9.722,0,16.654,0,19.498c0,6.341,0.501,11.606,1.771,16.839c2.19,7.69,5.818,14.217,11.521,19.498
	c3.704,3.388,19.015,17.781,19.498,17.726c3.333,3.518,13.659,13.381,18.955,18.343c-0.358,0.442-0.695,0.86-1.026,1.273
	c-2.523,3.148-4.397,5.647-5.958,7.997c-3.996,6.019-5.937,11.156-5.689,16.5c0.296,6.403,3.777,12.28,10.556,18.345
	c7.006,6.271,39.491,35.692,89.229,80.803c19.92,18.065,41.146,37.319,62.365,56.574c7.427,6.739,14.323,12.997,20.512,18.613
	c2.166,1.965,4.088,3.71,5.746,5.214c0.392,0.354,0.69,0.627,0.926,0.84L405.52,668.617L405.52,668.617z M443.916,585.793
	l-0.285-0.388l0.232,0.501L443.916,585.793L443.916,585.793z M451.596,575.44l25.221-126.101l22.155-23.043h31.021l28.361-29.247
	c0,0,8.861-18.169-25.702-48.745v-29.247l168.715-157.351c0.351,15.797-0.629,32.32-3.565,48.019
	c-4.171,22.295-11.894,39.995-23.637,51.465c-12.115,11.834-21.443,20.78-29.67,28.506c-4.214,3.958-14.74,13.708-16.955,15.786
	c-3.728,3.506-7.078,6.752-11.027,10.701c-17.664,17.664-16.58,40.966,1.418,62.963c0.576,0.704,1.158,1.414,1.913,2.331
	c-0.001-0.001,1.436,1.743,1.833,2.227c1.438,1.75,2.444,2.983,3.389,4.161c2.342,2.922,4.043,5.19,5.396,7.229
	c2.86,4.307,4.049,7.453,3.925,10.125c-0.145,3.137-2.184,6.58-7.022,10.91c-7.034,6.293-39.502,35.703-89.389,80.944
	c-19.815,17.972-41.042,37.227-62.263,56.481c-7.427,6.739-14.323,12.997-20.512,18.613
	C453.91,573.34,452.708,574.432,451.596,575.44L451.596,575.44z M712.067,169.416C743.957,140.465,898.682,0,898.682,0
	c0,71.45-2.394,80.239-15.065,93.059c0.122-0.048-94.831,89.514-94.831,89.514v12.408c0,0,40.754-37.704,40.769-38.11
	c-0.015,49.034,4.432,67.357-15.066,86.855l-81.537,75.333v12.408c0,0,36.428-32.598,36.338-32.792
	c0.09,34.564,1.771,51.404-16.84,71.788c0.118-0.053-12.613,12.26-27.878,27.003c-2.254,2.093-4.573,4.247-6.952,6.456
	c-19.438,18.05-38.877,36.106-57.183,53.119c-50.026,46.494-80.408,74.8-82.775,77.168c-6.395,6.394-9.534,13.982-9.534,23.258
	c0,1.888-0.137,7.091-0.368,14.476c-0.022,0.745-0.048,1.51-0.072,2.289c-0.097,3.02-0.199,6.139-0.305,9.18
	c-0.036,1.064-0.068,2.044-0.128,3.72c-0.008,0.234-0.008,0.234-0.028,1.097c-0.021,0.568-0.058,1.208-0.114,1.9
	c-0.163,1.961-0.456,3.914-0.898,5.684c-0.144,0.574-0.301,1.119-0.471,1.63c-0.438,1.313-1.172,2.729-2.122,4.153
	c-0.631,0.945-1.313,1.833-1.993,2.626c-0.394,0.459-0.68,0.768-0.685,0.774l-67.236,63.137l-38.027-82.03
	c0.234-0.213,0.534-0.484,0.925-0.84c1.657-1.504,3.58-3.249,5.746-5.214c6.188-5.616,13.084-11.874,20.513-18.613
	c21.22-19.255,42.443-38.509,62.363-56.574c49.74-45.109,82.226-74.532,89.23-80.803c6.779-6.063,10.26-11.942,10.556-18.345
	c0.248-5.343-1.692-10.48-5.688-16.5c-1.562-2.349-3.436-4.848-5.957-7.997c-0.648-0.809-1.32-1.638-2.127-2.624
	c5.549-5.227,14.465-13.77,17.517-16.992c0.483,0.056,15.795-14.338,19.498-17.726c5.704-5.281,9.332-11.808,11.522-19.498
	c1.271-5.233,1.771-10.498,1.771-16.839c0-2.844-0.13-9.776,0-19.498c-0.297-0.919-0.656-12.792-0.811-18.399
	c0.284-0.278,0.571-0.558,0.859-0.84c13.563-13.247,22.122-32.866,26.659-57.118C710.85,197.806,711.988,183.425,712.067,169.416
	L712.067,169.416z M455.585,585.906l-0.053-0.113l0.285-0.388L455.585,585.906L455.585,585.906z M624.495,370.305
	c5.533-5.215,14.086-13.422,17.168-16.681c9.051-7.99,15.671-14.194,19.498-17.726c7.292-6.714,9.767-15.957,9.749-28.36
	c0.018-2.727-0.11-9.625,0-19.498c-0.151-0.391-0.328-4.139-0.483-8.383c-7.051,6.815-13.099,12.579-18.651,17.794
	c-4.248,3.99-14.779,13.745-16.136,15.016c-4.463,4.197-7.735,7.368-11.606,11.239C611.102,336.635,611.336,353.011,624.495,370.305
	L624.495,370.305z M446.917,574.592l-25.05-125.251l-22.157-23.043h-31.02l-28.36-29.247c0,0-8.863-18.169,25.702-48.745v-29.247
	l-167.963-156.65c-0.307,15.584,0.687,31.851,3.58,47.318c4.171,22.295,11.894,39.995,23.636,51.465
	c12.116,11.834,21.444,20.78,29.67,28.506c4.214,3.958,14.74,13.708,16.955,15.786c3.727,3.506,7.078,6.752,11.027,10.701
	c17.664,17.664,16.581,40.966-1.417,62.963c-0.576,0.704-1.159,1.414-1.913,2.331c0-0.001-1.435,1.743-1.833,2.227
	c-1.439,1.75-2.444,2.983-3.388,4.161c-2.342,2.922-4.043,5.19-5.396,7.229c-2.861,4.309-4.049,7.454-3.926,10.125
	c0.146,3.139,2.184,6.581,7.024,10.911c7.035,6.293,39.502,35.703,89.388,80.944c19.816,17.972,41.042,37.227,62.263,56.481
	c7.427,6.739,14.322,12.997,20.512,18.613C445.185,573.021,446.074,573.827,446.917,574.592L446.917,574.592L446.917,574.592z
	 M273.88,371.682c-5.352-5.015-15.263-14.495-18.633-18.058c-9.051-7.99-15.671-14.194-19.498-17.726
	c-7.292-6.714-9.767-15.957-9.749-28.36c-0.018-2.727,0.111-9.625,0-19.498c0.18-0.462,0.394-5.632,0.567-10.759
	c8.119,7.868,14.92,14.359,21.106,20.17c4.249,3.99,14.78,13.745,16.136,15.016c4.463,4.197,7.736,7.368,11.607,11.239
	C288.688,336.978,288.09,353.882,273.88,371.682L273.88,371.682L273.88,371.682z M320.906,589.742
	c-35.326-33.03-70.082-65.552-78.953-73.931c-15.953-15.066-17.283-23.93-16.839-34.564c-0.229-5.511-0.221-14.592-0.16-22.063
	c1.985,1.846,3.957,3.678,5.913,5.495c49.516,46.021,80.445,74.837,82.659,77.049c4.397,4.398,6.419,9.282,6.419,15.738
	c0,2.051,0.137,7.275,0.373,14.809c0.022,0.749,0.047,1.516,0.072,2.297c0.098,3.026,0.201,6.152,0.306,9.202
	c0.037,1.065,0.069,2.048,0.101,2.921c0.037,1.043,0.037,1.043,0.038,1.093C320.833,588.167,320.852,588.854,320.906,589.742
	L320.906,589.742L320.906,589.742z M577.8,589.721c35.317-33.022,70.061-65.531,78.929-73.909
	c15.953-15.065,17.282-23.929,16.841-34.563c0.229-5.506,0.222-14.574,0.159-22.042c-1.978,1.838-3.94,3.663-5.892,5.475
	c-49.516,46.021-80.446,74.837-82.658,77.05c-4.397,4.397-6.42,9.281-6.42,15.737c0,2.051-0.137,7.275-0.373,14.809
	c-0.022,0.749-0.047,1.516-0.071,2.297c-0.098,3.026-0.201,6.152-0.306,9.202c-0.037,1.065-0.069,2.048-0.101,2.921
	c-0.037,1.043-0.037,1.043-0.039,1.093C577.873,588.163,577.854,588.844,577.8,589.721L577.8,589.721L577.8,589.721z
	 M449.341,787.898c-22.231-17.727-21.343-30.135-19.498-39.884c1.712-9.749,15.066-92.173,15.066-92.173l4.432-6.203V787.898
	c22.232-17.727,21.343-30.135,19.498-39.884c-1.713-9.749-15.065-92.173-15.065-92.173l-4.433-6.203V787.898L449.341,787.898z
	 M449.341,446.683v86.854l16.839-86.854H449.341L449.341,446.683z M449.341,446.683v86.854l-16.839-86.854H449.341L449.341,446.683z
	 M439.592,336.784l9.749,7.09v46.086l-17.726-15.067v-14.18l-5.318-4.432l7.978-91.286l3.545,19.498L439.592,336.784
	L439.592,336.784z M459.09,336.784l-9.749,7.09v46.086l17.727-15.067v-14.18l5.316-4.432l-7.977-91.286l-3.545,19.498
	L459.09,336.784L459.09,336.784z M449.341,404.141v33.679l-23.93-21.271h-40.77l10.636-9.749l28.36-4.432v-9.749H404.14
	l11.521-10.635l9.749-0.886L449.341,404.141L449.341,404.141z M449.341,404.141v33.679l23.931-21.271h40.769l-10.636-9.749
	l-28.36-4.432v-9.749h19.498l-11.521-10.635l-9.75-0.886L449.341,404.141L449.341,404.141z"/>
</svg>
