<svg xmlns="http://www.w3.org/2000/svg" viewBox="0 0 485.97 66.55"><defs><style>.cls-1{fill:#fff;}</style></defs><title>logo-gutamaya</title><g id="Layer_2" data-name="Layer 2"><g id="Layer_1-2" data-name="Layer 1"><path id="GUTAMAYA" class="cls-1" d="M57.37,41.67a12.56,12.56,0,0,1,1.38-6.42,4.85,4.85,0,0,1,4.5-2.3V30.66a33.19,33.19,0,0,0-9.36,1.06,14.7,14.7,0,0,0-5.37,2.66A7.56,7.56,0,0,0,46,38a13.51,13.51,0,0,0-.6,3.9V58.2a26.28,26.28,0,0,1-5.32,1.74,33.59,33.59,0,0,1-7.07.64,21,21,0,0,1-7.9-1.47,15.7,15.7,0,0,1-6.42-4.86,24.86,24.86,0,0,1-4.32-9,53.71,53.71,0,0,1-1.56-14A46.21,46.21,0,0,1,14,21.06a26.58,26.58,0,0,1,3.54-8.67,18.49,18.49,0,0,1,6.24-6,17.92,17.92,0,0,1,9.32-2.25q8,0,12.66,3.81t6.43,12.25h2.75c0-1,0-2.14,0-3.3a33,33,0,0,0-.28-3.44,22.77,22.77,0,0,0-.69-3.26,8.35,8.35,0,0,0-1.37-2.75,21.38,21.38,0,0,0-8.08-5.19Q38.92,0,30.29,0A31.25,31.25,0,0,0,17.85,2.39,28.31,28.31,0,0,0,8.31,9a29.47,29.47,0,0,0-6.15,9.91A34.25,34.25,0,0,0,0,31.21a33.61,33.61,0,0,0,2.48,13A31.81,31.81,0,0,0,19.83,61.69a33.63,33.63,0,0,0,13.22,2.57,55,55,0,0,0,13-1.47,40.48,40.48,0,0,0,11.29-4.68V41.67Zm24-27.9A37.42,37.42,0,0,0,81,8.08a8.84,8.84,0,0,0-1.33-3.67,5.28,5.28,0,0,0-2.57-2,11.54,11.54,0,0,0-4-.6H63V4.59q4.12,0,5.28,2.53a16.43,16.43,0,0,1,1.15,6.65V36q0,27.34,24.78,27.35a31.05,31.05,0,0,0,11.34-1.83,18.11,18.11,0,0,0,7.52-5.37,21.79,21.79,0,0,0,4.18-8.59A47.33,47.33,0,0,0,118.52,36V1.84h-4.59V36q0,12-4.26,17.62T96,59.21q-7.26,0-10.88-5.46t-3.72-15ZM134.42,1.84a10.38,10.38,0,0,0-3.9.64,6.37,6.37,0,0,0-2.38,1.66,5.56,5.56,0,0,0-1.2,2.34,11.68,11.68,0,0,0-.32,2.71V17h2.76c0-4.1.94-7,2.84-8.59A11.48,11.48,0,0,1,139.93,6h6.52V62.42h11.93V6h19.19V1.84Zm72.09,0h-4.13L175.3,62.42h4.59l7.57-16.7H212l2.13,5.14a21.52,21.52,0,0,0,3.81,6.29,16.31,16.31,0,0,0,4.59,3.58,17.08,17.08,0,0,0,4.95,1.65,30.11,30.11,0,0,0,4.73.41,20.27,20.27,0,0,0,2.34-.14,14.37,14.37,0,0,0,2.07-.32V60a9.1,9.1,0,0,1-5.51-2.75,19.28,19.28,0,0,1-4-6.43ZM200.1,17.63l10.15,24H189.4ZM302.41,1.84h-12L271.57,46.91,249.35,1.84H238.16V62.42h4.59V12.49l24.6,49.93h3l20.1-48.1v32.5q0,10.36,4.31,15t14.32,4.68v-2.3a6.75,6.75,0,0,1-5.28-4.91q-1.43-4.17-1.42-12.53v-45Zm39.86,0h-4.13L311.06,62.42h4.59l7.56-16.7h24.55l2.12,5.14a22.1,22.1,0,0,0,3.81,6.29,16.83,16.83,0,0,0,4.59,3.58,17,17,0,0,0,5,1.65,30.11,30.11,0,0,0,4.73.41,20.14,20.14,0,0,0,2.34-.14,15.76,15.76,0,0,0,2.06-.32V60a9.1,9.1,0,0,1-5.5-2.75,19.28,19.28,0,0,1-4-6.43Zm-6.41,15.79,10.15,24H325.15Zm53.38-5.69a29,29,0,0,0-2.61-3.53,22.78,22.78,0,0,0-3.4-3.26,17,17,0,0,0-4.13-2.39,12.64,12.64,0,0,0-4.82-.92h-10V3.67a8.94,8.94,0,0,1,3.21,1.1,18.82,18.82,0,0,1,3.26,2.34,30.61,30.61,0,0,1,3.07,3.17,40.67,40.67,0,0,1,2.66,3.49l16.25,24.42V62.42h11.93V35.71L425.5,1.84h-6l-17.8,28.91Zm66.62-10.1h-4.13L424.65,62.42h4.59l7.57-16.7h24.55l2.12,5.14a21.47,21.47,0,0,0,3.81,6.28,16.45,16.45,0,0,0,4.59,3.58,16.77,16.77,0,0,0,5,1.66,29.88,29.88,0,0,0,4.72.41,23,23,0,0,0,2.35-.14,15.76,15.76,0,0,0,2.06-.32V60a9.18,9.18,0,0,1-5.51-2.75,19.54,19.54,0,0,1-4-6.43Zm-6.41,15.79,10.16,24H438.75Z"/></g></g></svg>