<svg xmlns="http://www.w3.org/2000/svg" viewBox="0 0 427.1 149.09"><defs><style>.cls-1{fill:#fff;}</style></defs><title>logo-saud-kruger</title><g id="Layer_2" data-name="Layer 2"><g id="Layer_1-2" data-name="Layer 1"><path id="SauD_Kreuger" data-name="SauD Kreuger" class="cls-1" d="M8.49,74.4C98.1,71.4,114.29,11.87,220,2.91c6.1-.48,5.88,3.32-1.2,4.21C140.9,16.44,115.73,88.43,9,78.76,6.3,78.76-9.52,74.4,8.49,74.4ZM232.18,3.48c-6.55,7.64-55.61,65.74-63.8,72.29S188.93,78.44,209.9,68c33.39-16.67,46.59-44.74,117.92-61.26,6.93-1.61,7.51-3.21.94-3.26C295.13,3.24,247.76,23.67,213,48c10.23-15.19,21.93-34.71,23.57-40.16S238.74-4.16,232.18,3.48ZM264.9,53.76c49.61,26.5,122.55,21.7,140.73,21.45,6.28-.09,6.91-3.12.43-3.68-43.35-3.77-86-5.9-130.22-29.32C271.5,39.91,257.79,50,264.9,53.76Zm153.34,70,8.86,24.36H426l-3.73,0L413,122.83l3.9-2.24a8.94,8.94,0,0,0,4.82-8.44q0-10.83-16.48-10.82h-3.77V148.1h-4.75V99.23h11.18q9.21,0,13.88,3.39a12,12,0,0,1-1.18,19.79Zm-28.63-22.41H362.16v19.12h23v2.1h-23V146h27.09v2.1H357.41V99.23h33.44l-.11,2.1ZM329.86,148.8h-.58c-.18,0-.37,0-.56,0h-1c-.18,0-.37,0-.56,0q-8.59,0-12.43-5.28t-3.84-16.43v-6.85q0-11.16,3.84-16.44t12.43-5.27h.55c.19,0,.39,0,.58,0h1.52q6.92,0,10.33,2.55a16.32,16.32,0,0,1,5.3,7.23l-3.46.76-.1-.23-1,.23a14.05,14.05,0,0,0-4.54-6.24c-1.73-1.29-4.3-2-7.72-2.17a16,16,0,0,0-4.64.84,11.06,11.06,0,0,0-4.39,3,13.38,13.38,0,0,0-2.93,6,41,41,0,0,0-1,9.74v6.84a40.84,40.84,0,0,0,1,9.74,13.34,13.34,0,0,0,2.93,6,11.09,11.09,0,0,0,4.39,3,16.59,16.59,0,0,0,4.58.83,15.66,15.66,0,0,0,8.62-2.65q3.71-2.69,3.7-5.76V126.46H332.3v-2.1h13.75v13.2a9.77,9.77,0,0,1-4.22,7.95q-4.23,3.28-12,3.29Zm-44,0h-2.65c-5.72,0-9.87-1.76-12.42-5.28s-3.84-9-3.84-16.43V99.23h4.75v27.86a40.79,40.79,0,0,0,1,9.73,13.44,13.44,0,0,0,2.93,6,11.05,11.05,0,0,0,4.4,3,12.8,12.8,0,0,0,9.08,0,11.09,11.09,0,0,0,4.39-3,13.34,13.34,0,0,0,2.93-6,41.32,41.32,0,0,0,1-9.73V99.21H300l2.1,0v27.86q0,11.16-3.84,16.43c-2.56,3.52-6.7,5.27-12.43,5.28Zm-31.08-.7h-1.13l-9.13-25.27,3.91-2.24a8.94,8.94,0,0,0,4.82-8.44q0-10.83-16.48-10.82H233V148.1h-4.75V99.23h11.17q9.23,0,13.89,3.39a12,12,0,0,1-1.18,19.79l-2.37,1.33,8.86,24.36Zm-31.32,0h-4.51L193.64,123V148.1h-4.75V99.23h4.75v22.9l23-22.9h5.66l-23.46,23.32,25.69,25.55Zm-87,0H127.1V99.23h9.35a22.57,22.57,0,0,1,17,7.4,24.27,24.27,0,0,1,0,34.07,22.57,22.57,0,0,1-17,7.4Zm-4.6-46.77V146h2a20.63,20.63,0,0,0,15.54-6.74,22.26,22.26,0,0,0,0-31.2,20.63,20.63,0,0,0-15.54-6.74Zm-31.4,47.47H97.8q-8.6,0-12.43-5.27t-3.83-16.44V99.23h4.74v27.86a40.79,40.79,0,0,0,1,9.73,13.45,13.45,0,0,0,2.94,6,11.09,11.09,0,0,0,4.39,3,12.8,12.8,0,0,0,9.08,0,11.19,11.19,0,0,0,4.4-3,13.44,13.44,0,0,0,2.93-6,41.32,41.32,0,0,0,1-9.73V99.27l3.6,0v0h1.14v27.85q0,11.16-3.84,16.44t-12.42,5.27Zm-28.79-.65-1.13,0L56.31,109,42.07,148.1H37.19L55,99.16h2.65l17.8,48.94-3.77.07ZM16.5,120.81q4,1.66,8.13,3.42a22.49,22.49,0,0,1,6.91,4.47A8.47,8.47,0,0,1,34.37,135q0,7-3.45,10.4c-2.31,2.28-6.25,3.7-11.83,3.7H16.44a18.35,18.35,0,0,1-10.76-3q-3.9-2.74-5.37-8.55l3.47-.83.06.26,1.07-.26q1.41,5.66,4.79,7.85a16,16,0,0,0,8.06,2.17c3.8-.16,6.68-1,8.62-2.55q3.26-2.58,3.25-9.15a7,7,0,0,0-2.83-5.44,25.81,25.81,0,0,0-6.91-4q-4.08-1.68-8.13-3.42a22.85,22.85,0,0,1-6.88-4.47,8.51,8.51,0,0,1-2.83-6.28c0-4.52,1.15-7.77,3.43-9.78C10.87,96.81,16.56,98,19.23,98a13.23,13.23,0,0,1,8.65,3.34q3.29,2.79,4.75,8.51l-1.2-.23.06.23-3.89-.76q-1.46-4.68-4.22-6.57a11.23,11.23,0,0,0-5.76-1.85,22.94,22.94,0,0,0-3.1.32,13.13,13.13,0,0,0-3.84,1.36,6.41,6.41,0,0,0-2.9,3.24,14.57,14.57,0,0,0-1,5.73,7,7,0,0,0,2.83,5.44,26,26,0,0,0,6.87,4Z"/></g></g></svg>