<svg width="1129.55px" height="999.3px" viewBox="0 0 1129.55 999.3" xmlns="http://www.w3.org/2000/svg" xmlns:xlink="http://www.w3.org/1999/xlink">
  <defs/>
  <g>
    <path stroke="none" fill="#000000" d="M565 825.35 L565 825.3 565.6 825.65 570.05 832.8 583.7 917 588.25 947.45 589.95 960.9 590.25 964.6 590 967.2 589.7 968.55 588.7 971.4 586.45 975.75 584.5 978.75 580.1 984.6 575.35 990 568.95 996.5 565.45 999.75 565 999.95 564.55 999.75 561 996.45 554.6 989.95 549.85 984.55 545.4 978.7 543.5 975.75 541.25 971.35 540.25 968.6 539.95 967.25 539.7 964.65 540 960.9 541.7 947.5 546.25 917.05 559.9 832.85 564.4 825.7 565 825.35 M565.25 742.45 L565.25 742.4 565.65 742.5 565.9 742.8 616.55 864.45 616.35 864.9 592.4 888.1 591.9 888.3 591.45 888.15 591.2 887.75 578.15 814.85 565.1 796.2 564.85 796.2 552.1 814.85 539 887.75 538.85 888.1 538.3 888.35 537.8 888.15 513.9 864.95 513.7 864.5 513.75 864.15 564.6 742.85 564.85 742.55 565.25 742.45 M1129.05 0.65 L1128.75 1.05 1129.35 1.35 1129.45 1.75 1129.3 33.2 1129.05 46.65 1128.65 58.35 1127.55 73.15 1126.4 81.5 1125.7 85.3 1123.95 92.2 1121.7 98.4 1120.35 101.3 1117.25 106.85 1115.45 109.55 1111.35 114.85 1106.5 120.3 1100.85 126.05 1086.85 139.3 990.45 229.3 990.45 246.3 990.6 246.35 1042.5 198 1043 197.8 1043.6 198.1 1043.7 198.5 1043.65 227.45 1043.5 239.85 1043.2 250.65 1042.65 260 1041.85 268.1 1041.35 271.75 1040.05 278.35 1038.35 284.15 1036.2 289.3 1034.95 291.7 1032.05 296.25 1028.6 300.65 1024.5 305.05 1019.7 309.65 1007.9 320.1 920.1 402.3 920.35 407.45 920.1 418.1 920.25 418.15 965 377.1 965.5 376.9 966.1 377.2 966.2 377.6 966 407.05 965.75 414.95 965 425.05 963.7 433.5 962.45 438.4 960.85 442.95 959.9 445.1 957.7 449.3 955 453.45 950 459.95 941.3 469.8 935.95 475.6 930.05 481.7 909.75 501.45 864.7 543.9 830.15 576.05 766.1 635.15 729.4 668.5 726.7 671.35 723.4 675.7 720.9 680.2 719.6 683.3 718.55 686.6 717.75 690 717.15 693.65 716.4 701.7 715.5 731.1 714.75 739.85 713.95 744.55 712.7 749.2 710.95 753.55 709.8 755.65 708.5 757.55 707 759.25 699.9 765.6 689.45 775.3 621.25 840.05 620.75 840.25 620.35 840.15 620.1 839.85 574.85 733.95 574.9 733.3 636.25 677.2 702.2 617.5 759.75 565.8 796.1 533.7 798.8 531.25 801.1 528.75 803.05 526.25 804.7 523.75 806.05 521.25 807.1 518.75 807.9 516.25 808.45 513.8 808.75 511.35 808.85 508.95 808.75 506.6 808 502.05 807.4 499.85 805.85 495.6 802.9 489.8 799.65 484.9 795.6 480 793.1 477.4 792.9 476.9 792.95 476.6 810 460.15 826.1 444.95 843.65 428.7 846.4 425.6 848.75 422.35 850.7 418.95 853.05 413.65 854.25 410.15 855.9 403.3 856.4 400.05 856.95 394.25 857.05 388.05 857.05 337.65 860.35 333.9 863.45 329.95 866.35 325.75 869.05 321.35 871.55 316.8 873.85 312.1 875.95 307.25 877.9 302.35 879.65 297.35 882.7 287.2 884 282.1 886.2 272 887.9 262.2 889.15 252.85 890.05 244.15 890.65 236.25 891.15 223.7 891.15 216 891.4 215.45 1128.6 0.85 1129.05 0.65 M0.6 0.65 L0.4 0.65 0.85 0.85 238.05 215.45 238.3 216 238.3 223.65 238.8 236.2 239.4 244.1 240.3 252.85 241.55 262.2 243.25 272 245.45 282.1 246.75 287.2 249.8 297.3 251.55 302.3 253.5 307.2 255.6 312 257.9 316.7 260.4 321.25 263.1 325.65 266 329.85 269.1 333.85 272.45 337.65 272.55 394.2 273.1 399.95 273.6 403.15 275.25 410 276.45 413.55 278.8 418.8 280.75 422.2 283.1 425.45 285.8 428.55 303.45 444.85 319.55 460.05 336.6 476.5 336.65 476.8 336.45 477.3 332.05 482.05 329.95 484.75 326.65 489.65 323.7 495.4 322.15 499.65 321.55 501.85 320.8 506.45 320.7 508.8 320.8 511.25 321.1 513.7 321.65 516.15 322.45 518.65 323.5 521.15 324.85 523.65 326.5 526.15 328.45 528.65 330.75 531.15 333.4 533.6 369.75 565.7 427.3 617.35 493.25 677.05 554.6 733.15 554.65 733.8 509.4 839.7 509.15 840 508.75 840.1 508.25 839.9 440.05 775.15 429.6 765.45 422.5 759.1 421 757.4 419.7 755.5 418.55 753.4 416.75 749 415.5 744.35 414.7 739.65 413.95 730.9 413.05 701.55 412.3 693.55 411.7 689.9 410.9 686.4 409.9 683.15 408.6 680 406.1 675.5 402.8 671.15 400.1 668.3 363.35 634.9 299.3 575.8 264.75 543.65 219.7 501.2 199.35 481.45 193.45 475.35 188.1 469.6 179.4 459.7 174.4 453.2 171.7 449 169.5 444.8 168.55 442.65 166.95 438.1 165.7 433.2 164.4 424.8 163.65 414.7 163.4 406.8 163.2 377.35 163.35 376.9 163.9 376.65 164.4 376.85 209.1 417.8 209.3 417.6 209.05 407.05 209.3 401.95 121.55 319.8 109.7 309.25 104.9 304.65 100.8 300.25 99 298.05 95.8 293.6 94.4 291.3 92.05 286.35 90.15 280.9 88.7 274.75 88.1 271.35 87.15 263.8 86.5 255.1 85.95 239.45 85.7 198.1 85.85 197.65 86.4 197.4 86.9 197.6 138.75 245.95 138.9 245.9 138.9 228.9 42.5 138.9 28.5 125.6 22.85 119.85 18 114.4 13.9 109.05 12.1 106.35 9 100.8 7.65 97.9 5.4 91.7 3.65 84.8 2.95 81.05 1.8 72.75 0.7 57.95 0.3 46.25 0.05 32.8 -0.1 1.35 0 0.95 0.6 0.65 M846.3 578.15 L846.35 578.1 846.8 578.25 847.05 578.8 847 611.6 846.6 617.05 845.9 620.45 844.35 625.25 843.05 628.25 841.65 631 838.55 635.9 835.45 639.85 832.75 642.8 804.55 669.75 726.1 742.3 725.6 742.5 725.3 742.45 724.9 741.95 724.9 741.65 725.45 738.95 726.05 731.8 726.4 709.35 726.95 700.45 727.8 694.5 728.65 691.05 729.8 688.15 731.2 685.9 845.8 578.35 846.3 578.15 M284.3 578.15 L284.3 578 284.8 578.2 399.4 685.75 400.85 688.05 402 691 402.85 694.45 403.7 700.4 404.2 709.25 404.55 731.65 405.15 738.8 405.7 741.6 405.65 742.05 405.35 742.4 405 742.5 404.5 742.3 326.05 669.75 297.85 642.75 295.15 639.8 292.05 635.85 288.95 630.95 287.55 628.2 286.3 625.3 284.75 620.45 284.05 617.05 283.65 611.65 283.6 578.85 283.85 578.3 284.3 578.15 M880.55 207.05 L880.7 206.85 881.3 207.15 881.4 207.55 881.55 214.05 881.3 226.4 880.9 234.2 879.75 247.35 877.75 261.75 875.8 271.7 874.65 276.75 871.9 286.8 868.5 296.65 866.55 301.45 864.4 306.15 862.05 310.7 859.5 315.1 856.75 319.3 853.8 323.3 850.6 327.1 780.3 394.05 777.3 397.15 773.2 402.05 771 405.1 768.8 408.45 766.7 412.15 764.75 416.15 763.1 420.35 762.4 422.55 761.35 427.1 760.8 431.8 760.9 436.65 761.2 439.15 762.35 444.15 763.6 448 766.25 454.9 769.1 460.95 770.65 463.75 773.9 469 777.45 474 790.4 490.05 792.9 493.35 794.85 496.55 795.65 498.1 796.8 501.1 797.2 502.65 797.65 505.6 797.7 507.15 797.4 510.05 797.05 511.6 796.05 514.6 793.7 519.15 790.3 523.9 787.5 527.2 784.3 530.65 780.65 534.25 772.15 542 685.8 618.65 626.15 671.05 583.35 707.95 571.7 717.8 571.25 717.95 570.95 717.9 570.55 717.45 570.55 717.15 600.85 564.4 629.65 535.85 668.1 535.8 705.35 497.45 705 491.55 704.55 488.55 703.15 482.75 702.25 479.9 700.05 474.4 698.8 471.75 696.05 466.65 691.5 459.6 688.3 455.3 685.1 451.4 679.15 444.9 671.25 437.5 671.25 401.9 880.05 207.25 880.55 207.05 M251.05 207.05 L250.9 206.95 251.4 207.15 460.2 401.8 460.2 437.4 452.35 444.75 446.4 451.25 443.2 455.15 440 459.45 435.45 466.55 432.7 471.65 431.45 474.3 429.25 479.8 428.35 482.65 426.95 488.45 426.5 491.45 426.1 497.4 463.35 535.75 501.8 535.8 530.6 564.35 560.9 717.05 560.85 717.5 560.55 717.8 560.2 717.9 559.75 717.75 548.1 707.9 505.3 671 445.65 618.6 359.3 541.95 350.8 534.15 347.15 530.55 343.9 527.1 341.1 523.8 337.75 519.05 335.4 514.5 334.4 511.6 334.05 510.05 333.75 507.15 333.8 505.6 334.25 502.7 334.65 501.15 335.85 498.1 338.6 493.35 341.05 490.05 354 474.05 357.55 469.05 360.8 463.8 362.35 461 365.25 454.95 367.9 448.05 369.15 444.25 370.35 439.25 370.65 436.85 370.75 432 370.25 427.3 369.2 422.75 368.5 420.55 366.85 416.3 364.95 412.35 362.85 408.65 360.65 405.25 358.45 402.2 354.35 397.3 351.35 394.2 281 327.25 277.8 323.4 274.85 319.4 272.1 315.2 269.6 310.8 267.25 306.25 265.1 301.55 263.15 296.75 259.75 286.9 257 276.85 255.85 271.8 253.95 261.85 251.95 247.45 250.8 234.3 250.4 226.55 250.15 214.2 250.3 207.75 250.45 207.35 251.05 207.05 M545.4 561.25 L545.4 561.3 586.2 561.3 586.5 561.35 586.9 561.8 566.1 666.05 565.65 666.6 565.15 666.6 564.7 666.05 544.7 562.1 544.85 561.5 545.4 561.25 M596.65 479.3 L596.75 479.45 607.95 481.1 608.3 481.25 620.9 491.8 621.15 492.35 621 492.75 620.45 493 598 493 597.8 493.2 598.6 505.2 598.75 505.4 633.45 511.4 646.3 522.35 646.55 522.9 646.4 523.3 645.85 523.55 595.1 523.55 565.75 549.25 565.3 549.45 564.85 549.25 535.6 523.55 484.85 523.55 484.45 523.4 484.2 523.05 484.2 522.65 484.4 522.3 497.25 511.35 531.95 505.35 532.1 505.15 532.9 493.15 532.7 492.95 510.25 492.95 509.85 492.8 509.6 492.45 509.6 492.05 509.85 491.7 522.45 481.15 522.8 481 533.8 479.35 534.2 479.4 565.25 507.1 565.5 507.1 596.2 479.5 596.65 479.3 M584.8 335.85 L584.75 335.8 585.25 336 585.45 336.45 594.55 446.75 594.3 447.35 587.65 453.2 587.8 470.8 587.6 471.3 565.7 490.6 565.25 490.8 564.8 490.6 542.75 471.1 542.85 453.25 536.2 447.4 535.95 446.8 545.05 336.5 545.25 336.05 545.7 335.85 546.2 336 546.45 336.4 550.4 357.95 553 423.2 565.1 432.5 565.35 432.5 577.55 423.2 580.15 357.95 584.1 336.4 584.35 336 584.8 335.85 M284.05 348 L284.05 347.95 284.55 348.15 349.9 408.65 352.05 411.05 353.9 413.45 355.45 415.9 356.75 418.35 357.8 420.85 358.6 423.35 359.2 425.85 359.6 428.4 359.75 433.3 359.6 435.7 358.85 440.4 358.3 442.65 356.85 447 355.15 451.05 353.25 454.75 349.45 460.85 346.45 464.85 345.4 465.95 345.1 466 344.6 465.8 293.55 418.35 290.5 414.75 288.85 412.2 287.5 409.65 286.35 406.9 284.75 401.6 284.2 399.1 283.6 394.5 283.4 390.8 283.35 348.7 283.45 348.3 284.05 348 M846.55 348 L846.6 347.95 847.2 348.25 847.3 348.65 847.25 390.85 847.05 394.55 846.45 399.15 845.9 401.7 844.3 406.9 843.15 409.6 841.75 412.25 840.1 414.8 837 418.4 786.05 465.8 785.55 466 785.25 465.95 784.2 464.8 781.2 460.8 777.4 454.7 775.5 451 773.8 446.95 772.35 442.6 771.8 440.35 771.05 435.65 770.9 433.25 771.05 428.45 771.4 425.95 772 423.4 772.8 420.9 773.85 418.4 775.15 415.95 776.7 413.5 778.55 411.1 780.7 408.7 846.05 348.2 846.55 348"/>
  </g>
</svg>