<svg width="1177.3px" height="999.4px" viewBox="0 0 1177.3 999.4" xmlns="http://www.w3.org/2000/svg" xmlns:xlink="http://www.w3.org/1999/xlink">
  <defs/>
  <g>
    <path stroke="none" fill="#000000" d="M587.65 802.35 L587.75 802.4 588.15 802.5 588.4 802.85 647 943.5 646.75 943.95 587.85 999.65 587.35 999.85 586.85 999.65 528.4 943.95 528.15 943.5 587 802.8 587.25 802.45 587.65 802.35 M1176.45 0.7 L1176.55 0.45 1177.15 0.8 1177.25 1.2 1177.2 37.25 1176.95 52.8 1176.4 66.55 1176 72.8 1174.85 84.3 1173.15 94.55 1172.1 99.3 1170.85 103.85 1169.45 108.2 1167.85 112.4 1166.05 116.45 1164.05 120.4 1161.8 124.3 1159.35 128.15 1156.65 132 1150.4 139.8 1143.05 147.9 1134.45 156.55 1124.55 166 1113.2 176.5 1016.6 264.25 1016.6 283.95 1016.8 284.05 1076.9 228.05 1077.4 227.85 1077.95 228.1 1078.1 228.6 1078.1 243.85 1077.85 271.85 1077.2 288.8 1076.4 298.5 1075.25 307.15 1074.5 311.1 1072.65 318.45 1070.3 325.2 1067.35 331.5 1063.7 337.55 1059.35 343.5 1054.2 349.55 1048.15 355.9 984.2 417.1 935.25 464.2 935.55 470.15 935.5 476.3 935.25 482.5 935.4 482.6 967.55 453.35 986.95 435.3 987.45 435.1 988 435.35 988.15 435.8 987.75 469.45 987.4 478.45 986.45 490 985.5 496.65 984.9 499.7 983.45 505.4 981.6 510.65 980.5 513.15 977.95 518.05 974.9 522.95 969.25 530.6 959.5 542.2 953.55 549 947.55 555.5 929.5 573.95 905.55 597.6 864.2 637.6 812.55 686.7 794.05 704 780.3 716.55 775.8 721.5 773.35 724.85 770.45 730.05 768.35 735.55 766.85 741.45 766.15 745.7 765.3 755 764.25 788.95 763.95 793.8 763.4 799.05 762.45 804.5 761 809.9 758.95 814.9 757.6 817.3 756.1 819.5 753.45 822.4 746.2 828.8 734.15 840.05 700.85 871.55 655.3 914.95 654.8 915.15 654.35 915 601.8 792.2 601.85 791.55 668.4 730.65 734.95 670.25 791.8 619.15 813.6 599.8 829.4 586 832.5 583.15 835.15 580.3 837.45 577.4 839.35 574.5 840.9 571.6 842.1 568.7 843 565.85 843.6 563.05 843.95 560.2 844.05 557.4 843.9 554.65 843.05 549.4 842.35 546.85 840.55 541.95 839.5 539.65 837.15 535.3 833.35 529.65 828.7 524 825.75 520.95 825.6 520.7 825.6 520.15 845.3 501.15 863.9 483.6 884.2 464.85 887.35 461.3 890.05 457.5 892.35 453.55 895.05 447.5 896.45 443.45 897.55 439.45 898.35 435.55 898.95 431.8 899.6 425.1 899.75 417.95 899.75 359.7 905.4 353.1 908.85 348.35 913.6 340.85 916.45 335.6 919.1 330.15 921.55 324.6 923.8 318.9 925.85 313.15 929.35 301.45 930.85 295.6 933.35 283.95 935.3 272.6 936.75 261.8 937.75 251.7 938.4 242.6 938.95 228.1 939 218.9 1175.95 0.9 1176.45 0.7 M0.65 0.7 L0.45 0.65 0.95 0.85 237.9 218.9 237.95 228.05 238.5 242.55 239.15 251.7 240.15 261.8 241.6 272.6 243.55 283.95 246.05 295.6 247.55 301.45 251.05 313.15 253.1 318.9 255.3 324.6 257.75 330.15 260.4 335.6 263.25 340.85 268 348.4 271.45 353.15 277.1 359.8 277.1 418 277.25 425.15 277.9 431.8 278.5 435.5 279.3 439.4 280.4 443.4 281.8 447.5 284.5 453.6 286.8 457.55 289.5 461.35 292.65 464.9 313 483.7 331.6 501.25 351.3 520.25 351.35 520.55 351.15 521.1 348.25 524.1 343.6 529.75 339.8 535.45 337.45 539.8 336.4 542.1 334.6 547 333.9 549.55 333.05 554.9 332.9 557.65 333 560.45 333.35 563.25 333.95 566.1 334.85 568.95 336.05 571.85 337.6 574.75 339.5 577.65 341.8 580.55 344.45 583.4 347.55 586.25 363.4 600.05 385.2 619.4 442.05 670.5 508.6 730.9 575.15 791.8 575.2 792.45 522.85 914.95 522.6 915.25 522.2 915.35 521.7 915.15 476.15 871.75 442.85 840.3 430.8 829.05 423.5 822.55 420.9 819.75 419.4 817.55 418.05 815.15 416 810.05 414.55 804.7 413.6 799.25 413.05 794 412.75 789.15 411.7 755.25 410.85 746 410.15 741.8 408.7 735.9 406.6 730.4 403.7 725.2 401.3 721.85 398.45 718.55 395.1 715.25 383.05 704.3 364.55 687 312.9 637.9 271.55 597.9 247.6 574.2 229.55 555.75 217.6 542.45 207.8 530.8 202.15 523.15 199.1 518.25 196.55 513.35 195.45 510.85 193.6 505.6 192.15 499.9 191.55 496.85 190.6 490.25 189.65 478.7 189.3 469.7 188.9 436.1 189.05 435.65 189.6 435.35 190.1 435.55 209.5 453.6 241.7 482.9 241.85 482.8 241.6 476.55 241.55 470.35 241.85 464.45 128.95 356.1 122.9 349.75 117.75 343.7 113.4 337.75 109.75 331.7 106.8 325.4 104.45 318.65 102.65 311.3 101.9 307.35 100.75 298.7 99.95 289 99.3 272.05 99.05 244.05 99.05 228.8 99.15 228.4 99.75 228.05 100.25 228.25 160.35 284.25 160.55 284.15 160.55 264.45 63.95 176.7 52.6 166.2 42.7 156.75 34.1 148.1 26.75 140 20.5 132.2 17.8 128.35 15.35 124.5 13.1 120.6 11.1 116.65 9.3 112.6 7.7 108.4 6.3 104.05 5.05 99.5 4 94.75 2.35 84.5 1.2 73.05 0.8 66.8 0.25 53.05 0 37.5 -0.05 1.45 0.05 1.05 0.65 0.7 M252.65 208.9 L252.65 208.75 253.15 208.95 466.5 408.9 466.5 450 460.4 455.55 457.4 458.5 450.5 466.05 446.8 470.55 443.1 475.5 437.85 483.7 434.7 489.6 433.25 492.65 430.75 499 429.7 502.25 428.1 508.95 427.55 512.4 427.2 515.9 427.1 519.3 471.1 563.35 513.35 563.6 547.85 596.6 582.85 773.2 582.8 773.65 582.5 774 582.15 774.1 581.7 773.95 568.4 762.7 523 723.7 463.7 671.75 372.8 591.1 363.9 582.55 360.15 578.55 355.5 572.9 352 567.5 350.3 564 349.65 562.25 348.8 558.9 348.55 557.2 348.45 555.45 348.65 552.1 349.45 548.6 350.85 545.05 351.75 543.25 354 539.6 356.85 535.8 367.25 523.1 371.75 517.3 375.9 511.55 379.65 505.5 381.4 502.3 384.7 495.3 387.8 487.35 389.25 482.95 390.05 480 390.6 477.15 390.95 474.35 391.05 468.75 390.45 463.3 389.25 458.05 388.45 455.5 386.55 450.6 383.15 443.85 379.35 437.85 376.8 434.35 372.1 428.7 368.65 425.1 287.4 347.75 283.7 343.35 280.3 338.7 277.15 333.85 274.25 328.75 271.55 323.5 269.1 318.1 266.85 312.55 264.8 306.9 262.95 301.15 259.75 289.55 258.4 283.75 256.2 272.25 255.3 266.6 253.85 255.65 252.5 240.45 252 231.45 251.75 217.2 251.9 209.6 252.05 209.2 252.65 208.9 M924.5 208.9 L924.4 209.05 925 209.35 925.15 209.75 925.3 217.4 925.05 231.65 924.55 240.65 923.2 255.85 921.75 266.8 920.85 272.45 918.65 283.95 917.3 289.75 914.1 301.35 912.25 307.1 910.2 312.75 907.95 318.3 905.5 323.7 902.8 328.95 899.9 334 896.75 338.85 893.35 343.5 889.65 347.9 808.45 425.25 805 428.85 800.3 434.5 797.75 438 793.95 444 790.55 450.75 788.65 455.65 787.85 458.2 786.65 463.45 786.05 468.9 786.15 474.5 786.5 477.35 787.05 480.25 787.85 483.1 789.3 487.55 792.35 495.5 795.65 502.5 797.4 505.7 801.15 511.75 805.25 517.5 809.8 523.3 820.25 536.05 823.1 539.9 825.35 543.6 826.25 545.4 827.6 548.85 828.4 552.35 828.65 555.7 828.55 557.45 827.95 560.8 827.4 562.6 826.75 564.3 825.05 567.8 821.55 573.2 816.9 578.85 813.2 582.8 804.3 591.3 713.45 671.95 654.15 723.9 623.75 750.1 595.5 774.1 595.05 774.25 594.7 774.15 594.4 773.8 594.35 773.35 629.35 596.75 663.8 563.8 706.05 563.55 750.05 519.5 749.95 516.15 749.6 512.65 749.05 509.2 747.45 502.45 746.4 499.15 743.9 492.8 742.45 489.75 739.3 483.85 734.05 475.7 730.4 470.75 726.7 466.25 719.8 458.7 716.8 455.75 710.65 450.1 710.65 409.05 924 209.1 924.5 208.9 M563.85 593.15 L563.85 593.1 611.15 593.1 611.45 593.15 611.85 593.65 587.75 714.5 587.3 715.05 586.8 715.05 586.35 714.5 563.15 594 563.3 593.4 563.85 593.15 M623.15 498.45 L623.1 498.5 636.05 500.4 636.4 500.55 651.1 512.85 651.35 513.45 651.2 513.85 650.6 514.15 624.45 514.15 624.25 514.35 625.2 528.3 625.4 528.5 665.55 535.45 665.9 535.6 680.5 548.2 680.75 548.8 680.6 549.2 680 549.5 621.2 549.5 587.25 579.25 586.75 579.45 586.25 579.25 552.4 549.5 493.55 549.5 493.15 549.35 492.9 549 492.9 548.55 493.15 548.2 507.75 535.6 508.1 535.45 548.25 528.5 548.45 528.3 549.4 514.35 549.2 514.15 523.05 514.15 522.65 514 522.4 513.65 522.4 513.2 522.65 512.85 537.35 500.55 537.7 500.4 550.5 498.5 550.9 498.55 586.8 530.55 587.1 530.55 622.65 498.65 623.15 498.45 M609.5 332.3 L609.6 332.3 610.1 332.5 610.3 332.95 620.9 460.9 620.65 461.5 612.9 468.3 613.05 488.95 587.5 511.5 587 511.7 586.5 511.5 561.15 489.15 560.95 488.65 561.15 468.3 553.4 461.5 553.15 460.9 563.7 332.95 563.9 332.5 564.4 332.3 564.9 332.45 565.15 332.9 569.8 358.3 572.8 433.7 586.75 444.45 587 444.45 601.15 433.7 604.15 358.3 608.8 332.9 609.05 332.45 609.5 332.3 M290.7 371.7 L290.7 371.8 291.2 372 366.8 442.05 369.3 444.8 371.45 447.6 373.25 450.45 374.75 453.3 375.95 456.15 376.9 459 377.55 461.85 378 464.75 378.2 467.6 378.2 470.45 378 473.2 377.1 478.6 376.45 481.2 374.8 486.2 371.75 493.05 368.4 498.95 366.25 502.2 362.8 506.8 361.6 508.1 361.3 508.15 360.8 507.95 301.8 453.1 300.55 451.75 298.3 448.95 296.35 446 294.8 443.05 293.45 439.9 292.4 436.8 291.6 433.8 290.55 428.15 290.1 423.3 290 372.45 290.1 372.05 290.7 371.7 M886.75 370.3 L886.9 370.15 887.5 370.5 887.6 370.9 887.45 421.8 887 426.65 885.95 432.35 885.15 435.4 884.1 438.4 882.75 441.55 881.15 444.6 879.2 447.55 876.9 450.35 875.6 451.7 816.65 506.5 816.15 506.7 815.8 506.6 814.6 505.25 811.15 500.65 809 497.4 805.65 491.55 802.6 484.7 800.95 479.65 800.3 477.05 799.4 471.65 799.2 468.85 799.4 463.25 799.85 460.35 800.5 457.5 801.45 454.65 802.65 451.8 804.15 448.95 805.95 446.1 808.1 443.3 810.6 440.55 886.25 370.5 886.75 370.3"/>
  </g>
</svg>