<svg width="999.85px" height="1420.85px" viewBox="0 0 999.85 1420.85" xmlns="http://www.w3.org/2000/svg" xmlns:xlink="http://www.w3.org/1999/xlink">
  <defs/>
  <g>
    <path stroke="none" fill="#000000" d="M866.85 611.05 L866.7 611.1 867.2 611.25 867.55 611.65 999.8 966.7 999.85 967.1 999.7 967.5 501.9 1422.75 501.6 1422.9 501.3 1422.95 500.85 1422.85 500.5 1422.45 500.45 1421.9 504.4 1405.05 508.9 1385.15 517.95 1343.7 526.95 1300.4 535.95 1255.65 544.85 1209.85 553.7 1163.45 571.05 1070.35 587.85 979.6 596 936.1 603.95 894.45 611.65 855 619.15 818.15 626.35 784.35 629.85 768.7 633.25 754.2 633.45 753.8 637.2 749.65 642.25 744.35 655.55 730.95 711.6 675.6 732.3 654.8 752.3 634.15 761.75 624.1 770.45 614.6 770.75 614.4 771.1 614.3 798.05 613.25 866.85 611.05 M133.15 611.05 L133.15 610.9 201.95 613.1 228.9 614.15 229.25 614.25 229.55 614.45 238.2 623.9 247.65 633.95 267.65 654.6 288.35 675.4 344.4 730.75 357.7 744.2 362.75 749.55 366.45 753.65 366.65 754.05 370.05 768.55 373.55 784.2 380.75 818 388.2 854.85 395.9 894.3 403.85 935.95 412 979.45 428.8 1070.2 446.15 1163.3 455 1209.7 463.9 1255.5 472.9 1300.25 481.9 1343.55 490.95 1385 495.45 1404.9 499.4 1421.8 499.4 1422.2 499.25 1422.55 498.95 1422.8 498.55 1422.9 498.25 1422.85 497.95 1422.7 0.15 967.45 0 967.05 0.05 966.65 132.3 611.6 132.65 611.2 133.15 611.05 M429.7 749.25 L429.65 749.3 565.75 750.55 566.1 750.6 566.4 750.8 566.6 751.1 566.65 751.45 497.75 1099.65 497.65 1099.95 497.2 1100.35 496.9 1100.4 496.6 1100.35 496.35 1100.2 496.15 1099.95 496.05 1099.65 428.8 750.35 428.8 749.95 429 749.6 429.3 749.35 429.7 749.25 M633.2 374.15 L633.1 374.15 633.5 374.25 633.7 374.4 633.95 374.85 634 375.1 627.2 567.45 627.1 567.8 626.9 568.1 496.55 682.55 496.3 682.7 496 682.75 495.7 682.7 495.45 682.55 365.55 568.1 365.35 567.8 365.25 567.45 358.5 375.25 358.55 374.9 358.7 374.65 359.15 374.35 359.75 374.35 360 374.5 496.35 496.35 496.7 496.35 632.6 374.35 632.9 374.2 633.2 374.15 M386.5 2.15 L386.35 2.1 386.85 2.25 387.2 2.65 441.65 125.95 495.65 167.2 495.95 167.2 550.55 126.1 550.65 125.95 588.1 3.15 588.4 2.7 588.65 2.55 589 2.5 589.55 2.75 589.85 3.25 625.35 230.4 625.35 230.8 625.1 231.25 594.95 257.4 594.85 257.65 595.6 336.6 595.5 336.95 595.25 337.25 496.7 424 496.45 424.15 496.15 424.2 495.85 424.15 495.6 424 397.1 337.2 396.9 336.9 396.85 336.55 397.6 257.6 397.5 257.35 367.35 231.2 367.1 230.85 367.05 230.45 385.55 3 385.8 2.45 386.05 2.25 386.5 2.15"/>
  </g>
</svg>