<svg width="1077.15px" height="999.45px" viewBox="0 0 1077.15 999.45" xmlns="http://www.w3.org/2000/svg" xmlns:xlink="http://www.w3.org/1999/xlink">
  <defs/>
  <g>
    <path stroke="none" fill="#000000" d="M608.45 904.55 L608.35 904.6 608.65 904.65 608.95 904.9 609.05 905.25 608.75 938 608.7 938.25 608.55 938.5 539.15 999.8 538.95 999.9 538.7 999.95 538.45 999.9 538.25 999.8 468.85 938.55 468.65 938.35 468.6 938.05 468.3 905.3 468.35 905.05 468.45 904.85 468.8 904.6 469 904.55 469.25 904.6 469.45 904.7 538.75 961.45 608.05 904.7 608.25 904.6 608.45 904.55 M1076.15 0.6 L1076.4 0.5 1076.65 0.55 1076.95 0.8 1077.05 1.15 1077 50 1076.85 70.05 1076.5 87.2 1076.25 94.8 1075.9 101.8 1075.45 108.25 1074.9 114.15 1074.25 119.6 1073.5 124.6 1072.65 129.2 1071.65 133.45 1070.5 137.35 1069.2 141 1067.75 144.4 1066.1 147.6 1064.3 150.65 1062.3 153.6 1060.1 156.45 1057.7 159.25 1055.1 162.05 1052.25 164.9 1045.85 170.95 1029.9 185.4 854.2 349.7 854.15 349.85 854.15 390.1 854.3 390.15 908.7 340.55 950 302.75 966.2 287.8 975.4 279.2 975.6 279.05 975.85 279 976.15 279.05 976.45 279.3 976.55 279.7 973.2 328.1 971.7 347.7 970.3 364.15 968.9 377.8 968.2 383.7 967.45 389 966.7 393.8 965.9 398.1 965.05 401.95 964.15 405.4 963.2 408.5 962.2 411.25 961.15 413.7 960 415.95 958.8 418 957.5 419.85 956.1 421.6 954.6 423.3 951.3 426.6 943.15 434.1 938.15 439.05 763.55 597.05 763.5 597.25 763.85 602.1 764.1 607.3 764.3 617.2 764.2 627.1 764.4 627.3 852.5 548 852.7 547.85 852.95 547.8 853.2 547.85 853.5 548.1 853.6 548.45 853.55 563.35 853.45 578.25 853.2 591.9 852.8 604.4 852.2 615.8 851.8 621.1 851.35 626.15 850.85 631 850.25 635.65 849.6 640.05 848.85 644.25 848 648.25 847.05 652.1 846 655.75 844.85 659.25 843.6 662.6 842.25 665.8 840.8 668.9 839.2 671.85 837.5 674.7 835.65 677.45 833.65 680.1 831.55 682.7 829.3 685.2 826.9 687.65 824.35 690.05 539.8 941.45 539.6 941.6 539.35 941.65 539.05 941.6 538.8 941.4 538.65 941.15 538.65 940.85 542.45 924.35 546.85 904.05 551.4 882 556.1 858.55 560.9 834.05 565.75 808.8 584.9 707.15 593.8 660.6 597.95 639.55 601.85 620.4 605.45 603.5 608.65 589.4 608.8 589.1 610.4 587.35 612.55 585.15 618 579.75 640.7 557.8 649.25 549.35 657.75 540.65 661.85 536.3 665.65 532.15 665.85 532 666.1 531.95 671.95 531.75 679.85 531.6 697.9 531.35 719.9 531.2 720.1 531.05 720.4 527.75 720.6 524.25 720.65 520.75 720.55 517.3 720.3 513.85 719.9 510.45 719.35 507.05 718.65 503.65 717.8 500.3 716.8 496.95 715.65 493.6 714.35 490.25 712.9 486.85 711.3 483.45 709.55 480.05 707.6 476.6 705.5 473.15 703.25 469.65 700.85 466.1 698.25 462.55 695.5 458.95 692.6 455.3 689.5 451.6 686.25 447.8 682.8 443.95 679.2 440.05 671.45 432.05 662.95 423.7 653.9 415.15 653.75 414.95 653.7 414.7 653.7 380.5 653.75 380.25 653.9 380 1075.7 0.8 1075.9 0.65 1076.15 0.6 M0.6 0.6 L0.65 0.55 0.9 0.6 1.1 0.75 422.95 379.95 423.1 380.2 423.15 380.5 423.15 414.7 423.1 415 422.95 415.2 413.95 423.7 405.45 432.05 397.7 440.05 394.1 443.95 390.65 447.8 387.4 451.55 384.3 455.25 381.4 458.9 378.65 462.5 376.05 466.05 373.65 469.6 371.4 473.1 369.3 476.55 367.35 480 365.6 483.4 364 486.8 362.55 490.2 361.25 493.55 360.1 496.9 359.1 500.25 358.25 503.6 357.55 507 357 510.4 356.6 513.8 356.35 517.25 356.25 520.7 356.3 524.2 356.5 527.7 356.8 531.05 357 531.2 379 531.35 397.05 531.6 404.95 531.75 410.75 531.95 411 532 411.2 532.15 415 536.25 419.1 540.6 427.6 549.3 436.15 557.8 458.85 579.75 464.3 585.15 466.45 587.4 468 589.15 468.15 589.45 471.35 603.55 474.95 620.4 478.85 639.55 483 660.6 491.9 707.15 511.05 808.8 515.9 834.05 520.7 858.55 525.4 882 529.95 904.05 534.35 924.35 538.15 940.85 538.15 941.15 538 941.4 537.75 941.6 537.45 941.65 537.2 941.6 537 941.45 252.45 690.05 249.9 687.65 247.5 685.2 245.25 682.7 243.15 680.1 241.15 677.45 239.3 674.7 237.6 671.85 236 668.9 234.55 665.8 233.2 662.6 231.95 659.25 230.8 655.75 229.75 652.1 228.8 648.25 227.95 644.25 227.2 640.05 226.55 635.65 225.95 631.05 225.45 626.2 225 621.15 224.6 615.85 224 604.45 223.6 592 223.35 578.35 223.25 563.45 223.2 548.55 223.25 548.3 223.35 548.1 223.7 547.9 223.9 547.85 224.15 547.9 224.35 548.05 312.5 627.4 312.65 627.35 312.55 617.25 312.6 612.45 312.75 607.3 313 602.1 313.35 597.3 313.3 597.1 138.65 439.05 133.75 434.2 125.55 426.65 122.2 423.35 120.7 421.65 119.3 419.9 118 418 116.8 415.95 115.65 413.7 114.6 411.25 113.6 408.5 112.7 405.45 111.85 402 111 398.15 110.2 393.85 109.45 389.05 108.7 383.75 108 377.85 106.6 364.2 105.2 347.75 103.7 328.2 100.35 279.8 100.45 279.4 100.75 279.15 101.05 279.1 101.3 279.15 101.5 279.3 110.7 287.9 126.9 302.85 168.2 340.65 222.6 390.25 222.75 390.2 222.75 349.95 222.7 349.8 47 185.5 31.05 171 24.65 164.95 21.8 162.1 19.2 159.25 16.8 156.4 14.6 153.55 12.6 150.6 10.8 147.55 9.15 144.35 7.7 140.95 6.4 137.3 5.25 133.4 4.25 129.2 3.4 124.6 2.65 119.6 2 114.2 1.5 108.3 1.05 101.85 0.7 94.85 0.45 87.25 0.1 70.1 -0.05 50.05 -0.1 1.25 0 0.9 0.3 0.65 0.6 0.6 M497.7 582.95 L580.6 582.95 580.9 583 581.15 583.2 581.3 583.45 581.3 583.75 539.05 794.95 538.95 795.15 538.6 795.45 538.35 795.5 538.1 795.45 537.75 795.15 537.65 794.95 497 583.75 497 583.45 497.15 583.2 497.4 583 497.7 582.95 M600.55 419.45 L600.7 419.25 615.15 422.55 615.45 422.7 642.05 444.95 642.2 445.1 642.3 445.5 642.15 445.9 641.8 446.15 641.6 446.2 603 446.2 602.8 446.4 604.5 470.95 604.65 471.15 657.85 483.2 658.15 483.35 684.55 506.15 684.7 506.3 684.8 506.7 684.65 507.1 684.3 507.35 684.1 507.4 597.5 507.4 597.35 507.45 538.6 559 538.4 559.1 538.15 559.15 537.9 559.1 537.7 559 479.15 507.45 479 507.4 392.4 507.4 392 507.3 391.75 507 391.75 506.6 391.95 506.25 418.3 483.45 418.6 483.3 471.85 471.25 472 471.05 473.7 446.5 473.5 446.3 434.9 446.3 434.5 446.2 434.25 445.9 434.25 445.5 434.45 445.15 461.05 422.9 461.35 422.75 475.6 419.5 476.05 419.55 538.15 475 538.4 475 600.1 419.65 600.3 419.5 600.55 419.45 M577.4 193 L577.4 193.05 577.65 193.1 577.85 193.25 578 193.45 578.05 193.7 596.55 355 596.5 355.3 596.3 355.6 582.8 367.3 582.7 367.45 583.05 402.95 583 403.2 582.85 403.4 538.55 442.4 538.35 442.5 538.1 442.55 537.85 442.5 537.65 442.4 493.4 403.45 493.25 403.2 493.2 402.9 493.55 367.4 493.45 367.25 479.95 355.55 479.75 355.3 479.7 355 498.2 193.7 498.25 193.45 498.4 193.25 498.6 193.1 498.85 193.05 499.1 193.1 499.3 193.2 499.45 193.35 499.55 193.55 508.35 241.55 513.55 307.75 513.65 307.9 537.85 326.35 538.1 326.35 562.6 307.9 562.7 307.75 567.9 241.6 576.7 193.5 576.8 193.3 576.95 193.15 577.15 193.05 577.4 193"/>
  </g>
</svg>