<?xml version="1.0" encoding="utf-8"?>
<!-- Generator: Adobe Illustrator 16.0.0, SVG Export Plug-In . SVG Version: 6.00 Build 0)  -->
<!DOCTYPE svg PUBLIC "-//W3C//DTD SVG 1.1//EN" "http://www.w3.org/Graphics/SVG/1.1/DTD/svg11.dtd">
<svg version="1.1" id="Layer_1" xmlns="http://www.w3.org/2000/svg" xmlns:xlink="http://www.w3.org/1999/xlink" x="0px" y="0px"
	 width="902.227px" height="732.063px" viewBox="0 0 902.227 732.063" enable-background="new 0 0 902.227 732.063"
	 xml:space="preserve">
<g id="Layer_3_copy">
	<g>
		<path fill="#953B09" d="M595.385,601.877c-0.576,0.654-1.163,1.244-1.693,1.779c-1.236,1.244-3.045,3.061-5.335,5.354
			c-4.568,4.58-11.057,11.074-18.724,18.744c-14.804,14.809-34.006,34.004-52.291,52.275h80.771l103.819-82h-102.93
			c-1.103,1.328-2.291,2.623-3.594,3.873L595.385,601.877z"/>
		<path fill="#953B09" d="M332.423,627.586c-7.622-7.625-14.065-14.076-18.604-18.625c-2.274-2.279-4.071-4.084-5.298-5.318
			c-0.527-0.531-1.109-1.115-1.682-1.764l-0.024,0.025c-1.304-1.25-2.491-2.547-3.594-3.873h-97.059l103.82,82h74.901
			C366.53,661.688,347.25,642.417,332.423,627.586z"/>
		<path fill="#953B09" d="M287.801,530.592c-1.485-1.465-5.317-5.268-10.647-10.561h-169.75l75.97,60h110.422
			c-3.147-10.539-3.339-21.438-3.492-30.428C290.177,542.2,290.021,532.983,287.801,530.592z"/>
		<path fill="#953B09" d="M611.924,549.604c-0.152,8.99-0.346,19.889-3.493,30.428h116.293l75.971-60H625.072
			c-5.405,5.369-9.183,9.115-10.646,10.561C612.208,532.983,612.05,542.2,611.924,549.604z"/>
		<path fill="#953B09" d="M823.484,502.032l48.5-38.311l-7.87-11.689H693.47c-17.416,17.32-35.652,35.455-50.285,50H823.484z"/>
		<path fill="#953B09" d="M43.994,452.032l-7.88,11.689l48.5,38.311h174.425c-16.297-16.199-36.065-35.855-50.289-50H43.994z"/>
	</g>
</g>
<path fill="#FD7022" d="M651.607,397.788c8.059,9.24,12.833,17.407,14.457,25.523c2.223,11.117-1.711,21.504-11.926,31.256
	c-7.925,7.533-55.341,50.23-129.758,116.957c-21.288,19.088-43.402,38.9-65.74,58.904c5.377,4.814,10.766,9.639,16.152,14.461
	c10.768,9.639,20.766,18.586,29.738,26.613c1.33,1.189,2.597,2.322,3.797,3.396c37.773-37.746,80.313-80.273,80.157-80.211
	c22.156-21.27,7.091-58.492,18.611-70.9c0.38-0.34,173.116-172.07,172.823-171.938c15.279-16.157,13.385-50.172,13.294-77.992
	c0.091,0.194-27.475,24.815-27.475,24.815V285.38c0,0,64.724-65.108,64.698-65.584c17.675-16.462,14.166-31.617,14.181-80.651
	c-0.015,0.406-62.926,59.38-62.926,59.38v-16.839c0,0,101.156-101.083,101.034-101.036c12.676-12.819,19.5-9.2,19.5-80.65
	L748.902,140.918l-0.011-0.034l0,0c0.147,18.604-1.341,38.387-5.298,57.404c-5.383,25.871-14.811,46.909-29.199,61.365
	c0.025,0.826,0.054,1.745,0.082,2.748c0.104,3.526,0.207,7.371,0.305,11.407c0.159,6.627,0.283,13.105,0.358,19.189
	c0.056,4.339,0.083,8.385,0.083,12.083c0,15.686-0.494,21.198-3.461,28.698c-2.955,7.475-8.266,14.63-17.305,23.311
	c-3.973,3.816-8.454,8.098-13.354,12.763c-0.279,0.266-0.279,0.266-0.561,0.531c-7.188,6.842-14.888,14.139-22.588,21.414
	C655.691,393.936,653.563,395.944,651.607,397.788L651.607,397.788z M645.629,391.265c-18.576-20.794-20.17-47.943-4.794-62.525
	c3.486-3.307,3.38-3.186,5.069-4.773c3.172-2.979,7.858-7.378,14.485-13.596c6.273-5.886,32.759-30.728,45.415-42.601
	c0.055,2.017,0.107,4.106,0.159,6.25c0.158,6.596,0.281,13.041,0.357,19.087c0.054,4.304,0.082,8.313,0.082,11.971
	c0,14.541-0.432,19.335-2.836,25.418c-2.425,6.13-7.005,12.301-15.2,20.173c-3.963,3.806-8.436,8.079-13.327,12.736
	c-0.278,0.266-0.278,0.266-0.558,0.531c-7.18,6.833-14.872,14.122-22.565,21.391C649.676,387.446,647.568,389.437,645.629,391.265
	L645.629,391.265z M442.7,630.43c-22.338-20.004-44.452-39.816-65.741-58.904C302.542,504.799,255.127,462.1,247.203,454.567
	c-10.216-9.75-14.148-20.139-11.925-31.254c1.623-8.117,6.398-16.284,14.457-25.523l0,0c-1.955-1.845-4.083-3.854-6.348-5.992
	c-7.7-7.275-15.401-14.571-22.589-21.414c-0.279-0.266-0.279-0.266-0.559-0.531c-4.901-4.666-9.382-8.947-13.355-12.763
	c-9.04-8.681-14.35-15.836-17.305-23.311c-2.965-7.5-3.46-13.012-3.46-28.698c0-3.698,0.029-7.744,0.083-12.083
	c0.076-6.084,0.2-12.562,0.359-19.189c0.096-4.036,0.2-7.881,0.304-11.407c0.029-1.003,0.057-1.922,0.083-2.748
	c-14.389-14.456-23.816-35.494-29.2-61.365c-4.011-19.278-5.485-39.343-5.291-58.169l0,0L0,0c0,71.45,6.826,67.831,19.498,80.651
	c-0.122-0.047,101.035,101.036,101.035,101.036v16.839c0,0-62.912-58.975-62.925-59.38c0.014,49.034-3.495,64.189,14.18,80.651
	c-0.025,0.477,64.698,65.584,64.698,65.584v13.294c0,0-27.565-24.621-27.475-24.815c-0.09,27.82-1.986,61.835,13.294,77.992
	c-0.293-0.132,172.443,171.598,172.824,171.938c11.521,12.408-3.545,49.631,18.612,70.902c-0.154-0.064,42.069,42.148,79.739,79.791
	c1.061-0.949,2.171-1.941,3.328-2.979c8.974-8.029,18.972-16.977,29.738-26.613C431.936,640.067,437.323,635.245,442.7,630.43
	L442.7,630.43L442.7,630.43z M450.515,637.706l0.6,3.07v91.285c0,0-22.956-22.928-50.102-50.051
	c0.927-0.828,1.889-1.688,2.886-2.582c8.973-8.027,18.972-16.977,29.739-26.613C439.267,647.776,444.896,642.737,450.515,637.706
	L450.515,637.706L450.515,637.706z M455.338,619.114l30.34-155.594l30.135-28.359h34.563l38.109-37.224
	c0,0,13.47-16.201-32.792-62.04V302.22L738.05,131.849c0.769,20.464-0.436,42.974-4.867,64.272
	c-5.199,24.991-14.314,44.79-27.87,57.532c0.681-0.639-43.812,41.095-52.197,48.962c-6.628,6.219-11.316,10.619-14.49,13.6
	c-1.692,1.589-5.105,4.809-5.105,4.809c-20.459,19.401-17.83,54.363,6.011,79.307c19.152,20.109,21.688,32.779,7.274,46.537
	c-7.795,7.41-55.34,50.225-130.018,117.186C497.051,581.749,476.346,600.299,455.338,619.114L455.338,619.114L455.338,619.114z
	 M255.711,391.265c18.576-20.794,20.17-47.943,4.794-62.525c-3.486-3.307-3.38-3.186-5.07-4.773
	c-3.172-2.979-7.859-7.378-14.486-13.596c-6.273-5.886-32.757-30.728-45.415-42.601c-0.054,2.017-0.107,4.106-0.159,6.25
	c-0.158,6.596-0.282,13.041-0.357,19.087c-0.054,4.304-0.083,8.313-0.083,11.971c0,14.541,0.431,19.335,2.836,25.418
	c2.423,6.13,7.003,12.301,15.2,20.173c3.963,3.806,8.435,8.079,13.327,12.736c0.279,0.266,0.279,0.266,0.558,0.531
	c7.179,6.833,14.872,14.122,22.565,21.391C251.664,387.446,253.773,389.437,255.711,391.265L255.711,391.265L255.711,391.265z
	 M163.321,131.049l183.212,171.17v33.678c-46.261,45.839-32.792,62.04-32.792,62.04l38.109,37.224h34.564l30.133,28.359
	l30.528,156.555c-21.376-19.145-42.451-38.025-62.523-56.023c-74.677-66.959-122.222-109.773-130.017-117.186
	c-14.412-13.756-11.879-26.427,7.275-46.535c23.841-24.943,26.469-59.906,6.011-79.308c0,0-3.415-3.219-5.107-4.809
	c-3.173-2.98-7.862-7.381-14.49-13.6c-8.386-7.867-52.877-49.601-52.196-48.962c-13.556-12.742-22.672-32.542-27.872-57.532
	C163.667,174.545,162.492,151.726,163.321,131.049L163.321,131.049L163.321,131.049z M451.581,638.381l-0.467,2.396v91.285
	c0,0,22.721-22.693,49.682-49.635c-1.067-0.955-2.186-1.955-3.353-2.998c-8.975-8.029-18.974-16.977-29.74-26.615
	C462.326,648,456.949,643.188,451.581,638.381L451.581,638.381L451.581,638.381z M450.229,405.915v43.426l-28.361-25.701H368.69
	l14.181-12.407l35.451-6.204V392.62h-23.043l13.294-11.521l11.521-1.772L450.229,405.915L450.229,405.915z M450.229,405.915v43.426
	l28.36-25.701h53.176l-14.18-12.407l-35.451-6.204V392.62h23.043l-13.294-11.521l-11.521-1.772L450.229,405.915L450.229,405.915z
	 M451.114,459.977v107.238l-21.271-107.238H451.114L451.114,459.977z M451.114,459.977v107.238l21.271-107.238H451.114
	L451.114,459.977z M438.706,323.49l11.522,8.863v58.494l-20.385-18.611v-19.498l-7.977-6.204l9.749-110.784l4.431,24.816
	L438.706,323.49L438.706,323.49z M461.749,323.49l-11.521,8.863v58.494l20.384-18.611v-19.498l7.977-6.204L468.84,235.75
	l-4.432,24.816L461.749,323.49L461.749,323.49z"/>
</svg>
