<?xml version="1.0" encoding="utf-8"?>
<!-- Generator: Adobe Illustrator 16.0.0, SVG Export Plug-In . SVG Version: 6.00 Build 0)  -->
<!DOCTYPE svg PUBLIC "-//W3C//DTD SVG 1.1//EN" "http://www.w3.org/Graphics/SVG/1.1/DTD/svg11.dtd">
<svg version="1.1" id="Layer_1" xmlns="http://www.w3.org/2000/svg" xmlns:xlink="http://www.w3.org/1999/xlink" x="0px" y="0px"
	 width="895.137px" height="762.196px" viewBox="0 0 895.137 762.196" enable-background="new 0 0 895.137 762.196"
	 xml:space="preserve">
<g id="Layer_3_copy_2">
	<g>
		<path fill="#953B09" d="M329.941,648.559c-2.728-2.598-4.96-4.729-6.513-6.209l-1.809-1.73c-0.352-0.336-0.671-0.672-0.964-1.008
			l-0.03,0.027c-11.305-12.061-14.728-25.346-15.805-37.654H202.619l103.82,82h60.729c-5.382-5.119-11.049-10.512-16.5-15.695
			C342.801,660.803,335.387,653.749,329.941,648.559z"/>
		<path fill="#953B09" d="M574.48,638.723c-0.297,0.34-0.62,0.68-0.976,1.02l-1.828,1.75c-1.568,1.498-3.829,3.65-6.584,6.275
			c-5.505,5.244-12.993,12.371-20.921,19.914c-5.676,5.4-11.575,11.014-17.136,16.303h67.532l103.819-82H590.238
			c-1.165,12.059-4.692,25-15.729,36.77L574.48,638.723z"/>
		<path fill="#953B09" d="M590.866,583.985h130.313l75.971-60H629.988c-15.352,14.848-29.26,28.297-29.526,28.535
			C591.915,560.182,591.029,569.614,590.866,583.985z"/>
		<path fill="#953B09" d="M294.658,553.389c-0.27-0.24-14.724-14.217-30.427-29.404H103.859l75.97,60h124.433
			C304.07,570.108,303.046,560.911,294.658,553.389z"/>
		<path fill="#953B09" d="M648.593,505.985h171.347l48.5-38.311l-7.87-11.689H700.254c-9.331,9.033-19.543,18.92-29.767,28.813
			C670.23,485.047,660.617,494.35,648.593,505.985z"/>
		<path fill="#953B09" d="M193.96,455.985H40.449l-7.88,11.689l48.5,38.311h164.556c-11.591-11.215-20.726-20.055-20.976-20.295
			C214.087,475.469,203.538,465.256,193.96,455.985z"/>
	</g>
</g>
<path fill="#FD7022" d="M627.863,397.375c9.307,12.549,13.162,22.09,12.32,30.869c-0.854,8.91-5.651,15.43-17.149,25.961
	c-7.453,6.609-39.327,35.119-87.867,78.582c-19.555,17.51-40.502,36.27-61.445,55.029c-6.516,5.836-12.618,11.303-18.183,16.287
	c0.579,0.521,0.652,0.588,0.896,0.805l1.35,1.889l39.011,92.146c14.06-13.369,70.545-67.082,70.421-67.031
	c26.589-28.361,0.887-63.813,26.589-86.855c0.38-0.338,139.438-134.846,139.146-134.713c21.271-22.156,18.702-51.058,18.611-78.878
	c0.091,0.194-39.883,36.337-39.883,36.337v-14.181l91.286-86.854c19.498-19.498,17.712-44.912,17.727-93.945
	c-0.015,0.406-47.858,44.313-47.858,44.313V202.07c0,0,102.93-95.765,102.808-95.718C888.313,93.533,895.137,71.45,895.137,0
	c0,0-161.259,148.015-181.4,166.503l0,0c0.342,17.18-0.84,35.304-4.314,52.686c-4.571,22.867-12.705,41.684-25.218,55.056
	l-0.003,42.854c0.003,0.083,0.007,0.216,0.01,0.398c0.037,2.006-0.027,4.647-0.273,7.704c-0.377,4.633-1.102,9.224-2.271,13.567
	c-2.007,7.445-5.152,13.573-9.809,17.877c-4.199,3.874-11.938,11.032-22.226,20.56c-5.606,5.194-11.614,10.758-17.618,16.324
	C630.551,394.885,629.163,396.172,627.863,397.375L627.863,397.375z M621.269,388.987c-11.866-15.133-15.731-26.356-13.73-35.506
	c1.636-7.477,5.926-12.793,18.261-24.336c5.052-4.885,8.61-8.252,12.588-11.93c0.813-0.752,10.337-9.492,14.479-13.333
	c5.78-5.358,12.448-11.6,20.703-19.395v32.799c0.004,0.211,0.006,0.286,0.009,0.408c0.03,1.675-0.026,3.969-0.243,6.649
	c-0.326,4.031-0.953,7.999-1.938,11.657c-1.53,5.681-3.8,10.1-6.755,12.832c-4.202,3.876-11.941,11.038-22.197,20.537
	c-5.646,5.229-11.654,10.795-17.659,16.361C623.557,386.866,622.383,387.956,621.269,388.987L621.269,388.987z M210.934,274.248
	c-12.5-13.347-20.643-32.175-25.217-55.059c-3.416-17.087-4.616-34.894-4.331-51.814l0,0C161.174,148.823,0,0.886,0,0.886
	c0,71.45,6.826,93.533,19.498,106.354c-0.122-0.047,102.808,95.718,102.808,95.718v15.067c0,0-47.845-43.908-47.859-44.314
	c0.014,49.033-1.772,74.447,17.726,93.945l91.286,86.854v14.181c0,0-39.973-36.143-39.882-36.337
	c-0.09,27.82-2.659,56.722,18.612,78.878c-0.293-0.132,138.765,134.373,139.145,134.715c25.702,23.043,0,58.494,26.588,86.854
	c-0.123-0.051,55.661,52.996,70.154,66.775l0,0l39.277-92.777l1.35-1.889c0.243-0.217,0.316-0.283,0.896-0.805
	c-5.564-4.984-11.667-10.451-18.183-16.287c-20.944-18.762-41.89-37.521-61.528-55.105c-48.457-43.387-80.331-71.898-87.848-78.564
	c-11.434-10.475-16.233-16.992-17.086-25.902c-0.84-8.772,3.008-18.306,12.322-30.867c-1.3-1.205-2.689-2.492-4.151-3.848
	c-6.005-5.564-12.011-11.13-17.657-16.359c-10.25-9.494-17.987-16.652-22.191-20.529c-4.652-4.3-7.797-10.428-9.804-17.874
	c-1.17-4.343-1.896-8.934-2.271-13.567c-0.248-3.057-0.313-5.697-0.269-7.916L210.934,274.248L210.934,274.248z M221.569,284.487
	c8.262,7.803,14.925,14.04,20.703,19.395c4.143,3.84,13.666,12.581,14.146,13.024c4.311,3.986,7.87,7.354,12.858,12.179
	c12.398,11.604,16.688,16.919,18.324,24.396c2.003,9.157-1.87,20.391-13.73,35.506c-1.114-1.031-2.289-2.121-3.515-3.258
	c-6.006-5.566-12.013-11.132-17.622-16.327c-10.293-9.534-18.034-16.695-22.241-20.575c-2.951-2.728-5.219-7.147-6.75-12.828
	c-0.986-3.658-1.613-7.626-1.939-11.657c-0.217-2.68-0.273-4.975-0.242-6.649c0.002-0.122,0.008-0.408,0.008-0.408V284.487
	L221.569,284.487L221.569,284.487z M401.284,719.278l46.285,43.805V610.684l0,0v151.512l46.017-43.553L447.99,610.944
	c0,0-0.142-0.104-0.383-0.283c-0.014,0.008-0.025,0.016-0.038,0.023L401.284,719.278L401.284,719.278z M449.208,595.499
	l28.493-139.953l26.589-25.701h31.905l32.793-32.793c0,0,6.203-21.27-28.361-52.291v-33.678l162.22-151.974
	c0.878,18.664-0.038,38.904-3.854,57.996c-4.488,22.449-12.558,40.332-24.688,52.043c-12.095,11.467-21.141,19.957-28.669,26.936
	c-4.12,3.818-13.635,12.55-14.134,13.012c-4.374,4.044-7.99,7.466-13.035,12.346c-6.688,6.257-9.678,9.252-12.854,13.188
	c-4.354,5.396-7.188,10.729-8.467,16.581c-2.948,13.479,2.69,28.582,18.256,47.454c10.729,13.291,14.818,22.035,14.192,28.568
	c-0.521,5.434-4.102,10.299-13.683,19.074c-7.41,6.568-39.274,35.072-87.76,78.484c-19.64,17.584-40.585,36.346-61.529,55.105
	C460.408,585.465,454.566,590.698,449.208,595.499L449.208,595.499L449.208,595.499z M192.251,159.958l162.258,152.01v33.679
	c-34.563,31.02-28.36,52.29-28.36,52.29l32.792,32.792h31.905l26.588,25.701l28.274,138.869c-5.297-4.746-11.063-9.91-17.196-15.404
	c-20.943-18.76-41.891-37.52-61.446-55.029c-48.568-43.488-80.433-71.99-87.905-78.617c-9.518-8.719-13.099-13.584-13.62-19.018
	c-0.625-6.533,3.463-15.277,14.229-28.613c15.529-18.828,21.168-33.931,18.22-47.41c-1.28-5.853-4.113-11.186-8.467-16.581
	c-3.175-3.936-6.165-6.93-12.916-13.248c-4.982-4.819-8.598-8.241-12.634-11.974c-0.837-0.773-10.352-9.505-14.472-13.324
	c-7.529-6.979-16.575-15.469-28.705-26.969c-12.094-11.678-20.163-29.561-24.651-52.009
	C192.386,198.302,191.441,178.385,192.251,159.958L192.251,159.958L192.251,159.958z M447.569,452.885v96.605l-17.727-96.605
	H447.569L447.569,452.885z M447.569,452.885v96.605l17.726-96.605H447.569L447.569,452.885z M436.934,331.466l10.636,7.977v51.404
	l-19.498-16.839v-15.953l-6.204-4.432l8.863-101.921l3.545,21.271L436.934,331.466L436.934,331.466z M458.204,331.466l-10.635,7.977
	v51.404l19.498-16.839v-15.953l6.204-4.432l-8.863-101.921l-3.545,21.271L458.204,331.466L458.204,331.466z M447.569,405.027v37.224
	l-23.931-22.155H375.78l12.407-11.522l31.021-4.431V392.62h-20.384l11.521-10.635l11.521-0.886L447.569,405.027L447.569,405.027z
	 M447.569,405.027v37.224l23.93-22.155h47.858l-12.408-11.522l-31.021-4.431V392.62h20.386l-11.521-10.635l-11.521-0.886
	L447.569,405.027L447.569,405.027z"/>
</svg>
