<?xml version="1.0" encoding="utf-8"?>
<!-- Generator: Adobe Illustrator 16.0.0, SVG Export Plug-In . SVG Version: 6.00 Build 0)  -->
<!DOCTYPE svg PUBLIC "-//W3C//DTD SVG 1.1//EN" "http://www.w3.org/Graphics/SVG/1.1/DTD/svg11.dtd">
<svg version="1.1" id="Layer_1" xmlns="http://www.w3.org/2000/svg" xmlns:xlink="http://www.w3.org/1999/xlink" x="0px" y="0px"
	 width="835.871px" height="479.352px" viewBox="0 0 835.871 479.352" enable-background="new 0 0 835.871 479.352"
	 xml:space="preserve">
<g id="Layer_3">
	<g>
		<polygon fill="#953B09" points="170.05,333.676 273.87,415.676 330.53,415.676 240.721,333.676 		"/>
		<polygon fill="#953B09" points="562,415.676 665.82,333.676 589.205,333.676 499.396,415.676 		"/>
		<polygon fill="#953B09" points="71.29,255.676 147.26,315.676 239.599,315.676 261.944,255.676 		"/>
		<polygon fill="#953B09" points="688.611,315.676 764.58,255.676 567.98,255.676 590.326,315.676 		"/>
		<polygon fill="#953B09" points="328.542,196.767 368.455,237.676 405,237.676 405,234.199 360.849,196.246 360.488,187.676 
			7.88,187.676 0,199.366 48.5,237.676 268.648,237.676 284.546,194.986 		"/>
		<polygon fill="#953B09" points="425,234.218 425,237.676 461.47,237.676 501.384,196.767 545.378,194.986 561.277,237.676 
			787.371,237.676 835.871,199.366 828,187.676 469.402,187.676 469.113,195.359 		"/>
	</g>
</g>
<path fill="#FD7022" d="M414.963,142.295v0.125l-0.071-0.063l-0.07,0.063v-0.125l-33.252-29.114V86.674l-10.176-9.079l6.04-77.72
	l19.451,42.418l18.008,13.364l18.009-13.364l19.449-42.418l6.039,77.72l-10.174,9.079v26.507L414.963,142.295L414.963,142.295
	L414.963,142.295z M414.963,166.685v62.925l-44.313-38.11l-2.659-66.47L414.963,166.685L414.963,166.685z M414.963,165.798v62.925
	l44.314-38.11l2.658-66.47L414.963,165.798L414.963,165.798z M413.946,251.768v120.533l-23.043-120.533H413.946L413.946,251.768z
	 M413.946,251.768v120.533l23.043-120.533H413.946L413.946,251.768z M291.387,205.271l32.775,1.326l46.316,47.473l44.484,225.155
	L246.608,325.51L291.387,205.271L291.387,205.271z M538.539,205.271l-32.775,1.326l-46.316,47.473l-44.483,225.155L583.318,325.51
	L538.539,205.271L538.539,205.271z"/>
</svg>
