<?xml version="1.0" encoding="utf-8"?>
<!-- Generator: Adobe Illustrator 16.0.0, SVG Export Plug-In . SVG Version: 6.00 Build 0)  -->
<!DOCTYPE svg PUBLIC "-//W3C//DTD SVG 1.1//EN" "http://www.w3.org/Graphics/SVG/1.1/DTD/svg11.dtd">
<svg version="1.1" xmlns="http://www.w3.org/2000/svg" xmlns:xlink="http://www.w3.org/1999/xlink" x="0px" y="0px"
	 width="899.568px" height="787.898px" viewBox="0 0 899.568 787.898" enable-background="new 0 0 899.568 787.898"
	 xml:space="preserve">
<g id="Layer_3">
	<g>
		<path fill="#4D4B4D" d="M132.871,306.991C57.568,602.859,311.568,705.859,392.568,720.193v-12.834
			C319.568,684.16,92.568,618.193,132.871,306.991z"/>
		<polygon fill="#4D4B4D" points="330.131,700.859 285.561,722.695 332.811,733.277 369.256,714.459 		"/>
		<polygon fill="#4D4B4D" points="271.094,669.279 224.811,680.609 265.939,699.09 305.004,689.979 		"/>
		<polygon fill="#4D4B4D" points="213.123,625.336 173.91,625.336 211.984,654.814 248.486,654.502 		"/>
		<polygon fill="#4D4B4D" points="167.01,568.688 129.728,560.988 160.189,596.242 194.93,603.238 		"/>
		<polygon fill="#4D4B4D" points="135.466,506.107 105.508,488.232 121.277,527.908 150.497,545.193 		"/>
		<polygon fill="#4D4B4D" points="122.24,441.346 100.394,420.873 106.352,457.029 127.686,476.873 		"/>
		<polygon fill="#4D4B4D" points="121.637,371.492 101.171,347.287 102.819,382.918 121.189,404.527 		"/>
	</g>
	<g>
		<path fill="#4D4B4D" d="M768.268,306.991c75.301,295.868-177.699,398.868-259.699,413.202v-12.834
			C581.568,684.16,808.568,618.193,768.268,306.991z"/>
		<polygon fill="#4D4B4D" points="572.322,700.859 616.893,722.695 569.643,733.277 533.197,714.459 		"/>
		<polygon fill="#4D4B4D" points="631.361,669.279 677.643,680.609 636.514,699.09 597.451,689.979 		"/>
		<polygon fill="#4D4B4D" points="689.33,625.336 728.543,625.336 690.469,654.814 653.967,654.502 		"/>
		<polygon fill="#4D4B4D" points="735.445,568.688 772.727,560.988 742.266,596.242 707.525,603.238 		"/>
		<polygon fill="#4D4B4D" points="766.988,506.107 796.945,488.232 781.176,527.908 751.957,545.193 		"/>
		<polygon fill="#4D4B4D" points="780.213,441.346 802.061,420.873 796.104,457.029 774.768,476.873 		"/>
		<polygon fill="#4D4B4D" points="780.818,371.492 801.283,347.287 799.635,382.918 781.266,404.527 		"/>
	</g>
</g>
<g id="Layer_2">
	<g id="_x39_">
		<path fill-rule="evenodd" clip-rule="evenodd" fill="#FFFFFF" d="M452.061,599.377v32.537l-10.635,15.953l-9.749,60.266
			l-20.979-19.531L452.061,599.377v32.537l10.635,15.953l9.75,60.266l21.514-20.029l0,0l-41.516-89.553L452.061,599.377
			L452.061,599.377z M408.24,668.617l-67.755-63.623c-0.005-0.008-0.292-0.314-0.685-0.773c-0.68-0.793-1.362-1.682-1.993-2.627
			c-0.95-1.426-1.684-2.84-2.122-4.154c-0.17-0.51-0.326-1.055-0.471-1.629c-0.441-1.77-0.734-3.723-0.898-5.684
			c-0.058-0.691-0.095-1.332-0.115-1.9c-0.02-0.861-0.02-0.861-0.027-1.096c-0.059-1.676-0.093-2.654-0.129-3.721
			c-0.104-3.041-0.207-6.16-0.305-9.18c-0.025-0.779-0.049-1.543-0.072-2.289c-0.231-7.383-0.367-12.586-0.367-14.475
			c0-9.275-3.141-16.863-9.535-23.258c-2.367-2.367-32.749-30.674-82.775-77.168c-18.306-17.012-37.744-35.068-57.182-53.119
			c-2.586-2.399-5.1-4.734-7.535-6.996c-15.016-14.502-27.435-26.516-27.318-26.463c-18.611-20.384-16.93-37.223-16.84-71.787
			c-0.09,0.193,36.338,32.791,36.338,32.791V319.06l-81.537-75.333c-19.498-19.498-15.053-37.822-15.066-86.855
			c0.014,0.406,40.768,38.109,40.768,38.109v-12.407c0,0-94.953-89.562-94.83-89.514C5.114,80.24,2.72,71.451,2.72,0
			c0,0,157.313,142.814,187.386,170.116c0.113,13.788,1.256,27.921,3.809,41.567c4.354,23.276,12.414,42.285,25.047,55.488
			c-0.076,2.913-0.521,19.766-0.877,20.868c0.13,9.722,0,16.653,0,19.498c0,6.341,0.502,11.606,1.773,16.839
			c2.189,7.689,5.818,14.217,11.521,19.498c3.703,3.388,19.015,17.781,19.498,17.726c3.332,3.519,13.658,13.382,18.955,18.343
			c-0.358,0.441-0.695,0.859-1.026,1.273c-2.522,3.148-4.397,5.646-5.958,7.996c-3.995,6.018-5.936,11.156-5.688,16.5
			c0.296,6.402,3.777,12.279,10.556,18.344c7.006,6.27,39.491,35.693,89.23,80.803c19.92,18.066,41.145,37.32,62.365,56.574
			c7.427,6.74,14.322,12.998,20.512,18.613c2.165,1.965,4.088,3.711,5.746,5.215c0.391,0.354,0.689,0.627,0.924,0.84L408.24,668.617
			L408.24,668.617z M446.635,585.793l-0.285-0.387l0.232,0.5L446.635,585.793L446.635,585.793z M454.316,575.441l25.219-126.1
			l22.156-23.043h31.02l28.361-29.247c0,0,8.863-18.169-25.701-48.745V319.06l168.715-157.351
			c0.35,15.797-0.629,32.319-3.566,48.019c-4.17,22.295-11.893,39.995-23.637,51.465c-12.115,11.835-21.443,20.78-29.67,28.506
			c-4.213,3.958-14.74,13.708-16.955,15.786c-3.727,3.506-7.078,6.752-11.027,10.701c-17.664,17.664-16.58,40.966,1.418,62.963
			c0.576,0.704,1.158,1.414,1.914,2.33c-0.002-0.001,1.434,1.743,1.832,2.228c1.439,1.751,2.445,2.983,3.389,4.161
			c2.342,2.922,4.043,5.189,5.396,7.229c2.859,4.309,4.049,7.455,3.924,10.125c-0.145,3.139-2.184,6.581-7.023,10.911
			c-7.033,6.294-39.502,35.702-89.387,80.944c-19.816,17.971-41.043,37.227-62.264,56.482c-7.426,6.738-14.322,12.996-20.512,18.613
			C456.629,573.34,455.428,574.432,454.316,575.441L454.316,575.441z M714.787,169.416C746.676,140.466,901.402,0,901.402,0
			c0,71.451-2.395,80.24-15.066,93.06c0.121-0.048-94.832,89.514-94.832,89.514v12.407c0,0,40.754-37.703,40.77-38.109
			c-0.016,49.033,4.43,67.357-15.068,86.855l-81.537,75.333v12.407c0,0,36.428-32.598,36.338-32.791
			c0.09,34.564,1.773,51.403-16.84,71.787c0.119-0.053-12.613,12.261-27.877,27.004c-2.254,2.093-4.574,4.246-6.953,6.455
			c-19.438,18.051-38.877,36.107-57.182,53.119c-50.027,46.494-80.408,74.801-82.775,77.168c-6.395,6.395-9.535,13.982-9.535,23.258
			c0,1.889-0.137,7.092-0.367,14.475c-0.023,0.746-0.049,1.51-0.072,2.289c-0.098,3.02-0.201,6.139-0.305,9.18
			c-0.037,1.066-0.07,2.045-0.129,3.721c-0.008,0.234-0.008,0.234-0.027,1.096c-0.021,0.568-0.059,1.209-0.115,1.9
			c-0.164,1.961-0.457,3.914-0.898,5.684c-0.145,0.574-0.301,1.119-0.471,1.629c-0.439,1.314-1.172,2.729-2.123,4.154
			c-0.631,0.945-1.313,1.834-1.992,2.627c-0.395,0.459-0.68,0.766-0.686,0.773l-67.236,63.137l-38.027-82.029
			c0.234-0.213,0.535-0.486,0.926-0.84c1.656-1.504,3.58-3.25,5.746-5.215c6.188-5.615,13.084-11.873,20.512-18.613
			c21.219-19.254,42.443-38.508,62.363-56.574c49.74-45.109,82.225-74.533,89.23-80.803c6.779-6.064,10.26-11.941,10.557-18.344
			c0.248-5.344-1.693-10.482-5.689-16.5c-1.561-2.35-3.434-4.848-5.957-7.996c-0.648-0.81-1.32-1.639-2.127-2.625
			c5.549-5.227,14.465-13.77,17.518-16.991c0.482,0.056,15.795-14.338,19.498-17.726c5.703-5.281,9.332-11.809,11.521-19.498
			c1.271-5.232,1.773-10.498,1.773-16.839c0-2.845-0.131-9.776,0-19.498c-0.297-0.919-0.656-12.792-0.811-18.399
			c0.285-0.278,0.572-0.559,0.859-0.84c13.563-13.247,22.123-32.865,26.66-57.117C713.57,197.807,714.707,183.426,714.787,169.416
			L714.787,169.416z M458.305,585.906l-0.053-0.113l0.285-0.387L458.305,585.906L458.305,585.906z M627.215,370.305
			c5.533-5.215,14.086-13.422,17.168-16.681c9.051-7.99,15.67-14.194,19.498-17.726c7.291-6.714,9.766-15.957,9.748-28.36
			c0.018-2.727-0.109-9.624,0-19.498c-0.15-0.391-0.328-4.14-0.482-8.384c-7.051,6.816-13.1,12.579-18.652,17.795
			c-4.248,3.99-14.779,13.744-16.135,15.016c-4.463,4.197-7.736,7.368-11.607,11.239
			C613.822,336.635,614.057,353.012,627.215,370.305L627.215,370.305z M449.637,574.592l-25.051-125.25l-22.156-23.043h-31.02
			l-28.361-29.247c0,0-8.862-18.169,25.702-48.745V319.06l-167.964-156.65c-0.307,15.584,0.688,31.851,3.58,47.318
			c4.172,22.295,11.895,39.995,23.637,51.465c12.116,11.835,21.444,20.78,29.67,28.506c4.215,3.958,14.74,13.708,16.955,15.786
			c3.727,3.506,7.078,6.752,11.027,10.701c17.664,17.664,16.58,40.966-1.417,62.963c-0.576,0.704-1.159,1.414-1.913,2.33
			c0-0.001-1.436,1.743-1.834,2.228c-1.438,1.751-2.443,2.983-3.387,4.161c-2.342,2.922-4.043,5.189-5.396,7.229
			c-2.861,4.309-4.049,7.455-3.926,10.125c0.145,3.139,2.184,6.581,7.023,10.911c7.035,6.294,39.502,35.702,89.389,80.944
			c19.816,17.971,41.041,37.227,62.262,56.482c7.428,6.738,14.323,12.996,20.512,18.613
			C447.904,573.02,448.794,573.828,449.637,574.592L449.637,574.592L449.637,574.592z M276.6,371.682
			c-5.352-5.014-15.263-14.494-18.633-18.058c-9.051-7.99-15.672-14.194-19.498-17.726c-7.291-6.714-9.767-15.957-9.749-28.36
			c-0.018-2.727,0.11-9.624,0-19.498c0.18-0.462,0.394-5.632,0.567-10.759c8.119,7.867,14.92,14.359,21.105,20.17
			c4.25,3.99,14.78,13.744,16.137,15.016c4.463,4.197,7.736,7.368,11.607,11.239C291.408,336.979,290.81,353.883,276.6,371.682
			L276.6,371.682L276.6,371.682z M323.626,589.742c-35.325-33.029-70.081-65.551-78.953-73.93
			c-15.953-15.066-17.282-23.93-16.839-34.564c-0.23-5.512-0.222-14.592-0.16-22.063c1.984,1.844,3.957,3.676,5.913,5.494
			c49.517,46.02,80.446,74.838,82.659,77.049c4.398,4.398,6.419,9.283,6.419,15.738c0,2.051,0.137,7.275,0.373,14.809
			c0.022,0.748,0.048,1.516,0.073,2.297c0.096,3.027,0.201,6.152,0.305,9.201c0.036,1.066,0.07,2.049,0.1,2.922
			c0.037,1.043,0.037,1.043,0.039,1.092C323.553,588.168,323.572,588.855,323.626,589.742L323.626,589.742L323.626,589.742z
			 M580.52,589.721c35.318-33.023,70.061-65.531,78.93-73.908c15.953-15.066,17.281-23.93,16.84-34.564
			c0.229-5.506,0.221-14.574,0.16-22.043c-1.979,1.838-3.941,3.664-5.893,5.475c-49.516,46.02-80.445,74.838-82.658,77.049
			c-4.398,4.398-6.42,9.283-6.42,15.738c0,2.051-0.137,7.275-0.373,14.809c-0.023,0.748-0.047,1.516-0.072,2.297
			c-0.096,3.027-0.201,6.152-0.305,9.201c-0.037,1.066-0.07,2.049-0.1,2.922c-0.037,1.043-0.037,1.043-0.039,1.092
			C580.592,588.164,580.572,588.844,580.52,589.721L580.52,589.721L580.52,589.721z M452.061,787.898
			c-22.231-17.725-21.342-30.133-19.498-39.883c1.713-9.748,15.066-92.172,15.066-92.172l4.432-6.203V787.898
			c22.232-17.725,21.344-30.133,19.498-39.883c-1.713-9.748-15.066-92.172-15.066-92.172l-4.432-6.203V787.898L452.061,787.898z
			 M452.061,446.684v86.854l16.84-86.854H452.061L452.061,446.684z M452.061,446.684v86.854l-16.839-86.854H452.061L452.061,446.684
			z M442.313,336.785l9.748,7.09v46.086l-17.725-15.066v-14.18l-5.318-4.432l7.977-91.287l3.545,19.498L442.313,336.785
			L442.313,336.785z M461.811,336.785l-9.75,7.09v46.086l17.727-15.066v-14.18l5.316-4.432l-7.977-91.287l-3.545,19.498
			L461.811,336.785L461.811,336.785z M452.061,404.142v33.679l-23.93-21.271h-40.768l10.635-9.748l28.361-4.432v-9.749h-19.498
			l11.521-10.636l9.748-0.886L452.061,404.142L452.061,404.142z M452.061,404.142v33.679l23.93-21.271h40.77l-10.637-9.748
			l-28.359-4.432v-9.749h19.498l-11.521-10.636l-9.75-0.886L452.061,404.142L452.061,404.142z M452.061,404.142"/>
	</g>
</g>
</svg>
