<?xml version="1.0" encoding="utf-8"?>
<!-- Generator: Adobe Illustrator 16.0.0, SVG Export Plug-In . SVG Version: 6.00 Build 0)  -->
<!DOCTYPE svg PUBLIC "-//W3C//DTD SVG 1.1//EN" "http://www.w3.org/Graphics/SVG/1.1/DTD/svg11.dtd">
<svg version="1.1" xmlns="http://www.w3.org/2000/svg" xmlns:xlink="http://www.w3.org/1999/xlink" x="0px" y="0px"
	 width="792.328px" height="713.707px" viewBox="0 0 792.328 713.707" enable-background="new 0 0 792.328 713.707"
	 xml:space="preserve">
<g id="Layer_3">
	<g>
		<path fill="#4D4B4D" d="M77.406,287.421C2.104,583.289,256.104,686.289,337.104,700.623v-12.834
			C264.104,664.59,37.104,598.623,77.406,287.421z"/>
		<polygon fill="#4D4B4D" points="274.234,681.289 229.664,703.125 276.914,713.707 313.359,694.889 		"/>
		<polygon fill="#4D4B4D" points="215.197,649.709 168.914,661.039 210.043,679.52 249.107,670.408 		"/>
		<polygon fill="#4D4B4D" points="157.227,605.279 118.014,605.279 156.088,635.001 192.59,634.566 		"/>
		<polygon fill="#4D4B4D" points="111.113,549.117 73.831,541.418 104.293,576.672 139.033,583.668 		"/>
		<polygon fill="#4D4B4D" points="79.568,486.537 49.611,468.662 65.381,508.338 94.601,525.623 		"/>
		<polygon fill="#4D4B4D" points="66.344,421.775 44.497,401.303 50.455,437.459 71.789,457.303 		"/>
		<polygon fill="#4D4B4D" points="65.74,351.922 45.274,327.717 46.923,363.348 65.293,384.957 		"/>
	</g>
	<g>
		<path fill="#4D4B4D" d="M712.803,287.421c75.301,295.868-177.699,398.868-259.699,413.202v-12.834
			C526.104,664.59,753.104,598.623,712.803,287.421z"/>
		<polygon fill="#4D4B4D" points="516.426,681.289 560.996,703.125 513.746,713.707 477.301,694.889 		"/>
		<polygon fill="#4D4B4D" points="575.465,649.709 621.746,661.039 580.617,679.52 541.555,670.408 		"/>
		<polygon fill="#4D4B4D" points="633.434,605.279 672.646,605.279 634.572,635.001 598.07,634.566 		"/>
		<polygon fill="#4D4B4D" points="679.549,549.117 716.83,541.418 686.369,576.672 651.629,583.668 		"/>
		<polygon fill="#4D4B4D" points="711.092,486.537 741.049,468.662 725.279,508.338 696.061,525.623 		"/>
		<polygon fill="#4D4B4D" points="724.316,421.775 746.164,401.303 740.207,437.459 718.871,457.303 		"/>
		<polygon fill="#4D4B4D" points="724.922,351.922 745.387,327.717 743.738,363.348 725.369,384.957 		"/>
	</g>
</g>
<g id="Layer_2">
	<g id="_x35__1_">
		<path fill-rule="evenodd" clip-rule="evenodd" fill="#FFFFFF" d="M396.164,415.662v135.6l-26.588-135.6H396.164L396.164,415.662z
			 M396.164,415.662v135.6l26.588-135.6H396.164L396.164,415.662z M381.098,249.043l15.066,10.635v71.789l-27.475-23.93v-22.156
			l-7.977-7.091l10.636-101.921l7.091,32.791L381.098,249.043L381.098,249.043z M411.23,249.043l-15.066,10.635v71.789l27.475-23.93
			v-22.156l7.977-7.091L420.98,176.369l-7.09,32.791L411.23,249.043L411.23,249.043z M396.164,350.078v52.291l-37.223-31.906H306.65
			l15.953-14.181l32.793-8.862l0.886-14.181l-25.702,0.886l18.611-15.066l8.863-2.658L396.164,350.078L396.164,350.078z
			 M396.164,350.078v52.291l37.225-31.906h52.289l-15.953-14.181l-32.791-8.862l-0.887-14.181l25.701,0.886l-18.611-15.066
			l-8.863-2.658L396.164,350.078L396.164,350.078z M396.164,650.525v46.973L269.428,577.852c0,0-5.038-5.609-9.75-14.182
			c-5.129-8.668-3.545-40.768-3.545-40.768L396.164,650.525L396.164,650.525z M396.164,650.525v46.973l126.738-119.646
			c0,0,5.037-5.609,9.748-14.182c5.129-8.668,3.545-40.768,3.545-40.768L396.164,650.525L396.164,650.525z M593.803,367.804
			c0,0,108.895-98.157,109.012-98.376c17.545-16.713,15.932-45.263,19.498-93.945l-77.992,70.902v-25.703
			c0,0,135.449-123.502,135.602-123.191C792.328,84.412,792.328,71.425,792.328,0L503.404,262.337c0,0,0.322,20.8,0,20.384
			c50.344,43.309,40.768,70.017,40.768,70.017l-37.223,31.905h-33.68l-34.564,35.451l-42.541,213.592
			c0,0,246.211-220.719,246.385-220.682c17.957-17.318,15.066-57.466,15.066-85.082l-63.813,58.494V367.804L593.803,367.804z
			 M198.525,367.804c0,0-108.895-98.157-109.012-98.376c-17.544-16.713-15.931-45.263-19.498-93.945l77.992,70.902v-25.703
			c0,0-135.449-123.502-135.6-123.191C0,84.412,0,71.425,0,0l288.926,262.337c0,0-0.324,20.8,0,20.384
			c-50.344,43.309-40.77,70.017-40.77,70.017l37.225,31.905h33.678l34.564,35.451l42.541,213.592
			c0,0-246.211-220.719-246.384-220.682c-17.956-17.318-15.067-57.466-15.067-85.082l63.813,58.494V367.804L198.525,367.804z
			 M198.525,367.804"/>
	</g>
</g>
</svg>
