<?xml version="1.0" encoding="utf-8"?>
<!-- Generator: Adobe Illustrator 16.0.0, SVG Export Plug-In . SVG Version: 6.00 Build 0)  -->
<!DOCTYPE svg PUBLIC "-//W3C//DTD SVG 1.1//EN" "http://www.w3.org/Graphics/SVG/1.1/DTD/svg11.dtd">
<svg version="1.1" xmlns="http://www.w3.org/2000/svg" xmlns:xlink="http://www.w3.org/1999/xlink" x="0px" y="0px"
	 width="900.061px" height="763.081px" viewBox="0 0 900.061 763.081" enable-background="new 0 0 900.061 763.081"
	 xml:space="preserve">
<g id="Layer_3">
	<g>
		<path fill="#4D4B4D" d="M133.303,312.625C58,608.493,312,711.493,393,725.827v-12.834C320,689.794,93,623.827,133.303,312.625z"/>
		<polygon fill="#4D4B4D" points="330.563,706.493 285.992,728.329 333.242,738.911 369.688,720.093 		"/>
		<polygon fill="#4D4B4D" points="271.525,674.913 225.242,686.243 266.371,704.724 305.436,695.612 		"/>
		<polygon fill="#4D4B4D" points="213.555,631.691 174.342,631.691 212.416,660.809 248.918,660.678 		"/>
		<polygon fill="#4D4B4D" points="167.441,574.321 130.159,566.622 160.621,601.876 195.361,608.872 		"/>
		<polygon fill="#4D4B4D" points="135.897,511.741 105.939,493.866 121.709,533.542 150.929,550.827 		"/>
		<polygon fill="#4D4B4D" points="122.672,446.979 100.825,426.507 106.783,462.663 128.117,482.507 		"/>
		<polygon fill="#4D4B4D" points="122.068,377.126 101.603,352.921 103.251,388.552 121.621,410.161 		"/>
	</g>
	<g>
		<path fill="#4D4B4D" d="M768.699,312.625C844,608.493,591,711.493,509,725.827v-12.834C582,689.794,809,623.827,768.699,312.625z"
			/>
		<polygon fill="#4D4B4D" points="572.754,706.493 617.324,728.329 570.074,738.911 533.629,720.093 		"/>
		<polygon fill="#4D4B4D" points="631.793,674.913 678.074,686.243 636.945,704.724 597.883,695.612 		"/>
		<polygon fill="#4D4B4D" points="689.762,631.691 728.975,631.691 690.9,660.809 654.398,660.678 		"/>
		<polygon fill="#4D4B4D" points="735.877,574.321 773.158,566.622 742.697,601.876 707.957,608.872 		"/>
		<polygon fill="#4D4B4D" points="767.42,511.741 797.377,493.866 781.607,533.542 752.389,550.827 		"/>
		<polygon fill="#4D4B4D" points="780.645,446.979 802.492,426.507 796.535,462.663 775.199,482.507 		"/>
		<polygon fill="#4D4B4D" points="781.25,377.126 801.715,352.921 800.066,388.552 781.697,410.161 		"/>
	</g>
</g>
<g id="Layer_2">
	<g id="_x38_">
		<path fill-rule="evenodd" clip-rule="evenodd" fill="#FFFFFF" d="M632.787,397.376c9.307,12.549,13.162,22.09,12.32,30.869
			c-0.854,8.91-5.652,15.43-17.15,25.961c-7.453,6.609-39.326,35.119-87.867,78.582c-19.555,17.51-40.502,36.27-61.445,55.029
			c-6.516,5.836-12.617,11.303-18.182,16.289c0.578,0.52,0.652,0.586,0.896,0.803l1.348,1.889l39.012,92.146
			c14.059-13.369,70.545-67.082,70.42-67.031c26.59-28.361,0.887-63.813,26.59-86.855c0.379-0.338,139.438-134.846,139.145-134.713
			c21.27-22.156,18.701-51.059,18.611-78.879c0.09,0.195-39.883,36.338-39.883,36.338v-14.181l91.287-86.854
			c19.498-19.498,17.711-44.912,17.725-93.945c-0.014,0.406-47.857,44.314-47.857,44.314V202.07c0,0,102.93-95.765,102.807-95.718
			C893.236,93.532,900.061,71.45,900.061,0c0,0-161.258,148.015-181.4,166.503l0,0c0.342,17.18-0.84,35.305-4.314,52.686
			c-4.572,22.867-12.705,41.684-25.219,55.057l-0.002,42.854c0.002,0.083,0.006,0.216,0.01,0.398
			c0.037,2.007-0.027,4.647-0.275,7.704c-0.375,4.633-1.1,9.223-2.271,13.566c-2.006,7.445-5.152,13.573-9.809,17.877
			c-4.199,3.874-11.936,11.032-22.225,20.561c-5.607,5.193-11.613,10.76-17.617,16.324
			C635.475,394.885,634.086,396.172,632.787,397.376L632.787,397.376z M626.193,388.987c-11.867-15.133-15.732-26.355-13.732-35.506
			c1.637-7.477,5.926-12.793,18.262-24.336c5.051-4.886,8.609-8.253,12.588-11.931c0.813-0.752,10.336-9.492,14.479-13.333
			c5.781-5.357,12.449-11.6,20.703-19.395v32.799c0.004,0.211,0.006,0.286,0.01,0.408c0.029,1.675-0.027,3.969-0.244,6.649
			c-0.326,4.03-0.953,7.999-1.938,11.657c-1.531,5.68-3.801,10.1-6.756,12.831c-4.203,3.876-11.941,11.038-22.197,20.536
			c-5.646,5.23-11.654,10.796-17.66,16.361C628.48,386.866,627.307,387.955,626.193,388.987L626.193,388.987z M215.857,274.248
			c-12.5-13.347-20.643-32.175-25.217-55.06c-3.416-17.087-4.616-34.893-4.331-51.813l0,0C166.098,148.823,4.924,0.886,4.924,0.886
			c0,71.45,6.826,93.533,19.498,106.354c-0.121-0.048,102.809,95.717,102.809,95.717v15.067c0,0-47.846-43.908-47.859-44.313
			c0.014,49.033-1.772,74.447,17.726,93.945l91.286,86.854v14.182c0,0-39.973-36.144-39.883-36.338
			c-0.09,27.82-2.658,56.722,18.612,78.879c-0.294-0.133,138.765,134.373,139.146,134.713c25.701,23.043,0,58.494,26.588,86.855
			c-0.123-0.051,55.66,52.996,70.154,66.775l0,0l39.277-92.777l1.35-1.889c0.242-0.217,0.316-0.283,0.896-0.803
			c-5.565-4.986-11.668-10.453-18.184-16.289c-20.943-18.76-41.891-37.52-61.528-55.104c-48.457-43.389-80.331-71.898-87.849-78.566
			c-11.434-10.473-16.232-16.992-17.086-25.902c-0.84-8.773,3.009-18.305,12.322-30.867c-1.299-1.205-2.688-2.492-4.15-3.848
			c-6.005-5.564-12.012-11.131-17.656-16.359c-10.251-9.493-17.988-16.651-22.191-20.529c-4.652-4.3-7.797-10.428-9.805-17.873
			c-1.17-4.344-1.896-8.934-2.271-13.566c-0.247-3.057-0.313-5.697-0.269-7.916V274.248L215.857,274.248z M226.492,284.487
			c8.263,7.803,14.926,14.04,20.703,19.395c4.143,3.841,13.666,12.581,14.146,13.024c4.311,3.986,7.869,7.354,12.857,12.179
			c12.398,11.604,16.688,16.92,18.324,24.396c2.003,9.157-1.87,20.391-13.73,35.506c-1.113-1.031-2.289-2.121-3.516-3.258
			c-6.006-5.565-12.012-11.131-17.621-16.326c-10.293-9.533-18.033-16.695-22.24-20.575c-2.951-2.728-5.219-7.147-6.75-12.827
			c-0.986-3.658-1.613-7.627-1.939-11.657c-0.217-2.681-0.273-4.975-0.242-6.649c0.002-0.122,0.008-0.408,0.008-0.408V284.487
			L226.492,284.487L226.492,284.487z M406.208,719.276l46.284,43.805V610.685l0,0v151.512l46.018-43.553l-45.596-107.701
			c0,0-0.141-0.102-0.383-0.281c-0.014,0.008-0.025,0.016-0.039,0.023L406.208,719.276L406.208,719.276z M454.133,595.497
			l28.492-139.953l26.59-25.701h31.904l32.793-32.792c0,0,6.203-21.271-28.361-52.29v-33.679l162.221-151.974
			c0.877,18.663-0.039,38.904-3.855,57.996c-4.488,22.448-12.557,40.331-24.686,52.043c-12.096,11.467-21.141,19.957-28.67,26.936
			c-4.119,3.818-13.635,12.55-14.133,13.012c-4.375,4.044-7.99,7.466-13.035,12.346c-6.688,6.257-9.678,9.252-12.854,13.188
			c-4.354,5.395-7.188,10.729-8.467,16.58c-2.949,13.479,2.691,28.582,18.256,47.453c10.73,13.293,14.818,22.037,14.193,28.57
			c-0.521,5.434-4.102,10.297-13.684,19.074c-7.41,6.568-39.273,35.072-87.76,78.484c-19.639,17.584-40.584,36.346-61.529,55.105
			C465.332,585.466,459.49,590.698,454.133,595.497L454.133,595.497L454.133,595.497z M197.176,159.958l162.258,152.01v33.68
			c-34.564,31.02-28.361,52.289-28.361,52.289l32.793,32.793h31.906l26.588,25.701L450.632,595.3
			c-5.297-4.746-11.063-9.91-17.196-15.404c-20.943-18.76-41.891-37.521-61.447-55.031c-48.567-43.486-80.432-71.99-87.904-78.615
			c-9.519-8.721-13.1-13.584-13.62-19.018c-0.626-6.533,3.464-15.277,14.229-28.613c15.528-18.828,21.168-33.931,18.22-47.41
			c-1.28-5.852-4.113-11.186-8.468-16.58c-3.175-3.936-6.164-6.931-12.916-13.248c-4.981-4.819-8.598-8.241-12.633-11.974
			c-0.838-0.773-10.352-9.505-14.473-13.323c-7.528-6.979-16.574-15.469-28.704-26.97c-12.094-11.678-20.163-29.561-24.651-52.009
			C197.311,198.302,196.365,178.386,197.176,159.958L197.176,159.958L197.176,159.958z M452.492,452.886v96.604l-17.725-96.604
			H452.492L452.492,452.886z M452.492,452.886v96.604l17.727-96.604H452.492L452.492,452.886z M441.857,331.466l10.635,7.977v51.404
			l-19.498-16.84v-15.952l-6.203-4.432l8.862-101.921l3.545,21.27L441.857,331.466L441.857,331.466z M463.127,331.466l-10.635,7.977
			v51.404l19.498-16.84v-15.952l6.205-4.432l-8.863-101.921l-3.545,21.27L463.127,331.466L463.127,331.466z M452.492,405.026v37.225
			l-23.93-22.156h-47.858l12.408-11.523l31.02-4.43v-11.522h-20.384l11.521-10.636l11.521-0.886L452.492,405.026L452.492,405.026z
			 M452.492,405.026v37.225l23.93-22.156h47.859l-12.408-11.523l-31.02-4.43v-11.522h20.385l-11.521-10.636l-11.521-0.886
			L452.492,405.026L452.492,405.026z M452.492,405.026"/>
	</g>
</g>
</svg>
