<?xml version="1.0" encoding="utf-8"?>
<!-- Generator: Adobe Illustrator 16.0.0, SVG Export Plug-In . SVG Version: 6.00 Build 0)  -->
<!DOCTYPE svg PUBLIC "-//W3C//DTD SVG 1.1//EN" "http://www.w3.org/Graphics/SVG/1.1/DTD/svg11.dtd">
<svg version="1.1" xmlns="http://www.w3.org/2000/svg" xmlns:xlink="http://www.w3.org/1999/xlink" x="0px" y="0px"
	 width="701.667px" height="596.665px" viewBox="0 0 701.667 596.665" enable-background="new 0 0 701.667 596.665"
	 xml:space="preserve">
<g id="Layer_3">
	<g>
		<path fill="#4D4B4D" d="M33.341,170.378c-75.303,295.868,178.697,398.868,259.697,413.202v-12.834
			C220.038,547.547-6.962,481.581,33.341,170.378z"/>
		<polygon fill="#4D4B4D" points="229.737,564.247 185.167,586.083 232.417,596.665 268.862,577.846 		"/>
		<polygon fill="#4D4B4D" points="170.7,532.667 124.417,543.997 165.546,562.477 204.61,553.366 		"/>
		<polygon fill="#4D4B4D" points="112.729,488.608 73.517,488.608 111.591,518.144 148.093,517.803 		"/>
		<polygon fill="#4D4B4D" points="66.616,432.075 29.334,424.375 59.796,459.629 94.536,466.625 		"/>
		<polygon fill="#4D4B4D" points="35.072,369.495 5.114,351.62 20.884,391.295 50.104,408.581 		"/>
		<polygon fill="#4D4B4D" points="21.847,304.733 0,284.26 5.958,320.417 27.292,340.26 		"/>
		<polygon fill="#4D4B4D" points="21.243,234.879 0.777,210.674 2.426,246.305 20.796,267.915 		"/>
	</g>
	<g>
		<path fill="#4D4B4D" d="M668.737,170.378c75.301,295.868-177.699,398.868-259.699,413.202v-12.834
			C482.038,547.547,709.038,481.581,668.737,170.378z"/>
		<polygon fill="#4D4B4D" points="471.929,564.247 516.499,586.083 469.249,596.665 432.804,577.846 		"/>
		<polygon fill="#4D4B4D" points="530.968,532.667 577.249,543.997 536.12,562.477 497.058,553.366 		"/>
		<polygon fill="#4D4B4D" points="588.937,488.608 628.149,488.608 590.075,518.144 553.573,517.803 		"/>
		<polygon fill="#4D4B4D" points="635.052,432.075 672.333,424.375 641.872,459.629 607.132,466.625 		"/>
		<polygon fill="#4D4B4D" points="666.595,369.495 696.552,351.62 680.782,391.295 651.563,408.581 		"/>
		<polygon fill="#4D4B4D" points="679.819,304.733 701.667,284.26 695.71,320.417 674.374,340.26 		"/>
		<polygon fill="#4D4B4D" points="680.425,234.879 700.89,210.674 699.241,246.305 680.872,267.915 		"/>
	</g>
</g>
<g id="Layer_2">
	<g id="_x32_">
		<path fill-rule="evenodd" clip-rule="evenodd" fill="#FFFFFF" d="M351.991,477.709l-44.158-223.514l-46.316-47.473h-77.555
			l-89.314-85.468c0,0,4.648,88.413,10.674,100.454c6.025,12.04,15.371,18.295,15.371,18.295l63.27,60.082v25.549L351.767,478.85
			l-0.1,0.502l0.324-0.297l0.325,0.297l-0.099-0.502l167.805-153.215v-25.549l63.27-60.082c0,0,9.346-6.255,15.371-18.295
			c6.025-12.041,10.672-100.454,10.672-100.454l-89.313,85.468h-77.555l-46.316,47.473L351.991,477.709L351.991,477.709z
			 M352.316,142.42v0.125l-0.071-0.063l-0.07,0.063v-0.125l-33.253-29.114V86.799l-10.175-9.079L314.786,0l19.451,42.418
			l18.008,13.364l18.008-13.364L389.704,0l6.039,77.72l-10.174,9.079v26.507L352.316,142.42L352.316,142.42L352.316,142.42z
			 M352.316,166.81v62.925l-44.313-38.109l-2.659-66.471L352.316,166.81L352.316,166.81z M352.316,165.924v62.925l44.313-38.11
			l2.658-66.47L352.316,165.924L352.316,165.924z M351.3,251.893v120.533l-23.043-120.533H351.3L351.3,251.893z M351.3,251.893
			v120.533l23.043-120.533H351.3L351.3,251.893z M351.3,251.893"/>
	</g>
</g>
</svg>
