<?xml version="1.0" encoding="utf-8"?>
<!-- Generator: Adobe Illustrator 16.0.0, SVG Export Plug-In . SVG Version: 6.00 Build 0)  -->
<!DOCTYPE svg PUBLIC "-//W3C//DTD SVG 1.1//EN" "http://www.w3.org/Graphics/SVG/1.1/DTD/svg11.dtd">
<svg version="1.1" xmlns="http://www.w3.org/2000/svg" xmlns:xlink="http://www.w3.org/1999/xlink" x="0px" y="0px"
	 width="701.667px" height="598.063px" viewBox="0 0 701.667 598.063" enable-background="new 0 0 701.667 598.063"
	 xml:space="preserve">
<g id="Layer_3">
	<g>
		<path fill="#4D4B4D" d="M32.538,171.777c-75.303,295.868,178.697,398.868,259.697,413.202v-12.834
			C219.235,548.946-7.765,482.979,32.538,171.777z"/>
		<polygon fill="#4D4B4D" points="229.737,565.645 185.167,587.481 232.417,598.063 268.862,579.245 		"/>
		<polygon fill="#4D4B4D" points="170.7,534.065 124.417,545.395 165.546,563.875 204.61,554.764 		"/>
		<polygon fill="#4D4B4D" points="112.729,490.608 73.517,490.608 111.591,519.843 148.093,519.653 		"/>
		<polygon fill="#4D4B4D" points="66.616,433.473 29.334,425.774 59.796,461.028 94.536,468.024 		"/>
		<polygon fill="#4D4B4D" points="35.072,370.893 5.114,353.018 20.884,392.694 50.104,409.979 		"/>
		<polygon fill="#4D4B4D" points="21.847,306.131 0,285.659 5.958,321.815 27.292,341.659 		"/>
		<polygon fill="#4D4B4D" points="21.243,236.278 0.777,212.073 2.426,247.704 20.796,269.313 		"/>
	</g>
	<g>
		<path fill="#4D4B4D" d="M667.935,171.777c75.301,295.868-177.699,398.868-259.699,413.202v-12.834
			C481.235,548.946,708.235,482.979,667.935,171.777z"/>
		<polygon fill="#4D4B4D" points="471.929,565.645 516.499,587.481 469.249,598.063 432.804,579.245 		"/>
		<polygon fill="#4D4B4D" points="530.968,534.065 577.249,545.395 536.12,563.875 497.058,554.764 		"/>
		<polygon fill="#4D4B4D" points="588.937,490.608 628.149,490.608 590.075,519.843 553.573,519.653 		"/>
		<polygon fill="#4D4B4D" points="635.052,433.473 672.333,425.774 641.872,461.028 607.132,468.024 		"/>
		<polygon fill="#4D4B4D" points="666.595,370.893 696.552,353.018 680.782,392.694 651.563,409.979 		"/>
		<polygon fill="#4D4B4D" points="679.819,306.131 701.667,285.659 695.71,321.815 674.374,341.659 		"/>
		<polygon fill="#4D4B4D" points="680.425,236.278 700.89,212.073 699.241,247.704 680.872,269.313 		"/>
	</g>
</g>
<g id="Layer_2">
	<g id="_x31_">
		<path fill-rule="evenodd" clip-rule="evenodd" fill="#FFFFFF" d="M351.63,143.819v0.125l-0.07-0.063l-0.071,0.063v-0.125
			l-33.253-29.114V88.198l-10.175-9.079l6.04-77.72l19.451,42.418l18.008,13.364l18.008-13.364l19.451-42.418l6.039,77.72
			l-10.176,9.079v26.507L351.63,143.819L351.63,143.819L351.63,143.819z M351.63,168.208v62.925l-44.313-38.109l-2.659-66.471
			L351.63,168.208L351.63,168.208z M351.63,167.323v62.925l44.314-38.11l2.658-66.47L351.63,167.323L351.63,167.323z
			 M350.614,253.292v120.533l-23.043-120.533H350.614L350.614,253.292z M350.614,253.292v120.533l23.043-120.533H350.614
			L350.614,253.292z M228.055,206.795l32.774,1.326l46.317,47.473L351.63,480.75L183.275,327.034L228.055,206.795L228.055,206.795z
			 M475.206,206.795l-32.775,1.326l-46.316,47.473L351.63,480.75l168.355-153.717L475.206,206.795L475.206,206.795z
			 M475.206,206.795"/>
	</g>
</g>
</svg>
