<?xml version="1.0" encoding="utf-8"?>
<!-- Generator: Adobe Illustrator 16.0.0, SVG Export Plug-In . SVG Version: 6.00 Build 0)  -->
<!DOCTYPE svg PUBLIC "-//W3C//DTD SVG 1.1//EN" "http://www.w3.org/Graphics/SVG/1.1/DTD/svg11.dtd">
<svg version="1.1" id="Layer_3" xmlns="http://www.w3.org/2000/svg" xmlns:xlink="http://www.w3.org/1999/xlink" x="0px" y="0px"
	 width="416.305px" height="480.707px" viewBox="0 0 416.305 480.707" enable-background="new 0 0 416.305 480.707"
	 xml:space="preserve">
<path d="M208.346,187.162c29.5,0,53.415,23.915,53.415,53.415c0,29.5-23.915,53.415-53.415,53.415s-53.415-23.915-53.415-53.415
	C154.931,211.077,178.845,187.162,208.346,187.162 M208.346,137.162c-57.023,0-103.415,46.392-103.415,103.415
	s46.392,103.415,103.415,103.415s103.415-46.392,103.415-103.415S265.369,137.162,208.346,137.162L208.346,137.162z"/>
<polygon points="208.346,0 246.846,186.354 169.845,186.354 "/>
<polygon points="0,120.289 180.637,180.123 142.137,246.808 "/>
<polygon points="0,360.866 142.136,234.347 180.637,301.031 "/>
<polygon points="208.346,480.707 169.845,294.354 246.846,294.354 "/>
<polygon points="416.305,360.642 235.667,300.808 274.168,234.123 "/>
<polygon points="416.304,120.512 274.168,247.031 235.667,180.346 "/>
<g>
</g>
<g>
</g>
<g>
</g>
<g>
</g>
<g>
</g>
<g>
</g>
<g>
</g>
<g>
</g>
<g>
</g>
<g>
</g>
<g>
</g>
<g>
</g>
<g>
</g>
<g>
</g>
<g>
</g>
</svg>
